<svg width="48" height="48" viewBox="0 0 48 48" xmlns="http://www.w3.org/2000/svg" xmlns:xlink="http://www.w3.org/1999/xlink" overflow="hidden"><g id="Icon-Resource/Networking-and-Content-Delivery/Res_Amazon-VPC_VPN-Connection_48" stroke="none" stroke-width="1" fill="none" fill-rule="evenodd"><path d="M43.5939 15.2041C43.5968 15.4721 43.4928 15.7281 43.3048 15.9191L38.9358 20.3361 37.5138 18.9301 40.1318 16.2821 7.4778 16.2821 10.1258 18.8941 8.7218 20.3181 4.2978 15.9541C4.1078 15.7661 3.9998 15.5101 3.9998 15.2421 3.9998 14.9751 4.1078 14.7181 4.2978 14.5301L8.7218 10.1661 10.1258 11.5901 7.3968 14.2821 40.1828 14.2821 37.4248 11.6261 38.8118 10.1841 43.2868 14.4951C43.4808 14.6811 43.5908 14.9361 43.5939 15.2041L43.5939 15.2041ZM16.4758 12.5851 14.4758 12.5851 14.4758 12.2001C14.4948 6.5741 18.8698 2.0001 24.2298 2.0001 29.6248 2.0191 33.9678 6.6361 33.9479 12.2921L33.9479 12.5851 31.9478 12.5851 31.9478 12.2881C31.9638 7.7311 28.5158 4.0161 24.2608 4.0001 19.9698 4.0001 16.4908 7.6801 16.4758 12.2041L16.4758 12.5851ZM22.8008 28.8161C23.1648 28.4521 23.6488 28.2521 24.1638 28.2521L24.1658 28.2521C24.6828 28.2521 25.1678 28.4531 25.5328 28.8181 25.8978 29.1831 26.0978 29.6671 26.0968 30.1831L26.0968 30.1831C26.0968 30.7001 25.8958 31.1851 25.5308 31.5511 25.1658 31.9141 24.6828 32.1141 24.1668 32.1141L24.1648 32.1141C23.1008 32.1141 22.2348 31.2481 22.2348 30.1831 22.2358 29.6671 22.4368 29.1811 22.8008 28.8161L22.8008 28.8161ZM23.1658 33.9701 23.1658 39.1221 25.1658 39.1221 25.1658 33.9711C25.8298 33.7961 26.4448 33.4641 26.9438 32.9661 27.6868 32.2241 28.0968 31.2361 28.0968 30.1841 28.0978 29.1351 27.6908 28.1471 26.9478 27.4051 26.2048 26.6611 25.2178 26.2521 24.1668 26.2521L24.1618 26.2521C23.1138 26.2521 22.1278 26.6601 21.3868 27.4021 20.6448 28.1431 20.2358 29.1311 20.2348 30.1831 20.2348 32.0031 21.4848 33.5241 23.1658 33.9701L23.1658 33.9701ZM37.1618 44.0191 11.1598 44.0081 11.1668 24.1341 37.1718 24.1441 37.1618 44.0191ZM38.1718 22.1441 33.9478 22.1421 33.9478 17.8821 31.9478 17.8821 31.9478 22.1411 16.4758 22.1361 16.4758 17.8821 14.4758 17.8821 14.4758 22.1361 10.1668 22.1341C9.9028 22.1341 9.6478 22.2391 9.4598 22.4271 9.2728 22.6141 9.1668 22.8681 9.1668 23.1341L9.1598 45.0081C9.1598 45.5591 9.6078 46.0081 10.1598 46.0081L38.1618 46.0191C38.7138 46.0191 39.1618 45.5721 39.1618 45.0191L39.1718 23.1441C39.1718 22.8801 39.0668 22.6251 38.8788 22.4371 38.6918 22.2501 38.4378 22.1441 38.1718 22.1441L38.1718 22.1441Z" id="AWS-Amazon-VPC_VPN-connection_Resource-Icon_light-bg" fill="#8C4FFF"/></g></svg>