<svg width="48" height="48" viewBox="0 0 48 48" xmlns="http://www.w3.org/2000/svg" xmlns:xlink="http://www.w3.org/1999/xlink" fill="none" overflow="hidden"><g id="Icon-Resource/Networking-and-Content-Delivery/Res_Amazon-API-Gateway_Endpoint_48"><path d="M25.909 24.955 27.817 24.955 27.817 23.046 25.909 23.046 25.909 24.955ZM23.045 24.955 24.954 24.955 24.954 23.046 23.045 23.046 23.045 24.955ZM20.182 24.955 22.091 24.955 22.091 23.046 20.182 23.046 20.182 24.955ZM37.318 31.003 30.728 36.802 30.728 11.332 37.318 17.13 37.318 31.003ZM30.944 8.926C30.74 8.839 29.856 8.579 29.242 8.92L28.728 9.205 28.728 38.929 29.242 39.214C29.471 39.341 29.737 39.385 29.993 39.385 30.421 39.385 30.816 39.263 30.944 39.208L31.092 39.146 38.565 32.569C39.028 32.299 39.318 31.813 39.318 31.284L39.318 16.849C39.318 16.321 39.029 15.835 38.566 15.564L31.092 8.988 30.944 8.926ZM17.273 36.803 10.682 31.004 10.682 17.129 17.273 11.331 17.273 36.803ZM17.055 8.926 16.907 8.988 9.432 15.565C8.971 15.836 8.682 16.321 8.682 16.849L8.682 31.284C8.682 31.812 8.971 32.299 9.433 32.568L16.907 39.146 17.055 39.208C17.182 39.263 17.578 39.385 18.006 39.385 18.261 39.385 18.527 39.341 18.756 39.215L19.273 38.93 19.273 9.204 18.756 8.919C18.144 8.582 17.258 8.839 17.055 8.926L17.055 8.926ZM44 32.284 32.284 44 15.715 44 4 32.284 4 15.716 15.715 4 32.284 4 44 15.716 44 32.284ZM33.112 2 14.887 2 2 14.888 2 33.112 14.887 46 33.112 46 46 33.112 46 14.888 33.112 2Z" id="AWS-Amazon-API-Gateway_Endpoint_Resource-Icon_light-bg" fill="#8C4FFF" fill-rule="evenodd" clip-rule="evenodd"/></g></svg>