<svg width="48" height="48" viewBox="0 0 48 48" xmlns="http://www.w3.org/2000/svg" xmlns:xlink="http://www.w3.org/1999/xlink" overflow="hidden"><g id="Icon-Resource/Analytics/Res_AWS-Glue_Crawler_48" stroke="none" stroke-width="1" fill="none" fill-rule="evenodd"><path d="M34 44C32.269 44 30.712 42.889 29.615 41.125L34 38.202 38.384 41.125C37.288 42.889 35.73 44 34 44L34 44ZM33 28.071 33 36.465 28.734 39.31C28.267 38.028 28 36.561 28 35 28 30.959 29.81 28.49 33 28.071L33 28.071ZM34 24C34.901 24 35.678 24.955 35.917 26.21 35.283 26.072 34.639 26 34 26 33.361 26 32.716 26.072 32.083 26.21 32.322 24.955 33.099 24 34 24L34 24ZM40 35C40 36.561 39.733 38.028 39.266 39.31L35 36.465 35 28.071C38.19 28.49 40 30.959 40 35L40 35ZM46 30 44 30C44 31.916 42.85 32.976 41.917 33.523 41.735 31.78 41.238 30.382 40.521 29.293 41.597 28.517 43 26.942 43 24L41 24C41 26.283 39.864 27.347 39.18 27.785 38.808 27.472 38.413 27.202 37.998 26.977 37.994 25.965 37.748 25.024 37.329 24.238 37.832 23.759 38.422 22.989 38.749 21.852 39.48 21.555 40 20.838 40 20 40 18.898 39.103 18 38 18 36.897 18 36 18.898 36 20 36 20.624 36.293 21.175 36.742 21.542 36.545 22.083 36.271 22.469 36.03 22.717 35.434 22.272 34.744 22 34 22 33.256 22 32.566 22.272 31.969 22.717 31.729 22.469 31.454 22.083 31.258 21.542 31.707 21.175 32 20.624 32 20 32 18.898 31.103 18 30 18 28.897 18 28 18.898 28 20 28 20.838 28.519 21.555 29.251 21.852 29.578 22.989 30.168 23.759 30.67 24.238 30.252 25.024 30.006 25.965 30.002 26.977 29.585 27.203 29.188 27.475 28.814 27.791 28.133 27.353 27 26.282 27 24L25 24C25 26.942 26.402 28.517 27.478 29.293 26.762 30.382 26.264 31.78 26.083 33.523 25.15 32.976 24 31.916 24 30L22 30C22 33.274 24.332 35.044 26.026 35.728 26.083 36.904 26.271 38.03 26.576 39.078 25.49 39.373 22 40.517 22 43L24 43C24 42.221 25.918 41.305 27.243 40.971L27.182 40.726C28.589 43.883 31.115 46 34 46 36.885 46 39.41 43.883 40.818 40.726L40.757 40.971C42.082 41.305 44 42.221 44 43L46 43C46 40.517 42.51 39.373 41.424 39.078 41.729 38.03 41.917 36.904 41.973 35.728 43.667 35.044 46 33.274 46 30L46 30ZM17 15 44 15 44 10 17 10 17 15ZM9 23 15 23 15 17 9 17 9 23ZM9 30 15 30 15 25 9 25 9 30ZM4 30 7 30 7 10 4 10 4 30ZM4 8 7 8 7 4 4 4 4 8ZM9 15 15 15 15 10 9 10 9 15ZM9 8 44 8 44 4 9 4 9 8ZM45 2 3 2C2.447 2 2 2.447 2 3L2 31C2 31.553 2.447 32 3 32L20 32 20 30 17 30 17 25 22 25 22 23 17 23 17 17 44 17 44 21 46 21 46 3C46 2.447 45.553 2 45 2L45 2Z" id="Icon-Resource/48/AWS-Glue_Crawler" fill="#8C4FFF"/></g></svg>