<svg width="80" height="80" viewBox="0 0 80 80" xmlns="http://www.w3.org/2000/svg" xmlns:xlink="http://www.w3.org/1999/xlink" overflow="hidden"><g id="Icon-Architecture/64/Arch_AWS-Elemental-MediaConnect_64" stroke="none" stroke-width="1" fill="none" fill-rule="evenodd"><g id="Icon-Architecture-BG/64/Media-Services" fill="#ED7100"><rect x="0" y="0" width="80" height="80" id="Rectangle"/></g><path d="M61 33.6182 56 31.1182 51 33.6182 51 40.3821 56 42.8821 61 40.3821 61 33.6182ZM45 23.6182 40 21.1182 35 23.6182 35 30.3822 40 32.8822 45 30.3822 45 23.6182ZM29 33.6182 24 31.1182 19 33.6182 19 40.3821 24 42.8821 29 40.3821 29 33.6182ZM63 33.0002 63 41.0001C63 41.3791 62.786 41.7251 62.447 41.8941L56.447 44.8941C56.307 44.9651 56.153 45.0001 56 45.0001 55.847 45.0001 55.693 44.9651 55.553 44.8941L49.553 41.8941C49.214 41.7251 49 41.3791 49 41.0001L49 33.6182 46 32.1182 40.447 34.8941C40.166 35.0351 39.834 35.0351 39.553 34.8941L34 32.1182 31 33.6182 31 41.0001C31 41.3791 30.786 41.7251 30.447 41.8941L24.447 44.8941C24.166 45.0351 23.834 45.0351 23.553 44.8941L17.553 41.8941C17.214 41.7251 17 41.3791 17 41.0001L17 33.0002C17 32.6212 17.214 32.2752 17.553 32.1052L23.553 29.1052C23.834 28.9652 24.166 28.9652 24.447 29.1052L30 31.8822 33 30.3822 33 23.0002C33 22.6212 33.214 22.2752 33.553 22.1052L39.553 19.1052C39.834 18.9652 40.166 18.9652 40.447 19.1052L46.447 22.1052C46.786 22.2752 47 22.6212 47 23.0002L47 30.3822 50 31.8822 55.553 29.1052C55.834 28.9652 56.166 28.9652 56.447 29.1052L62.447 32.1052C62.786 32.2752 63 32.6212 63 33.0002L63 33.0002ZM35.515 55.1421 34.485 56.857 39.486 59.857C39.645 59.952 39.823 60 40.001 60 40.179 60 40.357 59.952 40.516 59.857L45.515 56.857 44.485 55.1421 41 57.234 41 41.7651 44.485 43.8571 45.515 42.1421 40.515 39.1421C40.198 38.9511 39.802 38.9511 39.485 39.1421L34.485 42.1421 35.515 43.8571 39 41.7651 39 57.233 35.515 55.1421ZM24.024 24.1812 28.485 26.8572C28.795 27.0432 29.18 27.0482 29.493 26.8702 29.807 26.6932 30 26.3602 30 26.0002L30 20.5942 40 15.1392 50 20.5942 50 26.0002C50 26.3602 50.193 26.6932 50.507 26.8702 50.821 27.0482 51.206 27.0432 51.515 26.8572L55.976 24.1812 61.45 27.7842 62.55 26.1132 56.55 22.1642C56.229 21.9542 55.816 21.9452 55.485 22.1422L52 24.2342 52 20.0002C52 19.6342 51.8 19.2972 51.479 19.1222L40.479 13.1222C40.182 12.9593 39.818 12.9593 39.521 13.1222L28.521 19.1222C28.2 19.2972 28 19.6342 28 20.0002L28 24.2342 24.515 22.1422C24.184 21.9452 23.771 21.9532 23.45 22.1642L17.45 26.1132 18.55 27.7842 24.024 24.1812ZM63 52.9291C63.002 53.2841 62.815 53.6141 62.511 53.7951L40.511 66.86C40.354 66.953 40.177 67 40 67 39.823 67 39.646 66.953 39.489 66.86L17.489 53.7941C17.185 53.6131 16.998 53.2831 17 52.9281 17.002 52.5731 17.192 52.2461 17.5 52.0681L29.5 45.1341 30.5 46.8661 19.979 52.9461 40 64.837 60.021 52.9471 49.5 46.8661 50.5 45.1341 62.5 52.0691C62.808 52.2471 62.998 52.5741 63 52.9291L63 52.9291Z" id="AWS-Elemental-MediaConnect_Icon_64_Squid" fill="#FFFFFF"/></g></svg>