<svg width="48" height="48" viewBox="0 0 48 48" xmlns="http://www.w3.org/2000/svg" xmlns:xlink="http://www.w3.org/1999/xlink" overflow="hidden"><g id="Icon-Resource/IoT/Res_AWS-IoT_Servo_48" stroke="none" stroke-width="1" fill="none" fill-rule="evenodd"><path d="M22.3422 25.4737 23.9692 23.0347 25.5952 25.4737 22.3422 25.4737ZM24.8012 20.6767C24.6152 20.3987 24.3032 20.2317 23.9692 20.2317 23.6352 20.2317 23.3222 20.3987 23.1372 20.6767L19.6422 25.9187C19.4382 26.2257 19.4182 26.6197 19.5922 26.9457 19.7662 27.2707 20.1052 27.4737 20.4742 27.4737L27.4632 27.4737C27.8322 27.4737 28.1712 27.2707 28.3452 26.9457 28.5192 26.6197 28.5002 26.2257 28.2952 25.9187L24.8012 20.6767ZM10.5532 23.8527C10.5532 22.9587 11.2802 22.2317 12.1742 22.2317 13.0682 22.2317 13.7952 22.9587 13.7952 23.8527 13.7952 24.7457 13.0682 25.4737 12.1742 25.4737 11.2802 25.4737 10.5532 24.7457 10.5532 23.8527ZM8.5532 23.8527C8.5532 25.8497 10.1772 27.4737 12.1742 27.4737 14.1712 27.4737 15.7952 25.8497 15.7952 23.8527 15.7952 21.8557 14.1712 20.2317 12.1742 20.2317 10.1772 20.2317 8.5532 21.8557 8.5532 23.8527ZM43.9372 37.7047 23.0952 37.7047C23.1602 37.4937 23.1752 37.2687 23.0962 37.0577L22.0032 34.1737C21.9042 33.9117 21.6972 33.7027 21.4372 33.5987 21.1782 33.4967 20.8852 33.5057 20.6312 33.6287L19.8912 33.9887C19.7422 33.8147 19.5842 33.6477 19.4192 33.4887L19.8302 32.7717C19.9702 32.5277 20.0002 32.2357 19.9132 31.9667 19.8272 31.6997 19.6322 31.4807 19.3752 31.3637L16.5632 30.0877C16.3072 29.9717 16.0122 29.9687 15.7522 30.0807 15.4932 30.1937 15.2942 30.4097 15.2032 30.6767L14.9362 31.4607C14.7062 31.4427 14.4762 31.4377 14.2482 31.4387L14.0292 30.6397C13.9552 30.3677 13.7702 30.1397 13.5192 30.0117 13.2662 29.8837 12.9732 29.8697 12.7102 29.9677L9.8272 31.0597C9.5652 31.1597 9.3562 31.3657 9.2522 31.6267 9.1492 31.8887 9.1602 32.1817 9.2832 32.4337L9.6462 33.1767C9.4712 33.3257 9.3032 33.4817 9.1432 33.6447L8.4252 33.2337C8.1832 33.0937 7.8902 33.0617 7.6202 33.1497 7.3532 33.2357 7.1332 33.4307 7.0172 33.6877L5.7412 36.5007C5.6252 36.7567 5.6222 37.0507 5.7342 37.3087 5.8042 37.4737 5.9272 37.6007 6.0692 37.7047L4.0002 37.7047 4.0002 9.9997 24.8432 9.9997C24.7772 10.2117 24.7622 10.4367 24.8422 10.6477L25.9342 13.5307C26.0332 13.7927 26.2382 14.0007 26.4992 14.1047 26.7612 14.2107 27.0542 14.1997 27.3062 14.0757L28.0462 13.7167C28.1952 13.8907 28.3522 14.0577 28.5182 14.2167L28.1082 14.9327C27.9672 15.1767 27.9372 15.4687 28.0232 15.7377 28.1102 16.0047 28.3052 16.2237 28.5622 16.3407L31.3752 17.6177C31.6312 17.7327 31.9262 17.7367 32.1862 17.6237 32.4452 17.5117 32.6442 17.2947 32.7352 17.0287L33.0002 16.2477C33.2292 16.2667 33.4632 16.2757 33.6892 16.2707L33.9082 17.0677C33.9832 17.3377 34.1682 17.5657 34.4182 17.6927 34.5612 17.7657 34.7162 17.8017 34.8722 17.8017 34.9912 17.8017 35.1112 17.7807 35.2242 17.7387L38.1072 16.6557C38.3692 16.5557 38.5792 16.3517 38.6842 16.0907 38.7882 15.8297 38.7782 15.5367 38.6552 15.2847L38.2962 14.5377C38.4722 14.3887 38.6412 14.2297 38.8032 14.0637L39.5092 14.4707C39.7542 14.6117 40.0462 14.6437 40.3152 14.5567 40.5832 14.4707 40.8032 14.2747 40.9202 14.0177L42.1962 11.2037C42.3132 10.9477 42.3162 10.6537 42.2032 10.3947 42.1322 10.2307 42.0102 10.1037 41.8682 9.9997L43.9372 9.9997 43.9372 37.7047ZM9.1872 37.7047 9.1982 37.6437C9.2912 37.1557 9.0132 36.6737 8.5432 36.5107L8.0162 36.3277 8.3852 35.5147 8.8632 35.7887C9.3012 36.0407 9.8542 35.9257 10.1572 35.5257 10.5152 35.0547 10.9512 34.6487 11.4562 34.3167 11.8772 34.0397 12.0272 33.4947 11.8062 33.0417L11.5622 32.5417 12.3912 32.2277 12.5372 32.7657C12.6732 33.2557 13.1612 33.5707 13.6522 33.4907 14.2182 33.4047 14.8122 33.4237 15.4222 33.5437 15.9142 33.6477 16.4022 33.3607 16.5632 32.8857L16.7402 32.3657 17.5482 32.7317 17.2732 33.2107C17.0232 33.6477 17.1362 34.2027 17.5372 34.5057 18.0182 34.8697 18.4292 35.3047 18.7592 35.7997 19.0342 36.2137 19.5762 36.3647 20.0282 36.1447L20.5202 35.9057 20.8362 36.7387 20.3052 36.8847C19.9132 36.9927 19.6352 37.3217 19.5792 37.7047L9.1872 37.7047ZM38.7532 9.9997C38.7492 10.0177 38.7462 10.0357 38.7422 10.0527 38.6392 10.5467 38.9202 11.0407 39.3992 11.2037L39.9192 11.3817 39.5542 12.1877 39.0852 11.9167C38.6472 11.6637 38.0932 11.7787 37.7882 12.1797 37.4222 12.6617 36.9862 13.0717 36.4892 13.3977 36.0712 13.6727 35.9202 14.2157 36.1382 14.6677L36.3792 15.1677 35.5462 15.4807 35.3992 14.9467C35.2792 14.5077 34.8792 14.2117 34.4362 14.2117 34.3902 14.2117 34.3442 14.2147 34.2972 14.2217 33.7032 14.3037 33.1072 14.2847 32.5262 14.1627 32.0352 14.0557 31.5362 14.3397 31.3742 14.8197L31.1962 15.3397 30.3892 14.9737 30.6632 14.4947C30.9142 14.0577 30.8012 13.5027 30.4002 13.1997 29.9192 12.8357 29.5082 12.4007 29.1782 11.9057 28.9022 11.4907 28.3622 11.3387 27.9092 11.5607L27.4172 11.7987 27.1032 10.9677 27.6402 10.8217C28.0322 10.7137 28.3102 10.3847 28.3662 9.9997L38.7532 9.9997ZM39.8522 7.9997 27.3152 7.9997 3.0002 7.9997C2.4472 7.9997 2.0002 8.4477 2.0002 8.9997L2.0002 38.7047C2.0002 39.2577 2.4472 39.7047 3.0002 39.7047L8.0942 39.7047 20.6312 39.7047 44.9372 39.7047C45.4892 39.7047 45.9372 39.2577 45.9372 38.7047L45.9372 8.9997C45.9372 8.4477 45.4892 7.9997 44.9372 7.9997L39.8522 7.9997Z" id="Amazon-IOT-RESOURCES-IoT-servo_Resource-Icon_light-bg" fill="#7AA116"/></g></svg>