<svg width="48" height="48" viewBox="0 0 48 48" xmlns="http://www.w3.org/2000/svg" xmlns:xlink="http://www.w3.org/1999/xlink" overflow="hidden"><g id="Icon-Resource/Database/Res_Amazon-DocumentDB_Elastic-Clusters_48" stroke="none" stroke-width="1" fill="none" fill-rule="evenodd"><path d="M27.9229 34.009C30.9139 33.502 31.9999 32.53 31.9999 32.001L31.9999 29.52C30.0539 30.437 26.9669 30.806 23.9999 30.806 21.0329 30.806 17.9459 30.437 15.9999 29.52L15.9999 32.001C15.9999 32.53 17.0859 33.502 20.0769 34.009 20.7399 34.121 21.4439 34.205 22.1699 34.257 22.4669 34.279 22.7669 34.295 23.0699 34.305 23.6839 34.328 24.3189 34.328 24.9279 34.305 25.2339 34.295 25.5329 34.279 25.8279 34.257 26.5559 34.205 27.2599 34.121 27.9229 34.009L27.9229 34.009ZM15.9999 27.094C16.1199 27.593 18.5929 28.806 23.9999 28.806 29.4009 28.806 31.8739 27.597 31.9999 27.09L31.9999 23.953C30.0129 24.908 26.8599 25.29 23.9999 25.29 21.1409 25.29 17.9869 24.908 15.9999 23.953L15.9999 27.094ZM15.9999 21.506C16.1059 22.01 18.6419 23.29 23.9999 23.29 29.3589 23.29 31.8949 22.01 31.9999 21.501L31.9999 18.357C30.0799 19.321 27.0349 19.774 23.9999 19.774 20.9649 19.774 17.9199 19.321 15.9999 18.357L15.9999 21.506ZM16.0189 15.905C16.2279 16.458 18.8139 17.774 23.9999 17.774 29.1829 17.774 31.7689 16.459 31.9809 15.903 31.7849 15.076 29.0569 13.677 23.9999 13.677 18.9389 13.677 16.2109 15.078 16.0189 15.905L16.0189 15.905ZM28.2569 35.981C27.5309 36.104 26.7629 36.196 25.9729 36.252 25.6539 36.275 25.3289 36.293 24.9999 36.304 24.6719 36.317 24.3379 36.322 23.9999 36.322 23.6619 36.322 23.3279 36.317 22.9979 36.304 22.6709 36.293 22.3459 36.275 22.0259 36.252 21.2369 36.196 20.4689 36.104 19.7429 35.981 16.0929 35.362 13.9999 33.911 13.9999 32.001L13.9999 15.998C13.9999 15.973 14.0069 15.949 14.0079 15.924 14.0069 15.903 13.9999 15.883 13.9999 15.861L14.0139 15.861C14.1609 13.391 18.2199 11.677 23.9999 11.677 29.7799 11.677 33.8389 13.391 33.9859 15.861L33.9999 15.861C33.9999 15.883 33.9929 15.903 33.9929 15.924 33.9929 15.949 33.9999 15.973 33.9999 15.998L33.9999 32.001C33.9999 33.911 31.9069 35.362 28.2569 35.981L28.2569 35.981ZM44.9999 2 38.9999 2 38.9999 4 42.5859 4 36.5429 10.043 37.9569 11.457 43.9999 5.414 43.9999 9 45.9999 9 45.9999 3C45.9999 2.447 45.5529 2 44.9999 2L44.9999 2ZM1.9999 20 3.9999 20 3.9999 13 1.9999 13 1.9999 20ZM1.9999 33 3.9999 33 3.9999 26 1.9999 26 1.9999 33ZM43.9999 22 45.9999 22 45.9999 15 43.9999 15 43.9999 22ZM43.9999 35 45.9999 35 45.9999 28 43.9999 28 43.9999 35ZM3.9999 4 6.9999 4 6.9999 2 2.9999 2C2.4469 2 1.9999 2.447 1.9999 3L1.9999 7 3.9999 7 3.9999 4ZM12.9999 4 19.9999 4 19.9999 2 12.9999 2 12.9999 4ZM25.9999 4 32.9999 4 32.9999 2 25.9999 2 25.9999 4ZM14.9999 46 21.9999 46 21.9999 44 14.9999 44 14.9999 46ZM27.9999 46 34.9999 46 34.9999 44 27.9999 44 27.9999 46ZM43.9999 43.999 40.9999 44 40.9999 46 44.9999 45.999C45.5529 45.999 45.9999 45.551 45.9999 44.999L45.9999 41 43.9999 41 43.9999 43.999ZM11.4569 37.957 5.4139 44 8.9999 44 8.9999 46 2.9999 46C2.4469 46 1.9999 45.552 1.9999 45L1.9999 39 3.9999 39 3.9999 42.586 10.0429 36.543 11.4569 37.957Z" id="Fill-1" fill="#C925D1"/></g></svg>