<svg width="80" height="80" viewBox="0 0 80 80" xmlns="http://www.w3.org/2000/svg" xmlns:xlink="http://www.w3.org/1999/xlink" overflow="hidden"><g id="Icon-Architecture/64/Arch_AWS-Entity-Resolution_64" stroke="none" stroke-width="1" fill="none" fill-rule="evenodd"><g id="Icon-Architecture-BG/64/Analytics" fill="#8C4FFF"><rect x="0" y="0" width="80" height="80" id="Rectangle"/></g><g id="Icon-Service/64/AWS-Entity-Resolution_64" fill="#FFFFFF" transform="translate(12 12)"><path d="M50 41C47.794 41 46 39.206 46 37 46 34.794 47.794 33 50 33 52.206 33 54 34.794 54 37 54 39.206 52.206 41 50 41L50 41ZM33.654 46.22C33.305 45.79 32.896 45.412 32.442 45.093L39.864 29.394 44.697 34.201C44.254 35.037 44 35.989 44 37 44 37.846 44.178 38.65 44.495 39.38L33.654 46.22ZM29 54C26.794 54 25 52.206 25 50 25 47.794 26.794 46 29 46 31.206 46 33 47.794 33 50 33 52.206 31.206 54 29 54L29 54ZM2 25C2 22.794 3.794 21 6 21 8.206 21 10 22.794 10 25 10 27.206 8.206 29 6 29 3.794 29 2 27.206 2 25L2 25ZM27.444 17.042 38.359 27.897 30.636 44.233C30.115 44.085 29.568 44 29 44 28.063 44 27.178 44.222 26.387 44.607L10.689 28.733C11.507 27.707 12 26.411 12 25 12 24.599 11.959 24.208 11.883 23.828L27.444 17.042ZM21.526 8.337C21.705 7.914 21.831 7.465 21.91 7L44.09 7C44.122 7.186 44.162 7.369 44.21 7.549L27.891 14.666 21.526 8.337ZM16 10C13.794 10 12 8.206 12 6 12 3.794 13.794 2 16 2 18.206 2 20 3.794 20 6 20 8.206 18.206 10 16 10L16 10ZM46.435 10.815 39.266 25.979 29.415 16.183 45.039 9.369C45.419 9.927 45.894 10.413 46.435 10.815L46.435 10.815ZM50 2C52.206 2 54 3.794 54 6 54 8.206 52.206 10 50 10 47.794 10 46 8.206 46 6 46 3.794 47.794 2 50 2L50 2ZM50 31C48.428 31 47 31.612 45.929 32.605L40.771 27.476 48.216 11.729C48.78 11.905 49.379 12 50 12 53.309 12 56 9.309 56 6 56 2.691 53.309 0 50 0 47.033 0 44.569 2.167 44.09 5L21.91 5C21.431 2.167 18.967 0 16 0 12.691 0 10 2.691 10 6 10 9.309 12.691 12 16 12 17.747 12 19.316 11.245 20.414 10.051L25.919 15.526 11.164 21.961C10.119 20.192 8.199 19 6 19 2.691 19 0 21.691 0 25 0 28.309 2.691 31 6 31 7.176 31 8.27 30.655 9.197 30.068L24.738 45.783C23.665 46.868 23 48.357 23 50 23 53.309 25.691 56 29 56 32.309 56 35 53.309 35 50 35 49.285 34.868 48.601 34.637 47.964L45.589 41.054C46.687 42.247 48.255 43 50 43 53.309 43 56 40.309 56 37 56 33.691 53.309 31 50 31L50 31Z" id="Fill-5"/></g></g></svg>