<svg width="80" height="80" viewBox="0 0 80 80" xmlns="http://www.w3.org/2000/svg" xmlns:xlink="http://www.w3.org/1999/xlink" overflow="hidden"><g id="Icon-Architecture/64/Arch_AWS-Training-Certification_64" stroke="none" stroke-width="1" fill="none" fill-rule="evenodd"><g id="Icon-Architecture-BG/64/Customer-Enablement" fill="#C925D1"><rect x="0" y="0" width="80" height="80" id="Rectangle"/></g><path d="M65.5 37.6685 54.5 31.3175C54.191 31.1405 53.809 31.1405 53.5 31.3175L42.5 37.6685C42.19 37.8475 42 38.1775 42 38.5345L42 48.5815 44 47.4265 44 39.1115 54 33.3385 64 39.1115 64 50.6595 54 56.4335 47.201 52.5075 45.201 53.6625 53.5 58.4535C53.654 58.5425 53.827 58.5875 54 58.5875 54.173 58.5875 54.346 58.5425 54.5 58.4535L65.5 52.1035C65.81 51.9245 66 51.5945 66 51.2365L66 38.5345C66 38.1775 65.81 37.8475 65.5 37.6685L65.5 37.6685ZM23 39.7815C23 36.1975 25.916 33.2815 29.5 33.2815 33.084 33.2815 36 36.1975 36 39.7815 36 43.3655 33.084 46.2815 29.5 46.2815 25.916 46.2815 23 43.3655 23 39.7815L23 39.7815ZM65 25.9645 16 25.9645C15.447 26.2815 15 26.7295 15 27.2815L15 54.8025C15 55.1605 15.192 55.4925 15.504 55.6705L36.78 67.8325C36.934 67.9205 37.105 67.9645 37.276 67.9645 37.447 67.9645 37.619 67.9205 37.772 67.8325L51.828 59.7985 49.824 58.6405 45.609 61.0495C45.316 59.0885 44.69 57.1785 43.724 55.3995L43.298 54.7615 41.565 55.7615 42.013 56.4315C42.958 58.1775 43.536 60.1225 43.727 62.1255L37.276 65.8135 17.84 54.7025C20.576 51.0825 24.889 48.9215 29.498 48.9215 32.14 48.9215 34.708 49.6485 36.931 51.0255L37.275 51.3095 39.126 50.2405 38.149 49.4395C38.116 49.4115 38.081 49.3865 38.045 49.3635 36.574 48.4435 34.967 47.7815 33.29 47.3785 36.077 45.9815 38 43.1055 38 39.7815 38 35.0955 34.187 31.2815 29.5 31.2815 24.813 31.2815 21 35.0955 21 39.7815 21 43.0945 22.909 45.9625 25.682 47.3645 22.324 48.1495 19.28 49.9555 17 52.5465L17 27.9645 64 27.9645 64 32.9645 66 34.1195 66 27.2815C66 26.7295 65.553 26.2815 65 25.9645L65 25.9645ZM20.017 23.9645 37.009 14.1535 54 23.9645 58 23.9645 37.509 12.1335C37.2 11.9555 36.817 11.9555 36.509 12.1335L16.016 23.9645 20.017 23.9645ZM33.591 58.0565 32.591 56.3235 51.827 45.2175 52.827 46.9495 33.591 58.0565Z" id="AWS-Training-Certification_Icon_64_Squid" fill="#FFFFFF"/></g></svg>