<svg width="48" height="48" viewBox="0 0 48 48" xmlns="http://www.w3.org/2000/svg" xmlns:xlink="http://www.w3.org/1999/xlink" overflow="hidden"><g id="Icon-Resource/IoT/Res_AWS-IoT-SiteWise_Asset_48" stroke="none" stroke-width="1" fill="none" fill-rule="evenodd"><path d="M7 44 9 44 9 42 7 42 7 44ZM10 40 6 40C5.448 40 5 40.448 5 41L5 45C5 45.552 5.448 46 6 46L10 46C10.552 46 11 45.552 11 45L11 41C11 40.448 10.552 40 10 40L10 40ZM5 36 7 36 7 34 5 34 5 36ZM9 37 9 33C9 32.448 8.552 32 8 32L4 32C3.448 32 3 32.448 3 33L3 37C3 37.552 3.448 38 4 38L8 38C8.552 38 9 37.552 9 37L9 37ZM15 40 20 40 20 35 15 35 15 40ZM21 33 14 33C13.448 33 13 33.448 13 34L13 41C13 41.552 13.448 42 14 42L21 42C21.552 42 22 41.552 22 41L22 34C22 33.448 21.552 33 21 33L21 33ZM31.5 36C31.224 36 31 35.776 31 35.5 31 35.224 31.224 35 31.5 35 31.776 35 32 35.224 32 35.5 32 35.776 31.776 36 31.5 36L31.5 36ZM31.5 34C30.673 34 30 34.673 30 35.5 30 36.327 30.673 37 31.5 37 32.327 37 33 36.327 33 35.5 33 34.673 32.327 34 31.5 34L31.5 34ZM25 44 44 44 44 42 25 42 25 44ZM28.179 35.746C27.905 34.544 28.429 33.308 29.482 32.669 30.626 31.973 32.125 32.177 33.054 33.163L39.696 40 29.149 40 28.179 35.746ZM38.773 22.754C39.43 23.273 40.202 23.571 41.012 23.655L35.988 33.312 34.499 31.78C33.889 31.132 33.127 30.692 32.311 30.458L38.5 22.567 38.773 22.754ZM22 5.818 42.754 17.389C43.295 17.744 43.658 18.291 43.773 18.928 43.89 19.565 43.744 20.204 43.363 20.727 43.065 21.136 42.653 21.425 42.182 21.575L42.113 21.539 42.081 21.599C41.984 21.625 41.888 21.656 41.786 21.67 41.148 21.759 40.52 21.585 39.958 21.145L22 8.842 22 5.818ZM24 23.395 24 29.271C23.825 29 23.657 28.642 23.526 28.172L23.231 24.91C23.22 24.786 23.186 24.665 23.13 24.553L22.13 22.553C21.982 22.258 21.699 22.055 21.373 22.009 21.044 21.964 20.718 22.083 20.496 22.327 20.131 22.728 19.283 22.979 18.226 23L18.019 23C16.958 22.98 16.105 22.729 15.739 22.327 15.518 22.083 15.188 21.964 14.863 22.009 14.537 22.055 14.253 22.258 14.105 22.553L13.105 24.553C13.05 24.665 13.015 24.786 13.004 24.91L12.709 28.172C12.529 28.815 12.262 29.26 12 29.562L12 23.414 15.361 20.054C15.462 19.953 15.541 19.831 15.591 19.696 15.985 18.638 16.987 17.93 18.107 17.905L18.128 17.905C19.248 17.93 20.25 18.638 20.645 19.696 20.691 19.82 20.761 19.934 20.852 20.03L24 23.395ZM17 5.5C17 4.673 17.673 4 18.5 4 19.327 4 20 4.673 20 5.5L20 16.329C19.49 16.1 18.942 15.95 18.369 15.914 18.302 15.906 18.234 15.905 18.166 15.905L18.069 15.905C18.001 15.904 17.932 15.905 17.867 15.914 17.57 15.933 17.283 15.989 17 16.061L17 5.5ZM45 40 42.484 40 37.456 34.824 43.523 23.161C44.089 22.857 44.59 22.44 44.98 21.904 45.686 20.934 45.957 19.75 45.741 18.569 45.526 17.389 44.855 16.375 43.79 15.679L21.112 3.033 21.058 3.129C20.419 2.439 19.513 2 18.5 2 16.57 2 15 3.57 15 5.5L15 17.125C14.494 17.578 14.079 18.138 13.802 18.785L10.293 22.293C10.105 22.48 9.99983 22.735 9.99983 23L9.99983 30.981C9.99 31.55 10.415 32.022 11.011 32.105 11.078 32.115 11.148 32.119 11.221 32.119 12.308 32.119 14.014 31.076 14.665 28.604 14.679 28.55 14.688 28.495 14.694 28.439L14.979 25.278 15.382 24.471C16.294 24.891 17.331 24.988 18 25L18.235 25 18.254 25C18.91 24.988 19.942 24.891 20.853 24.471L21.256 25.278 21.542 28.439C21.547 28.495 21.556 28.55 21.57 28.604 22.151 30.808 23.519 31.838 24.515 32.051 25.232 32.203 25.612 31.885 25.775 31.682 25.925 31.497 26.002 31.246 25.999 31L26 23C26 22.746 25.903 22.502 25.73 22.317L22.44 18.801C22.321 18.519 22.167 18.26 22 18.011L22 11.267 36.847 21.435 29.808 30.409C29.336 30.524 28.874 30.698 28.444 30.959 26.653 32.046 25.764 34.148 26.229 36.19L27.097 40 24 40C23.448 40 23 40.448 23 41L23 45C23 45.552 23.448 46 24 46L45 46C45.552 46 46 45.552 46 45L46 41C46 40.448 45.552 40 45 40L45 40Z" id="Fill-1" fill="#7AA116"/></g></svg>