<svg width="48" height="48" viewBox="0 0 48 48" xmlns="http://www.w3.org/2000/svg" xmlns:xlink="http://www.w3.org/1999/xlink" overflow="hidden"><g id="Icon-Resource/Storage/Res_AWS-Backup_Backup-Vault_48" stroke="none" stroke-width="1" fill="none" fill-rule="evenodd"><path d="M10.298 22.955 8.298 22.969C8.333 27.982 10.654 32.573 14.668 35.564 17.503 37.677 20.819 38.696 24.109 38.696 28.942 38.696 33.717 36.496 36.82 32.332 42.036 25.334 40.587 15.396 33.589 10.18 26.813 5.13 17.297 6.345 11.963 12.775L12 10.014 10 9.987 9.933 14.987C9.929 15.252 10.031 15.508 10.216 15.698 10.402 15.888 10.654 15.997 10.919 16L15.986 16.068 16.014 14.068 13.513 14.035C18.176 8.43 26.479 7.376 32.394 11.783 38.507 16.341 39.774 25.023 35.217 31.137 30.658 37.251 21.979 38.517 15.863 33.96 12.357 31.347 10.328 27.335 10.298 22.955L10.298 22.955ZM24 19C21.794 19 20 20.795 20 23 20 25.206 21.794 27 24 27 26.206 27 28 25.206 28 23 28 20.795 26.206 19 24 19L24 19ZM16.946 28.78 19.175 26.552C18.441 25.556 18 24.33 18 23 18 21.622 18.473 20.353 19.257 19.339L16.947 17.191 18.309 15.727 20.729 17.977C21.671 17.362 22.793 17 24 17 25.342 17 26.577 17.448 27.577 18.195L29.982 15.726 31.414 17.121 28.965 19.636C29.617 20.597 30 21.754 30 23 30 24.252 29.613 25.415 28.955 26.377L31.414 28.756 30.024 30.194 27.565 27.815C26.567 28.556 25.336 29 24 29 22.742 29 21.574 28.61 20.61 27.946L18.361 30.194 16.946 28.78ZM35 44 39 44 39 43 35 43 35 44ZM9 44 13 44 13 43 9 43 9 44ZM46 3 46 42C46 42.553 45.553 43 45 43L41 43 41 45C41 45.553 40.553 46 40 46L34 46C33.447 46 33 45.553 33 45L33 43 15 43 15 45C15 45.553 14.553 46 14 46L8 46C7.447 46 7 45.553 7 45L7 43 3 43C2.447 43 2 42.553 2 42L2 33 4 33 4 41 44 41 44 4 4 4 4 11 2 11 2 3C2 2.448 2.447 2 3 2L45 2C45.553 2 46 2.448 46 3L46 3ZM2 27 4 27 4 17 2 17 2 27Z" id="Fill-1" fill="#7AA116"/></g></svg>