<svg width="48" height="48" viewBox="0 0 48 48" xmlns="http://www.w3.org/2000/svg" xmlns:xlink="http://www.w3.org/1999/xlink" overflow="hidden"><g id="Icon-Resource/IoT/Res_AWS-IoT-Greengrass_Stream-Manager_48" stroke="none" stroke-width="1" fill="none" fill-rule="evenodd"><path d="M13 38 31 38 31 36 13 36 13 38ZM2 25 21 25 21 23 2 23 2 25ZM2 14 15 14 15 12 2 12 2 14ZM7 29 17 29 17 27 7 27 7 29ZM41 26 44 26 44 23 41 23 41 26ZM45 21 40 21C39.447 21 39 21.448 39 22L39 27C39 27.552 39.447 28 40 28L45 28C45.553 28 46 27.552 46 27L46 22C46 21.448 45.553 21 45 21L45 21ZM20 15 26 15 26 9 20 9 20 15ZM19 17 27 17C27.553 17 28 16.552 28 16L28 8C28 7.448 27.553 7 27 7L19 7C18.447 7 18 7.448 18 8L18 16C18 16.552 18.447 17 19 17L19 17ZM35 39 39 39 39 35 35 35 35 39ZM40 33 34 33C33.447 33 33 33.448 33 34L33 40C33 40.552 33.447 41 34 41L40 41C40.553 41 41 40.552 41 40L41 34C41 33.448 40.553 33 40 33L40 33ZM36 16 39 16 39 13 36 13 36 16ZM35 18 40 18C40.553 18 41 17.552 41 17L41 12C41 11.448 40.553 11 40 11L35 11C34.447 11 34 11.448 34 12L34 17C34 17.552 34.447 18 35 18L35 18ZM26 29 33 29 33 22 26 22 26 29ZM24 21 24 30C24 30.552 24.447 31 25 31L34 31C34.553 31 35 30.552 35 30L35 21C35 20.448 34.553 20 34 20L25 20C24.447 20 24 20.448 24 21L24 21Z" id="Fill-1" fill="#7AA116"/></g></svg>