<svg width="48" height="48" viewBox="0 0 48 48" xmlns="http://www.w3.org/2000/svg" xmlns:xlink="http://www.w3.org/1999/xlink" overflow="hidden"><g id="Icon-Resource/Storage/Res_Amazon-Simple-Storage-Service_S3-Multi-Region-Access-Points_48" stroke="none" stroke-width="1" fill="none" fill-rule="evenodd"><path d="M28.001 15 29.408 12.186 30.814 15 28.001 15ZM30.303 9.503C30.133 9.164 29.787 8.95 29.408 8.95 29.029 8.95 28.684 9.164 28.514 9.503L25.488 15.553C25.333 15.863 25.35 16.231 25.532 16.526 25.714 16.82 26.036 17 26.383 17L32.433 17C32.779 17 33.101 16.821 33.283 16.526 33.466 16.231 33.482 15.863 33.327 15.553L30.303 9.503ZM27 26C25.897 26 25 25.103 25 24 25 22.897 25.897 22 27 22 28.103 22 29 22.897 29 24 29 25.103 28.103 26 27 26L27 26ZM27 20C24.794 20 23 21.794 23 24 23 26.206 24.794 28 27 28 29.206 28 31 26.206 31 24 31 21.794 29.206 20 27 20L27 20ZM18 18 21 18 21 15 18 15 18 18ZM23 14C23 13.448 22.553 13 22 13L17 13C16.447 13 16 13.448 16 14L16 19C16 19.552 16.447 20 17 20L22 20C22.553 20 23 19.552 23 19L23 14ZM41.5 44C40.121 44 39 42.878 39 41.5 39 40.122 40.121 39 41.5 39 42.879 39 44 40.122 44 41.5 44 42.878 42.879 44 41.5 44L41.5 44ZM24.995 34.676C22.459 32.443 13.264 23.869 12.94 16.694 12.778 13.102 13.913 9.842 16.137 7.516 18.335 5.216 21.4 4 25 4 28.744 4 31.836 5.168 33.938 7.377 36.077 9.623 37.107 12.843 36.918 16.69 36.566 23.858 27.503 32.436 24.995 34.676L24.995 34.676ZM27 41.5C27 42.878 25.879 44 24.5 44 23.121 44 22 42.878 22 41.5 22 40.122 23.121 39 24.5 39 25.879 39 27 40.122 27 41.5L27 41.5ZM10 41.5C10 42.878 8.879 44 7.5 44 6.121 44 5 42.878 5 41.5 5 40.122 6.121 39 7.5 39 8.879 39 10 40.122 10 41.5L10 41.5ZM43 37.276 43 30C43 29.448 42.553 29 42 29L33.162 29C36.05 25.377 38.712 20.956 38.916 16.788 39.132 12.381 37.912 8.649 35.388 5.998 32.897 3.382 29.306 2 25 2 20.841 2 17.275 3.43 14.69 6.134 12.086 8.859 10.755 12.642 10.942 16.784 11.13 20.954 13.819 25.376 16.742 29L8 29C7.447 29 7 29.448 7 30L7 37.051C4.756 37.303 3 39.19 3 41.5 3 43.981 5.019 46 7.5 46 9.981 46 12 43.981 12 41.5 12 39.547 10.742 37.898 9 37.276L9 31 18.441 31C20.641 33.461 22.722 35.353 23.736 36.236L23.712 37.08C21.606 37.455 20 39.288 20 41.5 20 43.981 22.019 46 24.5 46 26.981 46 29 43.981 29 41.5 29 39.441 27.602 37.719 25.71 37.186L25.724 36.697C26.25 36.252 28.777 34.063 31.482 31L41 31 41 37.051C38.756 37.303 37 39.19 37 41.5 37 43.981 39.019 46 41.5 46 43.981 46 46 43.981 46 41.5 46 39.547 44.742 37.898 43 37.276L43 37.276Z" id="Fill-1" fill="#7AA116"/></g></svg>