<svg width="48" height="48" viewBox="0 0 48 48" xmlns="http://www.w3.org/2000/svg" xmlns:xlink="http://www.w3.org/1999/xlink" overflow="hidden"><g id="Icon-Resource/Database/Res_Amazon-RDS-Proxy-Instance-Alternate_48" stroke="none" stroke-width="1" fill="none" fill-rule="evenodd"><path d="M28.33 26.61 26.525 20.911 28.111 20.911 28.954 25.024 29.774 20.911 31.316 20.911 29.468 27.354C29.315 27.894 29.11 28.284 28.855 28.525 28.601 28.764 28.265 28.885 27.849 28.885 27.536 28.885 27.215 28.831 26.887 28.721L26.887 27.715C27.083 27.745 27.259 27.758 27.411 27.758 27.687 27.758 27.896 27.685 28.035 27.54 28.173 27.394 28.265 27.149 28.309 26.807L28.33 26.61ZM24.502 26.501 23.595 24.728 22.816 26.501 21.34 26.501 22.904 23.689 21.362 20.911 22.971 20.911 23.791 22.629 24.546 20.911 26.022 20.911 24.479 23.689 26.11 26.501 24.502 26.501ZM18.736 25.506C19.007 25.506 19.201 25.362 19.322 25.073 19.442 24.785 19.502 24.331 19.502 23.712 19.502 23.091 19.442 22.635 19.322 22.344 19.201 22.052 19.007 21.907 18.736 21.907 18.467 21.907 18.271 22.052 18.152 22.344 18.03 22.635 17.971 23.091 17.971 23.712 17.971 24.331 18.03 24.785 18.152 25.073 18.271 25.362 18.467 25.506 18.736 25.506L18.736 25.506ZM18.736 26.643C18.016 26.643 17.456 26.388 17.063 25.877 16.669 25.367 16.472 24.644 16.472 23.712 16.472 22.77 16.669 22.045 17.063 21.535 17.456 21.023 18.016 20.769 18.736 20.769 19.459 20.769 20.017 21.023 20.41 21.535 20.805 22.045 21.001 22.77 21.001 23.712 21.001 24.644 20.805 25.367 20.41 25.877 20.017 26.388 19.459 26.643 18.736 26.643L18.736 26.643ZM12.961 26.501 12.961 20.911 14.186 20.911 14.351 21.632C14.569 21.363 14.786 21.167 15.002 21.043 15.217 20.919 15.444 20.856 15.685 20.856 15.802 20.856 15.918 20.867 16.035 20.888L16.035 22.213C15.831 22.176 15.638 22.158 15.455 22.158 15.105 22.158 14.772 22.246 14.46 22.42L14.46 26.501 12.961 26.501ZM8.761 22.551 9.472 22.551C9.756 22.551 9.974 22.446 10.122 22.235 10.272 22.023 10.347 21.714 10.347 21.304 10.347 20.896 10.272 20.586 10.122 20.375 9.974 20.163 9.756 20.058 9.472 20.058L8.761 20.058 8.761 22.551ZM8.761 23.689 8.761 26.501 7.263 26.501 7.263 18.92 9.657 18.92C10.329 18.92 10.862 19.133 11.261 19.559 11.657 19.986 11.856 20.568 11.856 21.304 11.856 22.042 11.657 22.623 11.261 23.049 10.862 23.476 10.329 23.689 9.657 23.689L8.761 23.689ZM20.641 11.744C20.101 11.452 19.714 11.138 19.48 10.802 19.248 10.467 19.132 10.059 19.132 9.578 19.132 9.132 19.233 8.745 19.437 8.413 19.641 8.081 19.92 7.826 20.274 7.646 20.628 7.468 21.034 7.379 21.493 7.379 22.069 7.379 22.643 7.509 23.211 7.773L23.211 8.932C22.62 8.714 22.099 8.604 21.647 8.604 21.341 8.604 21.101 8.68 20.925 8.834 20.75 8.987 20.663 9.199 20.663 9.468 20.663 9.694 20.72 9.881 20.832 10.026 20.945 10.172 21.162 10.333 21.483 10.507L22.073 10.825C22.452 11.029 22.753 11.233 22.976 11.437 23.198 11.641 23.362 11.87 23.468 12.121 23.573 12.373 23.627 12.677 23.627 13.035 23.627 13.727 23.402 14.276 22.954 14.68 22.506 15.086 21.888 15.288 21.101 15.288 20.757 15.288 20.415 15.248 20.071 15.168 19.728 15.088 19.44 14.981 19.207 14.85L19.207 13.702C19.476 13.803 19.782 13.89 20.121 13.96 20.46 14.029 20.75 14.063 20.991 14.063 21.341 14.063 21.606 13.981 21.789 13.816 21.972 13.652 22.062 13.418 22.062 13.112 22.062 12.885 21.999 12.694 21.871 12.537 21.743 12.38 21.53 12.221 21.231 12.061L20.641 11.744ZM14.624 8.714 14.624 13.954 15.269 13.954C15.744 13.954 16.098 13.748 16.33 13.336 16.564 12.923 16.681 12.291 16.681 11.437L16.681 11.218C16.681 10.358 16.565 9.725 16.336 9.32 16.106 8.916 15.747 8.714 15.258 8.714L14.624 8.714ZM13.093 15.124 13.093 7.543 15.379 7.543C16.319 7.543 17.034 7.864 17.523 8.506 18.012 9.147 18.256 10.089 18.256 11.328 18.256 12.575 18.016 13.52 17.533 14.161 17.053 14.802 16.352 15.124 15.434 15.124L13.093 15.124ZM8.761 11.174 9.472 11.174C9.756 11.174 9.974 11.069 10.122 10.857 10.272 10.646 10.347 10.336 10.347 9.927 10.347 9.519 10.272 9.21 10.122 8.998 9.974 8.786 9.756 8.68 9.472 8.68L8.761 8.68 8.761 11.174ZM10.675 15.124 9.351 12.312 8.761 12.312 8.761 15.124 7.263 15.124 7.263 7.543 9.657 7.543C10.329 7.543 10.862 7.756 11.261 8.183 11.657 8.609 11.856 9.191 11.856 9.927 11.856 10.438 11.758 10.88 11.561 11.252 11.364 11.623 11.083 11.9 10.719 12.083L12.25 15.124 10.675 15.124ZM7.643 3.75C5.496 3.75 3.75 5.496 3.75 7.642L3.75 40.113C3.75 42.26 5.496 44.006 7.643 44.006L40.113 44.006C42.26 44.006 44.006 42.26 44.006 40.113L44.006 7.642C44.006 5.496 42.26 3.75 40.113 3.75L7.643 3.75ZM40.113 45.756 7.643 45.756C4.531 45.756 2 43.225 2 40.113L2 7.642C2 4.531 4.531 2 7.643 2L40.113 2C43.225 2 45.756 4.531 45.756 7.642L45.756 40.113C45.756 43.225 43.225 45.756 40.113 45.756L40.113 45.756Z" id="Amazon-DATABASE_Amazon-RDS-Proxy-Alternate_Resource-Icon_light-bg" fill="#C925D1"/></g></svg>