<svg width="80" height="80" viewBox="0 0 80 80" xmlns="http://www.w3.org/2000/svg" xmlns:xlink="http://www.w3.org/1999/xlink" overflow="hidden"><g id="Icon-Architecture/64/Arch_Elastic-Load-Balancing_64" stroke="none" stroke-width="1" fill="none" fill-rule="evenodd"><g id="Icon-Architecture-BG/64/Networking-Content-Delivery" fill="#8C4FFF"><rect x="0" y="0" width="80" height="80" id="Rectangle"/></g><path d="M30 53C22.832 53 17 47.168 17 40 17 32.832 22.832 27 30 27 37.168 27 43 32.832 43 40 43 47.168 37.168 53 30 53M60 59C60 61.206 58.206 63 56 63 53.794 63 52 61.206 52 59 52 56.794 53.794 55 56 55 58.206 55 60 56.794 60 59M56 17C58.206 17 60 18.794 60 21 60 23.206 58.206 25 56 25 53.794 25 52 23.206 52 21 52 18.794 53.794 17 56 17M59 36C61.206 36 63 37.794 63 40 63 42.206 61.206 44 59 44 56.794 44 55 42.206 55 40 55 37.794 56.794 36 59 36M44.949 41 53.09 41C53.568 43.833 56.033 46 59 46 62.309 46 65 43.309 65 40 65 36.691 62.309 34 59 34 56.033 34 53.568 36.167 53.09 39L44.949 39C44.823 37.099 44.344 35.297 43.572 33.654L52.446 25.823C53.442 26.559 54.669 27 56 27 59.309 27 62 24.309 62 21 62 17.691 59.309 15 56 15 52.691 15 50 17.691 50 21 50 22.256 50.389 23.421 51.051 24.386L42.581 31.859C39.904 27.738 35.271 25 30 25 21.729 25 15 31.729 15 40 15 48.271 21.729 55 30 55 35.271 55 39.904 52.262 42.581 48.141L51.051 55.614C50.389 56.579 50 57.744 50 59 50 62.309 52.691 65 56 65 59.309 65 62 62.309 62 59 62 55.691 59.309 53 56 53 54.669 53 53.442 53.441 52.446 54.177L43.572 46.346C44.344 44.703 44.823 42.901 44.949 41" id="Elastic-Load-Balancing_Icon_64_Squid" fill="#FFFFFF"/></g></svg>