<svg width="48" height="48" viewBox="0 0 48 48" xmlns="http://www.w3.org/2000/svg" xmlns:xlink="http://www.w3.org/1999/xlink" overflow="hidden"><g id="Icon-Resource/Management-Governance/Res_AWS-CloudTrail_CloudTrail-Lake_48" stroke="none" stroke-width="1" fill="none" fill-rule="evenodd"><path d="M3.592 31.842 5.567 32.158C6.031 29.254 8.863 27.569 10.684 27.131 11.153 27.045 11.503 26.634 11.503 26.146 11.503 26.094 11.499 26.043 11.491 25.992 11.45 25.674 11.43 25.352 11.43 25.035 11.43 24.196 11.629 23.281 12.005 22.388L10.161 21.612C9.683 22.748 9.43 23.932 9.43 25.035 9.43 25.161 9.433 25.287 9.438 25.413 6.846 26.3 4.119 28.547 3.592 31.842L3.592 31.842ZM2 36 8 36 8 34 2 34 2 36ZM2 44 7 44 7 42 2 42 2 44ZM6 40 10 40 10 38 6 38 6 40ZM2 40 4 40 4 38 2 38 2 40ZM26.332 34C24.598 34 23.668 34.656 22.922 35.183 22.249 35.657 21.764 36 20.664 36 19.566 36 19.08 35.657 18.409 35.183 17.662 34.656 16.734 34 15 34L10 34 10 36 15 36C16.099 36 16.584 36.343 17.255 36.817 18.002 37.344 18.931 38 20.664 38 22.399 38 23.328 37.344 24.074 36.817 24.747 36.343 25.233 36 26.332 36 27.432 36 27.917 36.343 28.59 36.817 29.336 37.344 30.266 38 32 38L32 36C30.901 36 30.415 35.657 29.742 35.183 28.996 34.656 28.067 34 26.332 34L26.332 34ZM26.332 42C24.598 42 23.668 42.656 22.922 43.183 22.249 43.657 21.764 44 20.664 44 19.566 44 19.08 43.657 18.409 43.183 17.662 42.656 16.734 42 15 42L9 42 9 44 15 44C16.099 44 16.584 44.343 17.255 44.817 18.002 45.344 18.931 46 20.664 46 22.399 46 23.328 45.344 24.074 44.817 24.747 44.343 25.233 44 26.332 44 27.432 44 27.917 44.343 28.59 44.817 29.336 45.344 30.266 46 32 46L32 44C30.901 44 30.415 43.657 29.742 43.183 28.996 42.656 28.067 42 26.332 42L26.332 42ZM26.332 38C24.598 38 23.668 38.656 22.922 39.183 22.249 39.657 21.764 40 20.664 40 19.566 40 19.08 39.657 18.409 39.183 17.662 38.656 16.734 38 15 38L12 38 12 40 15 40C16.099 40 16.584 40.343 17.255 40.817 18.002 41.344 18.931 42 20.664 42 22.399 42 23.328 41.344 24.074 40.817 24.747 40.343 25.233 40 26.332 40 27.432 40 27.917 40.343 28.59 40.817 29.336 41.344 30.266 42 32 42L32 40C30.901 40 30.415 39.657 29.742 39.183 28.996 38.656 28.067 38 26.332 38L26.332 38ZM21 4 23 4 23 2 21 2 21 4ZM17 7 19 7 19 5 17 5 17 7ZM12 6 14 6 14 4 12 4 12 6ZM11.769 11 15.857 17.792C15.95 17.948 16 18.126 16 18.308L16 21 18 21 18 18.308C18 18.126 18.05 17.948 18.144 17.792L22.232 11 11.769 11ZM9.144 10.516C8.957 10.207 8.952 9.822 9.13 9.508 9.307 9.194 9.64 9 10 9L24 9C24.361 9 24.694 9.194 24.87 9.508 25.048 9.822 25.043 10.207 24.857 10.516L20 18.586 20 22C20 22.552 19.553 23 19 23L15 23C14.447 23 14 22.552 14 22L14 18.586 9.144 10.516ZM45.213 33.965C45.213 39.843 40.384 41.789 37.831 41.997L34 42 34 40 37.75 40C37.893 39.984 43.213 39.452 43.213 33.965 43.213 29.351 39.398 28.197 37.757 27.915 37.233 27.825 36.872 27.342 36.933 26.817 36.766 24.755 35.814 23.279 34.373 22.858 33.19 22.51 31.913 22.974 31.128 24.038 30.908 24.335 30.539 24.486 30.176 24.433 29.81 24.378 29.504 24.126 29.381 23.777 28.804 22.144 27.97 20.774 26.903 19.704 25.826 18.625 24.542 17.819 23.187 17.371L23.814 15.472C25.465 16.017 27.023 16.992 28.319 18.292 29.269 19.245 30.061 20.384 30.682 21.693 31.91 20.804 33.456 20.506 34.935 20.938 37.06 21.559 38.498 23.468 38.865 26.107 42.063 26.91 45.213 29.326 45.213 33.965L45.213 33.965Z" id="Fill-1" fill="#E7157B"/></g></svg>