<svg width="48" height="48" viewBox="0 0 48 48" xmlns="http://www.w3.org/2000/svg" xmlns:xlink="http://www.w3.org/1999/xlink" overflow="hidden"><g id="Icon-Resource/Migration-and-Transfer/Res_AWS-Mainframe-Modernization_Compiler_48" stroke="none" stroke-width="1" fill="none" fill-rule="evenodd"><path d="M29.471 23.2368 32.646 20.0618 29.471 16.8868 30.885 15.4728 34.767 19.3548C35.158 19.7448 35.158 20.3778 34.767 20.7688L30.885 24.6508 29.471 23.2368ZM14.408 20.7688C14.018 20.3778 14.018 19.7448 14.408 19.3548L18.29 15.4728 19.704 16.8868 16.53 20.0618 19.704 23.2368 18.29 24.6508 14.408 20.7688ZM23.282 25.7048 21.424 24.9618 25.641 14.4188 27.498 15.1618 23.282 25.7048ZM33.873 43.9998 14.081 43.9998 5.091 36.9778 11.59 31.6018 13.901 33.8608C14.55 34.4938 15.603 34.4918 16.248 33.8608L17.8 32.3428C18.503 32.6968 19.232 32.9928 19.979 33.2298L19.979 35.3198C19.979 36.2468 20.733 36.9998 21.659 36.9998L27.299 36.9998C28.225 36.9998 28.979 36.2468 28.979 35.3198L28.979 33.4388C29.698 33.1998 30.399 32.9028 31.075 32.5488L32.548 34.0558C33.187 34.7078 34.315 34.7078 34.951 34.0558L36.894 32.0678 42.861 36.9798 33.873 43.9998ZM11.284 21.9998 8.979 21.9998 8.979 16.9998 11.502 16.9998C11.958 16.9998 12.357 16.6918 12.47 16.2508 12.751 15.1658 13.175 14.1198 13.732 13.1408 13.952 12.7528 13.889 12.2668 13.577 11.9478L11.768 10.0958 15.207 6.5758 16.987 8.3958C17.311 8.7278 17.818 8.7928 18.213 8.5558 19.167 7.9878 20.186 7.5558 21.241 7.2698 21.676 7.1518 21.979 6.7568 21.979 6.3048L21.979 3.9998 26.979 3.9998 26.979 6.5238C26.979 6.9798 27.287 7.3778 27.729 7.4918 28.812 7.7718 29.858 8.1958 30.838 8.7538 31.225 8.9738 31.711 8.9118 32.032 8.5998L33.883 6.7888 37.402 10.2288 35.582 12.0068C35.252 12.3298 35.186 12.8368 35.422 13.2338 35.99 14.1868 36.422 15.2058 36.709 16.2618 36.827 16.6978 37.223 16.9998 37.674 16.9998L39.979 16.9998 39.979 21.9998 37.455 21.9998C36.999 21.9998 36.601 22.3078 36.488 22.7498 36.207 23.8338 35.783 24.8798 35.226 25.8598 35.005 26.2468 35.069 26.7338 35.38 27.0518L37.19 28.9038 36.748 29.3568 36.592 29.2278 35.321 30.7718 35.345 30.7918 33.75 32.4238 31.971 30.6038C31.649 30.2748 31.141 30.2088 30.744 30.4438 29.79 31.0118 28.772 31.4448 27.717 31.7298 27.282 31.8478 26.979 32.2438 26.979 32.6948L26.979 34.9998 21.979 34.9998 21.979 32.4768C21.979 32.0208 21.67 31.6228 21.229 31.5078 20.146 31.2278 19.1 30.8038 18.119 30.2468 17.734 30.0268 17.246 30.0888 16.926 30.4008L15.075 32.2108 11.556 28.7718 13.375 26.9928C13.705 26.6708 13.772 26.1628 13.535 25.7668 12.968 24.8128 12.535 23.7938 12.248 22.7378 12.13 22.3028 11.735 21.9998 11.284 21.9998L11.284 21.9998ZM38.297 30.6318 38.837 30.0798C39.473 29.4318 39.473 28.3778 38.838 27.7308L37.323 26.1788C37.676 25.4758 37.972 24.7478 38.208 23.9998L40.299 23.9998C41.225 23.9998 41.979 23.2468 41.979 22.3198L41.979 16.6798C41.979 15.7538 41.225 14.9998 40.299 14.9998L38.417 14.9998C38.178 14.2808 37.881 13.5788 37.528 12.9028L39.034 11.4308C39.361 11.1118 39.54 10.6848 39.54 10.2288 39.54 9.7728 39.361 9.3448 39.034 9.0278L35.057 5.1388C34.408 4.5068 33.355 4.5078 32.709 5.1398L31.158 6.6568C30.454 6.3028 29.726 6.0068 28.979 5.7708L28.979 3.6798C28.979 2.7538 28.225 1.9998 27.299 1.9998L21.659 1.9998C20.733 1.9998 19.979 2.7538 19.979 3.6798L19.979 5.5618C19.26 5.7998 18.559 6.0968 17.882 6.4508L16.409 4.9448C15.771 4.2918 14.643 4.2918 14.006 4.9448L10.12 8.9208C9.485 9.5688 9.485 10.6228 10.119 11.2698L11.635 12.8208C11.283 13.5238 10.986 14.2528 10.749 14.9998L8.659 14.9998C7.733 14.9998 6.979 15.7538 6.979 16.6798L6.979 22.3198C6.979 23.2468 7.733 23.9998 8.659 23.9998L10.54 23.9998C10.78 24.7188 11.076 25.4208 11.43 26.0968L9.924 27.5698C9.597 27.8878 9.417 28.3148 9.417 28.7708 9.417 29.2278 9.597 29.6548 9.923 29.9718L10.151 30.1948 1.9 37.0228 13.392 45.9998 34.563 45.9998 46.058 37.0208 38.297 30.6318Z" id="Fill-1" fill="#01A88D"/></g></svg>