<svg width="80" height="80" viewBox="0 0 80 80" xmlns="http://www.w3.org/2000/svg" xmlns:xlink="http://www.w3.org/1999/xlink" overflow="hidden"><g id="Icon-Architecture/64/Arch_Amazon-Transcribe_64" stroke="none" stroke-width="1" fill="none" fill-rule="evenodd"><g id="Icon-Architecture-BG/64/Machine-Learning" fill="#01A88D"><rect x="0" y="0" width="80" height="80" id="Rectangle"/></g><path d="M40.9996 28.9925 47.9997 28.9925 47.9997 26.9907 40.9996 26.9907 40.9996 28.9925ZM40.9996 22.964 49.9997 22.964 49.9997 20.9622 40.9996 20.9622 40.9996 22.964ZM45.9997 33.997 59.9999 33.997 59.9999 31.9952 45.9997 31.9952 45.9997 33.997ZM49.9997 28.9925 60.9999 28.9925 60.9999 26.9907 49.9997 26.9907 49.9997 28.9925ZM66 55.0162 48.9997 55.0162 48.9997 57.018 67 57.018C67.552 57.018 68 56.5696 68 56.0171L68 38.0007 66 38.0007 66 55.0162ZM64.5819 22.987 56.9998 15.4131 56.9998 22.987 64.5819 22.987ZM68 23.9879 68 30.9713 66 30.9713 66 24.9888 55.9998 24.9888C55.4468 24.9888 54.9998 24.5404 54.9998 23.9879L54.9998 14.0018 36.9995 14.0058 36.9995 26.9907 34.9995 26.9907 34.9995 13.0049C34.9995 12.4524 35.4465 12.004 35.9995 12.004L55.9998 12C56.2588 12 56.5148 12.1021 56.7058 12.2923L67.706 23.2793C67.898 23.4704 68 23.7277 68 23.9879L68 23.9879ZM18.9993 51.0125 20.9993 51.0125 20.9993 44.0061 18.9993 44.0061 18.9993 51.0125ZM22.9993 54.0153 24.9994 54.0153 24.9994 40.0025 22.9993 40.0025 22.9993 54.0153ZM26.9994 52.0134 28.9994 52.0134 28.9994 41.0034 26.9994 41.0034 26.9994 52.0134ZM30.9995 55.0162 32.9995 55.0162 32.9995 39.0016 30.9995 39.0016 30.9995 55.0162ZM34.9995 51.0125 36.9995 51.0125 36.9995 42.0043 34.9995 42.0043 34.9995 51.0125ZM38.9996 55.0162 40.9996 55.0162 40.9996 39.0016 38.9996 39.0016 38.9996 55.0162ZM42.9996 50.0116 44.9997 50.0116 44.9997 43.0052 42.9996 43.0052 42.9996 50.0116ZM45.1657 56.4665 46.8337 57.5695C43.5736 62.507 38.0276 65.4547 31.9995 65.4547 28.7794 65.4547 25.5964 64.6439 22.9683 63.1646L13.8892 67.8619C13.6942 67.955 13.4902 68 13.2912 68 12.9422 68 12.6082 67.8619 12.3602 67.6036 11.9742 67.2013 11.8892 66.5987 12.1502 66.1023L16.8452 57.067C14.9562 54.0073 13.9992 50.9625 13.9992 48.0098 13.9992 38.2439 22.2423 29.9934 31.9995 29.9934 35.7285 29.9934 39.6786 31.1815 42.5666 33.1723L41.4316 34.8218C38.8656 33.0512 35.3385 31.9952 31.9995 31.9952 23.3263 31.9952 15.9992 39.3289 15.9992 48.0098 15.9992 50.7283 16.9542 53.5749 18.8363 56.4715 19.0343 56.7748 19.0523 57.1591 18.8853 57.4794L14.9442 65.0633 22.5403 61.1337C22.8503 60.9726 23.2213 60.9856 23.5203 61.1688 25.8934 62.6201 28.9834 63.4529 31.9995 63.4529 37.3545 63.4529 42.2766 60.8405 45.1657 56.4665L45.1657 56.4665Z" id="Amazon-Transcribe_Icon_64_Squid" fill="#FFFFFF"/></g></svg>