<svg width="90" height="90" viewBox="0 0 90 90" xmlns="http://www.w3.org/2000/svg" xmlns:xlink="http://www.w3.org/1999/xlink" overflow="hidden"><g id="Icon-Architecture-Category/64/Blockchain_64" stroke="none" stroke-width="1" fill="none" fill-rule="evenodd"><rect x="5" y="5" width="80" height="80" id="Rectangle" fill="#ED7100"/><rect x="1" y="1" width="88" height="88" id="#879196-Border-Copy-3" stroke="#879196" stroke-width="2"/><g id="Icon-Category/64/Blockchain_64" fill="#FFFFFF" transform="translate(18 37)"><path d="M53 15 40.649 15C40.49 15 40.157 14.867 40 14.752L40 10 34 10 34 15 21.649 15C21.49 15 21.157 14.867 21 14.752L21 10 15 10 15 14.752C14.843 14.867 14.51 15 14.351 15L2 15 2 2 14.443 2C14.562 2 14.895 2.102 15 2.194L15 7 21 7 21 2.194C21.105 2.102 21.438 2 21.557 2L34 2 34 7 40 7 40 2.194C40.105 2.102 40.382 2 40.5 2L53 2 53 15ZM52.966 0 40.557 0C39.556 0 38.103 0.807 38.103 2.071L38.103 5 36 5 36 2.071C36 0.929 35.088 0 33.966 0L21.557 0C20.556 0 19.103 0.807 19.103 2.071L19.103 5 16.897 5 16.897 2.071C16.897 0.807 15.444 0 14.443 0L2.034 0C0.912 0 0 0.929 0 2.071L0 14.929C0 16.071 0.912 17 2.034 17L14.351 17C15.275 17 17 16.289 17 14.929L17 12 19 12 19 14.929C19 16.289 20.725 17 21.649 17L33.966 17C35.088 17 36 16.071 36 14.929L36 12 38 12 38 14.929C38 16.289 39.725 17 40.649 17L52.966 17C54.088 17 55 16.071 55 14.929L55 2.071C55 0.929 54.088 0 52.966 0L52.966 0ZM49 6 49.022 11 44 11.022 43.978 6 49 6ZM43.978 13 49.022 13C50.113 13 51 12.113 51 11.022L51 5.978C51 4.887 50.113 4 49.022 4L43.978 4C42.887 4 42 4.887 42 5.978L42 11.022C42 12.113 42.887 13 43.978 13L43.978 13ZM25 11.022 24.978 6 30 6 30.022 11 25 11.022ZM30.022 4 24.978 4C23.887 4 23 4.887 23 5.978L23 11.022C23 12.113 23.887 13 24.978 13L30.022 13C31.113 13 32 12.113 32 11.022L32 5.978C32 4.887 31.113 4 30.022 4L30.022 4ZM6 11.022 6 6 11 5.978 11.022 11 6 11.022ZM11.022 4 5.978 4C4.887 4 4 4.887 4 5.978L4 11.022C4 12.113 4.887 13 5.978 13L11.022 13C12.113 13 13 12.113 13 11.022L13 5.978C13 4.887 12.113 4 11.022 4L11.022 4Z" id="Blockchain_Category-Icon_64_Squid--"/></g></g></svg>