<svg width="48" height="48" viewBox="0 0 48 48" xmlns="http://www.w3.org/2000/svg" xmlns:xlink="http://www.w3.org/1999/xlink" overflow="hidden"><g id="Icon-Resource/Analytics/Res_AWS-Data-Exchange-for-APIs_48" stroke="none" stroke-width="1" fill="none" fill-rule="evenodd"><path d="M14 34.007 34 34.007 34 14.007 14 14.007 14 34.007ZM35 12.007C35.553 12.007 36 12.455 36 13.007L36 35.007C36 35.559 35.553 36.007 35 36.007L13 36.007C12.447 36.007 12 35.559 12 35.007L12 13.007C12 12.455 12.447 12.007 13 12.007L35 12.007ZM25.793 29.714 27.207 28.3 22.914 24.007 27.207 19.714 25.793 18.3 20.793 23.3C20.402 23.691 20.402 24.323 20.793 24.714L25.793 29.714ZM7.707 10.3 5.414 8.007 43 8.007 43 6.007 5.414 6.007 7.707 3.714 6.293 2.3 2.293 6.3C1.902 6.691 1.902 7.323 2.293 7.714L6.293 11.714 7.707 10.3ZM45.707 41.714 41.707 45.714 40.293 44.3 42.586 42.007 5 42.007 5 40.007 42.586 40.007 40.293 37.714 41.707 36.3 45.707 40.3C46.098 40.691 46.098 41.323 45.707 41.714L45.707 41.714Z" id="Fill-1" fill="#8C4FFF"/></g></svg>