<svg width="80" height="80" viewBox="0 0 80 80" xmlns="http://www.w3.org/2000/svg" xmlns:xlink="http://www.w3.org/1999/xlink" overflow="hidden"><g id="Icon-Architecture/64/Arch_AWS-Migration-Evaluator_64" stroke="none" stroke-width="1" fill="none" fill-rule="evenodd"><g id="Icon-Architecture-BG/64/Migration-Transfer" fill="#01A88D"><rect x="0" y="0" width="80" height="80" id="Rectangle"/></g><g id="Icon-Service/64/AWS-Migration-Evaluator_64" fill="#FFFFFF" transform="translate(13 13)"><path d="M27.359 30.859C25.429 30.859 23.859 29.289 23.859 27.359 23.859 25.429 25.429 23.859 27.359 23.859 29.289 23.859 30.859 25.429 30.859 27.359 30.859 29.289 29.289 30.859 27.359 30.859L27.359 30.859ZM27.359 21.859C24.327 21.859 21.859 24.326 21.859 27.359 21.859 30.392 24.327 32.859 27.359 32.859 30.391 32.859 32.859 30.392 32.859 27.359 32.859 24.326 30.391 21.859 27.359 21.859L27.359 21.859ZM35.428 33.956C35.202 34.056 35.021 34.237 34.921 34.463L27.457 51.256 20.041 34.571C19.94 34.345 19.759 34.164 19.533 34.064L3.462 26.921 20.019 19.561C20.246 19.461 20.426 19.28 20.527 19.054L27.457 3.462 34.435 19.162C34.536 19.388 34.716 19.569 34.943 19.67L51.256 26.921 35.428 33.956ZM44.446 44.378 34.418 40.52 36.592 35.627 40.425 33.923 44.446 44.378ZM10.272 44.136 14.213 33.888 18.369 35.735 20.376 40.251 10.272 44.136ZM10.651 10.582 20.431 14.343 18.855 17.89 14.249 19.937 10.651 10.582ZM44.067 10.341 40.39 19.902 36.107 17.998 34.363 14.073 44.067 10.341ZM54.125 26.007 42.22 20.715 46.742 8.959C46.883 8.59 46.795 8.172 46.515 7.893 46.235 7.613 45.82 7.526 45.449 7.666L33.548 12.243 28.371 0.593C28.21 0.233 27.852 0 27.457 0 27.061 0 26.704 0.233 26.543 0.593L21.245 12.513 9.269 7.907C8.9 7.768 8.483 7.854 8.203 8.133 7.923 8.413 7.835 8.831 7.976 9.199L12.419 20.751 0.593 26.007C0.232 26.167 0 26.526 0 26.921 0 27.316 0.232 27.674 0.593 27.834L12.383 33.075 7.597 45.519C7.456 45.887 7.545 46.305 7.824 46.585 8.015 46.776 8.27 46.878 8.531 46.878 8.652 46.878 8.773 46.856 8.89 46.811L21.189 42.08 26.543 54.125C26.704 54.485 27.061 54.718 27.457 54.718 27.852 54.718 28.21 54.485 28.371 54.125L33.604 42.351 45.828 47.052C45.945 47.096 46.066 47.118 46.187 47.118 46.448 47.118 46.703 47.016 46.894 46.825 47.173 46.546 47.262 46.128 47.121 45.759L42.255 33.11 54.125 27.834C54.486 27.674 54.718 27.316 54.718 26.921 54.718 26.526 54.486 26.167 54.125 26.007L54.125 26.007Z" id="AWS-Migration-Evaluator_Icon_64_Squid"/></g></g></svg>