<svg width="80" height="80" viewBox="0 0 80 80" xmlns="http://www.w3.org/2000/svg" xmlns:xlink="http://www.w3.org/1999/xlink" overflow="hidden"><g id="Icon-Architecture/64/Arch_AWS-Wickr_64" stroke="none" stroke-width="1" fill="none" fill-rule="evenodd"><g id="Icon-Architecture-BG/64/Business-Applications" fill="#DD344C"><rect x="0" y="0" width="80" height="80" id="Rectangle"/></g><path d="M33 25 47 25 47 19.25C47 16.502 44.26 14 41.25 14L38.75 14C35.74 14 33 16.502 33 19.25L33 25ZM52 27 28 27C27.448 27 27 27.449 27 28L27 48C27 48.551 27.448 49 28 49L52 49C52.552 49 53 48.551 53 48L53 28C53 27.449 52.552 27 52 27L52 27ZM31 25 31 19.25C31 15.388 34.621 12 38.75 12L41.25 12C45.379 12 49 15.388 49 19.25L49 25 52 25C53.654 25 55 26.346 55 28L55 48C55 49.654 53.654 51 52 51L28 51C26.346 51 25 49.654 25 48L25 28C25 26.346 26.346 25 28 25L31 25ZM39.207 44.457 50.457 33.207 49.043 31.793 37.793 43.043 39.207 44.457ZM42.957 33.207 41.543 31.793 30.293 43.043 31.707 44.457 42.957 33.207ZM66 25.314 66 55.188C66 57.722 63.909 59.943 61.526 59.943L37.046 59.998 37 67.006C36.997 67.41 36.753 67.772 36.38 67.925 36.257 67.976 36.128 68 36 68 35.74 68 35.484 67.898 35.293 67.707L27.583 59.998 18.565 59.944C15.917 59.944 14.063 58.355 14.063 56.081L14 25.066C14 22.747 15.93 21 18.488 21L29 21 29 23 18.488 23C17.252 23 16 23.709 16 25.064L16.063 56.079C16.063 57.854 18.152 57.944 18.571 57.944L28.006 58C28.27 58.001 28.521 58.107 28.707 58.293L35.016 64.602 35.053 58.994C35.057 58.444 35.502 58.001 36.051 58L61.524 57.943C62.92 57.943 64 56.462 64 55.188L64 25.314C64 24.038 62.884 23 61.512 23L51 23 51 21 61.512 21C63.986 21 66 22.935 66 25.314L66 25.314Z" id="Fill-7" fill="#FFFFFF"/></g></svg>