<svg width="48" height="48" viewBox="0 0 48 48" xmlns="http://www.w3.org/2000/svg" xmlns:xlink="http://www.w3.org/1999/xlink" overflow="hidden"><g id="Icon-Resource/Management-Governance/Res_AWS-Organizations_Management-Account_48" stroke="none" stroke-width="1" fill="none" fill-rule="evenodd"><path d="M10.303 11.5034C10.312 11.9504 10.494 12.3684 10.818 12.6784 11.14 12.9884 11.564 13.1504 12.012 13.1464 12.459 13.1374 12.876 12.9554 13.187 12.6324L13.187 12.6314C13.497 12.3094 13.663 11.8854 13.655 11.4384 13.646 10.9904 13.463 10.5734 13.14 10.2624 12.825 9.96042 12.414 9.79542 11.98 9.79542 11.968 9.79542 11.957 9.79542 11.946 9.79542 11.498 9.80442 11.081 9.98642 10.771 10.3094 10.46 10.6314 10.294 11.0564 10.303 11.5034L10.303 11.5034ZM9.431 14.1204C8.723 13.4394 8.323 12.5244 8.304 11.5424 8.284 10.5614 8.649 9.63042 9.329 8.92242 10.735 7.46242 13.065 7.41642 14.527 8.82142 15.235 9.50242 15.635 10.4174 15.654 11.3994 15.673 12.3804 15.309 13.3104 14.628 14.0184 13.907 14.7674 12.944 15.1444 11.978 15.1444 11.061 15.1444 10.143 14.8044 9.431 14.1204L9.431 14.1204ZM4.229 12.1264 5.301 15.4364 7.592 14.9774C7.869 14.9204 8.157 14.9854 8.383 15.1544L9.524 15.9994C9.746 16.1634 9.89 16.4124 9.922 16.6874L10.192 18.9964 13.67 18.9994 13.944 16.6724C13.976 16.3964 14.121 16.1464 14.346 15.9824L15.473 15.1574C15.699 14.9914 15.987 14.9274 16.26 14.9834L18.57 15.4464 19.647 12.1384 17.51 11.1564C17.254 11.0394 17.06 10.8194 16.974 10.5514L16.55 9.22442C16.466 8.95942 16.495 8.67142 16.632 8.42942L17.782 6.38342 14.969 4.33642 13.395 6.04542C13.206 6.24942 12.943 6.36542 12.665 6.36742L11.246 6.37542 11.24 6.37542C10.961 6.37542 10.695 6.25842 10.505 6.05242L8.92 4.33242 6.103 6.37542 7.258 8.43042C7.395 8.67342 7.423 8.96342 7.337 9.22942L6.909 10.5424C6.823 10.8084 6.629 11.0254 6.375 11.1424L4.229 12.1264ZM2.052 11.8964C1.896 11.4134 2.125 10.8904 2.586 10.6784L5.143 9.50642 5.299 9.02742 3.923 6.57842C3.675 6.13542 3.797 5.57642 4.208 5.27842L8.466 2.19042C8.875 1.89342 9.445 1.94842 9.788 2.32342L11.677 4.37342 12.219 4.36942 14.102 2.32642C14.447 1.95342 15.015 1.89742 15.425 2.19542L19.678 5.29042C20.088 5.58842 20.21 6.14742 19.962 6.58842L18.588 9.03042 18.745 9.52342 21.29 10.6924C21.752 10.9044 21.982 11.4284 21.824 11.9104L20.197 16.9114C20.038 17.3944 19.54 17.6804 19.049 17.5824L16.299 17.0304 15.879 17.3384 15.553 20.1174C15.493 20.6204 15.067 21.0004 14.56 21.0004L14.559 21.0004 9.3 20.9954C8.793 20.9954 8.366 20.6154 8.308 20.1114L7.986 17.3484 7.55 17.0254 4.821 17.5714C4.319 17.6704 3.829 17.3824 3.673 16.8994L2.052 11.8964ZM29 35.0004C29 37.7574 31.243 40.0004 34 40.0004 36.757 40.0004 39 37.7574 39 35.0004 39 32.2434 36.757 30.0004 34 30.0004 31.243 30.0004 29 32.2434 29 35.0004L29 35.0004ZM27 35.0004C27 31.1404 30.141 28.0004 34 28.0004 37.86 28.0004 41 31.1404 41 35.0004 41 38.8604 37.86 42.0004 34 42.0004 30.141 42.0004 27 38.8604 27 35.0004L27 35.0004ZM31.083 22.0004 38.579 22.0004 34.831 14.5034 31.083 22.0004ZM28.615 23.5264C28.432 23.2314 28.415 22.8634 28.571 22.5534L33.937 11.8204C34.277 11.1434 35.386 11.1434 35.726 11.8204L41.092 22.5534C41.247 22.8634 41.231 23.2314 41.048 23.5264 40.865 23.8204 40.544 24.0004 40.198 24.0004L29.465 24.0004C29.118 24.0004 28.797 23.8204 28.615 23.5264L28.615 23.5264ZM13 34.0004 22 34.0004 22 25.0004 13 25.0004 13 34.0004ZM12 23.0004 23 23.0004C23.553 23.0004 24 23.4484 24 24.0004L24 35.0004C24 35.5524 23.553 36.0004 23 36.0004L12 36.0004C11.448 36.0004 11 35.5524 11 35.0004L11 24.0004C11 23.4484 11.448 23.0004 12 23.0004L12 23.0004ZM46 3.00042 46 45.0004C46 45.5524 45.553 46.0004 45 46.0004L3 46.0004C2.448 46.0004 2 45.5524 2 45.0004L2 22.0004 4 22.0004 4 44.0004 44 44.0004 44 4.00042 22 4.00042 22 2.00042 45 2.00042C45.553 2.00042 46 2.44842 46 3.00042L46 3.00042Z" id="Fill-1" fill="#E7157B"/></g></svg>