<svg width="80" height="80" viewBox="0 0 80 80" xmlns="http://www.w3.org/2000/svg" xmlns:xlink="http://www.w3.org/1999/xlink" overflow="hidden"><g id="Icon-Architecture/64/Arch_AWS-Signer_64" stroke="none" stroke-width="1" fill="none" fill-rule="evenodd"><g id="Icon-Architecture-BG/64/Security-Identity-Compliance" fill="#DD344C"><rect x="0" y="0" width="80" height="80" id="Rectangle"/></g><g id="Icon-Service/64/AWS-Signer_64" fill="#FFFFFF" transform="translate(12 12)"><path d="M32.836 39.639C32.928 40.089 33.19 40.476 33.574 40.729 33.957 40.983 34.415 41.072 34.867 40.978 35.317 40.886 35.704 40.624 35.957 40.241 36.21 39.857 36.299 39.397 36.206 38.947 36.114 38.497 35.852 38.11 35.468 37.857 35.184 37.669 34.857 37.572 34.524 37.572 34.408 37.572 34.292 37.584 34.175 37.608 33.725 37.7 33.338 37.962 33.085 38.346 32.832 38.729 32.743 39.189 32.836 39.639L32.836 39.639ZM47.422 33.008 35.77 25.324 25 33.605 25 51.692 31.662 41.649C31.28 41.186 31 40.645 30.876 40.041 30.677 39.068 30.868 38.075 31.415 37.245 31.962 36.415 32.8 35.848 33.773 35.648 34.746 35.449 35.74 35.64 36.569 36.187 37.398 36.734 37.966 37.572 38.166 38.545 38.365 39.518 38.174 40.512 37.627 41.341 37.08 42.171 36.242 42.738 35.269 42.938 35.018 42.99 34.765 43.015 34.514 43.015 34.098 43.015 33.69 42.937 33.298 42.8L26.648 52.826 43.584 45.79 47.422 33.008ZM49.486 33.284C49.465 33.31 49.433 33.321 49.409 33.345L45.363 46.819C45.276 47.106 45.066 47.34 44.789 47.455L24.384 55.931C24.261 55.983 24.13 56.008 24 56.008L3.55271e-15 56.008 3.55271e-15 54.008 23 54.008 23 33.112C23 32.802 23.145 32.509 23.391 32.319L35.057 23.349 35.064 23.359 41.573 10.549 43.357 11.455 37.085 23.795 48.498 31.321 54.439 23.929 55.997 25.181 49.486 33.284ZM48.718 0.906 46.935 0 42.506 8.714 44.289 9.62 48.718 0.906ZM12.943 21.03 12.944 21.03C13.218 21.03 13.48 20.918 13.668 20.72L22.389 11.554 20.94 10.175 12.942 18.58 9.302 14.762 7.855 16.141 12.22 20.72C12.408 20.918 12.67 21.03 12.943 21.03L12.943 21.03ZM2 15.508C2 16.622 2.792 17.589 3.884 17.807 4.255 17.881 4.552 18.158 4.652 18.521 4.901 19.422 5.259 20.284 5.714 21.082 5.896 21.399 5.889 21.789 5.698 22.101 5.464 22.481 5.346 22.89 5.346 23.316 5.346 24.609 6.399 25.662 7.692 25.662 8.118 25.662 8.526 25.543 8.908 25.309 9.068 25.211 9.249 25.162 9.431 25.162 9.602 25.162 9.773 25.206 9.927 25.294 10.727 25.75 11.587 26.108 12.486 26.356 12.851 26.456 13.128 26.753 13.201 27.124 13.419 28.216 14.386 29.008 15.5 29.008 16.614 29.008 17.581 28.216 17.799 27.124 17.872 26.753 18.149 26.456 18.514 26.356 19.413 26.108 20.273 25.75 21.073 25.294 21.391 25.112 21.78 25.118 22.092 25.309 22.474 25.543 22.882 25.662 23.308 25.662 24.602 25.662 25.654 24.609 25.654 23.316 25.654 22.89 25.536 22.481 25.302 22.101 25.111 21.789 25.105 21.399 25.286 21.082 25.741 20.284 26.099 19.422 26.348 18.521 26.448 18.158 26.745 17.881 27.116 17.807 28.208 17.589 29 16.622 29 15.508 29 14.394 28.208 13.427 27.116 13.209 26.745 13.135 26.448 12.859 26.348 12.495 26.099 11.595 25.741 10.733 25.286 9.934 25.105 9.618 25.111 9.227 25.302 8.915 25.536 8.535 25.654 8.126 25.654 7.701 25.654 6.407 24.602 5.354 23.308 5.354 22.882 5.354 22.474 5.473 22.092 5.707 21.78 5.897 21.391 5.903 21.073 5.722 20.273 5.266 19.413 4.909 18.514 4.66 18.149 4.56 17.872 4.263 17.799 3.892 17.581 2.801 16.614 2.008 15.5 2.008 14.386 2.008 13.419 2.801 13.201 3.892 13.128 4.263 12.851 4.56 12.486 4.66 11.587 4.909 10.727 5.266 9.927 5.722 9.608 5.903 9.219 5.897 8.908 5.707 8.526 5.473 8.118 5.354 7.692 5.354 6.399 5.354 5.346 6.407 5.346 7.701 5.346 8.126 5.464 8.535 5.698 8.915 5.889 9.227 5.896 9.618 5.714 9.934 5.259 10.733 4.901 11.595 4.652 12.495 4.552 12.859 4.255 13.135 3.884 13.209 2.792 13.427 2 14.394 2 15.508L2 15.508ZM3.55271e-15 15.508C3.55271e-15 13.655 1.183 12.022 2.889 11.414 3.11 10.728 3.387 10.064 3.714 9.429 3.472 8.881 3.346 8.293 3.346 7.701 3.346 5.304 5.296 3.354 7.692 3.354 8.284 3.354 8.872 3.48 9.42 3.722 10.056 3.394 10.721 3.118 11.407 2.896 12.014 1.191 13.647 0.008 15.5 0.008 17.354 0.008 18.986 1.191 19.593 2.896 20.279 3.118 20.944 3.394 21.58 3.722 22.128 3.48 22.716 3.354 23.308 3.354 25.704 3.354 27.654 5.304 27.654 7.701 27.654 8.293 27.528 8.881 27.286 9.429 27.613 10.064 27.89 10.728 28.111 11.414 29.817 12.022 31 13.655 31 15.508 31 17.361 29.817 18.994 28.111 19.602 27.89 20.288 27.613 20.952 27.286 21.588 27.528 22.136 27.654 22.723 27.654 23.316 27.654 25.712 25.704 27.662 23.308 27.662 22.716 27.662 22.128 27.536 21.58 27.294 20.944 27.622 20.279 27.898 19.593 28.12 18.986 29.825 17.354 31.008 15.5 31.008 13.647 31.008 12.014 29.825 11.407 28.12 10.721 27.898 10.056 27.622 9.42 27.294 8.872 27.536 8.284 27.662 7.692 27.662 5.296 27.662 3.346 25.712 3.346 23.316 3.346 22.723 3.472 22.136 3.714 21.588 3.387 20.952 3.11 20.288 2.889 19.602 1.183 18.994 3.55271e-15 17.361 3.55271e-15 15.508L3.55271e-15 15.508ZM10 29.008 10 40.833 14.712 36.122C15.103 35.731 15.735 35.732 16.126 36.121L21.047 41.035 19.633 42.451 15.419 38.243 9.707 43.954C9.516 44.146 9.26 44.247 9 44.247 8.871 44.247 8.741 44.222 8.617 44.171 8.243 44.016 8 43.652 8 43.247L8 29.008 10 29.008Z" id="Fill-1"/></g></g></svg>