<svg width="80" height="80" viewBox="0 0 80 80" xmlns="http://www.w3.org/2000/svg" xmlns:xlink="http://www.w3.org/1999/xlink" overflow="hidden"><g id="Icon-Architecture/64/Arch_Amazon-File-Cache_64" stroke="none" stroke-width="1" fill="none" fill-rule="evenodd"><g id="Icon-Architecture-BG/64/Storage" fill="#7AA116"><rect x="0" y="0" width="80" height="80" id="Rectangle"/></g><path d="M43 43.4C42.448 43.4 42 42.951 42 42.4 42 41.849 42.448 41.4 43 41.4 43.552 41.4 44 41.849 44 42.4 44 42.951 43.552 43.4 43 43.4L43 43.4ZM43 39.4C41.346 39.4 40 40.746 40 42.4 40 44.054 41.346 45.4 43 45.4 44.654 45.4 46 44.054 46 42.4 46 40.746 44.654 39.4 43 39.4L43 39.4ZM52.293 52.879 49.707 50.293C49.451 50.038 49.078 49.939 48.733 50.036 48.386 50.132 48.117 50.408 48.03 50.757L47.219 54 38.781 54 37.97 50.757C37.883 50.408 37.614 50.132 37.267 50.036 36.92 49.939 36.548 50.038 36.293 50.293L33.707 52.879 33.061 48.354 36.707 44.707C36.895 44.52 37 44.265 37 44 37 36.247 41.287 30.477 43.001 28.479 44.717 30.471 49 36.225 49 44 49 44.265 49.105 44.52 49.293 44.707L52.939 48.354 52.293 52.879ZM50.996 43.582C50.814 33.306 43.99 26.568 43.696 26.282 43.308 25.906 42.692 25.906 42.304 26.282 42.01 26.568 35.186 33.306 35.004 43.582L31.293 47.293C31.07 47.516 30.966 47.83 31.01 48.142L32.01 55.142C32.063 55.517 32.324 55.829 32.684 55.949 33.042 56.07 33.439 55.975 33.707 55.707L36.458 52.956 37.03 55.243C37.142 55.688 37.541 56 38 56L48 56C48.459 56 48.858 55.688 48.97 55.243L49.542 52.956 52.293 55.707C52.483 55.898 52.739 56 53 56 53.105 56 53.213 55.983 53.316 55.949 53.676 55.829 53.937 55.517 53.99 55.142L54.99 48.142C55.034 47.83 54.93 47.516 54.707 47.293L50.996 43.582ZM47 66 49 66 49 60 47 60 47 66ZM37 66 39 66 39 60 37 60 37 66ZM42 68 44 68 44 58 42 58 42 68ZM61 21 18 21C17.447 21 17 21.448 17 22L17 54.5C17 55.327 16.327 56 15.5 56 14.673 56 14 55.327 14 54.5L14 14 26.586 14 30.293 17.707C30.48 17.895 30.734 18 31 18L61 18 61 21ZM67 21 63 21 63 17C63 16.448 62.553 16 62 16L31.414 16 27.707 12.293C27.52 12.106 27.266 12 27 12L13 12C12.447 12 12 12.448 12 13L12 54.5C12 56.43 13.57 58 15.5 58L29 58 29 56 18.649 56C18.867 55.544 19 55.039 19 54.5L19 23 66 23 66 56 57 56 57 58 67 58C67.553 58 68 57.552 68 57L68 22C68 21.448 67.553 21 67 21L67 21Z" id="Fill-1" fill="#FFFFFF"/></g></svg>