<svg width="80" height="80" viewBox="0 0 80 80" xmlns="http://www.w3.org/2000/svg" xmlns:xlink="http://www.w3.org/1999/xlink" overflow="hidden"><g id="Icon-Architecture/64/Arch_Amazon-FSx-for-WFS_64" stroke="none" stroke-width="1" fill="none" fill-rule="evenodd"><g id="Icon-Architecture-BG/64/Storage" fill="#7AA116"><rect x="0" y="0" width="80" height="80" id="Rectangle"/></g><g id="Icon-Service/64/Amazon-FSx-for-WFS_64" fill="#FFFFFF" transform="translate(12 26)"><path d="M41 26 54.001 26 54.001 25 41 25 41 26ZM42 23 53 23 53 16 42 16 42 23ZM56 24 56 26C56 27.103 55.103 28 54 28L41 28C39.897 28 39 27.103 39 26L39 24C39 23.448 39.447 23 40 23L40 15C40 14.448 40.447 14 41 14L54 14C54.553 14 55 14.448 55 15L55 23C55.553 23 56 23.448 56 24L56 24ZM42.413 4.675 39.944 4.675 35.22 11.669 33.955 13.485 38 19.494 38 15.625 36.436 13.316 42.413 4.675ZM27.333 23 29.837 23 34.014 16.674 32.885 15.022 27.333 23ZM34.171 10.117 30.494 4.675 27.889 4.675 32.855 11.935 34.171 10.117ZM22.827 11.546 19.5 10.224C18.4 9.793 17.556 9.391 16.965 9.014 16.374 8.638 15.949 8.219 15.689 7.756 15.431 7.294 15.301 6.687 15.301 5.934 15.301 4.601 15.726 3.575 16.576 2.854 17.426 2.134 18.649 1.774 20.246 1.774 21.884 1.774 23.76 2.161 25.875 2.935L25.875 1.29C24.983 0.882 24.035 0.564 23.029 0.339 22.023 0.113 21.064 0 20.152 0 18.142 0 16.519 0.554 15.285 1.661 14.052 2.769 13.436 4.214 13.436 5.999 13.436 7.311 13.809 8.412 14.555 9.304 15.301 10.197 16.473 10.965 18.069 11.61L21.677 13.062C22.92 13.556 23.822 14.115 24.382 14.738 24.941 15.362 25.222 16.115 25.222 16.996 25.222 18.437 24.709 19.576 23.683 20.415 22.656 21.253 21.282 21.672 19.562 21.672 17.737 21.672 15.736 21.264 13.56 20.447L13.56 22.092C15.363 22.995 17.416 23.446 19.717 23.446 21.936 23.446 23.724 22.855 25.082 21.672 26.439 20.49 27.119 18.942 27.119 17.028 27.119 15.717 26.776 14.625 26.093 13.755 25.408 12.884 24.32 12.148 22.827 11.546L22.827 11.546ZM0 0.548 12.098 0.548 12.098 2.257 1.835 2.257 1.835 10.804 10.512 10.804 10.512 12.513 1.835 12.513 1.835 22.898 0 22.898 0 0.548Z" id="Amazon-FSx-for-WFS_Icon_64_Squid"/></g></g></svg>