<svg width="48" height="48" viewBox="0 0 48 48" xmlns="http://www.w3.org/2000/svg" xmlns:xlink="http://www.w3.org/1999/xlink" overflow="hidden"><g id="Icon-Resource/End-User-Computing/Res_Amazon-WorkSpaces-Family_Amazon-WorkSpaces-Core_48" stroke="none" stroke-width="1" fill="none" fill-rule="evenodd"><path d="M46 22.4482C46 29.4242 41.96 30.9932 40.545 30.9932L39 30.9932 39 28.9932 40.545 28.9932C41.274 28.9932 44 27.8832 44 22.4482 44 17.4232 39.744 16.1502 37.914 15.8372 37.378 15.7442 37.014 15.2402 37.094 14.7022 37.096 12.5252 36.174 10.9362 34.566 10.4062 33.144 9.93521 31.573 10.4492 30.661 11.6812 30.44 11.9782 30.078 12.1312 29.709 12.0752 29.344 12.0202 29.038 11.7682 28.915 11.4202 28.288 9.64721 27.38 8.15721 26.216 6.99221 24.791 5.56521 20.881 2.49421 15.358 4.83021 12.172 6.17721 9.677 10.0582 9.677 13.6662L9.753 14.9262C9.781 15.4042 9.467 15.8352 9.003 15.9542 7.135 16.4312 4 17.9022 4 22.3842 4 25.7542 5.832 27.6122 7.369 28.5782 7.838 28.8722 8.311 28.9922 9.001 28.9932L8.999 30.9932C7.943 30.9922 7.087 30.7622 6.305 30.2712 4.697 29.2612 2 26.8932 2 22.3842 2 17.0532 5.531 15.0092 7.71 14.2562L7.679 13.7252C7.677 9.24221 10.645 4.65121 14.579 2.98821 19.187 1.03921 24.065 2.00921 27.631 5.57921 28.676 6.62521 29.542 7.88021 30.217 9.32421 31.628 8.27321 33.475 7.94021 35.193 8.50621 37.441 9.24821 38.856 11.2882 39.068 14.0362 42.557 14.8972 46 17.4872 46 22.4482L46 22.4482ZM25 43.2542 25 31.5682 35 25.7342 35 37.4192 25 43.2542ZM13.006 25.7382 23 31.5682 23 43.2502 13.006 37.4192 13.006 25.7382ZM24.004 18.1522 34.016 23.9932 24 29.8362 14 24.0032 24.004 18.1522ZM36.504 23.1302 24.507 16.1302C24.195 15.9472 23.81 15.9482 23.498 16.1302L11.584 23.0982C11.326 23.2202 11.121 23.4492 11.038 23.7392 11.002 23.8662 10.992 23.9962 11.006 24.1222L11.006 37.9932C11.006 38.3492 11.194 38.6782 11.502 38.8572L23.499 45.8572C23.654 45.9482 23.829 45.9932 24.003 45.9932 24.177 45.9932 24.352 45.9482 24.507 45.8572L36.504 38.8572C36.812 38.6782 37 38.3492 37 37.9932L37 23.9932C37 23.6382 36.812 23.3092 36.504 23.1302L36.504 23.1302Z" id="Fill-1" fill="#01A88D"/></g></svg>