<svg width="48" height="48" viewBox="0 0 48 48" xmlns="http://www.w3.org/2000/svg" xmlns:xlink="http://www.w3.org/1999/xlink" overflow="hidden"><g id="Icon-Resource/Storage/Res_AWS-Backup_Audit-Manager_48" stroke="none" stroke-width="1" fill="none" fill-rule="evenodd"><path d="M44 19C44 17.897 43.103 17 42 17 40.897 17 40 17.897 40 19 40 20.103 40.897 21 42 21 43.103 21 44 20.103 44 19L44 19ZM39.92 22.4C38.773 21.696 38 20.441 38 19 38 18.487 38.106 18 38.282 17.549L26.537 9.066C25.845 9.641 24.968 10 24 10 23.032 10 22.155 9.641 21.463 9.066L9.718 17.549C9.894 18 10 18.487 10 19 10 20.441 9.227 21.696 8.08 22.4L12.834 38.017C12.89 38.014 12.943 38 13 38 14.859 38 16.411 39.28 16.858 41L31.142 41C31.589 39.28 33.141 38 35 38 35.057 38 35.11 38.014 35.166 38.017L39.92 22.4ZM37 42C37 40.897 36.103 40 35 40 33.897 40 33 40.897 33 42 33 43.103 33.897 44 35 44 36.103 44 37 43.103 37 42L37 42ZM15 42C15 40.897 14.103 40 13 40 11.897 40 11 40.897 11 42 11 43.103 11.897 44 13 44 14.103 44 15 43.103 15 42L15 42ZM6 21C7.103 21 8 20.103 8 19 8 17.897 7.103 17 6 17 4.897 17 4 17.897 4 19 4 20.103 4.897 21 6 21L6 21ZM22 6C22 7.103 22.897 8 24 8 25.103 8 26 7.103 26 6 26 4.897 25.103 4 24 4 22.897 4 22 4.897 22 6L22 6ZM46 19C46 21.206 44.206 23 42 23 41.943 23 41.89 22.986 41.833 22.983L37.08 38.6C38.227 39.304 39 40.559 39 42 39 44.206 37.206 46 35 46 33.141 46 31.589 44.72 31.142 43L16.858 43C16.411 44.72 14.859 46 13 46 10.794 46 9 44.206 9 42 9 40.559 9.773 39.304 10.92 38.6L6.166 22.983C6.11 22.986 6.057 23 6 23 3.794 23 2 21.206 2 19 2 16.794 3.794 15 6 15 6.968 15 7.845 15.359 8.538 15.934L20.282 7.451C20.106 7 20 6.513 20 6 20 3.794 21.794 2 24 2 26.206 2 28 3.794 28 6 28 6.513 27.894 7 27.718 7.451L39.462 15.934C40.155 15.359 41.032 15 42 15 44.206 15 46 16.794 46 19L46 19ZM35 26C35 32.065 30.065 37 24 37 17.935 37 13 32.065 13 26L15 26 16.963 26 18.769 23.269C18.963 22.975 19.291 22.801 19.653 22.822 20.006 22.84 20.324 23.043 20.488 23.356L22.718 27.607 25.092 21.631C25.238 21.264 25.586 21.017 25.98 21.001 26.371 20.988 26.742 21.202 26.917 21.556L29.12 26 31 26 31 28 28.5 28C28.12 28 27.772 27.785 27.604 27.444L26.122 24.455 23.773 30.369C23.629 30.732 23.286 30.978 22.896 30.999 22.879 31 22.861 31 22.844 31 22.474 31 22.132 30.795 21.958 30.464L19.503 25.784 18.334 27.552C18.149 27.832 17.836 28 17.5 28L15.232 28C16.145 32.002 19.725 35 24 35 28.963 35 33 30.962 33 26 33 21.038 28.963 17 24 17 21.426 17 19.009 18.125 17.319 20L19 20 19 22 15 22C14.447 22 14 21.552 14 21L14 17 16 17 16 18.477C18.056 16.297 20.939 15 24 15 30.065 15 35 19.935 35 26L35 26Z" id="Fill-1" fill="#7AA116"/></g></svg>