<svg width="90" height="90" viewBox="0 0 90 90" xmlns="http://www.w3.org/2000/svg" xmlns:xlink="http://www.w3.org/1999/xlink" overflow="hidden"><g id="Icon-Architecture-Category/64/Customer-Enablement_64" stroke="none" stroke-width="1" fill="none" fill-rule="evenodd"><rect x="5" y="5" width="80" height="80" id="Rectangle" fill="#C925D1"/><rect x="1" y="1" width="88" height="88" id="#879196-Border-Copy-7" stroke="#879196" stroke-width="2"/><g id="Icon-Category/64/Customer-Enablement_64" fill="#FFFFFF" transform="translate(18 16)"><path d="M52 43.232 42.111 48.282C41.45 39.78 36.919 32.843 30.965 30.74 33.99 29.288 36.089 26.203 36.089 22.629 36.089 17.667 32.052 13.629 27.089 13.629 22.126 13.629 18.089 17.667 18.089 22.629 18.089 26.229 20.218 29.333 23.278 30.771 17.307 32.914 12.868 39.84 12.275 48.48L2 43.232 2 15.013 27 2.246 52 15.013 52 43.232ZM27.089 29.629C23.229 29.629 20.089 26.489 20.089 22.629 20.089 18.77 23.229 15.629 27.089 15.629 30.948 15.629 34.089 18.77 34.089 22.629 34.089 26.489 30.948 29.629 27.089 29.629L27.089 29.629ZM27 56 14.227 49.476C14.58 39.665 20.187 32.064 27.197 32.064 34.09 32.064 39.73 39.689 40.156 49.281L27 56ZM27 3.55271e-15 0 13.789 0 44.457 27 58.246 54 44.457 54 13.789 27 3.55271e-15Z" id="Fill-5"/></g></g></svg>