<svg width="80" height="80" viewBox="0 0 80 80" xmlns="http://www.w3.org/2000/svg" xmlns:xlink="http://www.w3.org/1999/xlink" overflow="hidden"><g id="Icon-Architecture/64/Arch_Amazon-Textract_64" stroke="none" stroke-width="1" fill="none" fill-rule="evenodd"><g id="Icon-Architecture-BG/64/Machine-Learning" fill="#01A88D"><rect x="0" y="0" width="80" height="80" id="Rectangle"/></g><path d="M22.0624 50C24.3764 53.603 28.4104 56 33.0003 56 40.1672 56 45.9992 50.168 45.9992 43 45.9992 35.832 40.1672 30 33.0003 30 27.6034 30 22.9664 33.307 21.0024 38L23.2144 38C25.0394 34.444 28.7364 32 33.0003 32 39.0653 32 43.9992 36.935 43.9992 43 43.9992 49.065 39.0653 54 33.0003 54 29.5913 54 26.5414 52.441 24.5214 50L22.0624 50ZM37.0003 45 37.0003 43 41.9992 43C41.9992 38.038 37.9623 34 33.0003 34 28.0374 34 23.9994 38.038 23.9994 43L28.9993 43 28.9993 45 24.2314 45C25.1444 49.002 28.7254 52 33.0003 52 35.1363 52 37.0993 51.249 38.6443 50L34.0003 50 34.0003 48 40.4782 48C41.0812 47.102 41.5202 46.087 41.7682 45L37.0003 45ZM21.0024 48 23.2144 48C22.4434 46.498 22.0004 44.801 22.0004 43 22.0004 41.959 22.1554 40.955 22.4264 40L20.3634 40C20.1344 40.965 19.9994 41.966 19.9994 43 19.9994 44.771 20.3584 46.46 21.0024 48L21.0024 48ZM19.7434 50 17.0005 50 17.0005 48 18.8744 48C18.5344 47.04 18.2894 46.038 18.1494 45L15.4145 45 16.7075 46.293 15.2925 47.707 12.2925 44.707C11.9025 44.316 11.9025 43.684 12.2925 43.293L15.2925 40.293 16.7075 41.707 15.4145 43 18.0004 43C18.0004 41.973 18.1044 40.97 18.3024 40L17.0005 40 17.0005 38 18.8744 38C20.9404 32.184 26.4834 28 33.0003 28 37.4273 28 41.4002 29.939 44.1482 33L59.0001 33 59.0001 35 45.6662 35C47.1352 37.318 47.9992 40.058 47.9992 43L59.0001 43 59.0001 45 47.8502 45C46.8682 52.327 40.5912 58 33.0003 58 27.2564 58 22.2624 54.752 19.7434 50L19.7434 50ZM37.0003 39C37.0003 38.448 36.5523 38 36.0003 38L29.9993 38C29.4473 38 28.9993 38.448 28.9993 39L28.9993 41 31.0003 41 31.0003 40 32.0003 40 32.0003 43 31.0003 43 31.0003 45 35.0003 45 35.0003 43 34.0003 43 34.0003 40 35.0003 40 35.0003 41 37.0003 41 37.0003 39ZM49.0002 40 59.0001 40 59.0001 38 49.0002 38 49.0002 40ZM49.0002 50 59.0001 50 59.0001 48 49.0002 48 49.0002 50ZM57.0001 27 60.5851 27 57.0001 23.414 57.0001 27ZM63.707 27.293C63.894 27.48 64 27.735 64 28L64 63C64 63.552 63.552 64 63 64L32.0003 64C31.4473 64 31.0003 63.552 31.0003 63L31.0003 59 33.0003 59 33.0003 62 62.0001 62 62.0001 29 56.0001 29C55.4471 29 55.0001 28.552 55.0001 28L55.0001 22 33.0003 22 33.0003 27 31.0003 27 31.0003 21C31.0003 20.448 31.4473 20 32.0003 20L56.0001 20C56.2651 20 56.5191 20.105 56.7071 20.293L63.707 27.293ZM68 24.166 68 61C68 61.552 67.552 62 67 62L65 62 65 60 66 60 66 24.612 58.6171 18 36.0003 18 36.0003 19 34.0003 19 34.0003 17C34.0003 16.448 34.4473 16 35.0003 16L59.0001 16C59.2461 16 59.4831 16.091 59.6661 16.255L67.666 23.42C67.878 23.61 68 23.881 68 24.166L68 24.166Z" id="Amazon-Textract_Icon_64_Squid" fill="#FFFFFF"/></g></svg>