<svg width="48" height="48" viewBox="0 0 48 48" xmlns="http://www.w3.org/2000/svg" xmlns:xlink="http://www.w3.org/1999/xlink" overflow="hidden"><g id="Icon-Resource/IoT/Res_AWS-IoT-Core_Device-Location_48" stroke="none" stroke-width="1" fill="none" fill-rule="evenodd"><path d="M35.8342 43.976 34.8372 38.495 40.0562 37.65 43.3522 43.976 35.8342 43.976ZM4.9862 43.328 32.8642 38.814 33.8022 43.976 4.6482 43.976 4.9862 43.328ZM10.0942 33.523 15.8342 39.545 6.1392 41.114 10.0942 33.523ZM33.8342 32.976 37.6212 32.976 39.0822 35.781 34.4792 36.526 33.8342 32.976ZM45.8872 44.514 39.1142 31.514C38.9422 31.184 38.6012 30.976 38.2272 30.976L29.0002 30.976 29.0002 32.976 31.8022 32.976 32.5062 36.846 18.2272 39.157 12.3352 32.976 18.0002 32.976 18.0002 30.976 9.7722 30.976C9.3992 30.976 9.0582 31.184 8.8862 31.514L2.1132 44.514C1.9512 44.824 1.9642 45.196 2.1442 45.495 2.3262 45.793 2.6502 45.976 3.0002 45.976L45.0002 45.976C45.3502 45.976 45.6742 45.793 45.8552 45.495 46.0362 45.196 46.0492 44.824 45.8872 44.514L45.8872 44.514ZM31.1282 7.885 30.6452 5.944C31.8832 5.637 33.4642 6.117 34.7712 7.196 36.0802 8.277 36.8502 9.739 36.7812 11.012L34.7832 10.904C34.8112 10.395 34.4212 9.5 33.4982 8.738 32.5742 7.976 31.6182 7.76 31.1282 7.885L31.1282 7.885ZM31.5362 4.072 31.0542 2.131C32.8572 1.681 35.1962 2.407 37.1542 4.023 39.1132 5.641 40.2672 7.8 40.1672 9.659L38.1692 9.55C38.2242 8.552 37.5372 6.933 35.8812 5.565 34.2272 4.2 32.5122 3.83 31.5362 4.072L31.5362 4.072ZM22.0002 18.976C22.0002 17.873 22.8972 16.976 24.0002 16.976 25.1022 16.976 26.0002 17.873 26.0002 18.976 26.0002 20.079 25.1022 20.976 24.0002 20.976 22.8972 20.976 22.0002 20.079 22.0002 18.976L22.0002 18.976ZM28.0002 18.976C28.0002 16.77 26.2062 14.976 24.0002 14.976 21.7942 14.976 20.0002 16.77 20.0002 18.976 20.0002 21.182 21.7942 22.976 24.0002 22.976 26.2062 22.976 28.0002 21.182 28.0002 18.976L28.0002 18.976ZM18.0702 12.95C19.6052 11.339 21.7672 10.415 23.9982 10.415 26.3662 10.415 28.5752 11.312 30.0612 12.876 31.4322 14.321 32.0992 16.214 31.9872 18.35 31.7792 22.373 26.3502 29.154 23.4832 32.319 21.5282 29.848 16.2192 22.755 16.0092 18.354 15.9132 16.364 16.6452 14.444 18.0702 12.95L18.0702 12.95ZM23.4002 34.844C23.4102 34.844 23.4212 34.844 23.4322 34.844 23.7042 34.844 23.9652 34.733 24.1542 34.536 24.5432 34.13 33.6712 24.525 33.9852 18.454 34.1252 15.757 33.2692 13.351 31.5112 11.499 29.6502 9.539 26.9122 8.415 23.9982 8.415 21.2222 8.415 18.5332 9.565 16.6232 11.57 14.8162 13.464 13.8902 15.908 14.0112 18.45 14.2992 24.488 22.3252 34.083 22.6672 34.488 22.8502 34.705 23.1162 34.835 23.4002 34.844L23.4002 34.844Z" id="Fill-1" fill="#7AA116"/></g></svg>