<svg width="48" height="48" viewBox="0 0 48 48" xmlns="http://www.w3.org/2000/svg" xmlns:xlink="http://www.w3.org/1999/xlink" overflow="hidden"><g id="Icon-Resource/Migration-and-Transfer/Res_AWS-Mainframe-Modernization_Runtime_48" stroke="none" stroke-width="1" fill="none" fill-rule="evenodd"><path d="M28.743 12 22.343 17 28.743 22 39.673 22 46.072 17 39.673 12 28.743 12ZM25.591 17 29.432 14 38.984 14 42.824 17 38.984 20 29.432 20 25.591 17ZM8.001 14 22 14 22 12 8.001 12 8.001 14ZM3 18 19 18 19 16 3 16 3 18ZM12 22 23 22 23 20 12 20 12 22ZM22.743 27 16.343 32 22.743 37 33.673 37 40.073 32 33.673 27 22.743 27ZM19.591 32 23.432 29 32.984 29 36.825 32 32.984 35 23.432 35 19.591 32ZM9.001 29 17.001 29 17.001 27 9.001 27 9.001 29ZM2 33.001 13 33.001 13 31 2 31 2 33.001ZM5 37 17.001 37 17.001 35 5 35 5 37Z" id="Fill-1" fill="#01A88D"/></g></svg>