<svg width="48" height="48" viewBox="0 0 48 48" xmlns="http://www.w3.org/2000/svg" xmlns:xlink="http://www.w3.org/1999/xlink" overflow="hidden"><g id="Icon-Resource/IoT/Res_AWS-IoT-SiteWise_Asset-Properties_48" stroke="none" stroke-width="1" fill="none" fill-rule="evenodd"><path d="M20 32C18.346 32 17 33.346 17 35 17 36.654 18.346 38 20 38 21.654 38 23 36.654 23 35 23 33.346 21.654 32 20 32L20 32ZM20 40C17.243 40 15 37.757 15 35 15 32.243 17.243 30 20 30 22.757 30 25 32.243 25 35 25 37.757 22.757 40 20 40L20 40ZM29 21C27.346 21 26 22.346 26 24 26 25.654 27.346 27 29 27 30.654 27 32 25.654 32 24 32 22.346 30.654 21 29 21L29 21ZM29 29C26.243 29 24 26.757 24 24 24 21.243 26.243 19 29 19 31.757 19 34 21.243 34 24 34 26.757 31.757 29 29 29L29 29ZM17 10C15.346 10 14 11.346 14 13 14 14.654 15.346 16 17 16 18.654 16 20 14.654 20 13 20 11.346 18.654 10 17 10L17 10ZM17 18C14.243 18 12 15.757 12 13 12 10.243 14.243 8 17 8 19.757 8 22 10.243 22 13 22 15.757 19.757 18 17 18L17 18ZM6 36 13 36 13 34 6 34 6 36ZM27 36 42 36 42 34 27 34 27 36ZM6 25 22 25 22 23 6 23 6 25ZM36 25 42 25 42 23 36 23 36 25ZM6 14 10 14 10 12 6 12 6 14ZM24 14 42 14 42 12 24 12 24 14ZM4 44 44 44 44 4 4 4 4 44ZM45 46 3 46C2.448 46 2 45.552 2 45L2 3C2 2.448 2.448 2 3 2L45 2C45.552 2 46 2.448 46 3L46 45C46 45.552 45.552 46 45 46L45 46Z" id="Fill-1" fill="#7AA116"/></g></svg>