<svg width="80" height="80" viewBox="0 0 80 80" xmlns="http://www.w3.org/2000/svg" xmlns:xlink="http://www.w3.org/1999/xlink" overflow="hidden"><g id="Icon-Architecture/64/Arch_AWS-Thinkbox-Stoke_64" stroke="none" stroke-width="1" fill="none" fill-rule="evenodd"><g id="Icon-Architecture-BG/64/Compute" fill="#ED7100"><rect x="0" y="0" width="80" height="80" id="Rectangle"/></g><g id="Icon-Service/64/AWS-ThinkBox-Stoke_64" fill="#FFFFFF" transform="translate(15 12)"><path d="M36.645 8.89 32.257 6.356 33.257 4.624 37.645 7.158 36.645 8.89ZM13.267 8.89 12.267 7.157 16.654 4.624 17.654 6.356 13.267 8.89ZM47.956 23.765C46.879 20.193 45.327 16.528 43.395 12.787L47.956 15.394 47.956 23.765ZM25.714 33.37C25.525 33.149 25.248 33.021 24.956 33.021 24.664 33.021 24.386 33.149 24.197 33.37 23.948 33.661 18.096 40.568 18.096 48.104L18.096 48.441C18.096 49.234 18.205 50.01 18.392 50.754 16.786 48.626 15.874 45.831 15.874 42.826 15.874 32.659 22.624 22.41 24.956 19.173 27.288 22.407 34.036 32.646 34.036 42.826 34.036 45.832 33.125 48.628 31.518 50.755 31.706 50.011 31.814 49.235 31.814 48.441L31.814 48.104C31.814 40.568 25.963 33.661 25.714 33.37L25.714 33.37ZM12.625 22.683 15.319 24.238 16.319 22.506 13.399 20.82C17.222 12.017 22.938 4.881 24.956 2.507 26.975 4.88 32.692 12.015 36.514 20.818L33.591 22.506 34.591 24.238 37.288 22.682C38.999 27.053 40.173 31.766 40.173 36.472 40.173 41.357 38.146 45.935 34.8 49.027 35.598 47.14 36.036 45.029 36.036 42.826 36.036 29.888 26.157 17.404 25.736 16.879 25.546 16.641 25.259 16.504 24.956 16.504 24.652 16.504 24.365 16.641 24.175 16.879 23.754 17.404 13.874 29.888 13.874 42.826 13.874 45.028 14.312 47.139 15.11 49.026 11.765 45.935 9.738 41.357 9.738 36.472 9.738 31.769 10.913 27.056 12.625 22.683L12.625 22.683ZM1.956 15.394 6.516 12.786C4.583 16.529 3.032 20.194 1.956 23.768L1.956 15.394ZM49.91 14.817C49.91 14.459 49.719 14.129 49.41 13.951L41.315 9.276C40.925 9.052 40.429 9.114 40.109 9.434 39.789 9.753 39.722 10.248 39.948 10.64 45.071 19.575 47.793 28.055 47.956 35.86L47.956 41.9 39.083 46.996C41.047 43.953 42.173 40.297 42.173 36.472 42.173 31.341 40.846 26.248 39.034 21.673L41.557 20.217 40.557 18.484 38.261 19.809C36.901 16.696 35.358 13.873 33.917 11.515 29.859 4.868 25.86 0.493 25.692 0.309 25.313-0.103 24.598-0.103 24.219 0.309 24.051 0.493 20.052 4.868 15.994 11.515 14.553 13.873 13.01 16.696 11.65 19.81L9.354 18.484 8.354 20.217 10.877 21.674C9.065 26.248 7.738 31.341 7.738 36.472 7.738 40.297 8.864 43.954 10.828 46.997L1.956 41.9 1.956 35.909C2.107 28.091 4.83 19.594 9.963 10.64 10.189 10.247 10.123 9.753 9.802 9.434 9.481 9.114 8.986 9.05 8.596 9.276L0.5 13.951C0.191 14.129 0 14.459 0 14.817L0 42.477C0 42.835 0.191 43.165 0.5 43.344L22.227 55.888 23.227 54.155 22.588 53.786C21.051 52.696 20.096 50.65 20.096 48.441L20.096 48.104C20.096 42.858 23.42 37.735 24.956 35.649 26.49 37.735 29.814 42.858 29.814 48.104L29.814 48.441C29.814 50.65 28.859 52.697 27.323 53.786L26.403 54.317 27.403 56.05 49.41 43.344C49.719 43.165 49.91 42.835 49.91 42.477L49.91 14.817Z" id="AWS-ThinkBox-Stoke_64_Squid"/></g></g></svg>