<svg width="80" height="80" viewBox="0 0 80 80" xmlns="http://www.w3.org/2000/svg" xmlns:xlink="http://www.w3.org/1999/xlink" overflow="hidden"><g id="Icon-Architecture/64/Arch_AWS-Config_64" stroke="none" stroke-width="1" fill="none" fill-rule="evenodd"><g id="Icon-Architecture-BG/64/Management-Governance" fill="#E7157B"><rect x="0" y="0" width="80" height="80" id="Rectangle"/></g><path d="M58.5407 47.0509 60.4216 47.7014 59.235 51.1298C59.0957 51.5336 58.7148 51.7982 58.2961 51.7982 58.2553 51.7982 58.2135 51.7962 58.1717 51.7912L54.3405 51.3138 54.5871 49.3395 56.7524 49.61C55.901 48.2683 54.2947 47.4308 52.3751 47.4308 49.8607 47.4308 47.955 48.8064 47.5203 50.9349L45.5719 50.537C46.2044 47.4418 48.875 45.4416 52.3751 45.4416 54.8288 45.4416 56.9066 46.481 58.1568 48.1619L58.5407 47.0509ZM57.2298 53.7894 59.1783 54.1893C58.5487 57.2627 55.8145 59.3275 52.3751 59.3275 50.1362 59.3275 48.1629 58.3627 46.8878 56.8151L46.6898 57.749 44.7434 57.3363 45.5321 53.6144C45.6445 53.0833 46.1557 52.7391 46.6968 52.8445L50.3142 53.5527 49.9323 55.5052 48.1091 55.1481C48.9824 56.4869 50.5609 57.3382 52.3751 57.3382 54.8815 57.3382 56.7872 55.9448 57.2298 53.7894L57.2298 53.7894ZM65.0108 54.0998 63.8142 54.0321C63.3318 54.0092 62.8952 54.3315 62.7878 54.8069 62.5242 55.9776 62.0647 57.0876 61.4212 58.1061 61.1616 58.5169 61.2372 59.056 61.5992 59.3792L62.4934 60.1759 60.1769 62.4934 59.3832 61.6042C59.0589 61.2401 58.5199 61.1656 58.1091 61.4251 57.0906 62.0687 55.9796 62.5292 54.8049 62.7947 54.3315 62.9022 54.0033 63.3358 54.0321 63.8212L54.0998 65.0108 50.8215 65.0108 50.8901 63.8202C50.918 63.3348 50.5907 62.9002 50.1163 62.7928 48.9456 62.5292 47.8336 62.0677 46.8142 61.4232 46.4034 61.1636 45.8643 61.2372 45.541 61.6022L44.7453 62.4934 42.4279 60.1759 43.3191 59.3812C43.6821 59.0579 43.7577 58.5199 43.4981 58.1091 42.8556 57.0896 42.397 55.9796 42.1325 54.8059 42.026 54.3305 41.5745 53.9993 41.106 54.0321L39.9115 54.0998 39.9115 50.8225 41.11 50.8901C41.5506 50.91 42.028 50.5917 42.1364 50.1173 42.401 48.9476 42.8615 47.8386 43.505 46.8211 43.7646 46.4093 43.6881 45.8713 43.326 45.548L42.4279 44.7463 44.7453 42.4279 45.547 43.325C45.8693 43.6891 46.4103 43.7627 46.8191 43.505 47.8356 42.8635 48.9456 42.405 50.1163 42.1404 50.5907 42.033 50.918 41.5984 50.8901 41.113L50.8215 39.9115 54.0998 39.9115 54.0321 41.115C54.0033 41.6003 54.3315 42.034 54.8049 42.1414 55.9746 42.406 57.0826 42.8655 58.0991 43.507 58.5079 43.7646 59.048 43.691 59.3722 43.328L60.1759 42.4279 62.4934 44.7463 61.5972 45.545C61.2352 45.8693 61.1596 46.4074 61.4192 46.8181 62.0617 47.8366 62.5222 48.9456 62.7868 50.1173 62.8942 50.5917 63.3547 50.91 63.8132 50.8901L65.0108 50.8225 65.0108 54.0998ZM66.6877 49.0461C66.4898 48.8581 66.2142 48.7586 65.9487 48.7755L64.5125 48.8581C64.2668 48.0365 63.9386 47.2428 63.5298 46.4879L64.604 45.5291C64.8079 45.3471 64.9282 45.0885 64.9362 44.815 64.9431 44.5424 64.8377 44.2769 64.6447 44.0839L60.8383 40.2765C60.6444 40.0835 60.3917 39.9712 60.1063 39.9861 59.8328 39.994 59.5751 40.1134 59.3921 40.3173L58.4303 41.3965C57.6764 40.9887 56.8847 40.6604 56.0641 40.4158L56.1457 38.9726C56.1606 38.7 56.0641 38.4325 55.8752 38.2336 55.6882 38.0346 55.4266 37.9222 55.1531 37.9222L49.7692 37.9222C49.4947 37.9222 49.2341 38.0346 49.0461 38.2336 48.8581 38.4325 48.7606 38.7 48.7765 38.9726L48.8581 40.4138C48.0355 40.6584 47.2448 40.9867 46.4899 41.3945L45.5291 40.3183C45.3471 40.1134 45.0895 39.994 44.815 39.9861 44.5375 39.9741 44.2779 40.0835 44.0839 40.2765L40.2765 44.0839C40.0826 44.2769 39.9771 44.5424 39.9851 44.815 39.993 45.0885 40.1134 45.3471 40.3173 45.5291L41.3945 46.4909C40.9857 47.2448 40.6574 48.0375 40.4108 48.8581L38.9726 48.7755C38.701 48.7576 38.4315 48.8581 38.2336 49.0461 38.0346 49.2341 37.9222 49.4957 37.9222 49.7692L37.9222 55.1531C37.9222 55.4256 38.0346 55.6882 38.2336 55.8762 38.4315 56.0641 38.702 56.1596 38.9726 56.1457L40.4058 56.0641C40.6515 56.8877 40.9797 57.6814 41.3885 58.4383L40.3173 59.3921C40.1134 59.5751 39.993 59.8328 39.9851 60.1063 39.9771 60.3798 40.0826 60.6444 40.2765 60.8383L44.0839 64.6447C44.2779 64.8387 44.5613 64.9451 44.815 64.9362 45.0895 64.9282 45.3471 64.8079 45.5291 64.604L46.4839 63.5337C47.2408 63.9435 48.0346 64.2728 48.8581 64.5184L48.7765 65.9487C48.7606 66.2222 48.8581 66.4898 49.0461 66.6887 49.2341 66.8876 49.4947 67 49.7692 67L55.1531 67C55.4266 67 55.6882 66.8876 55.8752 66.6887 56.0641 66.4898 56.1606 66.2222 56.1457 65.9487L56.0641 64.5204C56.8887 64.2747 57.6834 63.9455 58.4393 63.5357L59.3921 64.604C59.5742 64.8088 59.8328 64.9282 60.1063 64.9362 60.3947 64.9481 60.6444 64.8387 60.8383 64.6447L64.6447 60.8383C64.8377 60.6444 64.9431 60.3798 64.9362 60.1063 64.9282 59.8328 64.8079 59.5751 64.604 59.3931L63.5318 58.4363C63.9405 57.6804 64.2698 56.8867 64.5144 56.0641L65.9487 56.1457C66.2133 56.1586 66.4898 56.0631 66.6877 55.8762 66.8876 55.6882 67 55.4256 67 55.1531L67 49.7692C67 49.4957 66.8876 49.2341 66.6877 49.0461L66.6877 49.0461ZM14.9892 54.7741 34.8817 54.7741 34.8817 56.7634 13.9946 56.7634C13.4446 56.7634 13 56.3178 13 55.7687L13 13.9946C13 13.4456 13.4446 13 13.9946 13L59.7472 13C60.2972 13 60.7418 13.4456 60.7418 13.9946L60.7418 35.8763 58.7526 35.8763 58.7526 14.9892 14.9892 14.9892 14.9892 54.7741ZM47.8118 26.9247 46.8171 26.9247 46.8171 24.9355 47.8118 24.9355 51.7902 24.9355 52.7849 24.9355 52.7849 26.9247 51.7902 26.9247 47.8118 26.9247ZM48.8064 22.9462 50.7956 22.9462 50.7956 18.9677 48.8064 18.9677 48.8064 22.9462ZM52.7849 35.8763 52.7849 28.9139 53.7795 28.9139C54.3295 28.9139 54.7741 28.4684 54.7741 27.9193L54.7741 23.9408C54.7741 23.3918 54.3295 22.9462 53.7795 22.9462L52.7849 22.9462 52.7849 17.9731C52.7849 17.4241 52.3403 16.9785 51.7902 16.9785L47.8118 16.9785C47.2617 16.9785 46.8171 17.4241 46.8171 17.9731L46.8171 22.9462 45.8225 22.9462C45.2725 22.9462 44.8279 23.3918 44.8279 23.9408L44.8279 27.9193C44.8279 28.4684 45.2725 28.9139 45.8225 28.9139L46.8171 28.9139 46.8171 35.8763 48.8064 35.8763 48.8064 28.9139 50.7956 28.9139 50.7956 35.8763 52.7849 35.8763ZM33.8871 37.8655 32.8924 37.8655 32.8924 35.8763 33.8871 35.8763 37.8655 35.8763 38.8602 35.8763 38.8602 37.8655 37.8655 37.8655 33.8871 37.8655ZM34.8817 33.8871 36.8709 33.8871 36.8709 18.9677 34.8817 18.9677 34.8817 33.8871ZM38.8602 41.844 38.8602 39.8548 39.8548 39.8548C40.4048 39.8548 40.8494 39.4092 40.8494 38.8602L40.8494 34.8817C40.8494 34.3326 40.4048 33.8871 39.8548 33.8871L38.8602 33.8871 38.8602 17.9731C38.8602 17.4241 38.4156 16.9785 37.8655 16.9785L33.8871 16.9785C33.337 16.9785 32.8924 17.4241 32.8924 17.9731L32.8924 33.8871 31.8978 33.8871C31.3478 33.8871 30.9032 34.3326 30.9032 34.8817L30.9032 38.8602C30.9032 39.4092 31.3478 39.8548 31.8978 39.8548L32.8924 39.8548 32.8924 50.7956 34.8817 50.7956 34.8817 39.8548 36.8709 39.8548 36.8709 41.844 38.8602 41.844ZM18.9677 27.9193 19.9624 27.9193 23.9408 27.9193 24.9355 27.9193 24.9355 29.9086 23.9408 29.9086 19.9624 29.9086 18.9677 29.9086 18.9677 27.9193ZM20.957 25.9301 22.9462 25.9301 22.9462 18.9677 20.957 18.9677 20.957 25.9301ZM20.957 48.8064 22.9462 48.8064 22.9462 31.8978 20.957 31.8978 20.957 48.8064ZM19.9624 50.7956 23.9408 50.7956C24.4909 50.7956 24.9355 50.35 24.9355 49.801L24.9355 31.8978 25.9301 31.8978C26.4801 31.8978 26.9247 31.4522 26.9247 30.9032L26.9247 26.9247C26.9247 26.3757 26.4801 25.9301 25.9301 25.9301L24.9355 25.9301 24.9355 17.9731C24.9355 17.4241 24.4909 16.9785 23.9408 16.9785L19.9624 16.9785C19.4123 16.9785 18.9677 17.4241 18.9677 17.9731L18.9677 25.9301 17.9731 25.9301C17.4231 25.9301 16.9785 26.3757 16.9785 26.9247L16.9785 30.9032C16.9785 31.4522 17.4231 31.8978 17.9731 31.8978L18.9677 31.8978 18.9677 49.801C18.9677 50.35 19.4123 50.7956 19.9624 50.7956L19.9624 50.7956Z" id="AWS-Config_Icon_64_Squid" fill="#FFFFFF"/></g></svg>