<svg width="48" height="48" viewBox="0 0 48 48" xmlns="http://www.w3.org/2000/svg" xmlns:xlink="http://www.w3.org/1999/xlink" overflow="hidden"><g id="Icon-Resource/Database/Res_Amazon-DynamoDB_Standard-Infrequent-Access-Table-Class_48" stroke="none" stroke-width="1" fill="none" fill-rule="evenodd"><path d="M12.714 35.707 9.714 38.707C9.519 38.902 9.263 39 9.007 39 8.751 39 8.495 38.902 8.3 38.707L5.3 35.707 6.714 34.293 8.007 35.586 8.007 26.414 6.714 27.707 5.3 26.293 8.3 23.293C8.691 22.902 9.323 22.902 9.714 23.293L12.714 26.293 11.3 27.707 10.007 26.414 10.007 35.586 11.3 34.293 12.714 35.707ZM23.602 4C32.091 4 38.007 6.442 38.007 8.635 38.007 10.827 32.091 13.27 23.602 13.27 15.204 13.27 10.007 10.864 10.007 8.635 10.007 6.406 15.204 4 23.602 4L23.602 4ZM10.007 20.143 10.007 12.126C12.559 14.085 17.396 15.27 23.602 15.27 29.318 15.27 35.071 14.145 38.007 11.974L38.007 17.5 40.007 17.5 40.007 8.635C40.007 4.279 31.754 2 23.602 2 14.274 2 8.007 4.666 8.007 8.635L8.007 20.143C8.664 19.974 9.35 19.974 10.007 20.143L10.007 20.143ZM23.602 40C26.739 40 29.521 39.665 31.787 39.134L31.396 41.033C31.38 41.11 31.379 41.187 31.369 41.264 28.964 41.749 26.281 42 23.602 42 19.425 42 15.741 41.448 12.948 40.404 12.777 40.34 12.626 40.268 12.463 40.2L14.01 38.653C16.516 39.52 19.895 40 23.602 40L23.602 40ZM35.253 40.265 37.324 30.202C37.385 29.907 37.31 29.601 37.12 29.368 36.93 29.135 36.646 29 36.345 29L32.875 29 36.875 21 42.49 21 38.6 27.485C38.414 27.794 38.409 28.179 38.587 28.493 38.765 28.806 39.097 29 39.457 29L42.873 29 35.253 40.265ZM45.64 27.531C45.467 27.204 45.127 27 44.757 27L41.224 27 45.114 20.515C45.3 20.206 45.305 19.821 45.127 19.507 44.949 19.194 44.617 19 44.257 19L36.257 19C35.878 19 35.532 19.214 35.362 19.553L30.362 29.553C30.207 29.863 30.224 30.231 30.406 30.526 30.589 30.821 30.91 31 31.257 31L35.118 31 32.277 44.798C32.181 45.266 32.429 45.736 32.868 45.921 32.994 45.975 33.126 46 33.257 46 33.58 46 33.895 45.842 34.085 45.561L45.585 28.561C45.792 28.254 45.814 27.858 45.64 27.531L45.64 27.531Z" id="Fill-1" fill="#C925D1"/></g></svg>