<svg width="48" height="48" viewBox="0 0 48 48" xmlns="http://www.w3.org/2000/svg" xmlns:xlink="http://www.w3.org/1999/xlink" overflow="hidden"><g id="Icon-Resource/Database/Res_Amazon-DynamoDB_Item_48" stroke="none" stroke-width="1" fill="none" fill-rule="evenodd"><path d="M30.1807 12.5992C30.1807 9.7832 32.4727 7.4912 35.2897 7.4912 38.1067 7.4912 40.3987 9.7832 40.3987 12.5992 40.3987 15.4162 38.1067 17.7082 35.2897 17.7082 32.4727 17.7082 30.1807 15.4162 30.1807 12.5992L30.1807 12.5992ZM28.1807 12.5992C28.1807 16.5192 31.3697 19.7082 35.2897 19.7082 39.2097 19.7082 42.3987 16.5192 42.3987 12.5992 42.3987 8.6792 39.2097 5.4912 35.2897 5.4912 31.3697 5.4912 28.1807 8.6792 28.1807 12.5992L28.1807 12.5992ZM4.0007 43.8892 21.1997 43.8892 21.1997 26.6902 4.0007 26.6902 4.0007 43.8892ZM2.0007 45.8892 23.1997 45.8892 23.1997 24.6902 2.0007 24.6902 2.0007 45.8892ZM26.6907 43.8892 43.8897 43.8892 43.8897 26.6902 26.6907 26.6902 26.6907 43.8892ZM24.6907 45.8892 45.8897 45.8892 45.8897 24.6902 24.6907 24.6902 24.6907 45.8892ZM3.9997 21.1982 21.1987 21.1982 21.1987 3.9992 3.9997 3.9992 3.9997 21.1982ZM1.9997 23.1992 23.1987 23.1992 23.1987 2.0002 1.9997 2.0002 1.9997 23.1992ZM26.6907 21.1992 43.8897 21.1992 43.8897 4.0002 26.6907 4.0002 26.6907 21.1992ZM24.6907 23.1982 45.8897 23.1982 45.8897 1.9992 24.6907 1.9992 24.6907 23.1982Z" id="Amazon-DATABASE_Amazon-DynamoDB_Item_Resource-Icon_light-bg" fill="#C925D1"/></g></svg>