<svg width="48" height="48" viewBox="0 0 48 48" xmlns="http://www.w3.org/2000/svg" xmlns:xlink="http://www.w3.org/1999/xlink" overflow="hidden"><g id="Icon-Resource/Networking-and-Content-Delivery/Res_AWS-Cloud-Map_Service_48" stroke="none" stroke-width="1" fill="none" fill-rule="evenodd"><path d="M4 33 4 5 24 5 24 7 7 7 7 33 4 33ZM40.943 34.14 40.943 36.14C42.019 36.14 44.126 37.201 44.126 39.656 44.126 43.842 40.29 43.996 39.856 44L21.628 44C18.314 44 16 42.27 16 39.793L16 39.48C16 37.058 18.644 35.994 20.267 35.569 20.3 35.563 20.334 35.555 20.368 35.545 20.834 35.404 21.131 34.95 21.073 34.467 21.055 34.315 21.065 34.134 21.071 33.96 21.075 33.841 21.079 33.725 21.079 33.617 21.079 31.555 22.695 28.563 24.858 27.646 27.279 26.623 29.303 27.379 30.573 28.191L31.651 26.506C29.28 24.99 26.593 24.741 24.078 25.805 21.368 26.953 19.079 30.531 19.079 33.617L19.074 33.833C16.969 34.507 15.468 35.606 14.667 37L9 37 9 9 29 9 29 22 31 22 31 7 26 7 26 3 2 3 2 35 7 35 7 39 14.043 39C14.029 39.16 14 39.315 14 39.48L14 39.793C14 43.39 17.208 46 21.628 46L39.856 46C42.025 46 46.126 44.674 46.126 39.656 46.126 36.057 43.116 34.14 40.943 34.14L40.943 34.14ZM37.944 24C39.593 24 40.79 25.197 40.79 26.847 40.79 27.918 39.315 30.611 37.944 32.742 36.572 30.611 35.098 27.919 35.098 26.847 35.098 25.197 36.295 24 37.944 24L37.944 24ZM37.944 35.539C38.271 35.539 38.577 35.38 38.764 35.112 39.437 34.149 42.79 29.23 42.79 26.847 42.79 24.084 40.707 22 37.944 22 35.182 22 33.098 24.084 33.098 26.847 33.098 29.23 36.452 34.15 37.125 35.112 37.312 35.38 37.618 35.539 37.944 35.539L37.944 35.539Z" id="AWS-Cloud-Map-Service_Resource-Icon_light-bg" fill="#8C4FFF"/></g></svg>