<svg width="80" height="80" viewBox="0 0 80 80" xmlns="http://www.w3.org/2000/svg" xmlns:xlink="http://www.w3.org/1999/xlink" overflow="hidden"><g id="Icon-Architecture/64/Arch_AWS-Database-Migration-Service_64" stroke="none" stroke-width="1" fill="none" fill-rule="evenodd"><g id="Icon-Architecture-BG/64/Database" fill="#C925D1"><rect x="0" y="0" width="80" height="80" id="Rectangle"/></g><path d="M44 67 46 67 46 60 44 60 44 67ZM35 66.86 37 66.86 37 60 35 60 35 66.86ZM53 65 55 65 55 59 53 59 53 65ZM26 65 28 65 28 59 26 59 26 65ZM40 35C32.489 35 28 32.966 28 31L28 23.359C30.32 25.022 34.533 26 40 26 44.983 26 50.225 25.106 53 23.2L53 31C53 32.932 47.777 35 40 35L40 35ZM40 45C32.489 45 28 42.966 28 41L28 34.359C30.32 36.022 34.533 37 40 37 44.983 37 50.225 36.106 53 34.2L53 41C53 42.932 47.777 45 40 45L40 45ZM40 55C32.206 55 28 52.939 28 51L28 44.359C30.32 46.022 34.533 47 40 47 44.983 47 50.225 46.106 53 44.2L53 51C53 52.932 47.777 55 40 55L40 55ZM40 16C47.661 16 53 18.108 53 20 53 21.892 47.661 24 40 24 32.489 24 28 21.966 28 20 28 18.034 32.489 16 40 16L40 16ZM40 14C31.495 14 26 16.355 26 20L26 51C26 54.645 31.495 57 40 57 47.225 57 55 55.123 55 51L55 20C55 15.877 47.225 14 40 14L40 14Z" id="AWS-Database-Migration-Service_Icon_64_Squid" fill="#FFFFFF"/></g></svg>