<svg width="48" height="48" viewBox="0 0 48 48" xmlns="http://www.w3.org/2000/svg" xmlns:xlink="http://www.w3.org/1999/xlink" overflow="hidden"><g id="Icon-Resource/Application-Integration/Res_Amazon-MQ_Broker_48" stroke="none" stroke-width="1" fill="none" fill-rule="evenodd"><path d="M7.078 33.7549C6.463 32.7049 5.947 31.5899 5.544 30.4419L7.431 29.7789C7.792 30.8069 8.254 31.8039 8.805 32.7439L7.078 33.7549ZM7.114 19.4419 5.19 18.8969C5.62 17.3799 6.238 15.9179 7.029 14.5509L8.76 15.5519C8.053 16.7759 7.499 18.0839 7.114 19.4419L7.114 19.4419ZM16.586 8.48487 15.767 6.66087C20.696 4.44688 26.476 4.44588 31.409 6.66087L30.591 8.48487C26.175 6.50388 20.996 6.50488 16.586 8.48487L16.586 8.48487ZM38.417 15.5519 40.147 14.5509C40.939 15.9189 41.557 17.3809 41.985 18.8969L40.061 19.4409C39.678 18.0849 39.125 16.7759 38.417 15.5519L38.417 15.5519ZM39.745 29.7789 41.632 30.4419C41.241 31.5559 40.741 32.6419 40.148 33.6699L38.416 32.6689C38.948 31.7489 39.394 30.7769 39.745 29.7789L39.745 29.7789ZM30.591 39.7349 31.409 41.5599C28.943 42.6669 26.311 43.2279 23.588 43.2279 20.863 43.2279 18.232 42.6669 15.767 41.5599L16.586 39.7349C20.997 41.7159 26.176 41.7159 30.591 39.7349L30.591 39.7349ZM11.5 40.1099C10.121 40.1099 9 38.9889 9 37.6099 9 36.2319 10.121 35.1099 11.5 35.1099 12.879 35.1099 14 36.2319 14 37.6099 14 38.9889 12.879 40.1099 11.5 40.1099L11.5 40.1099ZM11.5 33.1099C9.018 33.1099 7 35.1289 7 37.6099 7 40.0919 9.018 42.1099 11.5 42.1099 13.981 42.1099 16 40.0919 16 37.6099 16 35.1289 13.981 33.1099 11.5 33.1099L11.5 33.1099ZM35.5 40.1099C34.121 40.1099 33 38.9889 33 37.6099 33 36.2319 34.121 35.1099 35.5 35.1099 36.879 35.1099 38 36.2319 38 37.6099 38 38.9889 36.879 40.1099 35.5 40.1099L35.5 40.1099ZM35.5 33.1099C33.018 33.1099 31 35.1289 31 37.6099 31 40.0919 33.018 42.1099 35.5 42.1099 37.981 42.1099 40 40.0919 40 37.6099 40 35.1289 37.981 33.1099 35.5 33.1099L35.5 33.1099ZM4 24.6099C4 23.2319 5.121 22.1099 6.5 22.1099 7.879 22.1099 9 23.2319 9 24.6099 9 25.9889 7.879 27.1099 6.5 27.1099 5.121 27.1099 4 25.9889 4 24.6099L4 24.6099ZM10.949 25.1099 14.136 25.1099 13.169 26.5539 14.831 27.6669 16.831 24.6809C17.056 24.3449 17.057 23.9069 16.833 23.5709L14.833 20.5579 13.167 21.6629 14.127 23.1099 10.724 23.1099C10.102 21.3679 8.453 20.1099 6.5 20.1099 4.018 20.1099 2 22.1289 2 24.6099 2 27.0919 4.018 29.1099 6.5 29.1099 8.81 29.1099 10.697 27.3539 10.949 25.1099L10.949 25.1099ZM41.5 27.1099C40.121 27.1099 39 25.9889 39 24.6099 39 23.2319 40.121 22.1099 41.5 22.1099 42.879 22.1099 44 23.2319 44 24.6099 44 25.9889 42.879 27.1099 41.5 27.1099L41.5 27.1099ZM41.5 20.1099C39.018 20.1099 37 22.1289 37 24.6099 37 27.0919 39.018 29.1099 41.5 29.1099 43.981 29.1099 46 27.0919 46 24.6099 46 22.1289 43.981 20.1099 41.5 20.1099L41.5 20.1099ZM11.5 8.10987C12.879 8.10987 14 9.23188 14 10.6099 14 11.9889 12.879 13.1099 11.5 13.1099 10.121 13.1099 9 11.9889 9 10.6099 9 9.23188 10.121 8.10987 11.5 8.10987L11.5 8.10987ZM11.5 15.1099C13.981 15.1099 16 13.0919 16 10.6099 16 8.12887 13.981 6.10988 11.5 6.10988 9.018 6.10988 7 8.12887 7 10.6099 7 13.0919 9.018 15.1099 11.5 15.1099L11.5 15.1099ZM35.5 8.10987C36.879 8.10987 38 9.23188 38 10.6099 38 11.9889 36.879 13.1099 35.5 13.1099 34.121 13.1099 33 11.9889 33 10.6099 33 9.23188 34.121 8.10987 35.5 8.10987L35.5 8.10987ZM35.5 15.1099C37.981 15.1099 40 13.0919 40 10.6099 40 8.12887 37.981 6.10988 35.5 6.10988 33.018 6.10988 31 8.12887 31 10.6099 31 13.0919 33.018 15.1099 35.5 15.1099L35.5 15.1099ZM32.168 26.5559 33.131 25.1109 31 25.1109 31 23.1109 33.132 23.1109 32.168 21.6649 33.832 20.5559 35.832 23.5549C36.056 23.8909 36.056 24.3279 35.832 24.6639L33.832 27.6649 32.168 26.5559ZM28.191 28.3149C26.881 27.8739 25.441 27.6529 24.002 27.6529 22.562 27.6529 21.123 27.8739 19.812 28.3149 20.248 27.0409 20.48 25.6129 20.48 24.1099 20.48 22.6089 20.248 21.1799 19.812 19.9059 22.433 20.7889 25.57 20.7889 28.191 19.9059 27.756 21.1799 27.523 22.6089 27.523 24.1099 27.523 25.6129 27.756 27.0409 28.191 28.3149L28.191 28.3149ZM31.716 17.8109C31.911 17.6159 32.009 17.3599 32.009 17.1039 32.009 16.8479 31.911 16.5919 31.716 16.3969 31.325 16.0059 30.692 16.0059 30.302 16.3969 27.358 19.3399 20.645 19.3399 17.702 16.3969 17.311 16.0059 16.679 16.0059 16.288 16.3969 16.093 16.5919 15.995 16.8479 15.995 17.1039 15.995 17.3599 16.093 17.6159 16.288 17.8109 17.661 19.1839 18.48 21.5389 18.48 24.1099 18.48 26.6819 17.661 29.0369 16.288 30.4099 16.093 30.6059 15.995 30.8609 15.995 31.1169 15.995 31.3729 16.093 31.6289 16.288 31.8239 16.679 32.2149 17.311 32.2149 17.702 31.8239 20.645 28.8809 27.358 28.8809 30.302 31.8239 30.497 32.0199 30.753 32.1169 31.009 32.1169 31.265 32.1169 31.52 32.0199 31.716 31.8239 31.911 31.6289 32.009 31.3729 32.009 31.1169 32.009 30.8609 31.911 30.6059 31.716 30.4099 30.343 29.0369 29.523 26.6819 29.523 24.1099 29.523 21.5389 30.343 19.1839 31.716 17.8109L31.716 17.8109Z" id="Fill-1" fill="#E7157B"/></g></svg>