<svg width="48" height="48" viewBox="0 0 48 48" xmlns="http://www.w3.org/2000/svg" xmlns:xlink="http://www.w3.org/1999/xlink" overflow="hidden"><g id="Icon-Resource/Management-Governance/Res_AWS-Systems-Manager_Change-Manager_48" stroke="none" stroke-width="1" fill="none" fill-rule="evenodd"><path d="M43.938 26.489C42.505 36.503 33.725 44.347 23.948 44.347 15.345 44.347 7.52 38.273 4.787 29.992L3.896 32.664 2 32.031 4 26.031C4.102 25.721 4.351 25.481 4.665 25.388 4.979 25.297 5.318 25.363 5.573 25.567L10.573 29.567 9.323 31.128 6.554 28.913C8.878 36.629 16.045 42.347 23.948 42.347 32.752 42.347 40.664 35.257 41.958 26.206L43.938 26.489ZM5.938 22.489 3.958 22.206C5.418 11.997 14.199 4 23.948 4 32.543 4 40.377 10.218 43.115 18.686L44 16.031 45.896 16.664 43.896 22.664C43.793 22.974 43.544 23.214 43.231 23.306 43.138 23.334 43.042 23.347 42.948 23.347 42.723 23.347 42.502 23.272 42.323 23.128L37.323 19.128 38.573 17.567 41.353 19.791C39.029 11.875 31.848 6 23.948 6 15.171 6 7.26 13.243 5.938 22.489L5.938 22.489ZM19.948 30 28.948 30 28.948 28 19.948 28 19.948 30ZM19.948 26 28.948 26 28.948 24 19.948 24 19.948 26ZM19.948 22 28.948 22 28.948 20 19.948 20 19.948 22ZM32.502 30.12 33.657 31.217 31.387 33.373 30.158 32.205C29.84 31.905 29.367 31.845 28.985 32.055 28.268 32.452 27.501 32.755 26.704 32.955 26.259 33.067 25.948 33.467 25.948 33.925L25.948 36 22.948 36 22.948 34.289C22.948 33.841 22.649 33.447 22.216 33.326 21.47 33.118 20.75 32.803 20.075 32.39 19.673 32.145 19.153 32.212 18.827 32.554L17.73 33.709 15.574 31.439 16.742 30.21C17.042 29.894 17.103 29.42 16.892 29.038 16.495 28.319 16.192 27.551 15.993 26.756 15.881 26.312 15.481 26 15.023 26L12.948 26 12.948 23 14.659 23C15.108 23 15.501 22.7 15.623 22.268 15.83 21.522 16.144 20.802 16.557 20.127 16.804 19.724 16.736 19.205 16.393 18.88L15.239 17.782 17.508 15.626 18.738 16.794C19.055 17.095 19.529 17.154 19.911 16.944 20.627 16.547 21.395 16.245 22.191 16.045 22.636 15.933 22.948 15.533 22.948 15.075L22.948 13 25.948 13 25.948 14.71C25.948 15.159 26.247 15.553 26.679 15.674 27.425 15.882 28.146 16.197 28.821 16.61 29.223 16.857 29.744 16.788 30.069 16.446L31.166 15.29 33.322 17.56 32.154 18.79C31.853 19.106 31.792 19.581 32.003 19.963 32.401 20.681 32.703 21.448 32.903 22.243 33.014 22.688 33.415 23 33.873 23L35.948 23 35.948 26 34.237 26C33.788 26 33.394 26.299 33.273 26.732 33.066 27.477 32.751 28.197 32.338 28.873 32.091 29.275 32.16 29.795 32.502 30.12L32.502 30.12ZM36.429 21 34.625 21C34.475 20.541 34.297 20.091 34.091 19.655L35.087 18.606C35.643 18.019 35.643 17.101 35.086 16.515L32.265 13.544C31.979 13.244 31.579 13.073 31.166 13.073L31.164 13.073C30.75 13.073 30.349 13.246 30.064 13.546L29.154 14.505C28.761 14.304 28.359 14.129 27.948 13.981L27.948 12.518C27.948 11.681 27.266 11 26.429 11L22.466 11C21.629 11 20.948 11.681 20.948 12.518L20.948 14.323C20.489 14.472 20.039 14.651 19.602 14.857L18.555 13.862C17.966 13.302 17.047 13.304 16.462 13.861L13.494 16.681C13.193 16.967 13.021 17.368 13.021 17.782 13.021 18.197 13.193 18.598 13.494 18.883L14.453 19.794C14.252 20.186 14.078 20.589 13.929 21L12.466 21C11.629 21 10.948 21.681 10.948 22.518L10.948 26.481C10.948 27.319 11.629 28 12.466 28L14.271 28C14.42 28.459 14.598 28.908 14.804 29.345L13.807 30.395C13.252 30.981 13.252 31.899 13.809 32.485L16.63 35.456C16.917 35.755 17.317 35.927 17.73 35.927L17.732 35.927C18.146 35.926 18.546 35.754 18.832 35.454L19.742 34.495C20.134 34.695 20.537 34.87 20.948 35.019L20.948 36.481C20.948 37.319 21.629 38 22.466 38L26.429 38C27.266 38 27.948 37.319 27.948 36.481L27.948 34.677C28.408 34.527 28.857 34.349 29.293 34.143L30.34 35.138C30.93 35.697 31.849 35.696 32.433 35.138L35.402 32.318C35.703 32.033 35.875 31.632 35.875 31.218 35.875 30.803 35.703 30.402 35.402 30.116L34.443 29.205C34.643 28.813 34.818 28.41 34.966 28L36.429 28C37.266 28 37.948 27.319 37.948 26.481L37.948 22.518C37.948 21.681 37.266 21 36.429 21L36.429 21Z" id="Fill-1" fill="#E7157B"/></g></svg>