<svg width="48" height="48" viewBox="0 0 48 48" xmlns="http://www.w3.org/2000/svg" xmlns:xlink="http://www.w3.org/1999/xlink" overflow="hidden"><g id="Icon-Resource/IoT/Res_AWS-IoT-Analytics_Channel_48" stroke="none" stroke-width="1" fill="none" fill-rule="evenodd"><path d="M29.049 23.522C29.049 20.301 31.669 17.681 34.89 17.681 38.111 17.681 40.731 20.301 40.731 23.522 40.731 26.743 38.111 29.363 34.89 29.363 31.669 29.363 29.049 26.743 29.049 23.522ZM15.368 41.94C15.368 40.751 16.335 39.783 17.525 39.783 18.714 39.783 19.682 40.751 19.682 41.94 19.682 43.13 18.714 44.097 17.525 44.097 16.335 44.097 15.368 43.13 15.368 41.94ZM17.525 4C18.714 4 19.682 4.967 19.682 6.157 19.682 7.346 18.714 8.314 17.525 8.314 16.335 8.314 15.368 7.346 15.368 6.157 15.368 4.967 16.335 4 17.525 4ZM8 34.573C8 33.384 8.968 32.416 10.158 32.416 11.347 32.416 12.315 33.384 12.315 34.573 12.315 35.762 11.347 36.73 10.158 36.73 8.968 36.73 8 35.762 8 34.573ZM10.106 24.049C10.106 22.859 11.074 21.891 12.263 21.891 13.453 21.891 14.42 22.859 14.42 24.049 14.42 25.238 13.453 26.206 12.263 26.206 11.074 26.206 10.106 25.238 10.106 24.049ZM8 13.524C8 12.335 8.968 11.367 10.158 11.367 11.347 11.367 12.315 12.335 12.315 13.524 12.315 14.714 11.347 15.681 10.158 15.681 8.968 15.681 8 14.714 8 13.524ZM30.107 17.324 21.074 8.291C21.452 7.665 21.682 6.94 21.682 6.157 21.682 3.865 19.817 2 17.525 2 15.233 2 13.368 3.865 13.368 6.157 13.368 8.449 15.233 10.314 17.525 10.314 18.308 10.314 19.034 10.084 19.66 9.705L28.693 18.738C28.437 19.068 28.202 19.414 28 19.783L14.277 13.902C14.288 13.775 14.315 13.653 14.315 13.524 14.315 11.232 12.45 9.367 10.158 9.367 7.866 9.367 6 11.232 6 13.524 6 15.816 7.866 17.681 10.158 17.681 11.61 17.681 12.886 16.93 13.629 15.8L27.285 21.651C27.173 22.103 27.102 22.57 27.074 23.049L16.285 23.049C15.834 21.24 14.208 19.891 12.263 19.891 9.971 19.891 8.106 21.757 8.106 24.049 8.106 26.341 9.971 28.206 12.263 28.206 14.208 28.206 15.834 26.857 16.285 25.049L27.201 25.049C27.288 25.488 27.417 25.912 27.575 26.322L13.629 32.298C12.886 31.167 11.61 30.416 10.158 30.416 7.866 30.416 6 32.281 6 34.573 6 36.865 7.866 38.73 10.158 38.73 12.45 38.73 14.315 36.865 14.315 34.573 14.315 34.444 14.288 34.322 14.277 34.195L28.443 28.125 28.247 27.668C28.518 28.1 28.828 28.504 29.176 28.875L19.66 38.392C19.034 38.013 18.308 37.783 17.525 37.783 15.233 37.783 13.368 39.648 13.368 41.94 13.368 44.232 15.233 46.097 17.525 46.097 19.817 46.097 21.682 44.232 21.682 41.94 21.682 41.157 21.452 40.431 21.074 39.806L30.726 30.154C31.934 30.916 33.359 31.363 34.89 31.363 39.213 31.363 42.731 27.845 42.731 23.522 42.731 19.199 39.213 15.681 34.89 15.681 33.088 15.681 31.432 16.299 30.107 17.324Z" id="AWS-IoT-Analytics-Channel_Resource-Icon_light-bg" fill="#7AA116"/></g></svg>