<svg width="80" height="80" viewBox="0 0 80 80" xmlns="http://www.w3.org/2000/svg" xmlns:xlink="http://www.w3.org/1999/xlink" overflow="hidden"><g id="Icon-Architecture/64/Arch_Open-3D-Engine_64" stroke="none" stroke-width="1" fill="none" fill-rule="evenodd"><g id="Icon-Architecture-BG/64/Game-Tech" fill="#8C4FFF"><rect x="0" y="0" width="80" height="80" id="Rectangle"/></g><g id="Icon-Service/64/Open-3D-Engine_64" fill="#FFFFFF" transform="translate(12 12)"><path d="M49.5 42C50.328 42 51 41.328 51 40.5 51 39.672 50.328 39 49.5 39 48.672 39 48 39.672 48 40.5 48 41.328 48.672 42 49.5 42L49.5 42ZM46.5 39C47.328 39 48 38.328 48 37.5 48 36.672 47.328 36 46.5 36 45.672 36 45 36.672 45 37.5 45 38.328 45.672 39 46.5 39L46.5 39ZM28 42 30 42 30 40 32 40 32 38 30 38 30 36 28 36 28 38 26 38 26 40 28 40 28 42ZM54 44.274C52.532 45.941 50.39 47 48 47 46.778 47 45.623 46.716 44.586 46.224 46.25 49.71 48.64 54 51 54 52.288 54 54 53.585 54 50L54 44.274ZM32.414 46.224C31.377 46.716 30.222 47 29 47 26.61 47 24.468 45.941 23 44.274L23.001 50C23.001 50.461 23.001 51.539 23.415 52.47 23.879 53.514 24.7 54 26 54 28.36 54 30.75 49.71 32.414 46.224L32.414 46.224ZM23 39C23 42.308 25.691 45 29 45 32.309 45 35 42.308 35 39 35 35.691 32.309 33 29 33 25.691 33 23 35.691 23 39L23 39ZM40 39C40 37.108 40.663 35.371 41.765 34L35.235 34C36.337 35.371 37 37.108 37 39 37 40.061 36.788 41.072 36.411 42L40.589 42C40.212 41.072 40 40.061 40 39L40 39ZM48 33C44.691 33 42 35.691 42 39 42 42.308 44.691 45 48 45 51.302 45 53.988 42.319 53.999 39.019L53.999 39 54 39C54 35.691 51.309 33 48 33L48 33ZM56 39C56 39.006 55.999 39.013 55.999 39.019L56 50C56 55.415 52.503 56 51 56 46.804 56 43.753 49.272 41.734 44.82 41.604 44.534 41.48 44.259 41.361 44L35.639 44C35.52 44.259 35.396 44.534 35.266 44.82 33.247 49.272 30.196 56 26 56 23.352 56 22.138 54.522 21.587 53.282 21.001 51.963 21.001 50.537 21.001 50L21 39C21 34.589 24.589 31 29 31 30.401 31 31.718 31.364 32.864 32L44.136 32C45.282 31.364 46.599 31 48 31 52.411 31 56 34.589 56 39L56 39ZM27.673 13.763C34.863 13.763 40.713 19.612 40.713 26.802L42.713 26.802C42.713 18.51 35.966 11.763 27.673 11.763 19.38 11.763 12.634 18.51 12.634 26.802 12.634 30.983 14.31 34.868 17.352 37.74L18.725 36.286C16.087 33.795 14.634 30.427 14.634 26.802 14.634 19.612 20.483 13.763 27.673 13.763L27.673 13.763ZM56 22.475 56 30 54 30 54 23.529 50.207 23.727C49.694 23.754 49.286 23.425 49.179 22.95 48.629 20.523 47.677 18.225 46.347 16.12 46.086 15.706 46.162 15.165 46.526 14.84L49.064 12.575 43.028 6.539 40.757 9.085C40.432 9.449 39.888 9.525 39.478 9.265 37.371 7.936 35.076 6.985 32.654 6.436 32.178 6.329 31.849 5.892 31.877 5.405L32.07 2 23.534 2 23.728 5.402C23.756 5.89 23.427 6.327 22.949 6.434 20.525 6.981 18.229 7.932 16.122 9.26 15.711 9.52 15.167 9.445 14.843 9.08L12.575 6.539 6.539 12.575 9.082 14.844C9.446 15.17 9.522 15.711 9.262 16.124 7.93 18.232 6.976 20.529 6.428 22.95 6.319 23.427 5.84 23.748 5.396 23.727L2 23.534 2 32.07 5.387 31.876C5.84 31.845 6.311 32.178 6.419 32.655 6.966 35.084 7.917 37.385 9.248 39.494 9.509 39.908 9.433 40.449 9.068 40.774L6.54 43.029 12.605 49.096 16.282 45.304 17.718 46.696 13.334 51.217C13.147 51.41 12.892 51.519 12.624 51.521L12.616 51.521C12.351 51.521 12.097 51.415 11.909 51.228L4.377 43.695C4.183 43.5 4.076 43.234 4.084 42.959 4.092 42.684 4.213 42.425 4.418 42.242L7.116 39.835C6.035 37.978 5.215 35.996 4.669 33.921L1.057 34.127C0.786 34.143 0.513 34.044 0.313 33.856 0.113 33.667 0 33.404 0 33.129L0 22.475C0 22.2 0.113 21.937 0.313 21.748 0.513 21.559 0.785 21.463 1.057 21.476L4.68 21.683C5.227 19.615 6.048 17.637 7.13 15.783L4.418 13.363C4.213 13.18 4.092 12.92 4.084 12.645 4.076 12.37 4.183 12.104 4.377 11.91L11.909 4.377C12.104 4.182 12.362 4.072 12.645 4.084 12.92 4.092 13.179 4.213 13.362 4.418L15.781 7.128C17.635 6.049 19.613 5.23 21.684 4.685L21.478 1.057C21.462 0.782 21.56 0.513 21.749 0.313 21.938 0.113 22.2 0 22.476 0L33.129 0C33.404 0 33.667 0.113 33.855 0.313 34.045 0.513 34.143 0.782 34.127 1.057L33.921 4.688C35.989 5.234 37.966 6.054 39.818 7.133L42.241 4.418C42.425 4.213 42.684 4.092 42.959 4.084 43.23 4.07 43.5 4.182 43.694 4.377L51.228 11.91C51.422 12.104 51.528 12.37 51.521 12.645 51.513 12.92 51.392 13.18 51.187 13.363L48.479 15.778C49.56 17.632 50.381 19.613 50.929 21.687L54.947 21.476C55.212 21.457 55.489 21.56 55.688 21.749 55.888 21.938 56 22.201 56 22.475L56 22.475Z" id="Fill-4"/></g></g></svg>