<svg width="48" height="48" viewBox="0 0 48 48" xmlns="http://www.w3.org/2000/svg" xmlns:xlink="http://www.w3.org/1999/xlink" overflow="hidden"><g id="Icon-Resource/Database/Res_Amazon-DynamoDB_Global-secondary-index_48" stroke="none" stroke-width="1" fill="none" fill-rule="evenodd"><path d="M22.901 11.836 45.8 11.836 45.8 2 22.901 2 22.901 11.836ZM24.9 9.836 43.799 9.836 43.799 3.999 24.9 3.999 24.9 9.836ZM12.45 11.836 21.417 11.836 21.417 2 12.45 2 12.45 11.836ZM14.451 9.836 19.417 9.836 19.417 3.999 14.451 3.999 14.451 9.836ZM2 11.836 10.967 11.836 10.967 2 2 2 2 11.836ZM4 9.836 8.967 9.836 8.967 3.999 4 3.999 4 9.836ZM22.901 23.158 45.8 23.158 45.8 13.32 22.901 13.32 22.901 23.158ZM24.9 21.157 43.799 21.157 43.799 15.32 24.9 15.32 24.9 21.157ZM12.45 23.158 21.417 23.158 21.417 13.32 12.45 13.32 12.45 23.158ZM14.451 21.157 19.417 21.157 19.417 15.32 14.451 15.32 14.451 21.157ZM2 23.158 10.967 23.158 10.967 13.32 2 13.32 2 23.158ZM4 21.157 8.967 21.157 8.967 15.32 4 15.32 4 21.157ZM22.901 34.478 45.8 34.478 45.8 24.641 22.901 24.641 22.901 34.478ZM24.9 32.478 43.799 32.478 43.799 26.641 24.9 26.641 24.9 32.478ZM12.45 34.478 21.417 34.478 21.417 24.641 12.45 24.641 12.45 34.478ZM14.451 32.478 19.417 32.478 19.417 26.641 14.451 26.641 14.451 32.478ZM2 34.478 10.967 34.478 10.967 24.641 2 24.641 2 34.478ZM4 32.478 8.967 32.478 8.967 26.641 4 26.641 4 32.478ZM22.901 45.799 45.8 45.799 45.8 35.961 22.901 35.961 22.901 45.799ZM24.9 43.799 43.799 43.799 43.799 37.961 24.9 37.961 24.9 43.799ZM12.45 45.799 21.417 45.799 21.417 35.961 12.45 35.961 12.45 45.799ZM14.451 43.799 19.417 43.799 19.417 37.961 14.451 37.961 14.451 43.799ZM2 45.799 10.967 45.799 10.967 35.961 2 35.961 2 45.799ZM4 43.799 8.967 43.799 8.967 37.961 4 37.961 4 43.799Z" id="Amazon-DATABASE_Amazon-DynamoDB_Global-Secondary-Index_Resource-Icon_light-bg" fill="#C925D1"/></g></svg>