<svg width="80" height="80" viewBox="0 0 80 80" xmlns="http://www.w3.org/2000/svg" xmlns:xlink="http://www.w3.org/1999/xlink" overflow="hidden"><g id="Icon-Architecture/64/Arch_AWS-IQ_64" stroke="none" stroke-width="1" fill="none" fill-rule="evenodd"><g id="Icon-Architecture-BG/64/Customer-Enablement" fill="#C925D1"><rect x="0" y="0" width="80" height="80" id="Rectangle"/></g><g id="Icon-Service/64/AWS-IQ_64" fill="#FFFFFF" transform="translate(12 12)"><path d="M14.018 15C17.602 15 20.517 12.084 20.517 8.5 20.517 4.916 17.602 2 14.018 2 10.433 2 7.517 4.916 7.517 8.5 7.517 12.084 10.433 15 14.018 15L14.018 15ZM2.129 30.007 0.129 29.99C0.13 29.863 0.346 18.834 9.643 15.774 7.176 14.285 5.517 11.586 5.517 8.5 5.517 3.813 9.331 0 14.018 0 18.705 0 22.517 3.813 22.517 8.5 22.517 11.535 20.914 14.196 18.514 15.7 19.844 16.137 21.344 16.842 22.799 17.989L21.561 19.56C18.159 16.878 14.368 17 14.331 17.002 9.311 17.155 5.745 19.37 3.718 23.583 2.174 26.794 2.129 29.975 2.129 30.007L2.129 30.007ZM53.976 48C53.662 41.676 50.399 35.71 45.484 32.597 42.802 30.898 39.725 30 36.585 30 32.751 30 29.03 31.366 26 33.834L26 48 53.976 48ZM13 54 23 48.009 23 48 23.016 48 24 47.426 24 34.574 13 28 2 34.574 2 47.426 13 54ZM36.501 27.968C41.739 27.968 46 23.707 46 18.468 46 13.23 41.739 8.968 36.501 8.968 31.262 8.968 27 13.23 27 18.468 27 23.707 31.262 27.968 36.501 27.968L36.501 27.968ZM56 50 23.556 50 13 56 0 48.574 0 33.426 13 26 24.45 32.521C26.509 30.775 28.871 29.494 31.39 28.755 27.61 26.869 25 22.972 25 18.468 25 12.127 30.16 6.968 36.501 6.968 42.842 6.968 48 12.127 48 18.468 48 22.944 45.425 26.821 41.684 28.72 43.389 29.209 45.029 29.941 46.554 30.907 52.292 34.542 56 41.644 56 49L56 50ZM21.791 37.918 12.074 45.923 5.822 41.333 7.005 39.721 12.003 43.39 20.52 36.375 21.791 37.918Z" id="AWS-IQ_64_Squid"/></g></g></svg>