<svg width="80" height="80" viewBox="0 0 80 80" xmlns="http://www.w3.org/2000/svg" xmlns:xlink="http://www.w3.org/1999/xlink" overflow="hidden"><g id="Icon-Architecture/64/Arch_Amazon-Elastic-Kubernetes-Service_64" stroke="none" stroke-width="1" fill="none" fill-rule="evenodd"><g id="Icon-Architecture-BG/64/Compute" fill="#ED7100"><rect x="0" y="0" width="80" height="80" id="Rectangle"/></g><path d="M46.842 32.199 40.013 40.12 47.441 48.784 44.669 48.784 38 41 38 49 36 49 36 32 38 32 38 39 44.181 32.199 46.842 32.199ZM64 48.234 56 43.433 56 32C56 31.644 55.812 31.315 55.504 31.136L44 24.426 44 14.752 64 26.571 64 48.234ZM65.509 25.139 43.509 12.139C43.199 11.956 42.818 11.954 42.504 12.131 42.193 12.309 42 12.641 42 13L42 25C42 25.355 42.189 25.684 42.496 25.864L54 32.574 54 44C54 44.351 54.185 44.677 54.486 44.857L64.486 50.857C64.644 50.952 64.822 51 65 51 65.17 51 65.34 50.957 65.493 50.87 65.807 50.693 66 50.36 66 50L66 26C66 25.646 65.814 25.319 65.509 25.139L65.509 25.139ZM40.445 66.863 17 54.399 17 26.571 37 14.752 37 24.451 26.463 31.156C26.175 31.34 26 31.658 26 32L26 49C26 49.373 26.208 49.715 26.538 49.887L39.991 56.887C40.28 57.037 40.624 57.038 40.912 56.888L53.964 50.144 61.996 54.964 40.445 66.863ZM64.515 54.142 54.515 48.142C54.217 47.964 53.849 47.952 53.541 48.112L40.455 54.873 28 48.393 28 32.549 38.537 25.844C38.825 25.66 39 25.342 39 25L39 13C39 12.641 38.808 12.309 38.496 12.131 38.184 11.954 37.802 11.956 37.491 12.139L15.491 25.139C15.187 25.319 15 25.646 15 26L15 55C15 55.369 15.204 55.709 15.53 55.883L39.984 68.883C40.131 68.961 40.292 69 40.453 69 40.62 69 40.786 68.958 40.937 68.875L64.484 55.875C64.797 55.702 64.993 55.375 65.0001 55.018 65.006 54.66 64.821 54.326 64.515 54.142L64.515 54.142Z" id="Amazon-Elastic-Kubernetes-Service_Icon_64_Squid" fill="#FFFFFF"/></g></svg>