<svg width="80" height="80" viewBox="0 0 80 80" xmlns="http://www.w3.org/2000/svg" xmlns:xlink="http://www.w3.org/1999/xlink" overflow="hidden"><g id="Icon-Architecture/64/Arch_Amazon-Simple-Queue-Service_64" stroke="none" stroke-width="1" fill="none" fill-rule="evenodd"><g id="Icon-Architecture-BG/64/Application-Integration" fill="#E7157B"><rect x="0" y="0" width="80" height="80" id="Rectangle"/></g><path d="M28.717 43.6877 31.7189 40.7218C31.907 40.5359 32.0131 40.2834 32.0141 40.0199 32.0151 39.7564 31.91 39.5029 31.7229 39.316L28.721 36.3163 27.3021 37.7182 28.5899 39.0057 24.009 39.0057 24.009 40.9943 28.6059 40.9943 27.3061 42.2778 28.717 43.6877ZM51.6277 43.7782 55.6303 40.7934C55.8805 40.6055 56.0296 40.3112 56.0296 39.999 56.0296 39.6858 55.8805 39.3905 55.6293 39.2026L51.6267 36.2218 50.426 37.8126 52.027 39.0057 48.0244 39.0057 48.0244 40.9943 52.026 40.9943 50.425 42.1874 51.6277 43.7782ZM35.2082 40C35.2082 42.1108 34.8429 44.1013 34.1605 45.8333 35.9607 45.1413 37.991 44.7953 40.0193 44.7953 42.0476 44.7953 44.0779 45.1413 45.877 45.8333 45.1956 44.1013 44.8304 42.1108 44.8304 40 44.8304 37.8892 45.1956 35.8997 45.877 34.1667 42.2777 35.5497 37.7608 35.5497 34.1605 34.1667 34.8429 35.8997 35.2082 37.8892 35.2082 40L35.2082 40ZM30.306 49.6512C30.1109 49.4573 30.0128 49.2028 30.0128 48.9483 30.0128 48.6937 30.1109 48.4392 30.306 48.2453 32.1222 46.4408 33.2069 43.3576 33.2069 40 33.2069 36.6424 32.1222 33.5592 30.306 31.7547 30.1109 31.5608 30.0128 31.3063 30.0128 31.0517 30.0128 30.7972 30.1109 30.5427 30.306 30.3488 30.6973 29.9601 31.3297 29.9601 31.7209 30.3488 35.5984 34.2015 44.4401 34.2015 48.3176 30.3488 48.7088 29.9601 49.3413 29.9601 49.7325 30.3488 49.9276 30.5427 50.0257 30.7972 50.0257 31.0517 50.0257 31.3063 49.9276 31.5608 49.7325 31.7547 47.9163 33.5592 46.8316 36.6424 46.8316 40 46.8316 43.3576 47.9163 46.4408 49.7325 48.2453 49.9276 48.4392 50.0257 48.6937 50.0257 48.9483 50.0257 49.2028 49.9276 49.4573 49.7325 49.6512 49.5374 49.8451 49.2812 49.9425 49.0251 49.9425 48.7689 49.9425 48.5127 49.8451 48.3176 49.6512 44.4401 45.7985 35.5984 45.7985 31.7209 49.6512 31.3297 50.0399 30.6973 50.0399 30.306 49.6512L30.306 49.6512ZM66.001 40.005C66.001 39.0783 65.6377 38.2074 64.9783 37.5522 64.2979 36.8751 63.4033 36.538 62.5097 36.538 61.6161 36.538 60.7216 36.8751 60.0411 37.5522 58.6793 38.9043 58.6793 41.1046 60.0411 42.4578 61.402 43.81 63.6154 43.811 64.9783 42.4578 65.6377 41.8026 66.001 40.9316 66.001 40.005L66.001 40.005ZM66.3932 43.8637C65.3225 44.9275 63.9166 45.4594 62.5097 45.4594 61.1028 45.4594 59.6969 44.9275 58.6262 43.8637 56.4838 41.736 56.4838 38.274 58.6262 36.1463 60.7686 34.0166 64.2528 34.0186 66.3932 36.1463 68.5356 38.274 68.5356 41.736 66.3932 43.8637L66.3932 43.8637ZM20.98 40.0278C20.98 39.1012 20.6168 38.2302 19.9574 37.575 19.2979 36.9198 18.4214 36.5589 17.4888 36.5589 16.5572 36.5589 15.6806 36.9198 15.0202 37.575 14.3608 38.2302 13.9985 39.1012 13.9985 40.0278 13.9985 40.9535 14.3608 41.8245 15.0202 42.4807 16.34 43.7901 18.6385 43.7901 19.9574 42.4807 20.6168 41.8245 20.98 40.9535 20.98 40.0278L20.98 40.0278ZM21.3723 43.8865C20.3016 44.9504 18.8957 45.4823 17.4888 45.4823 16.0829 45.4823 14.677 44.9504 13.6053 43.8865 11.4649 41.7588 11.4649 38.2968 13.6053 36.1692 15.7477 34.0415 19.2309 34.0415 21.3723 36.1692 23.5137 38.2968 23.5137 41.7588 21.3723 43.8865L21.3723 43.8865ZM54.8958 54.8561C50.9013 58.8261 45.5888 61.0115 39.9392 61.0115 34.2876 61.0115 28.9762 58.8261 24.9816 54.8561 22.2418 52.1348 20.7339 48.8826 19.9514 46.6346L18.0601 47.2849C18.9117 49.7307 20.5578 53.2732 23.5667 56.262 27.9395 60.6078 33.7532 63 39.9392 63 46.1242 63 51.9379 60.6078 56.3107 56.262 58.8374 53.7535 60.8497 50.5639 61.9794 47.2819L60.0862 46.6376C59.0535 49.6383 57.2103 52.5574 54.8958 54.8561L54.8958 54.8561ZM19.9504 33.3664 18.0611 32.7141C19.2719 29.2502 21.2292 26.0606 23.5727 23.7331 27.9435 19.3912 33.7552 17 39.9392 17 46.1232 17 51.9349 19.3912 56.3047 23.7331 58.7713 26.1839 60.8396 29.457 61.9774 32.7141L60.0882 33.3664C59.0445 30.3836 57.1503 27.3849 54.8898 25.1389 50.8983 21.1719 45.5878 18.9885 39.9392 18.9885 34.2896 18.9885 28.9802 21.1719 24.9876 25.1389 22.8542 27.2597 21.0651 30.1818 19.9504 33.3664L19.9504 33.3664Z" id="AWS-Simple-Queue-Service_Icon_64_Squid" fill="#FFFFFF"/></g></svg>