<svg width="80" height="80" viewBox="0 0 80 80" xmlns="http://www.w3.org/2000/svg" xmlns:xlink="http://www.w3.org/1999/xlink" overflow="hidden"><g id="Icon-Architecture/64/Arch_AWS-Elemental-MediaPackage_64" stroke="none" stroke-width="1" fill="none" fill-rule="evenodd"><g id="Icon-Architecture-BG/64/Media-Services" fill="#ED7100"><rect x="0" y="0" width="80" height="80" id="Rectangle"/></g><path d="M26 48.3818 26 42.6177 31 40.1177 36 42.6177 36 48.3818 31 50.8818 26 48.3818ZM54 42.6177 54 48.3818 49 50.8818 44 48.3818 44 42.6177 49 40.1177 54 42.6177ZM62 51.3828 56 48.3888 56 41.9997C56 41.6207 55.786 41.2747 55.447 41.1057L49.447 38.1057C49.166 37.9647 48.834 37.9647 48.553 38.1057L42.553 41.1057C42.214 41.2747 42 41.6207 42 41.9997L42 48.9998C42 49.3788 42.214 49.7248 42.553 49.8948L48.553 52.8948C48.834 53.0348 49.166 53.0348 49.447 52.8948L54.992 50.1218 60.935 53.0868 41 65.221 41 54.9999 39 54.9999 39 65.221 19.064 53.0858 25 50.1178 30.553 52.8948C30.693 52.9648 30.847 52.9998 31 52.9998 31.153 52.9998 31.307 52.9648 31.447 52.8948L37.447 49.8948C37.786 49.7248 38 49.3788 38 48.9998L38 41.9997C38 41.6207 37.786 41.2747 37.447 41.1057L31.447 38.1057C31.166 37.9647 30.834 37.9647 30.553 38.1057L24.553 41.1057C24.214 41.2747 24 41.6207 24 41.9997L24 48.3818 18 51.3818 18 28.7656 26.485 33.8576 27.515 32.1426 18.986 27.0256 39 15.7134 39 22.3815 33.553 25.1055C33.214 25.2745 33 25.6206 33 25.9996L33 32.9996C33 33.3776 33.213 33.7226 33.55 33.8926L39.55 36.9157C39.833 37.0577 40.167 37.0577 40.45 36.9157L46.45 33.8926C46.787 33.7226 47 33.3776 47 32.9996L47 25.9996C47 25.6206 46.786 25.2745 46.447 25.1055L41 22.3815 41 15.6494 61.003 26.0856 51.463 32.1556 52.537 33.8436 62 27.8216 62 51.3828ZM40 24.1175 45 26.6176 45 32.3836 40 34.9026 35 32.3836 35 26.6176 40 24.1175ZM63.463 25.1125 40.463 13.1124C40.161 12.9564 39.802 12.9634 39.508 13.1294L16.508 26.1296C16.194 26.3066 16 26.6396 16 26.9996L16 52.9998C16 53.3488 16.182 53.6728 16.48 53.8539L39.48 67.854C39.64 67.951 39.82 68 40 68 40.18 68 40.36 67.951 40.52 67.854L63.52 53.8539C63.818 53.6728 64 53.3488 64 52.9998L64 25.9996C64 25.6276 63.793 25.2855 63.463 25.1125L63.463 25.1125Z" id="AWS-Elemental-MediaPackage_Icon_64_Squid" fill="#FFFFFF"/></g></svg>