<svg width="48" height="48" viewBox="0 0 48 48" xmlns="http://www.w3.org/2000/svg" xmlns:xlink="http://www.w3.org/1999/xlink" overflow="hidden"><g id="Icon-Resource/Quantum-Technologies/Res_Amazon-Braket_Tensor-Network_48" stroke="none" stroke-width="1" fill="none" fill-rule="evenodd"><path d="M39.296 31.351C39.574 31.572 39.841 31.794 40.101 32.018 39.842 32.241 39.574 32.463 39.296 32.684 39.301 32.462 39.309 32.239 39.309 32.018 39.309 31.793 39.3 31.573 39.296 31.351L39.296 31.351ZM36.795 37.725C36.477 37.613 36.155 37.495 35.83 37.366 36.022 37.26 36.213 37.159 36.404 37.048 36.596 36.937 36.781 36.822 36.969 36.708 36.916 37.059 36.858 37.397 36.795 37.725L36.795 37.725ZM33.5 44C32.601 44 31.468 42.427 30.672 39.688 31.593 39.373 32.542 38.987 33.498 38.547 34.459 38.99 35.407 39.37 36.329 39.684 35.533 42.425 34.4 44 33.5 44L33.5 44ZM30.031 36.708C30.219 36.822 30.404 36.937 30.596 37.048 30.79 37.161 30.984 37.263 31.18 37.371 30.852 37.5 30.527 37.619 30.206 37.731 30.143 37.401 30.084 37.061 30.031 36.708L30.031 36.708ZM26.9 32.018C27.158 31.794 27.426 31.572 27.704 31.351 27.699 31.574 27.692 31.796 27.692 32.018 27.692 32.239 27.699 32.462 27.704 32.684 27.426 32.463 27.158 32.241 26.9 32.018L26.9 32.018ZM23.123 26.026C23.437 25.483 24.646 25.053 27.081 25.469 27.471 25.535 27.876 25.626 28.288 25.728 28.096 26.697 27.953 27.714 27.854 28.748 26.989 29.36 26.174 29.993 25.436 30.637 25.146 30.335 24.868 30.034 24.619 29.734 23.038 27.828 22.81 26.569 23.123 26.026L23.123 26.026ZM31.179 26.665C30.984 26.772 30.789 26.875 30.596 26.987 30.404 27.098 30.219 27.214 30.031 27.327 30.084 26.975 30.143 26.634 30.206 26.304 30.527 26.416 30.851 26.536 31.179 26.665L31.179 26.665ZM37.309 32.018C37.309 32.768 37.279 33.483 37.235 34.176 36.647 34.567 36.038 34.95 35.404 35.316 34.772 35.682 34.136 36.017 33.504 36.331 32.867 36.016 32.229 35.681 31.596 35.316 30.962 34.95 30.354 34.567 29.765 34.176 29.721 33.483 29.692 32.768 29.692 32.018 29.692 31.267 29.721 30.552 29.765 29.859 30.354 29.468 30.962 29.085 31.596 28.72 32.231 28.353 32.866 28.017 33.5 27.703 34.134 28.017 34.77 28.353 35.404 28.72 36.037 29.085 36.646 29.467 37.234 29.858 37.279 30.567 37.309 31.287 37.309 32.018L37.309 32.018ZM36.794 26.304C36.858 26.638 36.916 26.978 36.968 27.326 36.779 27.213 36.596 27.098 36.404 26.987 36.211 26.875 36.016 26.772 35.821 26.665 36.15 26.536 36.473 26.416 36.794 26.304L36.794 26.304ZM39.919 25.469C42.358 25.053 43.565 25.485 43.877 26.026 44.191 26.569 43.962 27.828 42.381 29.734 42.132 30.034 41.854 30.336 41.564 30.638 40.829 29.995 40.018 29.365 39.155 28.754 39.058 27.698 38.913 26.684 38.724 25.726 39.132 25.624 39.533 25.535 39.919 25.469L39.919 25.469ZM43.009 32.018C43.332 31.682 43.642 31.346 43.92 31.011 46.427 27.988 46.223 26.088 45.609 25.026 44.996 23.965 43.452 22.838 39.582 23.497 39.152 23.571 38.707 23.671 38.254 23.783 38.074 23.163 37.879 22.568 37.656 22.023L35.805 22.778C36 23.257 36.174 23.789 36.334 24.346 35.41 24.661 34.459 25.048 33.5 25.489 32.543 25.049 31.594 24.663 30.672 24.348 31.468 21.608 32.601 20.035 33.5 20.035 33.983 20.035 34.442 20.484 34.741 20.86L36.306 19.613C35.265 18.309 34.205 18.035 33.5 18.035 31.319 18.035 29.724 20.447 28.761 23.787 28.304 23.673 27.853 23.572 27.418 23.497 23.551 22.839 22.004 23.965 21.391 25.026 20.777 26.088 20.573 27.988 23.08 31.011 23.358 31.346 23.667 31.682 23.99 32.017 23.681 32.339 23.384 32.661 23.115 32.982L24.65 34.264C24.891 33.976 25.157 33.687 25.436 33.397 26.174 34.042 26.988 34.675 27.854 35.288 27.953 36.322 28.096 37.338 28.288 38.307 27.876 38.409 27.471 38.5 27.081 38.567 24.644 38.982 23.437 38.551 23.123 38.009 22.827 37.497 23.136 36.67 23.346 36.223L21.535 35.372C20.703 37.144 20.997 38.328 21.391 39.009 21.877 39.851 22.948 40.735 25.302 40.735 25.916 40.735 26.617 40.675 27.418 40.538 27.853 40.464 28.304 40.363 28.762 40.248 29.724 43.588 31.319 46 33.5 46 35.68 46 37.276 43.588 38.238 40.249 38.879 40.407 39.503 40.536 40.097 40.617L40.366 38.635C39.844 38.564 39.287 38.448 38.713 38.304 38.905 37.336 39.047 36.321 39.147 35.288 40.012 34.675 40.826 34.043 41.564 33.398 41.854 33.7 42.132 34.001 42.381 34.302 43.962 36.208 44.191 37.467 43.877 38.009 43.63 38.436 42.99 38.609 42.496 38.678L42.775 40.659C44.467 40.421 45.25 39.63 45.609 39.009 46.223 37.947 46.427 36.047 43.92 33.025 43.642 32.69 43.332 32.353 43.009 32.018L43.009 32.018ZM14 43 16 43 16 41 14 41 14 43ZM7 32 9 32 9 30 7 30 7 32ZM10 20 12 20 12 18 10 18 10 20ZM21 6 23 6 23 4 21 4 21 6ZM4 6 6 6 6 4 4 4 4 6ZM11 29C11 28.448 10.553 28 10 28L9.212 28 11.629 22 13 22C13.553 22 14 21.553 14 21L14 17.255 21.924 8 24 8C24.553 8 25 7.553 25 7L25 3C25 2.448 24.553 2 24 2L20 2C19.447 2 19 2.448 19 3L19 7C19 7.345 19.186 7.634 19.45 7.814L12.442 16 9.774 16 6.654 8 7 8C7.553 8 8 7.553 8 7L8 3C8 2.448 7.553 2 7 2L3 2C2.447 2 2 2.448 2 3L2 7C2 7.553 2.447 8 3 8L4.508 8 8.006 16.972C8.006 16.982 8 16.99 8 17L8 21C8 21.553 8.447 22 9 22L9.473 22 7.055 28 6 28C5.447 28 5 28.448 5 29L5 33C5 33.553 5.447 34 6 34L8.023 34 12.008 39.959C12.008 39.974 12 39.986 12 40L12 44C12 44.553 12.447 45 13 45L17 45C17.553 45 18 44.553 18 44L18 40C18 39.448 17.553 39 17 39L13.774 39 10.378 33.924C10.742 33.775 11 33.419 11 33L11 32 20 32 20 30 11 30 11 29ZM36 6 38 6 38 4 36 4 36 6ZM35.504 16.247 37.77 8 39 8C39.553 8 40 7.553 40 7L40 3C40 2.448 39.553 2 39 2L35 2C34.447 2 34 2.448 34 3L34 7C34 7.553 34.447 8 35 8L35.696 8 33.576 15.717 35.504 16.247Z" id="Fill-1" fill="#ED7100"/></g></svg>