<svg width="80" height="80" viewBox="0 0 80 80" xmlns="http://www.w3.org/2000/svg" xmlns:xlink="http://www.w3.org/1999/xlink" overflow="hidden"><g id="Icon-Architecture/64/Arch_AWS-CloudHSM_64" stroke="none" stroke-width="1" fill="none" fill-rule="evenodd"><g id="Icon-Architecture-BG/64/Security-Identity-Compliance" fill="#DD344C"><rect x="0" y="0" width="80" height="80" id="Rectangle"/></g><path d="M37 38C34.57 38 33 36.43 33 34 33 31.57 34.57 30 37 30 39.43 30 41 31.57 41 34 41 36.43 39.43 38 37 38L37 38ZM52 33 42.924 33C42.501 30.012 40.188 28 37 28 33.468 28 31 30.467 31 34 31 37.533 33.468 40 37 40 40.188 40 42.501 37.988 42.924 35L52 35 52 33ZM27 34C27 39.595 31.393 43.979 37 43.979 41.01 43.979 44.563 41.114 46.052 36.682L47.948 37.318C46.181 42.579 41.884 45.979 37 45.979 30.383 45.979 25 40.605 25 34 25 27.383 30.383 22 37 22 42.239 22 46.332 24.872 47.948 29.682L46.052 30.318C44.703 26.303 41.404 24 37 24 31.486 24 27 28.486 27 34L27 34ZM14 45 17 45 17 40 14 40 14 45ZM14 27 17 27 17 22 14 22 14 27ZM19 46 19 39 19 28 19 21 19 15 56 15 56 42 58 42 58 15C58 13.155 56.968 13 56 13L19 13C18.032 13 17 13.155 17 15L17 20 13 20C12.447 20 12 20.448 12 21L12 28C12 28.552 12.447 29 13 29L17 29 17 38 13 38C12.447 38 12 38.448 12 39L12 46C12 46.552 12.447 47 13 47L17 47 17 53C17 54.551 17.448 55 19 55L40 55 40 53 19 53 19 46ZM66 66 64.414 66 62.707 64.293C62.52 64.105 62.266 64 62 64L60 64 60 63C60 62.735 59.895 62.48 59.707 62.293L58.707 61.293C58.52 61.105 58.266 61 58 61L56 61 56 59C56 58.735 55.895 58.48 55.707 58.293L54.167 56.752C54.105 56.681 54.032 56.617 53.951 56.564 53.666 56.38 53.306 56.354 52.996 56.494 52.213 56.849 51.377 57.029 50.511 57.029 47.194 57.029 44.496 54.331 44.496 51.015 44.496 47.698 47.194 45 50.511 45 53.827 45 56.525 47.698 56.525 51.015 56.525 52.083 56.379 52.949 56.089 53.587 55.917 53.966 55.998 54.413 56.293 54.707L66 64.414 66 66ZM67.707 63.293 58.162 53.748C58.403 52.971 58.525 52.055 58.525 51.015 58.525 46.595 54.93 43 50.511 43 46.092 43 42.496 46.595 42.496 51.015 42.496 55.434 46.092 59.029 50.511 59.029 51.426 59.029 52.315 58.878 53.165 58.58L54 59.414 54 62C54 62.552 54.447 63 55 63L57.586 63 58 63.414 58 65C58 65.552 58.447 66 59 66L61.586 66 63.293 67.707C63.48 67.895 63.734 68 64 68L67 68C67.553 68 68 67.552 68 67L68 64C68 63.735 67.895 63.48 67.707 63.293L67.707 63.293ZM50.511 52.029C49.951 52.029 49.496 51.574 49.496 51.015 49.496 50.455 49.951 50 50.511 50 51.07 50 51.525 50.455 51.525 51.015 51.525 51.574 51.07 52.029 50.511 52.029L50.511 52.029ZM50.511 48C48.849 48 47.496 49.353 47.496 51.015 47.496 52.677 48.849 54.029 50.511 54.029 52.173 54.029 53.525 52.677 53.525 51.015 53.525 49.353 52.173 48 50.511 48L50.511 48Z" id="AWS-CloudHSM_Icon_64_Squid" fill="#FFFFFF"/></g></svg>