<svg width="80" height="80" viewBox="0 0 80 80" xmlns="http://www.w3.org/2000/svg" xmlns:xlink="http://www.w3.org/1999/xlink" overflow="hidden"><g id="Icon-Architecture/64/Arch_Bottlerocket_64" stroke="none" stroke-width="1" fill="none" fill-rule="evenodd"><g id="Icon-Architecture-BG/64/Compute" fill="#ED7100"><rect x="0" y="0" width="80" height="80" id="Rectangle"/></g><g id="Icon-Service/64/Bottlerocket" fill="#FFFFFF" transform="translate(22 12)"><path d="M17.8922 2.01475C17.9472 1.94475 18.0432 1.92875 18.1232 2.03075L28.1982 14.3457C25.8432 13.7928 22.3002 13.1938 18.0012 13.1938 13.8942 13.1938 10.4982 13.7858 8.22818 14.3368L17.8922 2.01475ZM5.86718 17.1238C5.91518 17.1057 10.8862 15.1938 18.0012 15.1938 25.4292 15.1938 30.5962 17.1098 30.6482 17.1287 30.7632 17.1717 30.8822 17.1938 31.0002 17.1938 31.3162 17.1938 31.6212 17.0438 31.8132 16.7768 32.0782 16.4097 32.0622 15.9108 31.7762 15.5608L19.6852 0.78075C18.8692-0.26025 17.1342-0.26025 16.3182 0.78075L4.71418 15.5767C4.43618 15.9307 4.43018 16.4277 4.70018 16.7897 4.96818 17.1528 5.44618 17.2897 5.86718 17.1238L5.86718 17.1238ZM15.0012 54.1937 20.0012 54.1937 20.0012 52.1937 15.0012 52.1937 15.0012 54.1937ZM11.0012 52.1937 13.0012 52.1937 13.0012 55.1937C13.0012 55.7458 13.4492 56.1937 14.0012 56.1937L21.0012 56.1937C21.5542 56.1937 22.0012 55.7458 22.0012 55.1937L22.0012 52.1937 24.0012 52.1937 24.0012 50.1937 11.0012 50.1937 11.0012 52.1937ZM33.0012 46.7547 27.4332 41.3128C27.8242 39.6017 27.8922 37.5228 27.8922 35.1937L27.8922 28.6998 33.0012 34.6167 33.0012 46.7547ZM34.7582 33.5908 27.9142 25.6647 27.8922 25.6847 27.8922 18.1938 26.0012 18.1938 26.0012 35.1937C26.0012 42.5107 25.0672 44.1937 21.0012 44.1937 20.4492 44.1937 20.0012 44.6408 20.0012 45.1937L20.0012 49.1937 21.8922 49.1937 21.8922 46.1548C24.3692 45.9507 25.8262 44.9538 26.6852 43.3778L33.3022 49.8457C33.4932 50.0327 33.7462 50.1307 34.0012 50.1307 34.1322 50.1307 34.2642 50.1058 34.3892 50.0527 34.7602 49.8968 35.0012 49.5337 35.0012 49.1307L35.0012 34.2438C35.0012 34.0037 34.9152 33.7728 34.7582 33.5908L34.7582 33.5908ZM1.89218 46.7547 1.89218 34.6167 7.00118 28.6998 7.00118 35.1937C7.00118 37.5228 7.07018 39.6017 7.46018 41.3128L1.89218 46.7547ZM13.0012 46.1548 13.0012 49.1937 15.0012 49.1937 15.0012 45.1937C15.0012 44.6408 14.5542 44.1937 14.0012 44.1937 9.93618 44.1937 9.00118 42.5107 9.00118 35.1937L9.00118 18.1938 7.00118 18.1938 7.00118 25.6847 6.97918 25.6647 0.135181 33.5908C-0.021819 33.7728 0.001181 34.0037 0.001181 34.2438L0.001181 49.1307C0.001181 49.5337 0.133181 49.8968 0.504181 50.0527 0.629181 50.1058 0.761181 50.1307 0.892181 50.1307 1.14818 50.1307 1.40118 50.0327 1.59118 49.8457L8.20818 43.3778C9.06818 44.9538 10.5252 45.9507 13.0012 46.1548L13.0012 46.1548ZM13.0012 32.1427 13.0012 28.4018 16.0012 29.6518 16.0012 33.8747 13.0012 32.1427ZM17.5012 24.3477 21.1322 26.4447 17.4842 28.1028 13.7162 26.5338 17.5012 24.3477ZM18.0012 34.4528 18.0012 30.0648 22.0012 28.2458 22.0012 32.1427 18.0012 34.4528ZM16.0172 36.1937 17.0012 36.7617C17.1562 36.8507 17.3292 36.8957 17.5012 36.8957 17.6742 36.8957 17.8472 36.8507 18.0012 36.7617L23.5012 33.5858C23.8112 33.4077 24.0012 33.0768 24.0012 32.7197L24.0012 26.3687C24.0012 26.0117 23.8112 25.6817 23.5012 25.5028L18.0012 22.3267C17.6932 22.1497 17.3102 22.1497 17.0012 22.3267L11.5012 25.5028C11.1922 25.6817 11.0012 26.0117 11.0012 26.3687L11.0012 32.7197C11.0012 33.0768 11.1922 33.4077 11.5012 33.5858L16.0012 36.1847 16.0012 36.1937 16.0172 36.1937Z" id="Bottlerocket_Icon_64_Squid"/></g></g></svg>