<svg width="80" height="80" viewBox="0 0 80 80" xmlns="http://www.w3.org/2000/svg" xmlns:xlink="http://www.w3.org/1999/xlink" overflow="hidden"><g id="Icon-Architecture/64/Arch_Amazon-OpenSearch-Service_64" stroke="none" stroke-width="1" fill="none" fill-rule="evenodd"><g id="Icon-Architecture-BG/64/Analytics" fill="#8C4FFF"><rect x="0" y="0" width="80" height="80" id="Rectangle"/></g><path d="M44.26 51.33C39.843 51.33 36.25 47.737 36.25 43.321 36.25 38.904 39.843 35.311 44.26 35.311 48.677 35.311 52.27 38.904 52.27 43.321 52.27 47.737 48.677 51.33 44.26 51.33L44.26 51.33ZM44.26 33.311C38.74 33.311 34.25 37.801 34.25 43.321 34.25 48.84 38.74 53.33 44.26 53.33 49.78 53.33 54.27 48.84 54.27 43.321 54.27 37.801 49.78 33.311 44.26 33.311L44.26 33.311ZM64.548 61.346C63.897 62.067 62.777 62.127 62.052 61.477L53.712 53.954C54.593 53.17 55.384 52.29 56.049 51.313L64.416 58.851C65.139 59.503 65.197 60.624 64.548 61.346L64.548 61.346ZM32.011 43.321C32.011 36.566 37.506 31.071 44.26 31.071 51.014 31.071 56.509 36.566 56.509 43.321 56.509 50.075 51.014 55.57 44.26 55.57 37.506 55.57 32.011 50.075 32.011 43.321L32.011 43.321ZM57.063 49.535C57.98 47.654 58.509 45.55 58.509 43.321 58.509 35.463 52.117 29.071 44.26 29.071 36.403 29.071 30.011 35.463 30.011 43.321 30.011 51.178 36.403 57.57 44.26 57.57 47.159 57.57 49.856 56.695 52.109 55.202L60.714 62.964C61.432 63.609 62.333 63.927 63.232 63.926 64.263 63.926 65.29 63.508 66.034 62.685 67.42 61.143 67.296 58.757 65.756 57.366L57.063 49.535ZM67 20 67 54 65 54 65 21 57 21 57 32 55 32 55 20C55 19.448 55.448 19 56 19L66 19C66.553 19 67 19.448 67 20L67 20ZM51 61 53 61 53 66C53 66.553 52.553 67 52 67L42 67C41.447 67 41 66.553 41 66L41 60 43 60 43 65 51 65 51 61ZM43 26 41 26 41 14C41 13.448 41.447 13 42 13L52 13C52.553 13 53 13.448 53 14L53 28 51 28 51 15 43 15 43 26ZM37 59 39 59 39 66C39 66.553 38.553 67 38 67L28 67C27.448 67 27 66.553 27 66L27 51 29 51 29 65 37 65 37 59ZM29 36 27 36 27 23C27 22.448 27.448 22 28 22L38 22C38.553 22 39 22.448 39 23L39 27 37 27 37 24 29 24 29 36ZM15 65 23 65 23 31 15 31 15 65ZM24 29 14 29C13.448 29 13 29.448 13 30L13 66C13 66.553 13.448 67 14 67L24 67C24.553 67 25 66.553 25 66L25 30C25 29.448 24.553 29 24 29L24 29Z" id="Amazon-OpenSearch-Service_Icon_64_Squid" fill="#FFFFFF"/></g></svg>