<svg width="48" height="48" viewBox="0 0 48 48" xmlns="http://www.w3.org/2000/svg" xmlns:xlink="http://www.w3.org/1999/xlink" overflow="hidden"><g id="Icon-Resource/IoT/Res_AWS-IoT_Thing_Bank_48" stroke="none" stroke-width="1" fill="none" fill-rule="evenodd"><path d="M25.6928 27.4246C25.6928 27.7536 25.5828 28.0426 25.3628 28.2926 25.1438 28.5416 24.8688 28.6876 24.5398 28.7266L24.5398 26.1666C24.9488 26.3166 25.2428 26.4886 25.4228 26.6836 25.6028 26.8776 25.6928 27.1246 25.6928 27.4246ZM23.4318 24.0406C23.0318 23.8806 22.7448 23.7016 22.5708 23.5016 22.3968 23.3026 22.3098 23.0576 22.3098 22.7686 22.3098 22.4186 22.4088 22.1266 22.6088 21.8926 22.8078 21.6586 23.0818 21.5156 23.4318 21.4656L23.4318 24.0406ZM23.4318 18.0226 23.4318 19.8336C22.5328 19.9136 21.8098 20.2336 21.2608 20.7916 20.7118 21.3516 20.4378 22.0546 20.4378 22.9036 20.4378 23.5416 20.6268 24.0786 21.0068 24.5126 21.3858 24.9466 21.9948 25.3186 22.8328 25.6276L23.4318 25.8526 23.4318 28.7426C23.0818 28.7116 22.6978 28.6266 22.2788 28.4876 21.8598 28.3476 21.2908 28.1136 20.5718 27.7836L20.5718 29.4596C21.3908 29.9896 22.3438 30.2936 23.4318 30.3736L23.4318 32.2006 24.5398 32.2006 24.5398 30.3586C25.4678 30.2486 26.2088 29.9166 26.7628 29.3636 27.3178 28.8096 27.5938 28.1186 27.5938 27.2896 27.5938 26.6516 27.3998 26.1176 27.0098 25.6876 26.6208 25.2586 25.9718 24.8786 25.0638 24.5496L24.5398 24.3556 24.5398 21.4806C25.2188 21.5706 25.9718 21.8296 26.8008 22.2586L26.8008 20.5816C26.0718 20.1726 25.3188 19.9286 24.5398 19.8486L24.5398 18.0226 23.4318 18.0226ZM35.3458 18.6136 33.7038 18.6136C33.1518 18.6136 32.7038 19.0606 32.7038 19.6136L32.7038 32.9206C32.7038 33.4736 33.1518 33.9206 33.7038 33.9206L34.3978 33.9206 34.3978 34.4646 13.6358 34.4646 13.6358 33.9206 14.3288 33.9206C14.8818 33.9206 15.3288 33.4736 15.3288 32.9206L15.3288 19.6136C15.3288 19.0606 14.8818 18.6136 14.3288 18.6136L12.6878 18.6136 12.6878 17.5216 24.0168 13.6246 35.3458 17.5216 35.3458 18.6136ZM24.3418 11.6216C24.1308 11.5496 23.9018 11.5496 23.6918 11.6216L11.3618 15.8626C10.9588 16.0006 10.6878 16.3806 10.6878 16.8076L10.6878 19.6136C10.6878 20.1656 11.1348 20.6136 11.6878 20.6136L13.3288 20.6136 13.3288 31.9206 12.6358 31.9206C12.0828 31.9206 11.6358 32.3686 11.6358 32.9206L11.6358 35.4646C11.6358 36.0176 12.0828 36.4646 12.6358 36.4646L35.3978 36.4646C35.9498 36.4646 36.3978 36.0176 36.3978 35.4646L36.3978 32.9206C36.3978 32.3686 35.9498 31.9206 35.3978 31.9206L34.7038 31.9206 34.7038 20.6136 36.3458 20.6136C36.8988 20.6136 37.3458 20.1656 37.3458 19.6136L37.3458 16.8076C37.3458 16.3806 37.0738 16.0006 36.6708 15.8626L24.3418 11.6216ZM39.7468 38.6146C39.7468 39.2406 39.2378 39.7486 38.6118 39.7486L9.4198 39.7486C8.7938 39.7486 8.2848 39.2406 8.2848 38.6146L8.2848 9.4336C8.2848 8.8076 8.7938 8.2986 9.4198 8.2986L38.6118 8.2986C39.2378 8.2986 39.7468 8.8076 39.7468 9.4336L39.7468 38.6146ZM46.0328 14.4486 46.0328 12.4486 41.7468 12.4486 41.7468 9.4336C41.7468 7.7046 40.3408 6.2986 38.6118 6.2986L35.5838 6.2986 35.5838 1.9996 33.5838 1.9996 33.5838 6.2986 30.3008 6.2986 30.3008 1.9996 28.3008 1.9996 28.3008 6.2986 25.0168 6.2986 25.0168 1.9996 23.0168 1.9996 23.0168 6.2986 19.7328 6.2986 19.7328 1.9996 17.7328 1.9996 17.7328 6.2986 14.4478 6.2986 14.4478 1.9996 12.4478 1.9996 12.4478 6.2986 9.4198 6.2986C7.6918 6.2986 6.2848 7.7046 6.2848 9.4336L6.2848 12.4486 1.9998 12.4486 1.9998 14.4486 6.2848 14.4486 6.2848 17.7326 1.9998 17.7326 1.9998 19.7326 6.2848 19.7326 6.2848 23.0166 1.9998 23.0166 1.9998 25.0166 6.2848 25.0166 6.2848 28.2996 1.9998 28.2996 1.9998 30.2996 6.2848 30.2996 6.2848 33.5836 1.9998 33.5836 1.9998 35.5836 6.2848 35.5836 6.2848 38.6146C6.2848 40.3426 7.6918 41.7486 9.4198 41.7486L12.4478 41.7486 12.4478 46.0336 14.4478 46.0336 14.4478 41.7486 17.7328 41.7486 17.7328 46.0336 19.7328 46.0336 19.7328 41.7486 23.0168 41.7486 23.0168 46.0336 25.0168 46.0336 25.0168 41.7486 28.3008 41.7486 28.3008 46.0336 30.3008 46.0336 30.3008 41.7486 33.5838 41.7486 33.5838 46.0336 35.5838 46.0336 35.5838 41.7486 38.6118 41.7486C40.3408 41.7486 41.7468 40.3426 41.7468 38.6146L41.7468 35.5836 46.0328 35.5836 46.0328 33.5836 41.7468 33.5836 41.7468 30.2996 46.0328 30.2996 46.0328 28.2996 41.7468 28.2996 41.7468 25.0166 46.0328 25.0166 46.0328 23.0166 41.7468 23.0166 41.7468 19.7326 46.0328 19.7326 46.0328 17.7326 41.7468 17.7326 41.7468 14.4486 46.0328 14.4486Z" id="Amazon-IOT-RESOURCES-IoT-thing-bank_Resource-Icon_light-bg" fill="#7AA116"/></g></svg>