<svg width="80" height="80" viewBox="0 0 80 80" xmlns="http://www.w3.org/2000/svg" xmlns:xlink="http://www.w3.org/1999/xlink" overflow="hidden"><g id="Icon-Architecture/64/Arch_AWS-Device-Farm_64" stroke="none" stroke-width="1" fill="none" fill-rule="evenodd"><g id="Icon-Architecture-BG/64/Mobile" fill="#DD344C"><rect x="0" y="0" width="80" height="80" id="Rectangle"/></g><path d="M49.214 51.3948 50.224 53.1208 46.116 55.5248 45.107 53.7998 49.214 51.3948ZM30.37 51.3618 34.515 53.7028 33.53 55.4438 29.386 53.1028 30.37 51.3618ZM49.214 28.1495 45.107 25.7444 46.116 24.0194 50.224 26.4234 49.214 28.1495ZM30.37 28.1825 29.386 26.4404 33.53 24.1004 34.515 25.8414 30.37 28.1825ZM55 41.9506 57 41.9506 57 38.0006 55 38.0006 55 41.9506ZM23 41.9506 25 41.9506 25 38.0006 23 38.0006 23 41.9506ZM62 52.9278 40.029 65.841 18 52.9278 18 27.0725 40.029 14.1593 62 27.0725 62 52.9278ZM63.507 25.6374 40.537 12.1373C40.225 11.9542 39.837 11.9542 39.525 12.1373L16.494 25.6374C16.189 25.8164 16 26.1444 16 26.4994L16 53.4998C16 53.8548 16.189 54.1838 16.494 54.3628L39.525 67.863C39.681 67.955 39.856 68 40.03 68 40.205 68 40.381 67.955 40.537 67.863L63.507 54.3628C63.813 54.1828 64 53.8548 64 53.4998L64 26.4994C64 26.1454 63.813 25.8174 63.507 25.6374L63.507 25.6374ZM24.213 50.8128C23.169 50.8128 22.319 49.9638 22.319 48.9207 22.319 47.8767 23.169 47.0277 24.213 47.0277 25.257 47.0277 26.106 47.8767 26.106 48.9207 26.106 49.9638 25.257 50.8128 24.213 50.8128L24.213 50.8128ZM24.213 45.0277C22.067 45.0277 20.319 46.7737 20.319 48.9207 20.319 51.0668 22.067 52.8128 24.213 52.8128 26.36 52.8128 28.106 51.0668 28.106 48.9207 28.106 46.7737 26.36 45.0277 24.213 45.0277L24.213 45.0277ZM55.624 50.8128C54.58 50.8128 53.732 49.9638 53.732 48.9207 53.732 47.8767 54.58 47.0277 55.624 47.0277 56.668 47.0277 57.518 47.8767 57.518 48.9207 57.518 49.9638 56.668 50.8128 55.624 50.8128L55.624 50.8128ZM55.624 45.0277C53.478 45.0277 51.732 46.7737 51.732 48.9207 51.732 51.0668 53.478 52.8128 55.624 52.8128 57.771 52.8128 59.518 51.0668 59.518 48.9207 59.518 46.7737 57.771 45.0277 55.624 45.0277L55.624 45.0277ZM41.812 21.7154C41.812 22.7584 40.963 23.6074 39.919 23.6074 38.875 23.6074 38.026 22.7584 38.026 21.7154 38.026 20.6714 38.875 19.8224 39.919 19.8224 40.963 19.8224 41.812 20.6714 41.812 21.7154L41.812 21.7154ZM36.026 21.7154C36.026 23.8614 37.773 25.6074 39.919 25.6074 42.066 25.6074 43.812 23.8614 43.812 21.7154 43.812 19.5684 42.066 17.8223 39.919 17.8223 37.773 17.8223 36.026 19.5684 36.026 21.7154L36.026 21.7154ZM55.624 28.8915C56.668 28.8915 57.518 29.7405 57.518 30.7845 57.518 31.8285 56.668 32.6775 55.624 32.6775 54.58 32.6775 53.732 31.8285 53.732 30.7845 53.732 29.7405 54.58 28.8915 55.624 28.8915L55.624 28.8915ZM39.919 41.7796C38.875 41.7796 38.026 40.9306 38.026 39.8866 38.026 38.8436 38.875 37.9946 39.919 37.9946 40.963 37.9946 41.812 38.8436 41.812 39.8866 41.812 40.9306 40.963 41.7796 39.919 41.7796L39.919 41.7796ZM41.812 57.9869C41.812 59.0309 40.963 59.8799 39.919 59.8799 38.875 59.8799 38.026 59.0309 38.026 57.9869 38.026 56.9429 38.875 56.0938 39.919 56.0938 40.963 56.0938 41.812 56.9429 41.812 57.9869L41.812 57.9869ZM24.213 32.6775C23.169 32.6775 22.319 31.8285 22.319 30.7845 22.319 29.7405 23.169 28.8915 24.213 28.8915 25.257 28.8915 26.106 29.7405 26.106 30.7845 26.106 31.8285 25.257 32.6775 24.213 32.6775L24.213 32.6775ZM42.526 37.0156C41.834 36.3876 40.925 35.9946 39.919 35.9946 38.861 35.9946 37.902 36.4206 37.2 37.1086L27.969 31.7525C28.049 31.4405 28.106 31.1205 28.106 30.7845 28.106 28.6385 26.36 26.8914 24.213 26.8914 22.067 26.8914 20.319 28.6385 20.319 30.7845 20.319 32.9315 22.067 34.6776 24.213 34.6776 25.304 34.6776 26.287 34.2235 26.994 33.4985L36.189 38.8326C36.093 39.1706 36.026 39.5196 36.026 39.8866 36.026 41.7266 37.313 43.2637 39.03 43.6677L39.03 54.2058C37.313 54.6098 36.026 56.1468 36.026 57.9869 36.026 60.1329 37.773 61.8799 39.919 61.8799 42.066 61.8799 43.812 60.1329 43.812 57.9869 43.812 56.2288 42.633 54.7568 41.03 54.2748L41.03 43.5987C42.633 43.1167 43.812 41.6446 43.812 39.8866 43.812 39.4706 43.729 39.0776 43.608 38.7016L52.763 33.4025C53.475 34.1805 54.488 34.6776 55.624 34.6776 57.771 34.6776 59.518 32.9315 59.518 30.7845 59.518 28.6385 57.771 26.8914 55.624 26.8914 53.478 26.8914 51.732 28.6385 51.732 30.7845 51.732 31.0755 51.77 31.3575 51.83 31.6305L42.526 37.0156Z" id="AWS-Device-Farm_Icon_64_Squid" fill="#FFFFFF"/></g></svg>