<svg width="80" height="80" viewBox="0 0 80 80" xmlns="http://www.w3.org/2000/svg" xmlns:xlink="http://www.w3.org/1999/xlink" overflow="hidden"><g id="Icon-Architecture/64/Arch_AWS-Elemental-MediaTailor_64" stroke="none" stroke-width="1" fill="none" fill-rule="evenodd"><g id="Icon-Architecture-BG/64/Media-Services" fill="#ED7100"><rect x="0" y="0" width="80" height="80" id="Rectangle"/></g><path d="M19 36 17 36 17 27C17 26.634 17.199 26.297 17.521 26.122L28.521 20.113 29.479 21.868 19 27.593 19 36ZM63 36 61 36 61 27.593 50.521 21.866 51.479 20.111 62.479 26.122C62.801 26.297 63 26.634 63 27L63 36ZM33.508 62.871 17.508 53.827C17.194 53.65 17 53.317 17 52.957L17 43 19 43 19 52.373 34.492 61.129 33.508 62.871ZM46.492 62.871 45.508 61.129 61 52.373 61 43 63 43 63 52.957C63 53.317 62.806 53.65 62.492 53.827L46.492 62.871ZM35 26.382 40 28.882 45 26.382 45 19.618 40 17.118 35 19.618 35 26.382ZM25.058 34.958 40.002 42.869 54.942 34.958 44.502 28.867 41 30.618 41 35 39 35 39 30.618 35.498 28.867 25.058 34.958ZM24.989 45.93 39.999 53.962 55.011 45.93 47.461 41.182 41 44.603 41.001 47 39.001 47 39 44.601 32.539 41.181 24.989 45.93ZM39.001 66 39 55.696 22.528 46.882C22.214 46.713 22.013 46.391 22.001 46.035 21.988 45.679 22.166 45.343 22.468 45.153L30.499 40.101 22.532 35.884C22.211 35.714 22.008 35.384 21.9998 35.021 21.993 34.658 22.183 34.319 22.496 34.136L33.382 27.786C33.144 27.599 33 27.311 33 27L33 19C33 18.621 33.214 18.275 33.553 18.105L39.553 15.105C39.834 14.965 40.166 14.965 40.447 15.105L46.447 18.105C46.786 18.275 47 18.621 47 19L47 27C47 27.311 46.856 27.599 46.618 27.786L57.504 34.136C57.817 34.319 58.007 34.658 58.0002 35.021 57.992 35.383 57.789 35.714 57.468 35.884L49.501 40.102 57.532 45.153C57.834 45.343 58.012 45.679 57.999 46.035 57.987 46.391 57.786 46.714 57.472 46.882L41 55.695 41.001 66 39.001 66Z" id="AWS-Elemental-MediaTailor_Icon_64_Squid" fill="#FFFFFF"/></g></svg>