<svg width="80" height="80" viewBox="0 0 80 80" xmlns="http://www.w3.org/2000/svg" xmlns:xlink="http://www.w3.org/1999/xlink" overflow="hidden"><g id="Icon-Architecture/64/Arch_AWS-Shield_64" stroke="none" stroke-width="1" fill="none" fill-rule="evenodd"><g id="Icon-Architecture-BG/64/Security-Identity-Compliance" fill="#DD344C"><rect x="0" y="0" width="80" height="80" id="Rectangle"/></g><path d="M54.0107 49.9995 52.0107 49.9995 52.0107 53.9995 48.0107 53.9995 48.0107 55.9995 52.0107 55.9995 52.0107 59.9995 54.0107 59.9995 54.0107 55.9995 58.0107 55.9995 58.0107 53.9995 54.0107 53.9995 54.0107 49.9995ZM61.0107 54.9995C61.0107 50.5885 57.4217 46.9995 53.0107 46.9995 48.5997 46.9995 45.0107 50.5885 45.0107 54.9995 45.0107 59.4105 48.5997 62.9995 53.0107 62.9995 57.4217 62.9995 61.0107 59.4105 61.0107 54.9995L61.0107 54.9995ZM63.0107 54.9995C63.0107 60.5135 58.5247 64.9995 53.0107 64.9995 47.4967 64.9995 43.0107 60.5135 43.0107 54.9995 43.0107 49.4855 47.4967 44.9995 53.0107 44.9995 58.5247 44.9995 63.0107 49.4855 63.0107 54.9995L63.0107 54.9995ZM36.0107 57.9705 36.0107 22.4555 25.0107 26.6865 25.0107 46.9995C25.0227 47.4135 25.4067 57.3795 36.0107 57.9705L36.0107 57.9705ZM49.0107 43.6995 49.0107 26.6865 38.0107 22.4555 38.0107 57.9625C39.1707 57.8855 40.2477 57.6805 41.2467 57.3635 41.3817 58.0325 41.5807 58.6775 41.8217 59.3015 40.3567 59.7605 38.7517 59.9995 37.0107 59.9995 23.4517 59.9995 23.0137 47.1515 23.0107 47.0215L23.0107 25.9995C23.0107 25.5855 23.2657 25.2145 23.6517 25.0655L36.6517 20.0655C36.8837 19.9775 37.1377 19.9775 37.3697 20.0655L50.3697 25.0655C50.7557 25.2145 51.0107 25.5855 51.0107 25.9995L51.0107 43.1805C50.3227 43.2965 49.6547 43.4715 49.0107 43.6995L49.0107 43.6995ZM44.7557 63.6875C45.3137 64.2165 45.9207 64.6925 46.5727 65.1085 43.8177 66.3565 40.6147 66.9875 37.0107 66.9875 30.6837 66.9875 25.6397 65.0625 22.0197 61.2665 15.5887 54.5235 15.9907 44.3805 16.0117 43.9525L16.0107 21.9995C16.0107 21.5905 16.2597 21.2235 16.6397 21.0705L36.6397 13.0705C36.8777 12.9765 37.1437 12.9765 37.3817 13.0705L57.3817 21.0705C57.7617 21.2235 58.0107 21.5905 58.0107 21.9995L58.0107 43.9995C58.0107 43.9995 58.0127 44.0435 58.0147 44.1065 57.3747 43.8115 56.7057 43.5745 56.0117 43.3945L56.0107 22.6765 37.0107 15.0765 18.0107 22.6765 18.0107 43.9995C18.0047 44.1425 17.6357 53.7835 23.4767 59.8965 26.7037 63.2745 31.2577 64.9875 37.0107 64.9875 39.8987 64.9875 42.4857 64.5455 44.7557 63.6875L44.7557 63.6875Z" id="AWS-Shield_Icon_64_Squid" fill="#FFFFFF"/></g></svg>