<svg width="80" height="80" viewBox="0 0 80 80" xmlns="http://www.w3.org/2000/svg" xmlns:xlink="http://www.w3.org/1999/xlink" overflow="hidden"><g id="Icon-Architecture/64/Arch_Amazon-EKS-Anywhere_64" stroke="none" stroke-width="1" fill="none" fill-rule="evenodd"><g id="Icon-Architecture-BG/64/Containers" fill="#ED7100"><rect x="0" y="0" width="80" height="80" id="Rectangle"/></g><g id="Icon-Service/64/Amazon-EKS-Anywhere_64" fill="#FFFFFF" transform="translate(12 12)"><path d="M37.93 43.9713 39.93 43.9713 39.93 41.9713 37.93 41.9713 37.93 43.9713ZM36.93 45.9713 40.93 45.9713C41.483 45.9713 41.93 45.5233 41.93 44.9713L41.93 40.9713C41.93 40.4183 41.483 39.9713 40.93 39.9713L36.93 39.9713C36.377 39.9713 35.93 40.4183 35.93 40.9713L35.93 44.9713C35.93 45.5233 36.377 45.9713 36.93 45.9713L36.93 45.9713ZM46.93 43.9713 48.93 43.9713 48.93 41.9713 46.93 41.9713 46.93 43.9713ZM45.93 45.9713 49.93 45.9713C50.483 45.9713 50.93 45.5233 50.93 44.9713L50.93 40.9713C50.93 40.4183 50.483 39.9713 49.93 39.9713L45.93 39.9713C45.377 39.9713 44.93 40.4183 44.93 40.9713L44.93 44.9713C44.93 45.5233 45.377 45.9713 45.93 45.9713L45.93 45.9713ZM37.93 33.9713 39.93 33.9713 39.93 31.9713 37.93 31.9713 37.93 33.9713ZM36.93 35.9713 40.93 35.9713C41.483 35.9713 41.93 35.5233 41.93 34.9713L41.93 30.9713C41.93 30.4183 41.483 29.9713 40.93 29.9713L36.93 29.9713C36.377 29.9713 35.93 30.4183 35.93 30.9713L35.93 34.9713C35.93 35.5233 36.377 35.9713 36.93 35.9713L36.93 35.9713ZM46.93 33.9713 48.93 33.9713 48.93 31.9713 46.93 31.9713 46.93 33.9713ZM45.93 35.9713 49.93 35.9713C50.483 35.9713 50.93 35.5233 50.93 34.9713L50.93 30.9713C50.93 30.4183 50.483 29.9713 49.93 29.9713L45.93 29.9713C45.377 29.9713 44.93 30.4183 44.93 30.9713L44.93 34.9713C44.93 35.5233 45.377 35.9713 45.93 35.9713L45.93 35.9713ZM32.93 53.9713 53.93 53.9713 53.93 26.9713 32.93 26.9713 32.93 53.9713ZM25.444 53.8623 2 41.3983 2 14.5703 22 2.75128 22 12.4503 11.462 19.1553C11.174 19.3393 11 19.6573 11 19.9993L11 35.9993C11 36.3723 11.208 36.7143 11.538 36.8863L24.991 43.8863C25.279 44.0363 25.624 44.0373 25.912 43.8883L30.93 41.2953 30.93 50.8323 25.444 53.8623ZM40.503 19.1353 29 12.4253 29 2.75128 49 14.5703 49 24.9713 41 24.9713 41 19.9993C41 19.6443 40.811 19.3143 40.503 19.1353L40.503 19.1353ZM54.93 24.9713 51 24.9713 51 13.9993C51 13.6453 50.813 13.3183 50.508 13.1383L28.508 0.138276C28.199-0.0437238 27.817-0.0457238 27.503 0.130276 27.192 0.309276 27 0.640276 27 0.999276L27 12.9993C27 13.3543 27.188 13.6843 27.496 13.8633L39 20.5733 39 24.9713 31.93 24.9713C31.377 24.9713 30.93 25.4183 30.93 25.9713L30.93 34.0223 25.012 27.1203 31.842 19.1983 29.181 19.1983 23 25.9993 23 18.9993 21 18.9993 21 35.9993 23 35.9993 23 27.9993 29.668 35.7833 30.93 35.7833 30.93 39.0443 25.455 41.8733 13 35.3923 13 20.5483 23.537 13.8433C23.825 13.6593 24 13.3413 24 12.9993L24 0.999276C24 0.640276 23.807 0.309276 23.496 0.130276 23.183-0.0457238 22.801-0.0437238 22.491 0.138276L0.491 13.1383C0.186 13.3183 0 13.6453 0 13.9993L0 41.9993C0 42.3693 0.204 42.7083 0.53 42.8823L24.983 55.8823C25.13 55.9603 25.292 55.9993 25.453 55.9993 25.62 55.9993 25.786 55.9573 25.936 55.8743L30.93 53.1173 30.93 54.9713C30.93 55.5233 31.377 55.9713 31.93 55.9713L54.93 55.9713C55.483 55.9713 55.93 55.5233 55.93 54.9713L55.93 25.9713C55.93 25.4183 55.483 24.9713 54.93 24.9713L54.93 24.9713Z" id="Fill-1"/></g></g></svg>