<svg width="48" height="48" viewBox="0 0 48 48" xmlns="http://www.w3.org/2000/svg" xmlns:xlink="http://www.w3.org/1999/xlink" overflow="hidden"><g id="Icon-Resource/Networking-and-Content-Delivery/Res_Amazon-VPC_Internet-Gateway_48" stroke="none" stroke-width="1" fill="none" fill-rule="evenodd"><path d="M33.4312 35.1778 31.9332 35.1778 31.9332 17.5018C31.9332 17.1088 31.7022 16.7518 31.3442 16.5908L31.2522 16.5488C29.2432 15.6418 27.1642 14.7028 24.1762 14.7028 21.0532 14.7028 18.7612 15.7118 16.4952 16.8368 16.1552 17.0058 15.9402 17.3528 15.9402 17.7328L15.9402 35.1778 14.4772 35.1778 14.4772 16.3118C16.9112 14.3328 20.4202 13.2048 24.1862 13.2048 27.6872 13.2048 31.0252 14.2018 33.4312 15.9528L33.4312 35.1778ZM24.1862 11.2048C19.7612 11.2048 15.6172 12.6238 12.8152 15.0998 12.6002 15.2888 12.4772 15.5618 12.4772 15.8488L12.4772 36.1778C12.4772 36.7308 12.9242 37.1778 13.4772 37.1778L16.9402 37.1778C17.4932 37.1778 17.9402 36.7308 17.9402 36.1778L17.9402 18.3558C19.8592 17.4288 21.7192 16.7028 24.1762 16.7028 26.5112 16.7028 28.2092 17.3778 29.9332 18.1488L29.9332 36.1778C29.9332 36.7308 30.3802 37.1778 30.9332 37.1778L34.4312 37.1778C34.9842 37.1778 35.4312 36.7308 35.4312 36.1778L35.4312 15.4578C35.4312 15.1538 35.2922 14.8658 35.0532 14.6748 32.2792 12.4698 28.3182 11.2048 24.1862 11.2048L24.1862 11.2048ZM23.9542 43.9088C12.9522 43.9088 3.9992 34.9568 3.9992 23.9538 3.9992 12.9508 12.9522 3.9998 23.9542 3.9998 34.9572 3.9998 43.9092 12.9508 43.9092 23.9538 43.9092 34.9568 34.9572 43.9088 23.9542 43.9088L23.9542 43.9088ZM23.9542 1.9998C11.8482 1.9998 1.9992 11.8488 1.9992 23.9538 1.9992 36.0608 11.8482 45.9088 23.9542 45.9088 36.0602 45.9088 45.9092 36.0608 45.9092 23.9538 45.9092 11.8488 36.0602 1.9998 23.9542 1.9998L23.9542 1.9998Z" id="AWS-Amazon-VPC_Internet-gateway_Resource-Icon_light-bg" fill="#8C4FFF"/></g></svg>