<svg width="48" height="48" viewBox="0 0 48 48" xmlns="http://www.w3.org/2000/svg" xmlns:xlink="http://www.w3.org/1999/xlink" overflow="hidden"><g id="Icon-Resource/IoT/Res_AWS-IoT_Sensor_48" stroke="none" stroke-width="1" fill="none" fill-rule="evenodd"><path d="M22.664 40.3939 25.674 40.3939 24.169 38.3539 22.664 40.3939ZM19.879 40.7999 23.364 36.0759C23.741 35.5639 24.597 35.5639 24.974 36.0759L28.459 40.7999C28.683 41.1039 28.717 41.5079 28.547 41.8449 28.377 42.1809 28.031 42.3939 27.654 42.3939L20.684 42.3939C20.307 42.3939 19.961 42.1809 19.791 41.8449 19.621 41.5079 19.655 41.1039 19.879 40.7999ZM11.534 40.6319C12.28 40.6319 12.887 40.0259 12.887 39.2799 12.887 38.5339 12.28 37.9269 11.534 37.9269 10.788 37.9269 10.182 38.5339 10.182 39.2799 10.182 40.0259 10.788 40.6319 11.534 40.6319ZM11.534 35.9269C13.383 35.9269 14.887 37.4309 14.887 39.2799 14.887 41.1279 13.383 42.6319 11.534 42.6319 9.685 42.6319 8.182 41.1279 8.182 39.2799 8.182 37.4309 9.685 35.9269 11.534 35.9269ZM6 43.9429 42.338 43.9429 42.338 34.6159 6 34.6159 6 43.9429ZM44.338 44.9429C44.338 45.4959 43.891 45.9429 43.338 45.9429L5 45.9429C4.447 45.9429 4 45.4959 4 44.9429L4 33.6159C4 33.0629 4.447 32.6159 5 32.6159L23.169 32.6159 23.169 21.2169 21.391 22.9959 19.976 21.5819 23.462 18.0959C23.852 17.7059 24.485 17.7059 24.876 18.0959L28.361 21.5819 26.947 22.9959 25.169 21.2169 25.169 32.6159 43.338 32.6159C43.891 32.6159 44.338 33.0629 44.338 33.6159L44.338 44.9429ZM4.68 19.9419C4.68 16.4949 6.538 13.8609 9.698 12.7519 9.692 12.6089 9.689 12.4669 9.689 12.3269 9.689 8.4109 12.343 4.3469 15.862 2.8729 19.965 1.1529 24.318 2.0049 27.503 5.1599 28.401 6.0509 29.152 7.1169 29.745 8.3369 30.552 7.7689 31.503 7.4579 32.499 7.4579 34.657 7.4579 37.08 9.0529 37.588 12.5379 40.65 13.3039 43.658 15.5999 43.658 20.0029 43.658 25.5919 39.016 27.4419 36.56 27.6399L26.781 27.6339 26.783 25.6339 36.481 25.6429C36.611 25.6269 41.658 25.1269 41.658 20.0029 41.658 15.6879 38.043 14.6119 36.489 14.3499 35.97 14.2619 35.607 13.7879 35.66 13.2639 35.466 10.4789 33.835 9.4579 32.499 9.4579 31.604 9.4579 30.763 9.8989 30.189 10.6669 29.97 10.9629 29.609 11.1089 29.239 11.0589 28.875 11.0039 28.57 10.7529 28.446 10.4069 27.897 8.8719 27.106 7.5829 26.096 6.5809 24.852 5.3489 21.435 2.7009 16.635 4.7179 13.861 5.8789 11.689 9.2209 11.689 12.3269 11.689 12.6799 11.714 13.0249 11.752 13.3629 11.81 13.8609 11.489 14.3249 11.003 14.4469 9.389 14.8539 6.68 16.1089 6.68 19.9419 6.68 20.1169 6.687 20.2739 6.695 20.4329 6.876 23.3339 9.432 25.6169 12.511 25.6169L21.556 25.6249 21.554 27.6249 12.51 27.6169C8.378 27.6169 4.946 24.5099 4.698 20.5449 4.687 20.3419 4.68 20.1519 4.68 19.9419Z" id="Amazon-IOT-RESOURCES-IoT-sensor_Resource-Icon_light-bg" fill="#7AA116"/></g></svg>