<svg width="48" height="48" viewBox="0 0 48 48" xmlns="http://www.w3.org/2000/svg" xmlns:xlink="http://www.w3.org/1999/xlink" overflow="hidden"><g id="Icon-Resource/IoT/Res_AWS-IoT_HTTP_Protocol_48" stroke="none" stroke-width="1" fill="none" fill-rule="evenodd"><path d="M18.8612 43.9609 40.1962 43.9609 43.9612 43.9609 43.9612 40.1969 43.9612 32.8489 18.8612 32.8489 18.8612 43.9609ZM16.8612 30.8489 45.9612 30.8489 45.9612 40.1969 45.9612 45.9609 40.1962 45.9609 16.8612 45.9609 16.8612 30.8489ZM7.7642 1.9999C4.5862 1.9999 2.0002 4.5859 2.0002 7.7649L2.0002 40.1969C2.0002 43.3749 4.5862 45.9609 7.7642 45.9609L15.2382 45.9609 15.2382 43.9609 7.7642 43.9609C5.6882 43.9609 4.0002 42.2729 4.0002 40.1969L4.0002 7.7649C4.0002 5.6889 5.6882 3.9999 7.7642 3.9999L40.1962 3.9999C42.2722 3.9999 43.9612 5.6889 43.9612 7.7649L43.9612 29.2259 45.9612 29.2259 45.9612 7.7649C45.9612 4.5859 43.3752 1.9999 40.1962 1.9999L7.7642 1.9999ZM40.2092 38.7089C40.5372 38.7089 40.7942 38.5839 40.9792 38.3309 41.1652 38.0799 41.2572 37.7339 41.2572 37.2929 41.2572 36.8459 41.1652 36.4969 40.9792 36.2499 40.7942 36.0009 40.5372 35.8769 40.2092 35.8769L39.1712 35.8769 39.1712 38.7089 40.2092 38.7089ZM39.1712 39.5169 39.1712 42.3389 38.1842 42.3389 38.1842 35.0689 40.3132 35.0689C40.7052 35.0689 41.0492 35.1629 41.3462 35.3529 41.6432 35.5409 41.8712 35.8039 42.0292 36.1399 42.1862 36.4749 42.2642 36.8589 42.2642 37.2929 42.2642 37.9649 42.0852 38.5039 41.7242 38.9079 41.3642 39.3139 40.8942 39.5169 40.3132 39.5169L39.1712 39.5169ZM32.6142 35.9189 34.4182 35.9189 34.4182 42.3389 35.4352 42.3389 35.4352 35.9189 37.2502 35.9189 37.2502 35.0689 32.6142 35.0689 32.6142 35.9189ZM27.3692 35.9189 29.1732 35.9189 29.1732 42.3389 30.1912 42.3389 30.1912 35.9189 32.0062 35.9189 32.0062 35.0689 27.3692 35.0689 27.3692 35.9189ZM25.4182 35.0689 26.4352 35.0689 26.4352 42.3389 25.4182 42.3389 25.4182 39.0339 22.7742 39.0339 22.7742 42.3389 21.7572 42.3389 21.7572 35.0689 22.7742 35.0689 22.7742 38.2059 25.4182 38.2059 25.4182 35.0689Z" id="Amazon-IOT-RESOURCES-IoT-HTTP-protocol_Resource-Icon_light-bg" fill="#7AA116"/></g></svg>