<svg width="80" height="80" viewBox="0 0 80 80" xmlns="http://www.w3.org/2000/svg" xmlns:xlink="http://www.w3.org/1999/xlink" overflow="hidden"><g id="Icon-Architecture/64/Arch_AWS-IoT-Greengrass_64" stroke="none" stroke-width="1" fill="none" fill-rule="evenodd"><g id="Icon-Architecture-BG/64/Internet-of-Things" fill="#7AA116"><rect x="0" y="0" width="80" height="80" id="Rectangle"/></g><path d="M25 21C26.654 21 28 22.346 28 24 28 25.654 26.654 27 25 27 23.346 27 22 25.654 22 24 22 22.346 23.346 21 25 21L25 21ZM25 29C26.012 29 26.952 28.693 27.74 28.174L49.653 51 47 51 47 53 52 53C52.553 53 53 52.552 53 52L53 47 51 47 51 49.514 29.16 26.765C29.689 25.972 30 25.022 30 24 30 21.243 27.757 19 25 19 22.243 19 20 21.243 20 24 20 26.757 22.243 29 25 29L25 29ZM51 44 53 44 53 39 51 39 51 44ZM51 36 53 36 53 31 51 31 51 36ZM39 53 44 53 44 51 39 51 39 53ZM31 53 36 53 36 51 31 51 31 53ZM17 52C17 50.346 18.346 49 20 49 21.654 49 23 50.346 23 52 23 53.654 21.654 55 20 55 18.346 55 17 53.654 17 52L17 52ZM52 23C50.346 23 49 21.654 49 20 49 18.346 50.346 17 52 17 53.654 17 55 18.346 55 20 55 21.654 53.654 23 52 23L52 23ZM56.572 22.007C56.844 21.392 57 20.715 57 20 57 17.243 54.757 15 52 15 49.243 15 47 17.243 47 20 47 22.415 48.721 24.434 51 24.899L51 28 53 28 53 24.899C53.922 24.711 54.743 24.26 55.405 23.64 60.183 27.875 63 34.111 63 40.584 63 52.944 52.875 63 40.43 63 33.963 63 27.916 60.248 23.64 55.405 24.26 54.743 24.711 53.922 24.898 53L28 53 28 51 24.898 51C24.435 48.721 22.414 47 20 47 17.243 47 15 49.243 15 52 15 54.757 17.243 57 20 57 20.715 57 21.392 56.844 22.008 56.572 26.67 61.941 33.314 65 40.43 65 53.978 65 65 54.047 65 40.584 65 33.472 61.869 26.621 56.572 22.007L56.572 22.007Z" id="AWS-IoT-Greengrass_Icon_64_Squid" fill="#FFFFFF"/></g></svg>