<svg width="80" height="80" viewBox="0 0 80 80" xmlns="http://www.w3.org/2000/svg" xmlns:xlink="http://www.w3.org/1999/xlink" overflow="hidden"><g id="Icon-Architecture/64/Arch_AWS-CodePipeline_64" stroke="none" stroke-width="1" fill="none" fill-rule="evenodd"><g id="Icon-Architecture-BG/64/Developer-Tools" fill="#C925D1"><rect x="0" y="0" width="80" height="80" id="Rectangle"/></g><path d="M30 31 35 31 35 29 30 29 30 31ZM36.667 61.166 34.817 60.407 42.409 41.885 44.259 42.644 36.667 61.166ZM45.571 55.78 51.068 50.958 45.575 46.197 46.886 44.685 53.245 50.198C53.463 50.387 53.589 50.662 53.59 50.951 53.591 51.24 53.467 51.515 53.249 51.706L46.89 57.284 45.571 55.78ZM25.509 51.048C25.507 50.759 25.63 50.484 25.847 50.293L32.184 44.691 33.508 46.19 28.029 51.033 33.478 55.73 32.171 57.245 25.855 51.799C25.637 51.611 25.511 51.337 25.509 51.048L25.509 51.048ZM62.535 35 18.465 35C16.555 35 15 33.446 15 31.536L15 31 27 31 27 29 15 29 15 18.464C15 16.554 16.555 15 18.465 15L62.535 15C64.445 15 66 16.554 66 18.464L66 29 38 29 38 31 66 31 66 31.536C66 33.446 64.445 35 62.535 35L62.535 35ZM22 66 58 66 58 37 22 37 22 66ZM62.535 13 18.465 13C15.451 13 13 15.451 13 18.464L13 31.536C13 34.549 15.451 37 18.465 37L20 37 20 67C20 67.552 20.447 68 21 68L59 68C59.553 68 60 67.552 60 67L60 37 62.535 37C65.549 37 68 34.549 68 31.536L68 18.464C68 15.451 65.549 13 62.535 13L62.535 13Z" id="AWS-CodePipeline_Icon_64_Squid" fill="#FFFFFF"/></g></svg>