<svg width="80" height="80" viewBox="0 0 80 80" xmlns="http://www.w3.org/2000/svg" xmlns:xlink="http://www.w3.org/1999/xlink" overflow="hidden"><g id="Icon-Architecture/64/Arch_AWS-Panorama_64" stroke="none" stroke-width="1" fill="none" fill-rule="evenodd"><g id="Icon-Architecture-BG/64/Machine-Learning" fill="#01A88D"><rect x="0" y="0" width="80" height="80" id="Rectangle"/></g><g id="Icon-Service/64/AWS-Panorama_64" fill="#FFFFFF" transform="translate(12 12)"><path d="M48 20.0917C48 18.4419 46.654 17.0993 45 17.0993 43.346 17.0993 42 18.4419 42 20.0917 42 21.7415 43.346 23.0841 45 23.0841 46.654 23.0841 48 21.7415 48 20.0917L48 20.0917ZM50 20.0917C50 22.8417 47.757 25.079 45 25.079 42.586 25.079 40.565 23.3623 40.102 21.0891L35 21.0891 35 49.0178 33 49.0178 33 20.0917C33 19.5411 33.447 19.0942 34 19.0942L40.102 19.0942C40.565 16.821 42.586 15.1044 45 15.1044 47.757 15.1044 50 17.3417 50 20.0917L50 20.0917ZM31 4.98726C31 3.33748 29.654 1.99491 28 1.99491 26.346 1.99491 25 3.33748 25 4.98726 25 6.63705 26.346 7.97962 28 7.97962 29.654 7.97962 31 6.63705 31 4.98726L31 4.98726ZM29 9.87379 29 43.0331 27 43.0331 27 9.87379C24.721 9.40997 23 7.39512 23 4.98726 23 2.23729 25.243-3.55271e-15 28-3.55271e-15 30.757-3.55271e-15 33 2.23729 33 4.98726 33 7.39512 31.279 9.40997 29 9.87379L29 9.87379ZM13 13.1095C14.654 13.1095 16 11.767 16 10.1172 16 8.46738 14.654 7.12481 13 7.12481 11.346 7.12481 10 8.46738 10 10.1172 10 11.767 11.346 13.1095 13 13.1095L13 13.1095ZM23 25.5069 23 49.0178 21 49.0178 21 26.2589 12.726 23.9C12.296 23.7783 12 23.3863 12 22.9414L12 15.0037C9.721 14.5399 8 12.526 8 10.1172 8 7.36719 10.243 5.1299 13 5.1299 15.757 5.1299 18 7.36719 18 10.1172 18 12.526 16.279 14.5399 14 15.0037L14 22.1893 22.274 24.5473C22.704 24.67 23 25.061 23 25.5069L23 25.5069ZM41 50.0153 45 50.0153 45 48.0204 41 48.0204 41 50.0153ZM47 50.0153 51 50.0153 51 48.0204 47 48.0204 47 50.0153ZM50.18 56 5.821 56C2.606 56 0 53.4006 0 50.1938L0 47.8418C0 44.635 2.606 42.0357 5.821 42.0357L18 42.0357 18 44.0306 5.501 44.0306C3.567 44.0306 2 45.5936 2 47.5226L2 50.514C2 52.4421 3.567 54.0051 5.5 54.0051L50.499 54.0051C52.433 54.0051 54 52.4421 54 50.513L54 47.5216C54 45.5936 52.433 44.0306 50.5 44.0306L38 44.0306 38 42.0357 50.179 42.0357C53.394 42.0357 56 44.635 56 47.8418L56 50.1938C56 53.4006 53.394 56 50.18 56L50.18 56Z" id="Fill-3"/></g></g></svg>