<svg width="48" height="48" viewBox="0 0 48 48" xmlns="http://www.w3.org/2000/svg" xmlns:xlink="http://www.w3.org/1999/xlink" overflow="hidden"><g id="Icon-Resource/Database/Res_Amazon-Aurora-Oracle-Instance_48" stroke="none" stroke-width="1" fill="none" fill-rule="evenodd"><path d="M39.1755 13.039C39.1755 12.554 39.1135 12.204 38.9865 11.991 38.8605 11.779 38.6615 11.674 38.3915 11.674 37.7415 11.674 37.3995 12.233 37.3635 13.351L39.1755 13.351 39.1755 13.039ZM40.6105 14.515 37.3635 14.515C37.3915 15.163 37.5265 15.623 37.7695 15.894 38.0135 16.164 38.4095 16.3 38.9585 16.3 39.1665 16.3 39.4205 16.266 39.7235 16.198 40.0265 16.131 40.3255 16.043 40.6225 15.935L40.6225 17.166C40.3705 17.328 40.0605 17.454 39.6905 17.544 39.3205 17.635 38.9505 17.68 38.5805 17.68 36.6515 17.68 35.6865 16.471 35.6865 14.055 35.6865 12.873 35.9225 11.972 36.3955 11.349 36.8695 10.726 37.5525 10.416 38.4465 10.416 39.9785 10.416 40.7455 11.353 40.7455 13.229 40.7455 13.699 40.6985 14.127 40.6105 14.515L40.6105 14.515ZM32.3045 7.494 32.3045 15.745C32.3045 16.368 32.4385 16.83 32.7035 17.132 32.9695 17.434 33.3735 17.585 33.9135 17.585 34.3115 17.585 34.6715 17.517 34.9955 17.382L34.9955 16.138C34.8075 16.164 34.6755 16.178 34.6045 16.178 34.4235 16.178 34.3045 16.131 34.2455 16.036 34.1865 15.942 34.1575 15.776 34.1575 15.542L34.1575 7.494 32.3045 7.494ZM30.4105 17.51C30.6985 17.434 30.9385 17.328 31.1275 17.193L31.1275 15.962C30.6855 16.133 30.2795 16.218 29.9095 16.218 29.4415 16.218 29.1035 16.057 28.8965 15.732 28.6885 15.406 28.5845 14.88 28.5845 14.148L28.5845 13.96C28.5845 13.229 28.6905 12.7 28.9035 12.37 29.1135 12.041 29.4635 11.876 29.9505 11.876 30.3025 11.876 30.6855 11.953 31.1005 12.106L31.1005 10.875C30.6225 10.605 30.1175 10.47 29.5855 10.47 28.6835 10.47 27.9825 10.783 27.4835 11.41 26.9825 12.037 26.7315 12.923 26.7315 14.068 26.7315 15.231 26.9665 16.115 27.4355 16.719 27.9045 17.323 28.5945 17.626 29.5045 17.626 29.8205 17.626 30.1215 17.587 30.4105 17.51L30.4105 17.51ZM23.7685 14.623C23.5715 14.56 23.3365 14.527 23.0665 14.527 22.8045 14.527 22.6035 14.61 22.4635 14.777 22.3235 14.945 22.2545 15.185 22.2545 15.502 22.2545 15.772 22.3105 15.986 22.4235 16.144 22.5365 16.302 22.6875 16.381 22.8765 16.381 23.1735 16.381 23.4725 16.236 23.7685 15.948L23.7685 14.623ZM23.7685 13.595 23.7685 12.973C23.7685 12.504 23.7075 12.185 23.5865 12.018 23.4655 11.852 23.2375 11.768 22.9045 11.768 22.3625 11.768 21.6995 11.912 20.9155 12.2L20.9155 10.971C21.1765 10.799 21.5185 10.664 21.9435 10.564 22.3665 10.466 22.7995 10.416 23.2415 10.416 24.0265 10.416 24.5945 10.594 24.9465 10.95 25.2975 11.307 25.4735 11.876 25.4735 12.661L25.4735 17.503 24.0395 17.503 23.8775 16.881C23.7245 17.116 23.5025 17.308 23.2145 17.456 22.9255 17.605 22.6335 17.68 22.3355 17.68 21.7765 17.68 21.3345 17.496 21.0095 17.132 20.6855 16.767 20.5235 16.264 20.5235 15.623 20.5235 14.946 20.7215 14.413 21.1175 14.021 21.5145 13.628 22.0515 13.432 22.7275 13.432 23.0065 13.432 23.3545 13.485 23.7685 13.595L23.7685 13.595ZM17.8575 11.484 17.6545 10.592 16.1405 10.592 16.1405 17.503 17.9935 17.503 17.9935 12.458C18.3805 12.241 18.7915 12.134 19.2245 12.134 19.4495 12.134 19.6885 12.156 19.9415 12.2L19.9415 10.564C19.7975 10.537 19.6525 10.523 19.5085 10.523 19.2105 10.523 18.9285 10.601 18.6625 10.754 18.3975 10.907 18.1285 11.15 17.8575 11.484L17.8575 11.484ZM12.7185 12.81C12.7185 11.674 12.5695 10.831 12.2725 10.28 11.9735 9.73 11.5185 9.455 10.9045 9.455 10.2915 9.455 9.8365 9.73 9.5395 10.28 9.2405 10.831 9.0935 11.674 9.0935 12.81 9.0935 13.919 9.2465 14.758 9.5535 15.326 9.8595 15.894 10.3105 16.178 10.9045 16.178 11.5005 16.178 11.9515 15.894 12.2585 15.326 12.5655 14.758 12.7185 13.919 12.7185 12.81L12.7185 12.81ZM13.6785 9.205C14.3355 10.058 14.6655 11.259 14.6655 12.81 14.6655 14.361 14.3355 15.565 13.6785 16.421 13.0205 17.278 12.0965 17.706 10.9045 17.706 9.7155 17.706 8.7905 17.278 8.1325 16.421 7.4735 15.565 7.1455 14.361 7.1455 12.81 7.1455 11.259 7.4735 10.058 8.1325 9.205 8.7905 8.352 9.7155 7.927 10.9045 7.927 12.0965 7.927 13.0205 8.352 13.6785 9.205L13.6785 9.205ZM44.0005 30.004 44.0005 26.47C42.2715 27.413 39.6475 27.901 37.0345 27.901 34.4235 27.901 31.8005 27.413 30.0705 26.47L30.0705 30.004C30.0705 30.633 32.4405 32.107 37.0345 32.107 41.6305 32.107 44.0005 30.633 44.0005 30.004L44.0005 30.004ZM44.0005 36.101 44.0005 32.676C42.2715 33.619 39.6475 34.107 37.0345 34.107 34.4235 34.107 31.8005 33.619 30.0705 32.676L30.0705 36.101C30.0705 36.73 32.4405 38.205 37.0345 38.205 41.6305 38.205 44.0005 36.73 44.0005 36.101L44.0005 36.101ZM44.0005 41.546 44.0005 38.773C42.2715 39.717 39.6475 40.205 37.0345 40.205 34.4235 40.205 31.8005 39.717 30.0705 38.773L30.0705 41.546C30.0705 42.175 32.4405 43.649 37.0345 43.649 41.6305 43.649 44.0005 42.175 44.0005 41.546L44.0005 41.546ZM30.0705 23.798C30.0705 24.427 32.4405 25.901 37.0345 25.901 41.6305 25.901 44.0005 24.427 44.0005 23.798 44.0005 23.169 41.6305 21.694 37.0345 21.694 32.4405 21.694 30.0705 23.169 30.0705 23.798L30.0705 23.798ZM46.0005 23.798 46.0005 41.546C46.0005 44.24 41.4895 45.649 37.0345 45.649 32.5795 45.649 28.0705 44.24 28.0705 41.546L28.0705 23.798C28.0705 21.103 32.5795 19.694 37.0345 19.694 41.4895 19.694 46.0005 21.103 46.0005 23.798L46.0005 23.798ZM7.7545 43.89 27.4355 43.89 27.4355 45.89 7.7545 45.89C4.5815 45.89 1.9995 43.309 1.9995 40.136L1.9995 7.755C1.9995 4.582 4.5815 2 7.7545 2L40.1355 2C43.3085 2 45.8895 4.582 45.8895 7.755L45.8895 20.454 43.8895 20.454 43.8895 7.755C43.8895 5.685 42.2055 4 40.1355 4L7.7545 4C5.6845 4 3.9995 5.685 3.9995 7.755L3.9995 40.136C3.9995 42.206 5.6845 43.89 7.7545 43.89L7.7545 43.89Z" id="Amazon-DATABASEAmazon-Aurora-Oracle-instance_Resource-Icon_light-bg" fill="#C925D1"/></g></svg>