<svg width="80" height="80" viewBox="0 0 80 80" xmlns="http://www.w3.org/2000/svg" xmlns:xlink="http://www.w3.org/1999/xlink" overflow="hidden"><g id="Icon-Architecture/64/Arch_Amazon-Cognito_64" stroke="none" stroke-width="1" fill="none" fill-rule="evenodd"><g id="Icon-Architecture-BG/64/Security-Identity-Compliance" fill="#DD344C"><rect x="0" y="0" width="80" height="80" id="Rectangle"/></g><path d="M16.9636 35.8079 29.8688 35.8079 29.8688 33.8254 16.9636 33.8254 16.9636 35.8079ZM61.3755 50.2309 62.7792 51.6325 55.4073 58.9937C55.2128 59.187 54.9586 59.2842 54.7055 59.2842 54.4514 59.2842 54.1972 59.187 54.0036 58.9937L50.2949 55.2913 51.6986 53.8897 54.7055 56.8912 61.3755 50.2309ZM65.944 55.6938C65.7176 57.5574 64.9592 59.2911 63.7471 60.7086 62.8864 61.7157 61.7994 62.5484 60.6042 63.1154 59.0009 63.8757 57.22 64.1642 55.446 63.9481 53.7207 63.7379 52.0947 63.0579 50.7396 61.9824 48.1367 59.9156 46.8224 56.7108 47.2224 53.4089 47.6006 50.2884 49.4918 47.5664 52.2803 46.127 53.6165 45.4381 55.0797 45.0842 56.5698 45.0842 56.952 45.0842 57.3372 45.108 57.7213 45.1546 60.8345 45.5343 63.5496 47.4365 64.981 50.2428 65.8397 51.926 66.1723 53.8114 65.944 55.6938L65.944 55.6938ZM66.7501 49.3437C65.0178 45.9476 61.7319 43.6459 57.9616 43.1869 55.6813 42.9084 53.403 43.3168 51.369 44.3656 47.9957 46.1062 45.7085 49.3982 45.2509 53.171 44.7684 57.1609 46.3578 61.0357 49.5047 63.5347 51.1456 64.8372 53.1171 65.661 55.2048 65.9157 55.6674 65.9722 56.13 66 56.5916 66 58.2713 66 59.9301 65.6293 61.4559 64.9056 62.9023 64.2197 64.2177 63.2126 65.257 61.9953 66.7233 60.2804 67.6425 58.1838 67.9155 55.9317 68.1915 53.6567 67.7884 51.3788 66.7501 49.3437L66.7501 49.3437ZM26.8907 41.7555 30.8615 41.7555 30.8615 39.773 26.8907 39.773 26.8907 41.7555ZM16.9636 41.7555 24.9053 41.7555 24.9053 39.773 16.9636 39.773 16.9636 41.7555ZM16.1059 15.9825 60.5079 15.9825C61.6773 15.9825 62.6283 17.1393 62.6283 18.5608L62.6283 25.8952 59.6502 25.8952 59.6502 20.9389C59.6502 20.3917 59.2064 19.9476 58.6575 19.9476L35.8251 19.9476C35.2761 19.9476 34.8324 20.3917 34.8324 20.9389L34.8324 25.8952 13.9854 25.8952 13.9854 18.5608C13.9854 17.1631 14.9573 15.9825 16.1059 15.9825L16.1059 15.9825ZM47.2562 25.6078C49.5613 25.6078 51.4365 27.4614 51.4365 29.7394 51.4365 31.2411 50.6076 32.623 49.2734 33.3466 48.0067 34.0336 46.4799 34.0246 45.23 33.3476 43.9008 32.622 43.0759 31.2402 43.0759 29.7394 43.0759 27.4614 44.9501 25.6078 47.2562 25.6078L47.2562 25.6078ZM13.9854 47.1084 13.9854 27.8778 34.8324 27.8778 34.8324 44.7293C34.8324 45.2775 35.2761 45.7206 35.8251 45.7206L46.2029 45.7206 46.2029 43.7381 37.9118 43.7381C37.9981 39.771 40.6358 36.3442 44.4339 35.2498 46.189 36.0696 48.2846 36.0775 50.0665 35.2488 52.2287 35.8733 54.1208 37.3176 55.2932 39.2536L56.9917 38.2266C55.7885 36.2431 53.9629 34.6947 51.8455 33.7947 52.8382 32.6943 53.4219 31.263 53.4219 29.7394 53.4219 26.3681 50.6552 23.6252 47.2562 23.6252 43.8561 23.6252 41.0904 26.3681 41.0904 29.7394 41.0904 31.257 41.6682 32.6834 42.654 33.7838 40.0004 34.8999 37.9277 36.9925 36.8178 39.5728L36.8178 21.9302 57.6648 21.9302 57.6648 37.7905 59.6502 37.7905 59.6502 27.8778 62.6283 27.8778 62.6293 42.7468 64.6147 42.7468 64.6137 18.5608C64.6137 16.046 62.7723 14 60.5079 14L16.1059 14C13.8415 14 12 16.046 12 18.5608L12 47.1084C12 49.6232 13.8415 51.6682 16.1059 51.6682L42.7741 51.6682 42.7741 49.6857 16.1059 49.6857C14.9573 49.6857 13.9854 48.5061 13.9854 47.1084L13.9854 47.1084Z" id="Amazon-Cognito_Icon_64_Squid" fill="#FFFFFF"/></g></svg>