<svg width="48" height="48" viewBox="0 0 48 48" xmlns="http://www.w3.org/2000/svg" xmlns:xlink="http://www.w3.org/1999/xlink" overflow="hidden"><g id="Icon-Resource/Machine-Learning/Res_Amazon-SageMaker_Train_48" stroke="none" stroke-width="1" fill="none" fill-rule="evenodd"><path d="M6.464 31.135 26.571 31.135 26.571 29.135 6.464 29.135 6.464 31.135ZM6.464 36.724 26.571 36.724 26.571 34.724 6.464 34.724 6.464 36.724ZM43.666 31.431 36.481 24.245C35.995 24.838 35.446 25.377 34.849 25.859L42.044 33.053C42.49 33.499 43.218 33.501 43.666 33.053 44.113 32.606 44.113 31.878 43.666 31.431L43.666 31.431ZM29.252 28.241C28.79 28.3 28.323 28.34 27.846 28.34 25.059 28.34 22.515 27.308 20.556 25.614L6.464 25.614 6.464 23.614 18.738 23.614C18.023 22.608 17.473 21.48 17.121 20.265L4 20.265 4 39.968 29.252 39.968 29.252 28.241ZM18.676 17.17C18.676 22.227 22.789 26.34 27.846 26.34 32.902 26.34 37.016 22.227 37.016 17.17 37.016 12.114 32.902 8 27.846 8 22.789 8 18.676 12.114 18.676 17.17L18.676 17.17ZM45.999 32.241C45.999 33.084 45.673 33.874 45.08 34.467 44.467 35.08 43.661 35.387 42.854 35.387 42.049 35.387 41.243 35.08 40.63 34.467L33.157 26.994C32.554 27.322 31.916 27.592 31.252 27.805L31.252 40.968C31.252 41.521 30.805 41.968 30.252 41.968L3 41.968C2.447 41.968 2 41.521 2 40.968L2 19.265C2 18.712 2.447 18.265 3 18.265L16.731 18.265C16.696 17.905 16.676 17.539 16.676 17.17 16.676 11.011 21.686 6 27.846 6 34.005 6 39.016 11.011 39.016 17.17 39.016 19.124 38.509 20.96 37.624 22.559L45.08 30.017C45.673 30.61 45.999 31.4 45.999 32.241L45.999 32.241ZM25.178 21.835 21.769 18.973 23.057 17.442 25.746 19.7 32.391 12.745 33.837 14.126 26.544 21.76C26.349 21.965 26.085 22.07 25.821 22.07 25.594 22.07 25.365 21.992 25.178 21.835L25.178 21.835Z" id="Amazon-Machine-Learning_Train-Icon_light-bg" fill="#01A88D"/></g></svg>