<svg width="48" height="48" viewBox="0 0 48 48" xmlns="http://www.w3.org/2000/svg" xmlns:xlink="http://www.w3.org/1999/xlink" overflow="hidden"><g id="Icon-Resource/Database/Res_Amazon-Aurora-Oracle-Instance-Alternate_48" stroke="none" stroke-width="1" fill="none" fill-rule="evenodd"><path d="M43.9084 39.461C43.9084 41.914 41.9134 43.909 39.4614 43.909L8.4474 43.909C5.9954 43.909 4.0004 41.914 4.0004 39.461L4.0004 8.448C4.0004 5.995 5.9954 4 8.4474 4L39.4614 4C41.9134 4 43.9084 5.995 43.9084 8.448L43.9084 39.461ZM39.4614 2 8.4474 2C4.8924 2 2.0004 4.893 2.0004 8.448L2.0004 39.461C2.0004 43.017 4.8924 45.909 8.4474 45.909L39.4614 45.909C43.0154 45.909 45.9084 43.017 45.9084 39.461L45.9084 8.448C45.9084 4.893 43.0154 2 39.4614 2L39.4614 2ZM39.1844 13.361 37.3734 13.361C37.4084 12.243 37.7514 11.684 38.4004 11.684 38.6714 11.684 38.8694 11.789 38.9954 12.001 39.1214 12.214 39.1844 12.564 39.1844 13.049L39.1844 13.361ZM40.7554 13.239C40.7554 11.363 39.9874 10.426 38.4554 10.426 37.5614 10.426 36.8794 10.736 36.4044 11.358 35.9314 11.982 35.6954 12.883 35.6954 14.065 35.6954 16.482 36.6604 17.69 38.5904 17.69 38.9604 17.69 39.3294 17.645 39.6994 17.554 40.0694 17.464 40.3804 17.338 40.6324 17.176L40.6324 15.945C40.3354 16.053 40.0354 16.141 39.7324 16.208 39.4294 16.275 39.1764 16.31 38.9684 16.31 38.4184 16.31 38.0224 16.174 37.7784 15.904 37.5344 15.633 37.4004 15.173 37.3734 14.524L40.6194 14.524C40.7084 14.137 40.7554 13.709 40.7554 13.239L40.7554 13.239ZM34.6134 16.188C34.6844 16.188 34.8164 16.174 35.0054 16.148L35.0054 17.393C34.6804 17.526 34.3204 17.595 33.9234 17.595 33.3834 17.595 32.9784 17.443 32.7134 17.142 32.4464 16.84 32.3134 16.378 32.3134 15.755L32.3134 7.504 34.1674 7.504 34.1674 15.552C34.1674 15.786 34.1954 15.952 34.2544 16.046 34.3134 16.141 34.4324 16.188 34.6134 16.188L34.6134 16.188ZM29.9194 16.228C30.2894 16.228 30.6944 16.143 31.1374 15.972L31.1374 17.203C30.9474 17.338 30.7084 17.443 30.4204 17.52 30.1314 17.597 29.8294 17.636 29.5134 17.636 28.6034 17.636 27.9134 17.333 27.4444 16.73 26.9754 16.125 26.7404 15.241 26.7404 14.078 26.7404 12.934 26.9904 12.047 27.4924 11.42 27.9914 10.793 28.6924 10.48 29.5954 10.48 30.1274 10.48 30.6324 10.615 31.1094 10.885L31.1094 12.117C30.6944 11.963 30.3104 11.886 29.9604 11.886 29.4724 11.886 29.1234 12.051 28.9124 12.38 28.6994 12.71 28.5944 13.239 28.5944 13.97L28.5944 14.158C28.5944 14.89 28.6974 15.417 28.9054 15.742 29.1124 16.066 29.4504 16.228 29.9194 16.228L29.9194 16.228ZM23.7774 15.958C23.4814 16.247 23.1824 16.391 22.8864 16.391 22.6964 16.391 22.5454 16.312 22.4324 16.154 22.3194 15.996 22.2634 15.782 22.2634 15.512 22.2634 15.196 22.3334 14.955 22.4724 14.787 22.6124 14.621 22.8124 14.537 23.0754 14.537 23.3464 14.537 23.5804 14.569 23.7774 14.633L23.7774 15.958ZM23.2514 10.426C22.8084 10.426 22.3764 10.476 21.9524 10.574 21.5274 10.674 21.1854 10.809 20.9254 10.981L20.9254 12.211C21.7084 11.922 22.3714 11.778 22.9134 11.778 23.2464 11.778 23.4744 11.861 23.5964 12.028 23.7174 12.195 23.7774 12.514 23.7774 12.982L23.7774 13.605C23.3634 13.496 23.0154 13.442 22.7364 13.442 22.0604 13.442 21.5234 13.638 21.1274 14.031 20.7304 14.423 20.5324 14.956 20.5324 15.633 20.5324 16.274 20.6944 16.776 21.0184 17.142 21.3444 17.506 21.7854 17.69 22.3444 17.69 22.6424 17.69 22.9344 17.615 23.2234 17.466 23.5124 17.317 23.7334 17.126 23.8874 16.891L24.0494 17.513 25.4824 17.513 25.4824 12.671C25.4824 11.886 25.3064 11.316 24.9554 10.96 24.6034 10.604 24.0354 10.426 23.2514 10.426L23.2514 10.426ZM19.5174 10.533C19.6614 10.533 19.8064 10.547 19.9504 10.574L19.9504 12.211C19.6974 12.166 19.4594 12.144 19.2334 12.144 18.8014 12.144 18.3894 12.251 18.0034 12.468L18.0034 17.513 16.1494 17.513 16.1494 10.602 17.6644 10.602 17.8664 11.494C18.1374 11.16 18.4064 10.917 18.6724 10.764 18.9374 10.61 19.2204 10.533 19.5174 10.533L19.5174 10.533ZM12.2674 15.336C11.9614 15.904 11.5104 16.188 10.9144 16.188 10.3194 16.188 9.8684 15.904 9.5624 15.336 9.2564 14.768 9.1014 13.929 9.1014 12.819 9.1014 11.684 9.2504 10.841 9.5494 10.29 9.8454 9.74 10.3014 9.465 10.9144 9.465 11.5274 9.465 11.9824 9.74 12.2814 10.29 12.5784 10.841 12.7274 11.684 12.7274 12.819 12.7274 13.929 12.5744 14.768 12.2674 15.336L12.2674 15.336ZM10.9144 7.937C9.7244 7.937 8.8004 8.362 8.1414 9.215 7.4824 10.067 7.1534 11.269 7.1534 12.819 7.1534 14.371 7.4824 15.575 8.1414 16.431 8.8004 17.288 9.7244 17.716 10.9144 17.716 12.1054 17.716 13.0294 17.288 13.6874 16.431 14.3454 15.575 14.6754 14.371 14.6754 12.819 14.6754 11.269 14.3454 10.067 13.6874 9.215 13.0294 8.362 12.1054 7.937 10.9144 7.937L10.9144 7.937Z" id="Amazon-DATABASEAmazon-Aurora-Oracle-instance-alternate_Resource-Icon_light-bg" fill="#C925D1"/></g></svg>