<svg width="80" height="80" viewBox="0 0 80 80" xmlns="http://www.w3.org/2000/svg" xmlns:xlink="http://www.w3.org/1999/xlink" overflow="hidden"><g id="Icon-Architecture/64/Arch_AWS-IoT-TwinMaker_64" stroke="none" stroke-width="1" fill="none" fill-rule="evenodd"><g id="Icon-Architecture-BG/64/Internet-of-Things" fill="#7AA116"><rect x="0" y="0" width="80" height="80" id="Rectangle"/></g><g id="Icon-Service/64/AWS-IoT-TwinMaker_64" fill="#FFFFFF" transform="translate(12 11.9999)"><path d="M44.96 28.9631 44.96 25.9631 41.96 25.9631 41.96 23.9631 45.96 23.9631C46.513 23.9631 46.96 24.4111 46.96 24.9631L46.96 28.9631 44.96 28.9631ZM44.96 42.9631 46.96 42.9631 46.96 46.9631C46.96 47.5161 46.513 47.9631 45.96 47.9631L41.96 47.9631 41.96 45.9631 44.96 45.9631 44.96 42.9631ZM23.96 23.9631 27.96 23.9631 27.96 25.9631 24.96 25.9631 24.96 28.9631 22.96 28.9631 22.96 24.9631C22.96 24.4111 23.408 23.9631 23.96 23.9631L23.96 23.9631ZM31.96 25.9631 37.96 25.9631 37.96 23.9631 31.96 23.9631 31.96 25.9631ZM11.96 53.9631 31.96 53.9631 31.96 33.9631 11.96 33.9631 11.96 53.9631ZM55.96 26.8601C55.96 18.9901 49.969 16.6161 47.152 15.9371 46.725 12.1251 44.769 9.38509 41.839 8.54809 39.768 7.95709 37.599 8.48209 35.953 9.89309 35.08 7.86709 33.936 6.11609 32.538 4.67209 28.026 0.0100939 21.85-1.25391 16.019 1.29109 11.056 3.45609 7.313 9.42809 7.313 15.1811 7.313 15.5251 7.324 15.8701 7.346 16.2141 4.635 17.1331 0 19.7361 0 26.7751 0 27.2231 0.02 27.6551 0.058 28.0711 0.517 33.1081 4.837 37.2731 9.96 37.8791L9.96 54.9631C9.96 55.5161 10.408 55.9631 10.96 55.9631L32.96 55.9631C33.513 55.9631 33.96 55.5161 33.96 54.9631L33.96 47.9631 37.96 47.9631 37.96 45.9631 33.96 45.9631 33.96 32.9631C33.96 32.4101 33.513 31.9631 32.96 31.9631L10.96 31.9631C10.408 31.9631 9.96 32.4101 9.96 32.9631L9.96 35.8621C5.848 35.2731 2.418 31.9271 2.05 27.8901 2.017 27.5321 2 27.1611 2 26.7751 2 20.6541 6.087 18.6051 8.587 17.9251 9.106 17.8351 9.469 17.3541 9.408 16.8251 9.345 16.2831 9.313 15.7301 9.313 15.1811 9.313 10.2561 12.61 4.96009 16.818 3.12409 24.076-0.0429061 29.224 4.12409 31.101 6.06309 32.634 7.64809 33.828 9.67109 34.652 12.0751 34.774 12.4291 35.083 12.6861 35.453 12.7401 35.826 12.7941 36.193 12.6381 36.411 12.3341 37.589 10.6921 39.504 9.96009 41.289 10.4711 43.509 11.1061 44.969 13.3961 45.207 16.6071L45.206 16.6111C45.127 17.1471 45.488 17.6481 46.021 17.7421 48.408 18.1651 53.96 19.9001 53.96 26.8601 53.96 33.4211 49.11 35.2761 46.96 35.7801L46.96 31.9631 44.96 31.9631 44.96 36.9621 44.959 37.9621 44.96 37.9621 44.96 39.9631 46.96 39.9631 46.96 37.8071C49.423 37.2911 55.96 35.1401 55.96 26.8601L55.96 26.8601Z" id="Fill-1"/></g></g></svg>