<svg width="48" height="48" viewBox="0 0 48 48" xmlns="http://www.w3.org/2000/svg" xmlns:xlink="http://www.w3.org/1999/xlink" overflow="hidden"><g id="Icon-Resource/Application-Integration/Res_Amazon-EventBridge_Scheduler_48" stroke="none" stroke-width="1" fill="none" fill-rule="evenodd"><path d="M15 16 18.92 16 18.92 14 15.92 14 15.92 11 14 11 14 15C14 15.552 14.447 16 15 16L15 16ZM5.293 24.293 6.707 25.707 9.707 22.707 8.293 21.293 5.293 24.293ZM8.707 8.293 5.707 5.293 4.293 6.707 7.293 9.707 8.707 8.293ZM15.92 6 16 6 16 2 15.92 2 14 2 14 6 15.92 6ZM25.707 6.707 24.293 5.293 21.293 8.293 22.707 9.707 25.707 6.707ZM8.92 15C8.92 18.309 11.611 21 14.92 21 18.229 21 20.92 18.309 20.92 15 20.92 11.691 18.229 9 14.92 9 11.611 9 8.92 11.691 8.92 15L8.92 15ZM6.92 15C6.92 10.589 10.509 7 14.92 7 19.331 7 22.92 10.589 22.92 15 22.92 19.411 19.331 23 14.92 23 10.509 23 6.92 19.411 6.92 15L6.92 15ZM18 38 22 38 22 36 18 36 18 38ZM18 33 22 33 22 31 18 31 18 33ZM18 28 22 28 22 26 18 26 18 28ZM36 38 40 38 40 36 36 36 36 38ZM36 33 40 33 40 31 36 31 36 33ZM36 28 40 28 40 26 36 26 36 28ZM27 38 31 38 31 36 27 36 27 38ZM27 33 31 33 31 31 27 31 27 33ZM27 28 31 28 31 26 27 26 27 28ZM45 12 42 12 42 10 40 10 40 12 35.92 12 35.92 10 34 10 34 12 29.92 12 29.92 10 28 10 28 12 25 12 25 14 28 14 28 16 29.92 16 29.92 14 34 14 34 16 35.92 16 35.92 14 40 14 40 16 41.92 16 41.92 14 44 14 44 18 25 18 25 20 44 20 44 43 14 43 14 26 12 26 12 44C12 44.552 12.447 45 13 45L45 45C45.553 45 46 44.552 46 44L46 19 46 13C46 12.448 45.553 12 45 12L45 12ZM2 17 5.976 17 5.976 15 2 15 2 17Z" id="Fill-1" fill="#E7157B"/></g></svg>