<svg width="48" height="48" viewBox="0 0 48 48" xmlns="http://www.w3.org/2000/svg" xmlns:xlink="http://www.w3.org/1999/xlink" overflow="hidden"><g id="Icon-Resource/Quantum-Technologies/Res_Amazon-Braket_Chandelier_48" stroke="none" stroke-width="1" fill="none" fill-rule="evenodd"><path d="M22 44 26 44 26 41 22 41 22 44ZM28 40 28 45C28 45.552 27.553 46 27 46L21 46C20.447 46 20 45.552 20 45L20 40C20 39.448 20.447 39 21 39L27 39C27.553 39 28 39.448 28 40L28 40ZM11 2 9 2 9 7C9 7.552 9.447 8 10 8L13 8 13 6 11 6 11 2ZM37 2 37 6 35 6 35 8 38 8C38.553 8 39 7.552 39 7L39 2 37 2ZM14 31 34 31 34 29 14 29 14 31ZM14 16 34 16 34 14 14 14 14 16ZM30 27 32 27 32 18 30 18 30 27ZM26 27 28 27 28 18 26 18 26 27ZM20 27 22 27 22 18 20 18 20 27ZM16 27 18 27 18 18 16 18 16 27ZM32 12 32 3 30 3 30 12 30 13 32 13 32 12ZM26 13 28 13 28 3 26 3 26 13ZM25 37 27 37 27 32 25 32 25 37ZM21 37 23 37 23 32 21 32 21 37ZM20 13 22 13 22 3 20 3 20 13ZM18 13 16 13 16 12 16 3 18 3 18 12 18 13Z" id="Fill-1" fill="#ED7100"/></g></svg>