<svg width="48" height="48" viewBox="0 0 48 48" xmlns="http://www.w3.org/2000/svg" xmlns:xlink="http://www.w3.org/1999/xlink" overflow="hidden"><g id="Icon-Resource/Quantum-Technologies/Res_Amazon-Braket_Simulator-2_48" stroke="none" stroke-width="1" fill="none" fill-rule="evenodd"><path d="M9 39 39 39 39 9 9 9 9 39ZM41 13 41 17 46 17 46 19 41 19 41 23 46 23 46 25 41 25 41 29 46 29 46 31 41 31 41 35 46 35 46 37 41 37 41 40C41 40.552 40.553 41 40 41L37 41 37 46 35 46 35 41 31 41 31 46 29 46 29 41 25 41 25 46 23 46 23 41 19 41 19 46 17 46 17 41 13 41 13 46 11 46 11 41 8 41C7.447 41 7 40.552 7 40L7 37 2 37 2 35 7 35 7 31 2 31 2 29 7 29 7 25 2 25 2 23 7 23 7 19 2 19 2 17 7 17 7 13 2 13 2 11 7 11 7 8C7 7.448 7.447 7 8 7L11 7 11 2 13 2 13 7 17 7 17 2 19 2 19 7 23 7 23 2 25 2 25 7 29 7 29 2 31 2 31 7 35 7 35 2 37 2 37 7 40 7C40.553 7 41 7.448 41 8L41 11 46 11 46 13 41 13ZM34.655 23.921C33.553 23.921 32.655 23.024 32.655 21.921 32.655 20.818 33.553 19.921 34.655 19.921 35.758 19.921 36.655 20.818 36.655 21.921 36.655 23.024 35.758 23.921 34.655 23.921L34.655 23.921ZM24.146 33.909C23.943 31.892 22.256 30.305 20.186 30.305 19.086 30.305 18.09 30.751 17.366 31.471 15.164 29.567 13.899 26.854 13.899 23.921 13.899 22.237 14.339 20.614 15.135 19.154 15.631 19.375 16.177 19.503 16.754 19.503 18.96 19.503 20.754 17.708 20.754 15.503 20.754 15.148 20.692 14.81 20.605 14.482 21.659 14.113 22.762 13.921 23.899 13.921 27.399 13.921 30.554 15.717 32.372 18.645 31.337 19.369 30.655 20.565 30.655 21.921 30.655 23.802 31.965 25.374 33.717 25.798 32.85 30.339 28.906 33.792 24.146 33.909L24.146 33.909ZM22.147 34.693 22.147 34.694C21.965 35.627 21.14 36.305 20.186 36.305 19.083 36.305 18.186 35.408 18.186 34.305 18.186 33.202 19.083 32.305 20.186 32.305 21.288 32.305 22.186 33.202 22.186 34.305 22.186 34.437 22.173 34.568 22.147 34.693L22.147 34.693ZM16.754 13.503C17.856 13.503 18.754 14.4 18.754 15.503 18.754 16.606 17.856 17.503 16.754 17.503 15.651 17.503 14.754 16.606 14.754 15.503 14.754 14.4 15.651 13.503 16.754 13.503L16.754 13.503ZM38.655 21.921C38.655 19.716 36.861 17.921 34.655 17.921 34.537 17.921 34.426 17.946 34.311 17.956 32.172 14.216 28.25 11.921 23.899 11.921 22.417 11.921 20.984 12.202 19.621 12.724 18.894 11.974 17.879 11.503 16.754 11.503 14.548 11.503 12.754 13.297 12.754 15.503 12.754 16.389 13.053 17.201 13.542 17.864 12.468 19.698 11.899 21.775 11.899 23.921 11.899 27.57 13.524 30.941 16.35 33.233 16.254 33.576 16.186 33.931 16.186 34.305 16.186 36.511 17.979 38.305 20.186 38.305 21.843 38.305 23.303 37.28 23.899 35.786L23.899 35.921C29.893 35.921 34.859 31.5 35.745 25.751 37.419 25.273 38.655 23.747 38.655 21.921L38.655 21.921ZM23.899 25.921C22.797 25.921 21.899 25.024 21.899 23.921 21.899 22.818 22.797 21.921 23.899 21.921 25.002 21.921 25.899 22.818 25.899 23.921 25.899 25.024 25.002 25.921 23.899 25.921L23.899 25.921ZM23.899 19.921C21.693 19.921 19.899 21.716 19.899 23.921 19.899 26.127 21.693 27.921 23.899 27.921 26.105 27.921 27.899 26.127 27.899 23.921 27.899 21.716 26.105 19.921 23.899 19.921L23.899 19.921Z" id="Fill-1" fill="#ED7100"/></g></svg>