<svg width="48" height="48" viewBox="0 0 48 48" xmlns="http://www.w3.org/2000/svg" xmlns:xlink="http://www.w3.org/1999/xlink" overflow="hidden"><g id="Icon-Resource/Security-Identity-and-Compliance/Res_AWS-Identity-Access-Management_Permissions_48" stroke="none" stroke-width="1" fill="none" fill-rule="evenodd"><path d="M20.2899 18.04 21.7039 19.454 14.7059 26.452C14.5109 26.647 14.2549 26.745 13.9989 26.745 13.7429 26.745 13.4869 26.647 13.2919 26.452L9.7919 22.953 11.2059 21.539 13.9989 24.331 20.2899 18.04ZM20.2899 6.667 21.7039 8.081 14.7059 15.079C14.5109 15.274 14.2549 15.372 13.9989 15.372 13.7429 15.372 13.4869 15.274 13.2919 15.079L9.7919 11.58 11.2059 10.166 13.9989 12.958 20.2899 6.667ZM19.9549 32.576 16.7259 35.806 19.9549 39.035 18.5409 40.449 15.3109 37.22 12.0809 40.449 10.6669 39.035 13.8969 35.806 10.6669 32.576 12.0809 31.162 15.3109 34.392 18.5409 31.162 19.9549 32.576ZM39.2429 43.186C39.2429 43.63 38.8819 43.991 38.4379 43.991L8.8059 43.991C8.3609 43.991 7.9999 43.63 7.9999 43.186L7.9999 4.806C7.9999 4.361 8.3609 4 8.8059 4L38.4379 4C38.8819 4 39.2429 4.361 39.2429 4.806L39.2429 43.186ZM38.4379 2 8.8059 2C7.2589 2 5.9999 3.259 5.9999 4.806L5.9999 43.186C5.9999 44.732 7.2589 45.991 8.8059 45.991L38.4379 45.991C39.9849 45.991 41.2429 44.732 41.2429 43.186L41.2429 4.806C41.2429 3.259 39.9849 2 38.4379 2L38.4379 2Z" id="AWS-Identity-and-Access-Management_Permissions_Resource-Icon_light-bg" fill="#DD344C"/></g></svg>