<svg width="48" height="48" viewBox="0 0 48 48" xmlns="http://www.w3.org/2000/svg" xmlns:xlink="http://www.w3.org/1999/xlink" overflow="hidden"><g id="Icon-Resource/Machine-Learning/Res_Amazon-SageMaker_Geospatial-ML_48" stroke="none" stroke-width="1" fill="none" fill-rule="evenodd"><path d="M31 35.5C31 33.019 33.019 31 35.5 31 37.981 31 40 33.019 40 35.5 40 37.981 37.981 40 35.5 40 33.019 40 31 37.981 31 35.5L31 35.5ZM42 35.5C42 31.916 39.084 29 35.5 29 31.916 29 29 31.916 29 35.5 29 39.084 31.916 42 35.5 42 36.932 42 38.252 41.529 39.328 40.742L44.293 45.707 45.707 44.293 40.742 39.328C41.529 38.252 42 36.932 42 35.5L42 35.5ZM8.646 36.795C10.345 36.298 12.368 35.888 14.616 35.589 15.59 38.783 16.954 41.42 18.595 43.238 14.655 42.129 11.201 39.856 8.646 36.795L8.646 36.795ZM18.595 4.762C16.954 6.58 15.589 9.217 14.616 12.411 12.368 12.112 10.345 11.703 8.645 11.206 11.2 8.145 14.655 5.871 18.595 4.762L18.595 4.762ZM39.354 11.205C37.655 11.702 35.632 12.112 33.384 12.411 32.41 9.217 31.046 6.58 29.405 4.762 33.345 5.871 36.799 8.144 39.354 11.205L39.354 11.205ZM33.912 14.362C36.469 14.009 38.737 13.512 40.624 12.899 42.579 15.816 43.764 19.278 43.949 23L34.976 23C34.909 19.894 34.536 16.979 33.912 14.362L33.912 14.362ZM25 14.985C27.409 14.956 29.733 14.827 31.905 14.6 32.531 17.139 32.906 19.997 32.976 23L25 23 25 14.985ZM13.024 25C13.091 28.106 13.464 31.021 14.088 33.638 11.531 33.991 9.263 34.488 7.376 35.101 5.422 32.184 4.236 28.722 4.051 25L13.024 25ZM13.024 23 4.051 23C4.236 19.278 5.421 15.816 7.376 12.899 9.263 13.512 11.532 14.009 14.088 14.362 13.464 16.98 13.091 19.894 13.024 23L13.024 23ZM23 14.985 23 23 15.024 23C15.094 19.997 15.469 17.139 16.095 14.6 18.267 14.827 20.591 14.956 23 14.985L23 14.985ZM23 4.139 23 12.984C20.806 12.956 18.663 12.844 16.651 12.644 18.111 8.048 20.406 4.81 23 4.139L23 4.139ZM25 4.139C27.594 4.81 29.889 8.048 31.349 12.644 29.337 12.844 27.194 12.956 25 12.984L25 4.139ZM23 33.015C20.591 33.044 18.267 33.173 16.095 33.4 15.469 30.861 15.094 28.003 15.024 25L23 25 23 33.015ZM16.651 35.356C18.663 35.156 20.806 35.044 23 35.016L23 43.861C20.406 43.19 18.111 39.952 16.651 35.356L16.651 35.356ZM25 43.955 25 25 43.954 25C43.847 27.173 43.415 29.293 42.622 31.311L44.483 32.042C45.49 29.481 46 26.776 46 24 46 11.869 36.131 2 24 2 11.869 2 2 11.869 2 24 2 36.131 11.869 46 24 46 26.676 46 29.29 45.525 31.771 44.588L31.064 42.717C29.121 43.451 27.084 43.853 25 43.955L25 43.955Z" id="Fill-1" fill="#01A88D"/></g></svg>