<svg width="48" height="48" viewBox="0 0 48 48" xmlns="http://www.w3.org/2000/svg" xmlns:xlink="http://www.w3.org/1999/xlink" overflow="hidden"><g id="Icon-Resource/Networking-and-Content-Delivery/Res_Amazon-Route-53_Resolver-Query-Logging_48" stroke="none" stroke-width="1" fill="none" fill-rule="evenodd"><path d="M17.002 24.9645 31.002 24.9645 31.002 22.9645 17.002 22.9645 17.002 24.9645ZM17.002 30.9645 31.002 30.9645 31.002 28.9645 17.002 28.9645 17.002 30.9645ZM17.002 18.9645 31.002 18.9645 31.002 16.9645 17.002 16.9645 17.002 18.9645ZM16.002 34.9645 32.002 34.9645 32.002 12.9645 16.002 12.9645 16.002 34.9645ZM33.002 10.9645 15.002 10.9645C14.449 10.9645 14.002 11.4115 14.002 11.9645L14.002 35.9645C14.002 36.5165 14.449 36.9645 15.002 36.9645L33.002 36.9645C33.555 36.9645 34.002 36.5165 34.002 35.9645L34.002 11.9645C34.002 11.4115 33.555 10.9645 33.002 10.9645L33.002 10.9645ZM34.055 39.4255C29.392 40.2625 25.459 42.7195 23.991 43.7305 22.523 42.7195 18.592 40.2625 13.929 39.4255 11.6 39.0075 4 37.1485 4 30.7995 4 28.1465 5.004 26.4175 6.066 24.5865 7.064 22.8675 8.096 21.0905 8.096 18.6595 8.096 14.9955 6.07 12.3625 4.94 11.1785 6.094 9.7755 8.634 6.6775 10.025 4.8955 12.146 6.8285 14.594 7.8805 17.019 7.8805 19.718 7.8805 21.959 6.8155 23.991 4.5475 26.023 6.8155 28.265 7.8805 30.965 7.8805 33.389 7.8805 35.837 6.8285 37.957 4.8955 39.35 6.6775 41.889 9.7755 43.043 11.1785 41.913 12.3625 39.888 14.9955 39.888 18.6595 39.888 21.0905 40.919 22.8675 41.917 24.5865 42.979 26.4175 43.983 28.1465 43.983 30.7995 43.983 37.1485 36.384 39.0075 34.055 39.4255L34.055 39.4255ZM43.646 23.5825C42.703 21.9565 41.888 20.5525 41.888 18.6595 41.888 14.6615 45.007 12.0635 45.036 12.0395 45.243 11.8715 45.375 11.6275 45.402 11.3615 45.429 11.0955 45.349 10.8305 45.179 10.6245 45.127 10.5625 40.034 4.3925 38.87 2.7965 38.694 2.5555 38.421 2.4065 38.123 2.3875 37.829 2.3705 37.535 2.4855 37.332 2.7025 35.416 4.7525 33.155 5.8805 30.965 5.8805 28.55 5.8805 26.644 4.7985 24.785 2.3705 24.406 1.8765 23.576 1.8765 23.197 2.3705 21.339 4.7985 19.434 5.8805 17.019 5.8805 14.828 5.8805 12.566 4.7525 10.65 2.7025 10.446 2.4855 10.137 2.3655 9.859 2.3875 9.562 2.4065 9.287 2.5555 9.112 2.7965 7.949 4.3925 2.856 10.5625 2.805 10.6245 2.636 10.8295 2.557 11.0945 2.582 11.3595 2.608 11.6245 2.739 11.8685 2.945 12.0375 2.977 12.0635 6.096 14.6615 6.096 18.6595 6.096 20.5525 5.28 21.9565 4.337 23.5825 3.241 25.4695 2 27.6085 2 30.7995 2 36.1315 6.327 40.0925 13.575 41.3935 18.888 42.3475 23.338 45.7215 23.383 45.7555 23.562 45.8925 23.776 45.9615 23.991 45.9615 24.206 45.9615 24.421 45.8925 24.6 45.7555 24.645 45.7215 29.095 42.3475 34.408 41.3935 41.656 40.0925 45.983 36.1315 45.983 30.7995 45.983 27.6085 44.742 25.4695 43.646 23.5825L43.646 23.5825Z" id="Fill-1" fill="#8C4FFF"/></g></svg>