<svg width="48" height="48" viewBox="0 0 48 48" xmlns="http://www.w3.org/2000/svg" xmlns:xlink="http://www.w3.org/1999/xlink" overflow="hidden"><g id="Icon-Resource/Networking-and-Content-Delivery/Res_AWS-Cloud-WAN_Transit-Gateway-Route-Table-Attachment_48" stroke="none" stroke-width="1" fill="none" fill-rule="evenodd"><path d="M42 26C40.897 26 40 25.103 40 24 40 22.897 40.897 22 42 22 43.103 22 44 22.897 44 24 44 25.103 43.103 26 42 26L42 26ZM13 26 35 26 35 22 13 22 13 26ZM6 26C4.897 26 4 25.103 4 24 4 22.897 4.897 22 6 22 7.103 22 8 22.897 8 24 8 25.103 7.103 26 6 26L6 26ZM42 20C40.141 20 38.589 21.28 38.142 23L37 23 37 21C37 20.448 36.553 20 36 20L12 20C11.447 20 11 20.448 11 21L11 23 9.858 23C9.411 21.28 7.859 20 6 20 3.794 20 2 21.794 2 24 2 26.206 3.794 28 6 28 7.859 28 9.411 26.72 9.858 25L11 25 11 27C11 27.552 11.447 28 12 28L36 28C36.553 28 37 27.552 37 27L37 25 38.142 25C38.589 26.72 40.141 28 42 28 44.206 28 46 26.206 46 24 46 21.794 44.206 20 42 20L42 20ZM13 17 35 17 35 13 13 13 13 17ZM22 6C22 4.897 22.897 4 24 4 25.103 4 26 4.897 26 6 26 7.103 25.103 8 24 8 22.897 8 22 7.103 22 6L22 6ZM12 19 36 19C36.553 19 37 18.552 37 18L37 12C37 11.448 36.553 11 36 11L25 11 25 9.858C26.721 9.411 28 7.858 28 6 28 3.794 26.206 2 24 2 21.794 2 20 3.794 20 6 20 7.858 21.279 9.411 23 9.858L23 11 12 11C11.447 11 11 11.448 11 12L11 18C11 18.552 11.447 19 12 19L12 19ZM13 35 35 35 35 31 13 31 13 35ZM26 42C26 43.103 25.103 44 24 44 22.897 44 22 43.103 22 42 22 40.897 22.897 40 24 40 25.103 40 26 40.897 26 42L26 42ZM36 29 12 29C11.447 29 11 29.448 11 30L11 36C11 36.552 11.447 37 12 37L23 37 23 38.142C21.279 38.589 20 40.142 20 42 20 44.206 21.794 46 24 46 26.206 46 28 44.206 28 42 28 40.142 26.721 38.589 25 38.142L25 37 36 37C36.553 37 37 36.552 37 36L37 30C37 29.448 36.553 29 36 29L36 29Z" id="Fill-1" fill="#8C4FFF"/></g></svg>