<svg width="48" height="48" viewBox="0 0 48 48" xmlns="http://www.w3.org/2000/svg" xmlns:xlink="http://www.w3.org/1999/xlink" overflow="hidden"><g id="Icon-Resource/IoT/Res_AWS-IoT_Alexa_Enabled-Device_48" stroke="none" stroke-width="1" fill="none" fill-rule="evenodd"><path d="M26.7341 36.4763C31.2031 33.6283 34.1151 28.9153 34.1151 23.9333 34.1151 18.1353 29.3981 13.4173 23.5991 13.4173 17.8001 13.4173 13.0821 18.1353 13.0821 23.9333 13.0821 28.1623 15.6031 31.9643 19.5031 33.6203 20.0541 33.8533 20.4101 34.3753 20.4101 34.9473L20.4101 36.4683C19.7781 36.3093 19.1531 36.1223 18.5521 35.8663 13.7471 33.8233 10.6431 29.1393 10.6431 23.9333 10.6431 16.7903 16.4551 10.9773 23.5991 10.9773 30.7421 10.9773 36.5551 16.7903 36.5551 23.9333 36.5551 28.6423 33.9841 32.9913 29.8441 35.2813 28.8651 35.8223 27.8151 36.2103 26.7341 36.4763ZM15.0821 23.9333C15.0821 19.2373 18.9031 15.4173 23.5991 15.4173 28.2951 15.4173 32.1151 19.2373 32.1151 23.9333 32.1151 29.3333 28.1041 34.3853 22.4101 36.3673L22.4101 34.9473C22.4101 33.5703 21.5751 32.3263 20.2841 31.7783 17.1241 30.4373 15.0821 27.3583 15.0821 23.9333ZM8.6431 23.9333C8.6431 29.9433 12.2251 35.3493 17.7701 37.7063 18.8941 38.1833 20.0641 38.5003 21.2601 38.6893 21.3111 38.6963 21.3591 38.7143 21.4101 38.7143 21.4121 38.7143 21.4151 38.7133 21.4181 38.7133 22.1361 38.8183 22.8621 38.8893 23.5991 38.8893 26.1211 38.8893 28.6151 38.2473 30.8131 37.0313 35.5881 34.3883 38.5551 29.3703 38.5551 23.9333 38.5551 15.6863 31.8461 8.9773 23.5991 8.9773 15.3521 8.9773 8.6431 15.6863 8.6431 23.9333ZM43.8681 39.4203C43.8681 41.8733 41.8731 43.8683 39.4211 43.8683L8.4481 43.8683C5.9951 43.8683 4.0001 41.8733 4.0001 39.4203L4.0001 8.4483C4.0001 5.9953 5.9951 4.0003 8.4481 4.0003L39.4211 4.0003C41.8731 4.0003 43.8681 5.9953 43.8681 8.4483L43.8681 39.4203ZM8.4481 2.0003C4.8931 2.0003 2.0001 4.8923 2.0001 8.4483L2.0001 39.4203C2.0001 42.9753 4.8931 45.8683 8.4481 45.8683L39.4211 45.8683C42.9761 45.8683 45.8681 42.9753 45.8681 39.4203L45.8681 8.4483C45.8681 4.8923 42.9761 2.0003 39.4211 2.0003L8.4481 2.0003Z" id="Amazon-IOT-RESOURCES-Alexa-enabled-device_Resource-Icon_light-bg" fill="#7AA116"/></g></svg>