<svg width="48" height="48" viewBox="0 0 48 48" xmlns="http://www.w3.org/2000/svg" xmlns:xlink="http://www.w3.org/1999/xlink" overflow="hidden"><g id="Icon-Resource/IoT/Res_AWS-IoT_Thing_House_48" stroke="none" stroke-width="1" fill="none" fill-rule="evenodd"><path d="M17.941 29.125 19.457 29.125 19.457 27.609 17.941 27.609 17.941 29.125ZM16.941 25.609C16.389 25.609 15.941 26.056 15.941 26.609L15.941 30.125C15.941 30.677 16.389 31.125 16.941 31.125L20.457 31.125C21.01 31.125 21.457 30.677 21.457 30.125L21.457 26.609C21.457 26.056 21.01 25.609 20.457 25.609L16.941 25.609ZM34.522 22.964C34.255 22.964 34.001 23.068 33.813 23.256 33.625 23.443 33.519 23.698 33.519 23.964L33.519 34.398 31.125 34.398 31.125 26.609C31.125 26.056 30.678 25.609 30.125 25.609L24.851 25.609C24.299 25.609 23.851 26.056 23.851 26.609L23.851 34.398 14.426 34.398 14.426 23.928C14.426 23.378 13.98 22.93 13.429 22.928L12.51 22.925 23.973 12.991 35.483 22.966 34.522 22.964ZM24.628 10.912C24.251 10.586 23.694 10.586 23.317 10.912L10.134 22.338C9.915 22.528 9.789 22.803 9.789 23.093L9.789 23.92C9.789 24.47 10.234 24.918 10.786 24.92L12.426 24.925 12.426 35.398C12.426 35.951 12.873 36.398 13.426 36.398L24.851 36.398C25.404 36.398 25.851 35.951 25.851 35.398L25.851 27.609 29.125 27.609 29.125 35.398C29.125 35.951 29.572 36.398 30.125 36.398L34.519 36.398C35.072 36.398 35.519 35.951 35.519 35.398L35.519 24.966 37.153 24.972 37.156 24.972C37.421 24.972 37.675 24.868 37.862 24.68 38.051 24.493 38.156 24.238 38.156 23.972L38.156 23.093C38.156 22.803 38.03 22.528 37.811 22.338L24.628 10.912ZM39.67 38.537C39.67 39.163 39.161 39.672 38.535 39.672L9.409 39.672C8.783 39.672 8.274 39.163 8.274 38.537L8.274 9.423C8.274 8.797 8.783 8.288 9.409 8.288L38.535 8.288C39.161 8.288 39.67 8.797 39.67 9.423L39.67 38.537ZM45.945 14.425 45.945 12.425 41.67 12.425 41.67 9.423C41.67 7.694 40.264 6.288 38.535 6.288L35.519 6.288 35.519 2 33.519 2 33.519 6.288 30.246 6.288 30.246 2 28.246 2 28.246 6.288 24.973 6.288 24.973 2 22.973 2 22.973 6.288 19.699 6.288 19.699 2 17.699 2 17.699 6.288 14.426 6.288 14.426 2 12.426 2 12.426 6.288 9.409 6.288C7.681 6.288 6.274 7.694 6.274 9.423L6.274 12.425 2 12.425 2 14.425 6.274 14.425 6.274 17.699 2 17.699 2 19.699 6.274 19.699 6.274 22.972 2 22.972 2 24.972 6.274 24.972 6.274 28.246 2 28.246 2 30.246 6.274 30.246 6.274 33.519 2 33.519 2 35.519 6.274 35.519 6.274 38.537C6.274 40.265 7.681 41.672 9.409 41.672L12.426 41.672 12.426 45.945 14.426 45.945 14.426 41.672 17.699 41.672 17.699 45.945 19.699 45.945 19.699 41.672 22.973 41.672 22.973 45.945 24.973 45.945 24.973 41.672 28.246 41.672 28.246 45.945 30.246 45.945 30.246 41.672 33.519 41.672 33.519 45.945 35.519 45.945 35.519 41.672 38.535 41.672C40.264 41.672 41.67 40.265 41.67 38.537L41.67 35.519 45.945 35.519 45.945 33.519 41.67 33.519 41.67 30.246 45.945 30.246 45.945 28.246 41.67 28.246 41.67 24.972 45.945 24.972 45.945 22.972 41.67 22.972 41.67 19.699 45.945 19.699 45.945 17.699 41.67 17.699 41.67 14.425 45.945 14.425Z" id="Amazon-IOT-RESOURCES-IoT-thing-house_Resource-Icon_light-bg" fill="#7AA116"/></g></svg>