<svg width="80" height="80" viewBox="0 0 80 80" xmlns="http://www.w3.org/2000/svg" xmlns:xlink="http://www.w3.org/1999/xlink" overflow="hidden"><g id="Icon-Architecture/64/Arch_Amazon-QuickSight_64" stroke="none" stroke-width="1" fill="none" fill-rule="evenodd"><g id="Icon-Architecture-BG/64/Analytics" fill="#8C4FFF" transform="translate(0.121366 0)"><rect x="0" y="0" width="80" height="80" id="Rectangle"/></g><path d="M65 24C65 22.897 64.103 22 63 22 61.897 22 61 22.897 61 24 61 25.103 61.897 26 63 26 64.103 26 65 25.103 65 24L65 24ZM42 47C42 45.897 41.103 45 40 45 38.897 45 38 45.897 38 47 38 48.103 38.897 49 40 49 41.103 49 42 48.103 42 47L42 47ZM40 33C41.103 33 42 32.103 42 31 42 29.897 41.103 29 40 29 38.897 29 38 29.897 38 31 38 32.103 38.897 33 40 33L40 33ZM19 53C19 51.897 18.103 51 17 51 15.897 51 15 51.897 15 53 15 54.103 15.897 55 17 55 18.103 55 19 54.103 19 53L19 53ZM67 24C67 26.206 65.206 28 63 28 62.169 28 61.396 27.745 60.757 27.309L43.415 44.948C43.778 45.55 44 46.247 44 47 44 49.206 42.206 51 40 51 37.794 51 36 49.206 36 47 36 45.142 37.279 43.589 39 43.142L39 34.858C38.393 34.7 37.845 34.403 37.385 34.002L20.375 50.874C20.766 51.491 21 52.217 21 53 21 55.206 19.206 57 17 57 14.794 57 13 55.206 13 53 13 50.794 14.794 49 17 49 17.696 49 18.342 49.195 18.912 49.509L36.241 32.32C36.095 31.904 36 31.465 36 31 36 28.794 37.794 27 40 27 42.206 27 44 28.794 44 31 44 32.858 42.721 34.411 41 34.858L41 43.142C41.351 43.233 41.68 43.372 41.986 43.549L59.443 25.792C59.169 25.25 59 24.647 59 24 59 21.794 60.794 20 63 20 65.206 20 67 21.794 67 24L67 24ZM17 17 63 17 63 18 65 18 65 16C65 15.448 64.553 15 64 15L16 15C15.447 15 15 15.448 15 16L15 47 17 47 17 17ZM63 30 65 30 65 64C65 64.552 64.553 65 64 65L16 65C15.447 65 15 64.552 15 64L15 59 17 59 17 63 63 63 63 30Z" id="Amazon-QuickSight-Icon_64_Squid" fill="#FFFFFF"/></g></svg>