<svg width="48" height="48" viewBox="0 0 48 48" xmlns="http://www.w3.org/2000/svg" xmlns:xlink="http://www.w3.org/1999/xlink" overflow="hidden"><g id="Icon-Resource/Containers/Res_Amazon-Elastic-Container-Service_Container-1_48" stroke="none" stroke-width="1" fill="none" fill-rule="evenodd"><path d="M38.725 33.7354 40.725 33.7354 40.725 14.4974 38.725 14.4974 38.725 33.7354ZM33.479 33.7354 35.479 33.7354 35.479 14.4974 33.479 14.4974 33.479 33.7354ZM28.232 33.7354 30.232 33.7354 30.232 14.4974 28.232 14.4974 28.232 33.7354ZM22.986 33.7354 24.986 33.7354 24.986 14.4974 22.986 14.4974 22.986 33.7354ZM17.739 33.7354 19.739 33.7354 19.739 14.4974 17.739 14.4974 17.739 33.7354ZM12.493 33.7354 14.493 33.7354 14.493 14.4974 12.493 14.4974 12.493 33.7354ZM7.246 33.7354 9.246 33.7354 9.246 14.4974 7.246 14.4974 7.246 33.7354ZM3.999 36.2324 43.972 36.2324 43.972 12.0004 3.999 12.0004 3.999 36.2324ZM44.972 9.9994 3 9.9994C2.447 9.9994 2 10.4474 2 10.9994L2 37.2324C2 37.7844 2.447 38.2324 3 38.2324L44.972 38.2324C45.525 38.2324 45.972 37.7844 45.972 37.2324L45.972 10.9994C45.972 10.4474 45.525 9.9994 44.972 9.9994L44.972 9.9994Z" id="Amazon-Elastic-Container-Service-Container-1_Resource-Icon_light-bg" fill="#ED7100"/></g></svg>