<svg width="80" height="80" viewBox="0 0 80 80" xmlns="http://www.w3.org/2000/svg" xmlns:xlink="http://www.w3.org/1999/xlink" overflow="hidden"><g id="Icon-Architecture/64/Arch_AWS-Cloud-Development-Kit_64" stroke="none" stroke-width="1" fill="none" fill-rule="evenodd"><g id="Icon-Architecture-BG/64/Developer-Tools" fill="#C925D1"><rect x="0" y="0" width="80" height="80" id="Rectangle"/></g><path d="M68 39.3055C68 46.2347 63.2663 48.776 60.4453 49.6748L59.8457 47.7683C62.6598 46.8725 66.0148 44.6771 66.0148 39.3055 66.0148 32.5143 60.4562 30.8188 58.067 30.4049 57.5339 30.3129 57.1736 29.808 57.253 29.2702L57.253 29.2702C57.0168 26.176 55.5775 23.9506 53.3908 23.3067 51.5743 22.7729 49.6228 23.4807 48.4258 25.1142 48.2084 25.4112 47.8411 25.5621 47.4808 25.5091 47.1175 25.4552 46.8138 25.2022 46.6917 24.8533 45.8668 22.5039 44.6717 20.5274 43.1401 18.9789 41.2601 17.0794 36.1025 12.9944 28.8128 16.1016 24.6032 17.8971 21.3057 23.0698 21.3057 27.8765 21.3057 28.4114 21.3375 28.9502 21.401 29.4791 21.4596 29.977 21.1429 30.4418 20.6605 30.5658 18.1671 31.2066 13.9852 33.1821 13.9852 39.2215 13.9852 39.4175 13.9902 39.6094 14.0001 39.7984 14.1867 43.6864 17.0276 47.0265 20.9106 47.9233L20.466 49.8718C15.7213 48.775 12.2462 44.6741 12.0169 39.8984 12.005 39.6804 12 39.4525 12 39.2215 12 32.3144 16.6375 29.767 19.3523 28.8693 19.3314 28.5383 19.3205 28.2064 19.3205 27.8765 19.3205 22.234 23.0686 16.3805 28.0396 14.2601 33.8642 11.7747 40.0362 13.0114 44.5457 17.5672 45.9482 18.9849 47.0976 20.7044 47.9741 22.6949 49.6427 21.2823 51.8493 20.7704 53.9476 21.3882 56.8262 22.235 58.7529 24.9063 59.1827 28.5943 61.9987 29.2572 68 31.5806 68 39.3055L68 39.3055ZM56.8987 61.3138 49.9633 65.1997 49.9633 56.554 56.8987 52.612 56.8987 61.3138ZM39.0079 61.2888 32.0874 65.2767 32.0874 56.52 39.0079 52.59 39.0079 61.2888ZM31.0918 54.7905 24.1694 50.9055 31.1037 47.0205 37.9716 50.8825 31.0918 54.7905ZM23.1212 52.606 30.1022 56.524 30.1022 65.2817 23.1212 61.2868 23.1212 52.606ZM40.0293 32.0534 46.911 35.8984 40.0005 39.7634 33.1446 35.9184 40.0293 32.0534ZM42.0324 50.8845 48.9548 47.0045 55.8654 50.9035 48.9707 54.8225 42.0324 50.8845ZM40.9931 52.589 47.9781 56.554 47.9781 65.1997 40.9931 61.2808 40.9931 52.589ZM47.9642 45.272 40.9931 49.1779 40.9931 41.4949 47.9642 37.597 47.9642 45.272ZM32.0973 37.619 39.0079 41.4939 39.0079 49.1749 32.0973 45.289 32.0973 37.619ZM58.3915 50.0367C58.3866 50.0337 58.3806 50.0327 58.3757 50.0297L58.3767 50.0277 49.9494 45.274 49.9494 35.8984C49.9494 35.5435 49.7638 35.2166 49.4601 35.0366 49.4521 35.0326 49.4452 35.0306 49.4372 35.0266L49.4392 35.0236 40.5107 30.036C40.2089 29.869 39.8437 29.869 39.5459 30.037L30.6223 35.0456 30.6233 35.0476C30.6164 35.0516 30.6084 35.0526 30.6015 35.0566 30.2987 35.2366 30.1121 35.5645 30.1121 35.9184L30.1121 45.287 21.6462 50.0307 21.6482 50.0327C21.6402 50.0367 21.6323 50.0387 21.6253 50.0427 21.3226 50.2217 21.136 50.5506 21.136 50.9045L21.136 61.8686C21.136 62.2285 21.3275 62.5604 21.6382 62.7374L30.5965 67.865 30.6045 67.87 30.6045 67.869C30.7573 67.956 30.9261 68 31.0948 68 31.2645 68 31.4353 67.956 31.5881 67.868L40.0074 63.0163 48.4883 67.7741 48.4893 67.7711C48.6392 67.855 48.8039 67.9 48.9707 67.9 49.1365 67.9 49.3032 67.858 49.4531 67.7741L58.3747 62.7754C58.6893 62.5984 58.8839 62.2645 58.8839 61.9016L58.8839 50.9005C58.8839 50.5446 58.6973 50.2167 58.3915 50.0367L58.3915 50.0367Z" id="AWS-Cloud-Development-Kit_Icon_64_Squid" fill="#FFFFFF"/></g></svg>