<svg width="80" height="80" viewBox="0 0 80 80" xmlns="http://www.w3.org/2000/svg" xmlns:xlink="http://www.w3.org/1999/xlink" overflow="hidden"><g id="Icon-Architecture/64/Arch_Amazon-Pinpoint-APIs_64" stroke="none" stroke-width="1" fill="none" fill-rule="evenodd"><g id="Icon-Architecture-BG/64/Business-Applications" fill="#DD344C"><rect x="0" y="0" width="80" height="80" id="Rectangle"/></g><g id="Icon-Service/64/Amazon-Pinpoint" fill="#FFFFFF" transform="translate(16 16)"><path d="M23.293 23.293 27.473 19.114C26.492 18.416 25.297 18 24.004 18 20.697 18 18.007 20.69 18.007 23.997 18.007 27.303 20.697 29.993 24.004 29.993 27.311 29.993 30 27.303 30 23.997 30 22.704 29.585 21.508 28.887 20.528L24.707 24.707 23.293 23.293ZM34.569 14.845 30.313 19.102C31.366 20.456 32 22.152 32 23.997 32 28.406 28.413 31.993 24.004 31.993 19.595 31.993 16.007 28.406 16.007 23.997 16.007 19.587 19.595 16 24.004 16 25.849 16 27.544 16.634 28.898 17.688L33.155 13.431C30.699 11.3 27.504 10 24.004 10 16.286 10 10.007 16.279 10.007 23.997 10.007 31.714 16.286 37.993 24.004 37.993 31.722 37.993 38 31.714 38 23.997 38 20.497 36.7 17.301 34.569 14.845L34.569 14.845ZM37.03 7.515C37.03 9.437 38.594 11 40.515 11 42.437 11 44 9.437 44 7.515 44 5.594 42.437 4.03 40.515 4.03 38.594 4.03 37.03 5.594 37.03 7.515L37.03 7.515ZM34.568 12.017 35.984 10.602C35.383 9.722 35.03 8.659 35.03 7.515 35.03 4.491 37.49 2.03 40.515 2.03 43.539 2.03 46 4.491 46 7.515 46 10.54 43.539 13 40.515 13 39.355 13 38.281 12.636 37.395 12.02L35.982 13.431C38.475 16.253 40 19.946 40 23.997 40 32.817 32.824 39.993 24.004 39.993 15.183 39.993 8.007 32.817 8.007 23.997 8.007 15.176 15.183 8 24.004 8 28.055 8 31.747 9.526 34.568 12.017L34.568 12.017ZM48 24C48 37.233 37.233 48 24 48 10.767 48 0 37.233 0 24 0 10.767 10.767 0 24 0 27.361 0 30.614 0.684 33.669 2.032L32.86 3.862C30.063 2.626 27.081 2 24 2 11.869 2 2 11.869 2 24 2 36.131 11.869 46 24 46 36.131 46 46 36.131 46 24 46 20.91 45.378 17.944 44.149 15.186L45.978 14.372C47.319 17.389 48 20.628 48 24L48 24Z" id="Amazon-Pinpoint-Icon_64_Squid"/></g></g></svg>