<svg width="48" height="48" viewBox="0 0 48 48" xmlns="http://www.w3.org/2000/svg" xmlns:xlink="http://www.w3.org/1999/xlink" overflow="hidden"><g id="Icon-Resource/Analytics/Res_Amazon-EMR_HDFS-Cluster_48" stroke="none" stroke-width="1" fill="none" fill-rule="evenodd"><path d="M36.931 26.479C36.443 26.545 36.061 26.946 36.061 27.453L36.061 30.431 33.733 29.655 36.418 25.73 36.931 26.479ZM38.061 34.313 43.921 34.313 43.921 28.453 38.061 28.453 38.061 34.313ZM33.694 39.452 33.694 37.059C33.694 36.506 33.246 36.059 32.694 36.059L29.35 36.059 32.558 31.371 36.061 32.54 36.061 35.313C36.061 35.866 36.508 36.313 37.061 36.313L37.895 36.313C36.377 37.464 34.816 38.624 33.694 39.452L33.694 39.452ZM25.835 43.919 31.694 43.919 31.694 38.059 25.835 38.059 25.835 43.919ZM4 29.946 15.974 29.946 15.974 17.972 4 17.972 4 29.946ZM25.834 9.859 31.693 9.859 31.693 4 25.834 4 25.834 9.859ZM37.896 11.606 37.061 11.606C36.508 11.606 36.061 12.053 36.061 12.606L36.061 15.378 32.558 16.547 29.35 11.859 32.694 11.859C33.246 11.859 33.694 11.412 33.694 10.859L33.694 8.467C34.816 9.294 36.378 10.455 37.896 11.606L37.896 11.606ZM38.061 19.466 43.921 19.466 43.921 13.606 38.061 13.606 38.061 19.466ZM33.732 18.263 36.061 17.486 36.061 20.466C36.061 20.973 36.443 21.374 36.931 21.44L36.418 22.189 33.732 18.263ZM17.974 24.4 17.974 23.518 31.759 18.92 35.206 23.959 31.759 28.998 17.974 24.4ZM24.243 11.643C24.41 11.77 24.608 11.859 24.834 11.859L26.927 11.859 30.585 17.205 17.974 21.41 17.974 16.972C17.974 16.901 17.948 16.838 17.934 16.772L24.243 11.643ZM24.834 36.059C24.608 36.059 24.41 36.148 24.242 36.275L17.934 31.146C17.948 31.08 17.974 31.017 17.974 30.946L17.974 26.507 30.585 30.713 26.927 36.059 24.834 36.059ZM39.335 21.466 44.921 21.466C45.474 21.466 45.921 21.019 45.921 20.466L45.921 12.606C45.921 12.053 45.474 11.606 44.921 11.606L41.178 11.606C38.557 9.558 34.9 6.869 33.694 5.985L33.694 3C33.694 2.447 33.246 2 32.694 2L24.834 2C24.282 2 23.834 2.447 23.834 3L23.834 9.396 15.745 15.972 3 15.972C2.448 15.972 2 16.419 2 16.972L2 30.946C2 31.499 2.448 31.946 3 31.946L15.745 31.946 23.834 38.523 23.834 44.919C23.834 45.472 24.282 45.919 24.834 45.919L32.694 45.919C33.246 45.919 33.694 45.472 33.694 44.919L33.694 41.934C34.9 41.049 38.556 38.36 41.178 36.313L44.921 36.313C45.474 36.313 45.921 35.866 45.921 35.313L45.921 27.453C45.921 26.9 45.474 26.453 44.921 26.453L39.335 26.453 37.629 23.959 39.335 21.466Z" id="Icon-Resource/48/Amazon-EMR_Cluster" fill="#8C4FFF"/></g></svg>