<svg width="90" height="90" viewBox="0 0 90 90" xmlns="http://www.w3.org/2000/svg" xmlns:xlink="http://www.w3.org/1999/xlink" overflow="hidden"><g id="Icon-Architecture-Category/64/Quantum-Technologies_64" stroke="none" stroke-width="1" fill="none" fill-rule="evenodd"><rect x="5" y="5" width="80" height="80" id="Rectangle" fill="#ED7100"/><rect x="1" y="1" width="88" height="88" id="#879196-Border-Copy-19" stroke="#879196" stroke-width="2"/><g id="Icon-Category/64/Quantum-Technologies_64" fill="#FFFFFF" transform="translate(20 17)"><path d="M47.517 41C47.05 41.809 46.168 42.379 44.903 42.71 44.542 41.161 43.158 40 41.5 40 39.863 40 38.495 41.135 38.115 42.657 36.99 42.463 35.82 42.208 34.598 41.87 35.117 39.511 35.504 36.932 35.739 34.189 37.961 32.639 40 31.021 41.809 29.375 42.716 30.27 43.56 31.168 44.3 32.061 47.44 35.845 48.613 39.104 47.517 41M41.5 45C40.673 45 40 44.327 40 43.5 40 42.673 40.673 42 41.5 42 42.328 42 43 42.673 43 43.5 43 44.327 42.328 45 41.5 45M25 54C22.31 54 19.503 49.994 17.754 43.255 20.067 42.523 22.505 41.565 25.01 40.391 27.471 41.541 29.911 42.509 32.246 43.255 30.497 49.994 27.691 54 25 54M2.484 41C1.779 39.779 2.126 38.179 2.647 36.882 2.922 36.952 3.204 37 3.5 37 5.43 37 7 35.43 7 33.5 7 32.709 6.727 31.987 6.283 31.4 6.873 30.726 7.509 30.05 8.193 29.375 10.001 31.021 12.04 32.639 14.262 34.189 14.497 36.944 14.888 39.534 15.41 41.901 8.702 43.754 3.829 43.329 2.484 41M3.5 32C4.328 32 5 32.673 5 33.5 5 34.327 4.328 35 3.5 35 2.673 35 2 34.327 2 33.5 2 32.673 2.673 32 3.5 32M2.484 15C3.829 12.671 8.703 12.247 15.41 14.099 14.888 16.467 14.497 19.057 14.262 21.812 12.04 23.362 10.001 24.98 8.193 26.626 7.286 25.73 6.442 24.833 5.701 23.939 2.561 20.155 1.388 16.896 2.484 15M25 2C25.919 2 26.84 2.464 27.746 3.367 27.286 3.959 27 4.693 27 5.5 27 7.43 28.571 9 30.5 9 30.672 9 30.836 8.973 31.002 8.949 31.452 10.12 31.86 11.387 32.214 12.752 29.914 13.482 27.49 14.435 25 15.602 22.498 14.43 20.064 13.474 17.754 12.743 19.503 6.005 22.31 2 25 2M32 5.5C32 6.327 31.328 7 30.5 7 29.673 7 29 6.327 29 5.5 29 4.673 29.673 4 30.5 4 31.328 4 32 4.673 32 5.5M35.899 24.373C37.509 25.555 38.992 26.771 40.35 28 38.995 29.226 37.516 30.44 35.91 31.619 35.967 30.436 36 29.229 36 28 36 26.779 35.959 25.572 35.899 24.373M27.316 16.74C29.184 15.916 30.977 15.229 32.672 14.679 33.056 16.468 33.356 18.378 33.577 20.362 32.576 19.718 31.556 19.083 30.5 18.474 29.434 17.858 28.371 17.283 27.316 16.74M16.4 20.379C16.621 18.334 16.925 16.425 17.3 14.671 19.004 15.222 20.806 15.911 22.684 16.74 21.629 17.283 20.567 17.858 19.5 18.474 18.436 19.088 17.409 19.729 16.4 20.379M14.091 31.619C12.485 30.44 11.006 29.226 9.651 28 11.007 26.774 12.485 25.56 14.091 24.38 14.034 25.564 14 26.77 14 28 14 29.229 14.034 30.436 14.091 31.619M22.697 39.255C20.814 40.086 19.008 40.777 17.3 41.33 16.926 39.575 16.621 37.666 16.4 35.621 17.409 36.271 18.436 36.912 19.5 37.526 20.559 38.138 21.627 38.707 22.697 39.255M33.601 35.621C33.381 37.657 33.078 39.558 32.705 41.307 30.967 40.746 29.165 40.051 27.34 39.251 28.387 38.712 29.442 38.137 30.5 37.526 31.565 36.912 32.592 36.271 33.601 35.621M29.5 35.794C27.972 36.677 26.475 37.463 25.01 38.179 23.505 37.449 21.995 36.657 20.5 35.794 19 34.928 17.556 34.021 16.176 33.088 16.063 31.462 16 29.766 16 28 16 26.234 16.063 24.538 16.176 22.912 17.556 21.978 19.001 21.072 20.5 20.206 22.033 19.321 23.533 18.533 25 17.816 26.468 18.533 27.968 19.321 29.5 20.206 30.996 21.069 32.435 21.973 33.811 22.903 33.931 24.571 34 26.274 34 28 34 29.766 33.938 31.462 33.825 33.088 32.445 34.021 31 34.928 29.5 35.794M47.517 15C48.613 16.896 47.44 20.155 44.3 23.939 43.56 24.832 42.716 25.73 41.809 26.625 39.996 24.977 37.954 23.355 35.727 21.803 35.493 19.096 35.111 16.498 34.588 14.1 41.297 12.246 46.172 12.671 47.517 15M43.262 28C44.199 27.073 45.072 26.143 45.84 25.216 49.599 20.685 50.809 16.702 49.249 14 47.326 10.669 41.522 10.179 34.13 12.185 33.747 10.718 33.307 9.355 32.82 8.101 33.538 7.459 34 6.537 34 5.5 34 3.57 32.43 2 30.5 2 30.115 2 29.749 2.078 29.402 2.194 28.038 0.738 26.562 0 25 0 21.155 0 17.83 4.781 15.87 12.186 8.478 10.18 2.674 10.669 0.751 14-0.808 16.702 0.402 20.685 4.161 25.216 4.929 26.143 5.803 27.074 6.741 28.001 5.996 28.738 5.302 29.477 4.663 30.214 4.297 30.084 3.91 30 3.5 30 1.571 30-3.55271e-15 31.57-3.55271e-15 33.5-3.55271e-15 34.405 0.355 35.224 0.921 35.846-0.115 38.256-0.184 40.379 0.751 42 1.922 44.028 4.531 45.002 8.061 45.002 10.328 45.002 12.979 44.594 15.869 43.811 17.829 51.217 21.155 56 25 56 28.846 56 32.171 51.219 34.131 43.814 35.558 44.206 36.924 44.499 38.227 44.704 38.72 46.04 39.996 47 41.5 47 42.973 47 44.23 46.083 44.746 44.793 46.897 44.376 48.416 43.443 49.249 42 50.809 39.298 49.599 35.315 45.84 30.784 45.072 29.857 44.199 28.927 43.262 28" id="Quantum-Technologies_Category-Icon_64_Squid"/></g></g></svg>