<svg width="80" height="80" viewBox="0 0 80 80" xmlns="http://www.w3.org/2000/svg" xmlns:xlink="http://www.w3.org/1999/xlink" overflow="hidden"><g id="Icon-Architecture/64/Arch_AWS-Data-Exchange_64" stroke="none" stroke-width="1" fill="none" fill-rule="evenodd"><g id="Icon-Architecture-BG/64/Analytics" fill="#8C4FFF"><rect x="0" y="0" width="80" height="80" id="Rectangle"/></g><path d="M30.597 54.484 26.527 50.414 30.597 46.343 29.183 44.929 24.406 49.707C24.015 50.097 24.015 50.73 24.406 51.121L29.183 55.898 30.597 54.484ZM52.707 31.121C53.098 30.73 53.098 30.097 52.707 29.707L47.93 24.929 46.516 26.343 50.586 30.414 46.516 34.484 47.93 35.898 52.707 31.121ZM44 53.04 56 53.04 56 51.04 44 51.04 44 53.04ZM37 59.04 68 59.04 68 57.04 37 57.04 37 59.04ZM17 31.04 31 31.04 31 29.04 17 29.04 17 31.04ZM12 23.04 43 23.04 43 21.04 12 21.04 12 23.04ZM63.7 31.17C63.7 22.805 56.894 16 48.53 16 45.952 16 43.407 16.658 41.167 17.903L42.14 19.651C44.082 18.571 46.292 18 48.53 18 55.791 18 61.7 23.908 61.7 31.17 61.7 38.432 55.791 44.34 48.53 44.34 47.326 44.34 46.134 44.178 44.988 43.859L44.451 45.785C45.772 46.153 47.145 46.34 48.53 46.34 56.894 46.34 63.7 39.535 63.7 31.17L63.7 31.17ZM35.812 34.607C35.512 33.493 35.36 32.337 35.36 31.17 35.36 29.424 35.696 27.729 36.358 26.131L34.51 25.366C33.746 27.207 33.36 29.16 33.36 31.17 33.36 32.512 33.535 33.843 33.88 35.127L35.812 34.607ZM41 64.04 17 64.04C16.448 64.04 16 63.592 16 63.04L16 39.04C16 38.488 16.448 38.04 17 38.04L41 38.04C41.553 38.04 42 38.488 42 39.04L42 55.04 40 55.04 40 40.04 18 40.04 18 62.04 40 62.04 40 61.04 42 61.04 42 63.04C42 63.592 41.553 64.04 41 64.04L41 64.04Z" id="AWS-Data-Exchange_Icon_64_Squid" fill="#FFFFFF"/></g></svg>