<svg width="48" height="48" viewBox="0 0 48 48" xmlns="http://www.w3.org/2000/svg" xmlns:xlink="http://www.w3.org/1999/xlink" overflow="hidden"><g id="Icon-Resource/Management-Governance/Res_Amazon-CloudWatch_Evidently_48" stroke="none" stroke-width="1" fill="none" fill-rule="evenodd"><path d="M9.5 21C10.879 21 12 22.122 12 23.5 12 24.878 10.879 26 9.5 26 8.121 26 7 24.878 7 23.5 7 22.122 8.121 21 9.5 21L9.5 21ZM23.5 12C24.879 12 26 13.122 26 14.5 26 15.878 24.879 17 23.5 17 22.121 17 21 15.878 21 14.5 21 13.122 22.121 12 23.5 12L23.5 12ZM39.5 4C40.879 4 42 5.122 42 6.5 42 7.878 40.879 9 39.5 9 38.121 9 37 7.878 37 6.5 37 5.122 38.121 4 39.5 4L39.5 4ZM9.5 28C11.981 28 14 25.981 14 23.5 14 22.89 13.875 22.309 13.654 21.778L20.496 17.868 20.451 17.789C21.254 18.534 22.32 19 23.5 19 25.981 19 28 16.981 28 14.5 28 14.053 27.914 13.63 27.793 13.222L35.898 9.169C36.718 10.274 38.021 11 39.5 11 41.981 11 44 8.981 44 6.5 44 4.019 41.981 2 39.5 2 37.019 2 35 4.019 35 6.5 35 6.787 35.033 7.067 35.085 7.339L26.81 11.477C25.987 10.576 24.814 10 23.5 10 21.019 10 19 12.019 19 14.5 19 15.11 19.125 15.691 19.346 16.222L12.504 20.132 12.549 20.211C11.746 19.466 10.68 19 9.5 19 7.019 19 5 21.019 5 23.5 5 25.981 7.019 28 9.5 28L9.5 28ZM42 41C42 42.654 40.654 44 39 44 37.346 44 36 42.654 36 41L36 15 42 15 42 41ZM46 13 32 13 32 15 34 15 34 41C34 43.757 36.243 46 39 46 41.757 46 44 43.757 44 41L44 15 46 15 46 13ZM27 41C27 42.654 25.654 44 24 44 22.346 44 21 42.654 21 41L21 23 27 23 27 41ZM17 23 19 23 19 41C19 43.757 21.243 46 24 46 26.757 46 29 43.757 29 41L29 23 31 23 31 21 17 21 17 23ZM12 41C12 42.654 10.654 44 9 44 7.346 44 6 42.654 6 41L6 31 12 31 12 41ZM2 31 4 31 4 41C4 43.757 6.243 46 9 46 11.757 46 14 43.757 14 41L14 31 16 31 16 29 2 29 2 31Z" id="Fill-3" fill="#E7157B"/></g></svg>