<svg width="80" height="80" viewBox="0 0 80 80" xmlns="http://www.w3.org/2000/svg" xmlns:xlink="http://www.w3.org/1999/xlink" overflow="hidden"><g id="Icon-Architecture/64/Arch_AWS-Cloud9_64" stroke="none" stroke-width="1" fill="none" fill-rule="evenodd"><g id="Icon-Architecture-BG/64/Developer-Tools" fill="#C925D1"><rect x="0" y="0" width="80" height="80" id="Rectangle"/></g><path d="M43.441 42.6114C42.913 42.9106 42.331 43.1433 41.696 43.3096 41.06 43.4758 40.429 43.5584 39.802 43.5584 38.713 43.5584 37.888 43.2562 37.328 42.6487 36.766 42.0421 36.486 41.1575 36.486 39.9929 36.486 38.8957 36.779 38.0192 37.365 37.3623 37.95 36.7064 38.73 36.3779 39.704 36.3779 42.145 36.3779 43.391 38.3396 43.441 42.2628L43.441 42.6114ZM39.753 34.3327C38.615 34.3327 37.608 34.5866 36.733 35.0934 35.859 35.6012 35.186 36.2903 34.716 37.1628 34.246 38.0353 34.011 39.0297 34.011 40.143 34.011 41.8225 34.477 43.1433 35.409 44.1075 36.341 45.0717 37.608 45.5533 39.209 45.5533 39.967 45.5533 40.71 45.4415 41.436 45.2168 42.162 44.9931 42.822 44.6808 43.416 44.2818 43.3 46.3442 42.835 47.8645 42.017 48.8448 41.201 49.8271 40.001 50.3168 38.417 50.3168 37.278 50.3168 36.032 50.0095 34.679 49.3939L34.679 51.289C35.768 52.0033 37.129 52.361 38.763 52.361 41.04 52.361 42.797 51.5217 44.035 49.8432 45.272 48.1637 45.891 45.7618 45.891 42.6366 45.891 39.9264 45.367 37.866 44.319 36.4525 43.271 35.04 41.75 34.3327 39.753 34.3327L39.753 34.3327ZM56.875 55.985 22.956 55.985C18.195 55.981 14.268 52.4789 14.017 48.0176 14.005 47.8141 14 47.6046 14 47.39 14 41.6482 18.086 39.7208 20.581 39.0801 20.593 39.0781 20.606 39.076 20.62 39.073 21.131 38.9682 21.476 38.4836 21.412 37.9617 21.349 37.458 21.318 36.9401 21.318 36.4223 21.318 31.7948 24.608 26.8127 28.808 25.0808 33.869 22.9943 39.227 24.034 43.145 27.8615 44.672 29.3526 45.863 31.2578 46.685 33.5227 46.811 33.8693 47.113 34.1181 47.474 34.1735 47.835 34.2269 48.197 34.0818 48.42 33.7897 49.648 32.1686 51.635 31.4885 53.493 32.0598 55.652 32.7247 57.05 34.9352 57.231 37.9738 57.258 38.4302 57.587 38.8111 58.032 38.9017 61.667 39.6392 66 41.7258 66 47.4706 66 55.3714 59.015 55.985 56.875 55.985L56.875 55.985ZM59.159 37.0903C58.735 33.565 56.871 30.9918 54.077 30.1324 51.934 29.4735 49.678 29.9632 47.969 31.3757 47.09 29.4493 45.94 27.7849 44.538 26.4147 40.032 22.0129 33.869 20.816 28.05 23.2159 23.072 25.2692 19.318 30.9465 19.318 36.4223 19.318 36.7296 19.328 37.0369 19.346 37.3421 16.627 38.2197 12 40.6961 12 47.39 12 47.6408 12.007 47.8857 12.02 48.1285 12.331 53.6577 17.133 57.995 22.955 58L56.875 58C62.253 58 68 55.2344 68 47.4706 68 42.1479 64.868 38.4836 59.159 37.0903L59.159 37.0903Z" id="AWS-Cloud9_Icon_64_Squid" fill="#FFFFFF"/></g></svg>