<svg width="48" height="48" viewBox="0 0 48 48" xmlns="http://www.w3.org/2000/svg" xmlns:xlink="http://www.w3.org/1999/xlink" overflow="hidden"><g id="Icon-Resource/Compute/Res_Amazon-EC2_AWS-Microservice-Extractor-for-.NET_48" stroke="none" stroke-width="1" fill="none" fill-rule="evenodd"><path d="M24 4.1127 37.621 10.7637 24 16.7387 10.379 10.7637 24 4.1127ZM8 25.4007C8.283 25.4007 8.554 25.2797 8.743 25.0697L13.243 20.0697 11.757 18.7317 9 21.7947 9 12.3437 23 18.4847 23 28.8477 20.243 25.7837 18.757 27.1217 23.257 32.1217C23.446 32.3327 23.717 32.4527 24 32.4527 24.283 32.4527 24.554 32.3327 24.743 32.1217L29.243 27.1217 27.757 25.7837 25 28.8477 25 18.4847 39 12.3437 39 21.7947 36.243 18.7317 34.757 20.0697 39.257 25.0697C39.446 25.2797 39.717 25.4007 40 25.4007 40.283 25.4007 40.554 25.2797 40.743 25.0697L45.243 20.0697 43.757 18.7317 41 21.7947 41 10.8127C41 10.4307 40.782 10.0817 40.438 9.9147L24.438 2.1017C24.163 1.9657 23.837 1.9657 23.562 2.1017L7.562 9.9147C7.218 10.0817 7 10.4307 7 10.8127L7 21.7947 4.243 18.7317 2.757 20.0697 7.257 25.0697C7.446 25.2797 7.717 25.4007 8 25.4007L8 25.4007ZM40 36.9357C37.794 36.9357 36 35.1417 36 32.9357 36 30.7307 37.794 28.9357 40 28.9357 42.206 28.9357 44 30.7307 44 32.9357 44 35.1417 42.206 36.9357 40 36.9357L40 36.9357ZM24 43.9527C21.794 43.9527 20 42.1587 20 39.9527 20 37.7477 21.794 35.9527 24 35.9527 26.206 35.9527 28 37.7477 28 39.9527 28 42.1587 26.206 43.9527 24 43.9527L24 43.9527ZM8 36.9357C5.794 36.9357 4 35.1417 4 32.9357 4 30.7307 5.794 28.9357 8 28.9357 10.206 28.9357 12 30.7307 12 32.9357 12 35.1417 10.206 36.9357 8 36.9357L8 36.9357ZM40 26.9357C36.691 26.9357 34 29.6277 34 32.9357 34 33.4397 34.069 33.9267 34.187 34.3937L29.012 36.6637C27.939 35.0337 26.094 33.9527 24 33.9527 21.906 33.9527 20.061 35.0327 18.988 36.6637L13.813 34.3937C13.931 33.9267 14 33.4397 14 32.9357 14 29.6277 11.309 26.9357 8 26.9357 4.691 26.9357 2 29.6277 2 32.9357 2 36.2447 4.691 38.9357 8 38.9357 10.094 38.9357 11.938 37.8567 13.012 36.2267L18.186 38.4967C18.069 38.9637 18 39.4497 18 39.9527 18 43.2617 20.691 45.9527 24 45.9527 27.309 45.9527 30 43.2617 30 39.9527 30 39.4497 29.931 38.9637 29.814 38.4957L34.988 36.2257C36.062 37.8557 37.906 38.9357 40 38.9357 43.309 38.9357 46 36.2447 46 32.9357 46 29.6277 43.309 26.9357 40 26.9357L40 26.9357Z" id="Fill-1" fill="#ED7100"/></g></svg>