<svg width="80" height="80" viewBox="0 0 80 80" xmlns="http://www.w3.org/2000/svg" xmlns:xlink="http://www.w3.org/1999/xlink" overflow="hidden"><g id="Icon-Architecture/64/Arch_Amazon-EC2-Auto-Scaling_64" stroke="none" stroke-width="1" fill="none" fill-rule="evenodd"><g id="Icon-Architecture-BG/64/Compute" fill="#ED7100"><rect x="0" y="0" width="80" height="80" id="Rectangle"/></g><path d="M68 39.0045 56.6325 39.0045 62.2105 33.4109 60.8068 32.0033 53.1044 39.7272 60.8068 47.4502 62.2105 46.0426 57.1775 40.9955 68 40.9955 68 39.0045ZM18.0559 33.4109 23.6349 39.0045 13 39.0045 13 40.9955 23.0899 40.9955 18.0559 46.0426 19.4605 47.4502 27.162 39.7272 19.4605 32.0033 18.0559 33.4109ZM33.551 48.9594 48.4417 48.9594 48.4417 34.0271 33.551 34.0271 33.551 48.9594ZM50.2762 33.0316 52.4125 33.0316 52.4125 35.0226 50.4271 35.0226 50.4271 38.009 52.4125 38.009 52.4125 40 50.4271 40 50.4271 42.9865 52.4125 42.9865 52.4125 44.9774 50.4271 44.9774 50.4271 47.9639 52.4125 47.9639 52.4125 49.9548 50.2762 49.9548C50.1084 50.3292 49.8086 50.6308 49.4344 50.8L49.4344 52.9413 47.449 52.9413 47.449 50.9503 44.4708 50.9503 44.4708 52.9413 42.4854 52.9413 42.4854 50.9503 39.5073 50.9503 39.5073 52.9413 37.5219 52.9413 37.5219 50.9503 34.5438 50.9503 34.5438 52.9413 32.5583 52.9413 32.5583 50.8C32.1841 50.6308 31.8843 50.3292 31.7155 49.9548L29.5802 49.9548 29.5802 47.9639 31.5656 47.9639 31.5656 44.9774 29.5802 44.9774 29.5802 42.9865 31.5656 42.9865 31.5656 40 29.5802 40 29.5802 38.009 31.5656 38.009 31.5656 35.0226 29.5802 35.0226 29.5802 33.0316 31.7155 33.0316C31.8843 32.6573 32.1841 32.3557 32.5583 32.1864L32.5583 30.0452 34.5438 30.0452 34.5438 32.0361 37.5219 32.0361 37.5219 30.0452 39.5073 30.0452 39.5073 32.0361 42.4854 32.0361 42.4854 30.0452 44.4708 30.0452 44.4708 32.0361 47.449 32.0361 47.449 30.0452 49.4344 30.0452 49.4344 32.1864C49.8086 32.3557 50.1084 32.6573 50.2762 33.0316L50.2762 33.0316ZM41.4927 64.1893 41.4927 53.9368 39.5073 53.9368 39.5073 64.1893 34.2013 58.8684 32.7976 60.276 40.5 68 48.2024 60.276 46.7987 58.8684 41.4927 64.1893ZM34.2013 21.1316 32.7976 19.724 40.5 12 48.2024 19.724 46.7987 21.1316 41.4927 15.8107 41.4927 26.9372 39.5073 26.9372 39.5073 15.8107 34.2013 21.1316Z" id="Amazon-EC2-Auto-Scaling_Icon_64_Squid" fill="#FFFFFF"/></g></svg>