<svg width="48" height="48" viewBox="0 0 48 48" xmlns="http://www.w3.org/2000/svg" xmlns:xlink="http://www.w3.org/1999/xlink" overflow="hidden"><g id="Icon-Resource/IoT/Res_AWS-IoT_Thing_Relay_48" stroke="none" stroke-width="1" fill="none" fill-rule="evenodd"><path d="M22 33 24 33 24 15 22 15 22 33ZM31 30C30.173 30 29.5 29.327 29.5 28.5 29.5 27.672 30.173 27 31 27 31.827 27 32.5 27.672 32.5 28.5 32.5 29.327 31.827 30 31 30L31 30ZM32.823 25.526C32.291 25.198 31.67 25 31 25 29.07 25 27.5 26.57 27.5 28.5 27.5 30.08 28.56 31.403 30 31.836L30 36 32 36 32 31.836C33.44 31.403 34.5 30.08 34.5 28.5 34.5 27.986 34.383 27.502 34.184 27.063L38.1 21.581 36.473 20.418 32.823 25.526ZM31 18C31.827 18 32.5 18.672 32.5 19.5 32.5 20.327 31.827 21 31 21 30.173 21 29.5 20.327 29.5 19.5 29.5 18.672 30.173 18 31 18L31 18ZM31 23C32.93 23 34.5 21.429 34.5 19.5 34.5 17.919 33.44 16.596 32 16.163L32 12 30 12 30 16.163C28.56 16.596 27.5 17.919 27.5 19.5 27.5 21.429 29.07 23 31 23L31 23ZM18.485 21.363C19.424 22.017 20 22.939 20 23.977 20 25.014 19.424 25.937 18.485 26.59 19.424 27.244 20 28.167 20 29.204 20 30.982 18.309 32.422 16 32.749L16 36 14 36 14 31.818C14 31.266 14.447 30.818 15 30.818 16.717 30.818 18 29.966 18 29.204 18 28.442 16.717 27.59 15 27.59 14.447 27.59 14 27.143 14 26.59 14 26.038 14.447 25.59 15 25.59 16.717 25.59 18 24.738 18 23.977 18 23.215 16.717 22.363 15 22.363 14.447 22.363 14 21.916 14 21.363 14 20.811 14.447 20.363 15 20.363 16.717 20.363 18 19.511 18 18.75 18 17.988 16.717 17.136 15 17.136 14.447 17.136 14 16.688 14 16.136L14 12 16 12 16 15.205C18.309 15.531 20 16.971 20 18.75 20 19.787 19.424 20.71 18.485 21.363L18.485 21.363ZM39 37.865C39 38.491 38.491 39 37.865 39L10.135 39C9.509 39 9 38.491 9 37.865L9 10.135C9 9.509 9.509 9 10.135 9L37.865 9C38.491 9 39 9.509 39 10.135L39 37.865ZM46 15 46 13 41 13 41 10.135C41 8.406 39.594 7 37.865 7L35 7 35 2 33 2 33 7 30 7 30 2 28 2 28 7 25 7 25 2 23 2 23 7 20 7 20 2 18 2 18 7 15 7 15 2 13 2 13 7 10.135 7C8.406 7 7 8.406 7 10.135L7 13 2 13 2 15 7 15 7 18 2 18 2 20 7 20 7 23 2 23 2 25 7 25 7 28 2 28 2 30 7 30 7 33 2 33 2 35 7 35 7 37.865C7 39.594 8.406 41 10.135 41L13 41 13 46 15 46 15 41 18 41 18 46 20 46 20 41 23 41 23 46 25 46 25 41 28 41 28 46 30 46 30 41 33 41 33 46 35 46 35 41 37.865 41C39.594 41 41 39.594 41 37.865L41 35 46 35 46 33 41 33 41 30 46 30 46 28 41 28 41 25 46 25 46 23 41 23 41 20 46 20 46 18 41 18 41 15 46 15Z" id="Fill-1" fill="#7AA116"/></g></svg>