<svg width="80" height="80" viewBox="0 0 80 80" xmlns="http://www.w3.org/2000/svg" xmlns:xlink="http://www.w3.org/1999/xlink" overflow="hidden"><g id="Icon-Architecture/64/Arch_AWS-WAF_64" stroke="none" stroke-width="1" fill="none" fill-rule="evenodd"><g id="Icon-Architecture-BG/64/Security-Identity-Compliance" fill="#DD344C"><rect x="0" y="0" width="80" height="80" id="Rectangle"/></g><g id="Icon-Service/64/AWS-WAF_64" fill="#FFFFFF" transform="translate(11.9995 12)"><path d="M2.396 29-3.55271e-15 29-3.55271e-15 27 2.399 27C2.599 21.941 4.239 17.128 7.208 13.025L8.829 14.198C6.108 17.957 4.598 22.366 4.399 27L7 27 7 29 4.396 29C4.582 33.662 6.093 38.097 8.829 41.876L7.208 43.049C4.224 38.926 2.583 34.085 2.396 29L2.396 29ZM43.01 48.828C38.898 51.805 34.072 53.445 29 53.639L29 56 27 56 27 53.639C21.928 53.445 17.1 51.805 12.988 48.828L14.16 47.208C17.93 49.937 22.352 51.447 27 51.639L27 49 29 49 29 51.639C33.648 51.446 38.069 49.936 41.838 47.208L43.01 48.828ZM12.988 7.246C17.1 4.269 21.928 2.629 27 2.436L27 0 29 0 29 2.436C34.072 2.629 38.898 4.27 43.01 7.246L41.838 8.866C38.069 6.138 33.648 4.628 29 4.436L29 7 27 7 27 4.436C22.352 4.627 17.93 6.138 14.16 8.866L12.988 7.246ZM56 27 56 29 53.602 29C53.416 34.085 51.774 38.926 48.791 43.049L47.169 41.876C49.905 38.097 51.417 33.662 51.602 29L49 29 49 27 51.599 27C51.4 22.366 49.89 17.957 47.169 14.198L48.791 13.025C51.759 17.128 53.399 21.941 53.599 27L56 27ZM42.972 11.65 50.812 3.81 52.226 5.224 44.386 13.064 42.972 11.65ZM13.026 44.424 5.186 52.264 3.772 50.85 11.612 43.01 13.026 44.424ZM15.252 16.667 0.412 1.827 1.826 0.413 16.667 15.253 15.252 16.667ZM40.707 39.293 55.586 54.173 54.172 55.587 39.292 40.708 40.707 39.293ZM19.664 28.735C19.739 28.602 19.82 28.468 19.905 28.334 21.586 25.693 21.104 22.089 20.57 19.912 22.011 20.859 23.31 22.816 23.753 23.638 23.942 23.986 24.309 24.197 24.712 24.161 25.107 24.13 25.446 23.87 25.578 23.497 27.067 19.267 26.31 16.087 25.26 14.026 26.533 14.767 27.519 15.833 28.172 17.192 29.588 20.134 29.273 24.161 27.348 27.7 24.719 32.536 25.246 37.606 25.844 40.334 24.343 39.687 23.007 38.956 21.854 38.152 18.827 36.042 17.864 31.907 19.664 28.735L19.664 28.735ZM33.094 28.398C33.029 28.807 33.221 29.214 33.579 29.422 33.936 29.629 34.386 29.596 34.709 29.336 34.79 29.271 36.43 27.917 37.224 24.642 38.181 26.034 39.182 28.843 37.85 34.003 36.532 39.108 30.28 40.544 28.049 40.897 27.51 38.964 26.417 33.599 29.106 28.655 31.014 25.145 31.52 21.176 30.564 17.901 32.374 20.027 33.901 23.373 33.094 28.398L33.094 28.398ZM17.922 27.75C15.62 31.81 16.844 37.099 20.71 39.793 22.46 41.013 24.58 42.072 27.01 42.941 27.121 42.981 27.234 43 27.347 43 27.368 43 27.386 42.989 27.406 42.988L27.407 42.997C27.832 42.964 37.826 42.096 39.786 34.503 42.308 24.737 37.257 21.84 37.041 21.721 36.748 21.561 36.393 21.557 36.096 21.712 35.799 21.868 35.6 22.162 35.566 22.495 35.495 23.17 35.384 23.771 35.25 24.302 34.558 16.634 28.479 13.514 27.25 12.959 25.99 11.994 24.458 11.331 22.682 11.016 22.236 10.935 21.794 11.168 21.604 11.578 21.412 11.987 21.521 12.477 21.867 12.768 22.017 12.895 25.133 15.597 24.244 20.739 23.083 19.216 21.235 17.38 19.061 17.38 18.731 17.38 18.423 17.543 18.237 17.815 18.05 18.087 18.01 18.434 18.128 18.741 18.15 18.795 20.188 24.166 18.217 27.261 18.113 27.425 18.014 27.589 17.922 27.75L17.922 27.75Z" id="AWS-WAF_Icon_64_Squid"/></g></g></svg>