<svg width="80" height="80" viewBox="0 0 80 80" xmlns="http://www.w3.org/2000/svg" xmlns:xlink="http://www.w3.org/1999/xlink" overflow="hidden"><g id="Icon-Architecture/64/Arch_Amazon-Managed-Grafana_64" stroke="none" stroke-width="1" fill="none" fill-rule="evenodd"><g id="Icon-Architecture-BG/64/Management-Governance" fill="#E7157B"><rect x="0" y="0" width="80" height="80" id="Rectangle"/></g><g id="Icon-Service/64/Amazon-Managed-Grafana_64" fill="#FFFFFF" transform="translate(12 12)"><path d="M13.9996 40.0004 15.9996 40.0004 15.9996 29.0004 13.9996 29.0004 13.9996 40.0004ZM34.9996 40.0004 36.9996 40.0004 36.9996 29.0004 34.9996 29.0004 34.9996 40.0004ZM27.9996 40.0004 29.9996 40.0004 29.9996 15.0004 27.9996 15.0004 27.9996 40.0004ZM20.9996 40.0004 22.9996 40.0004 22.9996 24.0004 20.9996 24.0004 20.9996 40.0004ZM53.9996 46.1934 18.4196 53.8864 2.11962 31.8334 12.6846 2.06136 35.0496 3.92436 36.0016 21.0564C36.0166 21.3304 36.1446 21.5864 36.3546 21.7634 36.5646 21.9414 36.8396 22.0254 37.1106 21.9944L53.9996 20.1174 53.9996 46.1934ZM55.6666 18.2554C55.4536 18.0654 55.1706 17.9764 54.8896 18.0064L37.9396 19.8904 36.9976 2.94436C36.9706 2.44636 36.5796 2.04536 36.0826 2.00336L12.0826 0.0033564C11.6236-0.0336436 11.2086 0.238356 11.0576 0.666356L0.0576175 31.6664C-0.0533825 31.9794-0.00238251 32.3274 0.196617 32.5944L17.1966 55.5944C17.3866 55.8534 17.6866 56.0004 17.9996 56.0004 18.0706 56.0004 18.1406 55.9934 18.2106 55.9784L55.2106 47.9784C55.6716 47.8784 55.9996 47.4714 55.9996 47.0004L55.9996 19.0004C55.9996 18.7154 55.8786 18.4444 55.6666 18.2554L55.6666 18.2554Z" id="Fill-5"/></g></g></svg>