<svg width="80" height="80" viewBox="0 0 80 80" xmlns="http://www.w3.org/2000/svg" xmlns:xlink="http://www.w3.org/1999/xlink" overflow="hidden"><g id="Icon-Architecture/64/Arch_AWS-IoT-SiteWise_64" stroke="none" stroke-width="1" fill="none" fill-rule="evenodd"><g id="Icon-Architecture-BG/64/Internet-of-Things" fill="#7AA116"><rect x="0" y="0" width="80" height="80" id="Rectangle"/></g><path d="M57.9998 48.912 53.2019 46.856 54.6808 45.978C55.4538 46.607 56.4278 47 57.4998 47 58.7078 47 59.8018 46.516 60.6098 45.738L62.7168 46.891 57.9998 48.912ZM57.4998 40C58.8788 40 59.9998 41.121 59.9998 42.5 59.9998 43.878 58.8788 45 57.4998 45 56.1208 45 54.9998 43.878 54.9998 42.5 54.9998 41.121 56.1208 40 57.4998 40L57.4998 40ZM39.9999 36C36.141 36 33 32.86 33 29 33 25.14 36.141 22 39.9999 22 43.8589 22 46.9999 25.14 46.9999 29 46.9999 32.86 43.8589 36 39.9999 36L39.9999 36ZM42.9999 51C42.9999 52.654 41.6539 54 39.9999 54 38.3459 54 37 52.654 37 51 37 49.346 38.3459 48 39.9999 48 41.6539 48 42.9999 49.346 42.9999 51L42.9999 51ZM39.9999 58.848 35.118 56.058 37.108 55.064C37.9269 55.648 38.9209 56 39.9999 56 41.0789 56 42.0729 55.648 42.8919 55.064L44.8819 56.058 39.9999 58.848ZM22.099 48.912 17.3191 46.894 19.4261 45.768C20.2311 46.526 21.309 47 22.5 47 23.584 47 24.565 46.599 25.343 45.959L26.826 46.855 22.099 48.912ZM22.5 40C23.879 40 25 41.121 25 42.5 25 43.878 23.879 45 22.5 45 21.1211 45 20.0001 43.878 20.0001 42.5 20.0001 41.121 21.1211 40 22.5 40L22.5 40ZM65.4798 46.122 61.7058 44.057C61.8868 43.57 61.9998 43.049 61.9998 42.5 61.9998 40.018 59.9808 38 57.4998 38 56.6018 38 55.7678 38.271 55.0628 38.727L48.1889 32.712C48.7049 31.579 48.9999 30.324 48.9999 29 48.9999 24.037 44.9629 20 39.9999 20 35.037 20 31 24.037 31 29 31 30.324 31.295 31.579 31.811 32.712L24.937 38.727C24.232 38.271 23.398 38 22.5 38 20.0191 38 18.0001 40.018 18.0001 42.5 18.0001 43.064 18.1161 43.6 18.3071 44.099L14.5281 46.118C14.1881 46.3 13.9831 46.661 14.0011 47.045 14.0191 47.431 14.2561 47.771 14.6111 47.921L21.716 50.921C21.84 50.974 21.973 51 22.104 51 22.24 51 22.376 50.972 22.504 50.917L29.399 47.917C29.742 47.767 29.973 47.439 29.998 47.066 30.022 46.693 29.837 46.337 29.518 46.144L26.581 44.37C26.844 43.798 27 43.169 27 42.5 27 41.642 26.746 40.849 26.328 40.166L32.857 34.454C34.312 36.354 36.5 37.663 38.9999 37.941L38.9999 46.101C36.721 46.566 35 48.585 35 51 35 51.926 35.27 52.782 35.71 53.527L32.553 55.105C32.223 55.27 32.011 55.603 32 55.972 31.99 56.341 32.184 56.685 32.504 56.868L39.5039 60.868C39.6569 60.956 39.8289 61 39.9999 61 40.1709 61 40.3429 60.956 40.4959 60.868L47.4959 56.868C47.8159 56.685 48.0099 56.341 47.9999 55.972 47.9889 55.603 47.7769 55.27 47.4469 55.105L44.2899 53.527C44.7299 52.782 44.9999 51.926 44.9999 51 44.9999 48.585 43.2789 46.566 40.9999 46.101L40.9999 37.941C43.4999 37.663 45.6879 36.354 47.1429 34.454L53.6718 40.166C53.2539 40.849 52.9999 41.642 52.9999 42.5 52.9999 43.179 53.1619 43.816 53.4319 44.393L50.4889 46.14C50.1659 46.332 49.9779 46.69 50.0019 47.065 50.0259 47.441 50.2599 47.771 50.6059 47.919L57.6058 50.919C57.7308 50.973 57.8658 51 57.9998 51 58.1338 51 58.2688 50.973 58.3938 50.919L65.3938 47.919C65.7458 47.768 65.9798 47.43 65.9988 47.048 66.0178 46.665 65.8148 46.307 65.4798 46.122L65.4798 46.122Z" id="AWS-IoT-SiteWise_Icon_64_Squid" fill="#FFFFFF"/></g></svg>