<svg width="48" height="48" viewBox="0 0 48 48" xmlns="http://www.w3.org/2000/svg" xmlns:xlink="http://www.w3.org/1999/xlink" overflow="hidden"><g id="Icon-Resource/Database/Res_Amazon-Aurora-MariaDB-Instance-Alternate_48" stroke="none" stroke-width="1" fill="none" fill-rule="evenodd"><path d="M40.187 14.362C40.037 14.551 39.824 14.646 39.547 14.646L38.673 14.646 38.673 12.396 39.46 12.396C39.766 12.396 40.001 12.495 40.165 12.692 40.329 12.888 40.411 13.169 40.411 13.532 40.411 13.896 40.335 14.173 40.187 14.362L40.187 14.362ZM38.673 9.262 39.383 9.262C39.61 9.262 39.787 9.355 39.915 9.542 40.041 9.726 40.105 9.987 40.105 10.322 40.105 10.649 40.032 10.905 39.887 11.087 39.74 11.268 39.541 11.359 39.287 11.359L38.673 11.359 38.673 9.262ZM40.684 11.763C40.974 11.626 41.197 11.422 41.349 11.152 41.502 10.883 41.58 10.558 41.58 10.18 41.58 9.583 41.385 9.098 41 8.727 40.614 8.356 40.119 8.171 39.515 8.171L37.233 8.171 37.233 15.738 39.581 15.738C40.286 15.738 40.851 15.546 41.273 15.159 41.696 14.773 41.907 14.257 41.907 13.609 41.907 13.143 41.803 12.754 41.595 12.44 41.388 12.127 41.083 11.902 40.684 11.763L40.684 11.763ZM34.373 12.058C34.373 12.91 34.254 13.542 34.023 13.953 33.789 14.364 33.436 14.569 32.963 14.569L32.319 14.569 32.319 9.339 32.953 9.339C33.44 9.339 33.799 9.542 34.028 9.945 34.257 10.349 34.373 10.98 34.373 11.84L34.373 12.058ZM33.072 8.171 30.791 8.171 30.791 15.738 33.126 15.738C34.044 15.738 34.743 15.418 35.224 14.777 35.704 14.137 35.944 13.193 35.944 11.949 35.944 10.712 35.7 9.772 35.212 9.132 34.725 8.491 34.011 8.171 33.072 8.171L33.072 8.171ZM28.049 14.482C27.808 14.716 27.569 14.832 27.329 14.832 27.175 14.832 27.053 14.768 26.962 14.64 26.872 14.513 26.826 14.34 26.826 14.122 26.826 13.867 26.882 13.673 26.996 13.538 27.108 13.403 27.27 13.336 27.481 13.336 27.7 13.336 27.889 13.361 28.049 13.412L28.049 14.482ZM27.624 10.016C27.266 10.016 26.917 10.056 26.575 10.135 26.233 10.216 25.956 10.325 25.745 10.464L25.745 11.458C26.378 11.224 26.914 11.108 27.35 11.108 27.62 11.108 27.803 11.175 27.902 11.309 27.999 11.444 28.049 11.701 28.049 12.08L28.049 12.583C27.714 12.495 27.434 12.451 27.208 12.451 26.662 12.451 26.229 12.61 25.909 12.926 25.588 13.243 25.428 13.675 25.428 14.22 25.428 14.737 25.56 15.142 25.822 15.438 26.083 15.732 26.44 15.88 26.891 15.88 27.132 15.88 27.369 15.82 27.601 15.7 27.834 15.58 28.012 15.425 28.136 15.236L28.267 15.738 29.425 15.738 29.425 11.829C29.425 11.195 29.283 10.735 28.999 10.447 28.715 10.16 28.256 10.016 27.624 10.016L27.624 10.016ZM22.819 15.738 24.314 15.738 24.314 10.158 22.819 10.158 22.819 15.738ZM24.205 7.815C24.366 7.965 24.446 8.167 24.446 8.422 24.446 8.677 24.366 8.879 24.205 9.028 24.045 9.176 23.834 9.252 23.572 9.252 23.302 9.252 23.087 9.176 22.928 9.028 22.768 8.879 22.688 8.677 22.688 8.422 22.688 8.167 22.768 7.965 22.928 7.815 23.087 7.667 23.302 7.591 23.572 7.591 23.834 7.591 24.045 7.667 24.205 7.815L24.205 7.815ZM21.76 10.103C21.876 10.103 21.992 10.115 22.109 10.135L22.109 11.458C21.905 11.422 21.712 11.403 21.53 11.403 21.181 11.403 20.849 11.491 20.537 11.665L20.537 15.738 19.041 15.738 19.041 10.158 20.264 10.158 20.427 10.879C20.646 10.609 20.863 10.413 21.078 10.29 21.291 10.166 21.519 10.103 21.76 10.103L21.76 10.103ZM16.398 14.482C16.159 14.716 15.918 14.832 15.677 14.832 15.525 14.832 15.403 14.768 15.312 14.64 15.22 14.513 15.176 14.34 15.176 14.122 15.176 13.867 15.232 13.673 15.345 13.538 15.458 13.403 15.62 13.336 15.831 13.336 16.049 13.336 16.238 13.361 16.398 13.412L16.398 14.482ZM15.972 10.016C15.616 10.016 15.266 10.056 14.924 10.135 14.583 10.216 14.305 10.325 14.094 10.464L14.094 11.458C14.727 11.224 15.263 11.108 15.7 11.108 15.969 11.108 16.153 11.175 16.25 11.309 16.35 11.444 16.398 11.701 16.398 12.08L16.398 12.583C16.063 12.495 15.784 12.451 15.558 12.451 15.012 12.451 14.579 12.61 14.258 12.926 13.937 13.243 13.778 13.675 13.778 14.22 13.778 14.737 13.908 15.142 14.17 15.438 14.433 15.732 14.79 15.88 15.241 15.88 15.481 15.88 15.717 15.82 15.951 15.7 16.183 15.58 16.362 15.425 16.486 15.236L16.617 15.738 17.774 15.738 17.774 11.829C17.774 11.195 17.632 10.735 17.348 10.447 17.065 10.16 16.606 10.016 15.972 10.016L15.972 10.016ZM10.895 8.171 12.598 8.171 12.598 15.738 11.233 15.738 11.233 10.431 9.956 13.871 8.657 13.871 7.389 10.464 7.389 15.738 6.025 15.738 6.025 8.171 7.772 8.171 9.333 12.408 10.895 8.171ZM43.932 39.484C43.932 41.937 41.937 43.932 39.484 43.932L8.448 43.932C5.996 43.932 4 41.937 4 39.484L4 8.448C4 5.995 5.996 4 8.448 4L39.484 4C41.937 4 43.932 5.995 43.932 8.448L43.932 39.484ZM39.484 2 8.448 2C4.893 2 2 4.892 2 8.448L2 39.484C2 43.04 4.893 45.932 8.448 45.932L39.484 45.932C43.04 45.932 45.932 43.04 45.932 39.484L45.932 8.448C45.932 4.892 43.04 2 39.484 2L39.484 2Z" id="Amazon-DATABASEAmazon-Aurora-MariaDB-instance-alternate_Resource-Icon_light-bg" fill="#C925D1"/></g></svg>