<svg width="80" height="80" viewBox="0 0 80 80" xmlns="http://www.w3.org/2000/svg" xmlns:xlink="http://www.w3.org/1999/xlink" overflow="hidden"><g id="Icon-Architecture/64/Arch_Amazon-Comprehend_64" stroke="none" stroke-width="1" fill="none" fill-rule="evenodd"><g id="Icon-Architecture-BG/64/Machine-Learning" fill="#01A88D"><rect x="0" y="0" width="80" height="80" id="Rectangle"/></g><path d="M17 54 32.9999 54 32.9999 52 17 52 17 54ZM33.9998 47 42.9998 47 42.9998 45 33.9998 45 33.9998 47ZM17 47 31.9999 47 31.9999 45 17 45 17 47ZM17 26 29.9999 26 29.9999 24 17 24 17 26ZM63.0106 54.079C62.8976 54.156 62.7526 54.218 62.6036 54.287 62.0757 54.534 61.3527 54.873 61.0617 55.651 61.0207 55.763 60.9997 55.881 60.9997 56L60.9997 60 58.9997 60 58.9997 51 61.9997 51 61.9997 49 53.9997 49 53.9997 51 56.9997 51 56.9997 60 54.9997 60 54.9997 56C54.9997 55.881 54.9787 55.763 54.9367 55.651 54.6467 54.873 53.9237 54.534 53.3957 54.287 53.2467 54.218 53.1017 54.156 52.9887 54.079 50.0247 52.024 48.5437 48.505 49.1247 44.896 49.7727 40.863 53.2057 37.621 57.2867 37.188 57.4957 37.165 58.5077 37.166 58.7127 37.188 62.7936 37.621 66.2266 40.863 66.8746 44.896 67.4556 48.505 65.9746 52.024 63.0106 54.079L63.0106 54.079ZM68.8496 44.579C68.0606 39.67 63.8856 35.726 58.9227 35.198 58.5767 35.162 57.4207 35.162 57.0767 35.198L57.0757 35.198C52.1137 35.726 47.9388 39.67 47.1498 44.579 46.4458 48.955 48.2467 53.225 51.8507 55.722 52.0457 55.857 52.2907 55.979 52.5477 56.099 52.6847 56.163 52.8937 56.26 52.9997 56.314L52.9997 61C52.9997 61.552 53.4467 62 53.9997 62L61.9997 62C62.5527 62 62.9996 61.552 62.9996 61L62.9996 56.33C63.1206 56.253 63.3196 56.161 63.4516 56.099 63.7086 55.979 63.9536 55.857 64.1486 55.722 67.7526 53.225 69.5536 48.955 68.8496 44.579L68.8496 44.579ZM59.4647 66 56.5347 66 55.8677 65 60.1317 65 59.4647 66ZM61.9997 63 53.9997 63C53.6307 63 53.2917 63.203 53.1177 63.528 52.9437 63.854 52.9637 64.248 53.1677 64.555L55.1677 67.555C55.3537 67.833 55.6657 68 55.9997 68L59.9997 68C60.3337 68 60.6457 67.833 60.8317 67.555L62.8316 64.555C63.0356 64.248 63.0556 63.854 62.8816 63.528 62.7076 63.203 62.3686 63 61.9997 63L61.9997 63ZM17 40 42.9998 40 42.9998 38 17 38 17 40ZM25.9999 33 42.9998 33 42.9998 31 25.9999 31 25.9999 33ZM17 33 23.9999 33 23.9999 31 17 31 17 33ZM35.9998 15.414 44.5858 24 35.9998 24 35.9998 15.414ZM45.9998 61 14 61 14 14.005 33.9998 14 33.9998 25C33.9998 25.552 34.4468 26 34.9998 26L45.9998 26 45.9998 38 47.9997 38 47.9997 25 47.9907 25C47.9897 24.74 47.8978 24.484 47.7068 24.293L35.7068 12.293C35.5168 12.102 35.2608 12.01 34.9998 12.01L34.9998 12 13 12.005C12.447 12.005 12 12.453 12 13.005L12 62C12 62.552 12.447 63 13 63L46.9998 63C47.5528 63 47.9997 62.552 47.9997 62L47.9997 56 45.9998 56 45.9998 61Z" id="Amazon-Comprehend_Icon_64_Squid" fill="#FFFFFF"/></g></svg>