<svg width="80" height="80" viewBox="0 0 80 80" xmlns="http://www.w3.org/2000/svg" xmlns:xlink="http://www.w3.org/1999/xlink" overflow="hidden"><g id="Icon-Architecture/64/Arch_AWS-Glue_64" stroke="none" stroke-width="1" fill="none" fill-rule="evenodd"><g id="Icon-Architecture-BG/64/Analytics" fill="#8C4FFF"><rect x="0" y="0" width="80" height="80" id="Rectangle"/></g><path d="M33 23 35 23 35 21 33 21 33 23ZM31 24 31 20C31 19.448 31.447 19 32 19L36 19C36.553 19 37 19.448 37 20L37 24C37 24.552 36.553 25 36 25L32 25C31.447 25 31 24.552 31 24L31 24ZM41 17 43 17 43 15 41 15 41 17ZM39 18 39 14C39 13.448 39.447 13 40 13L44 13C44.553 13 45 13.448 45 14L45 18C45 18.552 44.553 19 44 19L40 19C39.447 19 39 18.552 39 18L39 18ZM43 27 45 27 45 25 43 25 43 27ZM42 23 46 23C46.553 23 47 23.448 47 24L47 28C47 28.552 46.553 29 46 29L42 29C41.447 29 41 28.552 41 28L41 24C41 23.448 41.447 23 42 23L42 23ZM40 33.5C38.239 33.5 31.854 33.425 27.701 32.404L37.846 48.466C37.946 48.626 38 48.811 38 49L38 51.277C39.404 51.684 40.701 51.688 42 51.293L42 49C42 48.811 42.054 48.626 42.154 48.466L52.299 32.404C48.146 33.425 41.761 33.5 40 33.5L40 33.5ZM24.254 30.692C24.095 30.46 24 30.21 24 29.937 24 27.092 33.384 26.566 38.978 26.505L38.999 28.505C32.127 28.58 27.928 29.364 26.448 29.948 28.018 30.604 32.643 31.5 40 31.5 47.338 31.5 51.957 30.609 53.539 29.954 52.893 29.693 51.555 29.307 48.879 28.98L49.121 26.995C55.183 27.735 56 28.897 56 29.937 56 30.21 55.905 30.46 55.746 30.692L44 49.29 44 52C44 52.408 43.752 52.776 43.373 52.928 42.282 53.366 41.186 53.584 40.066 53.584 38.956 53.584 37.824 53.369 36.654 52.938 36.262 52.793 36 52.419 36 52L36 49.29 24.254 30.692ZM46.924 59.617C47.079 59.991 46.993 60.421 46.707 60.707L40.707 66.707C40.512 66.902 40.256 67 40 67 39.744 67 39.488 66.902 39.293 66.707L33.293 60.707C33.007 60.421 32.921 59.991 33.076 59.617 33.23 59.244 33.596 59 34 59L37 59 37 56 39 56 39 60C39 60.552 38.553 61 38 61L36.414 61 40 64.586 43.586 61 42 61C41.447 61 41 60.552 41 60L41 56 43 56 43 59 46 59C46.404 59 46.77 59.244 46.924 59.617L46.924 59.617Z" id="AWS-Glue_Icon_64_Squid" fill="#FFFFFF"/></g></svg>