<svg width="48" height="48" viewBox="0 0 48 48" xmlns="http://www.w3.org/2000/svg" xmlns:xlink="http://www.w3.org/1999/xlink" overflow="hidden"><g id="Icon-Resource/IoT/Res_AWS-IoT-Rule_48" stroke="none" stroke-width="1" fill="none" fill-rule="evenodd"><path d="M33.0811 9.1075C31.6731 9.1075 30.5271 7.9615 30.5271 6.5535 30.5271 5.1455 31.6731 4.0005 33.0811 4.0005 34.4891 4.0005 35.6351 5.1455 35.6351 6.5535 35.6351 7.9615 34.4891 9.1075 33.0811 9.1075L33.0811 9.1075ZM13.0001 8.1835 17.1191 8.1835 17.1191 4.0635 13.0001 4.0635 13.0001 8.1835ZM33.0811 2.0005C30.5701 2.0005 28.5271 4.0435 28.5271 6.5535 28.5271 7.3635 28.7581 8.1135 29.1301 8.7735L24.2491 12.0825 19.1191 8.6055 19.1191 3.0635C19.1191 2.5105 18.6721 2.0635 18.1191 2.0635L12.0001 2.0635C11.4471 2.0635 11.0001 2.5105 11.0001 3.0635L11.0001 9.1835C11.0001 9.7365 11.4471 10.1835 12.0001 10.1835L17.8841 10.1835 23.3251 13.8715 23.3251 16.2745 25.3251 16.2745 25.3251 13.7685 30.4761 10.2785C31.2161 10.7965 32.1111 11.1075 33.0811 11.1075 35.5921 11.1075 37.6351 9.0645 37.6351 6.5535 37.6351 4.0435 35.5921 2.0005 33.0811 2.0005L33.0811 2.0005ZM24.3411 44.2595C18.3111 44.2595 14.9351 42.7435 14.8201 42.1005L14.8211 26.3645C17.0381 27.5125 20.7721 28.0565 24.3411 28.0565 27.9091 28.0565 31.6441 27.5125 33.8611 26.3645L33.8611 42.0965C33.7451 42.7435 30.3661 44.2595 24.3411 44.2595L24.3411 44.2595ZM35.8441 23.8815C35.8351 23.7365 35.8231 23.5875 35.7841 23.4605 35.4921 22.4295 34.4361 21.6155 32.5561 20.9695L31.9071 22.8625C33.2341 23.3175 33.7151 23.7555 33.8321 23.9475 33.5301 24.6285 30.2001 26.0565 24.3411 26.0565 18.4741 26.0565 15.1471 24.6285 14.8501 23.9495 14.9631 23.7595 15.4411 23.3195 16.7741 22.8625L16.1261 20.9695C14.2451 21.6155 13.1891 22.4295 12.8971 23.4585 12.8581 23.5945 12.8471 23.7405 12.8381 23.8815L12.8201 23.8815C12.8201 23.9045 12.8281 23.9235 12.8291 23.9455 12.8281 23.9645 12.8201 23.9855 12.8201 24.0045L12.8201 42.1005C12.8201 44.9585 18.7921 46.2595 24.3411 46.2595 29.8901 46.2595 35.8611 44.9585 35.8611 42.1005L35.8611 24.0045C35.8611 23.9845 35.8531 23.9655 35.8521 23.9455 35.8531 23.9235 35.8611 23.9045 35.8611 23.8815L35.8441 23.8815ZM24.3411 22.1335 20.9551 18.9635 27.7271 18.9635 24.3411 22.1335ZM31.3971 24.2145 31.3971 17.9635C31.3971 17.4115 30.9501 16.9635 30.3971 16.9635L18.2531 16.9635C17.7001 16.9635 17.2531 17.4115 17.2531 17.9635L17.2531 24.2145 19.2531 24.2145 19.2531 20.1115 23.6571 24.2335C23.8501 24.4145 24.0951 24.5035 24.3411 24.5035 24.5861 24.5035 24.8321 24.4145 25.0241 24.2345L29.3971 20.1405 29.3971 24.2145 31.3971 24.2145Z" id="Amazon-IOT-RESOURCES-IoT-IoT-Rule_Resource-Icon_light-bg" fill="#7AA116"/></g></svg>