<svg width="48" height="48" viewBox="0 0 48 48" xmlns="http://www.w3.org/2000/svg" xmlns:xlink="http://www.w3.org/1999/xlink" overflow="hidden"><g id="Icon-Resource/Application-Integration/Res_Amazon-EventBridge_Custom-Event-Bus_48" stroke="none" stroke-width="1" fill="none" fill-rule="evenodd"><path d="M43.717 22.782 42.433 21.233 41.329 22.147 42.613 23.697 43.717 22.782ZM26.847 36.768 25.563 35.22 23.053 37.3 22.575 39.003 24.337 38.849 26.847 36.768ZM27.102 33.942 28.387 35.492 41.074 24.973 39.79 23.425 27.102 33.942ZM45.764 23.683 25.373 40.588C25.216 40.718 25.024 40.797 24.821 40.814L21.309 41.121C21.28 41.124 21.251 41.125 21.222 41.125 20.926 41.125 20.643 40.993 20.452 40.763 20.242 40.511 20.17 40.171 20.259 39.855L21.211 36.46C21.266 36.263 21.379 36.09 21.535 35.96L41.926 19.055C42.131 18.886 42.396 18.806 42.657 18.829 42.922 18.854 43.165 18.982 43.334 19.186L45.895 22.275C46.247 22.701 46.189 23.331 45.764 23.683L45.764 23.683ZM31.1 6.91 29.26 6.125 26.673 12.19 28.513 12.975 31.1 6.91ZM39.08 13.67 37.879 12.07 32.572 16.054 33.774 17.654 39.08 13.67ZM13.466 43.154 15.306 43.939 17.893 37.874 16.053 37.089 13.466 43.154ZM5.486 36.394 6.687 37.994 11.993 34.01 10.792 32.41 5.486 36.394ZM8.604 25.755 2 26.591 2.252 28.575 8.856 27.739 8.604 25.755ZM10.081 18.901 3.95 16.364 3.185 18.212 9.316 20.749 10.081 18.901ZM14.832 13.688 10.817 8.459 9.231 9.678 13.246 14.907 14.832 13.688ZM21.581 11.521 20.756 5 18.772 5.252 19.597 11.773 21.581 11.521ZM16.71 33.125 12.003 24.972C11.824 24.663 11.824 24.282 12.003 23.972L16.71 15.82C16.889 15.511 17.219 15.32 17.576 15.32L26.989 15.32C27.347 15.32 27.677 15.511 27.856 15.82L32.563 23.972 30.83 24.972 26.412 17.32 18.154 17.32 14.024 24.472 18.154 31.625 22.033 31.625 22.033 33.625 17.576 33.625C17.219 33.625 16.889 33.434 16.71 33.125L16.71 33.125Z" id="Amazon-EventBridge_Custom-Event-Bus_Resource-Icon_light-bg" fill="#E7157B"/></g></svg>