<svg width="48" height="48" viewBox="0 0 48 48" xmlns="http://www.w3.org/2000/svg" xmlns:xlink="http://www.w3.org/1999/xlink" fill="none" overflow="hidden"><path d="M20.29 24.0598C19.74 24.0598 19.29 24.5098 19.29 25.0598L19.29 29.0598C19.29 29.6098 19.74 30.0598 20.29 30.0598L21.29 30.0598 21.29 32.0598 17.29 32.0598C16.74 32.0598 16.29 32.5098 16.29 33.0598L16.29 35.0598 15.29 35.0598C14.74 35.0598 14.29 35.5098 14.29 36.0598L14.29 40.0598C14.29 40.6098 14.74 41.0598 15.29 41.0598L19.29 41.0598C19.84 41.0598 20.29 40.6098 20.29 40.0598L20.29 36.0598C20.29 35.5098 19.84 35.0598 19.29 35.0598L18.29 35.0598 18.29 34.0598 26.29 34.0598 26.29 35.0598 25.29 35.0598C24.74 35.0598 24.29 35.5098 24.29 36.0598L24.29 40.0598C24.29 40.6098 24.74 41.0598 25.29 41.0598L29.29 41.0598C29.84 41.0598 30.29 40.6098 30.29 40.0598L30.29 36.0598C30.29 35.5098 29.84 35.0598 29.29 35.0598L28.29 35.0598 28.29 33.0598C28.29 32.5098 27.84 32.0598 27.29 32.0598L23.29 32.0598 23.29 30.0598 24.29 30.0598C24.84 30.0598 25.29 29.6098 25.29 29.0598L25.29 25.0598C25.29 24.5098 24.84 24.0598 24.29 24.0598L20.29 24.0598ZM18.29 39.0598 16.29 39.0598 16.29 37.0598 18.29 37.0598 18.29 39.0598ZM28.29 39.0598 26.29 39.0598 26.29 37.0598 28.29 37.0598 28.29 39.0598ZM23.29 28.0598 21.29 28.0598 21.29 26.0598 23.29 26.0598 23.29 28.0598ZM45.26 26.2598C45.05 25.1098 43.72 23.8898 41.02 22.3498L42.74 9.59977 42.79 9.20977C42.79 9.20977 42.79 9.11977 42.79 9.07977 42.79 4.90977 32.3 2.00977 22.89 2.00977 13.48 2.00977 3 4.89977 3 9.06977 3 9.10977 3 9.15977 3 9.19977L3.05 9.58977 7.28 41.0098C7.41 44.6898 16.89 46.0598 22.89 46.0598 26.2 46.0598 29.53 45.7098 32.25 45.0798 33.35 44.8298 34.33 44.5298 35.17 44.1998 37.34 43.3398 38.45 42.2698 38.5 41.0098L40.24 28.0798C41.19 28.2798 42.06 28.3998 42.78 28.3998 43.75 28.3998 44.47 28.1898 44.87 27.7298 45.22 27.3098 45.36 26.7898 45.26 26.2498L45.26 26.2598ZM22.9 3.99977C33.32 3.99977 40.66 7.22977 40.8 9.01977L40.77 9.22977C40.25 11.0098 33.25 13.4798 22.9 13.4798 12.55 13.4798 5.54 11.0098 5.03 9.22977L5 9.01977C5.14 7.22977 12.48 3.99977 22.89 3.99977L22.9 3.99977ZM36.51 40.7998C36.51 40.7998 36.51 40.8898 36.51 40.9298 36.51 41.0798 36.13 41.6698 34.45 42.3398 33.7 42.6398 32.81 42.8998 31.81 43.1298 29.23 43.7298 26.07 44.0498 22.9 44.0498 14.43 44.0498 9.29 41.8798 9.29 40.9198 9.29 40.8798 9.29 40.8298 9.29 40.7898L5.44 12.2898C9.06 14.3998 16.15 15.4898 22.9 15.4898 29.65 15.4898 36.74 14.3998 40.36 12.2898L38.95 22.7698 38.57 25.5898C34.93 24.4198 29.82 22.3098 24.99 20.0098 24.93 18.8998 24.03 18.0198 22.91 18.0198 21.79 18.0198 20.81 18.9598 20.81 20.1198 20.81 21.2798 21.75 22.2198 22.91 22.2198 23.36 22.2198 23.78 22.0698 24.13 21.8198 28.46 23.8998 33.99 26.3498 38.31 27.5998L36.53 40.8098 36.51 40.7998ZM40.5 26.1598 40.72 24.4998C42.5 25.5898 43.05 26.2098 43.21 26.4798 42.74 26.6198 41.78 26.4898 40.49 26.1598L40.5 26.1598Z" fill="#7AA116"/></svg>