<svg width="48" height="48" viewBox="0 0 48 48" xmlns="http://www.w3.org/2000/svg" xmlns:xlink="http://www.w3.org/1999/xlink" overflow="hidden"><g id="Icon-Resource/Storage/Res_Amazon-Elastic-File-System_Standard_48" stroke="none" stroke-width="1" fill="none" fill-rule="evenodd"><path d="M41 40 41 17.654C41 15.894 40.109 14 38.154 14L36 14 36 16 38.154 16C38.95 16 39 17.641 39 17.654L39 39 4 39 4 17.664C4.008 17.273 4.166 16 5.846 16L7 16 7 14 5.846 14C3.024 14 2 16.185 2 17.654L2 40C2 40.552 2.447 41 3 41L40 41C40.553 41 41 40.552 41 40L41 40ZM25.347 15C25.347 14.307 25.576 12.71 25.812 12L30 12 30 10 25.257 10C25.068 10 24.885 10.053 24.726 10.153 23.853 10.701 23.528 12.748 23.411 14L13 14 13 16 24.347 16C24.899 16 25.347 15.552 25.347 15L25.347 15ZM24 33C24 34.103 24.897 35 26 35 27.103 35 28 34.103 28 33 28 31.897 27.103 31 26 31 24.897 31 24 31.897 24 33L24 33ZM22 33C22 30.794 23.794 29 26 29 28.206 29 30 30.794 30 33 30 35.206 28.206 37 26 37 23.794 37 22 35.206 22 33L22 33ZM26.437 25 24.611 21.609 22.785 25 26.437 25ZM28.111 27 21.111 27C20.76 27 20.434 26.815 20.253 26.513 20.072 26.21 20.064 25.836 20.23 25.526L23.73 19.026C24.08 18.378 25.143 18.378 25.492 19.026L28.992 25.526C29.158 25.836 29.15 26.21 28.97 26.513 28.789 26.815 28.463 27 28.111 27L28.111 27ZM12 32 15 32 15 29 12 29 12 32ZM16 27C16.553 27 17 27.448 17 28L17 33C17 33.552 16.553 34 16 34L11 34C10.447 34 10 33.552 10 33L10 28C10 27.448 10.447 27 11 27L16 27ZM43.079 20.004 42.979 22.001C43.542 22.029 44 22.51 44 23.074L44 44 9 44 9 43 7 43 7 45 7 45.001C7.001 45.553 7.448 46 8 46L45 46C45.553 46 46 45.552 46 45L46 23.074C46 21.434 44.717 20.085 43.079 20.004L43.079 20.004ZM20 5.401 20 12 22 12 22 5.427 23.296 6.71 24.704 5.29 21.675 2.29C21.487 2.104 21.234 2 20.971 2L20.966 2C20.7 2.001 20.446 2.108 20.26 2.296L17.289 5.296 18.711 6.704 20 5.401ZM6.283 18.697 9.269 21.767C9.456 21.959 9.714 22.069 9.982 22.069L9.985 22.069C10.254 22.069 10.511 21.961 10.699 21.77L13.714 18.701 12.286 17.299 11 18.609 11 10 9 10 9 18.622 7.717 17.303 6.283 18.697ZM30.707 17.293 32 18.586 32 10 34 10 34 18.586 35.293 17.293 36.707 18.707 33.707 21.707C33.512 21.902 33.256 22 33 22 32.744 22 32.488 21.902 32.293 21.707L29.293 18.707 30.707 17.293Z" id="Fill-1" fill="#7AA116"/></g></svg>