<svg width="80" height="80" viewBox="0 0 80 80" xmlns="http://www.w3.org/2000/svg" xmlns:xlink="http://www.w3.org/1999/xlink" overflow="hidden"><g id="Icon-Architecture/64/Arch_AWS-Key-Management-Service_64" stroke="none" stroke-width="1" fill="none" fill-rule="evenodd"><g id="Icon-Architecture-BG/64/Security-Identity-Compliance" fill="#DD344C"><rect x="0" y="0" width="80" height="80" id="Rectangle"/></g><path d="M51.9969 52.4963 58.9969 52.4963 58.9969 50.4963 51.9969 50.4963 51.9969 52.4963ZM42.9969 52.4963 49.9969 52.4963 49.9969 50.4963 42.9969 50.4963 42.9969 52.4963ZM33.9969 52.4963 40.9969 52.4963 40.9969 50.4963 33.9969 50.4963 33.9969 52.4963ZM44.9969 44.4963C44.9969 43.3933 45.8949 42.4963 46.9969 42.4963 48.0999 42.4963 48.9969 43.3933 48.9969 44.4963 48.9969 45.5993 48.0999 46.4963 46.9969 46.4963 45.8949 46.4963 44.9969 45.5993 44.9969 44.4963L44.9969 44.4963ZM50.9969 44.4963C50.9969 42.2903 49.2039 40.4963 46.9969 40.4963 44.7909 40.4963 42.9969 42.2903 42.9969 44.4963 42.9969 46.7023 44.7909 48.4963 46.9969 48.4963 49.2039 48.4963 50.9969 46.7023 50.9969 44.4963L50.9969 44.4963ZM36.9969 42.4963C38.0999 42.4963 38.9969 43.3933 38.9969 44.4963 38.9969 45.5993 38.0999 46.4963 36.9969 46.4963 35.8949 46.4963 34.9969 45.5993 34.9969 44.4963 34.9969 43.3933 35.8949 42.4963 36.9969 42.4963L36.9969 42.4963ZM36.9969 48.4963C39.2039 48.4963 40.9969 46.7023 40.9969 44.4963 40.9969 42.2903 39.2039 40.4963 36.9969 40.4963 34.7909 40.4963 32.9969 42.2903 32.9969 44.4963 32.9969 46.7023 34.7909 48.4963 36.9969 48.4963L36.9969 48.4963ZM65.9969 33.4963 65.9969 56.4963C65.9969 57.0483 65.5499 57.4963 64.9969 57.4963L33.9969 57.4963 33.9969 55.4963 63.9969 55.4963 63.9969 34.4963 41.9969 34.4963 41.9969 32.4963 64.9969 32.4963C65.5499 32.4963 65.9969 32.9443 65.9969 33.4963L65.9969 33.4963ZM30.6959 38.5433C30.2799 38.6743 29.9969 39.0603 29.9969 39.4963L29.9969 60.5363 27.5979 62.5933 24.9969 59.6203 24.9969 56.9963C24.9969 56.7313 24.8919 56.4763 24.7039 56.2893L22.4119 53.9963 24.7039 51.7033C24.8919 51.5163 24.9969 51.2613 24.9969 50.9963L24.9969 48.9963C24.9969 48.7313 24.8919 48.4763 24.7039 48.2893L22.4119 45.9963 24.7039 43.7033C24.8919 43.5163 24.9969 43.2613 24.9969 42.9963L24.9969 39.5063C24.9969 39.0703 24.7149 38.6843 24.2989 38.5533 19.1569 36.9233 16.1169 31.6343 17.2299 26.2493 18.0319 22.3693 21.0159 19.2583 24.8309 18.3233 28.0799 17.5263 31.4119 18.2233 33.9719 20.2303 36.5299 22.2373 37.9969 25.2503 37.9969 28.4963 37.9969 33.0493 34.9949 37.1813 30.6959 38.5433L30.6959 38.5433ZM39.9969 28.4963C39.9969 24.6323 38.2509 21.0453 35.2059 18.6563 32.1609 16.2673 28.2089 15.4363 24.3549 16.3813 19.7939 17.4983 16.2289 21.2133 15.2709 25.8443L15.2709 25.8453C14.0009 31.9903 17.2999 38.0343 22.9969 40.2153L22.9969 42.5823 20.2899 45.2893C19.8999 45.6803 19.8999 46.3123 20.2899 46.7033L22.9969 49.4103 22.9969 50.5823 20.2899 53.2893C19.8999 53.6803 19.8999 54.3123 20.2899 54.7033L22.9969 57.4103 22.9969 59.9963C22.9969 60.2383 23.0849 60.4723 23.2449 60.6553L26.7449 64.6553C26.9429 64.8803 27.2189 64.9963 27.4969 64.9963 27.7279 64.9963 27.9589 64.9173 28.1479 64.7553L31.6479 61.7553C31.8699 61.5653 31.9969 61.2883 31.9969 60.9963L31.9969 40.2043C36.7429 38.3723 39.9969 33.6623 39.9969 28.4963L39.9969 28.4963ZM27.4969 30.8663C26.1189 30.8663 24.9969 29.7453 24.9969 28.3663 24.9969 26.9883 26.1189 25.8663 27.4969 25.8663 28.8759 25.8663 29.9969 26.9883 29.9969 28.3663 29.9969 29.7453 28.8759 30.8663 27.4969 30.8663L27.4969 30.8663ZM27.4969 23.8663C25.0159 23.8663 22.9969 25.8853 22.9969 28.3663 22.9969 30.8483 25.0159 32.8663 27.4969 32.8663 29.9789 32.8663 31.9969 30.8483 31.9969 28.3663 31.9969 25.8853 29.9789 23.8663 27.4969 23.8663L27.4969 23.8663Z" id="AWS-Key-Management-Service_Icon_64_Squid" fill="#FFFFFF"/></g></svg>