<svg width="80" height="80" viewBox="0 0 80 80" xmlns="http://www.w3.org/2000/svg" xmlns:xlink="http://www.w3.org/1999/xlink" overflow="hidden"><g id="Icon-Architecture/64/Arch_AWS-Command-Line-Interface_64" stroke="none" stroke-width="1" fill="none" fill-rule="evenodd"><g id="Icon-Architecture-BG/64/Developer-Tools" fill="#C925D1"><rect x="0" y="0" width="80" height="80" id="Rectangle"/></g><path d="M12 13 12 67 46 67 46 65 14 65 14 23 66 23 66 65 59 65 59 67 68 67 68 13 12 13ZM14 21 66 21 66 15 14 15 14 21ZM25 19 27.001 19 27.001 16.999 25 16.999 25 19ZM21 19 23 19 23 16.999 21 16.999 21 19ZM17 19 19 19 19 16.999 17 16.999 17 19ZM23.326 33.432 33.406 43.514 23.326 53.594 24.74 55.008 36.234 43.514 24.74 32.018 23.326 33.432ZM38 51 55 51 55 49 38 49 38 51Z" id="AWS-Command-Line-Interface_Icon_64_Squid" fill="#FFFFFF"/></g></svg>