<svg width="80" height="80" viewBox="0 0 80 80" xmlns="http://www.w3.org/2000/svg" xmlns:xlink="http://www.w3.org/1999/xlink" overflow="hidden"><g id="Icon-Architecture/64/Arch_AWS-Telco-Network-Builder_64" stroke="none" stroke-width="1" fill="none" fill-rule="evenodd"><g id="Icon-Architecture-BG/64/Management-Governance" fill="#E7157B"><rect x="0" y="0" width="80" height="80" id="Rectangle"/></g><path d="M43.914 50.9456C43.236 50.2946 42.362 49.9696 41.488 49.9696 40.569 49.9696 39.651 50.3286 38.965 51.0426 37.628 52.4336 37.671 54.6536 39.062 55.9916 40.453 57.3276 42.672 57.2866 44.012 55.8946 45.349 54.5036 45.306 52.2836 43.914 50.9456L43.914 50.9456ZM45.301 49.5046C47.486 51.6066 47.555 55.0946 45.453 57.2806 44.375 58.4016 42.933 58.9666 41.487 58.9666 40.115 58.9666 38.741 58.4576 37.676 57.4326 35.49 55.3306 35.422 51.8416 37.523 49.6556 39.625 47.4716 43.113 47.4006 45.301 49.5046L45.301 49.5046ZM54.789 53.7336 50.764 51.8846C50.508 51.7676 50.313 51.5476 50.227 51.2796L49.533 49.1016C49.449 48.8376 49.478 48.5496 49.614 48.3076L51.781 44.4536 46.244 40.4246 43.274 43.6466C43.086 43.8506 42.822 43.9666 42.545 43.9686L40.217 43.9826C39.941 43.9686 39.666 43.8666 39.476 43.6596L36.489 40.4176 30.945 44.4386 33.119 48.3076C33.256 48.5516 33.284 48.8416 33.197 49.1086L32.494 51.2616C32.408 51.5276 32.215 51.7436 31.961 51.8606L27.923 53.7136 30.033 60.2286 34.351 59.3646C34.629 59.3086 34.917 59.3736 35.143 59.5416L37.014 60.9266C37.236 61.0916 37.38 61.3406 37.412 61.6146L37.92 65.9696 44.768 65.9756 45.282 61.5916C45.314 61.3156 45.46 61.0656 45.685 60.9016L47.533 59.5476C47.76 59.3816 48.047 59.3176 48.32 59.3736L52.669 60.2456 54.789 53.7336ZM56.967 53.5066 54.296 61.7106C54.139 62.1926 53.64 62.4806 53.148 62.3816L48.359 61.4216 47.218 62.2576 46.65 67.0936C46.592 67.5966 46.164 67.9766 45.657 67.9766L45.656 67.9766 37.028 67.9686C36.521 67.9676 36.095 67.5886 36.036 67.0846L35.476 62.2766 34.31 61.4126 29.553 62.3636C29.054 62.4616 28.561 62.1746 28.405 61.6916L25.746 53.4836C25.59 53.0006 25.819 52.4776 26.28 52.2666L30.729 50.2246 31.16 48.9046 28.766 44.6416C28.518 44.1996 28.64 43.6406 29.051 43.3426L36.035 38.2766C36.441 37.9786 37.014 38.0336 37.357 38.4086L40.647 41.9796 42.099 41.9706 45.377 38.4146C45.722 38.0406 46.29 37.9856 46.7 38.2836L53.677 43.3606C54.087 43.6586 54.209 44.2166 53.961 44.6586L51.571 48.9086 51.999 50.2516 56.433 52.2876C56.894 52.4996 57.124 53.0236 56.967 53.5066L56.967 53.5066ZM18.722 14.5176C20.943 13.6186 23.449 13.9036 25.425 15.2816L26.569 13.6416C24.038 11.8756 20.825 11.5106 17.972 12.6626 15.118 13.8176 13.061 16.3156 12.47 19.3456L14.433 19.7286C14.893 17.3646 16.497 15.4166 18.722 14.5176L18.722 14.5176ZM22.026 23.7736C26.139 22.1096 30.776 22.6376 34.431 25.1886L35.575 23.5476C31.363 20.6096 26.017 20.0016 21.276 21.9206 16.531 23.8396 13.111 27.9946 12.128 33.0336L14.091 33.4166C14.944 29.0436 17.911 25.4396 22.026 23.7736L22.026 23.7736ZM48.875 14.1226C55.977 14.6276 62.342 18.3176 66.337 24.2456L67.995 23.1276C63.654 16.6866 56.736 12.6766 49.018 12.1276 42.643 11.6786 36.41 13.6496 31.455 17.6886L32.719 19.2386C37.277 15.5226 43.002 13.7036 48.875 14.1226L48.875 14.1226ZM67.978 50.1416C67.978 55.5166 64.901 58.4736 63.066 59.7576 62.095 60.4366 60.37 60.9686 59.139 60.9686L57.988 60.9686 57.988 58.9686 59.139 58.9686C59.973 58.9686 61.272 58.5706 61.92 58.1186 63.771 56.8226 65.978 54.3866 65.978 50.1416 65.978 44.1566 61.815 42.1946 59.333 41.5576 58.87 41.4386 58.556 41.0076 58.584 40.5296L58.685 38.8256C58.683 34.1166 55.398 28.9866 51.206 27.2066 43.953 24.1266 38.814 28.1746 36.941 30.0596 35.415 31.5946 34.226 33.5556 33.404 35.8866 33.281 36.2356 32.975 36.4886 32.608 36.5436 32.244 36.5966 31.875 36.4456 31.656 36.1476 30.413 34.4596 28.273 33.7576 26.331 34.3946 24.151 35.1106 22.893 37.2366 22.873 40.2316L22.878 40.2646C22.96 40.8026 22.596 41.3076 22.06 41.4006 20.169 41.7256 14 43.3246 14 50.2256 14 58.2426 21.318 58.9456 21.63 58.9716L24.988 58.9686 24.988 60.9686 21.55 60.9686C21.378 60.9586 12 60.1136 12 50.2256 12 42.6086 18.025 40.2756 20.893 39.5986 21.1 36.0576 22.866 33.4276 25.707 32.4936 27.935 31.7626 30.339 32.2636 32.108 33.7316 32.981 31.7596 34.127 30.0546 35.523 28.6496 40.02 24.1246 46.177 22.8956 51.987 25.3656 56.944 27.4706 60.683 33.2826 60.683 38.8846L60.626 39.8526C63.331 40.7416 67.978 43.2706 67.978 50.1416L67.978 50.1416Z" id="Fill-8" fill="#FFFFFF"/></g></svg>