<svg width="80" height="80" viewBox="0 0 80 80" xmlns="http://www.w3.org/2000/svg" xmlns:xlink="http://www.w3.org/1999/xlink" overflow="hidden"><g id="Icon-Architecture/64/Arch_AWS-HealthImaging_64" stroke="none" stroke-width="1" fill="none" fill-rule="evenodd"><g id="Icon-Architecture-BG/64/Machine-Learning" fill="#01A88D"><rect x="0" y="0" width="80" height="80" id="Rectangle"/></g><g id="Icon-Service/64/AWS-HealthImaging_64" fill="#FFFFFF" transform="translate(12.27 12.2)"><path d="M31.7184 37.7896 33.7184 37.7896 33.7184 23.7896 31.7184 23.7896 31.7184 37.7896ZM25.7184 26.7896 27.7184 26.7896 27.7184 17.7896 25.7184 17.7896 25.7184 26.7896ZM25.7184 41.7896 27.7184 41.7896 27.7184 37.7896 25.7184 37.7896 25.7184 41.7896ZM25.7184 35.7896 27.7184 35.7896 27.7184 28.7896 25.7184 28.7896 25.7184 35.7896ZM19.7184 47.7896 21.7184 47.7896 21.7184 44.7896 19.7184 44.7896 19.7184 47.7896ZM19.7184 41.7896 21.7184 41.7896 21.7184 32.7896 19.7184 32.7896 19.7184 41.7896ZM52.7184 44.7896 48.7184 44.7896C48.1654 44.7896 47.7184 44.3416 47.7184 43.7896L47.7184 38.7896 43.7184 38.7896 43.7184 43.7896C43.7184 44.3416 43.2714 44.7896 42.7184 44.7896L38.7184 44.7896 38.7184 48.7896 42.7184 48.7896C43.2714 48.7896 43.7184 49.2376 43.7184 49.7896L43.7184 53.7896 47.7184 53.7896 47.7184 49.7896C47.7184 49.2376 48.1654 48.7896 48.7184 48.7896L52.7184 48.7896 52.7184 44.7896ZM54.7184 43.7896 54.7184 49.7896C54.7184 50.3416 54.2714 50.7896 53.7184 50.7896L49.7184 50.7896 49.7184 54.7896C49.7184 55.3416 49.2714 55.7896 48.7184 55.7896L42.7184 55.7896C42.1654 55.7896 41.7184 55.3416 41.7184 54.7896L41.7184 50.7896 37.7184 50.7896C37.1654 50.7896 36.7184 50.3416 36.7184 49.7896L36.7184 43.7896C36.7184 43.2376 37.1654 42.7896 37.7184 42.7896L41.7184 42.7896 41.7184 37.7896C41.7184 37.2376 42.1654 36.7896 42.7184 36.7896L48.7184 36.7896C49.2714 36.7896 49.7184 37.2376 49.7184 37.7896L49.7184 42.7896 53.7184 42.7896C54.2714 42.7896 54.7184 43.2376 54.7184 43.7896L54.7184 43.7896ZM9.71841 53.5206 9.71841 27.0586C9.71841 26.9106 9.83841 26.7896 9.98641 26.7896L22.7184 26.7896 22.7184 24.7896 9.98641 24.7896C8.73641 24.7896 7.71841 25.8076 7.71841 27.0586L7.71841 53.5206C7.71841 54.7716 8.73641 55.7896 9.98641 55.7896L38.7184 55.7896 38.7184 53.7896 9.98641 53.7896C9.83841 53.7896 9.71841 53.6686 9.71841 53.5206L9.71841 53.5206ZM47.7184 34.7896 47.7184 27.0586C47.7184 25.8076 46.7004 24.7896 45.4494 24.7896L36.7184 24.7896 36.7184 26.7896 45.4494 26.7896C45.5984 26.7896 45.7184 26.9106 45.7184 27.0586L45.7184 34.7896 47.7184 34.7896ZM55.2934 25.4936C55.2934 25.6876 55.2934 25.8786 55.2894 26.0666 55.2894 26.1536 55.2754 28.7516 53.8224 31.4296L52.0654 30.4766C53.2774 28.2406 53.2894 26.0676 53.2894 26.0456 53.2934 25.8496 53.2934 25.6736 53.2934 25.4936 53.2934 19.0096 48.8914 17.4886 45.5794 16.9096 45.5364 16.9016 45.4934 16.8916 45.4514 16.8776L45.1134 16.7716C44.6474 16.6246 44.3554 16.1606 44.4244 15.6756 44.7904 13.1326 43.7664 11.1276 41.6824 10.3106 40.0654 9.67658 37.7264 9.85658 36.4174 11.7516 36.2034 12.0616 35.8314 12.2266 35.4594 12.1736 35.0864 12.1226 34.7734 11.8666 34.6504 11.5106 33.8624 9.24058 32.7214 7.33158 31.2564 5.83658 29.4644 4.00558 24.5494 0.0695814 17.6044 3.06158 13.1854 4.96758 10.4394 8.76558 10.4394 12.9726L10.5354 16.0626C10.5494 16.5296 10.2394 16.9436 9.78741 17.0616L9.54041 17.1256C6.28141 17.9716 2.58641 18.9296 2.01241 25.0846 1.99241 25.2906 1.99841 25.9006 2.01541 26.3466L0.0174064 26.4216C0.0154064 26.3786-0.0225936 25.3576 0.0204064 24.8976 0.690406 17.7376 5.22241 16.1996 8.51141 15.3276L8.43941 13.0036C8.43941 7.95358 11.6484 3.45258 16.8134 1.22558 22.4154-1.19042 28.3504 0.0095814 32.6864 4.43658 34.0184 5.79758 35.1114 7.44458 35.9474 9.34758 37.6884 7.94358 40.1424 7.55858 42.4124 8.44858 44.5584 9.28958 46.6584 11.4486 46.4914 15.0476 52.3334 16.2486 55.2934 19.7606 55.2934 25.4936L55.2934 25.4936Z" id="Fill-1"/></g></g></svg>