<svg width="80" height="80" viewBox="0 0 80 80" xmlns="http://www.w3.org/2000/svg" xmlns:xlink="http://www.w3.org/1999/xlink" overflow="hidden"><g id="Icon-Architecture/64/Arch_Amazon-GuardDuty_64" stroke="none" stroke-width="1" fill="none" fill-rule="evenodd"><g id="Icon-Architecture-BG/64/Security-Identity-Compliance" fill="#DD344C"><rect x="0" y="0" width="80" height="80" id="Rectangle"/></g><path d="M47 42.8145C46.979 44.6286 46.462 50.3157 41 50.9377L41 29.0363 47 31.5924 47 42.8145ZM33 42.7655 33 31.5924 39 29.0363 39 50.9377C33.537 50.3107 33.021 44.5826 33 42.7655L33 42.7655ZM39.608 26.6033 31.608 30.0113C31.239 30.1683 31 30.5303 31 30.9313L31 42.7766C31.054 47.4926 33.443 53.0007 40 53.0007 46.556 53.0007 48.945 47.5256 49 42.8265L49 30.9313C49 30.5303 48.761 30.1683 48.392 30.0113L40.392 26.6033C40.142 26.4973 39.858 26.4973 39.608 26.6033L39.608 26.6033ZM51 42.8246C50.999 43.3216 50.843 55.0008 40 55.0008 29.157 55.0008 29.001 43.2856 29 42.7875L29 28.9493 40 24.2622 51 28.9493 51 42.8246ZM52.392 27.3683 40.392 22.2552C40.142 22.1482 39.858 22.1482 39.608 22.2552L27.608 27.3683C27.239 27.5253 27 27.8873 27 28.2883L27 42.7875C27 42.9296 27.148 57.0008 40 57.0008 52.852 57.0008 53 42.9676 53 42.8265L53 28.2883C53 27.8873 52.761 27.5253 52.392 27.3683L52.392 27.3683ZM66 44.3076 62.577 44.1116C62.119 44.0846 61.653 44.4126 61.545 44.8906 60.994 47.3346 60.035 49.6507 58.693 51.7777 58.433 52.1917 58.509 52.7327 58.873 53.0577L61.431 55.3398 55.339 61.4309 53.064 58.8808C52.737 58.5148 52.196 58.4408 51.784 58.7018 49.661 60.0439 47.341 61.0039 44.89 61.5579 44.413 61.6659 44.084 62.1029 44.112 62.5909L44.308 66 35.692 66 35.888 62.5879C35.916 62.0999 35.587 61.6629 35.11 61.5549 32.667 61.0029 30.349 60.0409 28.22 58.6968 27.807 58.4368 27.265 58.5098 26.939 58.8768L24.661 61.4309 18.569 55.3398 21.123 53.0627C21.487 52.7367 21.563 52.1957 21.303 51.7827 19.962 49.6577 19.003 47.3386 18.452 44.8916 18.345 44.4136 17.896 44.0886 17.42 44.1116L14 44.3076 14 35.6924 17.428 35.8874C17.889 35.9034 18.351 35.5874 18.46 35.1104 19.013 32.6704 19.975 30.3563 21.316 28.2313 21.577 27.8183 21.501 27.2763 21.137 26.9513L18.569 24.6612 24.661 18.5691 26.95 21.1342C27.275 21.5002 27.817 21.5742 28.229 21.3142 30.352 19.9761 32.666 19.0181 35.109 18.4671 35.587 18.3591 35.916 17.9221 35.888 17.4351L35.692 14 44.308 14 44.112 17.4371C44.084 17.9251 44.413 18.3611 44.89 18.4691 47.331 19.0221 49.645 19.9811 51.766 21.3192 52.176 21.5792 52.72 21.5042 53.045 21.1392L55.339 18.5691 61.431 24.6612 58.867 26.9473C58.503 27.2723 58.427 27.8143 58.688 28.2273 60.028 30.3493 60.988 32.6644 61.542 35.1094 61.649 35.5874 62.119 35.9034 62.574 35.8874L66 35.6924 66 44.3076ZM67.687 33.9064C67.487 33.7184 67.214 33.6184 66.943 33.6354L63.291 33.8434C62.739 31.7524 61.911 29.7543 60.82 27.8853L63.553 25.4482C63.758 25.2652 63.879 25.0062 63.887 24.7312 63.895 24.4562 63.788 24.1892 63.594 23.9952L56.005 16.4061C55.811 16.2111 55.532 16.1071 55.27 16.1141 54.994 16.1221 54.735 16.2421 54.552 16.4471L52.106 19.1871C50.239 18.0981 48.244 17.2711 46.156 16.7201L46.364 13.056C46.38 12.782 46.282 12.513 46.093 12.313 45.904 12.113 45.642 12 45.366 12L34.634 12C34.358 12 34.096 12.113 33.907 12.313 33.718 12.513 33.62 12.782 33.636 13.056L33.844 16.7171C31.755 17.2671 29.758 18.0941 27.889 19.1821L25.448 16.4471C25.265 16.2421 25.006 16.1221 24.73 16.1141 24.472 16.1091 24.189 16.2111 23.995 16.4061L16.406 23.9952C16.212 24.1892 16.105 24.4562 16.113 24.7312 16.121 25.0062 16.242 25.2652 16.447 25.4482L19.184 27.8903C18.092 29.7603 17.263 31.7564 16.712 33.8434L13.057 33.6354C12.785 33.6174 12.513 33.7184 12.313 33.9064 12.113 34.0954 12 34.3584 12 34.6334L12 45.3656C12 45.6406 12.113 45.9036 12.313 46.0926 12.513 46.2816 12.786 46.3766 13.057 46.3646L16.702 46.1566C17.252 48.2506 18.079 50.2517 19.171 52.1237L16.447 54.5518C16.242 54.7348 16.121 54.9948 16.113 55.2698 16.105 55.5448 16.212 55.8108 16.406 56.0048L23.995 63.5939C24.189 63.7889 24.469 63.8969 24.73 63.8859 25.006 63.8779 25.266 63.7579 25.448 63.5519L27.878 60.8289C29.752 61.9229 31.753 62.7529 33.844 63.3039L33.636 66.943C33.62 67.218 33.718 67.486 33.907 67.687 34.096 67.887 34.358 68 34.634 68L45.366 68C45.642 68 45.904 67.887 46.093 67.687 46.282 67.486 46.38 67.217 46.364 66.943L46.156 63.3069C48.253 62.7549 50.255 61.9259 52.126 60.8339L54.552 63.5519C54.734 63.7579 54.994 63.8779 55.27 63.8859 55.535 63.8989 55.811 63.7889 56.005 63.5939L63.594 56.0048C63.788 55.8108 63.895 55.5448 63.887 55.2698 63.879 54.9948 63.758 54.7348 63.553 54.5518L60.825 52.1187C61.917 50.2467 62.745 48.2466 63.295 46.1566L66.943 46.3646C67.213 46.3756 67.487 46.2816 67.687 46.0926 67.887 45.9036 68 45.6406 68 45.3656L68 34.6334C68 34.3584 67.887 34.0954 67.687 33.9064L67.687 33.9064Z" id="Amazon-GuardDuty_Icon_64_Squid" fill="#FFFFFF"/></g></svg>