<svg width="80" height="80" viewBox="0 0 80 80" xmlns="http://www.w3.org/2000/svg" xmlns:xlink="http://www.w3.org/1999/xlink" fill="none" overflow="hidden"><defs><clipPath id="clip0_1_285"><rect x="0" y="0" width="80" height="80" fill="#FFFFFF"/></clipPath></defs><g clip-path="url(#clip0_1_285)"><rect x="0" y="0" width="80" height="80" fill="#FFFFFF"/><rect x="0" y="0" width="80" height="80" fill="#ED7100"/><path d="M23 28C21.35 28 20 26.65 20 25 20 23.35 21.35 22 23 22 24.65 22 26 23.35 26 25 26 26.65 24.65 28 23 28ZM20 53C18.35 53 17 54.35 17 56 17 57.65 18.35 59 20 59 21.65 59 23 57.65 23 56 23 54.35 21.65 53 20 53ZM37 56C37 57.65 38.35 59 40 59 41.65 59 43 57.65 43 56 43 54.35 41.65 53 40 53 38.35 53 37 54.35 37 56ZM68 56C68 60.41 64.41 64 60 64 55.59 64 52 60.41 52 56 52 53.73 52.95 51.69 54.47 50.23L47.04 45.62 44.15 49.18C46.45 50.59 48 53.12 48 56.01 48 60.42 44.41 64.01 40 64.01 35.59 64.01 32 60.42 32 56.01 32 53.12 33.55 50.59 35.85 49.18L32.96 45.62 25.53 50.23C27.05 51.69 28 53.73 28 56 28 60.41 24.41 64 20 64 15.59 64 12 60.41 12 56 12 52.23 14.62 49.08 18.13 48.23L20.85 33.73C16.93 32.76 14 29.22 14 25 14 20.04 18.04 16 23 16 27.96 16 32 20.04 32 25 32 27.78 30.74 30.26 28.75 31.91L40 38.89 51.25 31.91C49.27 30.26 48 27.77 48 25 48 20.04 52.04 16 57 16 61.96 16 66 20.04 66 25 66 29.22 63.08 32.76 59.15 33.73L61.87 48.23C65.38 49.08 68 52.23 68 56ZM57 32C60.86 32 64 28.86 64 25 64 21.14 60.86 18 57 18 53.14 18 50 21.14 50 25 50 28.86 53.14 32 57 32ZM41.9 40.07 46.6 42.99 54.25 33.57C53.86 33.44 53.48 33.29 53.11 33.11L41.89 40.07 41.9 40.07ZM42.26 48.33 45.33 44.55 40 41.24 34.67 44.55 37.74 48.33C38.46 48.12 39.21 48 40 48 40.79 48 41.54 48.12 42.26 48.33ZM26.89 33.11C26.52 33.29 26.15 33.45 25.75 33.57L33.4 42.99 38.1 40.07 26.88 33.11 26.89 33.11ZM23 32C26.86 32 30 28.86 30 25 30 21.14 26.86 18 23 18 19.14 18 16 21.14 16 25 16 28.86 19.14 32 23 32ZM20 50C16.69 50 14 52.69 14 56 14 59.31 16.69 62 20 62 23.31 62 26 59.31 26 56 26 52.69 23.31 50 20 50ZM31.69 44.05 23.5 33.97C23.33 33.97 23.17 34 23 34 22.94 34 22.89 34 22.83 34L20.2 48.02C21.49 48.05 22.71 48.39 23.78 48.97L31.68 44.06 31.69 44.05ZM40 50C36.69 50 34 52.69 34 56 34 59.31 36.69 62 40 62 43.31 62 46 59.31 46 56 46 52.69 43.31 50 40 50ZM56.21 48.96C57.28 48.38 58.5 48.05 59.79 48.01L57.16 33.99C57.1 33.99 57.05 33.99 56.99 33.99 56.82 33.99 56.65 33.97 56.49 33.96L48.3 44.04 56.2 48.95 56.21 48.96ZM66 56C66 52.69 63.31 50 60 50 56.69 50 54 52.69 54 56 54 59.31 56.69 62 60 62 63.31 62 66 59.31 66 56Z" fill="#FFFFFF"/></g></svg>