<svg width="48" height="48" viewBox="0 0 48 48" xmlns="http://www.w3.org/2000/svg" xmlns:xlink="http://www.w3.org/1999/xlink" overflow="hidden"><g id="Icon-Resource/IoT/Res_AWS-IoT-Greengrass_Artifact_48" stroke="none" stroke-width="1" fill="none" fill-rule="evenodd"><path d="M9 24C9 22.897 8.103 22 7 22 5.897 22 5 22.897 5 24 5 25.103 5.897 26 7 26 8.103 26 9 25.103 9 24L9 24ZM42 22C40.897 22 40 22.897 40 24 40 25.103 40.897 26 42 26 43.103 26 44 25.103 44 24 44 22.897 43.103 22 42 22L42 22ZM24.452 42C23.35 42 22.452 42.897 22.452 44 22.452 45.103 23.35 46 24.452 46 25.555 46 26.452 45.103 26.452 44 26.452 42.897 25.555 42 24.452 42L24.452 42ZM24.452 6C25.555 6 26.452 5.103 26.452 4 26.452 2.897 25.555 2 24.452 2 23.35 2 22.452 2.897 22.452 4 22.452 5.103 23.35 6 24.452 6L24.452 6ZM26.577 16.693 20.473 30.33 22.299 31.147 28.403 17.51 26.577 16.693ZM30.189 27.804 34.821 24.424C35.056 24.252 35.205 23.987 35.229 23.697 35.252 23.407 35.147 23.122 34.943 22.914L30.875 18.787 29.451 20.191 32.705 23.492 29.01 26.189 30.189 27.804ZM18.688 18.661 14 22.083C13.765 22.254 13.616 22.52 13.593 22.81 13.569 23.1 13.674 23.386 13.879 23.593L17.961 27.72 19.383 26.314 16.118 23.013 19.867 20.276 18.688 18.661ZM41 20 43 20 43 14.166C43 13.809 42.811 13.479 42.502 13.3L28.039 4.916 27.035 6.646 41 14.742 41 20ZM41 33.621 27.065 41.611 28.06 43.347 42.497 35.068C42.809 34.89 43 34.559 43 34.2L43 28 41 28 41 33.621ZM7.999 28 5.999 28 5.999 34.009C5.999 34.362 6.186 34.69 6.49 34.87L20.698 43.266 21.716 41.544 7.999 33.438 7.999 28ZM7.999 20 5.999 20 5.999 13.974C5.999 13.616 6.19 13.285 6.501 13.107L20.747 4.916 21.743 6.649 7.999 14.552 7.999 20Z" id="Fill-1" fill="#7AA116"/></g></svg>