<svg width="80" height="80" viewBox="0 0 80 80" xmlns="http://www.w3.org/2000/svg" xmlns:xlink="http://www.w3.org/1999/xlink" overflow="hidden"><g id="Icon-Architecture/64/Arch_Amazon-Simple-Notification-Service_64" stroke="none" stroke-width="1" fill="none" fill-rule="evenodd"><g id="Icon-Architecture-BG/64/Application-Integration" fill="#E7157B"><rect x="0" y="0" width="80" height="80" id="Rectangle"/></g><path d="M17 38C18.103 38 19 38.897 19 40 19 41.103 18.103 42 17 42 15.897 42 15 41.103 15 40 15 38.897 15.897 38 17 38L17 38ZM41 64C29.314 64 19.289 55.466 17.194 43.98 18.965 43.894 20.427 42.659 20.857 41L27 41 27 39 20.857 39C20.427 37.342 18.966 36.107 17.195 36.02 19.285 24.71 29.511 16 41 16 45.313 16 49.832 17.622 54.429 20.821L55.571 19.179C50.633 15.743 45.73 14 41 14 28.27 14 16.949 23.865 15.063 36.521 13.839 37.207 13 38.5 13 40 13 41.5 13.839 42.793 15.063 43.478 16.97 56.341 28.056 66 41 66 46.407 66 51.942 64.157 56.585 60.811L55.415 59.189C51.11 62.292 45.991 64 41 64L41 64ZM30.101 36.442C31.955 36.895 34.275 37 36 37 37.642 37 39.823 36.905 41.629 36.506L37.105 45.553C37.036 45.691 37 45.845 37 46L37 50.453C36.199 50.964 34.833 51.812 34 51.986L34 46C34 45.868 33.974 45.737 33.923 45.615L30.101 36.442ZM36 33C40.025 33 42.174 33.604 42.841 34 42.174 34.396 40.025 35 36 35 31.975 35 29.826 34.396 29.159 34 29.826 33.604 31.975 33 36 33L36 33ZM33 54 34 54C34.043 54 34.086 53.997 34.128 53.992 35.352 53.833 36.909 52.887 38.272 52.013L38.535 51.845C38.824 51.661 39 51.342 39 51L39 46.236 44.559 35.12C44.833 34.801 45 34.434 45 34 45 31.39 39.361 31 36 31 32.639 31 27 31.39 27 34 27 34.366 27.12 34.684 27.32 34.967L32 46.2 32 53C32 53.552 32.447 54 33 54L33 54ZM62 53C63.103 53 64 53.897 64 55 64 56.103 63.103 57 62 57 60.897 57 60 56.103 60 55 60 53.897 60.897 53 62 53L62 53ZM62 23C63.103 23 64 23.897 64 25 64 26.103 63.103 27 62 27 60.897 27 60 26.103 60 25 60 23.897 60.897 23 62 23L62 23ZM64 38C65.103 38 66 38.897 66 40 66 41.103 65.103 42 64 42 62.897 42 62 41.103 62 40 62 38.897 62.897 38 64 38L64 38ZM54 41 60.143 41C60.589 42.72 62.142 44 64 44 66.206 44 68 42.206 68 40 68 37.794 66.206 36 64 36 62.142 36 60.589 37.28 60.143 39L54 39 54 26 58.143 26C58.589 27.72 60.142 29 62 29 64.206 29 66 27.206 66 25 66 22.794 64.206 21 62 21 60.142 21 58.589 22.28 58.143 24L53 24C52.447 24 52 24.448 52 25L52 39 45 39 45 41 52 41 52 55C52 55.552 52.447 56 53 56L58.143 56C58.589 57.72 60.142 59 62 59 64.206 59 66 57.206 66 55 66 52.794 64.206 51 62 51 60.142 51 58.589 52.28 58.143 54L54 54 54 41Z" id="AWS-Simple-Notification-Service_Icon_64_Squid" fill="#FFFFFF"/></g></svg>