<svg width="80" height="80" viewBox="0 0 80 80" xmlns="http://www.w3.org/2000/svg" xmlns:xlink="http://www.w3.org/1999/xlink" overflow="hidden"><g id="Icon-Architecture/64/Arch_Amazon-Corretto_64" stroke="none" stroke-width="1" fill="none" fill-rule="evenodd"><g id="Icon-Architecture-BG/64/Developer-Tools" fill="#C925D1"><rect x="0" y="0" width="80" height="80" id="Rectangle"/></g><g id="Icon-Service/64/Amazon-Corretto_64" fill="#FFFFFF" transform="translate(12 12)"><path d="M21.066 7 26.066 7 26.066 2 21.066 2 21.066 7ZM19.066 8 19.066 1C19.066 0.448 19.513 0 20.066 0L27.066 0C27.619 0 28.066 0.448 28.066 1L28.066 8C28.066 8.552 27.619 9 27.066 9L20.066 9C19.513 9 19.066 8.552 19.066 8L19.066 8ZM33.066 13 38.066 13 38.066 8 33.066 8 33.066 13ZM31.066 14 31.066 7C31.066 6.448 31.513 6 32.066 6L39.066 6C39.619 6 40.066 6.448 40.066 7L40.066 14C40.066 14.552 39.619 15 39.066 15L32.066 15C31.513 15 31.066 14.552 31.066 14L31.066 14ZM19.066 18 24.066 18 24.066 13 19.066 13 19.066 18ZM17.066 19 17.066 12C17.066 11.448 17.513 11 18.066 11L25.066 11C25.619 11 26.066 11.448 26.066 12L26.066 19C26.066 19.552 25.619 20 25.066 20L18.066 20C17.513 20 17.066 19.552 17.066 19L17.066 19ZM25.066 34 45.066 34 45.066 32 25.066 32 25.066 34ZM8.159 36 11.806 36C11.083 33.882 10.671 31.621 10.671 29.261L10.671 22.064 8.159 22.064C4.705 22.064 2 25.112 2 29.003 2 32.861 4.762 36 8.159 36L8.159 36ZM8.159 38C3.66 38 0 33.964 0 29.003 0 24.074 3.66 20.064 8.159 20.064L10.671 20.064 10.671 18C10.671 17.448 11.119 17 11.671 17L15.066 17 15.066 19 12.671 19 12.671 29.261C12.671 30.194 12.762 31.104 12.893 32L22.066 32 22.066 34 13.296 34C15.409 42.135 22.793 48.169 31.58 48.169 41.946 48.169 50.066 39.863 50.066 29.261L50.066 27.979 16.356 27.979 16.356 25.979 50.066 25.979 50.066 19 28.066 19 28.066 17 51.066 17C51.619 17 52.066 17.448 52.066 18L52.066 29.261C52.066 40.985 43.067 50.169 31.58 50.169 23.172 50.169 15.928 45.171 12.611 38L8.159 38ZM56 47.412C56 53.006 43.418 56.024 31.58 56.024 19.741 56.024 7.159 53.006 7.159 47.412 7.159 45.904 8.134 43.704 12.783 41.784L13.546 43.633C10.758 44.784 9.159 46.162 9.159 47.412 9.159 50.54 18.367 54.024 31.58 54.024 44.792 54.024 54 50.54 54 47.412 54 46.162 52.401 44.784 49.613 43.633L50.377 41.784C55.024 43.704 56 45.904 56 47.412L56 47.412Z" id="Fill-1"/></g></g></svg>