<svg width="80" height="80" viewBox="0 0 80 80" xmlns="http://www.w3.org/2000/svg" xmlns:xlink="http://www.w3.org/1999/xlink" overflow="hidden"><g id="Icon-Architecture/64/Arch_AWS-App-Runner_64" stroke="none" stroke-width="1" fill="none" fill-rule="evenodd"><g id="Icon-Architecture-BG/64/Compute" fill="#ED7100"><rect x="0" y="0" width="80" height="80" id="Rectangle"/></g><g id="Icon-Service/64/AWS-Fusion_64" fill="#FFFFFF" transform="translate(12 12)"><path d="M15.707 41.707 14.293 40.293 2 52.586 2 46 0 46 0 55C0 55.552 0.447 56 1 56L10 56 10 54 3.414 54 15.707 41.707ZM55 0 46 0 46 2 52.586 2 40.293 14.293 41.707 15.707 54 3.414 54 10 56 10 56 1C56 0.448 55.553 0 55 0L55 0ZM31 47 47 47 47 31 31 31 31 47ZM49 30 49 48C49 48.552 48.553 49 48 49L30 49C29.447 49 29 48.552 29 48L29 30C29 29.448 29.447 29 30 29L48 29C48.553 29 49 29.448 49 30L49 30ZM9 25 25 25 25 9 9 9 9 25ZM27 8 27 26C27 26.552 26.553 27 26 27L8 27C7.447 27 7 26.552 7 26L7 8C7 7.448 7.447 7 8 7L26 7C26.553 7 27 7.448 27 8L27 8ZM26 29 8 29C7.447 29 7 29.448 7 30L7 44.757 9 42.757 9 31 25 31 25 47 13.242 47 11.242 49 26 49C26.553 49 27 48.552 27 48L27 30C27 29.448 26.553 29 26 29L26 29ZM47 13.242 49 11.242 49 26C49 26.552 48.553 27 48 27L30 27C29.447 27 29 26.552 29 26L29 8C29 7.448 29.447 7 30 7L44.758 7 42.758 9 31 9 31 25 47 25 47 13.242Z" id="Fill-5"/></g></g></svg>