<svg width="48" height="48" viewBox="0 0 48 48" xmlns="http://www.w3.org/2000/svg" xmlns:xlink="http://www.w3.org/1999/xlink" overflow="hidden"><g id="Icon-Resource/Networking-and-Content-Delivery/Res_Elastic-Load-Balancing_Application-Load-Balancer_48" stroke="none" stroke-width="1" fill="none" fill-rule="evenodd"><path d="M33.69 34.375 36.035 34.375 36.035 32 33.69 32 33.69 34.375ZM26.751 34.375 29.126 34.375 29.126 32 26.751 32 26.751 34.375ZM18.876 34.375 21.251 34.375 21.251 32 18.876 32 18.876 34.375ZM11.966 34.375 14.251 34.375 14.251 32 11.966 32 11.966 34.375ZM18.001 16.875 30.001 16.875 30.001 11 18.001 11 18.001 16.875ZM37.035 30 35.501 30 35.501 26.625C35.501 26.072 35.053 25.625 34.501 25.625L32.001 25.625 32.001 22.25C32.001 21.697 31.553 21.25 31.001 21.25L25.001 21.25 25.001 18.875 31.001 18.875C31.553 18.875 32.001 18.428 32.001 17.875L32.001 10C32.001 9.447 31.553 9 31.001 9L17.001 9C16.448 9 16.001 9.447 16.001 10L16.001 17.875C16.001 18.428 16.448 18.875 17.001 18.875L23.001 18.875 23.001 21.25 17.001 21.25C16.448 21.25 16.001 21.697 16.001 22.25L16.001 25.625 13.501 25.625C12.948 25.625 12.501 26.072 12.501 26.625L12.501 30 10.965 30C10.413 30 9.965 30.447 9.965 31L9.965 35.375C9.965 35.928 10.413 36.375 10.965 36.375L15.251 36.375C15.803 36.375 16.251 35.928 16.251 35.375L16.251 31C16.251 30.447 15.803 30 15.251 30L14.501 30 14.501 27.625 18.626 27.625 18.626 30 17.876 30C17.323 30 16.876 30.447 16.876 31L16.876 35.375C16.876 35.928 17.323 36.375 17.876 36.375L22.251 36.375C22.803 36.375 23.251 35.928 23.251 35.375L23.251 31C23.251 30.447 22.803 30 22.251 30L20.626 30 20.626 26.625C20.626 26.072 20.178 25.625 19.626 25.625L18.001 25.625 18.001 23.25 30.001 23.25 30.001 25.625 28.376 25.625C27.823 25.625 27.376 26.072 27.376 26.625L27.376 30 25.751 30C25.198 30 24.751 30.447 24.751 31L24.751 35.375C24.751 35.928 25.198 36.375 25.751 36.375L30.126 36.375C30.678 36.375 31.126 35.928 31.126 35.375L31.126 31C31.126 30.447 30.678 30 30.126 30L29.376 30 29.376 27.625 33.501 27.625 33.501 30 32.69 30C32.137 30 31.69 30.447 31.69 31L31.69 35.375C31.69 35.928 32.137 36.375 32.69 36.375L37.035 36.375C37.587 36.375 38.035 35.928 38.035 35.375L38.035 31C38.035 30.447 37.587 30 37.035 30L37.035 30ZM24.001 44C12.972 44 4 35.028 4 24 4 12.972 12.972 4 24.001 4 35.029 4 44.001 12.972 44.001 24 44.001 35.028 35.029 44 24.001 44L24.001 44ZM24.001 2C11.869 2 2 11.869 2 24 2 36.131 11.869 46 24.001 46 36.131 46 46.001 36.131 46.001 24 46.001 11.869 36.131 2 24.001 2L24.001 2Z" id="AWS-Elastic-Load-Balancing_-Application-Load-Balancer_Resource-Icon_light-bg" fill="#8C4FFF"/></g></svg>