<svg width="80" height="80" viewBox="0 0 80 80" xmlns="http://www.w3.org/2000/svg" xmlns:xlink="http://www.w3.org/1999/xlink" overflow="hidden"><g id="Icon-Architecture/64/Arch_AWS-Elemental-MediaLive_64" stroke="none" stroke-width="1" fill="none" fill-rule="evenodd"><g id="Icon-Architecture-BG/64/Media-Services" fill="#ED7100"><rect x="0" y="0" width="80" height="80" id="Rectangle"/></g><path d="M49.8319 60.4451C50.1389 60.9041 50.0149 61.5261 49.5549 61.8321L40.564 67.824C40.404 67.935 40.209 68 39.999 68 39.789 68 39.594 67.935 39.433 67.824L30.4451 61.8321C29.9851 61.5261 29.8611 60.9041 30.1681 60.4451 30.4741 59.9851 31.0931 59.8601 31.5551 60.1681L38.999 65.131 38.999 56.0001C38.999 55.4471 39.446 55.0001 39.999 55.0001 40.552 55.0001 40.999 55.4471 40.999 56.0001L40.999 65.132 48.4449 60.1681C48.9049 59.8601 49.5249 59.9851 49.8319 60.4451L49.8319 60.4451ZM61.9999 52.4411 56.4999 55.8251 50.9999 52.4411 50.9999 46.5582 56.4999 43.1742 61.9999 46.5582 61.9999 52.4411ZM63.5238 45.1482 57.0239 41.1482C56.7019 40.9502 56.2979 40.9502 55.9759 41.1482L49.4759 45.1482C49.1799 45.3302 48.9999 45.6532 48.9999 46.0002L48.9999 53.0001C48.9999 53.3471 49.1799 53.6691 49.4759 53.8511L55.9759 57.8511C56.1369 57.9501 56.3179 58.0001 56.4999 58.0001 56.6819 58.0001 56.8629 57.9501 57.0239 57.8511L63.5238 53.8511C63.8198 53.6691 63.9998 53.3471 63.9998 53.0001L63.9998 46.0002C63.9998 45.6532 63.8198 45.3302 63.5238 45.1482L63.5238 45.1482ZM29.0001 52.4411 23.5001 55.8251 18.0002 52.4411 18.0002 46.5582 23.5001 43.1742 29.0001 46.5582 29.0001 52.4411ZM31.0001 53.0001 31.0001 46.0002C31.0001 45.6532 30.8201 45.3302 30.5241 45.1482L24.0241 41.1482C23.7021 40.9502 23.2981 40.9502 22.9761 41.1482L16.4762 45.1482C16.1802 45.3302 16.0002 45.6532 16.0002 46.0002L16.0002 53.0001C16.0002 53.3471 16.1802 53.6691 16.4762 53.8511L22.9761 57.8511C23.1371 57.9501 23.3181 58.0001 23.5001 58.0001 23.6821 58.0001 23.8631 57.9501 24.0241 57.8511L30.5241 53.8511C30.8201 53.6691 31.0001 53.3471 31.0001 53.0001L31.0001 53.0001ZM16.0002 37.0003 16.0002 27.0184C15.9972 26.8514 16.0352 26.6804 16.1212 26.5234L16.1212 26.5234 16.1212 26.5224C16.1242 26.5174 16.1272 26.5124 16.1302 26.5074 16.1302 26.5064 16.1312 26.5064 16.1312 26.5054 16.2282 26.3354 16.3672 26.2044 16.5282 26.1184L25.5151 21.1264C25.9961 20.8574 26.6061 21.0314 26.8741 21.5144 27.1431 21.9974 26.9691 22.6064 26.4851 22.8744L19.0601 27.0004 26.4851 31.1263C26.9691 31.3943 27.1431 32.0033 26.8741 32.4863 26.6061 32.9673 25.9961 33.1433 25.5151 32.8743L18.0002 28.6994 18.0002 37.0003C18.0002 37.5523 17.5532 38.0003 17.0002 38.0003 16.4472 38.0003 16.0002 37.5523 16.0002 37.0003L16.0002 37.0003ZM35 18.5584 40.5 15.1745 46 18.5584 46 24.4414 40.5 27.8254 35 24.4414 35 18.5584ZM33.476 25.8514 39.976 29.8513C40.137 29.9503 40.318 30.0003 40.5 30.0003 40.682 30.0003 40.863 29.9503 41.024 29.8513L47.524 25.8514C47.82 25.6694 48 25.3474 48 25.0004L48 18.0005C48 17.6535 47.82 17.3305 47.524 17.1485L41.024 13.1485C40.702 12.9505 40.298 12.9505 39.976 13.1485L33.476 17.1485C33.18 17.3305 33 17.6535 33 18.0005L33 25.0004C33 25.3474 33.18 25.6694 33.476 25.8514L33.476 25.8514ZM63.9998 27.0184 63.9998 37.0003C63.9998 37.5523 63.5528 38.0003 62.9999 38.0003 62.4469 38.0003 61.9999 37.5523 61.9999 37.0003L61.9999 28.6994 54.4849 32.8743C54.0039 33.1433 53.3949 32.9683 53.1259 32.4863 52.8569 32.0033 53.0309 31.3943 53.5149 31.1263L60.9409 27.0004 53.5149 22.8744C53.0309 22.6064 52.8569 21.9974 53.1259 21.5144 53.3949 21.0314 54.0039 20.8574 54.4849 21.1264L63.4718 26.1184C63.6358 26.2054 63.7768 26.3404 63.8738 26.5144 63.9628 26.6744 64.0028 26.8474 63.9998 27.0184L63.9998 27.0184ZM35 32.7063 47.9599 39.9683 35 47.2872 35 32.7063ZM33.496 49.8632C33.651 49.9542 33.826 50.0002 34 50.0002 34.17 50.0002 34.339 49.9572 34.492 49.8702L50.4919 40.8352C50.8069 40.6582 51.0009 40.3243 50.9999 39.9633 50.9989 39.6023 50.8039 39.2693 50.4889 39.0923L34.489 30.1273C34.179 29.9543 33.801 29.9583 33.494 30.1373 33.188 30.3173 33 30.6453 33 31.0003L33 49.0002C33 49.3552 33.188 49.6842 33.496 49.8632L33.496 49.8632Z" id="AWS-Elemental-MediaLive_Icon_64_Squid" fill="#FFFFFF"/></g></svg>