<svg width="48" height="48" viewBox="0 0 48 48" xmlns="http://www.w3.org/2000/svg" xmlns:xlink="http://www.w3.org/1999/xlink" overflow="hidden"><g id="Icon-Resource/Database/Res_Amazon-Aurora-MariaDB-Instance_48" stroke="none" stroke-width="1" fill="none" fill-rule="evenodd"><path d="M40.3469 13.5147C40.3469 13.1517 40.2659 12.8707 40.1019 12.6757 39.9389 12.4787 39.7029 12.3807 39.3989 12.3807L38.6139 12.3807 38.6139 14.6267 39.4859 14.6267C39.7609 14.6267 39.9739 14.5327 40.1239 14.3427 40.2729 14.1547 40.3469 13.8777 40.3469 13.5147L40.3469 13.5147ZM38.6139 11.3457 39.2249 11.3457C39.4789 11.3457 39.6779 11.2537 39.8249 11.0727 39.9689 10.8917 40.0419 10.6367 40.0419 10.3097 40.0419 9.9757 39.9779 9.7147 39.8519 9.5307 39.7239 9.3447 39.5469 9.2517 39.3219 9.2517L38.6139 9.2517 38.6139 11.3457ZM40.6189 11.7487C41.0189 11.8867 41.3239 12.1117 41.5299 12.4237 41.7379 12.7367 41.8409 13.1257 41.8409 13.5907 41.8409 14.2377 41.6299 14.7537 41.2079 15.1387 40.7859 15.5247 40.2229 15.7167 39.5189 15.7167L37.1749 15.7167 37.1749 8.1617 39.4529 8.1617C40.0559 8.1617 40.5499 8.3477 40.9359 8.7177 41.3209 9.0877 41.5139 9.5727 41.5139 10.1677 41.5139 10.5457 41.4379 10.8687 41.2839 11.1387 41.1319 11.4077 40.9099 11.6117 40.6189 11.7487L40.6189 11.7487ZM34.3199 11.8247C34.3199 10.9667 34.2039 10.3367 33.9749 9.9337 33.7469 9.5307 33.3889 9.3277 32.9029 9.3277L32.2699 9.3277 32.2699 14.5497 32.9119 14.5497C33.3839 14.5497 33.7369 14.3447 33.9699 13.9347 34.2009 13.5237 34.3199 12.8937 34.3199 12.0427L34.3199 11.8247ZM35.1589 9.1207C35.6449 9.7607 35.8879 10.6997 35.8879 11.9337 35.8879 13.1757 35.6489 14.1187 35.1689 14.7567 34.6889 15.3967 33.9929 15.7167 33.0759 15.7167L30.7429 15.7167 30.7429 8.1617 33.0219 8.1617C33.9589 8.1617 34.6709 8.4827 35.1589 9.1207L35.1589 9.1207ZM28.0069 13.3947C27.8469 13.3437 27.6579 13.3187 27.4399 13.3187 27.2299 13.3187 27.0679 13.3857 26.9549 13.5207 26.8419 13.6557 26.7849 13.8487 26.7849 14.1027 26.7849 14.3217 26.8309 14.4937 26.9219 14.6207 27.0129 14.7477 27.1349 14.8117 27.2869 14.8117 27.5279 14.8117 27.7669 14.6957 28.0069 14.4627L28.0069 13.3947ZM28.0939 15.2147C27.9699 15.4047 27.7919 15.5587 27.5599 15.6787 27.3269 15.7987 27.0909 15.8587 26.8509 15.8587 26.4009 15.8587 26.0439 15.7107 25.7839 15.4167 25.5219 15.1217 25.3909 14.7177 25.3909 14.2017 25.3909 13.6567 25.5509 13.2257 25.8699 12.9107 26.1899 12.5937 26.6219 12.4357 27.1669 12.4357 27.3929 12.4357 27.6729 12.4787 28.0069 12.5667L28.0069 12.0647C28.0069 11.6867 27.9569 11.4307 27.8599 11.2957 27.7619 11.1617 27.5769 11.0947 27.3099 11.0947 26.8729 11.0947 26.3389 11.2107 25.7059 11.4437L25.7059 10.4517C25.9169 10.3127 26.1939 10.2037 26.5349 10.1237 26.8769 10.0447 27.2249 10.0047 27.5819 10.0047 28.2139 10.0047 28.6719 10.1477 28.9549 10.4347 29.2389 10.7217 29.3799 11.1817 29.3799 11.8137L29.3799 15.7167 28.2249 15.7167 28.0939 15.2147ZM22.7849 15.7167 24.2779 15.7167 24.2779 10.1467 22.7849 10.1467 22.7849 15.7167ZM24.1689 7.8077C24.0099 7.6597 23.7999 7.5837 23.5369 7.5837 23.2679 7.5837 23.0539 7.6597 22.8949 7.8077 22.7359 7.9557 22.6559 8.1587 22.6559 8.4127 22.6559 8.6677 22.7359 8.8687 22.8949 9.0177 23.0539 9.1667 23.2679 9.2417 23.5369 9.2417 23.7999 9.2417 24.0099 9.1667 24.1689 9.0177 24.3289 8.8687 24.4089 8.6677 24.4089 8.4127 24.4089 8.1587 24.3289 7.9557 24.1689 7.8077L24.1689 7.8077ZM20.3989 10.8657 20.2349 10.1467 19.0139 10.1467 19.0139 15.7167 20.5069 15.7167 20.5069 11.6507C20.8189 11.4767 21.1509 11.3887 21.4979 11.3887 21.6809 11.3887 21.8729 11.4077 22.0759 11.4437L22.0759 10.1237C21.9599 10.1027 21.8439 10.0917 21.7289 10.0917 21.4889 10.0917 21.2609 10.1537 21.0469 10.2777 20.8319 10.4007 20.6169 10.5967 20.3989 10.8657L20.3989 10.8657ZM16.3759 13.3947C16.2159 13.3437 16.0279 13.3187 15.8099 13.3187 15.5979 13.3187 15.4369 13.3857 15.3249 13.5207 15.2119 13.6557 15.1559 13.8487 15.1559 14.1027 15.1559 14.3217 15.1999 14.4937 15.2919 14.6207 15.3819 14.7477 15.5039 14.8117 15.6569 14.8117 15.8969 14.8117 16.1369 14.6957 16.3759 14.4627L16.3759 13.3947ZM16.3759 12.5667 16.3759 12.0647C16.3759 11.6867 16.3269 11.4307 16.2289 11.2957 16.1309 11.1617 15.9479 11.0947 15.6779 11.0947 15.2429 11.0947 14.7069 11.2107 14.0759 11.4437L14.0759 10.4517C14.2859 10.3127 14.5629 10.2037 14.9049 10.1237 15.2449 10.0447 15.5949 10.0047 15.9509 10.0047 16.5829 10.0047 17.0409 10.1477 17.3239 10.4347 17.6089 10.7217 17.7489 11.1817 17.7489 11.8137L17.7489 15.7167 16.5939 15.7167 16.4629 15.2147C16.3389 15.4047 16.1609 15.5587 15.9289 15.6787 15.6969 15.7987 15.4599 15.8587 15.2199 15.8587 14.7699 15.8587 14.4129 15.7107 14.1529 15.4167 13.8899 15.1217 13.7599 14.7177 13.7599 14.2017 13.7599 13.6567 13.9189 13.2257 14.2399 12.9107 14.5599 12.5937 14.9929 12.4357 15.5369 12.4357 15.7619 12.4357 16.0409 12.4787 16.3759 12.5667L16.3759 12.5667ZM12.5819 15.7167 12.5819 8.1617 10.8819 8.1617 9.3239 12.3917 7.7639 8.1617 6.0199 8.1617 6.0199 15.7167 7.3819 15.7167 7.3819 10.4517 8.6469 13.8527 9.9449 13.8527 11.2189 10.4187 11.2189 15.7167 12.5819 15.7167ZM43.9709 29.9857 43.9709 26.4537C42.2429 27.3977 39.6209 27.8847 37.0119 27.8847 34.4029 27.8847 31.7809 27.3967 30.0519 26.4537L30.0519 29.9857C30.0519 30.6147 32.4199 32.0867 37.0119 32.0867 41.6039 32.0867 43.9709 30.6147 43.9709 29.9857L43.9709 29.9857ZM43.9709 36.0787 43.9709 32.6567C42.2429 33.5997 39.6209 34.0867 37.0119 34.0867 34.4029 34.0867 31.7809 33.5997 30.0519 32.6567L30.0519 36.0787C30.0519 36.7067 32.4199 38.1797 37.0119 38.1797 41.6039 38.1797 43.9709 36.7067 43.9709 36.0787L43.9709 36.0787ZM43.9709 41.5197 43.9709 38.7497C42.2429 39.6927 39.6209 40.1797 37.0119 40.1797 34.4029 40.1797 31.7809 39.6927 30.0519 38.7497L30.0519 41.5197C30.0519 42.1477 32.4199 43.6197 37.0119 43.6197 41.6039 43.6197 43.9709 42.1477 43.9709 41.5197L43.9709 41.5197ZM30.0519 23.7837C30.0519 24.4117 32.4199 25.8847 37.0119 25.8847 41.6039 25.8847 43.9709 24.4117 43.9709 23.7837 43.9709 23.1557 41.6039 21.6827 37.0119 21.6827 32.4199 21.6827 30.0519 23.1557 30.0519 23.7837L30.0519 23.7837ZM45.9709 23.7837 45.9709 41.5197C45.9709 44.2117 41.4639 45.6197 37.0119 45.6197 32.5599 45.6197 28.0519 44.2117 28.0519 41.5197L28.0519 23.7837C28.0519 21.0907 32.5599 19.6827 37.0119 19.6827 41.4639 19.6827 45.9709 21.0907 45.9709 23.7837L45.9709 23.7837ZM7.7509 43.8607 27.4189 43.8607 27.4189 45.8607 7.7509 45.8607C4.5799 45.8607 1.9999 43.2807 1.9999 40.1097L1.9999 7.7507C1.9999 4.5797 4.5799 1.9997 7.7509 1.9997L40.1099 1.9997C43.2809 1.9997 45.8609 4.5797 45.8609 7.7507L45.8609 20.4427 43.8609 20.4427 43.8609 7.7507C43.8609 5.6827 42.1779 3.9997 40.1099 3.9997L7.7509 3.9997C5.6829 3.9997 3.9999 5.6827 3.9999 7.7507L3.9999 40.1097C3.9999 42.1777 5.6829 43.8607 7.7509 43.8607L7.7509 43.8607Z" id="Amazon-DATABASEAmazon-Aurora-MariaDB-instance_Resource-Icon_light-bg" fill="#C925D1"/></g></svg>