<svg width="48" height="48" viewBox="0 0 48 48" xmlns="http://www.w3.org/2000/svg" xmlns:xlink="http://www.w3.org/1999/xlink" overflow="hidden"><g id="Icon-Resource/Application-Integration/Res_Amazon-EventBridge-Event_48" stroke="none" stroke-width="1" fill="none" fill-rule="evenodd"><path d="M30.58 10.58 28.74 9.795 31.538 3.237 33.378 4.022 30.58 10.58ZM36.295 15.605 35.094 14.006 40.831 9.698 42.032 11.298 36.295 15.605ZM38.447 20.802 45.587 19.898 45.839 21.883 38.699 22.786 38.447 20.802ZM37.907 28.354 44.538 31.098 43.773 32.945 37.143 30.202 37.907 28.354ZM33.625 34.644 37.968 40.3 36.382 41.518 32.039 35.863 33.625 34.644ZM26.743 37.995 27.635 45.046 25.65 45.296 24.759 38.245 26.743 37.995ZM17.259 36.716 19.099 37.501 16.301 44.059 14.461 43.274 17.259 36.716ZM11.544 31.69 12.745 33.29 7.008 37.598 5.807 35.998 11.544 31.69ZM9.392 26.494 2.252 27.398 2 25.414 9.14 24.51 9.392 26.494ZM9.932 18.941 3.302 16.198 4.065 14.351 10.696 17.094 9.932 18.941ZM14.214 12.651 9.871 6.997 11.457 5.778 15.8 11.433 14.214 12.651ZM21.096 9.301 20.204 2.25 22.188 2 23.08 9.051 21.096 9.301ZM28.039 30.999 19.379 30.999 15.048 23.499 19.379 15.999 28.039 15.999 32.369 23.499 28.039 30.999ZM34.39 22.999 29.482 14.499C29.304 14.189 28.974 13.999 28.616 13.999L18.802 13.999C18.444 13.999 18.114 14.189 17.935 14.499L13.027 22.999C12.849 23.309 12.849 23.689 13.027 23.999L17.935 32.499C18.114 32.809 18.444 32.999 18.802 32.999L28.616 32.999C28.974 32.999 29.304 32.809 29.482 32.499L34.39 23.999C34.568 23.689 34.568 23.309 34.39 22.999L34.39 22.999Z" id="Icon-Resource/48/Amazon-EventBridge-Event" fill="#E7157B"/></g></svg>