<svg width="80" height="80" viewBox="0 0 80 80" xmlns="http://www.w3.org/2000/svg" xmlns:xlink="http://www.w3.org/1999/xlink" overflow="hidden"><g id="Icon-Architecture/64/Arch_Amazon-MQ_64" stroke="none" stroke-width="1" fill="none" fill-rule="evenodd"><g id="Icon-Architecture-BG/64/Application-Integration" fill="#E7157B"><rect x="0" y="0" width="80" height="80" id="Rectangle"/></g><path d="M20.137 51.603C19.158 49.93 18.394 48.136 17.866 46.273L19.79 45.728C20.272 47.429 20.969 49.065 21.864 50.593L20.137 51.603ZM19.79 34.273 17.866 33.728C18.383 31.903 19.127 30.144 20.078 28.499L21.809 29.501C20.941 31.001 20.262 32.607 19.79 34.273L19.79 34.273ZM31.409 20.832 30.591 19.008C33.557 17.676 36.723 17 40 17 43.278 17 46.444 17.676 49.409 19.008L48.591 20.832C45.884 19.617 42.993 19 40 19 37.007 19 34.116 19.617 31.409 20.832L31.409 20.832ZM59.922 28.499C60.873 30.144 61.617 31.903 62.134 33.728L60.21 34.273C59.739 32.607 59.06 31.001 58.192 29.501L59.922 28.499ZM60.21 45.728 62.134 46.273C61.617 48.098 60.873 49.857 59.922 51.501L58.192 50.499C59.06 48.999 59.739 47.394 60.21 45.728L60.21 45.728ZM48.591 59.169 49.409 60.993C46.444 62.325 43.278 63 40 63 36.723 63 33.557 62.325 30.591 60.993L31.409 59.169C34.116 60.384 37.007 61 40 61 42.993 61 45.884 60.384 48.591 59.169L48.591 59.169ZM25 59C23.346 59 22 57.655 22 56 22 54.346 23.346 53 25 53 26.655 53 28 54.346 28 56 28 57.655 26.655 59 25 59L25 59ZM25 51C22.243 51 20 53.244 20 56 20 58.757 22.243 61 25 61 27.757 61 30 58.757 30 56 30 53.244 27.757 51 25 51L25 51ZM55 59C53.346 59 52 57.655 52 56 52 54.346 53.346 53 55 53 56.655 53 58 54.346 58 56 58 57.655 56.655 59 55 59L55 59ZM55 51C52.243 51 50 53.244 50 56 50 58.757 52.243 61 55 61 57.757 61 60 58.757 60 56 60 53.244 57.757 51 55 51L55 51ZM16 40C16 38.346 17.346 37 19 37 20.655 37 22 38.346 22 40 22 41.655 20.655 43 19 43 17.346 43 16 41.655 16 40L16 40ZM23.899 41 28.594 41 27.295 42.291 28.705 43.709 31.705 40.727C31.894 40.54 31.999 40.286 32 40.02 32.001 39.755 31.897 39.5 31.709 39.312L28.709 36.295 27.291 37.706 28.578 39 23.899 39C23.435 36.721 21.414 35 19 35 16.243 35 14 37.244 14 40 14 42.757 16.243 45 19 45 21.414 45 23.435 43.28 23.899 41L23.899 41ZM62 43C60.346 43 59 41.655 59 40 59 38.346 60.346 37 62 37 63.655 37 65 38.346 65 40 65 41.655 63.655 43 62 43L62 43ZM62 35C59.243 35 57 37.244 57 40 57 42.757 59.243 45 62 45 64.757 45 67 42.757 67 40 67 37.244 64.757 35 62 35L62 35ZM25 21C26.655 21 28 22.346 28 24 28 25.655 26.655 27 25 27 23.346 27 22 25.655 22 24 22 22.346 23.346 21 25 21L25 21ZM25 29C27.757 29 30 26.757 30 24 30 21.244 27.757 19 25 19 22.243 19 20 21.244 20 24 20 26.757 22.243 29 25 29L25 29ZM55 21C56.655 21 58 22.346 58 24 58 25.655 56.655 27 55 27 53.346 27 52 25.655 52 24 52 22.346 53.346 21 55 21L55 21ZM55 29C57.757 29 60 26.757 60 24 60 21.244 57.757 19 55 19 52.243 19 50 21.244 50 24 50 26.757 52.243 29 55 29L55 29ZM50.4 42.201 51.999 41 48 41 48 39 52 39 50.401 37.801 51.6 36.2 55.6 39.199C55.852 39.388 56 39.684 56 39.999 56 40.313 55.852 40.61 55.601 40.799L51.601 43.8 50.4 42.201ZM45.855 45.868C44.056 45.172 42.028 44.824 40 44.824 37.973 44.824 35.945 45.172 34.146 45.868 34.827 44.125 35.193 42.123 35.193 40 35.193 37.878 34.827 35.876 34.146 34.133 37.743 35.525 42.257 35.525 45.855 34.133 45.173 35.876 44.808 37.878 44.808 40 44.808 42.123 45.173 44.125 45.855 45.868L45.855 45.868ZM49.707 48.293C47.892 46.478 46.808 43.378 46.808 40 46.808 36.623 47.892 33.523 49.707 31.707 49.903 31.512 50 31.256 50 31 50 30.745 49.903 30.489 49.707 30.293 49.317 29.903 48.684 29.903 48.293 30.293 44.418 34.168 35.582 34.168 31.707 30.293 31.317 29.903 30.684 29.903 30.293 30.293 30.098 30.489 30 30.745 30 31 30 31.256 30.098 31.512 30.293 31.707 32.109 33.523 33.193 36.623 33.193 40 33.193 43.378 32.109 46.478 30.293 48.293 30.098 48.489 30 48.745 30 49 30 49.256 30.098 49.512 30.293 49.707 30.684 50.098 31.317 50.098 31.707 49.707 35.582 45.832 44.418 45.832 48.293 49.707 48.489 49.903 48.744 50 49 50 49.256 50 49.512 49.903 49.707 49.707 49.903 49.512 50 49.256 50 49 50 48.745 49.903 48.489 49.707 48.293L49.707 48.293Z" id="Amazon-MQ-Icon_64_Squid" fill="#FFFFFF"/></g></svg>