<svg width="80" height="80" viewBox="0 0 80 80" xmlns="http://www.w3.org/2000/svg" xmlns:xlink="http://www.w3.org/1999/xlink" overflow="hidden"><g id="Icon-Architecture/64/Arch_AWS-re:Post_64" stroke="none" stroke-width="1" fill="none" fill-rule="evenodd"><g id="Icon-Architecture-BG/64/Customer-Enablement" fill="#C925D1"><rect x="0" y="0" width="80" height="80" id="Rectangle"/></g><g id="Icon-Service/64/AWS-re:Post_64" fill="#FFFFFF" transform="translate(12 12)"><path d="M26.6241 36 41.6241 36 41.6241 34 26.6241 34 26.6241 36ZM26.6241 21 39.6241 21 39.6241 19 26.6241 19 26.6241 21ZM26.6241 13 45.6241 13 45.6241 11 26.6241 11 26.6241 13ZM51.2831 40.002C50.3851 38.467 48.7371 37.423 46.8341 37.423 44.5411 37.423 42.6161 38.931 41.9381 41L34.6241 41C34.0711 41 33.6241 41.448 33.6241 42L33.6241 45.4 30.5741 41.394C30.3841 41.146 30.0901 41 29.7781 41L26.3511 41C24.6351 41 22.9961 40.255 21.8511 38.956 20.6951 37.643 20.1791 35.962 20.4011 34.222 20.7801 31.245 23.4661 29 26.6521 29L47.7791 29C50.6531 29 53.1921 30.915 53.8161 33.553 54.4141 36.084 53.3651 38.629 51.2831 40.002L51.2831 40.002ZM46.8341 45.768C45.0841 45.768 43.6611 44.345 43.6611 42.596 43.6611 40.846 45.0841 39.423 46.8341 39.423 48.5841 39.423 50.0061 40.846 50.0061 42.596 50.0061 44.345 48.5841 45.768 46.8341 45.768L46.8341 45.768ZM53.0671 54 40.5991 54C41.0461 50.703 43.6711 48.163 46.8341 48.163 47.9611 48.163 49.0691 48.491 50.0351 49.11 51.6791 50.165 52.7891 51.982 53.0671 54L53.0671 54ZM2.44307 19.007C1.38107 14.855 2.25207 10.569 4.83007 7.25 7.42007 3.914 11.3071 2 15.4951 2L40.5401 2C46.6371 2 52.0281 5.931 53.6471 11.559 55.3111 17.345 53.2311 23.248 48.3451 26.618L47.5501 27 26.6521 27C24.5541 27 22.6201 27.751 21.1481 29L15.7011 29C9.39907 29 3.94707 24.891 2.44307 19.007L2.44307 19.007ZM55.7621 33.092C55.1381 30.455 53.1051 28.358 50.5361 27.466 55.3761 23.511 57.3501 17.2 55.5691 11.006 53.7051 4.526 47.5241 0 40.5401 0L15.4951 0C10.6851 0 6.22207 2.195 3.25007 6.023 0.291072 9.834-0.709928 14.748 0.505072 19.502 2.23607 26.272 8.48407 31 15.7011 31L19.4551 31C18.9191 31.893 18.5541 32.894 18.4171 33.97 18.1271 36.254 18.8311 38.553 20.3501 40.278 21.8751 42.008 24.0611 43 26.3511 43L29.2831 43 33.8281 48.97C34.0211 49.223 34.3181 49.364 34.6241 49.364 34.7301 49.364 34.8381 49.347 34.9431 49.312 35.3501 49.174 35.6241 48.793 35.6241 48.364L35.6241 43 41.7021 43C41.8241 44.553 42.6201 45.912 43.8141 46.777 40.7271 48.066 38.5321 51.262 38.5321 55 38.5321 55.552 38.9791 56 39.5321 56L54.1351 56C54.6881 56 55.1351 55.552 55.1351 55 55.1351 51.873 53.6321 49.042 51.1151 47.426 50.7111 47.168 50.2841 46.962 49.8481 46.781 51.1501 45.84 52.0061 44.32 52.0061 42.596 52.0061 42.372 51.9681 42.158 51.9401 41.942 55.0081 40.195 56.6001 36.633 55.7621 33.092L55.7621 33.092ZM10.2201 23C10.6621 20.036 13.0351 17.766 15.8861 17.766 16.9141 17.766 17.9201 18.064 18.7991 18.628 20.2751 19.574 21.2781 21.194 21.5511 23L10.2201 23ZM15.8871 9.967C17.4601 9.967 18.7381 11.246 18.7381 12.818 18.7381 14.391 17.4601 15.67 15.8871 15.67 14.3141 15.67 13.0351 14.391 13.0351 12.818 13.0351 11.246 14.3141 9.967 15.8871 9.967L15.8871 9.967ZM23.6271 24C23.6271 21.087 22.2261 18.449 19.8791 16.944 19.6061 16.769 19.3221 16.619 19.0321 16.482 20.0671 15.591 20.7381 14.288 20.7381 12.818 20.7381 10.143 18.5621 7.967 15.8871 7.967 13.2111 7.967 11.0351 10.143 11.0351 12.818 11.0351 14.289 11.7061 15.592 12.7431 16.483 10.0381 17.768 8.14607 20.651 8.14607 24 8.14607 24.552 8.59307 25 9.14607 25L22.6271 25C23.1791 25 23.6271 24.552 23.6271 24L23.6271 24Z" id="Fill-1"/></g></g></svg>