<svg width="48" height="48" viewBox="0 0 48 48" xmlns="http://www.w3.org/2000/svg" xmlns:xlink="http://www.w3.org/1999/xlink" overflow="hidden"><g id="Icon-Resource/Analytics/Res_Amazon-OpenSearch-Service_Index_48" stroke="none" stroke-width="1" fill="none" fill-rule="evenodd"><path d="M21 32 27 32 27 30 21 30 21 32ZM16 34 32 34 32 28 16 28 16 34ZM33 26 15 26C14.447 26 14 26.448 14 27L14 35C14 35.552 14.447 36 15 36L33 36C33.553 36 34 35.552 34 35L34 27C34 26.448 33.553 26 33 26L33 26ZM11 12 17 12 17 10 11 10 11 12ZM25 10 31 10 31 8 25 8 25 10ZM4 44 44 44 44 16 4 16 4 44ZM22 4 34 4 34 9C34 9.552 34.447 10 35 10L40 10 40 14 22 14 22 4ZM36 5.261 38.645 8 36 8 36 5.261ZM45 14 42 14 42 9C42 8.741 41.899 8.492 41.72 8.305L35.927 2.305C35.738 2.11 35.479 2 35.207 2L21 2C20.447 2 20 2.448 20 3L20 14 8 14 8 7 18 7 18 5 7 5C6.447 5 6 5.448 6 6L6 14 3 14C2.447 14 2 14.448 2 15L2 45C2 45.552 2.447 46 3 46L45 46C45.553 46 46 45.552 46 45L46 15C46 14.448 45.553 14 45 14L45 14Z" id="Fill-1" fill="#8C4FFF"/></g></svg>