<svg width="80" height="80" viewBox="0 0 80 80" xmlns="http://www.w3.org/2000/svg" xmlns:xlink="http://www.w3.org/1999/xlink" overflow="hidden"><g id="Icon-Architecture/64/Arch_AWS-Glue-DataBrew_64" stroke="none" stroke-width="1" fill="none" fill-rule="evenodd"><g id="Icon-Architecture-BG/64/Analytics" fill="#8C4FFF"><rect x="0" y="0" width="80" height="80" id="Rectangle"/></g><g id="Icon-Service/64/AWS-Glue-DataBrew_64" fill="#FFFFFF" transform="translate(12 12)"><path d="M6 28C6 29.103 5.103 30 4 30 2.897 30 2 29.103 2 28 2 26.897 2.897 26 4 26 5.103 26 6 26.897 6 28L6 28ZM0 28C0 30.206 1.794 32 4 32 6.206 32 8 30.206 8 28 8 25.794 6.206 24 4 24 1.794 24 0 25.794 0 28L0 28ZM56 3.945 56 52.055C56 54.23 54.23 56 52.056 56L3.944 56C1.77 56 0 54.23 0 52.055L0 34 2 34 2 52.055C2 53.127 2.872 54 3.944 54L52.056 54C53.128 54 54 53.127 54 52.055L54 3.945C54 2.873 53.128 2 52.056 2L3.944 2C2.872 2 2 2.873 2 3.945L2 22 0 22 0 3.945C0 1.77 1.77 0 3.944 0L52.056 0C54.23 0 56 1.77 56 3.945L56 3.945ZM9.389 44C15.098 44 21.646 40.251 24.299 35.466L26.049 36.436C23.026 41.888 15.864 46 9.389 46L5 46 5 44 9.389 44ZM44.129 9 48.66 9 46.177 6.517 47.591 5.103 51.723 9.234C51.91 9.421 52.016 9.676 52.016 9.941 52.016 10.206 51.91 10.46 51.723 10.648L47.591 14.779 46.177 13.365 48.542 11 44.129 11C39.091 11 32.534 13.758 29.244 19.919L27.48 18.977C30.667 13.009 37.357 9 44.129 9L44.129 9ZM22.401 14.428C25.857 17.918 27.761 22.559 27.759 27.495 27.758 31.903 29.474 36.048 32.591 39.166 35.708 42.283 39.854 44 44.263 44L48.54 44 46.149 41.61 47.563 40.196 51.695 44.327C51.883 44.515 51.988 44.769 51.988 45.034 51.988 45.299 51.883 45.554 51.695 45.741L47.563 49.873 46.149 48.458 48.608 46 44.263 46C39.319 46 34.672 44.075 31.177 40.58 27.682 37.084 25.757 32.437 25.759 27.494 25.76 23.089 24.063 18.948 20.98 15.835 17.893 12.717 13.776 11 9.39 11L5 11 5 9 9.39 9C14.314 9 18.936 10.928 22.401 14.428L22.401 14.428ZM14 21C12.897 21 12 20.103 12 19 12 17.897 12.897 17 14 17 15.103 17 16 17.897 16 19 16 20.103 15.103 21 14 21L14 21ZM14 15C11.794 15 10 16.794 10 19 10 21.206 11.794 23 14 23 16.206 23 18 21.206 18 19 18 16.794 16.206 15 14 15L14 15ZM18.301 31.974 16.979 34.883 14.069 33.56 15.392 30.651 18.301 31.974ZM11.421 34.553 17.971 37.531 20.949 30.981 14.399 28.003 11.421 34.553ZM45.999 19 50.03 19 50.002 33 45.986 33 45.999 19ZM43.984 35 51.998 35 52.034 17 44.001 17 43.984 35ZM33.999 21 38.03 21 38.002 33 33.986 33 33.999 21ZM31.984 35 39.998 35 40.034 19 32.001 19 31.984 35Z" id="Fill-7"/></g></g></svg>