<svg width="48" height="48" viewBox="0 0 48 48" xmlns="http://www.w3.org/2000/svg" xmlns:xlink="http://www.w3.org/1999/xlink" overflow="hidden"><g id="Icon-Resource/Storage/Res_Amazon-Simple-Storage-Service_Bucket-With-Objects_48" stroke="none" stroke-width="1" fill="none" fill-rule="evenodd"><path d="M40.354 26.059 40.576 24.412C42.336 25.484 42.887 26.107 43.049 26.372 42.579 26.512 41.631 26.385 40.354 26.059L40.354 26.059ZM22.727 20.038C22.727 19.989 22.767 19.948 22.817 19.948 22.832 19.948 22.841 19.957 22.854 19.963L22.785 20.103C22.753 20.094 22.727 20.076 22.727 20.038L22.727 20.038ZM36.373 40.637C36.367 40.682 36.364 40.726 36.364 40.771 36.364 40.923 35.987 41.507 34.31 42.17 33.562 42.465 32.679 42.731 31.684 42.959 29.118 43.553 25.968 43.88 22.816 43.88 14.388 43.88 9.271 41.721 9.271 40.771 9.271 40.726 9.268 40.682 9.262 40.637L5.44 12.253C5.685 12.396 5.95 12.533 6.226 12.666 6.295 12.7 6.372 12.732 6.444 12.765 6.692 12.879 6.95 12.99 7.218 13.097 7.326 13.14 7.435 13.182 7.545 13.224 7.826 13.33 8.116 13.431 8.416 13.529 8.496 13.555 8.573 13.583 8.655 13.609 9.037 13.729 9.432 13.843 9.84 13.952 9.943 13.979 10.05 14.004 10.156 14.031 10.476 14.113 10.804 14.191 11.139 14.265 11.272 14.295 11.404 14.324 11.539 14.353 11.911 14.431 12.289 14.505 12.673 14.576 12.75 14.589 12.823 14.605 12.9 14.618 13.36 14.699 13.83 14.773 14.306 14.842 14.434 14.861 14.564 14.877 14.693 14.895 15.059 14.945 15.427 14.992 15.8 15.035 15.947 15.052 16.093 15.069 16.24 15.085 16.685 15.133 17.133 15.176 17.585 15.214 17.638 15.219 17.69 15.224 17.743 15.229 18.245 15.27 18.751 15.303 19.259 15.331 19.401 15.339 19.542 15.346 19.685 15.353 20.069 15.372 20.453 15.388 20.837 15.4 20.988 15.405 21.137 15.41 21.288 15.413 21.798 15.425 22.308 15.434 22.816 15.434 23.324 15.434 23.833 15.425 24.344 15.413 24.495 15.41 24.644 15.405 24.794 15.4 25.179 15.388 25.564 15.372 25.948 15.353 26.09 15.346 26.231 15.339 26.373 15.331 26.881 15.303 27.388 15.27 27.891 15.229 27.942 15.224 27.991 15.219 28.041 15.215 28.496 15.177 28.947 15.133 29.394 15.084 29.541 15.069 29.685 15.052 29.83 15.036 30.206 14.992 30.578 14.945 30.946 14.894 31.072 14.876 31.199 14.861 31.325 14.842 31.803 14.773 32.275 14.699 32.737 14.618 32.808 14.605 32.877 14.59 32.949 14.578 33.339 14.506 33.722 14.431 34.099 14.352 34.231 14.324 34.361 14.295 34.491 14.266 34.83 14.191 35.162 14.112 35.486 14.029 35.587 14.003 35.691 13.979 35.792 13.952 36.201 13.843 36.599 13.729 36.982 13.608 37.06 13.583 37.133 13.557 37.21 13.532 37.514 13.432 37.809 13.33 38.093 13.222 38.201 13.182 38.307 13.14 38.412 13.099 38.684 12.991 38.946 12.878 39.196 12.762 39.265 12.73 39.339 12.7 39.407 12.667 39.684 12.534 39.949 12.396 40.195 12.253L38.413 25.49C34.792 24.328 29.708 22.221 24.897 19.933 24.84 18.83 23.934 17.948 22.817 17.948 21.665 17.948 20.727 18.885 20.727 20.038 20.727 21.192 21.665 22.129 22.817 22.129 23.269 22.129 23.686 21.982 24.028 21.737 28.341 23.805 33.845 26.246 38.143 27.487L36.373 40.637ZM22.816 4C33.188 4 40.496 7.212 40.632 8.995L40.606 9.202C40.587 9.263 40.548 9.327 40.515 9.39 40.488 9.441 40.469 9.492 40.433 9.543 40.388 9.607 40.323 9.671 40.263 9.736 40.213 9.788 40.173 9.841 40.115 9.894 40.043 9.959 39.953 10.024 39.868 10.089 39.796 10.144 39.734 10.198 39.654 10.252 39.558 10.317 39.444 10.382 39.334 10.447 39.242 10.502 39.157 10.558 39.054 10.613 38.937 10.676 38.801 10.74 38.671 10.802 38.555 10.859 38.448 10.915 38.322 10.971 38.183 11.033 38.026 11.093 37.875 11.155 37.739 11.21 37.609 11.267 37.462 11.322 37.301 11.382 37.123 11.441 36.951 11.499 36.793 11.553 36.644 11.609 36.478 11.662 36.298 11.718 36.101 11.773 35.911 11.829 35.732 11.88 35.562 11.934 35.375 11.984 35.177 12.038 34.963 12.087 34.756 12.138 34.557 12.188 34.365 12.24 34.156 12.287 33.941 12.335 33.708 12.381 33.484 12.427 33.266 12.473 33.056 12.52 32.83 12.563 32.588 12.609 32.331 12.65 32.08 12.693 31.852 12.732 31.632 12.774 31.398 12.81 31.132 12.851 30.851 12.886 30.576 12.924 30.338 12.956 30.108 12.993 29.864 13.022 29.578 13.057 29.276 13.085 28.98 13.117 28.731 13.143 28.49 13.172 28.234 13.196 27.91 13.225 27.57 13.246 27.236 13.271 26.995 13.288 26.761 13.31 26.514 13.325 26.134 13.348 25.739 13.362 25.346 13.377 25.131 13.386 24.924 13.4 24.706 13.406 24.089 13.424 23.458 13.434 22.816 13.434 22.172 13.434 21.542 13.424 20.926 13.406 20.715 13.4 20.514 13.386 20.306 13.378 19.907 13.363 19.504 13.348 19.118 13.325 18.882 13.311 18.661 13.29 18.431 13.274 18.084 13.248 17.733 13.226 17.397 13.196 17.156 13.173 16.928 13.146 16.693 13.121 16.383 13.088 16.067 13.059 15.767 13.022 15.538 12.995 15.323 12.96 15.099 12.93 14.808 12.89 14.512 12.853 14.233 12.81 14.013 12.776 13.808 12.737 13.595 12.701 13.33 12.655 13.057 12.612 12.801 12.563 12.587 12.522 12.389 12.477 12.183 12.435 11.946 12.385 11.702 12.338 11.475 12.287 11.278 12.242 11.096 12.193 10.907 12.146 10.688 12.092 10.463 12.039 10.256 11.984 10.079 11.936 9.917 11.884 9.747 11.835 9.547 11.777 9.341 11.72 9.154 11.661 8.994 11.61 8.85 11.557 8.699 11.505 8.521 11.444 8.336 11.383 8.17 11.322 8.029 11.268 7.905 11.214 7.772 11.161 7.617 11.097 7.454 11.035 7.311 10.97 7.189 10.916 7.084 10.861 6.971 10.806 6.838 10.742 6.699 10.677 6.58 10.613 6.478 10.558 6.395 10.503 6.303 10.449 6.193 10.383 6.077 10.318 5.98 10.252 5.901 10.198 5.838 10.144 5.768 10.09 5.683 10.025 5.591 9.959 5.52 9.894 5.461 9.841 5.42 9.788 5.372 9.736 5.312 9.671 5.247 9.607 5.202 9.543 5.165 9.492 5.146 9.441 5.12 9.39 5.086 9.327 5.046 9.263 5.029 9.202L5.002 8.995C5.139 7.212 12.446 4 22.816 4L22.816 4ZM45.084 26.158C44.872 25.013 43.553 23.8 40.865 22.263L42.575 9.567 42.575 9.564 42.575 9.563 42.625 9.175C42.631 9.132 42.634 9.088 42.634 9.045 42.634 4.894 32.19 2 22.816 2 13.444 2 3 4.894 3 9.045 3 9.088 3.003 9.132 3.009 9.175L3.06 9.563 3.06 9.564 3.06 9.567 7.272 40.848C7.404 44.512 16.848 45.88 22.816 45.88 26.115 45.88 29.424 45.536 32.134 44.909 33.225 44.658 34.204 44.362 35.045 44.03 37.204 43.176 38.319 42.106 38.363 40.848L40.095 27.979C41.041 28.179 41.902 28.301 42.618 28.301 43.583 28.301 44.306 28.097 44.697 27.63 45.045 27.215 45.183 26.692 45.084 26.158L45.084 26.158ZM12.654 26.43 15.25 22.103 17.846 26.43 12.654 26.43ZM20.483 27.922C20.661 27.609 20.656 27.224 20.47 26.915L16.107 19.645C15.746 19.043 14.753 19.043 14.392 19.645L10.03 26.915C9.844 27.225 9.839 27.609 10.017 27.923 10.195 28.237 10.527 28.43 10.887 28.43L19.613 28.43C19.973 28.43 20.305 28.237 20.483 27.922L20.483 27.922ZM29.646 29.302C31.259 29.302 32.572 30.625 32.572 32.252 32.572 33.878 31.259 35.202 29.646 35.202 28.033 35.202 26.72 33.878 26.72 32.252 26.72 30.625 28.033 29.302 29.646 29.302L29.646 29.302ZM29.646 37.202C32.362 37.202 34.572 34.982 34.572 32.252 34.572 29.523 32.362 27.302 29.646 27.302 26.93 27.302 24.72 29.523 24.72 32.252 24.72 34.982 26.93 37.202 29.646 37.202L29.646 37.202ZM14.599 38.645 19.496 38.645 19.496 33.666 14.599 33.666 14.599 38.645ZM20.496 31.665 13.598 31.665C13.045 31.665 12.598 32.113 12.598 32.665L12.598 39.645C12.598 40.198 13.045 40.645 13.598 40.645L20.496 40.645C21.048 40.645 21.496 40.198 21.496 39.645L21.496 32.665C21.496 32.113 21.048 31.665 20.496 31.665L20.496 31.665Z" id="AWS-Amazon-Simple-Storage_Bucket-with-objects_Resource-Icon_light-bg" fill="#7AA116"/></g></svg>