<svg width="80" height="80" viewBox="0 0 80 80" xmlns="http://www.w3.org/2000/svg" xmlns:xlink="http://www.w3.org/1999/xlink" overflow="hidden"><g id="Icon-Architecture/64/Arch_Amazon-Interactive-Video-Service_64" stroke="none" stroke-width="1" fill="none" fill-rule="evenodd"><g id="Icon-Architecture-BG/64/Media-Services" fill="#ED7100"><rect x="0" y="0" width="80" height="80" id="Rectangle"/></g><g id="Icon-Service/64/Amazon-Interactive-Video-Service_64" fill="#FFFFFF" transform="translate(12 12)"><path d="M54 34.2832 43.522 28.2332 54 22.1842 54 34.2832ZM22 38.1702 22 18.2983 39.21 28.2342 22 38.1702ZM20 14.8313 9.522 8.78225 20 2.73225 20 14.8313ZM20 53.7393 9.522 47.6893 20 41.6393 20 53.7393ZM55.5 19.5863C55.191 19.4072 54.809 19.4072 54.5 19.5863L41.366 27.1693 22 15.9893 22 1.00025C22 0.64225 21.81 0.31225 21.5 0.13425 21.191-0.04475 20.809-0.04475 20.5 0.13425L7.022 7.91525C6.713 8.09425 6.522 8.42425 6.522 8.78225 6.522 9.13925 6.713 9.46925 7.022 9.64825L20 17.1402 20 39.3302 7.022 46.8232C6.713 47.0013 6.522 47.3312 6.522 47.6893 6.522 48.0462 6.713 48.3763 7.022 48.5552L20.5 56.3372C20.654 56.4263 20.827 56.4702 21 56.4702 21.173 56.4702 21.346 56.4263 21.5 56.3372 21.81 56.1582 22 55.8283 22 55.4702L22 40.4793 41.366 29.2983 54.5 36.8812C54.809 37.0602 55.191 37.0602 55.5 36.8812 55.81 36.7023 56 36.3722 56 36.0153L56 20.4522C56 20.0952 55.81 19.7642 55.5 19.5863L55.5 19.5863ZM36 53.7342 36 41.6353 46.478 47.6852 36 53.7342ZM48.978 46.8192 35.5 39.0373C35.191 38.8582 34.809 38.8582 34.5 39.0373 34.19 39.2163 34 39.5462 34 39.9033L34 55.4663C34 55.8242 34.19 56.1543 34.5 56.3322 34.654 56.4222 34.827 56.4663 35 56.4663 35.173 56.4663 35.346 56.4222 35.5 56.3322L48.978 48.5513C49.287 48.3722 49.478 48.0423 49.478 47.6852 49.478 47.3273 49.287 46.9972 48.978 46.8192L48.978 46.8192ZM2 34.2832 2 22.1833 12.478 28.2332 2 34.2832ZM15.478 28.2332C15.478 27.8752 15.287 27.5452 14.978 27.3662L1.5 19.5853C1.191 19.4072 0.809 19.4072 0.5 19.5853 0.19 19.7642 0 20.0942 0 20.4513L0 36.0143C0 36.3722 0.19 36.7023 0.5 36.8812 0.654 36.9702 0.827 37.0143 1 37.0143 1.173 37.0143 1.346 36.9702 1.5 36.8812L14.978 29.0993C15.287 28.9202 15.478 28.5903 15.478 28.2332L15.478 28.2332ZM36 2.73225 46.478 8.78225 36 14.8313 36 2.73225ZM34.5 17.4293C34.654 17.5182 34.827 17.5632 35 17.5632 35.173 17.5632 35.346 17.5182 35.5 17.4293L48.978 9.64825C49.287 9.46925 49.478 9.13925 49.478 8.78225 49.478 8.42425 49.287 8.09425 48.978 7.91525L35.5 0.13425C35.191-0.04475 34.809-0.04475 34.5 0.13425 34.19 0.31225 34 0.64225 34 1.00025L34 16.5632C34 16.9202 34.19 17.2502 34.5 17.4293L34.5 17.4293Z" id="Amazon-Interactive-Video_Icon_64_Squid"/></g></g></svg>