<svg width="48" height="48" viewBox="0 0 48 48" xmlns="http://www.w3.org/2000/svg" xmlns:xlink="http://www.w3.org/1999/xlink" overflow="hidden"><g id="Icon-Resource/Application-Integration/Res_Amazon-EventBridge_Pipes_48" stroke="none" stroke-width="1" fill="none" fill-rule="evenodd"><path d="M18.033 37 26.033 37 26.033 39 18.033 39C13.622 39 10.033 35.411 10.033 31 10.033 26.589 13.622 23 18.033 23L30.033 23C33.342 23 36.033 20.309 36.033 17 36.033 13.691 33.342 11 30.033 11L22.033 11 22.033 9 30.033 9C34.444 9 38.033 12.589 38.033 17 38.033 21.411 34.444 25 30.033 25L18.033 25C14.724 25 12.033 27.691 12.033 31 12.033 34.309 14.724 37 18.033 37L18.033 37ZM40.42 44 33.58 44 30.151 38 33.58 32 40.42 32 43.848 38 40.42 44ZM45.868 37.504 41.868 30.504C41.69 30.192 41.358 30 41 30L33 30C32.641 30 32.309 30.192 32.132 30.504L28.132 37.504C27.956 37.812 27.956 38.188 28.132 38.496L32.132 45.496C32.309 45.808 32.641 46 33 46L41 46C41.358 46 41.69 45.808 41.868 45.496L45.868 38.496C46.044 38.188 46.044 37.812 45.868 37.504L45.868 37.504ZM7.58 16 4.151 10 7.58 4 14.42 4 17.848 10 14.42 16 7.58 16ZM15.868 17.496 19.868 10.496C20.044 10.188 20.044 9.812 19.868 9.504L15.868 2.504C15.69 2.192 15.358 2 15 2L7 2C6.641 2 6.309 2.192 6.132 2.504L2.132 9.504C1.956 9.812 1.956 10.188 2.132 10.496L6.132 17.496C6.309 17.808 6.641 18 7 18L15 18C15.358 18 15.69 17.808 15.868 17.496L15.868 17.496Z" id="Fill-1" fill="#E7157B"/></g></svg>