<svg width="48" height="48" viewBox="0 0 48 48" xmlns="http://www.w3.org/2000/svg" xmlns:xlink="http://www.w3.org/1999/xlink" overflow="hidden"><g id="Icon-Resource/Analytics/Res_Amazon-DataZone_Data-Projects_48" stroke="none" stroke-width="1" fill="none" fill-rule="evenodd"><path d="M21 16 35 16 35 14 21 14 21 16ZM21 11 31 11 31 9 21 9 21 11ZM38 28 38 35 35 35 35 21 33 21 33 35 30 35 30 24 28 24 28 35 26 35 26 37 42 37 42 35 40 35 40 28 38 28ZM19.66 33.03C18.982 32.61 18.205 32.389 17.413 32.389 15.309 32.389 13.543 33.937 13.104 36L21.72 36C21.456 34.772 20.716 33.685 19.66 33.03L19.66 33.03ZM15.334 28.19C15.334 29.336 16.267 30.27 17.413 30.27 18.56 30.27 19.492 29.336 19.492 28.19 19.492 27.043 18.56 26.111 17.413 26.111 16.267 26.111 15.334 27.043 15.334 28.19L15.334 28.19ZM21.492 28.19C21.492 29.327 21.022 30.355 20.269 31.096 20.418 31.172 20.57 31.241 20.713 31.33 22.634 32.52 23.826 34.692 23.826 37 23.826 37.552 23.379 38 22.826 38L12 38C11.447 38 11 37.552 11 37 11 34.415 12.45 32.178 14.552 31.092 13.802 30.351 13.334 29.325 13.334 28.19 13.334 25.941 15.164 24.111 17.413 24.111 19.662 24.111 21.492 25.941 21.492 28.19L21.492 28.19ZM6.334 23.731C6.334 24.878 7.267 25.811 8.413 25.811 9.56 25.811 10.492 24.878 10.492 23.731 10.492 22.585 9.56 21.652 8.413 21.652 7.267 21.652 6.334 22.585 6.334 23.731L6.334 23.731ZM10 34 3 34C2.447 34 2 33.552 2 33 2 30.274 3.609 27.929 5.899 26.919 4.953 26.171 4.334 25.028 4.334 23.731 4.334 21.482 6.164 19.652 8.413 19.652 10.662 19.652 12.492 21.482 12.492 23.731 12.492 25.027 11.873 26.171 10.928 26.918 11.198 27.037 11.46 27.174 11.713 27.33L10.66 29.03C9.982 28.61 9.205 28.389 8.413 28.389 6.309 28.389 4.543 29.937 4.104 32L10 32 10 34ZM38 10 42.586 10 38 5.414 38 10ZM46 11 46 40C46 41.122 45.121 42 44 42L18 42 18 40 44 40 44 12 37 12C36.447 12 36 11.552 36 11L36 4 18.037 4 18 22 16 22 16 4C16 2.897 16.914 2 18.037 2L37 2C37.266 2 37.52 2.105 37.707 2.293L45.707 10.293C45.895 10.48 46 10.735 46 11L46 11ZM12 40 10 40 10 44C10 45.103 10.914 46 12.037 46L37.963 46 37.963 44 12 44 12 40ZM12 18 10 18 10 7C10 5.897 10.914 5 12.037 5L14 5 14 7 12.037 7 12 18Z" id="Fill-1" fill="#8C4FFF"/></g></svg>