<svg width="48" height="48" viewBox="0 0 48 48" xmlns="http://www.w3.org/2000/svg" xmlns:xlink="http://www.w3.org/1999/xlink" overflow="hidden"><g id="Icon-Resource/IoT/Res_AWS-IoT_Certificate_48" stroke="none" stroke-width="1" fill="none" fill-rule="evenodd"><path d="M29.9482 35.041 31.9482 35.041 31.9482 45C31.9482 45.371 31.7422 45.712 31.4142 45.885 31.2672 45.962 31.1072 46 30.9482 46 30.7492 46 30.5522 45.94 30.3822 45.824L24.0202 41.45 17.6592 45.824C17.3522 46.034 16.9562 46.058 16.6272 45.885 16.2992 45.712 16.0932 45.371 16.0932 45L16.0932 35.041 18.0932 35.041 18.0932 43.099 23.4542 39.412C23.7962 39.178 24.2452 39.178 24.5872 39.412L29.9482 43.099 29.9482 35.041ZM9.0002 19.02C9.0002 10.738 15.7382 4 24.0202 4 32.3022 4 39.0412 10.738 39.0412 19.02 39.0412 27.303 32.3022 34.041 24.0202 34.041 15.7382 34.041 9.0002 27.303 9.0002 19.02ZM7.0002 19.02C7.0002 28.405 14.6352 36.041 24.0202 36.041 33.4052 36.041 41.0412 28.405 41.0412 19.02 41.0412 9.636 33.4052 2 24.0202 2 14.6352 2 7.0002 9.636 7.0002 19.02ZM15.2682 19.453C15.2682 18.987 15.6472 18.608 16.1142 18.608 16.5802 18.608 16.9592 18.987 16.9592 19.453 16.9592 19.919 16.5802 20.298 16.1142 20.298 15.6472 20.298 15.2682 19.919 15.2682 19.453ZM13.2682 19.453C13.2682 21.021 14.5452 22.298 16.1142 22.298 17.6822 22.298 18.9592 21.021 18.9592 19.453 18.9592 17.885 17.6822 16.608 16.1142 16.608 14.5452 16.608 13.2682 17.885 13.2682 19.453ZM34.6482 20.186 23.7302 20.186C23.2902 20.186 22.9012 20.474 22.7732 20.895 22.1182 23.061 20.1832 24.515 17.9592 24.515 15.1682 24.515 12.8962 22.244 12.8962 19.453 12.8962 16.662 15.1682 14.392 17.9592 14.392 20.1832 14.392 22.1182 15.847 22.7732 18.012 22.9012 18.434 23.2902 18.722 23.7302 18.722L25.6012 18.722C25.8792 18.722 26.1432 18.606 26.3322 18.404L27.1832 17.493 28.0332 18.404C28.2222 18.606 28.4872 18.722 28.7642 18.722L29.8192 18.722C30.0962 18.722 30.3612 18.606 30.5512 18.404L31.4002 17.493 32.2502 18.404C32.4392 18.606 32.7042 18.722 32.9812 18.722L34.2052 18.722 35.2222 19.558 34.6482 20.186ZM35.1972 16.948C35.0182 16.802 34.7942 16.722 34.5622 16.722L33.4162 16.722 32.1322 15.345C31.7532 14.94 31.0482 14.94 30.6692 15.345L29.3852 16.722 29.1992 16.722 27.9152 15.345C27.7252 15.143 27.4612 15.027 27.1832 15.027 26.9062 15.027 26.6412 15.143 26.4532 15.345L25.1672 16.722 24.4322 16.722C23.3362 14.104 20.8202 12.392 17.9592 12.392 14.0642 12.392 10.8962 15.56 10.8962 19.453 10.8962 23.347 14.0642 26.515 17.9592 26.515 20.8202 26.515 23.3362 24.804 24.4322 22.186L35.0902 22.186C35.3712 22.186 35.6382 22.067 35.8282 21.86L37.4102 20.128C37.5952 19.925 37.6882 19.655 37.6692 19.382 37.6492 19.107 37.5182 18.854 37.3062 18.68L35.1972 16.948Z" id="Amazon-IOT-RESOURCES-IoT-certificate_Resource-Icon_light-bg" fill="#7AA116"/></g></svg>