<svg width="48" height="48" viewBox="0 0 48 48" xmlns="http://www.w3.org/2000/svg" xmlns:xlink="http://www.w3.org/1999/xlink" overflow="hidden"><g id="Icon-Resource/Migration-and-Transfer/Res_AWS-Datasync_Agent_48" stroke="none" stroke-width="1" fill="none" fill-rule="evenodd"><path d="M44.0004 8.0762C44.0004 5.8282 42.1724 4.0002 39.9244 4.0002L8.0754 4.0002C5.8284 4.0002 4.0004 5.8282 4.0004 8.0762L4.0004 39.8592C4.0004 42.1082 5.8304 43.9382 8.0794 43.9382L39.9244 43.9382C42.1724 43.9382 44.0004 42.1102 44.0004 39.8622L44.0004 8.0762ZM46.0004 8.0762 46.0004 39.8622C46.0004 43.2122 43.2744 45.9382 39.9244 45.9382L8.0794 45.9382C4.7284 45.9382 2.0004 43.2102 2.0004 39.8592L2.0004 8.0762C2.0004 4.7252 4.7264 2.0002 8.0754 2.0002L39.9244 2.0002C43.2744 2.0002 46.0004 4.7252 46.0004 8.0762L46.0004 8.0762ZM33.2854 12.7282C32.9844 12.4882 32.5714 12.4422 32.2274 12.6072 31.8814 12.7742 31.6604 13.1242 31.6604 13.5092L31.6604 15.9982 25.8094 15.9982 25.8094 17.9982 32.6604 17.9982C33.2134 17.9982 33.6604 17.5502 33.6604 16.9982L33.6604 15.5892 39.0634 19.9122 33.6604 24.2352 33.6604 23.1142C33.6604 22.5612 33.2134 22.1142 32.6604 22.1142L15.5184 22.1142 15.5184 19.9122C15.5184 19.5282 15.2974 19.1772 14.9514 19.0112 14.6034 18.8432 14.1934 18.8912 13.8934 19.1312L5.8884 25.5342C5.6504 25.7242 5.5134 26.0122 5.5134 26.3152 5.5134 26.6192 5.6504 26.9072 5.8884 27.0962L13.8934 33.4992C14.0734 33.6442 14.2954 33.7192 14.5184 33.7192 14.6654 33.7192 14.8134 33.6862 14.9514 33.6192 15.2974 33.4532 15.5184 33.1032 15.5184 32.7192L15.5184 30.1282 21.3454 30.1282 21.3454 28.1282 14.5184 28.1282C13.9654 28.1282 13.5184 28.5762 13.5184 29.1282L13.5184 30.6382 8.1134 26.3152 13.5184 21.9932 13.5184 23.1142C13.5184 23.6662 13.9654 24.1142 14.5184 24.1142L31.6604 24.1142 31.6604 26.3152C31.6604 26.7002 31.8814 27.0502 32.2274 27.2172 32.5744 27.3832 32.9844 27.3362 33.2854 27.0962L41.2894 20.6932C41.5264 20.5032 41.6644 20.2162 41.6644 19.9122 41.6644 19.6082 41.5264 19.3212 41.2894 19.1312L33.2854 12.7282ZM28.3244 30.1602 41.4804 30.1602 41.4804 28.1602 28.3244 28.1602 28.3244 30.1602ZM23.1334 30.1602 26.6344 30.1602 26.6344 28.1602 23.1334 28.1602 23.1334 30.1602ZM8.4524 17.9982 19.2974 17.9982 19.2974 15.9982 8.4524 15.9982 8.4524 17.9982ZM20.5684 17.9982 23.9164 17.9982 23.9164 15.9982 20.5684 15.9982 20.5684 17.9982Z" id="AWS-Datasync-Agent_Resource-Icon_light-bg" fill="#01A88D"/></g></svg>