<svg width="80" height="80" viewBox="0 0 80 80" xmlns="http://www.w3.org/2000/svg" xmlns:xlink="http://www.w3.org/1999/xlink" overflow="hidden"><g id="Icon-Architecture/64/Arch_AWS-Batch_64" stroke="none" stroke-width="1" fill="none" fill-rule="evenodd"><g id="Icon-Architecture-BG/64/Compute" fill="#ED7100"><rect x="0" y="0" width="80" height="80" id="Rectangle"/></g><path d="M40.2258 58.897C41.4647 58.897 42.4708 59.894 42.4708 61.124 42.4708 62.354 41.4647 63.351 40.2258 63.351 38.9869 63.351 37.9808 62.354 37.9808 61.124 37.9808 59.894 38.9869 58.897 40.2258 58.897M21.3014 40.876C21.3014 42.106 20.2954 43.103 19.0565 43.103 17.8175 43.103 16.8115 42.106 16.8115 40.876 16.8115 39.647 17.8175 38.649 19.0565 38.649 20.2954 38.649 21.3014 39.647 21.3014 40.876M61.379 66C58.7974 66 56.7752 64.066 56.7752 61.598 56.7752 59.08 58.8407 57.031 61.379 57.031 63.9183 57.031 65.9839 59.08 65.9839 61.598 65.9839 64.066 63.9617 66 61.379 66M56.7752 41C56.7752 38.482 58.8407 36.433 61.379 36.433 63.9183 36.433 65.9839 38.482 65.9839 41 65.9839 43.518 63.9183 45.567 61.379 45.567 58.8407 45.567 56.7752 43.518 56.7752 41M40.2258 45.567C37.6865 45.567 35.622 43.518 35.622 41 35.622 38.482 37.6865 36.433 40.2258 36.433 42.7651 36.433 44.8296 38.482 44.8296 41 44.8296 43.518 42.7651 45.567 40.2258 45.567M45.2661 61C45.2661 63.851 43.0998 66 40.2258 66 37.3518 66 35.1855 63.851 35.1855 61 35.1855 58.149 37.3518 56 40.2258 56 43.0998 56 45.2661 58.149 45.2661 61M34.1774 21C34.1774 17.86 37.0595 15 40.2258 15 43.3921 15 46.2742 17.86 46.2742 21 46.2742 24.14 43.3921 27 40.2258 27 37.0595 27 34.1774 24.14 34.1774 21M19.0565 46C16.1825 46 14.0161 43.851 14.0161 41 14.0161 38.106 16.2772 35.752 19.0565 35.752 21.8357 35.752 24.0968 38.106 24.0968 41 24.0968 43.851 21.9304 46 19.0565 46M23.6452 61.564C23.6452 64.051 21.623 66 19.0403 66 16.4587 66 14.4365 64.051 14.4365 61.564 14.4365 59.045 16.502 56.997 19.0403 56.997 21.5796 56.997 23.6452 59.045 23.6452 61.564M62.3871 55.115 62.3871 47.482C65.5595 46.999 68 44.28 68 41 68 37.379 65.0292 34.433 61.379 34.433 58.0726 34.433 55.3317 36.853 54.8448 40L46.7601 40C46.3236 37.18 44.0766 34.951 41.2339 34.518L41.2339 28.923C45.0938 28.397 48.2903 24.924 48.2903 21 48.2903 16.738 44.5222 13 40.2258 13 35.9294 13 32.1613 16.738 32.1613 21 32.1613 24.924 35.3579 28.397 39.2177 28.923L39.2177 34.518C36.375 34.951 34.128 37.18 33.6915 40L26.0383 40C25.5605 36.477 22.6159 33.752 19.0565 33.752 15.1663 33.752 12 37.004 12 41 12 44.584 14.5867 47.451 18.0484 47.924L18.0484 55.079C14.869 55.556 12.4204 58.278 12.4204 61.564 12.4204 65.173 15.3286 68 19.0403 68 22.753 68 25.6613 65.173 25.6613 61.564 25.6613 58.289 23.2298 55.574 20.0645 55.084L20.0645 47.924C23.1956 47.496 25.6048 45.107 26.0363 42L33.6915 42C34.128 44.82 36.375 47.049 39.2177 47.482L39.2177 54.076C35.7561 54.549 33.1694 57.416 33.1694 61 33.1694 64.925 36.2692 68 40.2258 68 44.1825 68 47.2823 64.925 47.2823 61 47.2823 57.416 44.6956 54.549 41.2339 54.076L41.2339 47.482C44.0766 47.049 46.3236 44.82 46.7601 42L54.8448 42C55.2823 44.82 57.5282 47.049 60.371 47.482L60.371 55.115C57.1996 55.599 54.7591 58.318 54.7591 61.598 54.7591 65.188 57.6673 68 61.379 68 65.0917 68 68 65.188 68 61.598 68 58.318 65.5595 55.599 62.3871 55.115" id="AWS-Batch_Icon_64_Squid" fill="#FFFFFF"/></g></svg>