<svg width="80" height="80" viewBox="0 0 80 80" xmlns="http://www.w3.org/2000/svg" xmlns:xlink="http://www.w3.org/1999/xlink" overflow="hidden"><g id="Icon-Architecture/64/Arch_AWS-PrivateLink_64" stroke="none" stroke-width="1" fill="none" fill-rule="evenodd"><g id="Icon-Architecture-BG/64/Networking-Content-Delivery" fill="#8C4FFF"><rect x="0" y="0" width="80" height="80" id="Rectangle"/></g><path d="M41.745 41.1552C42.713 42.2488 44 43.9275 44 45.872 44 49.7732 40.859 52.9467 37 52.9467L29 52.9467C25.141 52.9467 22 49.7732 22 45.872 22 41.9719 25.141 38.7973 29 38.7973L33 38.7973 33 40.8187 29 40.8187C26.243 40.8187 24 43.0866 24 45.872 24 48.6584 26.243 50.9253 29 50.9253L37 50.9253C39.757 50.9253 42 48.6584 42 45.872 42 44.6198 41.004 43.3494 40.255 42.5035L41.745 41.1552ZM56 43.8507C56 47.7519 52.859 50.9253 49 50.9253L45 50.9253 45 48.904 49 48.904C51.757 48.904 54 46.6371 54 43.8507 54 41.0653 51.757 38.7973 49 38.7973L41 38.7973C38.243 38.7973 36 41.0653 36 43.8507 36 44.7502 36.463 45.6729 36.865 46.3773L35.135 47.389C34.606 46.4673 34 45.2312 34 43.8507 34 39.9505 37.141 36.776 41 36.776L49 36.776C52.859 36.776 56 39.9505 56 43.8507L56 43.8507ZM57.28 55.9787 22.721 55.9787C18.011 55.9746 14.268 52.5859 14.017 48.0995 14.007 47.8944 14 47.6841 14 47.4699 14 41.6919 18.112 39.7646 20.605 39.1278 21.072 39.0389 21.42 38.6245 21.42 38.1333 21.42 38.0818 21.416 38.0323 21.409 37.9817 21.349 37.4784 21.318 36.9691 21.318 36.4678 21.318 31.8258 24.608 26.828 28.808 25.0897 33.869 22.9986 39.227 24.0396 43.145 27.8801 44.672 29.3759 45.863 31.2861 46.685 33.5591 46.811 33.9067 47.113 34.1564 47.474 34.212 47.835 34.2675 48.197 34.119 48.42 33.8269 49.648 32.2007 51.636 31.5175 53.493 32.0916 55.652 32.7576 57.051 34.976 57.231 38.0242 57.259 38.482 57.587 38.8641 58.032 38.955 61.667 39.6948 66 41.7869 66 47.5507 66 54.8841 60.537 55.9787 57.28 55.9787L57.28 55.9787ZM59.159 37.1368C58.735 33.6015 56.871 31.0203 54.077 30.1582 51.935 29.4982 49.679 29.9894 47.97 31.4043 47.091 29.4719 45.94 27.8033 44.538 26.4288 40.032 22.0122 33.869 20.8126 28.051 23.22 23.072 25.2797 19.318 30.9748 19.318 36.4678 19.318 36.774 19.328 37.0822 19.348 37.3905 16.627 38.2708 12 40.755 12 47.4699 12 47.7205 12.007 47.9661 12.02 48.2107 12.333 53.7855 16.933 57.9949 22.72 58L57.28 58C59.795 58 68 57.2471 68 47.5507 68 42.2104 64.868 38.5356 59.159 37.1368L59.159 37.1368Z" id="AWS-PrivateLink_Icon_64_Squid" fill="#FFFFFF"/></g></svg>