<svg width="48" height="48" viewBox="0 0 48 48" xmlns="http://www.w3.org/2000/svg" xmlns:xlink="http://www.w3.org/1999/xlink" overflow="hidden"><g id="Icon-Resource/Migration-and-Transfer/Res_AWS-Migration-Hub_Refactor-Spaces-Environments_48" stroke="none" stroke-width="1" fill="none" fill-rule="evenodd"><path d="M31.707 26.293 35.707 30.293 34.293 31.707 31 28.414 27.707 31.707 26.293 30.293 30.293 26.293C30.684 25.902 31.316 25.902 31.707 26.293L31.707 26.293ZM31.707 31.293 35.707 35.293 34.293 36.707 31 33.414 27.707 36.707 26.293 35.293 30.293 31.293C30.684 30.902 31.316 30.902 31.707 31.293L31.707 31.293ZM23 39 39 39 39 23 23 23 23 39ZM21 22 21 40C21 40.552 21.447 41 22 41L40 41C40.553 41 41 40.552 41 40L41 22C41 21.448 40.553 21 40 21L22 21C21.447 21 21 21.448 21 22L21 22ZM7 26 7 8C7 7.448 7.447 7 8 7L26 7C26.553 7 27 7.448 27 8L27 19 25 19 25 9 9 9 9 25 19 25 19 27 8 27C7.447 27 7 26.552 7 26L7 26ZM17 14.414 13.707 17.707 12.293 16.293 16.293 12.293C16.684 11.902 17.316 11.902 17.707 12.293L21.707 16.293 20.293 17.707 17 14.414ZM12.293 21.293 16.293 17.293C16.684 16.902 17.316 16.902 17.707 17.293L20.326 19.912 18.912 21.326 17 19.414 13.707 22.707 12.293 21.293ZM4 44 44 44 44 4 4 4 4 44ZM45 2 3 2C2.447 2 2 2.448 2 3L2 45C2 45.552 2.447 46 3 46L45 46C45.553 46 46 45.552 46 45L46 3C46 2.448 45.553 2 45 2L45 2Z" id="Fill-1" fill="#01A88D"/></g></svg>