<svg width="48" height="48" viewBox="0 0 48 48" xmlns="http://www.w3.org/2000/svg" xmlns:xlink="http://www.w3.org/1999/xlink" overflow="hidden"><g id="Icon-Resource/IoT/Res_AWS-IoT_Thing_Vibration-Sensor_48" stroke="none" stroke-width="1" fill="none" fill-rule="evenodd"><path d="M30.449 30.2847 27.167 32.0547 26.218 30.2937 28.258 29.1937 27.746 25.8807 29.198 23.9997 27.746 22.1187 28.258 18.8057 26.218 17.7067 27.167 15.9457 30.449 17.7157 29.853 21.5767 31.725 23.9997 29.853 26.4237 30.449 30.2847ZM37.358 23.9997 34.303 27.3227 35.26 32.5187 29.996 35.8457 28.928 34.1547 33.049 31.5507 32.157 26.7037 34.641 23.9997 32.157 21.2967 33.049 16.4497 28.928 13.8457 29.996 12.1547 35.26 15.4817 34.303 20.6777 37.358 23.9997ZM19.742 29.1937 21.782 30.2937 20.833 32.0547 17.551 30.2847 18.146 26.4237 16.274 23.9997 18.146 21.5767 17.551 17.7157 20.833 15.9457 21.782 17.7067 19.742 18.8057 20.254 22.1187 18.802 23.9997 20.254 25.8807 19.742 29.1937ZM14.951 31.5507 19.072 34.1547 18.004 35.8457 12.74 32.5187 13.696 27.3227 10.641 23.9997 13.696 20.6777 12.74 15.4817 18.004 12.1547 19.072 13.8457 14.951 16.4497 15.843 21.2967 13.358 23.9997 15.843 26.7037 14.951 31.5507ZM24 24.9997C23.448 24.9997 23 24.5517 23 23.9997 23 23.4487 23.448 22.9997 24 22.9997 24.552 22.9997 25 23.4487 25 23.9997 25 24.5517 24.552 24.9997 24 24.9997L24 24.9997ZM24 20.9997C22.345 20.9997 21 22.3457 21 23.9997 21 25.6547 22.345 26.9997 24 26.9997 25.654 26.9997 27 25.6547 27 23.9997 27 22.3457 25.654 20.9997 24 20.9997L24 20.9997ZM39 37.8657C39 38.4907 38.491 38.9997 37.865 38.9997L10.135 38.9997C9.509 38.9997 9 38.4907 9 37.8657L9 10.1347C9 9.5097 9.509 8.9997 10.135 8.9997L37.865 8.9997C38.491 8.9997 39 9.5097 39 10.1347L39 37.8657ZM46 14.9997 46 12.9997 41 12.9997 41 10.1347C41 8.4067 39.594 6.9997 37.865 6.9997L35 6.9997 35 1.9997 33 1.9997 33 6.9997 30 6.9997 30 1.9997 28 1.9997 28 6.9997 25 6.9997 25 1.9997 23 1.9997 23 6.9997 20 6.9997 20 1.9997 18 1.9997 18 6.9997 15 6.9997 15 1.9997 13 1.9997 13 6.9997 10.135 6.9997C8.406 6.9997 7 8.4067 7 10.1347L7 12.9997 2 12.9997 2 14.9997 7 14.9997 7 17.9997 2 17.9997 2 19.9997 7 19.9997 7 22.9997 2 22.9997 2 24.9997 7 24.9997 7 27.9997 2 27.9997 2 29.9997 7 29.9997 7 32.9997 2 32.9997 2 34.9997 7 34.9997 7 37.8657C7 39.5937 8.406 40.9997 10.135 40.9997L13 40.9997 13 45.9997 15 45.9997 15 40.9997 18 40.9997 18 45.9997 20 45.9997 20 40.9997 23 40.9997 23 45.9997 25 45.9997 25 40.9997 28 40.9997 28 45.9997 30 45.9997 30 40.9997 33 40.9997 33 45.9997 35 45.9997 35 40.9997 37.865 40.9997C39.594 40.9997 41 39.5937 41 37.8657L41 34.9997 46 34.9997 46 32.9997 41 32.9997 41 29.9997 46 29.9997 46 27.9997 41 27.9997 41 24.9997 46 24.9997 46 22.9997 41 22.9997 41 19.9997 46 19.9997 46 17.9997 41 17.9997 41 14.9997 46 14.9997Z" id="Fill-1" fill="#7AA116"/></g></svg>