<svg width="90" height="90" viewBox="0 0 90 90" xmlns="http://www.w3.org/2000/svg" xmlns:xlink="http://www.w3.org/1999/xlink" overflow="hidden"><g id="Icon-Architecture-Category/64/Migration-Transfer_64" stroke="none" stroke-width="1" fill="none" fill-rule="evenodd"><rect x="5" y="5" width="80" height="80" id="Rectangle" fill="#01A88D"/><rect x="1" y="1" width="88" height="88" id="#879196-Border-Copy-16" stroke="#879196" stroke-width="2"/><g id="Icon-Category/64/Migration-Transfer_64" fill="#FFFFFF" transform="translate(17 17)"><path d="M39.0672 42.184 27.3582 27.088 15.6492 42.184 23.0052 42.184C23.5582 42.184 24.0052 42.632 24.0052 43.184L24.0052 53.184 31.0052 53.184 31.0052 43.184C31.0052 42.632 31.4532 42.184 32.0052 42.184L39.0672 42.184ZM41.8982 42.571C42.1322 42.872 42.1742 43.281 42.0062 43.624 41.8382 43.967 41.4902 44.184 41.1082 44.184L33.0052 44.184 33.0052 54.184C33.0052 54.736 32.5582 55.184 32.0052 55.184L23.0052 55.184C22.4532 55.184 22.0052 54.736 22.0052 54.184L22.0052 44.184 13.6082 44.184C13.2262 44.184 12.8782 43.967 12.7102 43.624 12.5422 43.281 12.5842 42.872 12.8182 42.571L26.5682 24.844C26.9472 24.355 27.7692 24.355 28.1482 24.844L41.8982 42.571ZM56.0052 27.053C56.0052 33.398 52.1362 38.184 47.0052 38.184L41.0052 38.184 41.0052 36.184 47.0052 36.184C50.9962 36.184 54.0052 32.258 54.0052 27.053 54.0052 24.183 52.8842 19.368 45.3742 19.368 45.0662 19.368 44.7752 19.226 44.5862 18.983 44.3962 18.741 44.3292 18.424 44.4042 18.125 45.0082 15.705 44.5072 13.476 43.0282 12.01 41.5632 10.558 39.3582 10.08 36.9782 10.696 36.7202 10.763 36.4482 10.725 36.2182 10.589 35.9892 10.454 35.8242 10.232 35.7582 9.975 34.0812 3.383 28.2552 2 23.6642 2 23.1752 2.002 11.6372 2.228 11.6372 16.921 11.6372 17.473 11.1902 17.921 10.6372 17.921 7.87417 17.921 5.73017 18.699 4.26417 20.235 1.85417 22.76 2.00317 26.571 2.00417 26.609 2.00517 31.999 5.79717 36.184 10.6372 36.184L14.0052 36.184 14.0052 38.184 10.6372 38.184C4.67517 38.184 0.00516936 33.121 0.00516936 26.658-0.00283064 26.519-0.197831 22.027 2.80317 18.869 4.47517 17.109 6.77617 16.13 9.65317 15.951 10.1792 0.186 23.5262 0 23.6642 0 30.7712 0 35.6212 3.029 37.4282 8.559 40.1562 8.114 42.6632 8.832 44.4362 10.59 46.1712 12.309 46.9222 14.747 46.5732 17.409 52.5052 17.823 56.0052 21.362 56.0052 27.053L56.0052 27.053Z" id="Migration-Transfer_Category-Icon_64_Squid"/></g></g></svg>