<svg width="48" height="48" viewBox="0 0 48 48" xmlns="http://www.w3.org/2000/svg" xmlns:xlink="http://www.w3.org/1999/xlink" overflow="hidden"><g id="Icon-Resource/Storage/Res_AWS-Backup_Recovery-Point-Objective_48" stroke="none" stroke-width="1" fill="none" fill-rule="evenodd"><path d="M23.111 16.853 23.545 31.773 24.418 31.773 24.85 16.853C24.289 16.695 23.671 16.695 23.111 16.853M21.573 32.802 21.091 16.21C21.081 15.821 21.297 15.461 21.645 15.287 23.112 14.554 24.849 14.553 26.316 15.287 26.665 15.461 26.881 15.821 26.87 16.21L26.389 32.802C26.374 33.343 25.93 33.7729 25.389 33.7729L22.573 33.7729C22.032 33.7729 21.589 33.343 21.573 32.802M22.748 38.551C22.748 39.08 22.939 39.338 23.084 39.4869 23.221 39.628 23.465 39.818 23.981 39.818 24.496 39.818 24.74 39.628 24.88 39.485 25.022 39.338 25.214 39.08 25.214 38.551 25.214 38.0219 25.022 37.7649 24.879 37.617 24.74 37.4739 24.495 37.284 23.981 37.284 23.466 37.284 23.221 37.4739 23.082 37.617 22.854 37.852 22.748 38.149 22.748 38.551M20.748 38.551C20.748 37.622 21.05 36.839 21.648 36.2229 22.248 35.608 23.053 35.284 23.981 35.284 24.908 35.284 25.714 35.608 26.311 36.222 26.911 36.837 27.214 37.621 27.214 38.551 27.214 39.4809 26.911 40.2649 26.312 40.88 25.715 41.4939 24.909 41.818 23.981 41.818 23.053 41.818 22.247 41.4939 21.65 40.881 21.05 40.264 20.748 39.4799 20.748 38.551M45.463 40.073C45.056 39.386 43.835 37.271 42.919 35.686L41.186 36.686C42.106 38.278 43.334 40.401 43.745 41.097 44.045 41.596 44.029 42.2379 43.703 42.813 43.363 43.414 42.784 43.7729 42.155 43.7729L5.80603 43.7729C5.17703 43.7729 4.59803 43.414 4.25803 42.813 3.93203 42.2379 3.91803 41.596 4.22003 41.091L13.153 25.985C13.209 25.891 13.257 25.8 13.296 25.713L13.309 25.721C13.325 25.695 13.701 25.058 22.391 10.362 22.701 9.84595 23.296 9.53795 23.98 9.53795 24.666 9.53795 25.26 9.84595 25.567 10.356L32.615 22.275C33.675 24.069 34.294 25.115 34.716 25.688L34.655 25.726 36.753 29.272 37.653 30.73 39.354 29.68 38.464 28.238C37.373 26.393 36.741 25.324 36.311 24.742L36.375 24.704 27.285 9.33295C26.61 8.20895 25.375 7.53795 23.98 7.53795 22.587 7.53795 21.351 8.20895 20.673 9.33895L11.741 24.444C11.685 24.538 11.637 24.629 11.598 24.717L11.585 24.708C11.569 24.735 11.189 25.377 2.50303 40.067 1.82703 41.192 1.83303 42.587 2.51703 43.798 3.20703 45.0159 4.46703 45.7729 5.80603 45.7729L42.155 45.7729C43.494 45.7729 44.754 45.0159 45.444 43.798 46.129 42.587 46.135 41.193 45.463 40.073M5.04203 21.605 2.47403 17.822 4.12903 16.699 5.31703 18.45C6.10603 14.167 8.23203 10.269 11.501 7.27795 15.469 3.64795 20.613 1.78395 25.987 2.01995 37.078 2.51395 45.699 11.938 45.206 23.03 44.926 29.31 41.813 34.989 36.666 38.611L35.515 36.975C40.152 33.713 42.956 28.598 43.208 22.941 43.652 12.951 35.886 4.46195 25.897 4.01795 21.066 3.79695 16.424 5.48395 12.85 8.75395 9.88703 11.464 7.96603 15.001 7.26703 18.887L9.09003 17.649 10.214 19.305 6.43003 21.872C6.25803 21.988 6.06303 22.044 5.87003 22.044 5.54903 22.044 5.23503 21.891 5.04203 21.605" id="Fill-1" fill="#7AA116"/></g></svg>