<svg width="80" height="80" viewBox="0 0 80 80" xmlns="http://www.w3.org/2000/svg" xmlns:xlink="http://www.w3.org/1999/xlink" overflow="hidden"><g id="Icon-Architecture/64/Arch_AWS-IoT-Core_64" stroke="none" stroke-width="1" fill="none" fill-rule="evenodd"><g id="Icon-Architecture-BG/64/Internet-of-Things" fill="#7AA116"><rect x="0" y="0" width="80" height="80" id="Rectangle"/></g><path d="M57.423 47.9061C57.423 46.7966 56.526 45.8944 55.4231 45.8944 54.3202 45.8944 53.4232 46.7966 53.4232 47.9061 53.4232 49.0156 54.3202 49.9179 55.4231 49.9179 56.526 49.9179 57.423 49.0156 57.423 47.9061M54.0632 51.6741C52.8372 51.2245 51.8973 50.1955 51.5663 48.912L49.4234 48.912 49.4234 56.9831C51.3623 55.8183 53.0952 53.8508 54.0632 51.6741M47.4235 57.8773 47.4235 47.9061C47.4235 47.3509 47.8705 46.9003 48.4234 46.9003L51.5663 46.9003C51.8983 45.6137 52.8412 44.5837 54.0692 44.1361 52.9622 41.5953 50.6913 39.31 48.1724 38.2015 47.7275 39.4387 46.7025 40.3873 45.4236 40.7222L45.4236 58.2766C46.1095 58.2102 46.7805 58.0724 47.4235 57.8773M43.4237 58.2756 43.4237 40.7222C42.1467 40.3883 41.1228 39.4407 40.6768 38.2055 38.1529 39.3281 35.883 41.6114 34.7781 44.1361 36.007 44.5847 36.949 45.6137 37.281 46.9003L40.4238 46.9003C40.9768 46.9003 41.4238 47.3509 41.4238 47.9061L41.4238 57.8541C42.0807 58.0644 42.7437 58.2082 43.4237 58.2756M39.4239 56.9418 39.4239 48.912 37.281 48.912C36.95 50.1955 36.011 51.2235 34.7861 51.6741 35.746 53.8176 37.4769 55.764 39.4239 56.9418M33.4241 49.9179C34.5271 49.9179 35.424 49.0156 35.424 47.9061 35.424 46.7966 34.5271 45.8944 33.4241 45.8944 32.3212 45.8944 31.4242 46.7966 31.4242 47.9061 31.4242 49.0156 32.3212 49.9179 33.4241 49.9179M42.4237 36.8416C42.4237 37.951 43.3207 38.8533 44.4236 38.8533 45.5266 38.8533 46.4235 37.951 46.4235 36.8416 46.4235 35.7321 45.5266 34.8298 44.4236 34.8298 43.3207 34.8298 42.4237 35.7321 42.4237 36.8416M59.4229 47.9061C59.4229 49.8796 58.001 51.5182 56.1341 51.8572 54.9171 55.0578 52.3372 57.8994 49.4234 59.2473L49.4234 64 47.4235 64 47.4235 59.9584C46.7725 60.1224 46.1025 60.237 45.4236 60.2924L45.4236 64 43.4237 64 43.4237 60.2924C42.7467 60.236 42.0797 60.1163 41.4238 59.9453L41.4238 64 39.4239 64 39.4239 59.2131C36.497 57.8391 33.9201 55.0176 32.7142 51.8572 30.8473 51.5182 29.4243 49.8796 29.4243 47.9061 29.4243 45.9336 30.8443 44.2961 32.7092 43.9551 33.9851 40.4959 37.041 37.421 40.4958 36.1244 40.8338 34.2484 42.4617 32.8181 44.4236 32.8181 46.3845 32.8181 48.0114 34.2464 48.3514 36.1204 51.8003 37.3998 54.8591 40.4748 56.1381 43.9551 58.003 44.2971 59.4229 45.9346 59.4229 47.9061M64.9986 38.4741C65.0436 41.2111 63.9627 43.8666 62.1078 45.6218L60.7379 44.1552C62.1898 42.7832 63.0337 40.688 62.9977 38.5516 62.9987 34.4285 59.9889 31.0951 55.9981 30.7209 55.4611 30.6696 55.0601 30.1998 55.0931 29.6577L55.1011 29.539C55.1061 29.4706 55.1111 29.4022 55.1111 29.3308 55.1111 26.6894 52.9882 24.5408 50.3783 24.5408 49.1574 24.5408 47.9984 25.0126 47.1135 25.8686 46.8705 26.1029 46.5235 26.1965 46.1985 26.1241 45.8705 26.0496 45.6026 25.8132 45.4846 25.4954 43.8196 21.0193 39.5348 18.0117 34.8221 18.0117 28.5374 18.0117 23.4246 23.1849 23.4246 29.545 23.4246 29.9795 23.1466 30.3708 22.7356 30.5066 19.3048 31.6342 16.9999 34.8449 16.9999 38.4952 16.9999 43.1293 20.7257 46.9003 25.3055 46.9003L25.4245 46.9003 25.4245 48.912 25.3055 48.912C19.6228 48.912 15 44.2387 15 38.4952 15 34.2142 17.5619 30.4211 21.4437 28.8409 21.8097 21.6952 27.6704 16 34.8221 16 39.9178 16 44.5876 18.9864 46.8255 23.5551 47.8845 22.8872 49.1084 22.5291 50.3783 22.5291 53.9292 22.5291 56.847 25.3204 57.095 28.8459 61.6598 29.707 64.9986 33.6962 64.9986 38.4741" id="AWS-IoT-Core_Icon_64_Squid" fill="#FFFFFF"/></g></svg>