<svg width="80" height="80" viewBox="0 0 80 80" xmlns="http://www.w3.org/2000/svg" xmlns:xlink="http://www.w3.org/1999/xlink" overflow="hidden"><g id="Icon-Architecture/64/Arch_Amazon-Elastic-Container-Registry_64" stroke="none" stroke-width="1" fill="none" fill-rule="evenodd"><g id="Icon-Architecture-BG/64/Compute" fill="#ED7100"><rect x="0" y="0" width="80" height="80" id="Rectangle"/></g><path d="M38.7881 37.5777C38.2934 37.8655 37.9856 38.4 37.9856 38.9737L37.9856 66.7195 16.9987 54.9842 16.9987 27.7076 40.557 14.0589 61.4848 24.4283 38.7881 37.5777ZM63.9203 24.4022C63.9203 23.8276 63.6135 23.2921 63.0598 22.9752L41.3465 12.2146C40.8508 11.9288 40.2352 11.9278 39.7405 12.2156L15.8025 26.084C15.3078 26.3718 15 26.9064 15 27.48L15 55.2158C15 55.7895 15.3078 56.324 15.8175 56.6198L37.5738 68.7854C37.8217 68.9288 38.1005 69 38.3783 69 38.6552 69 38.934 68.9288 39.1808 68.7854 39.6765 68.4986 39.9843 67.9641 39.9843 67.3894L39.9843 39.2013 63.1178 25.7982C63.6135 25.5114 63.9203 24.9769 63.9203 24.4022L63.9203 24.4022ZM63.9693 55.0473 44.9812 66.6614 44.9812 56.2618 54.882 49.8726 54.9499 49.4244C54.9679 49.307 54.9749 49.307 54.9749 48.7665L55.0059 36.3602 64.0003 31.1484 63.9693 55.0473ZM65.1965 29.0715C64.6998 28.7817 64.0842 28.7827 63.5885 29.0715L54.0135 34.6183C53.7137 34.7817 53.0082 35.1658 53.0082 35.9581L52.9762 48.7174 43.8509 54.6061C43.3062 54.931 42.9824 55.4455 42.9824 55.989L42.9824 67.3082C42.9824 67.8748 43.2873 68.3913 43.7979 68.6871 44.0648 68.8405 44.3616 68.9188 44.6574 68.9188 44.9482 68.9188 45.239 68.8446 45.5019 68.6921L65.1675 56.6639C65.6622 56.3761 65.968 55.8416 65.968 55.271L66 30.4665C66 29.8929 65.6922 29.3583 65.1965 29.0715L65.1965 29.0715Z" id="Amazon-Elastic-Container-Registry_Icon_64_Squid" fill="#FFFFFF"/></g></svg>