<svg width="48" height="48" viewBox="0 0 48 48" xmlns="http://www.w3.org/2000/svg" xmlns:xlink="http://www.w3.org/1999/xlink" overflow="hidden"><g id="Icon-Resource/Database/Res_Amazon-DynamoDB_Attribute_48" stroke="none" stroke-width="1" fill="none" fill-rule="evenodd"><path d="M12.5996 17.7089C9.7836 17.7089 7.4916 15.4169 7.4916 12.5999 7.4916 9.7829 9.7836 7.4909 12.5996 7.4909 15.4166 7.4909 17.7086 9.7829 17.7086 12.5999 17.7086 15.4169 15.4166 17.7089 12.5996 17.7089L12.5996 17.7089ZM12.5996 5.4909C8.6796 5.4909 5.4916 8.6799 5.4916 12.5999 5.4916 16.5199 8.6796 19.7089 12.5996 19.7089 16.5196 19.7089 19.7086 16.5199 19.7086 12.5999 19.7086 8.6799 16.5196 5.4909 12.5996 5.4909L12.5996 5.4909ZM26.6906 43.8889 43.8896 43.8889 43.8896 26.6899 26.6906 26.6899 26.6906 43.8889ZM24.6906 45.8899 45.8896 45.8899 45.8896 24.6909 24.6906 24.6909 24.6906 45.8899ZM3.9996 43.8889 21.1986 43.8889 21.1986 26.6899 3.9996 26.6899 3.9996 43.8889ZM1.9996 45.8899 23.1986 45.8899 23.1986 24.6909 1.9996 24.6909 1.9996 45.8899ZM26.6906 21.1989 43.8896 21.1989 43.8896 3.9999 26.6906 3.9999 26.6906 21.1989ZM24.6906 23.1989 45.8896 23.1989 45.8896 1.9999 24.6906 1.9999 24.6906 23.1989ZM3.9996 21.1989 21.1986 21.1989 21.1986 3.9999 3.9996 3.9999 3.9996 21.1989ZM1.9996 23.1989 23.1986 23.1989 23.1986 1.9999 1.9996 1.9999 1.9996 23.1989Z" id="Amazon-DATABASE_Amazon-DynamoDB_Attribute_Resource-Icon_light-bg" fill="#C925D1"/></g></svg>