<svg width="80" height="80" viewBox="0 0 80 80" xmlns="http://www.w3.org/2000/svg" xmlns:xlink="http://www.w3.org/1999/xlink" overflow="hidden"><g id="Icon-Architecture/64/Arch_AWS-Snowball-Edge_64" stroke="none" stroke-width="1" fill="none" fill-rule="evenodd"><g id="Icon-Architecture-BG/64/Storage" fill="#7AA116"><rect x="0" y="0" width="80" height="80" id="Rectangle"/></g><path d="M36 19 44 19 44 17 36 17 36 19ZM55 38 55 30 26 30 26 42 44 42 44 44 25 44C24.447 44 24 43.553 24 43L24 29C24 28.448 24.447 28 25 28L56 28C56.553 28 57 28.448 57 29L57 38 55 38ZM17.928 55 39.975 55 39.975 57 17.928 57C14.659 57 12 54.24 12 50.847L12 19.154C12 15.761 14.659 13 17.928 13L62.072 13C65.341 13 68 15.761 68 19.154L68 43 66 43 66 19.154C66 16.864 64.238 15 62.072 15L17.928 15C15.762 15 14 16.864 14 19.154L14 50.847C14 53.137 15.762 55 17.928 55L17.928 55ZM19.495 50 40 50 40 52 19.495 52C17.568 52 16 50.439 16 48.52L16 20.481C16 18.562 17.568 17 19.495 17L31 17C31.459 17 31.858 17.313 31.97 17.758L32.781 21 47.219 21 48.03 17.758C48.142 17.313 48.541 17 49 17L60.505 17C62.432 17 64 18.562 64 20.481L64 39 62 39 62 20.481C62 19.665 61.329 19 60.505 19L49.781 19 48.97 22.243C48.858 22.688 48.459 23 48 23L32 23C31.541 23 31.142 22.688 31.03 22.243L30.219 19 19.495 19C18.671 19 18 19.665 18 20.481L18 48.52C18 49.336 18.671 50 19.495 50L19.495 50ZM55.714 57.387C53.689 57.387 52.042 55.739 52.042 53.714 52.042 51.689 53.689 50.042 55.714 50.042 57.738 50.042 59.386 51.689 59.386 53.714 59.386 55.739 57.738 57.387 55.714 57.387L55.714 57.387ZM55.714 48.042C52.586 48.042 50.042 50.587 50.042 53.714 50.042 56.842 52.586 59.387 55.714 59.387 58.842 59.387 61.386 56.842 61.386 53.714 61.386 50.587 58.842 48.042 55.714 48.042L55.714 48.042ZM66.395 54.977 65.513 54.927C65.05 54.908 64.588 55.228 64.48 55.706 64.257 56.699 63.867 57.642 63.321 58.507 63.061 58.92 63.137 59.461 63.501 59.787L64.159 60.374 62.373 62.16 61.789 61.505C61.463 61.138 60.921 61.063 60.509 61.325 59.645 61.872 58.701 62.262 57.705 62.487 57.228 62.594 56.898 63.031 56.927 63.52L56.977 64.395 54.451 64.395 54.501 63.519C54.529 63.03 54.2 62.594 53.724 62.486 52.729 62.261 51.787 61.87 50.921 61.323 50.508 61.061 49.966 61.136 49.641 61.502L49.055 62.16 47.27 60.374 47.926 59.789C48.29 59.463 48.366 58.922 48.105 58.509 47.56 57.645 47.17 56.702 46.945 55.706 46.838 55.228 46.36 54.904 45.913 54.927L45.033 54.977 45.033 52.452 45.917 52.502C46.385 52.523 46.841 52.201 46.949 51.725 47.174 50.732 47.565 49.791 48.111 48.927 48.372 48.513 48.296 47.972 47.932 47.646L47.269 47.055 49.055 45.269 49.646 45.931C49.972 46.295 50.513 46.371 50.925 46.111 51.787 45.567 52.729 45.177 53.724 44.953 54.2 44.845 54.529 44.408 54.501 43.92L54.451 43.034 56.977 43.034 56.927 43.922C56.898 44.41 57.228 44.846 57.704 44.954 58.696 45.178 59.638 45.568 60.5 46.113 60.912 46.373 61.453 46.297 61.78 45.933L62.373 45.269 64.159 47.055 63.498 47.645C63.134 47.97 63.058 48.512 63.319 48.925 63.863 49.787 64.254 50.728 64.479 51.724 64.587 52.201 65.044 52.523 65.512 52.502L66.395 52.452 66.395 54.977ZM68.081 50.666C67.882 50.478 67.617 50.378 67.338 50.395L66.21 50.459C66.011 49.814 65.752 49.191 65.437 48.595L66.28 47.843C66.485 47.66 66.606 47.4 66.614 47.125 66.622 46.85 66.516 46.584 66.321 46.39L63.039 43.106C62.844 42.911 62.585 42.796 62.304 42.814 62.029 42.822 61.77 42.942 61.586 43.147L60.83 43.995C60.233 43.68 59.612 43.422 58.97 43.223L59.033 42.091C59.049 41.816 58.951 41.547 58.762 41.347 58.573 41.147 58.311 41.034 58.035 41.034L53.393 41.034C53.117 41.034 52.854 41.147 52.666 41.348 52.477 41.547 52.379 41.816 52.395 42.091L52.458 43.222C51.814 43.421 51.192 43.679 50.597 43.993L49.842 43.147C49.658 42.942 49.398 42.822 49.124 42.814 48.867 42.799 48.583 42.912 48.389 43.106L45.106 46.39C44.912 46.584 44.806 46.85 44.813 47.125 44.821 47.4 44.942 47.66 45.147 47.843L45.992 48.597C45.678 49.193 45.419 49.816 45.219 50.459L44.09 50.395C43.812 50.377 43.545 50.478 43.347 50.666 43.146 50.855 43.033 51.118 43.033 51.393L43.033 56.036C43.033 56.311 43.146 56.574 43.347 56.763 43.545 56.952 43.813 57.048 44.09 57.034L45.214 56.97C45.413 57.616 45.672 58.24 45.987 58.838L45.147 59.586C44.942 59.77 44.821 60.029 44.813 60.304 44.806 60.579 44.912 60.845 45.106 61.04L48.389 64.322C48.583 64.517 48.864 64.626 49.124 64.615 49.399 64.607 49.658 64.486 49.842 64.281L50.591 63.441C51.189 63.758 51.813 64.017 52.458 64.216L52.395 65.338C52.379 65.613 52.477 65.882 52.666 66.082 52.854 66.282 53.117 66.395 53.393 66.395L58.035 66.395C58.311 66.395 58.573 66.282 58.762 66.082 58.951 65.882 59.049 65.613 59.033 65.338L58.97 64.218C59.615 64.018 60.24 63.759 60.839 63.443L61.586 64.281C61.769 64.486 62.028 64.607 62.304 64.615 62.588 64.628 62.846 64.517 63.039 64.322L66.321 61.04C66.516 60.845 66.622 60.579 66.614 60.304 66.606 60.029 66.485 59.77 66.28 59.586L65.439 58.836C65.755 58.238 66.013 57.614 66.212 56.97L67.338 57.034C67.616 57.047 67.882 56.951 68.081 56.763 68.281 56.574 68.395 56.311 68.395 56.036L68.395 51.393C68.395 51.118 68.281 50.855 68.081 50.666L68.081 50.666Z" id="Fill-1" fill="#FFFFFF"/></g></svg>