<svg width="48" height="48" viewBox="0 0 48 48" xmlns="http://www.w3.org/2000/svg" xmlns:xlink="http://www.w3.org/1999/xlink" overflow="hidden"><g id="Icon-Resource/Networking-and-Content-Delivery/Res_Amazon-VPC_Elastic-Network-Adapter_48" stroke="none" stroke-width="1" fill="none" fill-rule="evenodd"><path d="M17.187 24.701 21.299 24.701 21.299 20.589 17.187 20.589 17.187 24.701ZM23.3 24.701 27.412 24.701 27.412 20.589 23.3 20.589 23.3 24.701ZM16.187 26.701 28.412 26.701C28.964 26.701 29.412 26.254 29.412 25.701L29.412 19.589C29.412 19.036 28.964 18.589 28.412 18.589L16.187 18.589C15.634 18.589 15.187 19.036 15.187 19.589L15.187 25.701C15.187 26.254 15.634 26.701 16.187 26.701L16.187 26.701ZM12.821 17.097 32.65 17.097 32.65 28.193 30.158 28.193C29.605 28.193 29.158 28.64 29.158 29.193L29.158 30.813 26.791 30.813 26.791 29.193C26.791 28.64 26.344 28.193 25.791 28.193L22.299 28.193C21.747 28.193 21.299 28.64 21.299 29.193L21.299 30.813 14.568 30.813 14.568 29.193C14.568 28.64 14.121 28.193 13.568 28.193L12.821 28.193 12.821 17.097ZM10.821 16.097 10.821 29.193C10.821 29.746 11.268 30.193 11.821 30.193L12.568 30.193 12.568 31.813C12.568 32.366 13.015 32.813 13.568 32.813L22.299 32.813C22.852 32.813 23.299 32.366 23.299 31.813L23.299 30.193 24.791 30.193 24.791 31.813C24.791 32.366 25.239 32.813 25.791 32.813L30.158 32.813C30.71 32.813 31.158 32.366 31.158 31.813L31.158 30.193 33.65 30.193C34.203 30.193 34.65 29.746 34.65 29.193L34.65 16.097C34.65 15.544 34.203 15.097 33.65 15.097L11.821 15.097C11.268 15.097 10.821 15.544 10.821 16.097L10.821 16.097ZM9.329 14.349 9.329 33.559C9.329 34.112 8.881 34.559 8.329 34.559L5.185 34.559 5.185 32.559 7.329 32.559 7.329 15.349 5.185 15.349 5.185 13.349 8.329 13.349C8.881 13.349 9.329 13.797 9.329 14.349L9.329 14.349ZM30.285 41.91 30.285 37.052C30.285 36.499 29.837 36.052 29.285 36.052L4.486 36.052C4.213 36.052 4 35.849 4 35.596L4.089 12.317C4.089 12.059 4.302 11.857 4.575 11.857L29.373 11.857C29.641 11.857 29.897 11.751 30.084 11.56 30.273 11.37 30.376 11.113 30.373 10.846L30.319 6.045 43.751 23.955 30.285 41.91ZM45.801 23.355 30.084 2.399C29.826 2.054 29.372 1.916 28.963 2.052 28.553 2.191 28.28 2.578 28.285 3.011L28.362 9.857 4.575 9.857C3.205 9.857 2.089 10.961 2.089 12.313L2 35.592C2 36.948 3.116 38.052 4.486 38.052L28.285 38.052 28.285 44.91C28.285 45.341 28.56 45.723 28.968 45.858 29.073 45.893 29.179 45.91 29.285 45.91 29.593 45.91 29.892 45.766 30.084 45.51L45.801 24.555C46.068 24.199 46.068 23.711 45.801 23.355L45.801 23.355Z" id="AWS-Amazon-VPC_Elastic-Network-Adapter_Resource-Icon_light-bg" fill="#8C4FFF"/></g></svg>