<svg width="80" height="80" viewBox="0 0 80 80" xmlns="http://www.w3.org/2000/svg" xmlns:xlink="http://www.w3.org/1999/xlink" overflow="hidden"><g id="Icon-Architecture/64/Arch_Amazon-RDS_64" stroke="none" stroke-width="1" fill="none" fill-rule="evenodd"><g id="Icon-Architecture-BG/64/Database" fill="#C925D1"><rect x="0" y="0" width="80" height="80" id="Rectangle"/></g><path d="M15.414 14 24.707 23.293 23.293 24.707 14 15.414 14 23 12 23 12 13C12 12.448 12.447 12 13 12L23 12 23 14 15.414 14ZM68 13 68 23 66 23 66 15.414 56.707 24.707 55.293 23.293 64.586 14 57 14 57 12 67 12C67.553 12 68 12.448 68 13L68 13ZM66 57 68 57 68 67C68 67.552 67.553 68 67 68L57 68 57 66 64.586 66 55.293 56.707 56.707 55.293 66 64.586 66 57ZM65.5 39.213C65.5 35.894 61.668 32.615 55.25 30.442L55.891 28.548C63.268 31.045 67.5 34.932 67.5 39.213 67.5 43.495 63.268 47.383 55.89 49.879L55.249 47.984C61.668 45.812 65.5 42.534 65.5 39.213L65.5 39.213ZM14.556 39.213C14.556 42.393 18.143 45.585 24.152 47.753L23.473 49.634C16.535 47.131 12.556 43.333 12.556 39.213 12.556 35.094 16.535 31.296 23.473 28.792L24.152 30.673C18.143 32.842 14.556 36.034 14.556 39.213L14.556 39.213ZM24.707 56.707 15.414 66 23 66 23 68 13 68C12.447 68 12 67.552 12 67L12 57 14 57 14 64.586 23.293 55.293 24.707 56.707ZM40 31.286C32.854 31.286 29 29.44 29 28.686 29 27.931 32.854 26.086 40 26.086 47.145 26.086 51 27.931 51 28.686 51 29.44 47.145 31.286 40 31.286L40 31.286ZM40.029 39.031C33.187 39.031 29 37.162 29 36.145L29 31.284C31.463 32.643 35.832 33.286 40 33.286 44.168 33.286 48.537 32.643 51 31.284L51 36.145C51 37.163 46.835 39.031 40.029 39.031L40.029 39.031ZM40.029 46.667C33.187 46.667 29 44.798 29 43.781L29 38.862C31.431 40.291 35.742 41.031 40.029 41.031 44.292 41.031 48.578 40.292 51 38.867L51 43.781C51 44.799 46.835 46.667 40.029 46.667L40.029 46.667ZM40 53.518C32.883 53.518 29 51.605 29 50.622L29 46.498C31.431 47.927 35.742 48.667 40.029 48.667 44.292 48.667 48.578 47.929 51 46.503L51 50.622C51 51.605 47.117 53.518 40 53.518L40 53.518ZM40 24.086C33.739 24.086 27 25.525 27 28.686L27 50.622C27 53.836 33.54 55.518 40 55.518 46.46 55.518 53 53.836 53 50.622L53 28.686C53 25.525 46.261 24.086 40 24.086L40 24.086Z" id="Amazon-RDS_Icon_64_Squid" fill="#FFFFFF"/></g></svg>