<svg width="48" height="48" viewBox="0 0 48 48" xmlns="http://www.w3.org/2000/svg" xmlns:xlink="http://www.w3.org/1999/xlink" overflow="hidden"><g id="Icon-Resource/Storage/Res_AWS-Backup_Compute_48" stroke="none" stroke-width="1" fill="none" fill-rule="evenodd"><path d="M42 21C40.897 21 40 20.103 40 19 40 17.897 40.897 17 42 17 43.103 17 44 17.897 44 19 44 20.103 43.103 21 42 21L42 21ZM34.296 37.03C34.196 37.022 34.101 37 34 37 32.141 37 30.589 38.28 30.142 40L17.858 40C17.411 38.28 15.859 37 14 37 13.899 37 13.804 37.022 13.704 37.03L8.195 22.338C9.28 21.622 10 20.395 10 19 10 18.511 9.899 18.047 9.738 17.613L21.812 9.341C22.442 9.755 23.192 10 24 10 24.808 10 25.558 9.755 26.188 9.341L38.262 17.613C38.101 18.047 38 18.511 38 19 38 20.395 38.72 21.622 39.805 22.338L34.296 37.03ZM34 43C32.897 43 32 42.103 32 41 32 39.897 32.897 39 34 39 35.103 39 36 39.897 36 41 36 42.103 35.103 43 34 43L34 43ZM14 43C12.897 43 12 42.103 12 41 12 39.897 12.897 39 14 39 15.103 39 16 39.897 16 41 16 42.103 15.103 43 14 43L14 43ZM4 19C4 17.897 4.897 17 6 17 7.103 17 8 17.897 8 19 8 20.103 7.103 21 6 21 4.897 21 4 20.103 4 19L4 19ZM24 4C25.103 4 26 4.897 26 6 26 7.103 25.103 8 24 8 22.897 8 22 7.103 22 6 22 4.897 22.897 4 24 4L24 4ZM42 15C41.008 15 40.111 15.376 39.412 15.976L27.532 7.837C27.821 7.284 28 6.666 28 6 28 3.794 26.206 2 24 2 21.794 2 20 3.794 20 6 20 6.666 20.179 7.284 20.468 7.837L8.588 15.976C7.889 15.376 6.992 15 6 15 3.794 15 2 16.794 2 19 2 21.206 3.794 23 6 23 6.101 23 6.196 22.978 6.296 22.97L11.805 37.662C10.72 38.378 10 39.605 10 41 10 43.206 11.794 45 14 45 15.859 45 17.411 43.72 17.858 42L30.142 42C30.589 43.72 32.141 45 34 45 36.206 45 38 43.206 38 41 38 39.605 37.28 38.378 36.195 37.662L41.704 22.97C41.804 22.978 41.899 23 42 23 44.206 23 46 21.206 46 19 46 16.794 44.206 15 42 15L42 15ZM29 29.525C29 29.787 28.787 30 28.525 30L19.475 30C19.213 30 19 29.787 19 29.525L19 20.475C19 20.213 19.213 20 19.475 20L28.525 20C28.787 20 29 20.213 29 20.475L29 29.525ZM29 18.048 29 15 27 15 27 18 25 18 25 15 23 15 23 18 21 18 21 15 19 15 19 18.048C18.016 18.24 17.24 19.016 17.048 20L14 20 14 22 17 22 17 24 14 24 14 26 17 26 17 28 14 28 14 30 17.048 30C17.24 30.984 18.016 31.76 19 31.952L19 35 21 35 21 32 23 32 23 35 25 35 25 32 27 32 27 35 29 35 29 31.952C29.984 31.76 30.76 30.984 30.952 30L34 30 34 28 31 28 31 26 34 26 34 24 31 24 31 22 34 22 34 20 30.952 20C30.76 19.016 29.984 18.24 29 18.048L29 18.048Z" id="Fill-1" fill="#7AA116"/></g></svg>