<svg width="48" height="48" viewBox="0 0 48 48" xmlns="http://www.w3.org/2000/svg" xmlns:xlink="http://www.w3.org/1999/xlink" overflow="hidden"><g id="Icon-Resource/Analytics/Res_AWS-Glue_AWS-Glue-for-Ray_48" stroke="none" stroke-width="1" fill="none" fill-rule="evenodd"><path d="M41 44C39.346 44 38 42.654 38 41 38 39.346 39.346 38 41 38 42.654 38 44 39.346 44 41 44 42.654 42.654 44 41 44L41 44ZM28.107 31.107 27.046 29.917C26.72 29.551 26.177 29.478 25.766 29.738 24.547 30.508 23.216 31.06 21.809 31.377 21.331 31.485 21.002 31.922 21.03 32.41L21.121 34 16.879 34 16.97 32.409C16.998 31.92 16.669 31.484 16.192 31.376 14.79 31.06 13.459 30.507 12.236 29.735 11.822 29.474 11.28 29.549 10.956 29.915L9.893 31.107 6.894 28.107 8.085 27.044C8.449 26.719 8.525 26.178 8.265 25.765 7.495 24.546 6.944 23.215 6.628 21.809 6.52 21.331 6.075 21.007 5.595 21.03L4 21.121 4 16.878 5.601 16.97C6.051 16.995 6.523 16.669 6.633 16.193 6.95 14.792 7.502 13.463 8.272 12.244 8.533 11.831 8.457 11.289 8.093 10.964L6.894 9.894 9.894 6.894 10.963 8.092C11.287 8.457 11.831 8.532 12.242 8.272 13.461 7.503 14.79 6.954 16.191 6.637 16.669 6.529 16.998 6.093 16.97 5.605L16.879 4 21.121 4 21.03 5.606C21.002 6.094 21.331 6.53 21.808 6.638 23.21 6.956 24.538 7.507 25.754 8.274 26.167 8.535 26.707 8.459 27.034 8.095L28.106 6.894 31.106 9.894 29.909 10.961C29.545 11.287 29.469 11.829 29.729 12.242 30.5 13.459 31.051 14.789 31.368 16.192 31.476 16.669 31.937 16.995 32.4 16.97L34 16.878 34 21.121 32.402 21.03C31.937 21.007 31.478 21.331 31.37 21.808 31.054 23.212 30.502 24.542 29.732 25.762 29.472 26.175 29.548 26.717 29.912 27.042L31.106 28.107 28.107 31.107ZM21 42C21 43.103 20.103 44 19 44 17.897 44 17 43.103 17 42 17 40.897 17.897 40 19 40 20.103 40 21 40.897 21 42L21 42ZM42 17C43.103 17 44 17.897 44 19 44 20.103 43.103 21 42 21 40.897 21 40 20.103 40 19 40 17.897 40.897 17 42 17L42 17ZM41 36C40.068 36 39.205 36.273 38.457 36.719L31.89 30.152 33.27 28.772C33.464 28.578 33.57 28.312 33.562 28.037 33.555 27.762 33.434 27.502 33.229 27.319L31.857 26.097C32.388 25.138 32.807 24.126 33.109 23.074L34.943 23.179C35.213 23.193 35.487 23.096 35.687 22.907 35.887 22.718 36 22.455 36 22.18L36 20 38.142 20C38.589 21.72 40.141 23 42 23 44.206 23 46 21.206 46 19 46 16.794 44.206 15 42 15 40.141 15 38.589 16.28 38.142 18L36 18 36 15.82C36 15.545 35.887 15.282 35.687 15.093 35.487 14.904 35.214 14.803 34.943 14.821L33.107 14.926C32.805 13.875 32.385 12.864 31.854 11.906L33.229 10.681C33.434 10.498 33.555 10.239 33.562 9.963 33.57 9.688 33.464 9.422 33.27 9.228L28.772 4.731C28.578 4.536 28.311 4.43 28.037 4.438 27.763 4.446 27.503 4.567 27.319 4.772L26.089 6.15C25.133 5.621 24.124 5.203 23.073 4.9L23.178 3.057C23.193 2.782 23.096 2.513 22.906 2.313 22.718 2.113 22.455 2 22.18 2L15.82 2C15.545 2 15.282 2.113 15.094 2.313 14.904 2.513 14.807 2.782 14.822 3.057L14.927 4.897C13.876 5.2 12.866 5.618 11.908 6.147L10.681 4.772C10.497 4.567 10.238 4.446 9.963 4.438 9.693 4.433 9.422 4.536 9.228 4.731L4.73 9.228C4.536 9.422 4.43 9.688 4.437 9.963 4.445 10.238 4.566 10.498 4.771 10.681L6.147 11.909C5.617 12.867 5.197 13.876 4.895 14.926L3.057 14.821C2.781 14.803 2.513 14.904 2.313 15.093 2.113 15.282 2 15.545 2 15.82L2 22.18C2 22.455 2.113 22.718 2.313 22.907 2.514 23.096 2.768 23.194 3.058 23.179L4.888 23.074C5.19 24.127 5.609 25.14 6.14 26.099L4.771 27.319C4.566 27.502 4.445 27.762 4.437 28.037 4.43 28.312 4.536 28.578 4.73 28.772L9.228 33.27C9.422 33.464 9.691 33.573 9.963 33.562 10.238 33.554 10.498 33.434 10.681 33.228L11.901 31.86C12.862 32.392 13.875 32.812 14.927 33.115L14.822 34.943C14.807 35.218 14.904 35.487 15.094 35.687 15.282 35.887 15.545 36 15.82 36L18 36 18 38.142C16.279 38.589 15 40.142 15 42 15 44.206 16.794 46 19 46 21.206 46 23 44.206 23 42 23 40.142 21.721 38.589 20 38.142L20 36 22.18 36C22.455 36 22.718 35.887 22.906 35.687 23.096 35.487 23.193 35.218 23.178 34.943L23.073 33.117C24.128 32.813 25.142 32.394 26.102 31.862L27.319 33.228C27.502 33.434 27.762 33.554 28.037 33.562 28.312 33.576 28.578 33.464 28.772 33.27L30.476 31.566 36.974 38.063C36.369 38.89 36 39.899 36 41 36 43.757 38.243 46 41 46 43.757 46 46 43.757 46 41 46 38.243 43.757 36 41 36L41 36ZM20 18 23 18 23 20 20 20 20 23 18 23 18 20 15 20 15 18 18 18 18 15 20 15 20 18ZM19 25C15.691 25 13 22.309 13 19 13 15.691 15.691 13 19 13 22.309 13 25 15.691 25 19 25 22.309 22.309 25 19 25L19 25ZM19 11C14.589 11 11 14.589 11 19 11 23.411 14.589 27 19 27 23.411 27 27 23.411 27 19 27 14.589 23.411 11 19 11L19 11Z" id="Fill-1" fill="#8C4FFF"/></g></svg>