<svg width="80" height="80" viewBox="0 0 80 80" xmlns="http://www.w3.org/2000/svg" xmlns:xlink="http://www.w3.org/1999/xlink" overflow="hidden"><g id="Icon-Architecture/64/Arch_Amazon-Forecast_64" stroke="none" stroke-width="1" fill="none" fill-rule="evenodd"><g id="Icon-Architecture-BG/64/Machine-Learning" fill="#01A88D"><rect x="0" y="0" width="80" height="80" id="Rectangle"/></g><path d="M50 59 56 59 56 29 50 29 50 59ZM48 61 58 61 58 27 48 27 48 61ZM35 59 41 59 41 37 35 37 35 59ZM33 61 43 61 43 35 33 35 33 61ZM20 59 26 59 26 46 20 46 20 59ZM18 61 28 61 28 44 18 44 18 61ZM62 15 62 17 64.281 17 58.291 22 47.458 22C47.096 22 46.762 22.196 46.585 22.512L42.395 30 31.689 30C31.274 30 30.902 30.257 30.755 30.645L27.582 39 18 39 18 41 28.272 41C28.687 41 29.06 40.743 29.207 40.355L32.38 32 42.98 32C43.343 32 43.677 31.804 43.854 31.488L48.044 24 58.653 24C58.888 24 59.114 23.918 59.294 23.768L66 18.17 66 21 68 21 68 15 62 15ZM63 26 65 26 65 66 57 66 12 66 12 16 55 16 55 18 14 18 14 64 57 64 63 64 63 26Z" id="Amazon-Forecast_Icon_64_Squid" fill="#FFFFFF"/></g></svg>