<svg width="80" height="80" viewBox="0 0 80 80" xmlns="http://www.w3.org/2000/svg" xmlns:xlink="http://www.w3.org/1999/xlink" overflow="hidden"><g id="Icon-Architecture/64/Arch_AWS-Certificate-Manager_64" stroke="none" stroke-width="1" fill="none" fill-rule="evenodd"><g id="Icon-Architecture-BG/64/Security-Identity-Compliance" fill="#DD344C"><rect x="0" y="0" width="80" height="80" id="Rectangle"/></g><path d="M35.694 39.281C35.944 39.522 36.05 39.874 35.977 40.213L34.952 44.922 39.477 42.148C39.798 41.95 40.202 41.95 40.524 42.149L45.016 44.916 44.021 40.199C43.951 39.864 44.056 39.517 44.3 39.278L48.339 35.324 43.073 34.564C42.745 34.516 42.463 34.31 42.317 34.013L39.991 29.251 37.61 34.025C37.465 34.318 37.184 34.521 36.86 34.568L31.609 35.335 35.694 39.281ZM32.499 46.787 33.904 40.332 28.756 35.359C28.481 35.094 28.382 34.697 28.498 34.333 28.615 33.97 28.928 33.705 29.305 33.651L36.053 32.664 39.105 26.545C39.274 26.205 39.594 25.971 40.004 25.991 40.384 25.993 40.731 26.211 40.898 26.552L43.882 32.66 50.626 33.635C51.003 33.689 51.315 33.952 51.433 34.314 51.551 34.676 51.455 35.073 51.182 35.339L46.091 40.323 47.454 46.783C47.536 47.175 47.378 47.578 47.05 47.808 46.724 48.038 46.292 48.051 45.951 47.842L39.999 44.174 33.999 47.852C33.839 47.951 33.657 48 33.476 48 33.273 48 33.07 47.938 32.897 47.815 32.571 47.583 32.414 47.178 32.499 46.787L32.499 46.787ZM14 21.021 66 21.021 66 16 14 16 14 21.021ZM68 15 68 65C68 65.552 67.552 66 67 66L61 66 61 64 66 64 66 23.022 14 23.022 14 64 52 64 52 66 13 66C12.447 66 12 65.552 12 65L12 15C12 14.448 12.447 14 13 14L67 14C67.552 14 68 14.448 68 15L68 15ZM24 59 30 59 30 57 24 57 24 59ZM34 59 48 59 48 57 34 57 34 59ZM24 54 30 54 30 52 24 52 24 54ZM34 54 56 54 56 52 34 52 34 54Z" id="AWS-Certificate-Manager_Icon_64_Squid" fill="#FFFFFF"/></g></svg>