<svg width="48" height="48" viewBox="0 0 48 48" xmlns="http://www.w3.org/2000/svg" xmlns:xlink="http://www.w3.org/1999/xlink" overflow="hidden"><g id="Icon-Resource/Management-Governance/Res_AWS-License-Manager_Application-Discovery_48" stroke="none" stroke-width="1" fill="none" fill-rule="evenodd"><path d="M15.833 15.684C15.846 15.684 15.858 15.684 15.871 15.684 16.099 15.684 16.315 15.767 16.483 15.922 16.661 16.086 16.766 16.309 16.775 16.552 16.785 16.793 16.701 17.024 16.537 17.202 16.373 17.38 16.15 17.484 15.908 17.494 15.406 17.513 14.986 17.126 14.966 16.627 14.945 16.128 15.334 15.705 15.833 15.684L15.833 15.684ZM8.97 13.962 8.512 23.761 16.245 31.485C17.145 31.567 18.2 31.71 19.1 31.619L10.472 23.001 10.835 15.233C11.672 15.775 12.419 16.228 12.977 16.553 12.977 16.606 12.966 16.657 12.968 16.711 13.033 18.27 14.322 19.495 15.869 19.495 15.91 19.495 15.951 19.494 15.992 19.492 16.768 19.46 17.484 19.127 18.01 18.556 18.534 17.985 18.806 17.243 18.773 16.468 18.707 14.867 17.347 13.622 15.749 13.686 14.932 13.72 14.209 14.093 13.704 14.661 12.828 14.142 11.885 13.54 10.944 12.894L11.019 11.308 22.711 10.741 31.537 19.557C31.652 18.689 31.586 17.815 31.539 16.942L23.468 8.78 9.18 9.472 9.083 11.543C6.611 9.641 4.526 7.553 4.301 5.962 4.225 5.42 4.377 4.993 4.838 4.533 4.856 4.514 5.291 4.064 6.068 4.102 7.241 4.171 8.705 5.323 10.161 7.304L10.693 8.115 12.365 7.017 11.803 6.163C9.876 3.538 7.957 2.171 6.102 2.102 4.403 2.033 3.434 3.097 3.387 3.158 2.524 4.013 2.156 5.08 2.321 6.242 2.699 8.917 5.979 11.822 8.97 13.962L8.97 13.962ZM43.163 43.259C42.27 44.15 40.821 44.15 39.929 43.259L28.483 31.813C29.709 30.893 30.802 29.811 31.731 28.593L43.163 40.025C43.593 40.454 43.829 41.028 43.829 41.642 43.829 42.255 43.593 42.829 43.163 43.259L43.163 43.259ZM32.867 26.901C34.302 24.45 35.138 21.608 35.138 18.569 35.138 9.433 27.705 2 18.569 2 16.208 2 13.966 2.505 11.931 3.398L13.259 5.017C14.906 4.369 16.694 4 18.569 4 26.603 4 33.138 10.536 33.138 18.569 33.138 22.305 31.713 25.706 29.393 28.287 28.784 28.963 28.116 29.581 27.394 30.134 24.941 32.01 21.888 33.138 18.569 33.138 15.085 33.138 11.885 31.906 9.376 29.858 8.646 29.264 7.977 28.601 7.374 27.878 5.27 25.352 4 22.107 4 18.569 4 16.672 4.376 14.864 5.038 13.2L3.488 11.745C2.541 13.829 2 16.135 2 18.569 2 27.705 9.433 35.138 18.569 35.138 21.559 35.138 24.357 34.331 26.782 32.94L38.515 44.673C39.351 45.509 40.448 45.927 41.546 45.927 42.644 45.927 43.741 45.509 44.577 44.673 45.385 43.866 45.829 42.789 45.829 41.642 45.829 40.494 45.385 39.417 44.577 38.611L32.867 26.901Z" id="Fill-1" fill="#E7157B"/></g></svg>