<svg width="48" height="48" viewBox="0 0 48 48" xmlns="http://www.w3.org/2000/svg" xmlns:xlink="http://www.w3.org/1999/xlink" overflow="hidden"><g id="Icon-Resource/Analytics/Res_Amazon-OpenSearch-Service_Observability_48" stroke="none" stroke-width="1" fill="none" fill-rule="evenodd"><path d="M25 27 27 27 27 20 25 20 25 27ZM21 22 21 17 23 17 23 19 23 27 21 27 21 22ZM17 27 19 27 19 23 17 23 17 27ZM28 29C28.553 29 29 28.552 29 28L29 19C29 18.448 28.553 18 28 18L25 18 25 16C25 15.448 24.553 15 24 15L20 15C19.447 15 19 15.448 19 16L19 21 16 21C15.447 21 15 21.448 15 22L15 28C15 28.552 15.447 29 16 29L28 29ZM39.37 17.263 41.3 16.737C41.765 18.444 42 20.215 42 22 42 24.545 41.528 27.025 40.599 29.369L38.739 28.631C39.576 26.523 40 24.292 40 22 40 20.393 39.788 18.798 39.37 17.263L39.37 17.263ZM28.632 38.739 29.368 40.599C27.023 41.528 24.544 42 22 42 15.467 42 9.425 38.825 5.699 33.58L5.345 35.195 3.392 34.766 4.317 30.549C4.374 30.289 4.531 30.064 4.755 29.921 4.978 29.777 5.248 29.728 5.509 29.787L9.727 30.713 9.297 32.666 7.178 32.201C10.518 37.051 16.03 40 22 40 24.291 40 26.521 39.576 28.632 38.739L28.632 38.739ZM4.63 26.737 2.7 27.263C2.235 25.556 2 23.785 2 22 2 10.972 10.972 2 22 2 28.533 2 34.575 5.175 38.301 10.419L38.655 8.805 40.608 9.234 39.683 13.451C39.626 13.71 39.469 13.936 39.245 14.079 39.083 14.183 38.896 14.237 38.706 14.237 38.635 14.237 38.563 14.229 38.491 14.213L34.273 13.287 34.703 11.334 36.822 11.799C33.482 6.949 27.97 4 22 4 12.075 4 4 12.075 4 22 4 23.607 4.212 25.202 4.63 26.737L4.63 26.737ZM43.271 43.225C42.329 44.166 40.679 44.166 39.737 43.225L29.991 33.479C31.367 32.519 32.563 31.32 33.518 29.94L43.271 39.692C44.244 40.666 44.244 42.251 43.271 43.225L43.271 43.225ZM10 22C10 15.383 15.383 10 22 10 28.617 10 34 15.383 34 22 34 28.617 28.617 34 22 34 15.383 34 10 28.617 10 22L10 22ZM44.685 38.278 34.557 28.151C35.472 26.291 36 24.208 36 22 36 14.28 29.72 8 22 8 14.28 8 8 14.28 8 22 8 29.72 14.28 36 22 36 24.232 36 26.337 35.461 28.212 34.528L38.323 44.639C39.171 45.488 40.301 45.955 41.504 45.955 42.707 45.955 43.837 45.488 44.685 44.639 46.438 42.885 46.438 40.032 44.685 38.278L44.685 38.278Z" id="Fill-1" fill="#8C4FFF"/></g></svg>