<svg width="48" height="48" viewBox="0 0 48 48" xmlns="http://www.w3.org/2000/svg" xmlns:xlink="http://www.w3.org/1999/xlink" overflow="hidden"><g id="Icon-Resource/Storage/Res_AWS-Backup_Recovery-Time-Objective_48" stroke="none" stroke-width="1" fill="none" fill-rule="evenodd"><path d="M26.606 38.281C29.163 38.281 31.593 37.474 33.636 35.947 33.938 35.721 34.228 35.482 34.506 35.229 34.646 35.102 34.782 34.972 34.914 34.84 35.717 34.037 36.398 33.126 36.939 32.13 37.031 31.963 37.116 31.796 37.197 31.626 37.967 30.03 38.357 28.316 38.357 26.53 38.357 21.024 34.614 16.316 29.255 15.081L29.705 13.132C35.976 14.577 40.357 20.087 40.357 26.53 40.357 28.619 39.9 30.625 39 32.492 38.905 32.691 38.802 32.891 38.696 33.087 38.064 34.25 37.267 35.316 36.329 36.254 36.174 36.408 36.015 36.561 35.851 36.709 35.527 37.004 35.186 37.285 34.834 37.549 32.443 39.336 29.597 40.281 26.606 40.281 19.023 40.281 12.853 34.112 12.853 26.53L14.855 26.468 14.853 26.546C14.853 33.01 20.126 38.281 26.606 38.281L26.606 38.281ZM26.056 25.182C26.755 25.182 27.325 25.751 27.325 26.45 27.325 27.149 26.755 27.718 26.056 27.718 25.357 27.718 24.789 27.149 24.789 26.45 24.789 25.751 25.357 25.182 26.056 25.182L26.056 25.182ZM22.789 26.45C22.789 28.252 24.254 29.718 26.056 29.718 27.859 29.718 29.325 28.252 29.325 26.45 29.325 24.976 28.338 23.742 26.996 23.336L26.939 13.994 24.939 14.006 24.996 23.374C23.716 23.817 22.789 25.021 22.789 26.45L22.789 26.45ZM5 20 16 20 16 18 5 18 5 20ZM2 24 13 24 13 22 2 22 2 24ZM23 7.497 23 4.654C23 4.294 23.293 4 23.654 4L28.345 4C28.706 4 29 4.294 29 4.655L29 7.337C26.998 7.082 24.974 7.135 23 7.497L23 7.497ZM39.314 11.988 41.015 10.288 42.129 11.402 43.543 9.988 39.901 6.345 38.487 7.76 39.601 8.874 37.735 10.74C35.652 9.262 33.365 8.253 31 7.696L31 4.655C31 3.191 29.809 2 28.345 2L23.654 2C22.19 2 21 3.191 21 4.654L21 7.965C18.057 8.832 15.299 10.397 13 12.633L13 11 11 11 11 15C11 15.552 11.447 16 12 16L16 16 16 14 14.457 14C20.503 8.177 30.052 7.479 36.917 12.597 44.61 18.331 46.204 29.256 40.469 36.949 34.735 44.642 23.809 46.235 16.117 40.502 11.704 37.213 9.152 32.166 9.114 26.655L7.114 26.668C7.156 32.812 10.002 38.438 14.921 42.105 18.395 44.695 22.46 45.944 26.492 45.944 32.416 45.944 38.268 43.248 42.073 38.144 48.152 29.989 46.831 18.587 39.314 11.988L39.314 11.988Z" id="Fill-1" fill="#7AA116"/></g></svg>