<svg width="80" height="80" viewBox="0 0 80 80" xmlns="http://www.w3.org/2000/svg" xmlns:xlink="http://www.w3.org/1999/xlink" overflow="hidden"><g id="Icon-Architecture/64/Arch_AWS-Global-Accelerator_64" stroke="none" stroke-width="1" fill="none" fill-rule="evenodd"><g id="Icon-Architecture-BG/64/Networking-Content-Delivery" fill="#8C4FFF"><rect x="0" y="0" width="80" height="80" id="Rectangle"/></g><path d="M52.473 60.7429C52.473 59.6399 51.576 58.7429 50.473 58.7429 49.37 58.7429 48.473 59.6399 48.473 60.7429 48.473 61.8459 49.37 62.7429 50.473 62.7429 51.576 62.7429 52.473 61.8459 52.473 60.7429L52.473 60.7429ZM40.473 60.7429C39.37 60.7429 38.473 61.6399 38.473 62.7429 38.473 63.8459 39.37 64.7429 40.473 64.7429 41.576 64.7429 42.473 63.8459 42.473 62.7429 42.473 61.6399 41.576 60.7429 40.473 60.7429L40.473 60.7429ZM35.814 49.9599C34.756 48.6039 33.868 46.8039 33.201 44.6829 31.854 45.0219 30.612 45.4509 29.518 45.9669 31.241 47.7729 33.392 49.1599 35.814 49.9599L35.814 49.9599ZM51.71 45.9689C50.617 45.4519 49.375 45.0229 48.029 44.6839 47.362 46.8039 46.472 48.6039 45.415 49.9599 47.836 49.1599 49.988 47.7729 51.71 45.9689L51.71 45.9689ZM35.141 44.2699C36.205 47.5699 37.813 49.7749 39.473 50.4849L39.473 43.8319C37.976 43.8819 36.521 44.0299 35.141 44.2699L35.141 44.2699ZM46.088 44.2709C44.621 44.0149 43.07 43.8649 41.473 43.8249L41.473 50.5829C43.232 50.0139 44.963 47.7579 46.088 44.2709L46.088 44.2709ZM34.62 42.3359C36.167 42.0559 37.798 41.8869 39.473 41.8319L39.473 40.1569 38.18 41.4499 36.766 40.0359 40.473 36.3289 44.18 40.0359 42.766 41.4499 41.473 40.1569 41.473 41.8249C43.246 41.8679 44.975 42.0409 46.609 42.3369 47.056 40.3969 47.327 38.1819 47.352 35.7429L33.877 35.7429C33.902 38.1819 34.173 40.3969 34.62 42.3359L34.62 42.3359ZM25.28 35.7429C25.355 38.9699 26.428 41.9469 28.205 44.3889 29.515 43.7229 31.026 43.1749 32.678 42.7569 32.186 40.6299 31.902 38.2629 31.877 35.7429L25.28 35.7429ZM28.429 26.0859C26.766 28.2599 25.66 30.8799 25.353 33.7429L31.909 33.7429C32.008 31.5499 32.311 29.4949 32.771 27.6299 31.175 27.2319 29.711 26.7139 28.429 26.0859L28.429 26.0859ZM35.814 20.8139C33.516 21.5729 31.452 22.8519 29.776 24.5249 30.835 25.0009 32.034 25.3929 33.316 25.7089 33.969 23.7509 34.82 22.0899 35.814 20.8139L35.814 20.8139ZM40.615 20.0349C38.644 20.0349 36.594 22.3029 35.278 26.1189 36.967 26.4049 38.767 26.5609 40.615 26.5609 42.463 26.5609 44.262 26.4049 45.952 26.1189 44.635 22.3029 42.585 20.0349 40.615 20.0349L40.615 20.0349ZM51.453 24.5249C49.777 22.8519 47.713 21.5729 45.415 20.8139 46.41 22.0899 47.26 23.7509 47.913 25.7089 49.196 25.3929 50.394 25.0009 51.453 24.5249L51.453 24.5249ZM46.518 28.0449C44.647 28.3769 42.656 28.5609 40.615 28.5609 38.574 28.5609 36.583 28.3769 34.711 28.0449 34.292 29.7359 34.005 31.6449 33.908 33.7429L47.322 33.7429C47.224 31.6449 46.937 29.7359 46.518 28.0449L46.518 28.0449ZM55.876 33.7429C55.57 30.8809 54.464 28.2599 52.8 26.0859 51.518 26.7139 50.054 27.2319 48.458 27.6299 48.918 29.4949 49.221 31.5499 49.321 33.7429L55.876 33.7429ZM49.352 35.7429C49.327 38.2629 49.043 40.6299 48.551 42.7579 50.203 43.1759 51.714 43.7239 53.023 44.3899 54.8 41.9479 55.874 38.9709 55.95 35.7429L49.352 35.7429ZM30.473 58.7429C29.37 58.7429 28.473 59.6399 28.473 60.7429 28.473 61.8459 29.37 62.7429 30.473 62.7429 31.576 62.7429 32.473 61.8459 32.473 60.7429 32.473 59.6399 31.576 58.7429 30.473 58.7429L30.473 58.7429ZM54.473 60.7429C54.473 62.9489 52.679 64.7429 50.473 64.7429 48.267 64.7429 46.473 62.9489 46.473 60.7429 46.473 58.8849 47.752 57.3319 49.473 56.8849L49.473 55.7429 41.473 55.7429 41.473 58.8849C43.194 59.3319 44.473 60.8849 44.473 62.7429 44.473 64.9489 42.679 66.7429 40.473 66.7429 38.267 66.7429 36.473 64.9489 36.473 62.7429 36.473 60.8849 37.752 59.3319 39.473 58.8849L39.473 55.7429 31.473 55.7429 31.473 56.8849C33.194 57.3319 34.473 58.8849 34.473 60.7429 34.473 62.9489 32.679 64.7429 30.473 64.7429 28.267 64.7429 26.473 62.9489 26.473 60.7429 26.473 58.8849 27.752 57.3319 29.473 56.8849L29.473 53.7429 39.473 53.7429 39.473 52.6809C30.437 52.0889 23.262 44.5699 23.262 35.3869 23.262 25.8189 31.046 18.0349 40.615 18.0349 50.183 18.0349 57.967 25.8189 57.967 35.3869 57.967 44.6649 50.641 52.2439 41.473 52.6959L41.473 53.7429 51.473 53.7429 51.473 56.8849C53.194 57.3319 54.473 58.8849 54.473 60.7429L54.473 60.7429ZM62.946 35.4619C62.946 41.4649 60.609 47.1079 56.364 51.3519L54.95 49.9379C58.817 46.0719 60.946 40.9309 60.946 35.4619 60.946 29.9939 58.817 24.8529 54.95 20.9859 46.967 13.0039 33.979 13.0039 25.996 20.9859 22.129 24.8529 20 29.9939 20 35.4619 20 40.9309 22.129 46.0719 25.996 49.9379L24.582 51.3519C20.337 47.1079 18 41.4649 18 35.4619 18 29.4599 20.337 23.8159 24.582 19.5719 33.346 10.8089 47.602 10.8099 56.364 19.5719 60.609 23.8159 62.946 29.4599 62.946 35.4619L62.946 35.4619Z" id="AWS-Global-Accelerator_Icon_64_Squid" fill="#FFFFFF"/></g></svg>