<svg width="48" height="48" viewBox="0 0 48 48" xmlns="http://www.w3.org/2000/svg" xmlns:xlink="http://www.w3.org/1999/xlink" overflow="hidden"><g id="Icon-Resource/Database/Res_AWS-Database-Migration-Service_Database-migration-workflow-or-job_48" stroke="none" stroke-width="1" fill="none" fill-rule="evenodd"><path d="M24.0361 41.0684C16.6311 41.0684 12.0001 39.0004 12.0001 37.0834L12.0001 36.9034 12.0001 34.0474C13.5571 35.2334 15.9761 36.1134 19.0001 36.5734L19.0001 39.0054 21.0001 39.0054 21.0001 36.8134C21.9671 36.8944 22.9801 36.9384 24.0361 36.9384 25.0641 36.9384 26.0551 36.8984 27.0001 36.8204L27.0001 40.9464C26.0691 41.0234 25.0851 41.0684 24.0361 41.0684L24.0361 41.0684ZM12.0001 26.0664 12.0001 22.5074C14.3261 24.1444 18.5851 25.1304 24.0151 25.1304 29.4221 25.1304 33.6681 24.1544 36.0001 22.5304L36.0001 26.0664C36.0001 26.7544 34.3411 28.0084 29.7671 28.6494 28.7861 28.7874 27.7501 28.8894 26.6861 28.9524 26.2521 28.9774 25.8101 28.9984 25.3621 29.0104 24.4651 29.0384 23.5321 29.0384 22.6371 29.0104 22.1881 28.9984 21.7471 28.9774 21.3121 28.9524 20.2491 28.8894 19.2131 28.7874 18.2311 28.6494 13.6591 28.0084 12.0001 26.7544 12.0001 26.0664L12.0001 26.0664ZM24.0001 4.0004C31.8791 4.0004 36.0021 5.9294 36.0021 6.9644L36.0021 7.1334 36.0021 7.2374C36.0021 8.0344 32.3171 10.1314 24.0571 10.1314 15.7981 10.1314 12.0061 8.1464 12.0061 7.3494L12.0061 7.2374 12.0061 6.9644C12.0061 5.9294 16.1211 4.0004 24.0001 4.0004L24.0001 4.0004ZM12.0001 16.6314C14.5621 18.2914 19.2901 19.0624 23.9951 19.0624 28.7061 19.0624 33.4391 18.2894 36.0001 16.6254L36.0021 19.1994 36.0021 19.3474C36.0021 21.1674 31.4081 23.1314 24.0151 23.1314 16.6231 23.1314 12.0021 21.1674 12.0021 19.3474L12.0001 19.1504 12.0001 16.6314ZM12.0001 9.8554C14.5801 11.4044 19.4391 12.1314 24.0571 12.1314 28.6111 12.1314 33.3931 11.4224 36.0001 9.9184L36.0001 13.4974 36.0001 13.6484C36.0001 15.0444 31.6881 17.0624 23.9951 17.0624 16.3021 17.0624 12.0051 15.0444 12.0051 13.6484L12.0001 13.4874 12.0001 9.8554ZM38.0001 37.0834 38.0001 37.0064 36.0001 37.0064 36.0001 37.2614C35.7971 38.6484 33.2521 40.0784 29.0001 40.7194L29.0001 36.5844C32.0101 36.1344 34.4281 35.2704 36.0001 34.1034L36.0001 35.0064 38.0001 35.0064 37.9991 30.9494 37.9991 30.7844 37.9991 30.6804 38.0001 30.0054 36.0001 30.0054 36.0001 30.8714C35.7971 32.3534 33.2521 33.8814 29.0001 34.5664L29.0001 33.0054 27.0001 33.0054 27.0001 34.8084C26.0691 34.8894 25.0851 34.9384 24.0361 34.9384 22.9601 34.9384 21.9511 34.8864 21.0001 34.8004L21.0001 30.9334C21.0651 30.9374 21.1291 30.9444 21.1941 30.9484 21.6471 30.9754 22.1081 30.9964 22.5761 31.0104 23.0441 31.0244 23.5191 31.0314 24.0001 31.0314 24.4791 31.0314 24.9551 31.0244 25.4231 31.0104 25.8901 30.9964 26.3511 30.9754 26.8051 30.9484 27.9211 30.8824 29.0121 30.7754 30.0461 30.6304 35.1751 29.9114 38.0001 28.2914 38.0001 26.0664L38.0001 6.9644C38.0001 3.5354 30.9691 2.0004 24.0001 2.0004 17.0311 2.0004 10.0001 3.5354 10.0001 6.9644L10.0001 26.0664C10.0001 28.2914 12.8251 29.9124 17.9531 30.6304 18.2941 30.6774 18.6481 30.7144 19.0001 30.7544L19.0001 34.5534C14.6111 33.8334 12.0021 32.2124 12.0021 30.6804L12.0021 30.4874 12.0021 30.0054 10.0001 30.0054 10.0001 45.0064 12.0001 45.0064 12.0001 40.3514C14.3281 42.0474 18.5961 43.0684 24.0361 43.0684 25.0681 43.0684 26.0571 43.0314 27.0001 42.9604L27.0001 46.0054 29.0001 46.0054 29.0001 42.7434C32.0281 42.3254 34.4361 41.5144 36.0001 40.4064L36.0001 45.0064 38.0001 45.0064 38.0001 37.3484C37.9981 37.2594 38.0001 37.2204 38.0001 37.1304L38.0001 37.0834Z" id="Amazon-DATABASE_AWS-Database-Migration-Service_Database-migration-workflow-job_Resource-Icon_light-bg" fill="#C925D1"/></g></svg>