<svg width="48" height="48" viewBox="0 0 48 48" xmlns="http://www.w3.org/2000/svg" xmlns:xlink="http://www.w3.org/1999/xlink" overflow="hidden"><g id="Icon-Resource/IoT/Res_AWS-IoT_Thing_Temperature-Sensor_48" stroke="none" stroke-width="1" fill="none" fill-rule="evenodd"><path d="M24 32.9775C23.448 32.9775 23 32.5285 23 31.9775 23 31.4265 23.448 30.9775 24 30.9775 24.552 30.9775 25 31.4265 25 31.9775 25 32.5285 24.552 32.9775 24 32.9775L24 32.9775ZM25 29.1615 25 17.9995 23 17.9995 23 29.1615C21.839 29.5765 21 30.6755 21 31.9775 21 33.6315 22.346 34.9775 24 34.9775 25.654 34.9775 27 33.6315 27 31.9775 27 30.6755 26.161 29.5765 25 29.1615L25 29.1615ZM26.522 35.0815C25.569 35.8575 24.364 36.1425 23.132 35.8875 21.588 35.5665 20.356 34.2985 20.069 32.7315 19.79 31.2055 20.363 29.7345 21.603 28.7975L22 28.4975 22 13.9995C22 12.8965 22.897 11.9995 24 11.9995 25.103 11.9995 26 12.8965 26 13.9995L26 28.4985 26.397 28.7975C27.416 29.5675 28 30.7265 28 31.9775 28 33.1865 27.462 34.3175 26.522 35.0815L26.522 35.0815ZM28 27.5285 28 13.9995C28 11.7945 26.206 9.9995 24 9.9995 21.794 9.9995 20 11.7945 20 13.9995L20 27.5295C18.444 28.9235 17.721 31.0105 18.103 33.0925 18.535 35.4515 20.393 37.3615 22.726 37.8455 23.147 37.9335 23.571 37.9765 23.991 37.9765 25.37 37.9765 26.706 37.5115 27.785 36.6325 29.192 35.4875 30 33.7905 30 31.9775 30 30.2645 29.277 28.6685 28 27.5285L28 27.5285ZM30 26.9995 34 26.9995 34 24.9995 30 24.9995 30 26.9995ZM30 22.9995 35 22.9995 35 20.9995 30 20.9995 30 22.9995ZM30 18.9995 34 18.9995 34 16.9995 30 16.9995 30 18.9995ZM30 14.9995 35 14.9995 35 12.9995 30 12.9995 30 14.9995ZM39 37.8655C39 38.4905 38.491 38.9995 37.865 38.9995L10.135 38.9995C9.509 38.9995 9 38.4905 9 37.8655L9 10.1345C9 9.5095 9.509 8.9995 10.135 8.9995L37.865 8.9995C38.491 8.9995 39 9.5095 39 10.1345L39 37.8655ZM46 14.9995 46 12.9995 41 12.9995 41 10.1345C41 8.4065 39.594 6.9995 37.865 6.9995L35 6.9995 35 1.9995 33 1.9995 33 6.9995 30 6.9995 30 1.9995 28 1.9995 28 6.9995 25 6.9995 25 1.9995 23 1.9995 23 6.9995 20 6.9995 20 1.9995 18 1.9995 18 6.9995 15 6.9995 15 1.9995 13 1.9995 13 6.9995 10.135 6.9995C8.406 6.9995 7 8.4065 7 10.1345L7 12.9995 2 12.9995 2 14.9995 7 14.9995 7 17.9995 2 17.9995 2 19.9995 7 19.9995 7 22.9995 2 22.9995 2 24.9995 7 24.9995 7 27.9995 2 27.9995 2 29.9995 7 29.9995 7 32.9995 2 32.9995 2 34.9995 7 34.9995 7 37.8655C7 39.5935 8.406 40.9995 10.135 40.9995L13 40.9995 13 45.9995 15 45.9995 15 40.9995 18 40.9995 18 45.9995 20 45.9995 20 40.9995 23 40.9995 23 45.9995 25 45.9995 25 40.9995 28 40.9995 28 45.9995 30 45.9995 30 40.9995 33 40.9995 33 45.9995 35 45.9995 35 40.9995 37.865 40.9995C39.594 40.9995 41 39.5935 41 37.8655L41 34.9995 46 34.9995 46 32.9995 41 32.9995 41 29.9995 46 29.9995 46 27.9995 41 27.9995 41 24.9995 46 24.9995 46 22.9995 41 22.9995 41 19.9995 46 19.9995 46 17.9995 41 17.9995 41 14.9995 46 14.9995Z" id="Fill-1" fill="#7AA116"/></g></svg>