<svg width="80" height="80" viewBox="0 0 80 80" xmlns="http://www.w3.org/2000/svg" xmlns:xlink="http://www.w3.org/1999/xlink" overflow="hidden"><g id="Icon-Architecture/64/Arch_Amazon-Security-Lake_64" stroke="none" stroke-width="1" fill="none" fill-rule="evenodd"><g id="Icon-Architecture-BG/64/Security-Identity-Compliance" fill="#DD344C"><rect x="0" y="0" width="80" height="80" id="Rectangle"/></g><path d="M41 23.3781 41 37.987 43 37.987 43 22.6731C43 22.2511 42.734 21.8741 42.336 21.7321L30.336 17.4461C30.119 17.3691 29.881 17.3691 29.664 17.4461L17.664 21.7321C17.266 21.8741 17 22.2511 17 22.6731L17 41.5301C17 44.5441 20.081 52.8161 30 52.8161L30 50.8161C20.912 50.8161 19 43.0581 19 41.5301L19 23.3781 29 19.8071 29 41.987 31 41.987 31 19.8071 41 23.3781ZM63.248 61.1911 61.248 61.1911C61.248 63.8391 59.094 65.993 56.446 65.993 53.799 65.993 51.645 63.8391 51.645 61.1911L49.645 61.1911C49.645 63.8391 47.49 65.993 44.843 65.993 42.194 65.993 40.04 63.8391 40.04 61.1911L38.04 61.1911C38.04 63.8391 35.886 65.993 33.238 65.993L33.238 67.993C35.69 67.993 37.843 66.69 39.04 64.7381 40.237 66.69 42.391 67.993 44.843 67.993 47.294 67.993 49.447 66.689 50.645 64.7381 51.842 66.689 53.995 67.993 56.446 67.993 58.898 67.993 61.051 66.69 62.248 64.7381 63.445 66.69 65.599 67.993 68.051 67.993L68.051 65.993C65.402 65.993 63.248 63.8391 63.248 61.1911L63.248 61.1911ZM63.248 51.4041 61.248 51.4041C61.248 54.0521 59.094 56.2071 56.446 56.2071 53.799 56.2071 51.645 54.0521 51.645 51.4041L49.645 51.4041C49.645 54.0521 47.49 56.2071 44.843 56.2071 42.194 56.2071 40.04 54.0521 40.04 51.4041L38.04 51.4041C38.04 54.0521 35.886 56.2071 33.238 56.2071L33.238 58.2071C35.69 58.2071 37.843 56.9021 39.04 54.952 40.237 56.9021 42.391 58.2071 44.843 58.2071 47.294 58.2071 49.447 56.9021 50.645 54.952 51.842 56.9021 53.995 58.2071 56.446 58.2071 58.898 58.2071 61.051 56.9021 62.248 54.952 63.445 56.9021 65.599 58.2071 68.051 58.2071L68.051 56.2071C65.402 56.2071 63.248 54.0521 63.248 51.4041L63.248 51.4041ZM63.248 41.4851 61.248 41.4851C61.248 44.1331 59.094 46.2871 56.446 46.2871 53.799 46.2871 51.645 44.1331 51.645 41.4851L49.645 41.4851C49.645 44.1331 47.49 46.2871 44.843 46.2871 42.194 46.2871 40.04 44.1331 40.04 41.4851L38.04 41.4851C38.04 44.1331 35.886 46.2871 33.238 46.2871L33.238 48.2871C35.69 48.2871 37.843 46.9831 39.04 45.0321 40.237 46.9831 42.391 48.2871 44.843 48.2871 47.294 48.2871 49.447 46.9831 50.645 45.0321 51.842 46.9831 53.995 48.2871 56.446 48.2871 58.898 48.2871 61.051 46.9831 62.248 45.0321 63.445 46.9831 65.599 48.2871 68.051 48.2871L68.051 46.2871C65.402 46.2871 63.248 44.1331 63.248 41.4851L63.248 41.4851ZM30.516 56.2051 30.516 58.2051C21.487 58.2051 16.982 53.68 14.792 49.8851 12.078 45.181 12 40.2381 12 39.6901L12 19.6721C12 19.2571 12.256 18.8851 12.644 18.7371L30.159 12.0651C30.396 11.9761 30.657 11.9781 30.891 12.0731L47.375 18.7451C47.753 18.8981 48 19.2651 48 19.6721L48 37.987 46 37.987 46 20.3461 30.505 14.0741 14 20.3611 14 39.6901C14 40.3641 14.188 56.2051 30.516 56.2051L30.516 56.2051Z" id="Fill-8" fill="#FFFFFF"/></g></svg>