<svg width="80" height="80" viewBox="0 0 80 80" xmlns="http://www.w3.org/2000/svg" xmlns:xlink="http://www.w3.org/1999/xlink" overflow="hidden"><g id="Icon-Architecture/64/Arch_AWS-Nitro-Enclaves_64" stroke="none" stroke-width="1" fill="none" fill-rule="evenodd"><g id="Icon-Architecture-BG/64/Compute" fill="#ED7100"><rect x="0" y="0" width="80" height="80" id="Rectangle"/></g><path d="M32.144 47 38.6 47C38.904 47 39.19 47.138 39.38 47.375 39.57 47.611 39.642 47.921 39.577 48.217L37.842 56.021 47.857 42 41.401 42C41.097 42 40.811 41.862 40.621 41.625 40.431 41.389 40.359 41.079 40.424 40.783L42.159 32.979 32.144 47ZM35.8 61.6C35.663 61.6 35.525 61.572 35.393 61.513 34.958 61.32 34.721 60.847 34.824 60.383L37.353 49 30.201 49C29.826 49 29.483 48.791 29.311 48.458 29.14 48.125 29.169 47.724 29.387 47.419L43.387 27.819C43.665 27.431 44.175 27.293 44.608 27.487 45.042 27.68 45.28 28.153 45.177 28.617L42.648 40 49.8 40C50.175 40 50.518 40.209 50.69 40.542 50.861 40.875 50.831 41.276 50.614 41.581L36.614 61.181C36.421 61.451 36.115 61.6 35.8 61.6L35.8 61.6ZM23 66 57 66 57 26C57 25.448 57.448 25 58 25L62 25 62 14 55 14 55 20C55 20.552 54.553 21 54 21L45 21C44.448 21 44 20.552 44 20L44 14 36 14 36 20C36 20.552 35.553 21 35 21L26 21C25.448 21 25 20.552 25 20L25 14 18 14 18 25 22 25C22.553 25 23 25.448 23 26L23 66ZM58 68 22 68C21.448 68 21 67.552 21 67L21 27 17 27C16.448 27 16 26.552 16 26L16 13C16 12.448 16.448 12 17 12L26 12C26.553 12 27 12.448 27 13L27 19 34 19 34 13C34 12.448 34.448 12 35 12L45 12C45.553 12 46 12.448 46 13L46 19 53 19 53 13C53 12.448 53.448 12 54 12L63 12C63.553 12 64 12.448 64 13L64 26C64 26.552 63.553 27 63 27L59 27 59 67C59 67.552 58.553 68 58 68L58 68Z" id="AWS-Nitro-Enclaves_Icon_64_Squid" fill="#FFFFFF"/></g></svg>