<svg width="90" height="90" viewBox="0 0 90 90" xmlns="http://www.w3.org/2000/svg" xmlns:xlink="http://www.w3.org/1999/xlink" overflow="hidden"><g id="Icon-Architecture-Category/64/Satellite_64" stroke="none" stroke-width="1" fill="none" fill-rule="evenodd"><rect x="5" y="5" width="80" height="80" id="Rectangle" fill="#C925D1"/><rect x="1" y="1" width="88" height="88" id="#879196-Border-Copy-21" stroke="#879196" stroke-width="2"/><g id="Icon-Category/64/Satellite_64" fill="#FFFFFF" transform="translate(18 22)"><path d="M43.7057 25.9848C40.7677 27.7728 37.1877 29.5078 33.1467 31.0588 25.6557 33.9338 17.0217 35.8918 10.4277 36.0008 13.6317 41.0518 19.2587 44.4218 25.6707 44.4218 35.6257 44.4218 43.7257 36.3228 43.7257 26.3678 43.7257 26.2378 43.7087 26.1128 43.7057 25.9848M7.0897 33.8768C6.1467 31.5548 5.6167 29.0238 5.6167 26.3678 5.6167 26.2338 5.6347 26.1038 5.6377 25.9708 3.4117 27.8188 2.1017 29.5588 2.0057 30.8758 1.9647 31.4378 2.1487 31.8968 2.5887 32.3188 3.4107 33.1098 4.9707 33.6368 7.0897 33.8768M7.6167 26.3678C7.6167 29.1048 8.2467 31.6908 9.3417 34.0178 15.0437 34.1268 23.4447 32.6408 32.4307 29.1918 37.0327 27.4258 40.7087 25.5488 43.5137 23.7508 42.2387 15.0338 34.7337 8.3128 25.6707 8.3128 15.7157 8.3128 7.6167 16.4118 7.6167 26.3678M47.2687 11.0468C47.2687 10.2198 46.5957 9.5468 45.7687 9.5468 44.9407 9.5468 44.2677 10.2198 44.2677 11.0468 44.2677 11.8738 44.9407 12.5468 45.7687 12.5468 46.5957 12.5468 47.2687 11.8738 47.2687 11.0468M51.0347 13.7068C52.0797 14.7198 52.4577 15.9568 52.1767 17.3258 51.7107 19.5888 49.3517 22.1798 45.6427 24.7278 45.6857 25.2698 45.7257 25.8138 45.7257 26.3678 45.7257 37.4258 36.7287 46.4218 25.6707 46.4218 18.0867 46.4218 11.4747 42.1888 8.0667 35.9618 5.0157 35.7758 2.5837 35.0878 1.2027 33.7608 0.338696 32.9298-0.0733038 31.8808 0.0106962 30.7298 0.215696 27.9378 3.2617 25.1468 5.8867 23.2388 7.3957 13.6658 15.6797 6.3128 25.6707 6.3128 35.4077 6.3128 43.5387 13.2908 45.3447 22.5068 48.3117 20.3338 49.9237 18.3508 50.2167 16.9228 50.3597 16.2268 50.1917 15.6738 49.6887 15.1848 49.0857 14.6718 48.3437 14.2818 47.5407 14.0468 47.0187 14.3568 46.4177 14.5468 45.7687 14.5468 43.8387 14.5468 42.2687 12.9768 42.2687 11.0468 42.2687 9.1168 43.8387 7.5468 45.7687 7.5468 47.6977 7.5468 49.2677 9.1168 49.2677 11.0468 49.2677 11.5458 49.1597 12.0178 48.9717 12.4468 49.7147 12.7628 50.4157 13.1788 51.0347 13.7068M44.1917 5.7488C45.4117 5.3388 46.7177 5.4228 47.8717 5.9938 48.8137 6.4598 49.5907 7.2348 50.0567 8.1778L51.8497 7.2918C51.1887 5.9578 50.0917 4.8598 48.7587 4.2008 47.1257 3.3938 45.2767 3.2708 43.5517 3.8548 41.8257 4.4388 40.4327 5.6588 39.6257 7.2918L41.4187 8.1778C41.9887 7.0248 42.9737 6.1618 44.1917 5.7488M54.8947 5.6758 53.1037 6.5658C52.3097 4.9678 50.9937 3.6518 49.3967 2.8588 45.3377 0.840795 40.3897 2.5028 38.3697 6.5658L36.5787 5.6758C39.0877 0.624795 45.2367-1.4422 50.2877 1.0678 52.2717 2.0538 53.9087 3.6908 54.8947 5.6758" id="Satellite_Category-Icon_64_Squid"/></g></g></svg>