<svg width="48" height="48" viewBox="0 0 48 48" xmlns="http://www.w3.org/2000/svg" xmlns:xlink="http://www.w3.org/1999/xlink" overflow="hidden"><g id="Icon-Resource/Security-Identity-and-Compliance/Res_AWS-Identity-Access-Management_IAM-Roles-Anywhere_48" stroke="none" stroke-width="1" fill="none" fill-rule="evenodd"><path d="M43.95 41.723C43.641 41.743 43.286 41.765 42.905 41.786L42.639 41.81C41.098 41.958 39.397 42.071 38.46 41.797L37.95 41.669C37.508 41.53 37.057 41.34 36.549 41.124 35.147 40.53 33.39 39.795 31.401 39.839L31.35 37.84C33.791 37.765 35.834 38.649 37.33 39.284 37.774 39.472 38.166 39.64 38.5 39.747L38.985 39.868C39.09 39.898 39.249 39.924 39.467 39.942L39.416 39.731C38.336 35.383 34.271 32.23 29.533 32.071 27.577 32 25.673 32.447 23.994 33.351 21.515 35.159 20.039 37.886 19.938 40.842 19.937 40.897 19.935 41.026 19.934 41.169 20.886 41.768 22.103 42.147 23.423 42.259 26.075 41.138 29.975 40.901 32.143 41.141 33.812 41.326 35.609 42.178 37.053 42.863 37.841 43.237 38.655 43.623 39.054 43.694 39.714 43.807 41.17 43.708 42.453 43.619L42.59 43.61C42.998 43.579 43.404 43.555 43.791 43.536 43.823 43.535 43.855 43.533 43.888 43.531L43.95 41.723ZM19.513 43.826C19.823 43.779 20.131 43.708 20.433 43.629 19.615 43.32 18.869 42.916 18.236 42.423 17.749 42.641 17.253 42.848 16.763 43.043 16.328 43.216 15.756 43.443 15.333 43.646 16.016 43.89 17.236 44.056 18.847 43.894L19.513 43.826ZM31.746 29.204C29.744 29.141 27.782 29.581 26.023 30.456 27.181 30.171 28.383 30.035 29.6 30.072 35.227 30.261 40.062 34.037 41.358 39.255L41.514 39.898C41.798 39.877 42.102 39.852 42.449 39.819 42.624 39.803 42.747 39.792 42.801 39.789 42.94 39.781 43.069 39.773 43.202 39.765 42.533 33.966 37.678 29.404 31.746 29.204L31.746 29.204ZM45.967 41.242 45.872 44.058C45.846 44.844 45.209 45.482 44.421 45.51 44.194 45.518 44.051 45.523 43.907 45.533 43.515 45.552 43.127 45.576 42.731 45.604L42.591 45.614C41.057 45.72 39.612 45.819 38.711 45.664 38.04 45.545 37.226 45.159 36.196 44.67 34.887 44.049 33.259 43.277 31.924 43.129 29.597 42.869 25.185 43.296 23.295 44.573 22.293 45.254 20.573 45.785 19.019 45.892L18.788 45.908C18.677 45.917 18.553 45.926 18.416 45.933L18.268 45.944 18.267 45.941C18.064 45.951 17.839 45.957 17.599 45.957 16.193 45.957 14.293 45.744 13.327 44.71 12.826 44.175 12.855 43.631 12.917 43.355 13.147 42.328 14.353 41.848 16.024 41.184 16.493 40.998 16.963 40.802 17.414 40.6 17.577 36.419 19.575 32.573 22.909 30.04 25.447 28.105 28.613 27.095 31.812 27.205 38.859 27.443 44.596 32.953 45.216 39.891 45.321 39.952 45.421 40.021 45.51 40.107 45.815 40.402 45.982 40.816 45.967 41.242L45.967 41.242ZM20 23 23 23 23 20 20 20 20 23ZM25 19 25 24C25 24.552 24.553 25 24 25L19 25C18.447 25 18 24.552 18 24L18 19C18 18.448 18.447 18 19 18L24 18C24.553 18 25 18.448 25 19L25 19ZM10 23 13 23 13 20 10 20 10 23ZM15 19 15 24C15 24.552 14.553 25 14 25L9 25C8.447 25 8 24.552 8 24L8 19C8 18.448 8.447 18 9 18L14 18C14.553 18 15 18.448 15 19L15 19ZM20 13 23 13 23 10 20 10 20 13ZM25 14C25 14.552 24.553 15 24 15L19 15C18.447 15 18 14.552 18 14L18 9C18 8.448 18.447 8 19 8L24 8C24.553 8 25 8.448 25 9L25 14ZM10 13 13 13 13 10 10 10 10 13ZM15 14C15 14.552 14.553 15 14 15L9 15C8.447 15 8 14.552 8 14L8 9C8 8.448 8.447 8 9 8L14 8C14.553 8 15 8.448 15 9L15 14ZM20 31 12 31C11.448 31 11 31.449 11 32L11 46 10 46 9 46 4.333 46C3.047 46 2 45.082 2 43.955L2 4.045C2 2.917 3.047 2 4.333 2L28.667 2C29.953 2 31 2.917 31 4.045L31 25 29 25 29 4.045C28.994 4.083 28.874 4 28.667 4L4.333 4C4.128 4 4.005 4.085 3.982 4.116L4 43.955C4.004 43.914 4.125 44 4.333 44L9 44 9 32C9 30.346 10.346 29 12 29L20 29 20 31Z" id="Fill-1" fill="#DD344C"/></g></svg>