<svg width="48" height="48" viewBox="0 0 48 48" xmlns="http://www.w3.org/2000/svg" xmlns:xlink="http://www.w3.org/1999/xlink" overflow="hidden"><g id="Icon-Resource/Migration-and-Transfer/Res_AWS-Migration-Hub_Refactor-Spaces-Applications_48" stroke="none" stroke-width="1" fill="none" fill-rule="evenodd"><path d="M31 34C31 37.86 27.859 41 24 41 20.141 41 17 37.86 17 34 17 31.215 18.639 28.811 21 27.685L21 30.026C19.793 30.939 19 32.373 19 34 19 36.757 21.243 39 24 39 26.757 39 29 36.757 29 34 29 32.373 28.207 30.939 27 30.026L27 27.685C29.361 28.811 31 31.215 31 34L31 34ZM12 24C13.654 24 15 25.346 15 27 15 28.654 13.654 30 12 30 10.346 30 9 28.654 9 27 9 25.346 10.346 24 12 24L12 24ZM18 21 30 21 30 9 18 9 18 21ZM36 24C37.654 24 39 25.346 39 27 39 28.654 37.654 30 36 30 34.346 30 33 28.654 33 27 33 25.346 34.346 24 36 24L36 24ZM12 32C14.44 32 16.471 30.24 16.907 27.924 19.458 27.535 21.481 25.538 21.91 23L23 23 23 32 25 32 25 23 26.09 23C26.519 25.538 28.542 27.535 31.093 27.924 31.529 30.24 33.56 32 36 32 38.757 32 41 29.757 41 27 41 24.243 38.757 22 36 22 33.623 22 31.635 23.672 31.131 25.899 29.669 25.573 28.517 24.443 28.142 23L31 23C31.553 23 32 22.552 32 22L32 8C32 7.448 31.553 7 31 7L17 7C16.447 7 16 7.448 16 8L16 22C16 22.552 16.447 23 17 23L19.858 23C19.483 24.443 18.331 25.573 16.869 25.899 16.365 23.672 14.377 22 12 22 9.243 22 7 24.243 7 27 7 29.757 9.243 32 12 32L12 32ZM24.707 15.043 28.207 18.543 26.793 19.957 24 17.164 21.207 19.957 19.793 18.543 23.293 15.043C23.684 14.652 24.316 14.652 24.707 15.043L24.707 15.043ZM24.707 10.543 28.207 14.043 26.793 15.457 24 12.664 21.207 15.457 19.793 14.043 23.293 10.543C23.684 10.152 24.316 10.152 24.707 10.543L24.707 10.543ZM4 44 44 44 44 4 4 4 4 44ZM45 2 3 2C2.447 2 2 2.448 2 3L2 45C2 45.552 2.447 46 3 46L45 46C45.553 46 46 45.552 46 45L46 3C46 2.448 45.553 2 45 2L45 2Z" id="Fill-1" fill="#01A88D"/></g></svg>