<svg width="48" height="48" viewBox="0 0 48 48" xmlns="http://www.w3.org/2000/svg" xmlns:xlink="http://www.w3.org/1999/xlink" overflow="hidden"><g id="Icon-Resource/Analytics/Res_Amazon-OpenSearch-Service_UltraWarm-Node_48" stroke="none" stroke-width="1" fill="none" fill-rule="evenodd"><path d="M39.536 42.459 40.583 34.919C38.024 34.086 34.894 32.706 33.265 31.96 33.048 32.088 32.799 32.166 32.53 32.166 31.724 32.166 31.069 31.511 31.069 30.705 31.069 29.899 31.724 29.244 32.53 29.244 33.083 29.244 33.559 29.556 33.807 30.01 35.693 30.883 38.547 32.121 40.863 32.904L41.723 26.708C39.405 27.874 35.727 28.477 32.069 28.477 28.398 28.477 24.706 27.87 22.389 26.696L24.454 42.467C24.456 42.482 24.458 42.497 24.459 42.512 24.863 43.062 27.711 44.04 31.994 44.04 36.278 44.04 39.126 43.062 39.53 42.512 39.531 42.494 39.533 42.477 39.536 42.459M22.015 23.836 22.022 23.894C22.286 24.86 26.048 26.477 32.069 26.477 38.074 26.477 41.83 24.869 42.113 23.902L42.123 23.834C41.73 23.192 38.497 21.097 32.069 21.097 25.636 21.097 22.403 23.196 22.015 23.836M45.758 33.829C45.84 34.269 45.726 34.7 45.439 35.042 45.108 35.436 44.615 35.632 43.894 35.632 43.51 35.632 43.052 35.57 42.527 35.459L41.524 42.68C41.398 45.334 35.258 46.04 31.994 46.04 28.729 46.04 22.583 45.334 22.465 42.675L20.009 23.917 20.016 23.916C20.013 23.872 20 23.831 20 23.787 20 21.568 24.957 19.097 32.069 19.097 39.182 19.097 44.139 21.568 44.139 23.787 44.139 23.834 44.124 23.877 44.122 23.923L44.129 23.924 43.108 31.272C44.799 32.241 45.606 33.018 45.758 33.829M46 7 46 17 44 17 44 7C44 5.345 42.654 4 41 4L7 4C5.346 4 4 5.345 4 7L4 41C4 42.654 5.346 44 7 44L19 44 19 46 7 46C4.243 46 2 43.756 2 41L2 7C2 4.243 4.243 2 7 2L41 2C43.757 2 46 4.243 46 7" id="Fill-1" fill="#8C4FFF"/></g></svg>