<svg width="80" height="80" viewBox="0 0 80 80" xmlns="http://www.w3.org/2000/svg" xmlns:xlink="http://www.w3.org/1999/xlink" overflow="hidden"><g id="Icon-Architecture/64/Arch_AWS-DeepComposer_64" stroke="none" stroke-width="1" fill="none" fill-rule="evenodd"><g id="Icon-Architecture-BG/64/Machine-Learning" fill="#01A88D"><rect x="0" y="0" width="80" height="80" id="Rectangle"/></g><path d="M50.592 31.523C50.011 32.103 49.063 32.107 48.478 31.529L44.703 27.801C44.415 27.518 43.988 27.436 43.614 27.589 43.242 27.745 43 28.109 43 28.512L43 50C43 53.859 39.86 57 36 57 32.141 57 29 53.859 29 50 29 46.14 32.141 43 36 43 36.901 43 37.783 43.172 38.624 43.513 38.933 43.639 39.284 43.602 39.559 43.416 39.835 43.23 40 42.919 40 42.586L40 22.5C40 21.788 40.501 21.179 41.206 21.034 41.228 21.032 41.25 21.029 41.267 21.026 41.334 21.016 41.401 21.003 41.47 21 41.488 21.001 41.504 21.002 41.52 21.002L41.53 21.002C41.931 21.002 42.306 21.156 42.588 21.436L50.594 29.393C50.879 29.676 51.036 30.053 51.037 30.455 51.037 30.856 50.882 31.234 50.592 31.523L50.592 31.523ZM43.997 20.016C43.344 19.368 42.479 19.008 41.562 19.002 41.331 18.984 41.14 19.021 41.031 19.043 40.991 19.045 40.927 19.052 40.888 19.059 39.215 19.356 38 20.802 38 22.5L38 32 38 33.708 38 35.865 38 37 38 41.226C37.346 41.075 36.677 41 36 41 31.037 41 27 45.037 27 50 27 54.962 31.037 59 36 59 40.963 59 45 54.962 45 50L45 42 45 39.581 45 37.315 45 37 45 30.906 47.072 32.953C48.437 34.3 50.652 34.292 52.012 32.932 52.674 32.269 53.038 31.388 53.037 30.452 53.035 29.514 52.668 28.635 52.004 27.974L43.997 20.016ZM66 35.531C60.996 39.822 54.076 40.998 48 38.735L48 40.848C50.044 41.527 52.162 41.872 54.276 41.872 58.426 41.872 62.541 40.576 66 38.077L66 64C66 65.103 65.103 66 64 66L16 66C14.898 66 14 65.103 14 64L14 45.281 15.421 42.957C19.563 36.176 27.54 33.044 35 34.856L35 32.817C27.013 31.082 18.586 34.397 14 41.491L14 16C14 14.897 14.898 14 16 14L64 14C65.103 14 66 14.897 66 16L66 35.531ZM64 12 16 12C13.794 12 12 13.794 12 16L12 64C12 66.205 13.794 68 16 68L64 68C66.206 68 68 66.205 68 64L68 16C68 13.794 66.206 12 64 12L64 12Z" id="AWS-DeepComposer_Icon_64_Squid" fill="#FFFFFF"/></g></svg>