<svg width="80" height="80" viewBox="0 0 80 80" xmlns="http://www.w3.org/2000/svg" xmlns:xlink="http://www.w3.org/1999/xlink" overflow="hidden"><g id="Icon-Architecture/64/Arch_AWS-Amplify_64" stroke="none" stroke-width="1" fill="none" fill-rule="evenodd"><g id="Icon-Architecture-BG/64/Mobile" fill="#DD344C"><rect x="0" y="0" width="80" height="80" id="Rectangle"/></g><path d="M59.6107 59.179 39.5067 20 45.2577 20 65.3627 59.179 59.6107 59.179ZM67.8887 59.722 46.7587 18.544C46.5887 18.21 46.2447 18 45.8697 18L37.8697 18C37.5207 18 37.1977 18.181 37.0157 18.479 36.8347 18.776 36.8207 19.147 36.9797 19.457L58.1097 60.636C58.2807 60.969 58.6247 61.179 58.9997 61.179L66.9997 61.179C67.3477 61.179 67.6717 60.998 67.8527 60.7 68.0347 60.403 68.0487 60.033 67.8887 59.722L67.8887 59.722ZM47.5987 59.179 32.2147 30.332 35.3657 25.121 53.3407 59.179 47.5987 59.179ZM36.3097 22.624C36.1407 22.305 35.8147 22.101 35.4547 22.091 35.1087 22.07 34.7567 22.265 34.5697 22.573L30.2097 29.784C30.0267 30.086 30.0167 30.461 30.1817 30.772L46.1167 60.65C46.2907 60.975 46.6307 61.179 46.9997 61.179L54.9997 61.179C55.3497 61.179 55.6747 60.995 55.8557 60.695 56.0367 60.395 56.0477 60.022 55.8837 59.712L36.3097 22.624ZM14.7727 59.179 28.8847 35.84 31.7597 41.229 25.1337 52.678C24.9547 52.988 24.9547 53.369 25.1327 53.679 25.3117 53.988 25.6417 54.179 25.9997 54.179L38.6667 54.179 41.3327 59.179 14.7727 59.179ZM40.1487 52.708C39.9747 52.383 39.6347 52.179 39.2657 52.179L27.7337 52.179 33.7687 41.75C33.9427 41.451 33.9487 41.084 33.7867 40.779L29.8227 33.346C29.6527 33.029 29.3267 32.827 28.9667 32.817 28.5827 32.8 28.2697 32.992 28.0847 33.299L12.1437 59.661C11.9577 59.971 11.9517 60.356 12.1287 60.67 12.3057 60.985 12.6377 61.179 12.9997 61.179L42.9997 61.179C43.3507 61.179 43.6757 60.995 43.8567 60.694 44.0377 60.392 44.0477 60.018 43.8817 59.708L40.1487 52.708Z" id="AWS-Amplify_Icon_64_Squid" fill="#FFFFFF"/></g></svg>