<svg width="90" height="90" viewBox="0 0 90 90" xmlns="http://www.w3.org/2000/svg" xmlns:xlink="http://www.w3.org/1999/xlink" overflow="hidden"><g id="Icon-Architecture-Category/64/Cloud-Financial-Management_64" stroke="none" stroke-width="1" fill="none" fill-rule="evenodd"><rect x="5" y="5" width="80" height="80" id="Rectangle" fill="#7AA116"/><rect x="1" y="1" width="88" height="88" id="#879196-Border-Copy-2" stroke="#879196" stroke-width="2"/><g id="Icon-Category/64/Cloud-Financial-Management_64" fill="#FFFFFF" transform="translate(22 17)"><path d="M19 51 26 51 26 49 19 49 19 51ZM7 51 14 51 14 49 7 49 7 51ZM19 45 26 45 26 43 19 43 19 45ZM7 45 14 45 14 43 7 43 7 45ZM19 37 26 37 26 35 19 35 19 37ZM7 37 14 37 14 35 7 35 7 37ZM33 49 37 49 37 37 33 37 33 49ZM38 35 32 35C31.447 35 31 35.448 31 36L31 50C31 50.552 31.447 51 32 51L38 51C38.553 51 39 50.552 39 50L39 36C39 35.448 38.553 35 38 35L38 35ZM8 30 37 30 37 23 8 23 8 30ZM7 21C6.447 21 6 21.448 6 22L6 31C6 31.552 6.447 32 7 32L38 32C38.553 32 39 31.552 39 31L39 22C39 21.448 38.553 21 38 21L7 21ZM44 54 2 54 2 15 13 15 13 17C13 17.552 13.447 18 14 18L32 18C32.553 18 33 17.552 33 17L33 15 44 15 44 54ZM13.88 2 26 2C28.458 2 31 3.496 31 6L31 13 31 15 31 16 15 16 15 15 15 13 15 6C15 4.559 14.641 3.112 13.88 2L13.88 2ZM7.5 8 7.5 5.959C7.5 2.47 8.764 2 10 2 12.783 2 13 5.062 13 6L13 8 7.5 8ZM45 13 33 13 33 6C33 2.244 29.44 0 26 0L10 0C7.947 0 5.5 1.034 5.5 5.959L5.5 9C5.5 9.552 5.947 10 6.5 10L13 10 13 13 1 13C0.447 13 0 13.448 0 14L0 55C0 55.552 0.447 56 1 56L45 56C45.553 56 46 55.552 46 55L46 14C46 13.448 45.553 13 45 13L45 13Z" id="Fill-3"/></g></g></svg>