<svg width="80" height="80" viewBox="0 0 80 80" xmlns="http://www.w3.org/2000/svg" xmlns:xlink="http://www.w3.org/1999/xlink" overflow="hidden"><g id="Icon-Architecture/64/Arch_AWS-Application-Migration-Service_64" stroke="none" stroke-width="1" fill="none" fill-rule="evenodd"><g id="Icon-Architecture-BG/64/Migration-Transfer" fill="#01A88D"><rect x="0" y="0" width="80" height="80" id="Rectangle"/></g><path d="M59.692 34.9897C59.254 31.2087 57.269 28.4697 54.301 27.6017 52.128 26.9677 49.848 27.4997 48.129 28.9597 47.221 26.9067 46.032 25.1357 44.578 23.6767 39.926 19.0107 33.561 17.7457 27.554 20.2907 22.427 22.4617 18.562 28.4557 18.562 34.2337 18.562 34.5787 18.573 34.9237 18.595 35.2667 15.8 36.1827 11 38.7897 11 45.8697 11 46.2467 11.014 46.6117 11.042 46.9667 11.473 52.4737 14.106 56.0997 18.265 56.9147L18.65 54.9517C14.253 54.0907 13.245 49.4817 13.036 46.8117 13.012 46.5077 13 46.1937 13 45.8697 13 39.7047 17.271 37.6537 19.86 36.9777 20.322 36.8867 20.667 36.4787 20.667 35.9947 20.667 35.9457 20.663 35.8967 20.656 35.8487 20.593 35.3197 20.562 34.7767 20.562 34.2337 20.562 29.2937 23.976 23.9777 28.334 22.1327 35.871 18.9397 41.213 23.1357 43.162 25.0897 44.746 26.6787 45.982 28.7087 46.837 31.1247 46.96 31.4727 47.265 31.7257 47.631 31.7807 47.992 31.8347 48.363 31.6817 48.584 31.3857 49.827 29.7007 51.853 28.9707 53.74 29.5217 56.011 30.1857 57.504 32.4787 57.749 35.6657L57.748 35.6707C57.669 36.2077 58.033 36.7097 58.568 36.8017 61.043 37.2267 66.799 38.9697 66.799 45.9557 66.799 54.2817 58.744 55.0707 58.485 55.0957L45.126 55.0957 45.124 57.0857 58.565 57.0927C58.668 57.0847 68.799 56.1427 68.799 45.9557 68.799 38.0337 62.588 35.6627 59.692 34.9897L59.692 34.9897ZM35.125 51.0957 37.125 51.0957 37.125 42.0957 28.125 42.0957 28.125 44.0957 33.816 44.0957 20.395 58.4117 21.854 59.7807 35.125 45.6247 35.125 51.0957ZM52.125 41.5167 33.85 60.7837 32.399 59.4077 50.716 40.0957 41.125 40.0957 41.125 38.0957 54.125 38.0957 54.125 51.0957 52.125 51.0957 52.125 41.5167Z" id="AWS-Application-Migration-Service_Icon_64_Squid" fill="#FFFFFF"/></g></svg>