<svg width="80" height="80" viewBox="0 0 80 80" xmlns="http://www.w3.org/2000/svg" xmlns:xlink="http://www.w3.org/1999/xlink" overflow="hidden"><g id="Icon-Architecture/64/Arch_AWS-CodeCommit_64" stroke="none" stroke-width="1" fill="none" fill-rule="evenodd"><g id="Icon-Architecture-BG/64/Developer-Tools" fill="#C925D1"><rect x="0" y="0" width="80" height="80" id="Rectangle"/></g><path d="M26.6283 28.1047 24.6106 28.1047 24.6106 21.1231C24.6106 20.5645 24.9708 20.1327 25.5367 20.1327L32.6814 20.1257 32.6814 22.1204 27.9499 22.1204 32.8116 26.9388 31.3669 28.373 26.5607 23.6454 26.6283 28.1047ZM54.6985 38.9722 56.5669 39.799 50.0256 54.2451 48.1582 53.4183 54.6985 38.9722ZM56.009 49.4647 60.0122 46.5752 56.4862 43.0395 57.944 41.6183 62.3033 45.9908C62.5121 46.2002 62.619 46.4895 62.5938 46.7827 62.5706 47.0759 62.4183 47.3452 62.1772 47.5178L57.2146 51.0984 56.009 49.4647ZM46.9657 40.6628 48.1713 42.2965 44.1097 45.2278 47.6477 48.7645 46.1939 50.1878 41.8196 45.8152C41.6097 45.6058 41.5018 45.3165 41.527 45.0233 41.5502 44.7291 41.7015 44.4608 41.9437 44.2872L46.9657 40.6628ZM69 24.1302 69 66.9877C69 67.5472 68.542 68 67.976 68L36.7168 68C36.4444 68 36.1852 67.8933 35.9935 67.7028 35.8018 67.5133 35.708 67.2709 35.708 67.0026L35.708 55.034 37.7257 55.034 37.7257 66.0052 66.9823 66.0052 66.9823 25.1126 37.7257 25.1126 37.7257 23.1178 67.976 23.1178C68.542 23.1178 69 23.5706 69 24.1302L69 24.1302ZM33.1818 34.5877C33.1818 32.6608 34.7667 31.0929 36.7168 31.0929 38.6669 31.0929 40.2518 32.6608 40.2518 34.5877 40.2518 36.5146 38.6669 38.0825 36.7168 38.0825 34.7667 38.0825 33.1818 36.5146 33.1818 34.5877L33.1818 34.5877ZM17.5487 66.0092C15.5986 66.0092 14.0137 64.4413 14.0137 62.5144 14.0137 60.5875 15.5986 59.0196 17.5487 59.0196 19.4988 59.0196 21.0837 60.5875 21.0837 62.5144 21.0837 64.4413 19.4988 66.0092 17.5487 66.0092L17.5487 66.0092ZM14.0137 42.5668C14.0137 40.6398 15.5986 39.0719 17.5487 39.0719 19.5311 39.0719 21.0837 40.6069 21.0837 42.5668 21.0837 44.4937 19.4988 46.0616 17.5487 46.0616 15.5986 46.0616 14.0137 44.4937 14.0137 42.5668L14.0137 42.5668ZM14.0177 17.4856C14.0177 15.5607 15.6016 13.9948 17.5487 13.9948 19.4958 13.9948 21.0796 15.5607 21.0796 17.4856 21.0796 19.4095 19.4958 20.9764 17.5487 20.9764 15.6016 20.9764 14.0177 19.4095 14.0177 17.4856L14.0177 17.4856ZM37.7257 47.2485 37.7257 39.9716C40.2952 39.4948 42.2615 37.2637 42.2615 34.5877 42.2615 31.5656 39.7736 29.1061 36.7168 29.1061 33.66 29.1061 31.1722 31.5656 31.1722 34.5877 31.1722 37.2637 33.1384 39.4948 35.708 39.9716L35.708 47.2485C35.708 48.4114 34.9221 49.4657 33.7276 49.9344L23.2769 54.0347C21.6042 54.6909 20.3745 55.9815 19.8428 57.5305 19.41 57.335 19.0418 57.1944 18.5575 57.1136L18.5575 47.9676C21.1805 47.5347 23.0933 45.2806 23.0933 42.5668 23.0933 39.803 21.2148 37.5948 18.5575 37.1739L18.5575 22.8894C21.1836 22.4575 23.0973 20.2015 23.0973 17.4856 23.0973 14.4605 20.6085 12 17.5487 12 14.4888 12 12 14.4605 12 17.4856 12 20.1257 14.0217 22.3359 16.5398 22.8545L16.5398 37.2018C14.0248 37.7205 12.004 39.9287 12.004 42.5668 12.004 45.2048 14.0248 47.413 16.5398 47.9317L16.5398 57.1495C14.0248 57.6681 12.004 59.8763 12.004 62.5144 12.004 65.5365 14.4919 67.996 17.5487 67.996 20.6055 67.996 23.0933 65.5365 23.0933 62.5144 23.0933 61.0911 22.5364 59.7965 21.6345 58.8211 21.802 57.5504 22.7009 56.4374 24.0315 55.9157L34.4822 51.8155C36.4616 51.0385 37.7257 49.2462 37.7257 47.2485L37.7257 47.2485Z" id="AWS-CodeCommit_Icon_64_Squid" fill="#FFFFFF"/></g></svg>