<svg width="48" height="48" viewBox="0 0 48 48" xmlns="http://www.w3.org/2000/svg" xmlns:xlink="http://www.w3.org/1999/xlink" overflow="hidden"><g id="Icon-Resource/Networking-and-Content-Delivery/Res_Elastic-Load-Balancing_Gateway-Load-Balancer_48" stroke="none" stroke-width="1" fill="none" fill-rule="evenodd"><path d="M17.955 29.333 19.369 30.747 16.796 33.32C16.608 33.507 16.354 33.613 16.089 33.613 15.823 33.613 15.569 33.507 15.382 33.32L12.809 30.747 14.224 29.333 15 30.109 15 17.72 14.14 18.58 12.726 17.166 15.299 14.593C15.486 14.406 15.74 14.3 16.006 14.3 16.271 14.3 16.525 14.406 16.713 14.593L19.285 17.166 17.871 18.58 17 17.708 17 30.288 17.955 29.333ZM13.87 24.705 11.297 27.278 9.883 25.864 10.747 25 5.36 25 5.36 23 10.75 23 9.883 22.133 11.297 20.719 13.87 23.291C14.058 23.479 14.163 23.733 14.163 23.998 14.163 24.263 14.058 24.518 13.87 24.705L13.87 24.705ZM21.922 25.864 20.508 27.278 17.934 24.705C17.747 24.518 17.642 24.263 17.642 23.998 17.642 23.733 17.747 23.479 17.934 23.291L20.508 20.719 21.922 22.133 21.055 23 26.36 23 26.36 25 21.058 25 21.922 25.864ZM24 44C12.972 44 4 35.028 4 24 4 12.972 12.972 4 24 4 35.028 4 44 12.972 44 24 44 35.028 35.028 44 24 44L24 44ZM24 2C11.869 2 2 11.869 2 24 2 36.131 11.869 46 24 46 36.131 46 46 36.131 46 24 46 11.869 36.131 2 24 2L24 2ZM35 34.36 37 34.36 37 32.36 35 32.36 35 34.36ZM38 30.36 34 30.36C33.447 30.36 33 30.808 33 31.36L33 32.36 23 32.36 23 29.36 21 29.36 21 33.36C21 33.912 21.447 34.36 22 34.36L33 34.36 33 35.36C33 35.912 33.447 36.36 34 36.36L38 36.36C38.553 36.36 39 35.912 39 35.36L39 31.36C39 30.808 38.553 30.36 38 30.36L38 30.36ZM35 25 37 25 37 23 35 23 35 25ZM38 21 34 21C33.447 21 33 21.447 33 22L33 23 29 23 29 25 33 25 33 26C33 26.552 33.447 27 34 27L38 27C38.553 27 39 26.552 39 26L39 22C39 21.447 38.553 21 38 21L38 21ZM35 15.36 37 15.36 37 13.36 35 13.36 35 15.36ZM38 11.36 34 11.36C33.447 11.36 33 11.808 33 12.36L33 13.36 22 13.36C21.447 13.36 21 13.808 21 14.36L21 18.36 23 18.36 23 15.36 33 15.36 33 16.36C33 16.912 33.447 17.36 34 17.36L38 17.36C38.553 17.36 39 16.912 39 16.36L39 12.36C39 11.808 38.553 11.36 38 11.36L38 11.36Z" id="Gateway-Load-Balancer_Resource-Icon_light-bg" fill="#8C4FFF"/></g></svg>