<svg width="48" height="48" viewBox="0 0 48 48" xmlns="http://www.w3.org/2000/svg" xmlns:xlink="http://www.w3.org/1999/xlink" overflow="hidden"><g id="Icon-Resource/Security-Identity-and-Compliance/Res_AWS-Security-Hub_Finding_48" stroke="none" stroke-width="1" fill="none" fill-rule="evenodd"><path d="M20.3008 37.6528 20.3008 9.8528 11.4338 13.0198 11.4338 29.3918C11.4338 30.7008 13.0198 37.1028 20.3008 37.6528L20.3008 37.6528ZM31.1668 24.7308 31.1668 13.0198 22.3008 9.8528 22.3008 37.7048 23.6148 37.7028 23.6148 39.7028 21.3008 39.7068C12.2458 39.7068 9.4338 32.1458 9.4338 29.3918L9.4338 12.3148C9.4338 11.8918 9.6988 11.5148 10.0978 11.3738L20.9648 7.4928C21.1818 7.4148 21.4198 7.4148 21.6368 7.4928L32.5028 11.3738C32.9018 11.5148 33.1668 11.8918 33.1668 12.3148L33.1668 24.7308 31.1668 24.7308ZM21.3008 43.1398C6.1738 43.1398 5.9998 28.4648 5.9998 27.8398L5.9998 9.8998 21.3008 4.0708 36.6008 9.8998 36.6008 23.1778 38.6008 23.1778 38.6008 9.2108C38.6008 8.7958 38.3448 8.4238 37.9568 8.2758L21.6568 2.0658C21.4268 1.9778 21.1748 1.9778 20.9448 2.0658L4.6438 8.2758C4.2558 8.4238 3.9998 8.7958 3.9998 9.2108L3.9998 27.8398C3.9998 33.8238 7.6158 45.1398 21.3008 45.1398 22.6788 45.1398 24.0008 45.0358 25.2308 44.8298L24.9008 42.8568C23.7798 43.0448 22.5688 43.1398 21.3008 43.1398L21.3008 43.1398ZM42.8538 35.6318C42.8538 31.0288 39.1088 27.2838 34.5058 27.2838 29.9028 27.2838 26.1568 31.0288 26.1568 35.6318 26.1568 40.1978 29.8918 43.9128 34.4818 43.9128 39.0978 43.9128 42.8538 40.1978 42.8538 35.6318L42.8538 35.6318ZM44.8538 35.6318C44.8538 41.2998 40.1998 45.9128 34.4818 45.9128 28.7888 45.9128 24.1568 41.2998 24.1568 35.6318 24.1568 29.9248 28.7998 25.2838 34.5058 25.2838 40.2118 25.2838 44.8538 29.9248 44.8538 35.6318L44.8538 35.6318ZM33.4818 41.8068 35.4818 41.8068 35.4818 40.2548 33.4818 40.2548 33.4818 41.8068ZM33.5058 38.6248 35.5058 38.6248 35.5058 30.1648 33.5058 30.1648 33.5058 38.6248Z" id="AWS-Security-Hub_Finding_Resource-Icon_light-bg" fill="#DD344C"/></g></svg>