<svg width="80" height="80" viewBox="0 0 80 80" xmlns="http://www.w3.org/2000/svg" xmlns:xlink="http://www.w3.org/1999/xlink" overflow="hidden"><g id="Icon-Architecture/64/Arch_Amazon-FSx-for-OpenZFS_64" stroke="none" stroke-width="1" fill="none" fill-rule="evenodd"><g id="Icon-Architecture-BG/64/Storage" fill="#7AA116"><rect x="0" y="0" width="80" height="80" id="Rectangle"/></g><path d="M55 45.006 55 43.006 45 43.006 45 45.006 52.287 45.006 45.016 53.006 45 53.006 45 55.006 55 55.006 55 53.006 47.707 53.006 55 45.006ZM12 44.278 13.953 44.278 13.953 35.678 21.403 35.678 21.403 33.886 13.953 33.886 13.953 27.186 22.766 27.186 22.766 25.393 12 25.393 12 44.278ZM35.998 44.377 38.614 44.377 42.257 39.056 42.333 38.949 41.136 37.259 35.998 44.377ZM31.858 34.514 29 33.418C28.075 33.069 27.354 32.737 26.854 32.432 26.377 32.139 26.032 31.811 25.824 31.457 25.619 31.103 25.516 30.627 25.516 30.042 25.516 28.988 25.851 28.201 26.544 27.637 27.234 27.072 28.254 26.786 29.575 26.786 30.953 26.786 32.558 27.105 34.344 27.736L34.596 27.824 34.596 26.074 34.483 26.024C33.708 25.682 32.876 25.413 32.005 25.225 31.134 25.036 30.29 24.94 29.494 24.94 27.73 24.94 26.282 25.418 25.193 26.361 24.094 27.312 23.536 28.568 23.536 30.095 23.536 31.223 23.877 32.186 24.545 32.956 25.203 33.715 26.243 34.374 27.637 34.917L30.735 36.119C31.775 36.518 32.531 36.969 32.988 37.461 33.434 37.938 33.659 38.524 33.659 39.202 33.659 40.344 33.25 41.222 32.408 41.885 31.567 42.549 30.417 42.885 28.988 42.885 27.449 42.885 25.736 42.549 23.896 41.883L23.644 41.792 23.644 43.539 23.752 43.59C25.32 44.347 27.126 44.731 29.12 44.731 31.06 44.731 32.653 44.221 33.847 43.218 35.053 42.205 35.665 40.863 35.665 39.229 35.665 38.104 35.354 37.151 34.743 36.399 34.136 35.656 33.167 35.023 31.858 34.514L31.858 34.514ZM42.47 33.524 39.179 28.825 36.478 28.825 41.102 35.343 42.47 33.524ZM45.102 41.006 47.812 41.006 44.412 36.171 49.683 28.825 47.096 28.825 42.986 34.695 41.824 36.307 45.102 41.006ZM58 45.006 64 45.006 64 43.006 58 43.006 58 45.006ZM58 55.006 64 55.006 64 53.006 58 53.006 58 55.006ZM58 50.006 68 50.006 68 48.006 58 48.006 58 50.006Z" id="Fill-1" fill="#FFFFFF"/></g></svg>