<svg width="48" height="48" viewBox="0 0 48 48" xmlns="http://www.w3.org/2000/svg" xmlns:xlink="http://www.w3.org/1999/xlink" overflow="hidden"><g id="Icon-Resource/Management-Governance/Res_AWS-Systems-Manager_Session-Manager_48" stroke="none" stroke-width="1" fill="none" fill-rule="evenodd"><path d="M4 41 25 41 25 39 4 39 4 41ZM14 44 15 44 15 43 14 43 14 44ZM25 37 4 37 4 25 10 25 10 23 3 23C2.447 23 2 23.448 2 24L2 42C2 42.552 2.447 43 3 43L12 43 12 44 8 44 8 46 21 46 21 44 17 44 17 43 26 43C26.553 43 27 42.552 27 42L27 36 25 36 25 37ZM27 7 29 7 29 5 27 5 27 7ZM27 13 29 13 29 11 27 11 27 13ZM26 8 44 8 44 4 26 4 26 8ZM45 2 25 2C24.447 2 24 2.448 24 3L24 12 26 12 26 10 44 10 44 14 29 14 29 16 44 16 44 20 37 20 37 22 45 22C45.553 22 46 21.552 46 21L46 20 46 14.336 46 14 46 8.075 46 3C46 2.448 45.553 2 45 2L45 2ZM34.481 32 16.955 31.981C15.012 31.979 13.144 30.387 12.958 28.571 12.94 28.401 12.932 28.224 12.932 28.039 12.932 25.421 14.727 24.532 15.841 24.233 15.874 24.227 15.907 24.218 15.939 24.208 16.405 24.068 16.703 23.613 16.644 23.13 16.614 22.889 16.6 22.644 16.6 22.395 16.6 20.226 18.15 17.806 20.056 16.999 23.427 15.572 25.812 17.45 26.684 18.322 27.397 19.039 27.956 19.959 28.346 21.058 28.469 21.407 28.774 21.659 29.141 21.714 29.511 21.769 29.873 21.616 30.093 21.319 30.566 20.677 31.328 20.397 32.035 20.603 32.911 20.859 33.494 21.78 33.607 23.077 33.562 23.59 33.919 24.059 34.435 24.147 35.506 24.332 38 25.084 38 28.081 38 31.574 34.764 31.97 34.481 32L34.481 32ZM35.528 22.346C35.211 20.483 34.146 19.136 32.596 18.683 31.586 18.389 30.536 18.541 29.657 19.062 29.232 18.245 28.712 17.524 28.1 16.91 25.69 14.494 22.392 13.838 19.276 15.157 16.61 16.286 14.6 19.397 14.6 22.395 14.6 22.442 14.6 22.489 14.601 22.536 12.287 23.433 10.932 25.437 10.932 28.039 10.932 28.297 10.944 28.543 10.969 28.777 11.257 31.595 13.997 33.979 16.953 33.981L34.562 33.997C36.442 33.844 40 32.411 40 28.081 40 24.756 37.81 22.983 35.528 22.346L35.528 22.346Z" id="Fill-1" fill="#E7157B"/></g></svg>