<svg width="80" height="80" viewBox="0 0 80 80" xmlns="http://www.w3.org/2000/svg" xmlns:xlink="http://www.w3.org/1999/xlink" overflow="hidden"><g id="Icon-Architecture/64/Arch_AWS-Local-Zones_64" stroke="none" stroke-width="1" fill="none" fill-rule="evenodd"><g id="Icon-Architecture-BG/64/Compute" fill="#ED7100"><rect x="0" y="0" width="80" height="80" id="Rectangle"/></g><path d="M42.6625 33.4489C42.6625 32.2395 41.6944 31.2553 40.5049 31.2553 39.3153 31.2553 38.3482 32.2395 38.3482 33.4489 38.3482 34.6583 39.3153 35.6424 40.5049 35.6424 41.6944 35.6424 42.6625 34.6583 42.6625 33.4489L42.6625 33.4489ZM42.4558 29.7645 56.7594 13.5853 58.2308 14.9294 43.9342 31.1015C44.3791 31.7731 44.6402 32.5803 44.6402 33.4489 44.6402 35.7671 42.7851 37.653 40.5049 37.653 38.2256 37.653 36.3705 35.7671 36.3705 33.4489 36.3705 31.1307 38.2256 29.2448 40.5049 29.2448 41.2139 29.2448 41.8714 29.4448 42.4558 29.7645L42.4558 29.7645ZM44.5878 40.2085 44.7064 40.4799C45.369 40.0667 45.9731 39.5641 46.4863 38.982 45.9336 39.4847 45.2898 39.8968 44.5878 40.2085L44.5878 40.2085ZM40.5039 18.3735C32.3272 18.3735 25.6713 25.1392 25.6713 33.4529 25.6713 38.5698 28.183 43.2847 32.4063 46.0794L33.4841 44.3905C29.8254 41.9778 27.649 37.8862 27.649 33.4529 27.649 26.244 33.4139 20.3841 40.5039 20.3841 41.9782 20.3841 43.412 20.6254 44.7766 21.118L46.1897 19.5196C44.39 18.7656 42.4727 18.3735 40.5039 18.3735L40.5039 18.3735ZM53.5367 26.255 52.1227 27.8534C52.9345 29.6026 53.3588 31.5127 53.3588 33.4529 53.3588 37.8762 51.1833 41.9677 47.5246 44.3905L48.6133 46.0794C52.8248 43.2746 55.3364 38.5588 55.3364 33.4529 55.3364 30.9397 54.7144 28.4667 53.5367 26.255L53.5367 26.255ZM36.421 40.2034C33.7699 39.0333 32.0553 36.3773 32.0553 33.4368 32.0553 32.2496 32.3252 31.1176 32.8562 30.0711L31.0991 29.1493C30.4316 30.4642 30.0776 31.947 30.0776 33.4368 30.0776 37.1775 32.259 40.5583 35.6339 42.0481L36.421 40.2034ZM50.2637 29.9545 48.7409 31.6735C48.8902 32.2365 48.9584 32.8296 48.9584 33.4328 48.9584 35.5942 48.0388 37.5947 46.4972 38.972 46.4972 38.972 46.4863 38.972 46.4863 38.982 45.9336 39.4847 45.2898 39.8968 44.5878 40.2085L44.7064 40.4799 45.3788 42.0481C48.7508 40.5603 50.9361 37.1825 50.9361 33.4328 50.9361 32.2365 50.7097 31.0503 50.2637 29.9545L50.2637 29.9545ZM60.9738 33.1513C60.3696 46.0593 42.0366 67.7333 41.2554 68.6481 41.0685 68.8693 40.7906 69 40.5039 69 40.2171 69 39.9402 68.8693 39.7533 68.6481 38.9811 67.7333 20.6391 46.0593 20.0251 33.1513 19.4822 21.5 27.8082 12.6032 39.8325 12L41.1268 12C44.6273 12.181 47.8124 13.0254 50.6207 14.5132L49.2353 16.0815C46.7939 14.855 44.0637 14.1614 41.0873 14.0106L39.872 14.0106C29.0532 14.5534 21.5083 22.5656 22.0027 33.0508 22.5179 43.8577 37.0143 62.1741 40.5039 66.4365 43.9955 62.1741 58.4918 43.8577 59.005 33.0508 59.1731 29.3714 58.3237 25.8429 56.5537 22.837L58.0073 21.3995C60.1521 24.8376 61.1814 28.909 60.9738 33.1513L60.9738 33.1513Z" id="AWS-Local-Zones_Icon_64_Squid" fill="#FFFFFF"/></g></svg>