<svg width="48" height="48" viewBox="0 0 48 48" xmlns="http://www.w3.org/2000/svg" xmlns:xlink="http://www.w3.org/1999/xlink" overflow="hidden"><g id="Icon-Resource/IoT/Res_AWS-IoT-SiteWise_Asset-Hierarchy_48" stroke="none" stroke-width="1" fill="none" fill-rule="evenodd"><path d="M22 8 26 8 26 4 22 4 22 8ZM21 10 27 10C27.552 10 28 9.552 28 9L28 3C28 2.448 27.552 2 27 2L21 2C20.448 2 20 2.448 20 3L20 9C20 9.552 20.448 10 21 10L21 10ZM14 25 18 25 18 21 14 21 14 25ZM30 25 34 25 34 21 30 21 30 25ZM7 32 23 32 23 36 25 36 25 32 41 32 41 36 43 36 43 31C43 30.448 42.552 30 42 30L33 30 33 27 35 27C35.552 27 36 26.552 36 26L36 20C36 19.448 35.552 19 35 19L29 19C28.448 19 28 19.448 28 20L28 26C28 26.552 28.448 27 29 27L31 27 31 30 17 30 17 27 19 27C19.552 27 20 26.552 20 26L20 20C20 19.448 19.552 19 19 19L13 19C12.448 19 12 19.448 12 20L12 26C12 26.552 12.448 27 13 27L15 27 15 30 6 30C5.448 30 5 30.448 5 31L5 36 7 36 7 32ZM17 17 15 17 15 14C15 13.448 15.448 13 16 13L23 13 23 11 25 11 25 13 32 13C32.552 13 33 13.448 33 14L33 17 31 17 31 15 17 15 17 17ZM40 44 44 44 44 40 40 40 40 44ZM45 38 39 38C38.448 38 38 38.448 38 39L38 45C38 45.552 38.448 46 39 46L45 46C45.552 46 46 45.552 46 45L46 39C46 38.448 45.552 38 45 38L45 38ZM22 44 26 44 26 40 22 40 22 44ZM27 38 21 38C20.448 38 20 38.448 20 39L20 45C20 45.552 20.448 46 21 46L27 46C27.552 46 28 45.552 28 45L28 39C28 38.448 27.552 38 27 38L27 38ZM4 44 8 44 8 40 4 40 4 44ZM9 38 3 38C2.448 38 2 38.448 2 39L2 45C2 45.552 2.448 46 3 46L9 46C9.552 46 10 45.552 10 45L10 39C10 38.448 9.552 38 9 38L9 38Z" id="Fill-1" fill="#7AA116"/></g></svg>