<svg width="48" height="48" viewBox="0 0 48 48" xmlns="http://www.w3.org/2000/svg" xmlns:xlink="http://www.w3.org/1999/xlink" overflow="hidden"><g id="Icon-Resource/Analytics/Res_Amazon-DataZone_Data-Portal_48" stroke="none" stroke-width="1" fill="none" fill-rule="evenodd"><path d="M16 34.999 18 34.999 18 32.999 16 32.999 16 34.999ZM15 30.999C14.447 30.999 14 31.447 14 31.999L14 35.999C14 36.551 14.447 36.999 15 36.999L19 36.999C19.553 36.999 20 36.551 20 35.999L20 31.999C20 31.447 19.553 30.999 19 30.999L15 30.999ZM24 26 26 26 26 24 24 24 24 26ZM28 27 28 23C28 22.448 27.553 22 27 22L23 22C22.447 22 22 22.448 22 23L22 27C22 27.552 22.447 28 23 28L27 28C27.553 28 28 27.552 28 27L28 27ZM26 38 30 38 30 34 26 34 26 38ZM25 40 31 40C31.553 40 32 39.552 32 39L32 33C32 32.448 31.553 32 31 32L25 32C24.447 32 24 32.448 24 33L24 39C24 39.552 24.447 40 25 40L25 40ZM36 30 38 30 38 28 36 28 36 30ZM35 26C34.447 26 34 26.448 34 27L34 31C34 31.552 34.447 32 35 32L39 32C39.553 32 40 31.552 40 31L40 27C40 26.448 39.553 26 39 26L35 26ZM20 6 18 6 18 4 20 4 20 2 22 2 22 4 24 4 24 6 22 6 22 8 20 8 20 6ZM39.413 13.389C40.205 13.389 40.982 13.61 41.66 14.03 42.716 14.685 43.456 15.772 43.72 17L35.104 17C35.543 14.937 37.309 13.389 39.413 13.389L39.413 13.389ZM39.413 7C40.56 7 41.492 7.933 41.492 9.08 41.492 10.226 40.56 11.159 39.413 11.159 38.267 11.159 37.334 10.226 37.334 9.08 37.334 7.933 38.267 7 39.413 7L39.413 7ZM33 18C33 18.552 33.447 19 34 19L44.826 19C45.379 19 45.826 18.552 45.826 18 45.826 15.692 44.634 13.52 42.713 12.33 42.543 12.225 42.364 12.141 42.187 12.053 42.985 11.307 43.492 10.255 43.492 9.08 43.492 6.83 41.662 5 39.413 5 37.164 5 35.334 6.83 35.334 9.08 35.334 10.253 35.84 11.305 36.636 12.05 34.489 13.12 33 15.381 33 18L33 18ZM30.413 4C31.56 4 32.492 4.933 32.492 6.08 32.492 7.226 31.56 8.159 30.413 8.159 29.267 8.159 28.334 7.226 28.334 6.08 28.334 4.933 29.267 4 30.413 4L30.413 4ZM24 15C24 15.552 24.447 16 25 16L32 16 32 14 26.104 14C26.543 11.937 28.309 10.389 30.413 10.389 31.205 10.389 31.982 10.61 32.66 11.03L33.713 9.33C33.543 9.225 33.364 9.141 33.187 9.053 33.985 8.307 34.492 7.255 34.492 6.08 34.492 3.83 32.662 2 30.413 2 28.164 2 26.334 3.83 26.334 6.08 26.334 7.253 26.84 8.305 27.636 9.05 25.489 10.12 24 12.381 24 15L24 15ZM4 44 4 18 8 18 8 44.011 4.086 44.012C4.056 44 4.001 43.943 4 44L4 44ZM44 21 44.013 43.915C43.999 43.946 43.947 43.999 44 44L10 44.01 10 18 21.999 18 21.999 16 4 16 4 12 4.001 12 22 12 22 10 4.001 10C2.86 10 2 10.791 2 11.84L2 44C2 45.022 2.969 45.994 4 46L44 46C45.028 46 46 45.028 46 44L46 21 44 21Z" id="Fill-1" fill="#8C4FFF"/></g></svg>