<svg width="80" height="80" viewBox="0 0 80 80" xmlns="http://www.w3.org/2000/svg" xmlns:xlink="http://www.w3.org/1999/xlink" overflow="hidden"><g id="Icon-Architecture/64/Arch_AWS-Billing-Conductor_64" stroke="none" stroke-width="1" fill="none" fill-rule="evenodd"><g id="Icon-Architecture-BG/64/AWS-Cost-Management" fill="#7AA116"><rect x="0" y="0" width="80" height="80" id="Rectangle"/></g><g id="Icon-Service/64/AWS-Billing-Conductor_64" fill="#FFFFFF" transform="translate(13 12)"><path d="M1 39 12 39 12 37 1 37 1 39ZM4 33 12 33 12 31 4 31 4 33ZM0 27 12 27 12 25 0 25 0 27ZM33 42 38 42 38 40 33 40 33 42ZM26 42 31 42 31 40 26 40 26 42ZM19 42 24 42 24 40 19 40 19 42ZM33 37 38 37 38 35 33 35 33 37ZM26 37 31 37 31 35 26 35 26 37ZM19 37 24 37 24 35 19 35 19 37ZM21 28 36 28 36 25 21 25 21 28ZM37 23 20 23C19.447 23 19 23.448 19 24L19 29C19 29.552 19.447 30 20 30L37 30C37.553 30 38 29.552 38 29L38 24C38 23.448 37.553 23 37 23L37 23ZM16 46 41 46 41 20 16 20 16 46ZM42 48C42.553 48 43 47.552 43 47L43 19C43 18.448 42.553 18 42 18L15 18C14.447 18 14 18.448 14 19L14 47C14 47.552 14.447 48 15 48L42 48ZM38 3.273 46.43 11 38 11 38 3.273ZM49.676 11.263 37.676 0.263C37.491 0.094 37.25 0 37 0L8 0C7.447 0 7 0.448 7 1L7 23 9 23 9 2 36 2 36 12C36 12.552 36.447 13 37 13L48 13 48 54 9 54 9 41 7 41 7 55C7 55.552 7.447 56 8 56L49 56C49.553 56 50 55.552 50 55L50 12C50 11.72 49.883 11.452 49.676 11.263L49.676 11.263Z" id="Fill-1"/></g></g></svg>