<svg width="48" height="48" viewBox="0 0 48 48" xmlns="http://www.w3.org/2000/svg" xmlns:xlink="http://www.w3.org/1999/xlink" overflow="hidden"><g id="Icon-Resource/Security-Identity-and-Compliance/Res_AWS-Identity-Access-Management_Add-on_48" stroke="none" stroke-width="1" fill="none" fill-rule="evenodd"><path d="M10.149 26.404C8.975 26.404 8.021 25.45 8.021 24.277 8.021 23.103 8.975 22.149 10.149 22.149 11.323 22.149 12.277 23.103 12.277 24.277 12.277 25.45 11.323 26.404 10.149 26.404L10.149 26.404ZM10.149 20.149C7.873 20.149 6.021 22.001 6.021 24.277 6.021 26.552 7.873 28.404 10.149 28.404 12.425 28.404 14.277 26.552 14.277 24.277 14.277 22.001 12.425 20.149 10.149 20.149L10.149 20.149ZM41.86 26.404 23.062 26.404C22.627 26.404 22.241 26.686 22.109 27.102 20.886 30.961 17.337 33.553 13.277 33.553 8.162 33.553 4 29.392 4 24.277 4 19.162 8.162 15 13.277 15 17.337 15 20.886 17.592 22.109 21.451 22.241 21.867 22.627 22.149 23.062 22.149L26.234 22.149C26.5 22.149 26.753 22.044 26.941 21.856L28.915 19.883 30.889 21.856C31.077 22.044 31.331 22.149 31.596 22.149L33.383 22.149C33.649 22.149 33.903 22.044 34.09 21.856L36.064 19.883 38.038 21.856C38.225 22.044 38.479 22.149 38.745 22.149L41.049 22.149 43.597 24.378 41.86 26.404ZM45.659 23.524 42.084 20.396C41.902 20.237 41.668 20.149 41.425 20.149L39.159 20.149 36.771 17.761C36.38 17.371 35.748 17.371 35.357 17.761L32.969 20.149 32.01 20.149 29.622 17.761C29.231 17.371 28.598 17.371 28.208 17.761L25.82 20.149 23.769 20.149C22.091 15.843 17.964 13 13.277 13 7.058 13 2 18.058 2 24.277 2 30.495 7.058 35.553 13.277 35.553 17.964 35.553 22.091 32.71 23.769 28.404L42.32 28.404C42.612 28.404 42.889 28.276 43.079 28.054L45.759 24.927C46.117 24.511 46.072 23.885 45.659 23.524L45.659 23.524Z" id="Icon-Resource/Security-Identity-and-Compliance/Res_Add-On_48" fill="#DD344C"/></g></svg>