<svg width="80" height="80" viewBox="0 0 80 80" xmlns="http://www.w3.org/2000/svg" xmlns:xlink="http://www.w3.org/1999/xlink" overflow="hidden"><g id="Icon-Architecture/64/Arch_AWS-Systems-Manager_64" stroke="none" stroke-width="1" fill="none" fill-rule="evenodd"><g id="Icon-Architecture-BG/64/Management-Governance" fill="#E7157B"><rect x="0" y="0" width="80" height="80" id="Rectangle"/></g><path d="M47 54.9981 60 54.9981 60 56.9984 47 56.9984 47 58.9987 45 58.9987 45 56.9984 41 56.9984 41 54.9981 45 54.9981 45 53.9979 47 53.9979 47 54.9981ZM51 48.9972 60 48.9972 60 50.9975 51 50.9975 51 52.9978 49 52.9978 49 50.9975 41 50.9975 41 48.9972 49 48.9972 49 47.997 51 47.997 51 48.9972ZM56 42.9963 60 42.9963 60 44.9966 56 44.9966 56 46.9969 54 46.9969 54 44.9966 41 44.9966 41 42.9963 54 42.9963 54 41.9961 56 41.9961 56 42.9963ZM21 46.9969 30 46.9969 30 48.9972 21 48.9972C19.745 48.9972 18.404 48.6201 17.413 47.989 15.393 46.7098 12 43.7154 12 38.0415 12 31.1605 16.665 28.6351 19.38 27.75L19.326 26.8339C19.324 21.166 23.074 15.3541 28.046 13.2568 33.869 10.7815 40.036 12.0076 44.545 16.5373 45.944 17.9385 47.096 19.6478 47.978 21.6311 49.749 20.1559 52.16 19.6508 54.4 20.3859 57.247 21.32 59.019 23.9514 59.227 27.494 62.065 28.1731 68 30.5084 68 38.1315 68 38.4166 67.989 38.6916 67.978 38.9547L65.979 38.9017C65.989 38.6346 66 38.3886 66 38.1315 66 31.3975 60.443 29.7063 58.054 29.2922 57.784 29.2452 57.546 29.0912 57.394 28.8642 57.243 28.6391 57.19 28.3631 57.246 28.098 57.217 25.1166 55.956 23.0013 53.776 22.2862 51.823 21.6431 49.677 22.3522 48.434 24.0444 48.214 24.3415 47.853 24.4965 47.482 24.4405 47.116 24.3875 46.81 24.1355 46.686 23.7864 45.853 21.4431 44.656 19.4798 43.129 17.9505 39.216 14.0189 33.867 12.9548 28.826 15.0991 24.618 16.8734 21.324 22.0021 21.324 26.7748L21.423 28.4291C21.451 28.9072 21.136 29.3382 20.671 29.4562 18.18 30.0903 14 32.0486 14 38.0415 14 42.5212 16.438 45.0046 18.485 46.2998 19.16 46.7308 20.123 46.9969 21 46.9969L21 46.9969ZM66 52.3177 64.236 52.2166C63.763 52.1916 63.312 52.5177 63.204 52.9958 62.866 54.494 62.278 55.9142 61.456 57.2164 61.195 57.6305 61.271 58.1715 61.637 58.4976L62.954 59.6718 59.673 62.9542 58.502 61.6411C58.176 61.274 57.633 61.2 57.222 61.461 55.92 62.2831 54.499 62.8722 52.997 63.2113 52.521 63.3193 52.191 63.7564 52.22 64.2444L52.32 65.9997 47.68 65.9997 47.78 64.2424C47.809 63.7544 47.479 63.3173 47.003 63.2093 45.505 62.8712 44.084 62.2811 42.78 61.458 42.367 61.196 41.825 61.271 41.5 61.6381L40.326 62.9532 37.046 59.6718 38.361 58.4996C38.726 58.1735 38.802 57.6325 38.541 57.2194 37.72 55.9172 37.132 54.497 36.794 52.9958 36.687 52.5177 36.209 52.1916 35.762 52.2166L34 52.3177 34 47.677 35.768 47.778C36.233 47.804 36.691 47.4769 36.8 46.9999 37.139 45.5046 37.728 44.0864 38.55 42.7852 38.811 42.3712 38.734 41.8291 38.37 41.504L37.046 40.3229 40.327 37.0414 41.508 38.3646C41.834 38.7286 42.376 38.8036 42.787 38.5436 44.087 37.7245 45.505 37.1374 47.003 36.7993 47.479 36.6913 47.809 36.2543 47.78 35.7662L47.68 33.9949 52.32 33.9949 52.22 35.7682C52.191 36.2563 52.521 36.6923 52.997 36.8003 54.492 37.1394 55.909 37.7265 57.211 38.5466 57.622 38.8076 58.165 38.7316 58.49 38.3676L59.673 37.0414 62.954 40.3229 61.633 41.501C61.269 41.8271 61.192 42.3682 61.453 42.7822 62.275 44.0834 62.864 45.5026 63.202 46.9999 63.31 47.4759 63.763 47.804 64.234 47.778L66 47.677 66 52.3177ZM66.943 45.6197 64.942 45.7337C64.617 44.5885 64.16 43.4873 63.579 42.4452L65.076 41.11C65.281 40.927 65.402 40.6679 65.41 40.3919 65.418 40.1178 65.312 39.8508 65.117 39.6568L60.339 34.8781C60.145 34.683 59.868 34.571 59.604 34.586 59.328 34.594 59.069 34.714 58.886 34.9191L57.546 36.4213C56.505 35.8412 55.406 35.3861 54.263 35.0601L54.377 33.0518C54.393 32.7767 54.295 32.5077 54.105 32.3077 53.917 32.1076 53.654 31.9946 53.379 31.9946L46.621 31.9946C46.346 31.9946 46.083 32.1076 45.895 32.3077 45.705 32.5077 45.607 32.7767 45.623 33.0518L45.737 35.0581C44.592 35.3831 43.492 35.8392 42.452 36.4183L41.114 34.9191C40.931 34.714 40.672 34.594 40.396 34.586 40.113 34.573 39.855 34.683 39.661 34.8781L34.883 39.6568C34.688 39.8508 34.582 40.1178 34.59 40.3919 34.598 40.6669 34.719 40.927 34.924 41.11L36.424 42.4482C35.843 43.4903 35.386 44.5895 35.06 45.7337L33.057 45.6197C32.789 45.6017 32.513 45.7027 32.313 45.8907 32.113 46.0797 32 46.3428 32 46.6178L32 53.3768C32 53.6519 32.113 53.9149 32.313 54.1039 32.513 54.292 32.79 54.39 33.057 54.375L35.053 54.2609C35.378 55.4091 35.834 56.5113 36.415 57.5544L34.924 58.8836C34.719 59.0667 34.598 59.3267 34.59 59.6017 34.582 59.8768 34.688 60.1438 34.883 60.3379L39.661 65.1166C39.855 65.3116 40.138 65.4186 40.396 65.4096 40.672 65.4016 40.932 65.2806 41.114 65.0756L42.444 63.5833C43.487 64.1664 44.59 64.6245 45.736 64.9505L45.623 66.9428C45.607 67.2169 45.705 67.4859 45.895 67.687 46.083 67.887 46.346 68 46.621 68L53.379 68C53.654 68 53.917 67.887 54.106 67.687 54.295 67.4859 54.393 67.2169 54.377 66.9428L54.264 64.9525C55.412 64.6255 56.515 64.1684 57.558 63.5863L58.886 65.0756C59.068 65.2806 59.328 65.4016 59.604 65.4096 59.871 65.4216 60.145 65.3116 60.339 65.1166L65.117 60.3379C65.312 60.1438 65.418 59.8768 65.41 59.6017 65.402 59.3267 65.281 59.0667 65.075 58.8836L63.582 57.5524C64.163 56.5093 64.619 55.4071 64.945 54.2609L66.943 54.375C67.213 54.39 67.487 54.292 67.687 54.1039 67.887 53.9149 68 53.6519 68 53.3768L68 46.6178C68 46.3428 67.887 46.0797 67.687 45.8907 67.487 45.7027 67.214 45.6027 66.943 45.6197L66.943 45.6197Z" id="AWS-Systems-Manager_Icon_64_Squid" fill="#FFFFFF"/></g></svg>