<svg width="48" height="48" viewBox="0 0 48 48" xmlns="http://www.w3.org/2000/svg" xmlns:xlink="http://www.w3.org/1999/xlink" overflow="hidden"><g id="Icon-Resource/Quantum-Technologies/Res_Amazon-Braket_Managed-Simulator_48" stroke="none" stroke-width="1" fill="none" fill-rule="evenodd"><path d="M24 20.769C25.781 20.769 27.23 22.218 27.23 24 27.23 25.782 25.781 27.231 24 27.231 22.219 27.231 20.77 25.782 20.77 24 20.77 22.218 22.219 20.769 24 20.769L24 20.769ZM24 29.231C26.884 29.231 29.23 26.884 29.23 24 29.23 21.116 26.884 18.769 24 18.769 21.116 18.769 18.77 21.116 18.77 24 18.77 26.884 21.116 29.231 24 29.231L24 29.231ZM14 22.708 15.36 22.708C15.814 22.708 16.211 22.403 16.327 21.964 16.507 21.285 16.778 20.63 17.136 20.015 17.364 19.623 17.3 19.126 16.979 18.806L16.016 17.842 17.842 16.016 18.806 16.979C19.127 17.301 19.622 17.364 20.016 17.136 20.63 16.779 21.285 16.507 21.964 16.327 22.402 16.211 22.708 15.814 22.708 15.36L22.708 14 25.292 14 25.292 15.36C25.292 15.814 25.598 16.211 26.036 16.327 26.715 16.507 27.37 16.779 27.984 17.136 28.377 17.364 28.874 17.301 29.194 16.979L30.158 16.016 31.984 17.842 31.021 18.806C30.7 19.126 30.636 19.623 30.864 20.015 31.222 20.63 31.493 21.285 31.673 21.964 31.789 22.403 32.186 22.708 32.64 22.708L34 22.708 34 25.291 32.64 25.291C32.186 25.291 31.789 25.597 31.673 26.036 31.493 26.715 31.222 27.37 30.864 27.985 30.636 28.377 30.7 28.873 31.021 29.194L31.984 30.158 30.158 31.984 29.194 31.021C28.874 30.699 28.377 30.635 27.984 30.864 27.37 31.221 26.715 31.493 26.036 31.673 25.598 31.789 25.292 32.186 25.292 32.64L25.292 34 22.708 34 22.708 32.64C22.708 32.186 22.402 31.789 21.964 31.673 21.285 31.493 20.63 31.221 20.016 30.864 19.622 30.635 19.127 30.699 18.806 31.021L17.842 31.984 16.016 30.158 16.979 29.194C17.3 28.873 17.364 28.377 17.136 27.985 16.778 27.37 16.507 26.715 16.327 26.036 16.211 25.597 15.814 25.291 15.36 25.291L14 25.291 14 22.708ZM13.458 27.291 14.622 27.291C14.743 27.635 14.884 27.973 15.042 28.303L14.22 29.125C13.943 29.401 13.791 29.768 13.791 30.158 13.791 30.548 13.943 30.915 14.219 31.189L16.812 33.782C17.381 34.352 18.306 34.35 18.873 33.782L19.697 32.957C20.027 33.116 20.364 33.256 20.708 33.377L20.708 34.541C20.708 35.346 21.362 36 22.167 36L25.833 36C26.638 36 27.292 35.346 27.292 34.541L27.292 33.377C27.636 33.256 27.973 33.116 28.303 32.957L29.127 33.782C29.695 34.35 30.62 34.352 31.188 33.782L33.78 31.19C34.057 30.915 34.209 30.548 34.209 30.158 34.209 29.768 34.057 29.401 33.781 29.126L32.958 28.303C33.116 27.973 33.257 27.635 33.378 27.291L34.542 27.291C35.346 27.291 36 26.637 36 25.833L36 22.166C36 21.363 35.346 20.708 34.542 20.708L33.378 20.708C33.257 20.365 33.116 20.027 32.958 19.697L33.78 18.874C34.057 18.599 34.209 18.232 34.209 17.842 34.209 17.452 34.057 17.085 33.781 16.811L31.188 14.218C30.62 13.649 29.695 13.651 29.127 14.218L28.303 15.042C27.973 14.884 27.636 14.744 27.292 14.623L27.292 13.458C27.292 12.654 26.638 12 25.833 12L22.167 12C21.362 12 20.708 12.654 20.708 13.458L20.708 14.623C20.364 14.744 20.027 14.884 19.697 15.042L18.873 14.218C18.306 13.651 17.381 13.649 16.812 14.218L14.22 16.81C13.943 17.085 13.791 17.452 13.791 17.842 13.791 18.232 13.943 18.599 14.219 18.873L15.042 19.697C14.884 20.027 14.743 20.365 14.622 20.708L13.458 20.708C12.654 20.708 12 21.363 12 22.166L12 25.833C12 26.637 12.654 27.291 13.458 27.291L13.458 27.291ZM9 39 39 39 39 9 9 9 9 39ZM46 13 46 11 41 11 41 8C41 7.448 40.553 7 40 7L37 7 37 2 35 2 35 7 31 7 31 2 29 2 29 7 25 7 25 2 23 2 23 7 19 7 19 2 17 2 17 7 13 7 13 2 11 2 11 7 8 7C7.447 7 7 7.448 7 8L7 11 2 11 2 13 7 13 7 17 2 17 2 19 7 19 7 23 2 23 2 25 7 25 7 29 2 29 2 31 7 31 7 35 2 35 2 37 7 37 7 40C7 40.552 7.447 41 8 41L11 41 11 46 13 46 13 41 17 41 17 46 19 46 19 41 23 41 23 46 25 46 25 41 29 41 29 46 31 46 31 41 35 41 35 46 37 46 37 41 40 41C40.553 41 41 40.552 41 40L41 37 46 37 46 35 41 35 41 31 46 31 46 29 41 29 41 25 46 25 46 23 41 23 41 19 46 19 46 17 41 17 41 13 46 13Z" id="Fill-1" fill="#ED7100"/></g></svg>