<svg width="80" height="80" viewBox="0 0 80 80" xmlns="http://www.w3.org/2000/svg" xmlns:xlink="http://www.w3.org/1999/xlink" overflow="hidden"><g id="Icon-Architecture/64/Arch_Amazon-Virtual-Private-Cloud_64" stroke="none" stroke-width="1" fill="none" fill-rule="evenodd"><g id="Icon-Architecture-BG/64/Networking-Content-Delivery" fill="#8C4FFF"><rect x="0" y="0" width="80" height="80" id="Rectangle"/></g><path d="M61 41.3717 55.5 39.1717 55.5 59.1227C57.106 58.9627 58.401 58.4347 59.321 57.5007 61.021 55.7727 61.001 53.2397 61 53.2147L61 41.3717ZM53.5 59.1357 53.5 39.1717 48 41.3717 48 53.1947C48.007 53.4017 48.234 58.5517 53.5 59.1357L53.5 59.1357ZM63 53.1947C63.003 53.3077 63.053 56.5417 60.765 58.8847 59.269 60.4177 57.16 61.1947 54.5 61.1947 47.927 61.1947 46.065 55.9767 46 53.2187L46 40.6947C46 40.2857 46.249 39.9177 46.629 39.7657L54.129 36.7657C54.367 36.6707 54.633 36.6707 54.871 36.7657L62.371 39.7657C62.751 39.9177 63 40.2857 63 40.6947L63 53.1947ZM66.001 51.2287 66 37.8717 54.5 33.2717 43 37.8717 43 51.1947C42.998 51.2857 42.865 57.4227 46.534 61.1987 48.466 63.1867 51.146 64.1947 54.5 64.1947 57.877 64.1947 60.57 63.1797 62.504 61.1787 66.168 57.3867 66.003 51.2897 66.001 51.2287L66.001 51.2287ZM63.942 62.5677C61.617 64.9747 58.44 66.1947 54.5 66.1947 50.579 66.1947 47.413 64.9787 45.09 62.5807 40.831 58.1877 40.991 51.4477 41 51.1637L41 37.1947C41 36.7857 41.249 36.4177 41.629 36.2657L54.129 31.2657C54.367 31.1707 54.633 31.1707 54.871 31.2657L67.371 36.2657C67.751 36.4177 68 36.7857 68 37.1947L68 51.1947C68.009 51.4447 68.189 58.1727 63.942 62.5677L63.942 62.5677ZM23.055 47.1947 38 47.1947 38 49.1947 23.055 49.1947C16.977 49.1947 12.337 45.1427 12.024 39.5597 12.002 39.3317 12 39.0657 12 38.7997 12 31.9307 16.803 29.4017 19.604 28.5117 19.584 28.1907 19.574 27.8657 19.574 27.5387 19.574 22.0857 23.464 16.3807 28.621 14.2687 34.677 11.7887 41.062 12.9897 45.695 17.4757 47.256 18.9967 48.446 20.6207 49.307 22.4097 50.513 21.3747 51.969 20.8187 53.529 20.8187 56.834 20.8187 60.33 23.4127 60.931 28.3817 63.114 28.9317 65.854 30.0997 67.788 32.5797L66.212 33.8097C64.43 31.5237 61.741 30.5717 59.8 30.1737 59.355 30.0837 59.028 29.7057 59.002 29.2537 58.741 24.8327 55.982 22.8187 53.529 22.8187 52.067 22.8187 50.771 23.5087 49.78 24.8137 49.559 25.1057 49.199 25.2567 48.835 25.1987 48.474 25.1437 48.17 24.8967 48.045 24.5537 47.278 22.4637 46.054 20.6177 44.302 18.9107 40.258 14.9967 34.676 13.9517 29.379 16.1197 24.93 17.9417 21.574 22.8507 21.574 27.5387 21.574 28.0797 21.605 28.6147 21.668 29.1277 21.729 29.6287 21.405 30.0967 20.915 30.2187 18.333 30.8577 14 32.8237 14 38.7997 14 39.0017 13.998 39.2047 14.018 39.4077 14.272 43.9357 18.072 47.1947 23.055 47.1947L23.055 47.1947Z" id="Amazon-Virtual-Private-Cloud_Icon_64_Squid" fill="#FFFFFF"/></g></svg>