<svg width="48" height="48" viewBox="0 0 48 48" xmlns="http://www.w3.org/2000/svg" xmlns:xlink="http://www.w3.org/1999/xlink" overflow="hidden"><g id="Icon-Resource/Storage/Res_Amazon-Simple-Storage-Service_S3-Intelligent-Tiering_48" stroke="none" stroke-width="1" fill="none" fill-rule="evenodd"><path d="M38.6221 35.3212C38.6221 36.2882 39.2581 36.6402 40.5931 37.0242 40.7261 37.0622 40.8481 37.0972 40.9521 37.1312 41.0401 37.1592 41.1411 37.1882 41.2501 37.2192 42.2731 37.5132 44.6691 38.2012 44.6691 40.8442 44.6691 42.6992 43.2221 44.0662 41.1751 44.2552L41.1751 46.0002 39.1751 46.0002 39.1751 44.0552C38.7461 43.9182 38.3471 43.7262 38.0021 43.4772 37.1121 42.8372 36.6221 41.8872 36.6221 40.8042L38.6221 40.8042C38.6221 41.9822 39.9791 42.2932 40.6971 42.2932 41.4301 42.2932 42.6691 41.9882 42.6691 40.8442 42.6691 39.8782 42.0331 39.5252 40.6981 39.1412 40.5651 39.1032 40.4431 39.0682 40.3391 39.0352 40.2511 39.0072 40.1501 38.9772 40.0411 38.9462 39.0181 38.6522 36.6221 37.9652 36.6221 35.3212 36.6221 34.2532 37.0891 33.3222 37.9351 32.7012 38.2941 32.4382 38.7161 32.2392 39.1751 32.1052L39.1751 30.0002 41.1751 30.0002 41.1751 31.9612C42.9671 32.1922 44.6691 33.3902 44.6691 35.4412L42.6691 35.4412C42.6691 34.3192 41.3941 33.9122 40.5391 33.9122 39.9841 33.9122 39.4671 34.0582 39.1181 34.3142 38.7841 34.5582 38.6221 34.8882 38.6221 35.3212M40.5611 26.1722 40.7821 24.5252C42.5221 25.5842 43.0971 26.2192 43.2721 26.4942 42.9821 26.5502 42.2391 26.5822 40.5611 26.1722M22.9241 13.5012C12.6181 13.5012 5.6141 11.0512 5.0321 9.2662L5.0021 9.0312C5.1381 7.2352 12.4891 4.0002 22.9241 4.0002 33.3581 4.0002 40.7111 7.2342 40.8501 9.0302L40.8181 9.2652C40.2391 11.0502 33.2331 13.5012 22.9241 13.5012M23.1741 20.0002 23.1751 19.0002 23.1761 19.9992C23.1761 20.0002 23.1751 20.0002 23.1741 20.0002M45.3181 26.2902C45.1021 25.1352 43.7741 23.9172 41.0711 22.3772L42.7771 9.6732C42.7821 9.6492 42.7881 9.6272 42.7911 9.6022L42.8431 9.2132C42.8491 9.1692 42.8511 9.1252 42.8511 9.0812 42.8511 4.9082 32.3501 2.0002 22.9241 2.0002 13.5001 2.0002 3.0001 4.9082 3.0001 9.0812 3.0001 9.1242 3.0031 9.1672 3.0091 9.2102L3.0591 9.5992C3.0591 9.6052 3.0611 9.6092 3.0621 9.6152L7.2921 41.0662C7.4231 44.7482 16.9251 46.1232 22.9291 46.1232 26.2241 46.1232 29.5501 45.7772 32.3011 45.1482 33.4331 44.8832 34.4171 44.5842 35.2261 44.2602 35.5521 44.1312 35.8511 44.0002 36.1291 43.8692L35.2811 42.0582C35.0341 42.1742 34.7701 42.2892 34.4831 42.4042 33.7681 42.6902 32.8801 42.9582 31.8501 43.2002 29.2461 43.7952 26.0781 44.1232 22.9291 44.1232 14.4431 44.1232 9.2911 41.9462 9.2911 40.9892 9.2911 40.9442 9.2881 40.9002 9.2821 40.8562L5.4401 12.2912C9.0611 14.4052 16.1631 15.5012 22.9241 15.5012 29.6841 15.5012 36.7851 14.4062 40.4071 12.2922L38.6161 25.6212C34.0361 24.1812 27.9271 21.3992 25.1651 20.0992 25.1671 20.0662 25.1751 20.0342 25.1751 20.0002 25.1751 18.8972 24.2771 18.0002 23.1751 18.0002 22.0721 18.0002 21.1751 18.8972 21.1751 20.0002 21.1751 21.1022 22.0721 22.0002 23.1751 22.0002 23.4911 22.0002 23.7871 21.9192 24.0541 21.7872 27.1751 23.2632 33.5611 26.1732 38.3471 27.6312L38.1371 29.1942 40.1191 29.4602 40.2931 28.1652C41.3161 28.4062 42.1571 28.5272 42.8441 28.5272 43.8371 28.5272 44.5051 28.2742 44.9311 27.7672 45.2801 27.3502 45.4181 26.8262 45.3181 26.2902" id="Amazon-Simple-Storage_Service-Intelligent-Tiering_Resource-Icon_light-bg" fill="#7AA116"/></g></svg>