<svg width="48" height="48" viewBox="0 0 48 48" xmlns="http://www.w3.org/2000/svg" xmlns:xlink="http://www.w3.org/1999/xlink" overflow="hidden"><g id="Icon-Resource/Analytics/Res_Amazon-OpenSearch-Service_Traces_48" stroke="none" stroke-width="1" fill="none" fill-rule="evenodd"><path d="M18 8 34 8 34 10 23 10 23 22C23 22.967 23.524 24 24.995 24L34 24 34 26 24.995 26C24.213 26 23.556 25.806 23 25.502L23 38.198C23 39.192 23.809 40 24.802 40L34 40 34 42 24.802 42C22.705 42 21 40.294 21 38.198L21 10 18 10 18 8ZM41 44C39.346 44 38 42.654 38 41 38 39.346 39.346 38 41 38 42.654 38 44 39.346 44 41 44 42.654 42.654 44 41 44L41 44ZM41 36C38.243 36 36 38.243 36 41 36 43.757 38.243 46 41 46 43.757 46 46 43.757 46 41 46 38.243 43.757 36 41 36L41 36ZM41 28C39.346 28 38 26.654 38 25 38 23.346 39.346 22 41 22 42.654 22 44 23.346 44 25 44 26.654 42.654 28 41 28L41 28ZM41 20C38.243 20 36 22.243 36 25 36 27.757 38.243 30 41 30 43.757 30 46 27.757 46 25 46 22.243 43.757 20 41 20L41 20ZM41 6C42.654 6 44 7.346 44 9 44 10.654 42.654 12 41 12 39.346 12 38 10.654 38 9 38 7.346 39.346 6 41 6L41 6ZM41 14C43.757 14 46 11.757 46 9 46 6.243 43.757 4 41 4 38.243 4 36 6.243 36 9 36 11.757 38.243 14 41 14L41 14ZM4 14 14 14 14 4 4 4 4 14ZM15 2 3 2C2.447 2 2 2.448 2 3L2 15C2 15.552 2.447 16 3 16L15 16C15.553 16 16 15.552 16 15L16 3C16 2.448 15.553 2 15 2L15 2Z" id="Fill-1" fill="#8C4FFF"/></g></svg>