<svg width="80" height="80" viewBox="0 0 80 80" xmlns="http://www.w3.org/2000/svg" xmlns:xlink="http://www.w3.org/1999/xlink" overflow="hidden"><g id="Icon-Architecture/64/Arch_Amazon-HealthLake_64" stroke="none" stroke-width="1" fill="none" fill-rule="evenodd"><g id="Icon-Architecture-BG/64/Machine-Learning" fill="#01A88D"><rect x="0" y="0" width="80" height="80" id="Rectangle"/></g><g id="Icon-Service/64/Amazon-HealthLake_64" fill="#FFFFFF" transform="translate(12 12)"><path d="M47 36 49 36 49 30 47 30 47 36ZM54 45 50 45C49.447 45 49 44.552 49 44L49 40 45 40 45 44C45 44.552 44.553 45 44 45L40 45 40 49 44 49C44.553 49 45 49.448 45 50L45 54 49 54 49 50C49 49.448 49.447 49 50 49L54 49 54 45ZM56 44 56 50C56 50.552 55.553 51 55 51L51 51 51 55C51 55.552 50.553 56 50 56L44 56C43.447 56 43 55.552 43 55L43 51 39 51C38.447 51 38 50.552 38 50L38 44C38 43.448 38.447 43 39 43L43 43 43 39C43 38.448 43.447 38 44 38L50 38C50.553 38 51 38.448 51 39L51 43 55 43C55.553 43 56 43.448 56 44L56 44ZM21 7 35 7 35 2 21 2 21 7ZM19 8 19 1C19 0.448 19.447 0 20 0L36 0C36.553 0 37 0.448 37 1L37 8C37 8.552 36.553 9 36 9L20 9C19.447 9 19 8.552 19 8L19 8ZM9 5.545C9 4.693 9.693 4 10.546 4L17 4 17 2 10.546 2C8.591 2 7 3.59 7 5.545L7 21 9 21 9 5.545ZM47 5.545 47 21 49 21 49 5.545C49 3.59 47.409 2 45.454 2L39 2 39 4 45.454 4C46.307 4 47 4.693 47 5.545L47 5.545ZM9 52.455 9 30 7 30 7 52.455C7 54.41 8.591 56 10.546 56L40 56 40 54 10.546 54C9.693 54 9 53.307 9 52.455L9 52.455ZM39.618 25 34.895 15.553C34.723 15.209 34.4 15.011 33.984 15 33.6 15.006 33.253 15.232 33.092 15.581L27.841 26.958 22.832 19.445C22.461 18.889 21.539 18.889 21.168 19.445L17.465 25 0 25 0 27 18 27C18.334 27 18.646 26.833 18.832 26.555L22 21.803 27.168 29.555C27.354 29.834 27.667 30 28 30 28.025 30 28.052 29.999 28.078 29.997 28.438 29.969 28.756 29.748 28.908 29.419L34.036 18.308 38.105 26.447C38.275 26.786 38.621 27 39 27L56 27 56 25 39.618 25ZM13 42 31 42 31 40 13 40 13 42ZM13 48 31 48 31 46 13 46 13 48Z" id="Fill-6"/></g></g></svg>