<svg width="80" height="80" viewBox="0 0 80 80" xmlns="http://www.w3.org/2000/svg" xmlns:xlink="http://www.w3.org/1999/xlink" overflow="hidden"><g id="Icon-Architecture/64/Arch_AWS-Thinkbox-Frost_64" stroke="none" stroke-width="1" fill="none" fill-rule="evenodd"><g id="Icon-Architecture-BG/64/Compute" fill="#ED7100"><rect x="0" y="0" width="80" height="80" id="Rectangle"/></g><g id="Icon-Service/64/AWS-ThinkBox-Frost_64" fill="#FFFFFF" transform="translate(15 12)"><path d="M37.053 33.812 33 31.428 33 24.572 37.053 22.188 47.016 28 37.053 33.812ZM36 47.259 26 41.426 26 36.58 31.993 33.156 36 35.513 36 47.259ZM25 34.848 19 31.42 19 24.58 25 21.152 31 24.58 31 31.42 25 34.848ZM24 41.426 14 47.259 14 35.513 18.007 33.156 24 36.58 24 41.426ZM12.948 33.812 2.985 28 12.948 22.188 17 24.572 17 31.428 12.948 33.812ZM14 8.741 24 14.574 24 19.42 18.007 22.844 14 20.487 14 8.741ZM26 14.574 36 8.741 36 20.487 31.993 22.844 26 19.42 26 14.574ZM50 28C50 27.645 49.812 27.315 49.504 27.136L39.029 21.026 43.946 18.133 48.486 20.857 49.515 19.143 45.908 16.979 49.507 14.862 48.493 13.138 45 15.193 45 11 43 11 43 16.369 38 19.311 38 7C38 6.642 37.809 6.311 37.498 6.133 37.189 5.955 36.806 5.956 36.496 6.136L26 12.259 26 6.566 30.515 3.857 29.486 2.143 26 4.234 26 0 24 0 24 4.234 20.515 2.143 19.486 3.857 24 6.566 24 12.259 13.504 6.136C13.196 5.957 12.813 5.955 12.502 6.133 12.192 6.311 12 6.642 12 7L12 19.311 7 16.369 7 11 5 11 5 15.193 1.507 13.138 0.493 14.862 4.092 16.979 0.486 19.143 1.515 20.857 6.055 18.133 10.972 21.026 0.496 27.136C0.189 27.315 0 27.645 0 28 0 28.355 0.189 28.685 0.496 28.864L10.972 34.974 6.055 37.867 1.515 35.143 0.486 36.857 4.092 39.021 0.493 41.138 1.507 42.862 5 40.807 5 45 7 45 7 39.631 12 36.689 12 49C12 49.358 12.192 49.689 12.502 49.867 12.813 50.045 13.196 50.044 13.504 49.864L24 43.741 24 49.434 19.486 52.143 20.515 53.857 24 51.766 24 56 26 56 26 51.766 29.486 53.857 30.515 52.143 26 49.434 26 43.741 36.496 49.864C36.806 50.044 37.189 50.045 37.498 49.867 37.809 49.689 38 49.358 38 49L38 36.689 43 39.631 43 45 45 45 45 40.807 48.493 42.862 49.507 41.138 45.908 39.021 49.515 36.857 48.486 35.143 43.946 37.867 39.029 34.974 49.504 28.864C49.812 28.685 50 28.355 50 28L50 28Z" id="AWS-ThinkBox-Frost_64_Squid"/></g></g></svg>