<svg width="80" height="80" viewBox="0 0 80 80" xmlns="http://www.w3.org/2000/svg" xmlns:xlink="http://www.w3.org/1999/xlink" overflow="hidden"><g id="Icon-Architecture/64/Arch_AWS-Cost-and-Usage-Report_64" stroke="none" stroke-width="1" fill="none" fill-rule="evenodd"><g id="Icon-Architecture-BG/64/AWS-Cost-Management" fill="#7AA116"><rect x="0" y="0" width="80" height="80" id="Rectangle"/></g><path d="M44 40 51 40 51 38 44 38 44 40ZM59 40 63 40 63 38 59 38 59 40ZM44 35 56 35 56 33 44 33 44 35ZM18 64C16.487 64 15 62.514 15 61 15 59.486 16.487 58 18 58 19.514 58 21 59.486 21 61 21 62.514 19.514 64 18 64L18 64ZM18 50C16.487 50 15 48.514 15 47 15 45.486 16.487 44 18 44 19.514 44 21 45.486 21 47 21 48.514 19.514 50 18 50L18 50ZM18 36C16.487 36 15 34.514 15 33 15 31.486 16.487 30 18 30 19.514 30 21 31.486 21 33 21 34.514 19.514 36 18 36L18 36ZM18 22C16.542 22 15 20.458 15 19 15 17.542 16.542 16 18 16 19.458 16 21 17.542 21 19 21 20.458 19.458 22 18 22L18 22ZM54 48 54 46 31 46 31 19C31 18.448 30.553 18 30 18L22.877 18C22.358 15.834 20.233 14 18 14 15.43 14 13 16.43 13 19 13 21.57 15.43 24 18 24 20.233 24 22.358 22.166 22.877 20L29 20 29 32 22.881 32C22.375 29.807 20.279 28 18 28 15.383 28 13 30.383 13 33 13 35.617 15.383 38 18 38 20.279 38 22.375 36.193 22.881 34L29 34 29 46 22.881 46C22.375 43.807 20.279 42 18 42 15.383 42 13 44.383 13 47 13 49.617 15.383 52 18 52 20.279 52 22.375 50.193 22.881 48L29 48 29 60 22.881 60C22.375 57.807 20.279 56 18 56 15.383 56 13 58.383 13 61 13 63.617 15.383 66 18 66 20.279 66 22.375 64.193 22.881 62L30 62C30.553 62 31 61.552 31 61L31 48 54 48ZM56 48 63 48 63 46 56 46 56 48ZM59 35 62.802 35 62.802 33 59 33 59 35ZM58 27 58 21.414 63.586 27 58 27ZM66.989 27.938C66.983 27.85 66.965 27.764 66.936 27.679 66.926 27.647 66.917 27.617 66.904 27.586 66.855 27.48 66.793 27.379 66.707 27.293L57.707 18.293C57.621 18.208 57.521 18.146 57.415 18.098 57.384 18.083 57.352 18.075 57.319 18.063 57.237 18.035 57.152 18.019 57.065 18.013 57.042 18.011 57.023 18 57 18L40 18C39.448 18 39 18.448 39 19L39 44 41 44 41 20 56 20 56 28C56 28.552 56.448 29 57 29L65 29 65 60 41 60 41 50 39 50 39 61C39 61.552 39.448 62 40 62L66 62C66.553 62 67 61.552 67 61L67 28C67 27.979 66.99 27.959 66.989 27.938L66.989 27.938Z" id="AWS-Cost-and-Usage-Report_Icon_64_Squid" fill="#FFFFFF"/></g></svg>