<svg width="48" height="48" viewBox="0 0 48 48" xmlns="http://www.w3.org/2000/svg" xmlns:xlink="http://www.w3.org/1999/xlink" overflow="hidden"><g id="Icon-Resource/Containers/Res_Amazon-Elastic-Container-Registry_Registry_48" stroke="none" stroke-width="1" fill="none" fill-rule="evenodd"><path d="M35.207 37.954 37.207 37.954 37.207 34.459 35.207 34.459 35.207 37.954ZM31.711 37.954 33.711 37.954 33.711 34.459 31.711 34.459 31.711 37.954ZM28.216 37.954 30.216 37.954 30.216 34.459 28.216 34.459 28.216 37.954ZM26.721 39.576 38.702 39.576 38.702 32.837 26.721 32.837 26.721 39.576ZM39.702 30.837 25.72 30.837C25.168 30.837 24.72 31.284 24.72 31.837L24.72 40.576C24.72 41.129 25.168 41.576 25.72 41.576L39.702 41.576C40.255 41.576 40.702 41.129 40.702 40.576L40.702 31.837C40.702 31.284 40.255 30.837 39.702 30.837L39.702 30.837ZM35.207 25.721 37.207 25.721 37.207 22.225 35.207 22.225 35.207 25.721ZM31.711 25.721 33.711 25.721 33.711 22.225 31.711 22.225 31.711 25.721ZM28.216 25.721 30.216 25.721 30.216 22.225 28.216 22.225 28.216 25.721ZM26.721 27.342 38.702 27.342 38.702 20.604 26.721 20.604 26.721 27.342ZM39.702 18.604 25.72 18.604C25.168 18.604 24.72 19.051 24.72 19.604L24.72 28.342C24.72 28.895 25.168 29.342 25.72 29.342L39.702 29.342C40.255 29.342 40.702 28.895 40.702 28.342L40.702 19.604C40.702 19.051 40.255 18.604 39.702 18.604L39.702 18.604ZM35.207 13.486 37.207 13.486 37.207 9.991 35.207 9.991 35.207 13.486ZM31.711 13.486 33.711 13.486 33.711 9.991 31.711 9.991 31.711 13.486ZM28.216 13.486 30.216 13.486 30.216 9.991 28.216 9.991 28.216 13.486ZM26.721 15.108 38.702 15.108 38.702 8.369 26.721 8.369 26.721 15.108ZM39.702 6.369 25.72 6.369C25.168 6.369 24.72 6.817 24.72 7.369L24.72 16.108C24.72 16.661 25.168 17.108 25.72 17.108L39.702 17.108C40.255 17.108 40.702 16.661 40.702 16.108L40.702 7.369C40.702 6.817 40.255 6.369 39.702 6.369L39.702 6.369ZM17.729 37.954 19.729 37.954 19.729 34.459 17.729 34.459 17.729 37.954ZM14.234 37.954 16.234 37.954 16.234 34.459 14.234 34.459 14.234 37.954ZM10.738 37.954 12.738 37.954 12.738 34.459 10.738 34.459 10.738 37.954ZM9.243 39.576 21.224 39.576 21.224 32.837 9.243 32.837 9.243 39.576ZM22.224 30.837 8.243 30.837C7.69 30.837 7.243 31.284 7.243 31.837L7.243 40.576C7.243 41.129 7.69 41.576 8.243 41.576L22.224 41.576C22.777 41.576 23.224 41.129 23.224 40.576L23.224 31.837C23.224 31.284 22.777 30.837 22.224 30.837L22.224 30.837ZM17.729 25.721 19.729 25.721 19.729 22.225 17.729 22.225 17.729 25.721ZM14.234 25.721 16.234 25.721 16.234 22.225 14.234 22.225 14.234 25.721ZM10.738 25.721 12.738 25.721 12.738 22.225 10.738 22.225 10.738 25.721ZM9.243 27.342 21.224 27.342 21.224 20.604 9.243 20.604 9.243 27.342ZM22.224 18.604 8.243 18.604C7.69 18.604 7.243 19.051 7.243 19.604L7.243 28.342C7.243 28.895 7.69 29.342 8.243 29.342L22.224 29.342C22.777 29.342 23.224 28.895 23.224 28.342L23.224 19.604C23.224 19.051 22.777 18.604 22.224 18.604L22.224 18.604ZM17.729 13.486 19.729 13.486 19.729 9.991 17.729 9.991 17.729 13.486ZM14.234 13.486 16.234 13.486 16.234 9.991 14.234 9.991 14.234 13.486ZM10.738 13.486 12.738 13.486 12.738 9.991 10.738 9.991 10.738 13.486ZM9.243 15.108 21.224 15.108 21.224 8.369 9.243 8.369 9.243 15.108ZM22.224 6.369 8.243 6.369C7.69 6.369 7.243 6.817 7.243 7.369L7.243 16.108C7.243 16.661 7.69 17.108 8.243 17.108L22.224 17.108C22.777 17.108 23.224 16.661 23.224 16.108L23.224 7.369C23.224 6.817 22.777 6.369 22.224 6.369L22.224 6.369ZM43.945 39.497C43.945 41.95 41.95 43.945 39.497 43.945L8.448 43.945C5.995 43.945 4 41.95 4 39.497L4 8.448C4 5.995 5.995 4 8.448 4L39.497 4C41.95 4 43.945 5.995 43.945 8.448L43.945 39.497ZM39.497 2 8.448 2C4.892 2 2 4.893 2 8.448L2 39.497C2 43.053 4.892 45.945 8.448 45.945L39.497 45.945C43.053 45.945 45.945 43.053 45.945 39.497L45.945 8.448C45.945 4.893 43.053 2 39.497 2L39.497 2Z" id="Amazon-Elastic-Container-Registry-Registry_Resource-Icon_light-bg" fill="#ED7100"/></g></svg>