<svg width="48" height="48" viewBox="0 0 48 48" xmlns="http://www.w3.org/2000/svg" xmlns:xlink="http://www.w3.org/1999/xlink" overflow="hidden"><g id="Icon-Resource/Database/Res_Amazon-Aurora-PIOPS-Instance_48" stroke="none" stroke-width="1" fill="none" fill-rule="evenodd"><path d="M41.4631 37.9053C41.5721 38.1663 41.6271 38.4813 41.6271 38.8523 41.6271 39.5713 41.3951 40.1403 40.9291 40.5613 40.4641 40.9803 39.8221 41.1903 39.0061 41.1903 38.6501 41.1903 38.2941 41.1493 37.9391 41.0653 37.5821 40.9823 37.2831 40.8733 37.0411 40.7363L37.0411 39.5453C37.3211 39.6513 37.6381 39.7403 37.9891 39.8113 38.3411 39.8843 38.6431 39.9193 38.8921 39.9193 39.2551 39.9193 39.5301 39.8353 39.7201 39.6643 39.9091 39.4933 40.0041 39.2503 40.0041 38.9313 40.0041 38.6973 39.9391 38.4993 39.8061 38.3363 39.6731 38.1743 39.4511 38.0093 39.1421 37.8423L38.5281 37.5123C37.9691 37.2103 37.5681 36.8853 37.3261 36.5373 37.0841 36.1883 36.9631 35.7643 36.9631 35.2663 36.9631 34.8033 37.0681 34.4013 37.2791 34.0573 37.4911 33.7133 37.7811 33.4483 38.1481 33.2623 38.5161 33.0773 38.9381 32.9843 39.4141 32.9843 40.0121 32.9843 40.6061 33.1213 41.1961 33.3923L41.1961 34.5953C40.5831 34.3693 40.0421 34.2563 39.5721 34.2563 39.2551 34.2563 39.0061 34.3353 38.8231 34.4933 38.6431 34.6533 38.5511 34.8723 38.5511 35.1513 38.5511 35.3873 38.6101 35.5803 38.7281 35.7313 38.8451 35.8833 39.0691 36.0493 39.4021 36.2303L40.0151 36.5593C40.4091 36.7723 40.7211 36.9833 40.9511 37.1953 41.1841 37.4073 41.3531 37.6433 41.4631 37.9053L41.4631 37.9053ZM34.2331 36.5933C34.0771 36.8133 33.8531 36.9233 33.5581 36.9233L32.8181 36.9233 32.8181 34.3353 33.5581 34.3353C33.8531 34.3353 34.0771 34.4453 34.2331 34.6643 34.3881 34.8843 34.4651 35.2063 34.4651 35.6303 34.4651 36.0533 34.3881 36.3753 34.2331 36.5933L34.2331 36.5933ZM33.7501 33.1553 31.2641 33.1553 31.2641 41.0203 32.8181 41.0203 32.8181 38.1033 33.7501 38.1033C34.4451 38.1033 35.0001 37.8823 35.4121 37.4393 35.8251 36.9973 36.0311 36.3933 36.0311 35.6303 36.0311 34.8643 35.8251 34.2603 35.4121 33.8183 35.0001 33.3763 34.4451 33.1553 33.7501 33.1553L33.7501 33.1553ZM27.9041 39.1933C27.6471 39.6703 27.2691 39.9083 26.7711 39.9083 26.2711 39.9083 25.8921 39.6703 25.6351 39.1933 25.3771 38.7163 25.2491 38.0123 25.2491 37.0813 25.2491 36.1283 25.3741 35.4213 25.6231 34.9593 25.8731 34.4983 26.2551 34.2663 26.7711 34.2663 27.2831 34.2663 27.6661 34.4983 27.9161 34.9593 28.1651 35.4213 28.2901 36.1283 28.2901 37.0813 28.2901 38.0123 28.1621 38.7163 27.9041 39.1933L27.9041 39.1933ZM26.7711 32.9843C25.7711 32.9843 24.9951 33.3423 24.4421 34.0573 23.8901 34.7713 23.6131 35.7803 23.6131 37.0813 23.6131 38.3843 23.8901 39.3933 24.4421 40.1123 24.9951 40.8313 25.7711 41.1903 26.7711 41.1903 27.7691 41.1903 28.5441 40.8313 29.0961 40.1123 29.6491 39.3933 29.9251 38.3843 29.9251 37.0813 29.9251 35.7803 29.6491 34.7713 29.0961 34.0573 28.5441 33.3423 27.7691 32.9843 26.7711 32.9843L26.7711 32.9843ZM20.6411 41.0203 22.2301 41.0203 22.2301 33.1553 20.6411 33.1553 20.6411 41.0203ZM17.5481 36.5933C17.3931 36.8133 17.1681 36.9233 16.8721 36.9233L16.1351 36.9233 16.1351 34.3353 16.8721 34.3353C17.1681 34.3353 17.3931 34.4453 17.5481 34.6643 17.7021 34.8843 17.7801 35.2063 17.7801 35.6303 17.7801 36.0533 17.7021 36.3753 17.5481 36.5933L17.5481 36.5933ZM17.0661 33.1553 14.5791 33.1553 14.5791 41.0203 16.1351 41.0203 16.1351 38.1033 17.0661 38.1033C17.7611 38.1033 18.3161 37.8823 18.7291 37.4393 19.1411 36.9973 19.3471 36.3933 19.3471 35.6303 19.3471 34.8643 19.1411 34.2603 18.7291 33.8183 18.3161 33.3763 17.7611 33.1553 17.0661 33.1553L17.0661 33.1553ZM43.9081 40.1203C43.9081 42.2093 42.2091 43.9083 40.1201 43.9083L7.7881 43.9083C5.6991 43.9083 4.0001 42.2093 4.0001 40.1203L4.0001 7.7883C4.0001 5.6993 5.6991 4.0003 7.7881 4.0003L40.1201 4.0003C42.2091 4.0003 43.9081 5.6993 43.9081 7.7883L43.9081 40.1203ZM40.1201 2.0003 7.7881 2.0003C4.5971 2.0003 2.0001 4.5963 2.0001 7.7883L2.0001 40.1203C2.0001 43.3113 4.5971 45.9083 7.7881 45.9083L40.1201 45.9083C43.3121 45.9083 45.9081 43.3113 45.9081 40.1203L45.9081 7.7883C45.9081 4.5963 43.3121 2.0003 40.1201 2.0003L40.1201 2.0003Z" id="Amazon-DATABASEAmazon-Aurora-PIOPS_Resource-Icon_light-bg" fill="#C925D1"/></g></svg>