<svg width="48" height="48" viewBox="0 0 48 48" xmlns="http://www.w3.org/2000/svg" xmlns:xlink="http://www.w3.org/1999/xlink" overflow="hidden"><g id="Icon-Resource/Database/Res_Amazon-DynamoDB_Table_48" stroke="none" stroke-width="1" fill="none" fill-rule="evenodd"><path d="M13.355 11.862 45.928 11.862 45.928 2 13.355 2 13.355 11.862ZM15.355 9.862 43.927 9.862 43.927 4.001 15.355 4.001 15.355 9.862ZM2 11.862 11.861 11.862 11.861 2 2 2 2 11.862ZM4 9.862 9.862 9.862 9.862 4.001 4 4.001 4 9.862ZM13.355 23.217 45.928 23.217 45.928 13.356 13.355 13.356 13.355 23.217ZM15.355 21.217 43.927 21.217 43.927 15.356 15.355 15.356 15.355 21.217ZM2 23.217 11.861 23.217 11.861 13.356 2 13.356 2 23.217ZM4 21.217 9.862 21.217 9.862 15.356 4 15.356 4 21.217ZM13.355 34.572 45.928 34.572 45.928 24.711 13.355 24.711 13.355 34.572ZM15.355 32.572 43.927 32.572 43.927 26.71 15.355 26.71 15.355 32.572ZM2 34.572 11.861 34.572 11.861 24.711 2 24.711 2 34.572ZM4 32.572 9.862 32.572 9.862 26.71 4 26.71 4 32.572ZM13.355 45.927 45.928 45.927 45.928 36.066 13.355 36.066 13.355 45.927ZM15.355 43.928 43.927 43.928 43.927 38.066 15.355 38.066 15.355 43.928ZM2 45.927 11.861 45.927 11.861 36.066 2 36.066 2 45.927ZM4 43.928 9.862 43.928 9.862 38.066 4 38.066 4 43.928Z" id="Amazon-DATABASE_Amazon-DynamoDB_Table_Resource-Icon_light-bg" fill="#C925D1"/></g></svg>