<svg width="48" height="48" viewBox="0 0 48 48" xmlns="http://www.w3.org/2000/svg" xmlns:xlink="http://www.w3.org/1999/xlink" overflow="hidden"><g id="Icon-Resource/Networking-and-Content-Delivery/Res_Elastic-Load-Balancing_Network-Load-Balancer_48" stroke="none" stroke-width="1" fill="none" fill-rule="evenodd"><path d="M24.0015 44.0029C12.9725 44.0029 3.9995 35.0299 3.9995 24.0009 3.9995 12.9729 12.9725 3.9999 24.0015 3.9999 35.0295 3.9999 44.0025 12.9729 44.0025 24.0009 44.0025 35.0299 35.0295 44.0029 24.0015 44.0029L24.0015 44.0029ZM24.0015 1.9999C11.8695 1.9999 1.9995 11.8689 1.9995 24.0009 1.9995 36.1329 11.8695 46.0029 24.0015 46.0029 36.1335 46.0029 46.0025 36.1329 46.0025 24.0009 46.0025 11.8689 36.1335 1.9999 24.0015 1.9999L24.0015 1.9999ZM29.0835 23.2939C29.4745 23.6849 29.4745 24.3169 29.0835 24.7079L26.1405 27.6539 24.7265 26.2399 25.9645 25.0009 18.7505 25.0009 18.7505 23.0009 25.9645 23.0009 24.7265 21.7619 26.1405 20.3479 29.0835 23.2939ZM32.0015 35.2519 35.2515 35.2519 35.2515 32.0019 32.0015 32.0019 32.0015 35.2519ZM36.2515 30.0019 31.0015 30.0019C30.4485 30.0019 30.0015 30.4489 30.0015 31.0019L30.0015 36.2519C30.0015 36.8049 30.4485 37.2519 31.0015 37.2519L36.2515 37.2519C36.8045 37.2519 37.2515 36.8049 37.2515 36.2519L37.2515 31.0019C37.2515 30.4489 36.8045 30.0019 36.2515 30.0019L36.2515 30.0019ZM17.6665 18.7409 24.9615 14.8909 23.3945 14.4659 23.9175 12.5359 27.9365 13.6249C28.4695 13.7699 28.7835 14.3179 28.6395 14.8519L27.5505 18.8729 25.6205 18.3499 26.1085 16.5469 18.6005 20.5109 17.6665 18.7409ZM32.0015 16.0009 35.2515 16.0009 35.2515 12.7509 32.0015 12.7509 32.0015 16.0009ZM36.2515 10.7509 31.0015 10.7509C30.4485 10.7509 30.0015 11.1979 30.0015 11.7509L30.0015 17.0009C30.0015 17.5539 30.4485 18.0009 31.0015 18.0009L36.2515 18.0009C36.8045 18.0009 37.2515 17.5539 37.2515 17.0009L37.2515 11.7509C37.2515 11.1979 36.8045 10.7509 36.2515 10.7509L36.2515 10.7509ZM8.3455 27.3469 15.0355 27.3469 15.0355 20.6569 8.3455 20.6569 8.3455 27.3469ZM16.0355 18.6559 7.3455 18.6559C6.7925 18.6559 6.3455 19.1039 6.3455 19.6559L6.3455 28.3469C6.3455 28.8989 6.7925 29.3469 7.3455 29.3469L16.0355 29.3469C16.5885 29.3469 17.0355 28.8989 17.0355 28.3469L17.0355 19.6559C17.0355 19.1039 16.5885 18.6559 16.0355 18.6559L16.0355 18.6559ZM28.6395 33.1499C28.7835 33.6839 28.4695 34.2319 27.9365 34.3769L23.9175 35.4669 23.3945 33.5369 24.9625 33.1119 17.6665 29.2619 18.6005 27.4919 26.1085 31.4549 25.6205 29.6519 27.5505 29.1289 28.6395 33.1499ZM32.0015 25.6259 35.2515 25.6259 35.2515 22.3759 32.0015 22.3759 32.0015 25.6259ZM36.2515 20.3759 31.0015 20.3759C30.4485 20.3759 30.0015 20.8229 30.0015 21.3759L30.0015 26.6259C30.0015 27.1789 30.4485 27.6259 31.0015 27.6259L36.2515 27.6259C36.8045 27.6259 37.2515 27.1789 37.2515 26.6259L37.2515 21.3759C37.2515 20.8229 36.8045 20.3759 36.2515 20.3759L36.2515 20.3759Z" id="AWS-Elastic-Load-Balancing_Network-Load-Balancer_Resource-Icon_light-bg" fill="#8C4FFF"/></g></svg>