<svg width="48" height="48" viewBox="0 0 48 48" xmlns="http://www.w3.org/2000/svg" xmlns:xlink="http://www.w3.org/1999/xlink" overflow="hidden"><g id="Icon-Resource/Migration-and-Transfer/Res_AWS-Mainframe-Modernization_Analyzer_48" stroke="none" stroke-width="1" fill="none" fill-rule="evenodd"><path d="M30.007 10 41.007 10 41.007 8 30.007 8 30.007 10ZM16.007 10 23.007 10 23.007 8 16.007 8 16.007 10ZM31.007 16 46.007 16 46.007 14 31.007 14 31.007 16ZM12.007 11C12.007 14.86 15.148 18 19.007 18 22.866 18 26.007 14.86 26.007 11 26.007 7.14 22.866 4 19.007 4 15.148 4 12.007 7.14 12.007 11L12.007 11ZM12.776 17.479 3.714 26.541 2.3 25.126 11.49 15.936C10.555 14.518 10.007 12.822 10.007 11 10.007 6.038 14.044 2 19.007 2 23.97 2 28.007 6.038 28.007 11 28.007 15.962 23.97 20 19.007 20 16.589 20 14.394 19.036 12.776 17.479L12.776 17.479ZM14.007 40 37.007 40 37.007 38 14.007 38 14.007 40ZM8.007 34 28.007 34 28.007 32 8.007 32 8.007 34ZM14.007 28 37.007 28 37.007 26 14.007 26 14.007 28ZM27.007 22 46.007 22 46.007 20 27.007 20 27.007 22ZM37.774 31.463 45.501 37.5 34.62 46 14.73 46 3.85 37.5 7.219 34.867 8.451 36.443 7.098 37.5 15.419 44 33.931 44 42.253 37.5 36.543 33.04 37.774 31.463Z" id="Fill-1" fill="#01A88D"/></g></svg>