<svg width="80" height="80" viewBox="0 0 80 80" xmlns="http://www.w3.org/2000/svg" xmlns:xlink="http://www.w3.org/1999/xlink" overflow="hidden"><g id="Icon-Architecture/64/Arch_AWS-Thinkbox-Krakatoa_64" stroke="none" stroke-width="1" fill="none" fill-rule="evenodd"><g id="Icon-Architecture-BG/64/Compute" fill="#ED7100"><rect x="0" y="0" width="80" height="80" id="Rectangle"/></g><g id="Icon-Service/64/AWS-ThinkBox-Krakatoa_64" fill="#FFFFFF" transform="translate(15 12)"><path d="M22 56.0003 28 56.0003 28 54.0003 22 54.0003 22 56.0003ZM48 28.0002 50 28.0002 50 23.0002 48 23.0002 48 28.0002ZM0 28.0002 2 28.0002 2 23.0002 0 23.0002 0 28.0002ZM25 44.1582 16.699 49.0003 33.301 49.0003 25 44.1582ZM50 15.0002 50 20.0002 48 20.0002 48 16.1483C35.332 18.1003 26.549 25.9842 26 36.0272L26 42.4263 29 44.1763 29 39.0003C29.281 32.5332 34.068 28.2453 40.687 28.5343 43.275 28.6472 45.664 29.7612 47.414 31.6702 49.165 33.5812 50.066 36.0573 49.953 38.6452 49.86 40.7682 48.947 42.7293 47.38 44.1652 45.813 45.6012 43.777 46.3413 41.656 46.2492 39.904 46.1722 38.287 45.4183 37.102 44.1253 35.917 42.8322 35.307 41.1553 35.383 39.4033 35.446 37.9482 36.072 36.6043 37.146 35.6203 38.22 34.6362 39.597 34.1273 41.068 34.1922L40.98 36.1903C40.071 36.1432 39.177 36.4723 38.497 37.0952 37.817 37.7183 37.421 38.5682 37.381 39.4902 37.271 42.0052 39.229 44.1413 41.744 44.2503 43.302 44.3223 44.854 43.7673 46.028 42.6903 47.202 41.6152 47.886 40.1473 47.955 38.5583 48.045 36.5042 47.329 34.5382 45.939 33.0223 44.551 31.5063 42.654 30.6222 40.6 30.5322 35.089 30.2922 31.231 33.7132 30.999 39.0433L31 45.3423 37.504 49.1362C37.895 49.3643 38.083 49.8252 37.966 50.2612 37.848 50.6973 37.452 51.0003 37 51.0003L13 51.0003C12.548 51.0003 12.152 50.6973 12.034 50.2612 11.917 49.8252 12.105 49.3643 12.496 49.1362L19 45.3423 19 39.0003C18.769 33.7113 14.882 30.2992 9.363 30.5322 7.309 30.6222 5.412 31.5063 4.022 33.0223 2.634 34.5382 1.918 36.5033 2.008 38.5573 2.077 40.1473 2.761 41.6152 3.935 42.6903 5.107 43.7663 6.638 44.3223 8.219 44.2503 10.734 44.1413 12.691 42.0052 12.582 39.4902 12.542 38.5682 12.146 37.7183 11.466 37.0952 10.785 36.4723 9.897 36.1452 8.982 36.1903L8.895 34.1922C10.38 34.1292 11.743 34.6362 12.816 35.6203 13.891 36.6043 14.517 37.9482 14.58 39.4033 14.656 41.1553 14.046 42.8322 12.861 44.1253 11.676 45.4183 10.059 46.1722 8.307 46.2492 6.174 46.3402 4.15 45.6012 2.583 44.1652 1.016 42.7293 0.103 40.7682 0.01 38.6452-0.104 36.0573 0.798 33.5812 2.548 31.6712 4.298 29.7612 6.687 28.6472 9.275 28.5343 9.486 28.5252 9.695 28.5212 9.901 28.5212 16.2 28.5212 20.728 32.7352 20.999 38.9572L21 44.1763 24 42.4263 24 35.9992C23.467 25.9963 14.68 18.1022 2 16.1483L2 20.0002 0 20.0002 0 15.0002C0 14.7133 0.123 14.4403 0.338 14.2502 0.385 14.2093 0.436 14.1722 0.489 14.1412L5.485 11.1433 6.515 12.8573 3.869 14.4452C13.369 16.3013 20.648 21.4042 24 28.2512L24 25.0002C24 17.9352 19.874 11.3702 13.681 8.49425L11.533 9.84625 10.467 8.15425 13.066 6.51725C13.344 6.34225 13.69 6.31425 13.992 6.44325 19.24 8.68425 23.229 13.2683 24.998 18.7083 26.761 13.2622 30.741 8.67725 35.978 6.44225 36.279 6.31425 36.624 6.34125 36.898 6.51425L39.528 8.15125 38.472 9.84925 36.292 8.49225C30.115 11.3603 26 17.9263 26 25.0002L26 28.2693C29.353 21.4062 36.632 16.3013 46.131 14.4452L43.485 12.8573 44.515 11.1433 49.511 14.1403C49.563 14.1722 49.615 14.2093 49.662 14.2502 49.877 14.4403 50 14.7133 50 15.0002L50 15.0002ZM20.515 4.85725 19.485 3.14325 24.485 0.14325C24.802-0.04775 25.198-0.04775 25.515 0.14325L30.515 3.14325 29.485 4.85725 26 2.76625 26 7.00025 24 7.00025 24 2.76625 20.515 4.85725Z" id="AWS-ThinkBox-Krakatoa_64_Squid"/></g></g></svg>