<svg width="48" height="48" viewBox="0 0 48 48" xmlns="http://www.w3.org/2000/svg" xmlns:xlink="http://www.w3.org/1999/xlink" overflow="hidden"><g id="Icon-Resource/Security-Identity-and-Compliance/Res_AWS-WAF_Managed-Rule_48" stroke="none" stroke-width="1" fill="none" fill-rule="evenodd"><path d="M13 10.0615C14.72 10.0615 16.118 11.4605 16.118 13.1795 16.118 14.8985 14.72 16.2975 13 16.2975 11.28 16.2975 9.882 14.8985 9.882 13.1795 9.882 11.4605 11.28 10.0615 13 10.0615L13 10.0615ZM13 18.2975C15.822 18.2975 18.118 16.0015 18.118 13.1795 18.118 10.3575 15.822 8.0615 13 8.0615 10.178 8.0615 7.882 10.3575 7.882 13.1795 7.882 16.0015 10.178 18.2975 13 18.2975L13 18.2975ZM4.18 11.9625 6.064 11.9625 6.262 11.2185C6.419 10.6255 6.667 10.1755 6.976 9.6485L7.366 8.9815 6.032 7.6525 7.52 6.1715 8.312 6.9595 8.938 7.4525 9.602 7.0675C10.144 6.7535 10.501 6.5455 11.037 6.4045L11.782 6.2075 11.782 4.3595 14.218 4.3595 14.218 6.2355 14.959 6.4345C15.482 6.5745 15.833 6.7815 16.446 7.1435L17.118 7.5405 18.426 6.2135 19.878 7.6855 18.565 9.0165 18.943 9.6755C19.296 10.2895 19.502 10.6635 19.646 11.2145L19.841 11.9625 21.82 11.9625 21.82 14.3965 19.934 14.3965 19.736 15.1405C19.59 15.6945 19.369 16.0845 19.023 16.6755L18.631 17.3445 19.965 18.6705 18.478 20.1495 17.142 18.8215 16.376 19.2645C15.844 19.5735 15.492 19.7775 14.964 19.9155L14.218 20.1125 14.218 21.9995 11.782 21.9995 11.782 20.1155 11.039 19.9175C10.46 19.7635 10.028 19.5245 9.482 19.2045L8.813 18.8125 7.489 20.1455 6.014 18.6595 6.801 17.8675 7.292 17.2415 6.908 16.5795C6.595 16.0375 6.388 15.6785 6.246 15.1425L6.051 14.3965 4.18 14.3965 4.18 11.9625ZM3.589 16.3965 4.562 16.3965C4.648 16.6035 4.744 16.7985 4.849 16.9945L4.181 17.6675C3.639 18.2145 3.639 19.1045 4.181 19.6525L6.49 21.9775C7.023 22.5135 7.955 22.5145 8.488 21.9775L9.151 21.3105C9.354 21.4155 9.561 21.5135 9.782 21.6035L9.782 22.5905C9.782 23.3675 10.414 23.9995 11.191 23.9995L14.809 23.9995C15.586 23.9995 16.218 23.3675 16.218 22.5905L16.218 21.5995C16.428 21.5125 16.622 21.4165 16.813 21.3145L17.484 21.9835C18.035 22.5275 18.926 22.5275 19.471 21.9825L21.796 19.6715C22.064 19.4045 22.213 19.0495 22.213 18.6705 22.213 18.2925 22.064 17.9365 21.797 17.6715L21.132 17.0105C21.234 16.8165 21.331 16.6145 21.42 16.3965L22.411 16.3965C23.188 16.3965 23.82 15.7655 23.82 14.9885L23.82 11.3715C23.82 10.5945 23.188 9.9625 22.411 9.9625L21.334 9.9625C21.246 9.7445 21.149 9.5415 21.048 9.3465L21.711 8.6755C22.25 8.1295 22.25 7.2415 21.711 6.6955L19.431 4.3835C18.895 3.8405 17.955 3.8425 17.423 4.3835L16.784 5.0305C16.603 4.9325 16.417 4.8405 16.218 4.7565L16.218 3.7685C16.218 2.9915 15.586 2.3595 14.809 2.3595L11.191 2.3595C10.414 2.3595 9.782 2.9915 9.782 3.7685L9.782 4.7215C9.576 4.8075 9.381 4.9025 9.185 5.0075L8.515 4.3405C7.97 3.7945 7.077 3.7915 6.524 4.3395L4.202 6.6525C3.934 6.9195 3.785 7.2745 3.785 7.6535 3.785 8.0315 3.934 8.3865 4.2 8.6515L4.871 9.3185C4.766 9.5225 4.666 9.7355 4.575 9.9625L3.589 9.9625C2.812 9.9625 2.18 10.5945 2.18 11.3715L2.18 14.9885C2.18 15.7655 2.812 16.3965 3.589 16.3965L3.589 16.3965ZM32.592 40.4145 34.945 38.0605 32.592 35.7075 34.006 34.2925 36.359 36.6465 38.713 34.2925 40.127 35.7075 37.773 38.0605 40.127 40.4145 38.713 41.8285 36.359 39.4745 34.006 41.8285 32.592 40.4145ZM41.066 22.2805 35.73 27.6165 31.781 24.8155 32.937 23.1845 35.51 25.0085 39.652 20.8665 41.066 22.2805ZM41.066 8.2805 35.73 13.6165 31.781 10.8155 32.937 9.1845 35.51 11.0085 39.652 6.8665 41.066 8.2805ZM4 43.9995 44 43.9995 44 31.9995 4 31.9995 4 43.9995ZM23 1.9995 23 3.9995 44 3.9995 44 15.9995 26 15.9995 26 17.9995 44 17.9995 44 29.9995 4 29.9995 4 22.9995 2 22.9995 2 29.9995 2 30.9995 2 45.9995 46 45.9995 46 30.9995 46 29.9995 46 16.9995 46 15.9995 46 1.9995 23 1.9995Z" id="Fill-1" fill="#DD344C"/></g></svg>