<svg width="48" height="48" viewBox="0 0 48 48" xmlns="http://www.w3.org/2000/svg" xmlns:xlink="http://www.w3.org/1999/xlink" overflow="hidden"><g id="Icon-Resource/IoT/Res_AWS-IoT_Alexa_Skill_48" stroke="none" stroke-width="1" fill="none" fill-rule="evenodd"><path d="M26.734 36.476C31.203 33.628 34.115 28.915 34.115 23.933 34.115 18.135 29.398 13.417 23.599 13.417 17.8 13.417 13.082 18.135 13.082 23.933 13.082 28.162 15.603 31.964 19.503 33.62 20.054 33.853 20.41 34.375 20.41 34.947L20.41 36.468C19.778 36.309 19.153 36.122 18.552 35.866 13.747 33.823 10.643 29.139 10.643 23.933 10.643 16.79 16.455 10.977 23.599 10.977 30.742 10.977 36.555 16.79 36.555 23.933 36.555 28.642 33.984 32.991 29.844 35.281 28.865 35.822 27.815 36.21 26.734 36.476ZM15.082 23.933C15.082 19.237 18.903 15.417 23.599 15.417 28.295 15.417 32.115 19.237 32.115 23.933 32.115 29.333 28.104 34.385 22.41 36.367L22.41 34.947C22.41 33.57 21.575 32.326 20.284 31.778 17.124 30.437 15.082 27.358 15.082 23.933ZM8.643 23.933C8.643 29.943 12.225 35.349 17.77 37.706 18.894 38.183 20.064 38.5 21.26 38.689 21.311 38.696 21.359 38.714 21.41 38.714 21.412 38.714 21.415 38.713 21.418 38.713 22.136 38.818 22.862 38.889 23.599 38.889 26.121 38.889 28.615 38.247 30.813 37.031 35.588 34.388 38.555 29.37 38.555 23.933 38.555 15.686 31.846 8.977 23.599 8.977 15.352 8.977 8.643 15.686 8.643 23.933ZM43.868 39.42C43.868 41.873 41.873 43.868 39.421 43.868L8.448 43.868C5.995 43.868 4 41.873 4 39.42L4 8.448C4 5.995 5.995 4 8.448 4L39.421 4C41.873 4 43.868 5.995 43.868 8.448L43.868 39.42ZM8.448 2C4.893 2 2 4.892 2 8.448L2 39.42C2 42.975 4.893 45.868 8.448 45.868L39.421 45.868C42.976 45.868 45.868 42.975 45.868 39.42L45.868 8.448C45.868 4.892 42.976 2 39.421 2L8.448 2Z" id="Amazon-IOT-RESOURCES-Alexa-skill_Resource-Icon_light-bg" fill="#7AA116"/></g></svg>