<svg width="48" height="48" viewBox="0 0 48 48" xmlns="http://www.w3.org/2000/svg" xmlns:xlink="http://www.w3.org/1999/xlink" overflow="hidden"><g id="Icon-Resource/IoT/Res_AWS-IoT_Thing_Industrial-PC_48" stroke="none" stroke-width="1" fill="none" fill-rule="evenodd"><path d="M17 29 21 29 21 27 17 27 17 29ZM27 29 33 29 33 27 27 27 27 29ZM27 26 33 26 33 24 27 24 27 26ZM20 26 23 26 23 24 20 24 20 26ZM15 26 18 26 18 24 15 24 15 26ZM33 20 33 17 34.632 17C34.831 17 35 17.168 35 17.368L35 20 33 20ZM35 30.632C35 30.832 34.831 31 34.632 31L13.368 31C13.169 31 13 30.832 13 30.632L13 22 35 22 35 30.632ZM13.368 17 15 17 15 20 13 20 13 17.368C13 17.168 13.169 17 13.368 17L13.368 17ZM17 20 19 20 19 17 17 17 17 20ZM21 20 23 20 23 17 21 17 21 20ZM25 20 27 20 27 17 25 17 25 20ZM29 20 31 20 31 17 29 17 29 20ZM34.632 15 13.368 15C12.063 15 11 16.063 11 17.368L11 30.632C11 31.937 12.063 33 13.368 33L34.632 33C35.938 33 37 31.937 37 30.632L37 22 37 20 37 17.368C37 16.063 35.938 15 34.632 15L34.632 15ZM39 37.865C39 38.491 38.491 39 37.865 39L10.135 39C9.509 39 9 38.491 9 37.865L9 10.135C9 9.509 9.509 9 10.135 9L37.865 9C38.491 9 39 9.509 39 10.135L39 37.865ZM46 15 46 13 41 13 41 10.135C41 8.406 39.594 7 37.865 7L35 7 35 2 33 2 33 7 30 7 30 2 28 2 28 7 25 7 25 2 23 2 23 7 20 7 20 2 18 2 18 7 15 7 15 2 13 2 13 7 10.135 7C8.406 7 7 8.406 7 10.135L7 13 2 13 2 15 7 15 7 18 2 18 2 20 7 20 7 23 2 23 2 25 7 25 7 28 2 28 2 30 7 30 7 33 2 33 2 35 7 35 7 37.865C7 39.594 8.406 41 10.135 41L13 41 13 46 15 46 15 41 18 41 18 46 20 46 20 41 23 41 23 46 25 46 25 41 28 41 28 46 30 46 30 41 33 41 33 46 35 46 35 41 37.865 41C39.594 41 41 39.594 41 37.865L41 35 46 35 46 33 41 33 41 30 46 30 46 28 41 28 41 25 46 25 46 23 41 23 41 20 46 20 46 18 41 18 41 15 46 15Z" id="Fill-1" fill="#7AA116"/></g></svg>