<svg width="80" height="80" viewBox="0 0 80 80" xmlns="http://www.w3.org/2000/svg" xmlns:xlink="http://www.w3.org/1999/xlink" overflow="hidden"><g id="Icon-Architecture/64/Arch_AWS-Support_64" stroke="none" stroke-width="1" fill="none" fill-rule="evenodd"><g id="Icon-Architecture-BG/64/Customer-Enablement" fill="#C925D1"><rect x="0" y="0" width="80" height="80" id="Rectangle"/></g><path d="M56.5 59.453C54.57 59.453 53 57.883 53 55.953 53 54.023 54.57 52.453 56.5 52.453 58.43 52.453 60 54.023 60 55.953 60 57.883 58.43 59.453 56.5 59.453L56.5 59.453ZM56.5 50.453C53.468 50.453 51 52.92 51 55.953 51 58.986 53.468 61.453 56.5 61.453 59.532 61.453 62 58.986 62 55.953 62 52.92 59.532 50.453 56.5 50.453L56.5 50.453ZM66.736 56.992 65.903 56.944C65.431 56.916 64.979 57.245 64.871 57.722 64.652 58.689 64.272 59.606 63.742 60.447 63.481 60.86 63.558 61.401 63.922 61.726L64.544 62.282 62.84 63.986 62.288 63.367C61.961 63 61.42 62.927 61.008 63.187 60.167 63.718 59.25 64.098 58.281 64.317 57.804 64.425 57.475 64.862 57.503 65.35L57.55 66.177 55.141 66.177 55.188 65.349C55.216 64.86 54.887 64.424 54.41 64.316 53.443 64.097 52.526 63.717 51.685 63.185 51.271 62.925 50.729 62.998 50.404 63.365L49.851 63.986 48.146 62.282 48.767 61.728C49.131 61.403 49.207 60.862 48.946 60.448 48.416 59.608 48.037 58.691 47.818 57.723 47.711 57.245 47.23 56.916 46.786 56.944L45.955 56.992 45.955 54.581 46.79 54.629C47.255 54.644 47.714 54.329 47.822 53.852 48.042 52.885 48.422 51.97 48.952 51.131 49.213 50.718 49.137 50.176 48.772 49.85L48.146 49.291 49.851 47.587 50.409 48.213C50.735 48.578 51.276 48.653 51.688 48.392 52.528 47.863 53.443 47.484 54.41 47.266 54.887 47.158 55.216 46.722 55.188 46.234L55.141 45.396 57.551 45.396 57.503 46.235C57.475 46.723 57.804 47.16 58.28 47.267 59.245 47.485 60.16 47.864 61.001 48.394 61.411 48.654 61.955 48.58 62.28 48.214L62.84 47.587 64.545 49.291 63.92 49.849C63.556 50.174 63.479 50.716 63.741 51.129 64.271 51.967 64.65 52.883 64.869 53.85 64.977 54.328 65.431 54.644 65.901 54.629L66.736 54.581 66.736 56.992ZM68.423 52.795C68.224 52.607 67.948 52.507 67.68 52.524L66.6 52.586C66.407 51.968 66.159 51.371 65.858 50.799L66.666 50.079C66.871 49.896 66.992 49.636 67 49.361 67.008 49.086 66.901 48.82 66.707 48.626L63.506 45.424C63.311 45.229 63.052 45.115 62.771 45.132 62.495 45.14 62.235 45.26 62.053 45.466L61.329 46.277C60.757 45.976 60.161 45.729 59.546 45.537L59.607 44.453C59.623 44.178 59.525 43.909 59.336 43.709 59.147 43.509 58.885 43.396 58.609 43.396L54.082 43.396C53.807 43.396 53.544 43.509 53.355 43.709 53.166 43.909 53.068 44.178 53.084 44.453L53.146 45.536C52.528 45.728 51.933 45.974 51.36 46.275L50.638 45.465C50.454 45.26 50.194 45.14 49.92 45.132 49.663 45.118 49.379 45.229 49.185 45.424L45.983 48.626C45.789 48.82 45.683 49.086 45.69 49.361 45.698 49.636 45.819 49.896 46.024 50.079L46.834 50.801C46.533 51.373 46.286 51.969 46.093 52.586L45.012 52.524C44.733 52.506 44.467 52.607 44.269 52.795 44.068 52.984 43.955 53.247 43.955 53.522L43.955 58.05C43.955 58.325 44.068 58.588 44.269 58.777 44.467 58.966 44.734 59.062 45.012 59.049L46.088 58.987C46.28 59.605 46.527 60.203 46.829 60.777L46.024 61.494C45.819 61.677 45.698 61.937 45.69 62.212 45.683 62.487 45.789 62.753 45.983 62.947L49.185 66.148C49.379 66.343 49.66 66.451 49.92 66.441 50.195 66.433 50.454 66.312 50.638 66.107L51.355 65.303C51.929 65.605 52.527 65.853 53.145 66.045L53.084 67.12C53.068 67.394 53.166 67.663 53.355 67.863 53.544 68.063 53.807 68.177 54.082 68.177L58.609 68.177C58.885 68.177 59.147 68.063 59.337 67.863 59.525 67.663 59.623 67.394 59.607 67.119L59.546 66.047C60.165 65.854 60.764 65.606 61.337 65.305L62.053 66.107C62.235 66.312 62.495 66.433 62.771 66.441 63.055 66.453 63.312 66.343 63.506 66.148L66.707 62.947C66.901 62.753 67.008 62.487 67 62.212 66.992 61.937 66.871 61.677 66.666 61.494L65.86 60.775C66.161 60.202 66.409 59.604 66.601 58.987L67.68 59.049C67.947 59.061 68.224 58.966 68.423 58.777 68.623 58.588 68.736 58.325 68.736 58.05L68.736 53.522C68.736 53.247 68.623 52.984 68.423 52.795L68.423 52.795ZM30.11 32.953C30.11 28.817 33.475 25.453 37.61 25.453 41.746 25.453 45.11 28.817 45.11 32.953 45.11 37.089 41.746 40.453 37.61 40.453 33.475 40.453 30.11 37.089 30.11 32.953L30.11 32.953ZM37.023 65.362 25.217 58.989 25.524 58.993C25.645 49.729 31.11 42.472 37.968 42.472 40.541 42.472 43.014 43.558 45.12 45.612L46.517 44.18C45.181 42.877 43.707 41.916 42.15 41.295 45.104 39.682 47.11 36.548 47.11 32.953 47.11 27.715 42.849 23.453 37.61 23.453 32.372 23.453 28.11 27.715 28.11 32.953 28.11 36.665 30.256 39.878 33.366 41.44 27.893 43.787 23.939 50.226 23.568 58.099L14 52.933 14 26.427 37.6 14.263 60 26.412 60 41.348 62 41.348 62 25.222 37.623 12 12 25.208 12 54.127 36.977 67.609 42.437 64.954 41.562 63.156 37.023 65.362Z" id="AWS-Support_64_Squid" fill="#FFFFFF"/></g></svg>