<svg width="48" height="48" viewBox="0 0 48 48" xmlns="http://www.w3.org/2000/svg" xmlns:xlink="http://www.w3.org/1999/xlink" overflow="hidden"><g id="Icon-Resource/Networking-and-Content-Delivery/Res_AWS-App-Mesh_Mesh_48" stroke="none" stroke-width="1" fill="none" fill-rule="evenodd"><path d="M42.5213 33.852C41.5583 34.815 39.8763 34.815 38.9142 33.852 37.9183 32.857 37.9183 31.239 38.9142 30.244 39.4113 29.747 40.0643 29.498 40.7173 29.498 41.3713 29.498 42.0243 29.747 42.5213 30.244 43.0023 30.725 43.2682 31.367 43.2682 32.048 43.2682 32.73 43.0023 33.371 42.5213 33.852M25.2952 43.254C24.3013 44.248 22.6812 44.248 21.6873 43.254 21.2062 42.773 20.9403 42.131 20.9403 41.45 20.9403 40.768 21.2062 40.127 21.6873 39.646 22.1682 39.164 22.8092 38.899 23.4912 38.899 24.1723 38.899 24.8143 39.164 25.2952 39.646 26.2903 40.64 26.2903 42.259 25.2952 43.254M21.6873 22.737C22.1842 22.24 22.8372 21.991 23.4912 21.991 24.1443 21.991 24.7973 22.24 25.2952 22.737 26.2903 23.732 26.2903 25.35 25.2952 26.345 24.3333 27.308 22.6502 27.308 21.6873 26.345 20.6922 25.35 20.6922 23.732 21.6873 22.737M20.9403 6.551C20.9403 5.87 21.2062 5.229 21.6873 4.748 22.1682 4.266 22.8092 4 23.4912 4 24.1723 4 24.8132 4.266 25.2952 4.748 26.2903 5.743 26.2903 7.361 25.2952 8.356 24.3022 9.349 22.6822 9.351 21.6873 8.356 21.2062 7.874 20.9403 7.233 20.9403 6.551M5.74525 36.852C4.75025 35.857 4.75025 34.239 5.74525 33.244 6.24225 32.747 6.89525 32.498 7.54925 32.498 8.20325 32.498 8.85625 32.747 9.35325 33.244 10.0732 33.963 10.2633 35.007 9.94225 35.908L9.79225 36.238C9.67625 36.457 9.53825 36.667 9.35325 36.852 8.36025 37.845 6.74025 37.847 5.74525 36.852M5.74525 15.149C6.24225 14.652 6.89525 14.404 7.54925 14.404 8.20325 14.404 8.85625 14.652 9.35325 15.149 10.3472 16.144 10.3472 17.762 9.35325 18.757 8.36025 19.75 6.74025 19.752 5.74525 18.757 4.75025 17.762 4.75025 16.144 5.74525 15.149M38.9142 11.149C39.4113 10.652 40.0643 10.403 40.7173 10.403 41.3713 10.403 42.0243 10.652 42.5213 11.149 43.5163 12.144 43.5163 13.762 42.5213 14.757 41.5583 15.72 39.8763 15.72 38.9142 14.757 37.9183 13.762 37.9183 12.144 38.9142 11.149M43.9352 28.83C42.1623 27.054 39.2733 27.054 37.5003 28.83 36.1813 30.148 35.8462 32.08 36.4873 33.714L27.5362 39.41C27.3242 38.988 27.0613 38.583 26.7092 38.232 26.0982 37.621 25.3382 37.215 24.5163 37.026L24.5163 28.965C25.3382 28.776 26.0982 28.371 26.7092 27.759 27.8622 26.607 28.2523 24.986 27.9072 23.504L37.7293 16.361C38.5592 17.089 39.6022 17.504 40.7173 17.504 41.9333 17.504 43.0773 17.031 43.9352 16.171 45.7093 14.397 45.7093 11.509 43.9352 9.735 42.1623 7.959 39.2733 7.959 37.5003 9.735 36.1452 11.089 35.8332 13.088 36.5452 14.749L27.0063 21.687C26.9083 21.565 26.8232 21.436 26.7092 21.323 26.0842 20.698 25.3202 20.306 24.5163 20.121L24.5163 10.971C25.3202 10.787 26.0853 10.394 26.7092 9.77 28.4832 7.996 28.4832 5.108 26.7092 3.333 25.8503 2.474 24.7073 2 23.4912 2 22.2752 2 21.1313 2.474 20.2733 3.333 19.4142 4.192 18.9403 5.335 18.9403 6.551 18.9403 7.767 19.4142 8.911 20.2733 9.77 20.9112 10.408 21.6943 10.806 22.5163 10.986L22.5163 20.106C21.6943 20.286 20.9112 20.685 20.2733 21.323 18.4993 23.097 18.4993 25.985 20.2733 27.759 20.8972 28.383 21.6733 28.797 22.5163 28.981L22.5163 37.01C21.6733 37.194 20.8972 37.608 20.2733 38.232 19.9613 38.542 19.7202 38.901 19.5142 39.277L12.0203 35.867C12.2782 34.446 11.8632 32.926 10.7673 31.83 10.1272 31.19 9.34025 30.79 8.51625 30.612L8.51625 21.39C9.34125 21.212 10.1272 20.812 10.7673 20.171 12.5413 18.397 12.5413 15.509 10.7673 13.735 8.99225 11.961 6.10625 11.963 4.33125 13.735 2.55625 15.509 2.55625 18.397 4.33125 20.171 4.95425 20.794 5.71525 21.185 6.51625 21.371L6.51625 30.631C5.71525 30.818 4.95425 31.208 4.33125 31.83 2.55625 33.604 2.55625 36.492 4.33125 38.266 5.21825 39.154 6.38325 39.597 7.54925 39.597 8.71425 39.597 9.87925 39.154 10.7673 38.266 10.9423 38.091 11.0863 37.898 11.2273 37.703L18.9622 41.222C18.9592 41.298 18.9403 41.373 18.9403 41.45 18.9403 42.665 19.4142 43.809 20.2733 44.668 21.1602 45.555 22.3253 45.999 23.4912 45.999 24.6562 45.999 25.8223 45.555 26.7092 44.668 27.5942 43.784 28.0362 42.623 28.0403 41.461L37.6203 35.365C38.4652 36.155 39.5532 36.599 40.7173 36.599 41.9333 36.599 43.0773 36.125 43.9352 35.266 44.7943 34.408 45.2682 33.264 45.2682 32.048 45.2682 30.832 44.7943 29.689 43.9352 28.83" id="AWS-App-Mesh-Mesh_Resource-Icon_light-bg" fill="#8C4FFF"/></g></svg>