<svg width="48" height="48" viewBox="0 0 48 48" xmlns="http://www.w3.org/2000/svg" xmlns:xlink="http://www.w3.org/1999/xlink" overflow="hidden"><g id="Icon-Resource/IoT/Res_AWS-IoT-Greengrass_Component-Machine-Learning_48" stroke="none" stroke-width="1" fill="none" fill-rule="evenodd"><path d="M4 24C4 22.897 4.897 22 6 22 7.103 22 8 22.897 8 24 8 25.103 7.103 26 6 26 4.897 26 4 25.103 4 24L4 24ZM24 4C25.103 4 26 4.897 26 6 26 7.103 25.103 8 24 8 22.897 8 22 7.103 22 6 22 4.897 22.897 4 24 4L24 4ZM10.961 35.532C9.036 33.336 7.688 30.678 7.06 27.839 8.749 27.372 10 25.836 10 24 10 22.179 8.77 20.656 7.103 20.174 8.604 13.762 13.757 8.646 20.206 7.205 20.721 8.819 22.217 10 24 10 25.78 10 27.274 8.823 27.792 7.213 29.593 7.616 31.31 8.294 32.905 9.255L33.938 7.542C32.065 6.414 30.043 5.644 27.92 5.205 27.55 3.379 25.934 2 24 2 22.071 2 20.459 3.371 20.083 5.189 12.612 6.728 6.647 12.679 5.071 20.12 3.314 20.541 2 22.115 2 24 2 25.866 3.29 27.426 5.022 27.865 5.69 31.233 7.27 34.389 9.563 36.963L7.016 36.924 6.984 38.924 11.908 39 11.924 39C12.184 39 12.434 38.899 12.62 38.718 12.811 38.533 12.92 38.28 12.924 38.015L13 33.015 11 32.985 10.961 35.532ZM42 26C40.897 26 40 25.103 40 24 40 22.897 40.897 22 42 22 43.103 22 44 22.897 44 24 44 25.103 43.103 26 42 26L42 26ZM24 44C22.897 44 22 43.103 22 42 22 40.897 22.897 40 24 40 25.103 40 26 40.897 26 42 26 43.103 25.103 44 24 44L24 44ZM46 24C46 22.096 44.66 20.503 42.874 20.103 42.159 16.709 40.558 13.605 38.201 11.043L41.016 11 40.984 9 35.984 9.076C35.72 9.081 35.467 9.189 35.282 9.38 35.098 9.57 34.996 9.826 35 10.092L35.076 15.016 37.076 14.984 37.041 12.731C38.914 14.877 40.209 17.423 40.848 20.189 39.206 20.687 38 22.198 38 24 38 25.82 39.229 27.342 40.896 27.825 39.469 34.305 34.354 39.495 27.854 40.987 27.402 39.273 25.854 38 24 38 22.144 38 20.594 39.276 20.145 40.993 18.33 40.583 16.6 39.905 14.999 38.933L13.962 40.643C15.88 41.808 17.964 42.602 20.154 43.041 20.616 44.74 22.156 46 24 46 25.847 46 27.39 44.736 27.848 43.033 35.437 41.483 41.427 35.432 42.931 27.879 44.688 27.457 46 25.884 46 24L46 24ZM20.972 33.488 16.478 30.831 16.478 29 19 29 19 31 21 31 21 28C21 27.448 20.553 27 20 27L16 27 16 27.005C15.98 26.993 15.966 26.977 15.945 26.966L13.478 25.662 13.478 21.768 15.947 20.453C16.273 20.279 16.478 19.939 16.478 19.57L16.478 19 21 19 21 17 16.478 17 16.478 16.716 21.002 14.126 22.828 15.296 22.828 21 19 21C18.447 21 18 21.448 18 22L18 25 20 25 20 23 22.828 23 22.828 32.413 20.972 33.488ZM26.919 14.107 31.478 16.716 31.478 19.57C31.478 19.939 31.682 20.279 32.008 20.453L34.478 21.768 34.478 22 30 22C29.447 22 29 22.448 29 23L29 25 26 25 26 27 30 27C30.553 27 31 26.552 31 26L31 24 34.478 24 34.478 25.662 32.01 26.966C31.683 27.139 31.478 27.479 31.478 27.85L31.478 30.831 28 32.887 28 31 29 31 29 29 27 29C26.447 29 26 29.448 26 30L26 32.855 24.828 32.127 24.828 20 29 20C29.553 20 30 19.552 30 19L30 17 28 17 28 18 24.828 18 24.828 15.283 26.919 14.107ZM26.46 35.496C26.622 35.597 26.805 35.647 26.988 35.647 27.164 35.647 27.34 35.601 27.497 35.508L32.986 32.262C33.291 32.082 33.478 31.755 33.478 31.401L33.478 28.453 35.945 27.148C36.272 26.975 36.478 26.635 36.478 26.264L36.478 21.167C36.478 20.797 36.273 20.458 35.947 20.284L33.478 18.969 33.478 16.136C33.478 15.777 33.285 15.446 32.975 15.268L27.42 12.089C27.114 11.916 26.74 11.914 26.433 12.086L23.818 13.556 21.57 12.116C21.257 11.914 20.857 11.905 20.534 12.089L14.98 15.268C14.67 15.446 14.478 15.777 14.478 16.136L14.478 18.969 12.008 20.284C11.682 20.458 11.478 20.797 11.478 21.167L11.478 26.264C11.478 26.635 11.683 26.975 12.01 27.148L14.478 28.453 14.478 31.401C14.478 31.755 14.664 32.082 14.969 32.262L20.458 35.508C20.77 35.692 21.156 35.694 21.468 35.512L23.992 34.049 23.988 34.042 24.122 34.042 26.46 35.496Z" id="Fill-1" fill="#7AA116"/></g></svg>