<svg width="80" height="80" viewBox="0 0 80 80" xmlns="http://www.w3.org/2000/svg" xmlns:xlink="http://www.w3.org/1999/xlink" overflow="hidden"><g id="Icon-Architecture/64/Arch_Amazon-Augmented-AI-A2I_64" stroke="none" stroke-width="1" fill="none" fill-rule="evenodd"><g id="Icon-Architecture-BG/64/Machine-Learning" fill="#01A88D"><rect x="0" y="0" width="80" height="80" id="Rectangle"/></g><path d="M52.823 66.0097C52.515 62.1267 50.437 58.5687 47.244 56.5557 45.478 55.4437 43.452 54.8547 41.385 54.8547 35.375 54.8547 30.429 59.7737 29.947 66.0097L52.823 66.0097ZM41.406 52.8547C44.844 52.8547 47.64 50.0577 47.64 46.6197 47.64 43.1817 44.844 40.3847 41.406 40.3847 37.968 40.3847 35.171 43.1817 35.171 46.6197 35.171 50.0577 37.968 52.8547 41.406 52.8547L41.406 52.8547ZM54.862 67.0097C54.862 67.5617 54.415 68.0097 53.862 68.0097L28.909 68.0097C28.356 68.0097 27.909 67.5617 27.909 67.0097 27.909 60.7887 31.755 55.5047 37.075 53.6107 34.736 52.1567 33.171 49.5707 33.171 46.6197 33.171 42.0787 36.865 38.3847 41.406 38.3847 45.946 38.3847 49.64 42.0787 49.64 46.6197 49.64 49.5727 48.073 52.1587 45.733 53.6137 46.629 53.9327 47.494 54.3487 48.31 54.8637 52.351 57.4107 54.862 62.0647 54.862 67.0097L54.862 67.0097ZM20.501 41.1577 21.53 42.8727 27.388 39.3587 31.022 41.5557 32.057 39.8447 28.063 37.4287 28.064 33.1157 34.56 29.3907C34.872 29.2127 35.063 28.8817 35.063 28.5237L35.063 18.9927 33.063 18.9927 33.063 27.9447 27.079 31.3757 21.063 28.0197 21.063 20.4997 27.063 16.9217 27.063 23.9927 29.063 23.9927 29.063 15.7287 33.41 13.1357 40.063 16.3357 40.063 35.9927 42.063 35.9927 42.063 15.7067C42.063 15.3227 41.843 14.9717 41.497 14.8057L33.793 11.1007C33.489 10.9557 33.136 10.9717 32.846 11.1427L19.551 19.0727C19.249 19.2537 19.063 19.5797 19.063 19.9317L19.063 27.5077 12.692 30.0557C12.313 30.2077 12.065 30.5727 12.063 30.9807L12 46.1587C11.999 46.5047 12.176 46.8267 12.469 47.0107L19.063 51.1387 19.063 57.8017C19.063 58.1157 19.212 58.4127 19.464 58.6007L24.725 62.5477 25.925 60.9477 21.063 57.3017 21.063 50.5847C21.063 50.4817 21.048 50.3807 21.017 50.2847L26.793 46.8197 25.763 45.1047 19.344 48.9557 14.002 45.6107 14.025 40.0097 20.215 36.2957 19.185 34.5807 14.035 37.6707 14.06 31.6627 19.552 29.4667 26.064 33.0997 26.063 37.8217 20.501 41.1577ZM51.735 42.3087C52.078 41.1737 52.252 40.0137 52.252 38.8627 52.252 33.5897 48.722 28.9147 43.669 27.4937L43.128 29.4197C47.322 30.5987 50.252 34.4817 50.252 38.8627 50.252 39.8177 50.107 40.7827 49.821 41.7307L51.735 42.3087ZM67.998 43.6387 64.222 53.5177C64.124 53.7757 63.924 53.9807 63.669 54.0857 63.414 54.1907 63.128 54.1857 62.877 54.0727L59.636 52.6117C59.494 52.8387 59.36 53.0577 59.229 53.2707 58.341 54.7177 57.574 55.9687 55.827 57.2877L54.622 55.6907C56.067 54.6007 56.678 53.6037 57.525 52.2247 57.799 51.7787 58.09 51.3047 58.429 50.7927 58.701 50.3847 59.227 50.2337 59.674 50.4347L62.732 51.8137 65.751 43.9147 62.538 42.8937C62.071 42.7447 61.78 42.2807 61.851 41.7957 62.207 39.3687 62.138 36.8997 61.649 34.4537 61.553 33.9747 61.818 33.4957 62.275 33.3227L65.414 32.1337 61.954 24.4137 58.974 25.9637C58.538 26.1887 58.008 26.0677 57.715 25.6777 56.217 23.6927 54.418 21.9957 52.368 20.6347 51.961 20.3637 51.809 19.8377 52.01 19.3907L53.39 16.3197 45.4 13.2767 44.239 15.9967 42.399 15.2117 43.938 11.6077C44.149 11.1137 44.714 10.8747 45.214 11.0657L55.093 14.8277C55.35 14.9267 55.555 15.1257 55.661 15.3807 55.766 15.6347 55.762 15.9217 55.649 16.1727L54.176 19.4517C55.896 20.6867 57.443 22.1467 58.788 23.8057L61.97 22.1497C62.216 22.0237 62.5 22.0027 62.761 22.0927 63.021 22.1827 63.232 22.3767 63.344 22.6277L67.673 32.2837C67.786 32.5347 67.79 32.8217 67.684 33.0767 67.578 33.3307 67.373 33.5307 67.115 33.6277L63.762 34.8977C64.109 37.0107 64.168 39.1367 63.938 41.2397L67.366 42.3287C67.629 42.4127 67.844 42.5997 67.964 42.8477 68.084 43.0957 68.095 43.3827 67.998 43.6387L67.998 43.6387Z" id="Amazon-Augmented-AI-A2I_Icon_64_Squid" fill="#FFFFFF"/></g></svg>