<svg width="48" height="48" viewBox="0 0 48 48" xmlns="http://www.w3.org/2000/svg" xmlns:xlink="http://www.w3.org/1999/xlink" overflow="hidden"><g id="Icon-Resource/Application-Integration/Res_Amazon-EventBridge_Schema-Registry_48" stroke="none" stroke-width="1" fill="none" fill-rule="evenodd"><path d="M38 35.943 34.5 37.964 31 35.943 31 31.901 34.5 29.881 38 31.901 38 35.943ZM39.5 30.458 35 27.86C34.691 27.681 34.309 27.681 34 27.86L29.5 30.458C29.19 30.637 29 30.967 29 31.324L29 36.52C29 36.878 29.19 37.208 29.5 37.386L34 39.985C34.154 40.074 34.327 40.118 34.5 40.118 34.673 40.118 34.846 40.074 35 39.985L39.5 37.386C39.81 37.208 40 36.878 40 36.52L40 31.324C40 30.967 39.81 30.637 39.5 30.458L39.5 30.458ZM17 35.943 13.5 37.964 10 35.943 10 31.901 13.5 29.881 17 31.901 17 35.943ZM18.5 30.458 14 27.86C13.691 27.681 13.309 27.681 13 27.86L8.5 30.458C8.19 30.637 8 30.967 8 31.324L8 36.52C8 36.878 8.19 37.208 8.5 37.386L13 39.985C13.154 40.074 13.327 40.118 13.5 40.118 13.673 40.118 13.846 40.074 14 39.985L18.5 37.386C18.81 37.208 19 36.878 19 36.52L19 31.324C19 30.967 18.81 30.637 18.5 30.458L18.5 30.458ZM31 10.901 34.5 8.881 38 10.901 38 14.943 34.5 16.964 31 14.943 31 10.901ZM29.5 16.386 34 18.985C34.154 19.074 34.327 19.118 34.5 19.118 34.673 19.118 34.846 19.074 35 18.985L39.5 16.386C39.81 16.208 40 15.878 40 15.52L40 10.324C40 9.967 39.81 9.637 39.5 9.458L35 6.86C34.691 6.681 34.309 6.681 34 6.86L29.5 9.458C29.19 9.637 29 9.967 29 10.324L29 15.52C29 15.878 29.19 16.208 29.5 16.386L29.5 16.386ZM10 10.901 13.5 8.881 17 10.901 17 14.943 13.5 16.964 10 14.943 10 10.901ZM8.5 16.386 13 18.985C13.154 19.074 13.327 19.118 13.5 19.118 13.673 19.118 13.846 19.074 14 18.985L18.5 16.386C18.81 16.208 19 15.878 19 15.52L19 10.324C19 9.967 18.81 9.637 18.5 9.458L14 6.86C13.691 6.681 13.309 6.681 13 6.86L8.5 9.458C8.19 9.637 8 9.967 8 10.324L8 15.52C8 15.878 8.19 16.208 8.5 16.386L8.5 16.386ZM25 44 44 44 44 25 25 25 25 44ZM4 44 23 44 23 25 4 25 4 44ZM4 23 23 23 23 4 4 4 4 23ZM25 23 44 23 44 4 25 4 25 23ZM45 2 3 2C2.447 2 2 2.447 2 3L2 45C2 45.552 2.447 46 3 46L45 46C45.553 46 46 45.552 46 45L46 3C46 2.447 45.553 2 45 2L45 2Z" id="Fill-1" fill="#E7157B"/></g></svg>