<svg width="48" height="48" viewBox="0 0 48 48" xmlns="http://www.w3.org/2000/svg" xmlns:xlink="http://www.w3.org/1999/xlink" overflow="hidden"><g id="Icon-Resource/Management-Governance/Res_AWS-Systems-Manager_Patch-Manager_48" stroke="none" stroke-width="1" fill="none" fill-rule="evenodd"><path d="M24.027 2 19.856 6.172 21.269 7.585 24.027 4.829 28.465 9.266 29.879 7.852 24.027 2ZM30.744 17.169 32.744 17.169 32.744 4.306 30.744 4.306 30.744 17.169ZM34.174 20.598 36.174 20.598 36.174 7.736 34.174 7.736 34.174 20.598ZM11.165 10.45 24.027 10.45 24.027 8.45 11.165 8.45 11.165 10.45ZM37.604 24.028 39.604 24.028 39.604 11.166 37.604 11.166 37.604 24.028ZM7.735 13.88 20.596 13.88 20.596 11.88 7.735 11.88 7.735 13.88ZM4.305 17.31 17.166 17.31 17.166 15.31 4.305 15.31 4.305 17.31ZM2 24.028 6.171 28.199 7.585 26.784 4.828 24.028 9.265 19.59 7.851 18.176 2 24.028ZM40.468 21.271 43.227 24.028 38.788 28.465 40.202 29.879 46.055 24.028 41.883 19.857 40.468 21.271ZM8.45 36.889 10.45 36.889 10.45 24.027 8.45 24.027 8.45 36.889ZM11.88 40.318 13.88 40.318 13.88 27.457 11.88 27.457 11.88 40.318ZM30.029 32.745 42.89 32.745 42.89 30.744 30.029 30.744 30.029 32.745ZM15.31 43.749 17.31 43.749 17.31 30.887 15.31 30.887 15.31 43.749ZM26.599 36.174 39.461 36.174 39.461 34.174 26.599 34.174 26.599 36.174ZM23.169 39.604 36.031 39.604 36.031 37.604 23.169 37.604 23.169 39.604ZM18.174 40.203 24.027 46.055 28.198 41.884 26.784 40.47 24.027 43.227 19.588 38.789 18.174 40.203Z" id="AWS-System-Manager_patch-manager_Resource-Icon_light-bg" fill="#E7157B"/></g></svg>