<svg width="48" height="48" viewBox="0 0 48 48" xmlns="http://www.w3.org/2000/svg" xmlns:xlink="http://www.w3.org/1999/xlink" overflow="hidden"><g id="Icon-Resource/IoT/Res_AWS-IoT_Reported-State_48" stroke="none" stroke-width="1" fill="none" fill-rule="evenodd"><path d="M23.9921 34.6826 24.8501 36.1126 23.1341 36.1126 23.9921 34.6826ZM26.6161 38.1126C26.9761 38.1126 27.3081 37.9186 27.4861 37.6056 27.6641 37.2916 27.6591 36.9076 27.4731 36.5976L24.8491 32.2236C24.4881 31.6216 23.4961 31.6216 23.1351 32.2236L20.5111 36.5976C20.3251 36.9076 20.3201 37.2916 20.4981 37.6056 20.6761 37.9186 21.0081 38.1126 21.3681 38.1126L26.6161 38.1126ZM12.0581 34.9246C12.0581 35.5796 11.5261 36.1126 10.8721 36.1126 10.2181 36.1126 9.6851 35.5796 9.6851 34.9246 9.6851 34.2706 10.2181 33.7386 10.8721 33.7386 11.5261 33.7386 12.0581 34.2706 12.0581 34.9246ZM14.0581 34.9246C14.0581 33.1676 12.6291 31.7386 10.8721 31.7386 9.1151 31.7386 7.6851 33.1676 7.6851 34.9246 7.6851 36.6826 9.1151 38.1126 10.8721 38.1126 12.6291 38.1126 14.0581 36.6826 14.0581 34.9246ZM19.7441 39.6106 28.2401 39.6106 28.2401 10.1226 19.7441 10.1226 19.7441 39.6106ZM18.7441 8.1216C18.1911 8.1216 17.7441 8.5696 17.7441 9.1216L17.7441 40.6106C17.7441 41.1626 18.1911 41.6106 18.7441 41.6106L29.2401 41.6106C29.7931 41.6106 30.2401 41.1626 30.2401 40.6106L30.2401 9.1216C30.2401 8.5696 29.7931 8.1216 29.2401 8.1216L18.7441 8.1216ZM6.6241 39.6106 15.1201 39.6106 15.1201 22.3686 6.6241 22.3686 6.6241 39.6106ZM5.6241 20.3686C5.0711 20.3686 4.6241 20.8156 4.6241 21.3686L4.6241 40.6106C4.6241 41.1626 5.0711 41.6106 5.6241 41.6106L16.1201 41.6106C16.6731 41.6106 17.1201 41.1626 17.1201 40.6106L17.1201 21.3686C17.1201 20.8156 16.6731 20.3686 16.1201 20.3686L5.6241 20.3686ZM43.9841 39.5366C43.9841 41.9896 41.9891 43.9846 39.5361 43.9846L8.4481 43.9846C5.9951 43.9846 4.0001 41.9896 4.0001 39.5366L4.0001 8.4476C4.0001 5.9956 5.9951 3.9996 8.4481 3.9996L39.5361 3.9996C41.9891 3.9996 43.9841 5.9956 43.9841 8.4476L43.9841 39.5366ZM8.4481 1.9996C4.8921 1.9996 2.0001 4.8926 2.0001 8.4476L2.0001 39.5366C2.0001 43.0916 4.8921 45.9846 8.4481 45.9846L39.5361 45.9846C43.0921 45.9846 45.9841 43.0916 45.9841 39.5366L45.9841 8.4476C45.9841 4.8926 43.0921 1.9996 39.5361 1.9996L8.4481 1.9996Z" id="Amazon-IOT-RESOURCES-IoT-reported-state_Resource-Icon_light-bg" fill="#7AA116"/></g></svg>