<svg width="48" height="48" viewBox="0 0 48 48" xmlns="http://www.w3.org/2000/svg" xmlns:xlink="http://www.w3.org/1999/xlink" overflow="hidden"><g id="Icon-Resource/Application-Integration/Res_Amazon-Simple-Queue-Service_Queue_48" stroke="none" stroke-width="1" fill="none" fill-rule="evenodd"><path d="M37.449 22.261 37.449 26.221 35.026 24.207 37.449 22.261ZM37.81 29.121C37.993 29.273 38.22 29.352 38.449 29.352 38.594 29.352 38.738 29.321 38.874 29.257 39.224 29.092 39.449 28.74 39.449 28.352L39.449 20.176C39.449 19.791 39.228 19.441 38.882 19.275 38.535 19.108 38.123 19.156 37.823 19.397L32.819 23.414C32.585 23.602 32.448 23.885 32.445 24.185 32.442 24.486 32.575 24.771 32.806 24.963L37.81 29.121ZM10.527 22.307 12.951 24.322 10.527 26.267 10.527 22.307ZM9.095 29.253C9.232 29.32 9.38 29.352 9.527 29.352 9.751 29.352 9.972 29.277 10.153 29.132L15.158 25.115C15.392 24.927 15.529 24.644 15.5321 24.344 15.535 24.043 15.402 23.758 15.171 23.566L10.166 19.407C9.868 19.16 9.453 19.107 9.102 19.271 8.752 19.436 8.527 19.788 8.527 20.176L8.527 28.352C8.527 28.737 8.748 29.087 9.095 29.253L9.095 29.253ZM28.368 34.027 30.368 34.027 30.368 14.747 28.368 14.747 28.368 34.027ZM23.121 34.027 25.121 34.027 25.121 14.747 23.121 14.747 23.121 34.027ZM17.711 34.027 19.711 34.027 19.711 14.747 17.711 14.747 17.711 34.027ZM3.999 35.773 43.977 35.773 43.977 13.001 3.999 13.001 3.999 35.773ZM44.977 11 3 11C2.447 11 2 11.448 2 12L2 36.773C2 37.325 2.447 37.773 3 37.773L44.977 37.773C45.53 37.773 45.977 37.325 45.977 36.773L45.977 12C45.977 11.448 45.53 11 44.977 11L44.977 11Z" id="Amazon-Simple-Notification-Service_Queue" fill="#E7157B"/></g></svg>