<svg width="48" height="48" viewBox="0 0 48 48" xmlns="http://www.w3.org/2000/svg" xmlns:xlink="http://www.w3.org/1999/xlink" overflow="hidden"><g id="Icon-Resource/Management-Governance/Res_Amazon-CloudWatch_Alarm_48" stroke="none" stroke-width="1" fill="none" fill-rule="evenodd"><path d="M41.4246 40.6675 34.6366 40.6675 34.6366 19.8305C36.8216 20.5265 39.2386 20.5265 41.4246 19.8305L41.4246 40.6675ZM41.9946 17.4595C39.4996 18.6475 36.5596 18.6465 34.0666 17.4595 33.7586 17.3125 33.3946 17.3335 33.1026 17.5165 32.8126 17.6995 32.6366 18.0185 32.6366 18.3615L32.6366 41.6675C32.6366 42.2205 33.0836 42.6675 33.6366 42.6675L42.4246 42.6675C42.9776 42.6675 43.4246 42.2205 43.4246 41.6675L43.4246 18.3615C43.4246 18.0185 43.2486 17.6995 42.9586 17.5165 42.6676 17.3335 42.3036 17.3115 41.9946 17.4595L41.9946 17.4595ZM38.0306 4.0005C40.8716 4.0005 43.1826 6.3115 43.1826 9.1515 43.1826 11.9925 40.8716 14.3035 38.0306 14.3035 35.1906 14.3035 32.8796 11.9925 32.8796 9.1515 32.8796 6.3115 35.1906 4.0005 38.0306 4.0005L38.0306 4.0005ZM38.0306 16.3035C41.9746 16.3035 45.1826 13.0955 45.1826 9.1515 45.1826 5.2085 41.9746 2.0005 38.0306 2.0005 34.0876 2.0005 30.8796 5.2085 30.8796 9.1515 30.8796 13.0955 34.0876 16.3035 38.0306 16.3035L38.0306 16.3035ZM2.0006 46.1835 45.9406 46.1835 45.9406 44.1835 2.0006 44.1835 2.0006 46.1835ZM20.5756 40.6675 27.3636 40.6675 27.3636 27.7285 20.5756 27.7285 20.5756 40.6675ZM19.5756 42.6675 28.3636 42.6675C28.9166 42.6675 29.3636 42.2205 29.3636 41.6675L29.3636 26.7285C29.3636 26.1755 28.9166 25.7285 28.3636 25.7285L19.5756 25.7285C19.0236 25.7285 18.5756 26.1755 18.5756 26.7285L18.5756 41.6675C18.5756 42.2205 19.0236 42.6675 19.5756 42.6675L19.5756 42.6675ZM6.5156 40.6675 13.3036 40.6675 13.3036 23.3345 6.5156 23.3345 6.5156 40.6675ZM5.5156 42.6675 14.3036 42.6675C14.8566 42.6675 15.3036 42.2205 15.3036 41.6675L15.3036 22.3345C15.3036 21.7815 14.8566 21.3345 14.3036 21.3345L5.5156 21.3345C4.9626 21.3345 4.5156 21.7815 4.5156 22.3345L4.5156 41.6675C4.5156 42.2205 4.9626 42.6675 5.5156 42.6675L5.5156 42.6675Z" id="Amazon-Cloudwatch_alarm_Resource-Icon_light-bg" fill="#E7157B"/></g></svg>