<svg width="80" height="80" viewBox="0 0 80 80" xmlns="http://www.w3.org/2000/svg" xmlns:xlink="http://www.w3.org/1999/xlink" overflow="hidden"><g id="Icon-Architecture/64/Arch_AWS-Thinkbox-Deadline_64" stroke="none" stroke-width="1" fill="none" fill-rule="evenodd"><g id="Icon-Architecture-BG/64/Compute" fill="#ED7100"><rect x="0" y="0" width="80" height="80" id="Rectangle"/></g><g id="Icon-Service/64/AWS-ThinkBox-Deadline_64" fill="#FFFFFF" transform="translate(15 12)"><path d="M48 40.9169 26 53.2949 26 49.3749 26 41.9659 36.833 35.9859 41.07 38.4319 42.07 36.6999 38 34.3499 38 22.0609 48 16.6739 48 40.9169ZM14 46.3049 14 35.0469 21 31.2289 21 32.9999C21 33.3459 21.18 33.6679 21.475 33.8499 21.635 33.9489 21.817 33.9999 22 33.9999 22.153 33.9999 22.306 33.9639 22.447 33.8939L24 33.1179 24 40.7849 14 46.3049ZM2 39.3149 2 14.5949 24 2.67786 24 6.62486 24 13.9039 12.981 19.8719 8.447 17.6049 7.553 19.3939 12 21.6179 12 33.8599 2 39.3149ZM28.447 30.8939C28.789 30.7229 29.004 30.3719 29 29.9889L29 26.9259 36 23.1379 36 34.1609 26 39.6809 26 32.1179 28.447 30.8939ZM23 26.6079 27 24.5699 27 29.3849 23 31.3809 23 26.6079ZM21.541 25.1109C21.209 25.2829 21 25.6249 21 25.9999L21 28.9519 14 32.7699 14 21.5949 24 16.1779 24 23.8399 21.541 25.1109ZM36 9.67786 36 20.8659 29 24.6669 29 22.9249C28.996 22.5779 28.737 22.2579 28.44 22.0789 28.143 21.8989 27.772 21.8879 27.466 22.0479L26 22.8059 26 15.0949 36 9.67786ZM49.513 14.1409C49.51 14.1389 49.506 14.1389 49.503 14.1369L49.504 14.1359 44.363 11.1359 43.355 12.8629 46.956 14.9639 38 19.7889 38 7.99986C38 7.64686 37.814 7.32086 37.512 7.13986 37.208 6.95886 36.833 6.95186 36.523 7.11986L26 12.8199 26 6.62486 26 2.72686 29.376 4.67586 30.376 2.94286 25.5 0.127861 25.497 0.133861C25.195-0.0391391 24.829-0.0451391 24.523 0.119861L0.523 13.1199C0.201 13.2949 0 13.6319 0 13.9999L0 40.9999C0 41.3529 0.187 41.6789 0.489 41.8589 0.491 41.8609 0.494 41.8609 0.496 41.8619L0.496 41.8629 5.639 44.8629 6.646 43.1359 3.034 41.0289 12 36.1379 12 47.9999C12 48.3539 12.187 48.6809 12.492 48.8609 12.648 48.9529 12.824 48.9999 13 48.9999 13.166 48.9999 13.333 48.9579 13.483 48.8749L24 43.0699 24 49.3749 24 53.2579 20.361 51.1359 19.354 52.8629 24.467 55.8459C24.477 55.8529 24.484 55.8619 24.495 55.8679 24.651 55.9589 24.825 56.0049 25 56.0049 25.169 56.0049 25.338 55.9619 25.49 55.8759L49.49 42.3739C49.805 42.1959 50 41.8629 50 41.5019L50 14.9999C50 14.6469 49.814 14.3209 49.513 14.1409L49.513 14.1409Z" id="AWS-ThinkBox-Deadline_64_Squid"/></g></g></svg>