<svg width="48" height="48" viewBox="0 0 48 48" xmlns="http://www.w3.org/2000/svg" xmlns:xlink="http://www.w3.org/1999/xlink" overflow="hidden"><g id="Icon-Resource/IoT/Res_AWS-IoT_Thing_Humidity-Sensor_48" stroke="none" stroke-width="1" fill="none" fill-rule="evenodd"><path d="M30.115 21.9995C28.758 21.9995 27.654 20.8955 27.654 19.5385 27.654 18.0605 29.072 15.9065 30.115 14.5655 31.159 15.9065 32.577 18.0605 32.577 19.5385 32.577 20.8955 31.472 21.9995 30.115 21.9995L30.115 21.9995ZM29.372 12.3305C28.991 12.7535 25.654 16.5485 25.654 19.5385 25.654 21.9985 27.655 23.9995 30.115 23.9995 32.575 23.9995 34.577 21.9985 34.577 19.5385 34.577 16.5485 31.239 12.7535 30.858 12.3305 30.479 11.9085 29.751 11.9095 29.372 12.3305L29.372 12.3305ZM16.423 22.9995C15.638 22.9995 15 22.3615 15 21.5765 15 20.7805 15.711 19.5575 16.421 18.5925 17.103 19.5235 17.845 20.7675 17.845 21.5765 17.845 22.3615 17.207 22.9995 16.423 22.9995L16.423 22.9995ZM19.845 21.5765C19.845 19.3725 17.44 16.6355 17.166 16.3305 16.787 15.9085 16.058 15.9085 15.679 16.3305 15.405 16.6355 13 19.3725 13 21.5765 13 23.4635 14.535 24.9995 16.423 24.9995 18.31 24.9995 19.845 23.4635 19.845 21.5765L19.845 21.5765ZM23.5 33.9995C21.57 33.9995 20 32.4295 20 30.4995 20 28.3835 22.107 25.2935 23.5 23.5515 24.892 25.2935 27 28.3835 27 30.4995 27 32.4295 25.429 33.9995 23.5 33.9995L23.5 33.9995ZM22.757 21.3305C22.562 21.5465 18 26.6605 18 30.4995 18 33.5325 20.468 35.9995 23.5 35.9995 26.532 35.9995 29 33.5325 29 30.4995 29 26.6605 24.437 21.5465 24.243 21.3305 23.864 20.9085 23.136 20.9085 22.757 21.3305L22.757 21.3305ZM39 37.8655C39 38.4905 38.491 38.9995 37.865 38.9995L10.135 38.9995C9.509 38.9995 9 38.4905 9 37.8655L9 10.1345C9 9.5095 9.509 8.9995 10.135 8.9995L37.865 8.9995C38.491 8.9995 39 9.5095 39 10.1345L39 37.8655ZM46 14.9995 46 12.9995 41 12.9995 41 10.1345C41 8.4065 39.594 6.9995 37.865 6.9995L35 6.9995 35 1.9995 33 1.9995 33 6.9995 30 6.9995 30 1.9995 28 1.9995 28 6.9995 25 6.9995 25 1.9995 23 1.9995 23 6.9995 20 6.9995 20 1.9995 18 1.9995 18 6.9995 15 6.9995 15 1.9995 13 1.9995 13 6.9995 10.135 6.9995C8.406 6.9995 7 8.4065 7 10.1345L7 12.9995 2 12.9995 2 14.9995 7 14.9995 7 17.9995 2 17.9995 2 19.9995 7 19.9995 7 22.9995 2 22.9995 2 24.9995 7 24.9995 7 27.9995 2 27.9995 2 29.9995 7 29.9995 7 32.9995 2 32.9995 2 34.9995 7 34.9995 7 37.8655C7 39.5935 8.406 40.9995 10.135 40.9995L13 40.9995 13 45.9995 15 45.9995 15 40.9995 18 40.9995 18 45.9995 20 45.9995 20 40.9995 23 40.9995 23 45.9995 25 45.9995 25 40.9995 28 40.9995 28 45.9995 30 45.9995 30 40.9995 33 40.9995 33 45.9995 35 45.9995 35 40.9995 37.865 40.9995C39.594 40.9995 41 39.5935 41 37.8655L41 34.9995 46 34.9995 46 32.9995 41 32.9995 41 29.9995 46 29.9995 46 27.9995 41 27.9995 41 24.9995 46 24.9995 46 22.9995 41 22.9995 41 19.9995 46 19.9995 46 17.9995 41 17.9995 41 14.9995 46 14.9995Z" id="Fill-1" fill="#7AA116"/></g></svg>