<svg width="48" height="48" viewBox="0 0 48 48" xmlns="http://www.w3.org/2000/svg" xmlns:xlink="http://www.w3.org/1999/xlink" overflow="hidden"><g id="Icon-Resource/Database/Res_Amazon-ElastiCache_Cache-Node_48" stroke="none" stroke-width="1" fill="none" fill-rule="evenodd"><path d="M33.8887 7.289 37.8607 7.289 37.8607 8.172 34.9867 8.172 34.9867 10.639 37.3627 10.639 37.3627 11.521 34.9867 11.521 34.9867 14.248 37.8607 14.248 37.8607 15.131 33.8887 15.131 33.8887 7.289ZM31.0937 7.289 32.1917 7.289 32.1917 15.131 31.0937 15.131 31.0937 11.566 28.2427 11.566 28.2427 15.131 27.1447 15.131 27.1447 7.289 28.2427 7.289 28.2427 10.673 31.0937 10.673 31.0937 7.289ZM24.4507 14.282C24.7907 14.282 25.2817 14.188 25.9227 13.999L25.9227 14.893C25.4317 15.127 24.9007 15.244 24.3267 15.244 22.3057 15.244 21.2947 13.909 21.2947 11.238 21.2947 9.919 21.5547 8.915 22.0757 8.228 22.5957 7.542 23.3617 7.199 24.3717 7.199 24.8547 7.199 25.3417 7.301 25.8317 7.505L25.8317 8.398C25.3257 8.24 24.8817 8.161 24.4967 8.161 23.7867 8.161 23.2687 8.393 22.9407 8.856 22.6127 9.32 22.4487 10.065 22.4487 11.092L22.4487 11.363C22.4487 12.389 22.6077 13.132 22.9237 13.592 23.2417 14.052 23.7497 14.282 24.4507 14.282L24.4507 14.282ZM16.9497 12.178 17.9227 8.342 18.8957 12.178 16.9497 12.178ZM17.3577 7.289 15.0937 15.131 16.2137 15.131 16.7457 13.015 19.1117 13.015 19.6547 15.131 20.8087 15.131 18.5447 7.289 17.3577 7.289ZM13.1477 14.282C13.4877 14.282 13.9777 14.188 14.6187 13.999L14.6187 14.893C14.1277 15.127 13.5967 15.244 13.0237 15.244 11.0017 15.244 9.9917 13.909 9.9917 11.238 9.9917 9.919 10.2507 8.915 10.7717 8.228 11.2917 7.542 12.0577 7.199 13.0687 7.199 13.5507 7.199 14.0377 7.301 14.5287 7.505L14.5287 8.398C14.0227 8.24 13.5777 8.161 13.1937 8.161 12.4837 8.161 11.9647 8.393 11.6367 8.856 11.3087 9.32 11.1447 10.065 11.1447 11.092L11.1447 11.363C11.1447 12.389 11.3037 13.132 11.6197 13.592 11.9377 14.052 12.4467 14.282 13.1477 14.282L13.1477 14.282ZM43.7787 39.331C43.7787 41.783 41.7837 43.778 39.3307 43.778L8.4487 43.778C5.9947 43.778 3.9997 41.783 3.9997 39.331L3.9997 8.448C3.9997 5.995 5.9947 4 8.4487 4L39.3307 4C41.7837 4 43.7787 5.995 43.7787 8.448L43.7787 39.331ZM39.3307 2 8.4487 2C4.8927 2 1.9997 4.893 1.9997 8.448L1.9997 39.331C1.9997 42.886 4.8927 45.778 8.4487 45.778L39.3307 45.778C42.8857 45.778 45.7787 42.886 45.7787 39.331L45.7787 8.448C45.7787 4.893 42.8857 2 39.3307 2L39.3307 2Z" id="Amazon-DATABASE_Amazon-ElastiCache_Cache-Node_Resource-Icon_light-bg" fill="#C925D1"/></g></svg>