<svg width="80" height="80" viewBox="0 0 80 80" xmlns="http://www.w3.org/2000/svg" xmlns:xlink="http://www.w3.org/1999/xlink" overflow="hidden"><g id="Icon-Architecture/64/Arch_Amazon-FSx-for-NetApp-ONTAP_64" stroke="none" stroke-width="1" fill="none" fill-rule="evenodd"><g id="Icon-Architecture-BG/64/Storage" fill="#7AA116"><rect x="0" y="0" width="80" height="80" id="Rectangle"/></g><g id="Icon-Service/64/Amazon-FSx-for-NetApp-ONTAP_64" fill="#FFFFFF" transform="translate(12 28)"><path d="M42 24.932 47.17 32.616C47.415 32.98 47.868 33.142 48.292 33.015 48.713 32.886 49 32.498 49 32.058L49 20.07 47 20.07 47 28.78 41.83 21.096C41.584 20.731 41.13 20.568 40.708 20.698 40.287 20.826 40 21.214 40 21.654L40 33.07 42 33.07 42 24.932ZM29.473 12.681 30.459 14.073 26.807 19.407 24.617 19.407 29.473 12.681ZM32.577 11.243 34.306 13.702C33.972 14.398 33.713 15.128 33.552 15.888L30.408 11.385 31.513 9.854 35.645 3.956 37.804 3.956 32.577 11.243ZM29.446 10.077 25.103 3.956 27.382 3.956 30.597 8.545 29.446 10.077ZM22.815 11.597C23.413 12.332 23.712 13.252 23.712 14.357 23.712 15.971 23.118 17.276 21.931 18.273 20.744 19.27 19.18 19.769 17.241 19.769 15.228 19.769 13.434 19.388 11.856 18.627L11.856 17.24C13.76 17.929 15.509 18.273 17.105 18.273 18.609 18.273 19.81 17.92 20.708 17.213 21.605 16.506 22.054 15.545 22.054 14.33 22.054 13.587 21.809 12.953 21.319 12.427 20.83 11.901 20.041 11.43 18.954 11.013L15.799 9.789C14.403 9.245 13.379 8.597 12.727 7.845 12.074 7.093 11.748 6.164 11.748 5.058 11.748 3.553 12.287 2.334 13.366 1.4 14.444 0.467 15.863-7.10543e-15 17.621-7.10543e-15 18.419-7.10543e-15 19.257 0.095 20.137 0.285 21.016 0.476 21.845 0.743 22.625 1.087L22.625 2.474C20.776 1.822 19.135 1.495 17.703 1.495 16.307 1.495 15.237 1.799 14.494 2.406 13.751 3.014 13.379 3.879 13.379 5.003 13.379 5.638 13.492 6.15 13.719 6.54 13.946 6.93 14.317 7.283 14.834 7.6 15.351 7.917 16.089 8.257 17.05 8.62L19.96 9.735C21.265 10.242 22.217 10.863 22.815 11.597L22.815 11.597ZM0 19.306 1.604 19.306 1.604 10.55 9.191 10.55 9.191 9.109 1.604 9.109 1.604 1.903 10.578 1.903 10.578 0.462 0 0.462 0 19.306ZM51.708 26.767 51.546 24.774C51.841 24.746 54.478 24.419 54.478 21.579 54.478 19.226 52.651 18.561 51.563 18.374 51.05 18.286 50.696 17.823 50.734 17.315 50.641 16.281 50.184 15.549 49.502 15.35 48.954 15.189 48.379 15.402 48.007 15.906 47.787 16.203 47.424 16.358 47.054 16.3 46.688 16.245 46.382 15.993 46.259 15.644 45.937 14.729 45.472 13.964 44.879 13.369 44.158 12.646 42.18 11.093 39.394 12.273 37.82 12.939 36.54 14.941 36.54 16.735 36.54 16.942 36.553 17.146 36.576 17.347 36.635 17.845 36.316 18.309 35.83 18.433 34.728 18.714 33.414 19.482 33.414 21.544 33.414 21.686 33.42 21.822 33.433 21.953 33.58 23.522 35.004 24.754 36.675 24.755L36.673 26.755C33.981 26.753 31.684 24.724 31.44 22.138 31.424 21.945 31.414 21.748 31.414 21.544 31.414 19.297 32.567 17.558 34.54 16.755L34.54 16.735C34.54 14.125 36.291 11.415 38.614 10.431 41.325 9.282 44.196 9.853 46.295 11.957 46.794 12.457 47.222 13.037 47.576 13.691 48.332 13.289 49.213 13.182 50.063 13.43 51.415 13.826 52.351 14.979 52.649 16.577 54.615 17.155 56.478 18.706 56.478 21.579 56.478 25.377 53.357 26.634 51.708 26.767L51.708 26.767Z" id="Fill-5"/></g></g></svg>