<svg width="48" height="48" viewBox="0 0 48 48" xmlns="http://www.w3.org/2000/svg" xmlns:xlink="http://www.w3.org/1999/xlink" overflow="hidden"><g id="Icon-Resource/Compute/Res_AWS-Elastic-Beanstalk_Application_48" stroke="none" stroke-width="1" fill="none" fill-rule="evenodd"><path d="M30.3558 22.7918C25.7258 27.5208 18.2428 28.2198 14.1828 28.2158 17.9428 25.3398 21.7928 21.9188 25.4478 18.1888 29.2668 14.2898 32.7538 10.1688 35.6678 6.13679 35.6828 10.2948 35.0198 18.0298 30.3558 22.7918M18.3428 8.50579C18.4578 8.41079 18.5768 8.32379 18.6928 8.23179 18.9348 8.04179 19.1798 7.85679 19.4318 7.68379 19.5708 7.58779 19.7108 7.49579 19.8528 7.40479 20.0968 7.24779 20.3438 7.09879 20.5948 6.95579 20.7388 6.87379 20.8798 6.79179 21.0258 6.71479 21.3018 6.56679 21.5828 6.43079 21.8658 6.29879 21.9858 6.24179 22.1038 6.18179 22.2238 6.12779 22.6228 5.95179 23.0238 5.78879 23.4278 5.64079 23.5358 5.60079 23.6428 5.56779 23.7498 5.53079 24.0548 5.42379 24.3618 5.32079 24.6688 5.22879 24.8318 5.17979 24.9948 5.13479 25.1578 5.08979 25.4108 5.01879 25.6638 4.95079 25.9158 4.88879 26.0878 4.84679 26.2588 4.80579 26.4308 4.76679 26.6778 4.71179 26.9228 4.66079 27.1678 4.61179 27.3328 4.57979 27.4988 4.54579 27.6628 4.51779 27.9308 4.46879 28.1958 4.42779 28.4598 4.38879 28.5898 4.36879 28.7238 4.34579 28.8528 4.32779 29.2258 4.27579 29.5908 4.23279 29.9498 4.19679 30.1088 4.18079 30.2608 4.16879 30.4178 4.15479 30.6288 4.13679 30.8398 4.11779 31.0448 4.10379 31.2118 4.09179 31.3748 4.08279 31.5358 4.07379 31.7198 4.06279 31.9018 4.05479 32.0788 4.04779 32.2348 4.04079 32.3898 4.03479 32.5408 4.03079 32.7118 4.02579 32.8778 4.02279 33.0418 4.02079 33.1778 4.02079 33.3178 4.01779 33.4468 4.01779 33.6968 4.01679 33.9358 4.01879 34.1598 4.02279 34.2678 4.02479 34.3648 4.02779 34.4658 4.03079 34.5518 4.03379 34.6338 4.03579 34.7148 4.03879 31.7338 8.28179 28.0638 12.6598 24.0178 16.7888 20.1278 20.7608 16.0148 24.3798 12.0418 27.3328 12.0398 27.2658 12.0378 27.1918 12.0348 27.1208 12.0298 26.9698 12.0248 26.8168 12.0218 26.6488 12.0198 26.5288 12.0198 26.3948 12.0188 26.2668 12.0178 26.1038 12.0158 25.9428 12.0158 25.7688 12.0168 25.6058 12.0218 25.4298 12.0258 25.2588 12.0288 25.0918 12.0298 24.9318 12.0358 24.7568 12.0458 24.4238 12.0618 24.0768 12.0838 23.7178 12.0908 23.5858 12.1038 23.4448 12.1138 23.3098 12.1308 23.0608 12.1488 22.8128 12.1718 22.5548 12.1868 22.3928 12.2078 22.2238 12.2248 22.0578 12.2518 21.8158 12.2768 21.5748 12.3078 21.3268 12.3308 21.1498 12.3598 20.9678 12.3848 20.7878 12.4208 20.5428 12.4578 20.2978 12.4998 20.0498 12.5308 19.8618 12.5678 19.6738 12.6028 19.4838 12.6498 19.2368 12.6988 18.9888 12.7518 18.7388 12.7938 18.5458 12.8398 18.3518 12.8858 18.1568 12.9458 17.9078 13.0078 17.6588 13.0758 17.4088 13.1278 17.2138 13.1838 17.0178 13.2428 16.8218 13.3158 16.5718 13.3948 16.3218 13.4778 16.0728 13.5428 15.8788 13.6088 15.6858 13.6778 15.4918 13.7688 15.2418 13.8678 14.9938 13.9678 14.7458 14.0438 14.5578 14.1208 14.3678 14.2028 14.1818 14.3128 13.9328 14.4328 13.6868 14.5538 13.4408 14.6418 13.2628 14.7278 13.0818 14.8228 12.9048 14.9588 12.6528 15.1058 12.4068 15.2538 12.1608 15.3508 12.0008 15.4428 11.8378 15.5448 11.6798 15.7188 11.4128 15.9098 11.1558 16.0998 10.8988 16.1948 10.7728 16.2808 10.6408 16.3788 10.5168 16.6768 10.1428 16.9918 9.77879 17.3308 9.43379 17.6538 9.10379 17.9938 8.79779 18.3428 8.50579M37.5268 3.04079C37.5258 3.03279 37.5218 3.02579 37.5208 3.01879 37.5068 2.92379 37.4838 2.82979 37.4428 2.74079 37.4408 2.73679 37.4378 2.73279 37.4358 2.72979 37.4268 2.71079 37.4148 2.69679 37.4048 2.67979 37.3658 2.60679 37.3188 2.54179 37.2648 2.48279 37.2438 2.45979 37.2208 2.43979 37.1978 2.41979 37.1438 2.37179 37.0868 2.33079 37.0248 2.29479 36.9988 2.27979 36.9728 2.26479 36.9458 2.25179 36.8538 2.20979 36.7568 2.17779 36.6548 2.16479 36.1088 2.09579 23.1688 0.615794 15.9018 8.03379 10.1068 13.9488 9.8638 23.5388 10.0348 27.4518L10.0078 27.4518 10.0078 45.9898 12.0078 45.9898 12.0078 30.1468C12.6038 30.1878 13.3858 30.2268 14.3398 30.2268 18.8428 30.2268 26.6898 29.3938 31.7848 24.1908 39.0428 16.7828 37.5918 3.59879 37.5268 3.04079" id="Amazon-Elastic-Beanstalk-Application_Resource-Icon_light-bg" fill="#ED7100"/></g></svg>