<svg width="48" height="48" viewBox="0 0 48 48" xmlns="http://www.w3.org/2000/svg" xmlns:xlink="http://www.w3.org/1999/xlink" overflow="hidden"><g id="Icon-Resource/Analytics/Res_Amazon-OpenSearch-Service_OpenSearch-Ingestion_48" stroke="none" stroke-width="1" fill="none" fill-rule="evenodd"><path d="M4 40 12 40 12 32 4 32 4 40ZM13 30C13.553 30 14 30.448 14 31L14 41C14 41.552 13.553 42 13 42L3 42C2.447 42 2 41.552 2 41L2 31C2 30.448 2.447 30 3 30L13 30ZM11 26 18 26 18 19 11 19 11 26ZM10 28C9.447 28 9 27.552 9 27L9 18C9 17.448 9.447 17 10 17L19 17C19.553 17 20 17.448 20 18L20 27C20 27.552 19.553 28 19 28L10 28ZM4 13 9 13 9 8 4 8 4 13ZM2 14 2 7C2 6.448 2.447 6 3 6L10 6C10.553 6 11 6.448 11 7L11 14C11 14.552 10.553 15 10 15L3 15C2.447 15 2 14.552 2 14L2 14ZM27.137 8.008 27.199 8.102C29.243 11.169 32.665 13 36.352 13L40.586 13 38.293 15.293 39.707 16.707 43.707 12.707C44.098 12.316 44.098 11.684 43.707 11.293L39.707 7.293 38.293 8.707 40.586 11 36.352 11C33.335 11 30.536 9.502 28.863 6.992L28.801 6.898C26.757 3.831 23.335 2 19.648 2L2 2 2 4 19.648 4C22.665 4 25.464 5.498 27.137 8.008L27.137 8.008ZM41 21C39.346 21 38 22.346 38 24 38 25.654 39.346 27 41 27 42.654 27 44 25.654 44 24 44 22.346 42.654 21 41 21L41 21ZM41 19C43.757 19 46 21.243 46 24 46 26.757 43.757 29 41 29 38.243 29 36 26.757 36 24 36 21.243 38.243 19 41 19L41 19ZM23 25 29.586 25 27.293 27.293 28.707 28.707 32.707 24.707C33.098 24.316 33.098 23.684 32.707 23.293L28.707 19.293 27.293 20.707 29.586 23 23 23 23 25ZM43.707 35.293C44.098 35.684 44.098 36.316 43.707 36.707L39.707 40.707 38.293 39.293 40.586 37 36.352 37C33.335 37 30.536 38.498 28.863 41.008L28.801 41.102C26.757 44.169 23.335 46 19.648 46L2 46 2 44 19.648 44C22.665 44 25.464 42.502 27.137 39.992L27.199 39.898C29.243 36.831 32.665 35 36.352 35L40.586 35 38.293 32.707 39.707 31.293 43.707 35.293Z" id="Fill-1" fill="#8C4FFF"/></g></svg>