<svg width="80" height="80" viewBox="0 0 80 80" xmlns="http://www.w3.org/2000/svg" xmlns:xlink="http://www.w3.org/1999/xlink" overflow="hidden"><g id="Icon-Architecture/64/Arch_AWS-IoT-Device-Management_64" stroke="none" stroke-width="1" fill="none" fill-rule="evenodd"><g id="Icon-Architecture-BG/64/Internet-of-Things" fill="#7AA116"><rect x="0" y="0" width="80" height="80" id="Rectangle"/></g><path d="M63 53.4042 40.011 65.857 18 53.4162 18 26.5836 40.011 14.1438 63 26.5956 63 53.4042ZM64.477 25.1206 40.477 12.1208C40.172 11.9568 39.807 11.9598 39.508 12.1298L16.508 25.1296C16.194 25.3066 16 25.6396 16 26.0006L16 54.0002C16 54.3602 16.194 54.6932 16.508 54.8702L39.508 67.87C39.66 67.957 39.83 68 40 68 40.164 68 40.328 67.96 40.477 67.879L64.477 54.8792C64.799 54.7042 65 54.3672 65 54.0002L65 26.0006C65 25.6336 64.799 25.2956 64.477 25.1206L64.477 25.1206ZM55.858 42.7524C55.858 48.3883 51.273 52.9732 45.638 52.9732 44.399 52.9732 43.18 52.7322 42.029 52.2982 43.779 50.9052 45.108 49.0673 45.87 46.9623 48.176 46.7703 50 44.8543 50 42.5004 50 41.7814 49.814 41.1104 49.514 40.5074 50.822 38.8144 51.636 36.8054 51.898 34.6785 54.369 36.6004 55.858 39.5824 55.858 42.7524L55.858 42.7524ZM24.196 42.7524C24.196 39.6044 25.668 36.6434 28.109 34.7215 28.378 36.8214 29.189 38.8124 30.49 40.4984 30.187 41.1044 30 41.7774 30 42.5004 30 44.8743 31.854 46.8043 34.187 46.9683 34.949 49.0703 36.276 50.9062 38.025 52.2982 36.875 52.7322 35.655 52.9732 34.417 52.9732 28.781 52.9732 24.196 48.3883 24.196 42.7524L24.196 42.7524ZM48.191 38.9154C47.484 38.3834 46.624 38.0574 45.683 38.0184 45.344 37.2094 44.905 36.4374 44.395 35.7135 44.769 35.0565 45 34.3085 45 33.5005 45 33.1815 44.965 32.8725 44.901 32.5725 46.662 32.4465 48.412 32.7675 49.985 33.5075 49.926 35.4665 49.301 37.3364 48.191 38.9154L48.191 38.9154ZM45.5 45.0003C44.121 45.0003 43 43.8783 43 42.5004 43 41.1214 44.121 40.0004 45.5 40.0004 46.879 40.0004 48 41.1214 48 42.5004 48 43.8783 46.879 45.0003 45.5 45.0003L45.5 45.0003ZM34.5 40.0004C35.879 40.0004 37 41.1214 37 42.5004 37 43.8783 35.879 45.0003 34.5 45.0003 33.121 45.0003 32 43.8783 32 42.5004 32 41.1214 33.121 40.0004 34.5 40.0004L34.5 40.0004ZM36.261 34.9495C35.486 35.8815 34.839 36.9104 34.375 38.0124 33.414 38.0394 32.535 38.3704 31.815 38.9094 30.708 37.3314 30.081 35.4735 30.016 33.5355 31.88 32.6445 33.993 32.3395 36.083 32.6815 36.033 32.9475 36 33.2195 36 33.5005 36 34.0095 36.104 34.4915 36.261 34.9495L36.261 34.9495ZM43 33.5005C43 34.8785 41.879 36.0005 40.5 36.0005 39.121 36.0005 38 34.8785 38 33.5005 38 32.1215 39.121 31.0005 40.5 31.0005 41.879 31.0005 43 32.1215 43 33.5005L43 33.5005ZM41 42.5004C41 42.8074 41.031 43.1074 41.091 43.3973 40.373 43.4723 39.633 43.4743 38.91 43.3943 38.969 43.1054 39 42.8064 39 42.5004 39 40.6964 37.928 39.1494 36.393 38.4314 36.67 37.8394 36.992 37.2654 37.382 36.7324 38.191 37.5134 39.288 38.0004 40.5 38.0004 41.425 38.0004 42.285 37.7184 43 37.2384 43.243 37.6154 43.461 38.0054 43.65 38.4084 42.092 39.1164 41 40.6794 41 42.5004L41 42.5004ZM40.027 51.2832C38.305 50.1503 36.975 48.5453 36.205 46.6603 36.927 46.3623 37.543 45.8743 38.021 45.2693 38.677 45.3823 39.346 45.4573 40.03 45.4573 40.7 45.4573 41.351 45.3843 41.986 45.2773 42.474 45.8913 43.105 46.3813 43.845 46.6753 43.073 48.5533 41.746 50.1543 40.027 51.2832L40.027 51.2832ZM40.005 23.1936C44.83 23.1936 48.904 26.6926 49.807 31.2715 47.955 30.6005 45.949 30.3805 43.957 30.6545 43.131 29.6535 41.896 29.0006 40.5 29.0006 39.035 29.0006 37.744 29.7145 36.922 30.8005 34.644 30.3275 32.313 30.5135 30.191 31.2945 31.091 26.6976 35.172 23.1936 40.005 23.1936L40.005 23.1936ZM40.005 21.1937C33.72 21.1937 28.495 26.1336 28.045 32.3455 24.436 34.5605 22.196 38.5104 22.196 42.7524 22.196 49.4903 27.679 54.9732 34.417 54.9732 36.374 54.9732 38.296 54.4792 40.027 53.5822 41.759 54.4792 43.681 54.9732 45.638 54.9732 52.376 54.9732 57.858 49.4903 57.858 42.7524 57.858 38.4874 55.597 34.5155 51.954 32.3075 51.493 26.1216 46.278 21.1937 40.005 21.1937L40.005 21.1937Z" id="AWS-IoT-Device-Management_Icon_64_Squid" fill="#FFFFFF"/></g></svg>