<svg width="80" height="80" viewBox="0 0 80 80" xmlns="http://www.w3.org/2000/svg" xmlns:xlink="http://www.w3.org/1999/xlink" overflow="hidden"><g id="Icon-Architecture/64/Arch_Amazon-AppFlow_64" stroke="none" stroke-width="1" fill="none" fill-rule="evenodd"><g id="Icon-Architecture-BG/64/Application-Integration" fill="#E7157B"><rect x="0" y="0" width="80" height="80" id="Rectangle"/></g><g id="Icon-Service/64/Amazon-AppFlow_64" fill="#FFFFFF" transform="translate(12 19)"><path d="M29.657 0 13.963 26.387 12.925 22.515 10.994 23.033 12.948 30.327 20.242 28.372 19.725 26.441 15.6 27.545 30.794 2.001 45.809 2.001 53.315 15 45.809 28 37.963 28 37.963 30.001 46.963 30.001 55.624 15 46.963 0 29.657 0ZM34.541 13.628 35.059 15.56 39.232 14.441 24.815 40.001 9.815 40.001 2.309 27 9.815 14 15.964 14 15.964 12.001 8.661 12.001 0 27 8.661 42 25.983 42 40.837 15.669 41.859 19.485 43.791 18.967 41.836 11.674 34.541 13.628Z" id="Amazon-AppFlow_64"/></g></g></svg>