<svg width="80" height="80" viewBox="0 0 80 80" xmlns="http://www.w3.org/2000/svg" xmlns:xlink="http://www.w3.org/1999/xlink" overflow="hidden"><g id="Icon-Architecture/64/Arch_AWS-IoT-Button_64" stroke="none" stroke-width="1" fill="none" fill-rule="evenodd"><g id="Icon-Architecture-BG/64/Internet-of-Things" fill="#7AA116"><rect x="0" y="0" width="80" height="80" id="Rectangle"/></g><path d="M41.5 42.502C42.881 42.502 44 41.383 44 40.002 44 38.621 42.881 37.502 41.5 37.502 40.119 37.502 39 38.621 39 40.002 39 41.383 40.119 42.502 41.5 42.502L41.5 42.502ZM48 40C48 43.309 50.691 46 54 46 57.309 46 60 43.309 60 40 60 36.691 57.309 34 54 34 50.691 34 48 36.691 48 40L48 40ZM46 40C46 35.589 49.589 32 54 32 58.411 32 62 35.589 62 40 62 44.411 58.411 48 54 48 49.589 48 46 44.411 46 40L46 40ZM15 40C15 45.794 18.785 50 24 50 24.03 50 24.06 50.002 24.089 50.004L55.911 50.004C55.94 50.002 55.97 50 56 50 61.215 50 65 45.794 65 40 65 34.208 61.215 30.004 56 30.004 55.97 30.004 55.94 30.002 55.911 30L24.089 30C24.06 30.002 24.03 30.004 24 30.004 18.785 30.004 15 34.208 15 40L15 40ZM13 40C13 33.083 17.581 28.053 23.907 28.004 23.938 28.002 23.969 28 24 28L56 28C56.031 28 56.063 28.002 56.093 28.004 62.419 28.053 67 33.083 67 40 67 46.92 62.419 51.951 56.093 52 56.063 52.002 56.031 52.004 56 52.004L24 52.004C23.969 52.004 23.938 52.002 23.907 52 17.581 51.951 13 46.919 13 40L13 40ZM17 17 26 17 26 15 16 15C15.447 15 15 15.448 15 16L15 26 17 26 17 17ZM63 26 65 26 65 16C65 15.448 64.553 15 64 15L54 15 54 17 63 17 63 26ZM17 54 15 54 15 64C15 64.552 15.447 65 16 65L26 65 26 63 17 63 17 54ZM63 54 65 54 65 64C65 64.552 64.553 65 64 65L54 65 54 63 63 63 63 54Z" id="AWS-IoT-Button_Icon_64_Squid" fill="#FFFFFF"/></g></svg>