<svg width="80" height="80" viewBox="0 0 80 80" xmlns="http://www.w3.org/2000/svg" xmlns:xlink="http://www.w3.org/1999/xlink" overflow="hidden"><g id="Icon-Architecture/64/Arch_AWS-CloudFormation_64" stroke="none" stroke-width="1" fill="none" fill-rule="evenodd"><g id="Icon-Architecture-BG/64/Management-Governance" fill="#E7157B"><rect x="0" y="0" width="80" height="80" id="Rectangle"/></g><path d="M53 39.9632 58 39.9632 58 37.9601 53 37.9601 53 39.9632ZM28 51.9816 33 51.9816 33 49.9785 28 49.9785 28 51.9816ZM18 51.9816 25 51.9816 25 49.9785 18 49.9785 18 51.9816ZM18 45.9724 30 45.9724 30 43.9693 18 43.9693 18 45.9724ZM18 33.954 27 33.954 27 31.9509 18 31.9509 18 33.954ZM18 39.9632 51 39.9632 51 37.9601 18 37.9601 18 39.9632ZM37 61.9969 14 61.9969 14 27.9448 37 27.9448 37 35.9571 39 35.9571 39 26.9433C39 26.3904 38.552 25.9417 38 25.9417L13 25.9417C12.447 25.9417 12 26.3904 12 26.9433L12 62.9985C12 63.5513 12.447 64 13 64L38 64C38.552 64 39 63.5513 39 62.9985L39 42.9678 37 42.9678 37 61.9969ZM68 36.9586C68 43.4305 62.173 45.682 59.092 45.9684L43 45.9724 43 43.9693 59 43.9693C59.195 43.9463 66 43.2122 66 36.9586 66 31.2639 60.863 30.1081 59.834 29.9339 59.321 29.8467 58.96 29.382 59.004 28.8632 59.005 28.8442 59.007 28.8262 59.009 28.8081 58.954 25.5902 56.981 24.5847 56.126 24.3002 54.53 23.7694 52.751 24.2772 51.81 25.5391 51.591 25.8356 51.229 25.9868 50.861 25.9307 50.497 25.8756 50.192 25.6253 50.068 25.2767 49.447 23.5361 48.546 22.4083 47.293 21.1534 44.159 18.0386 39.905 17.1783 35.925 18.8529 33.837 19.7332 32.012 21.7283 30.922 24.3273L29.078 23.5501C30.37 20.4744 32.584 18.0887 35.15 17.0071 39.905 15.005 44.971 16.0256 48.704 19.7342 49.774 20.8069 50.66 21.8515 51.35 23.2035 52.843 22.0979 54.857 21.7673 56.757 22.3993 59.189 23.2086 60.727 25.3208 60.975 28.1291 64.381 28.9884 68 31.7116 68 36.9586L68 36.9586Z" id="AWS-CloudFormation_Icon_64_Squid" fill="#FFFFFF"/></g></svg>