<svg width="80" height="80" viewBox="0 0 80 80" xmlns="http://www.w3.org/2000/svg" xmlns:xlink="http://www.w3.org/1999/xlink" overflow="hidden"><g id="Icon-Architecture/64/Arch_AWS-Secrets-Manager_64" stroke="none" stroke-width="1" fill="none" fill-rule="evenodd"><g id="Icon-Architecture-BG/64/Security-Identity-Compliance" fill="#DD344C"><rect x="0" y="0" width="80" height="80" id="Rectangle"/></g><path d="M38.76 43.36C38.76 44.044 39.317 44.6 40 44.6 40.684 44.6 41.24 44.044 41.24 43.36 41.24 42.676 40.684 42.12 40 42.12 39.317 42.12 38.76 42.676 38.76 43.36L38.76 43.36ZM36.76 43.36C36.76 41.573 38.213 40.12 40 40.12 41.787 40.12 43.24 41.573 43.24 43.36 43.24 44.796 42.296 46.002 41 46.426L41 49 39 49 39 46.426C37.704 46.002 36.76 44.796 36.76 43.36L36.76 43.36ZM49 38 31 38 31 51 49 51 49 48 46 48 46 46 49 46 49 43 46 43 46 41 49 41 49 38ZM34 36 45.999 36 46 31C46.001 28.384 43.143 26.002 40.004 26L40.001 26C38.472 26 36.928 26.574 35.763 27.575 34.643 28.537 34 29.786 34 31.001L34 36ZM48 31.001 47.999 36 50 36C50.553 36 51 36.448 51 37L51 52C51 52.552 50.553 53 50 53L30 53C29.447 53 29 52.552 29 52L29 37C29 36.448 29.447 36 30 36L32 36 32 31C32.001 29.202 32.897 27.401 34.459 26.058 35.982 24.75 38.001 24 40.001 24L40.004 24C44.265 24.002 48.001 27.273 48 31.001L48 31.001ZM19.207 55.049 20.828 53.877C18.093 50.097 16.581 45.662 16.396 41L19 41 19 39 16.399 39C16.598 34.366 18.108 29.957 20.828 26.198L19.207 25.025C16.239 29.128 14.599 33.942 14.399 39L12 39 12 41 14.396 41C14.582 46.086 16.224 50.926 19.207 55.049L19.207 55.049ZM53.838 59.208C50.069 61.936 45.648 63.446 41 63.639L41 61 39 61 39 63.639C34.352 63.447 29.93 61.937 26.159 59.208L24.988 60.828C29.1 63.805 33.928 65.445 39 65.639L39 68 41 68 41 65.639C46.072 65.445 50.898 63.805 55.01 60.828L53.838 59.208ZM26.159 20.866C29.93 18.138 34.352 16.628 39 16.436L39 19 41 19 41 16.436C45.648 16.628 50.069 18.138 53.838 20.866L55.01 19.246C50.898 16.27 46.072 14.63 41 14.436L41 12 39 12 39 14.436C33.928 14.629 29.1 16.269 24.988 19.246L26.159 20.866ZM65.599 39C65.399 33.942 63.759 29.128 60.79 25.025L59.169 26.198C61.89 29.957 63.4 34.366 63.599 39L61 39 61 41 63.602 41C63.416 45.662 61.905 50.097 59.169 53.877L60.79 55.049C63.774 50.926 65.415 46.086 65.602 41L68 41 68 39 65.599 39ZM56.386 25.064 64.226 17.224 62.812 15.81 54.972 23.65 56.386 25.064ZM23.612 55.01 15.772 62.85 17.186 64.264 25.026 56.424 23.612 55.01ZM28.666 27.253 13.825 12.413 12.411 13.827 27.252 28.667 28.666 27.253ZM54.193 52.78 67.586 66.173 66.172 67.587 52.779 54.194 54.193 52.78Z" id="AWS-Secrets-Manager_Icon_64_Squid" fill="#FFFFFF"/></g></svg>