<svg width="48" height="48" viewBox="0 0 48 48" xmlns="http://www.w3.org/2000/svg" xmlns:xlink="http://www.w3.org/1999/xlink" overflow="hidden"><g id="Icon-Resource/Analytics/Res_Amazon-Redshift_Query-Editor-v2.0_48" stroke="none" stroke-width="1" fill="none" fill-rule="evenodd"><path d="M16 4C24.029 4 29 6.076 29 8 29 9.924 24.029 12 16 12 8.122 12 4 9.988 4 8 4 6.012 8.122 4 16 4M16 44C8.486 44 4 42.505 4 40L4 33.438C6.053 35.152 9.693 36 15 36L15 34C4 34 4 30.237 4 29L4 21.438C6.053 23.152 9.693 24 15 24L15 22C4 22 4 18.237 4 17L4 11.408C6.299 13.055 10.475 14 16 14 21.118 14 26.268 13.127 29 11.243L29 15 31 15 31 8C31 3.855 23.466 2 16 2 7.364 2 2 4.299 2 8L2 40C2 42.737 4.429 46 16 46 22.104 46 26.202 45.296 28.528 43.849L27.472 42.151C25.5 43.378 21.641 44 16 44M43.583 43.583C43.303 43.863 42.973 44.045 42.678 44.083 42.449 44.111 42.261 44.053 42.115 43.908L35.931 37.579C36.534 37.085 37.087 36.533 37.58 35.929L43.914 42.093C44.064 42.243 44.122 42.43 44.091 42.665 44.051 42.966 43.865 43.301 43.583 43.583M19 28.6C19 23.306 23.307 19 28.6 19 33.893 19 38.199 23.306 38.199 28.6 38.199 33.893 33.893 38.199 28.6 38.199 23.307 38.199 19 33.893 19 28.6M45.318 40.669 38.722 34.249C39.659 32.575 40.199 30.65 40.199 28.6 40.199 22.204 34.996 17 28.6 17 22.203 17 17 22.204 17 28.6 17 34.996 22.203 40.199 28.6 40.199 30.651 40.199 32.577 39.659 34.251 38.72L40.693 45.314C41.2 45.821 41.854 46.09 42.563 46.09 42.685 46.09 42.808 46.083 42.931 46.067 43.667 45.973 44.401 45.593 44.997 44.998 45.593 44.402 45.975 43.668 46.073 42.93 46.187 42.073 45.923 41.273 45.318 40.669M28.6 34C25.571 34 23.199 31.628 23.199 28.6 23.199 25.571 25.571 23.199 28.6 23.199 31.628 23.199 34 25.571 34 28.6 34 31.628 31.628 34 28.6 34M28.6 21.199C24.45 21.199 21.199 24.45 21.199 28.6 21.199 32.75 24.45 36 28.6 36 32.749 36 36 32.75 36 28.6 36 24.45 32.749 21.199 28.6 21.199" id="Fill-6" fill="#8C4FFF"/></g></svg>