<svg width="80" height="80" viewBox="0 0 80 80" xmlns="http://www.w3.org/2000/svg" xmlns:xlink="http://www.w3.org/1999/xlink" overflow="hidden"><g id="Icon-Architecture/64/Arch_Amazon-Detective_64" stroke="none" stroke-width="1" fill="none" fill-rule="evenodd"><g id="Icon-Architecture-BG/64/Security-Identity-Compliance" fill="#DD344C"><rect x="0" y="0" width="80" height="80" id="Rectangle"/></g><path d="M26.72 27.0952C28.792 27.5712 31.371 28.4242 34.048 29.3102 37.611 30.4902 41.294 31.7092 43.002 31.7092 44.71 31.7092 48.393 30.4902 51.954 29.3102 54.631 28.4242 57.209 27.5712 59.281 27.0952L55.873 24.8202C53.607 25.6762 45.403 28.7092 43.002 28.7092 40.602 28.7092 32.395 25.6762 30.127 24.8202L26.72 27.0952ZM31.448 23.1792C35.599 24.7302 41.428 26.7092 43.002 26.7092 44.574 26.7092 50.387 24.7352 54.535 23.1862L49.364 14.3472C49.164 14.0292 48.707 13.9182 48.361 14.1282L44.416 16.4942C43.543 17.0172 42.461 17.0172 41.588 16.4942L37.644 14.1282C37.28 13.9082 36.795 14.0152 36.543 14.1572L31.448 23.1792ZM52.84 31.1242C52.755 31.1522 52.669 31.1802 52.583 31.2092 48.7 32.4942 45.032 33.7092 43.002 33.7092 40.972 33.7092 37.304 32.4942 33.419 31.2092 33.333 31.1802 33.246 31.1522 33.16 31.1232 34.066 35.9422 39.021 43.7092 43.002 43.7092 46.982 43.7092 51.935 35.9432 52.84 31.1242L52.84 31.1242ZM23.043 27.9992C22.915 27.5772 23.078 27.1222 23.445 26.8772L29.252 22.9992 34.907 12.9892C34.961 12.8912 35.033 12.8042 35.116 12.7312 35.918 12.0232 37.439 11.6702 38.673 12.4132L42.617 14.7792C42.854 14.9222 43.151 14.9212 43.387 14.7792L47.331 12.4132C48.607 11.6482 50.287 12.0522 51.074 13.3132L56.741 22.9942 62.556 26.8772C62.922 27.1222 63.085 27.5772 62.957 27.9992 62.829 28.4212 62.441 28.7092 62 28.7092 60.533 28.7092 57.848 29.4952 54.964 30.4282 54.47 36.1222 48.409 45.7092 43.002 45.7092 37.592 45.7092 31.531 36.1212 31.036 30.4282 28.153 29.4952 25.466 28.7092 24 28.7092 23.56 28.7092 23.171 28.4212 23.043 27.9992L23.043 27.9992ZM58.655 47.5882 59.743 46.3782C59.928 46.1732 60.02 45.9022 59.997 45.6272 59.975 45.3532 59.84 45.1002 59.625 44.9282L54.625 40.9282 53.375 42.4902 57.548 45.8272 49.257 55.0402C49.07 55.2482 48.978 55.5272 49.005 55.8062 49.032 56.0852 49.176 56.3402 49.401 56.5092L52.597 58.9072 47.202 66.0432 48.798 67.2492 54.798 59.3122C54.958 59.1002 55.028 58.8322 54.991 58.5692 54.953 58.3062 54.813 58.0682 54.6 57.9092L51.475 55.5652 57.028 49.3952C61.413 49.4892 66 54.2232 66 58.7092L66 67.7092 68 67.7092 68 58.7092C68 53.6992 63.529 48.6192 58.655 47.5882L58.655 47.5882ZM37.85 63.3942 31.928 57.4452C31.389 58.1712 30.765 58.8282 30.061 59.3932L35.956 65.2852C36.453 65.7832 37.283 65.7632 37.805 65.2412 38.325 64.7202 38.346 63.8922 37.85 63.3942L37.85 63.3942ZM23.5 59.7092C28.187 59.7092 32 55.8962 32 51.2092 32 46.5222 28.187 42.7092 23.5 42.7092 18.814 42.7092 15 46.5222 15 51.2092 15 55.8962 18.814 59.7092 23.5 59.7092L23.5 59.7092ZM39.268 61.9832C40.539 63.2612 40.518 65.3562 39.219 66.6552 38.561 67.3142 37.698 67.6452 36.84 67.6452 36.003 67.6452 35.173 67.3312 34.542 66.7002L28.351 60.5122C26.899 61.2732 25.25 61.7092 23.5 61.7092 17.71 61.7092 13 56.9982 13 51.2092 13 45.4192 17.71 40.7092 23.5 40.7092 29.29 40.7092 34 45.4192 34 51.2092 34 52.8072 33.631 54.3182 32.989 55.6762L39.268 61.9832ZM48.292 46.9942 43.002 52.2942 37.707 46.9942 36.293 48.4072 42.295 54.4152C42.483 54.6032 42.737 54.7092 43.002 54.7092 43.268 54.7092 43.523 54.6032 43.71 54.4152L49.708 48.4072 48.292 46.9942ZM58 67.7092 60 67.7092 60 60.7092 58 60.7092 58 67.7092Z" id="Amazon-Detective_Icon_64_Squid" fill="#FFFFFF"/></g></svg>