<svg width="80" height="80" viewBox="0 0 80 80" xmlns="http://www.w3.org/2000/svg" xmlns:xlink="http://www.w3.org/1999/xlink" overflow="hidden"><g id="Icon-Architecture/64/Arch_AWS-Verified-Access_64" stroke="none" stroke-width="1" fill="none" fill-rule="evenodd"><g id="Icon-Architecture-BG/64/Networking-Content-Delivery" fill="#8C4FFF"><rect x="0" y="0" width="80" height="80" id="Rectangle"/></g><path d="M32.0661 61.16 31.3841 63.041C24.9461 60.709 19.7801 55.727 17.2131 49.374L19.0671 48.625C21.4221 54.452 26.1601 59.021 32.0661 61.16L32.0661 61.16ZM61.2591 48.625 63.1131 49.374C60.5201 55.791 55.2941 60.795 48.7721 63.101L48.1061 61.216C54.0871 59.1 58.8801 54.511 61.2591 48.625L61.2591 48.625ZM19.0671 32.363 17.2131 31.614C19.7351 25.375 24.7901 20.435 31.0811 18.06L31.7881 19.931C26.0161 22.109 21.3801 26.64 19.0671 32.363L19.0671 32.363ZM48.1061 19.772 48.7721 17.887C55.2941 20.193 60.5201 25.197 63.1131 31.614L61.2591 32.363C58.8801 26.477 54.0871 21.888 48.1061 19.772L48.1061 19.772ZM39.9981 14C41.6521 14 42.9981 15.346 42.9981 17 42.9981 18.654 41.6521 20 39.9981 20 38.3431 20 36.9981 18.654 36.9981 17 36.9981 15.346 38.3431 14 39.9981 14L39.9981 14ZM39.9981 22C42.7541 22 44.9981 19.757 44.9981 17 44.9981 14.243 42.7541 12 39.9981 12 37.2411 12 34.9981 14.243 34.9981 17 34.9981 19.757 37.2411 22 39.9981 22L39.9981 22ZM41.9171 65.306C40.6451 66.364 38.7511 66.19 37.6921 64.919 36.6331 63.647 36.8071 61.752 38.0791 60.694 38.6381 60.228 39.3181 60.001 39.9951 60.001 40.8561 60.001 41.7111 60.369 42.3031 61.081 43.3621 62.352 43.1881 64.247 41.9171 65.306L41.9171 65.306ZM36.7991 59.157C34.6801 60.92 34.3911 64.079 36.1551 66.198 37.1421 67.385 38.5671 67.998 40.0021 67.997 41.1291 67.997 42.2631 67.619 43.1961 66.843 45.3151 65.079 45.6041 61.92 43.8401 59.802 42.0771 57.682 38.9191 57.393 36.7991 59.157L36.7991 59.157ZM62.9981 43C61.3431 43 59.9981 41.654 59.9981 40 59.9981 38.346 61.3431 37 62.9981 37 64.6521 37 65.9981 38.346 65.9981 40 65.9981 41.654 64.6521 43 62.9981 43L62.9981 43ZM62.9981 35C60.2411 35 57.9981 37.243 57.9981 40 57.9981 42.757 60.2411 45 62.9981 45 65.7541 45 67.9981 42.757 67.9981 40 67.9981 37.243 65.7541 35 62.9981 35L62.9981 35ZM18.9171 42.306C17.6441 43.364 15.7511 43.19 14.6921 41.919 13.6341 40.647 13.8071 38.752 15.0791 37.694 16.3501 36.637 18.2451 36.81 19.3031 38.081 20.3621 39.352 20.1881 41.247 18.9171 42.306L18.9171 42.306ZM20.8401 36.802C19.0771 34.681 15.9181 34.394 13.7991 36.157 11.6801 37.92 11.3911 41.079 13.1551 43.198 14.1421 44.385 15.5671 44.997 17.0021 44.997 18.1291 44.997 19.2631 44.619 20.1961 43.843 22.3151 42.079 22.6041 38.92 20.8401 36.802L20.8401 36.802ZM38.2831 47.128 33.9161 43.02 35.2871 41.563 38.3731 44.466 45.5141 38.596 46.7841 40.14 38.2831 47.128ZM33.9981 30.674C33.9981 29.2 35.4931 28 37.3311 28L42.6661 28C44.5031 28 45.9981 29.2 45.9981 30.674L45.9981 34 33.9981 34 33.9981 30.674ZM29.9981 51 49.9981 51 49.9981 36 29.9981 36 29.9981 51ZM29.5521 34C28.6951 34 27.9981 34.697 27.9981 35.555L27.9981 51.445C27.9981 52.303 28.6951 53 29.5521 53L50.4431 53C51.3001 53 51.9981 52.303 51.9981 51.445L51.9981 35.555C51.9981 34.697 51.3001 34 50.4431 34L47.9981 34 47.9981 30.674C47.9981 28.097 45.6061 26 42.6661 26L37.3311 26C34.3901 26 31.9981 28.097 31.9981 30.674L31.9981 34 29.5521 34Z" id="Fill-3" fill="#FFFFFF"/></g></svg>