<svg width="48" height="48" viewBox="0 0 48 48" xmlns="http://www.w3.org/2000/svg" xmlns:xlink="http://www.w3.org/1999/xlink" overflow="hidden"><g id="Icon-Resource/Media-Services/Res_AWS-Cloud-Digital-Interface_48" stroke="none" stroke-width="1" fill="none" fill-rule="evenodd"><path d="M7.5 40C6.121 40 5 38.878 5 37.5 5 36.122 6.121 35 7.5 35 8.879 35 10 36.122 10 37.5 10 38.878 8.879 40 7.5 40L7.5 40ZM44 24C44 35.028 35.028 44 24 44 19.42 44 15.019 42.421 11.475 39.566 11.799 38.944 12 38.249 12 37.5 12 35.019 9.981 33 7.5 33 5.019 33 3 35.019 3 37.5 3 39.981 5.019 42 7.5 42 8.509 42 9.432 41.654 10.184 41.091 14.09 44.252 18.945 46 24 46 36.131 46 46 36.131 46 24L44 24ZM40.5 8C41.879 8 43 9.122 43 10.5 43 11.878 41.879 13 40.5 13 39.121 13 38 11.878 38 10.5 38 9.122 39.121 8 40.5 8L40.5 8ZM24 4C28.58 4 32.981 5.579 36.525 8.434 36.201 9.056 36 9.751 36 10.5 36 12.981 38.019 15 40.5 15 42.981 15 45 12.981 45 10.5 45 8.019 42.981 6 40.5 6 39.491 6 38.568 6.346 37.816 6.909 33.91 3.748 29.055 2 24 2 11.869 2 2 11.869 2 24L4 24C4 12.972 12.972 4 24 4L24 4ZM22 20.772 27.912 23.984 22 27.222 22 20.772ZM20.489 18.231C20.186 18.412 20 18.738 20 19.091L20 28.909C20 29.262 20.187 29.589 20.49 29.77 20.647 29.862 20.823 29.909 21 29.909 21.165 29.909 21.33 29.868 21.48 29.786L30.48 24.858C30.801 24.682 31.001 24.345 31 23.979 30.999 23.613 30.799 23.277 30.478 23.102L21.478 18.212C21.167 18.045 20.793 18.051 20.489 18.231L20.489 18.231ZM34 29.774 24 35.547 14 29.774 14 18.226 24 12.453 34 18.226 34 29.774ZM24.5 10.432C24.191 10.253 23.809 10.253 23.5 10.432L12.5 16.783C12.19 16.961 12 17.292 12 17.649L12 30.351C12 30.708 12.19 31.039 12.5 31.217L23.5 37.568C23.654 37.657 23.827 37.702 24 37.702 24.173 37.702 24.346 37.657 24.5 37.568L35.5 31.217C35.81 31.039 36 30.708 36 30.351L36 17.649C36 17.292 35.81 16.961 35.5 16.783L24.5 10.432Z" id="Fill-1" fill="#ED7100"/></g></svg>