<svg width="80" height="80" viewBox="0 0 80 80" xmlns="http://www.w3.org/2000/svg" xmlns:xlink="http://www.w3.org/1999/xlink" overflow="hidden"><g id="Icon-Architecture/64/Arch_Amazon-Cloud-Directory_64" stroke="none" stroke-width="1" fill="none" fill-rule="evenodd"><g id="Icon-Architecture-BG/64/Security-Identity-Compliance" fill="#DD344C"><rect x="0" y="0" width="80" height="80" id="Rectangle"/></g><g id="Icon-Service/64/Amazon-Cloud-Directory_64" fill="#FFFFFF" transform="translate(21 13)"><path d="M29 45.031C27.897 45.031 27 44.134 27 43.031 27 41.928 27.897 41.031 29 41.031 30.103 41.031 31 41.928 31 43.031 31 44.134 30.103 45.031 29 45.031M21 43.031C21 44.134 20.103 45.031 19 45.031 17.897 45.031 17 44.134 17 43.031 17 41.928 17.897 41.031 19 41.031 20.103 41.031 21 41.928 21 43.031M11 43.031C11 44.134 10.103 45.031 9 45.031 7.897 45.031 7 44.134 7 43.031 7 41.928 7.897 41.031 9 41.031 10.103 41.031 11 41.928 11 43.031M15 24.031C15 21.825 16.794 20.031 19 20.031 21.206 20.031 23 21.825 23 24.031 23 26.237 21.206 28.031 19 28.031 16.794 28.031 15 26.237 15 24.031M30 39.173 30 34.031C30 33.479 29.553 33.031 29 33.031L20 33.031 20 29.941C22.833 29.462 25 26.998 25 24.031 25 20.722 22.309 18.031 19 18.031 15.691 18.031 13 20.722 13 24.031 13 26.998 15.167 29.462 18 29.941L18 33.031 9 33.031C8.447 33.031 8 33.479 8 34.031L8 39.173C6.279 39.62 5 41.173 5 43.031 5 45.237 6.794 47.031 9 47.031 11.206 47.031 13 45.237 13 43.031 13 41.173 11.721 39.62 10 39.173L10 35.031 18 35.031 18 39.173C16.279 39.62 15 41.173 15 43.031 15 45.237 16.794 47.031 19 47.031 21.206 47.031 23 45.237 23 43.031 23 41.173 21.721 39.62 20 39.173L20 35.031 28 35.031 28 39.173C26.279 39.62 25 41.173 25 43.031 25 45.237 26.794 47.031 29 47.031 31.206 47.031 33 45.237 33 43.031 33 41.173 31.721 39.62 30 39.173M19 52.031C9.309 52.031 2 49.882 2 47.031L2 10.426C5.322 12.904 12.268 14.062 18.852 14.062 25.562 14.062 32.639 12.896 36 10.401L36 47.031C36 49.882 28.691 52.031 19 52.031M18.852 2C29.109 2 36 4.601 36 7.031 36 9.461 29.109 12.062 18.852 12.062 8.771 12.062 2 9.461 2 7.031 2 4.601 8.771 2 18.852 2M18.852 0C9.772 0 0.001 2.2 0 7.031L0 47.031C0 52.192 9.814 54.031 19 54.031 28.186 54.031 38 52.192 38 47.031L38 7.031C38 2.2 28.074 0 18.852 0" id="Amazon-Cloud-Directory_64_Squid"/></g></g></svg>