<svg width="80" height="80" viewBox="0 0 80 80" xmlns="http://www.w3.org/2000/svg" xmlns:xlink="http://www.w3.org/1999/xlink" overflow="hidden"><g id="Icon-Architecture/64/Arch_Amazon-Simple-Storage-Service-Glacier_64" stroke="none" stroke-width="1" fill="none" fill-rule="evenodd"><g id="Icon-Architecture-BG/64/Storage" fill="#7AA116"><rect x="0" y="0" width="80" height="80" id="Rectangle"/></g><g id="Icon-Service/64/Amazon-Simple-Storage-Service-Glacier_64" fill="#FFFFFF" transform="translate(13 12)"><path d="M2.066 8.912C2.909 11.867 12.648 15 25.5 15 38.33 15 48.058 11.878 48.929 8.927L48.993 8.477C48.92 7.16 41.364 2 25.5 2 9.633 2 2.079 7.161 2.006 8.478L2.066 8.912ZM48.219 28.189 47.836 30.892C51.196 31.719 51.799 31.214 51.805 31.209 51.806 31.185 51.76 30.308 48.219 28.189L48.219 28.189ZM32.678 53.558 32.93 55.542C30.533 55.846 28.031 56 25.494 56 17.861 56 5.775 54.309 5.641 49.777L0.093 9.253C0.048 9.058 0.021 8.859 0.011 8.657L0.008 8.636 0.009 8.636C0.007 8.59 0 8.546 0 8.5 0 5.034 9.933 0 25.5 0 41.066 0 51 5.034 51 8.5 51 8.547 50.991 8.593 50.989 8.64L50.99 8.64 50.988 8.65C50.979 8.869 50.947 9.082 50.897 9.292L48.521 26.054C51.868 27.964 53.51 29.456 53.769 30.84 53.883 31.451 53.732 32.024 53.334 32.499 52.848 33.077 52.048 33.365 50.866 33.365 49.985 33.365 48.887 33.202 47.553 32.883L47.425 33.787 45.445 33.507 45.608 32.355C39.443 30.534 30.986 26.681 26.927 24.76 26.51 25.106 25.983 25.322 25.401 25.322 24.077 25.322 22.999 24.244 22.999 22.919 22.999 21.594 24.077 20.516 25.401 20.516 26.726 20.516 27.804 21.594 27.804 22.919 27.804 22.933 27.8 22.947 27.8 22.961 31.25 24.59 39.773 28.501 45.892 30.352L48.441 12.373C44.022 15.399 34.555 17 25.5 17 16.429 17 6.947 15.394 2.538 12.359L7.631 49.565C7.637 49.61 7.64 49.656 7.64 49.701 7.64 51.217 14.419 54 25.494 54 27.947 54 30.365 53.851 32.678 53.558L32.678 53.558ZM50.966 45.869 53.337 48.239 51.922 49.653 49.269 47 44.516 47 46.775 50.917 50.587 51.99 50.045 53.914 46.871 53.021 46.004 56.259 44.072 55.741 45.079 51.98 42.725 47.897 40.402 51.914 41.379 55.753 39.442 56.246 38.628 53.051 35.391 53.918 34.874 51.986 38.633 50.979 40.935 47 36.246 47 33.517 49.662 32.121 48.23 34.482 45.927 32.112 43.557 33.526 42.143 36.382 45 41.053 45 38.669 40.877 34.862 39.806 35.403 37.881 38.578 38.774 39.445 35.537 41.377 36.055 40.368 39.822 42.725 43.898 45.045 39.875 44.069 36.042 46.006 35.549 46.821 38.745 50.057 37.878 50.575 39.809 46.809 40.818 44.399 45 48.993 45 51.931 42.134 53.328 43.566 50.966 45.869Z" id="Amazon-Simple-Storage-Service-Glacier_64_Squid"/></g></g></svg>