<svg width="48" height="48" viewBox="0 0 48 48" xmlns="http://www.w3.org/2000/svg" xmlns:xlink="http://www.w3.org/1999/xlink" overflow="hidden"><g id="Icon-Resource/Machine-Learning/Res_Amazon-SageMaker_Notebook_48" stroke="none" stroke-width="1" fill="none" fill-rule="evenodd"><path d="M7.972 2 7.972 7.206 5 7.206 5 9.205 7.972 9.205 7.972 12.467 5 12.467 5 14.467 7.972 14.467 7.972 17.78 5 17.78 5 19.78 7.972 19.78 7.972 23.054 5 23.054 5 25.053 7.972 25.053 7.972 28.246 5 28.246 5 30.246 7.972 30.246 7.972 33.479 5 33.479 5 35.479 7.972 35.479 7.972 38.793 5 38.793 5 40.793 7.972 40.793 7.972 45.972 43.586 45.972 43.586 2 7.972 2ZM9.972 4 41.586 4 41.586 43.972 9.972 43.972 9.972 40.793 13.052 40.793 13.052 38.793 9.972 38.793 9.972 35.479 13.052 35.479 13.052 33.479 9.972 33.479 9.972 30.246 13.052 30.246 13.052 28.246 9.972 28.246 9.972 25.053 13.052 25.053 13.052 23.054 9.972 23.054 9.972 19.78 13.052 19.78 13.052 17.78 9.972 17.78 9.972 14.467 13.052 14.467 13.052 12.467 9.972 12.467 9.972 9.205 13.052 9.205 13.052 7.206 9.972 7.206 9.972 4ZM16.862 9.205 36.56 9.205 36.56 7.205 16.862 7.205 16.862 9.205ZM16.862 15.594 36.56 15.594 36.56 13.594 16.862 13.594 16.862 15.594ZM16.862 21.927 36.56 21.927 36.56 19.926 16.862 19.926 16.862 21.927ZM16.862 28.313 26.764 28.313 26.764 26.313 16.862 26.313 16.862 28.313Z" id="Amazon-Machine-Learning_Notebook-Icon_light-bg" fill="#01A88D"/></g></svg>