<svg width="80" height="80" viewBox="0 0 80 80" xmlns="http://www.w3.org/2000/svg" xmlns:xlink="http://www.w3.org/1999/xlink" overflow="hidden"><g id="Icon-Architecture/64/Arch_Amazon-DevOps-Guru_64" stroke="none" stroke-width="1" fill="none" fill-rule="evenodd"><g id="Icon-Architecture-BG/64/Machine-Learning" fill="#01A88D"><rect x="0" y="0" width="80" height="80" id="Rectangle"/></g><g id="Icon-Service/64/Amazon-DevOps-Guru_64" fill="#FFFFFF" transform="translate(12 12)"><path d="M23.888 50.588C23.916 50.1 23.587 49.663 23.111 49.556 20.665 49.002 18.347 48.041 16.22 46.697 15.807 46.436 15.265 46.509 14.94 46.877L12.66 49.431 6.57 43.339 9.123 41.062C9.488 40.737 9.564 40.195 9.303 39.782 7.962 37.657 7.003 35.339 6.452 32.892 6.345 32.414 5.897 32.088 5.42 32.112L2 32.308 2 23.692 5.428 23.888C5.889 23.903 6.351 23.588 6.46 23.11 7.013 20.671 7.975 18.357 9.317 16.232 9.577 15.818 9.501 15.277 9.137 14.952L6.57 12.661 12.661 6.569 14.95 9.135C15.276 9.5 15.818 9.576 16.23 9.315 18.352 7.977 20.666 7.019 23.11 6.467 23.587 6.359 23.916 5.923 23.888 5.435L23.693 2 32.308 2 32.113 5.438C32.084 5.925 32.413 6.361 32.89 6.469 35.33 7.022 37.644 7.981 39.766 9.319 40.176 9.579 40.72 9.505 41.045 9.14L43.339 6.569 49.431 12.661 46.867 14.948C46.503 15.273 46.427 15.815 46.688 16.228 48.029 18.349 48.989 20.665 49.542 23.11 49.65 23.588 50.119 23.903 50.575 23.888L54 23.692 54 32.308 50.577 32.112C50.119 32.085 49.654 32.413 49.545 32.891 48.994 35.335 48.034 37.652 46.694 39.778 46.433 40.192 46.509 40.733 46.873 41.058L49.431 43.339 43.34 49.431 41.065 46.881C40.738 46.514 40.197 46.442 39.784 46.701 37.661 48.043 35.342 49.005 32.89 49.558 32.413 49.666 32.084 50.103 32.113 50.591L32.308 54 23.693 54 23.888 50.588ZM34.093 55.687C34.283 55.486 34.38 55.217 34.365 54.943L34.157 51.307C36.253 50.755 38.255 49.926 40.126 48.833L42.552 51.552C42.735 51.758 42.994 51.879 43.27 51.886 43.535 51.899 43.811 51.789 44.005 51.594L51.594 44.005C51.788 43.811 51.895 43.545 51.887 43.27 51.879 42.994 51.758 42.735 51.553 42.552L48.825 40.119C49.917 38.247 50.745 36.248 51.295 34.157L54.944 34.365C55.213 34.376 55.488 34.282 55.687 34.093 55.887 33.904 56 33.641 56 33.366L56 22.634C56 22.359 55.887 22.096 55.687 21.907 55.488 21.718 55.214 21.618 54.944 21.635L51.291 21.843C50.74 19.753 49.911 17.755 48.821 15.886L51.553 13.449C51.758 13.266 51.879 13.006 51.887 12.731 51.895 12.456 51.788 12.19 51.594 11.996L44.005 4.407C43.811 4.212 43.533 4.108 43.27 4.114 42.994 4.122 42.736 4.243 42.552 4.448L40.107 7.188C38.239 6.099 36.243 5.272 34.157 4.721L34.365 1.057C34.38 0.782 34.283 0.513 34.093 0.314 33.905 0.113 33.642 0 33.367 0L22.634 0C22.359 0 22.096 0.113 21.908 0.314 21.718 0.513 21.62 0.782 21.636 1.057L21.844 4.718C19.754 5.268 17.758 6.094 15.889 7.183L13.449 4.448C13.266 4.243 13.006 4.122 12.731 4.114 12.472 4.11 12.19 4.212 11.995 4.407L4.407 11.996C4.212 12.19 4.106 12.456 4.114 12.731 4.121 13.006 4.242 13.266 4.448 13.449L7.184 15.89C6.092 17.761 5.263 19.757 4.712 21.844L1.057 21.635C0.785 21.617 0.513 21.718 0.314 21.907 0.114 22.096 0 22.359 0 22.634L0 33.366C0 33.641 0.114 33.904 0.314 34.093 0.513 34.282 0.786 34.377 1.057 34.365L4.702 34.157C5.252 36.251 6.079 38.251 7.171 40.123L4.448 42.552C4.242 42.735 4.121 42.994 4.114 43.27 4.106 43.545 4.212 43.811 4.407 44.005L11.995 51.594C12.19 51.789 12.469 51.897 12.731 51.886 13.006 51.879 13.266 51.758 13.449 51.552L15.878 48.829C17.751 49.922 19.752 50.753 21.844 51.304L21.636 54.943C21.62 55.218 21.718 55.486 21.908 55.687 22.096 55.887 22.359 56 22.634 56L33.367 56C33.642 56 33.905 55.887 34.093 55.687L34.093 55.687ZM25.985 33.788 36.146 23.627 34.732 22.213 25.278 31.667 21.269 27.658 19.855 29.072 24.571 33.788C24.766 33.983 25.022 34.081 25.278 34.081 25.534 34.081 25.789 33.983 25.985 33.788L25.985 33.788ZM48.101 27.161 44.364 29.156C44.975 20.545 38.762 12.824 30.095 11.71 23.077 10.807 16.297 14.474 13.217 20.834L15.016 21.706C17.723 16.121 23.68 12.9 29.839 13.693 37.361 14.66 42.782 21.292 42.392 28.745L39.712 26.102 38.308 27.526 42.997 32.152 49.042 28.925 48.101 27.161ZM42.784 35.166C40.014 40.884 34.249 44.426 28.016 44.426 27.317 44.426 26.614 44.382 25.906 44.291 17.239 43.176 11.026 35.455 11.637 26.844L7.9 28.839 6.958 27.075 13.003 23.848 17.693 28.475 16.288 29.899 13.609 27.255C13.219 34.709 18.64 41.34 26.161 42.307 32.306 43.098 38.279 39.88 40.984 34.294L42.784 35.166Z" id="Fill-1"/></g></g></svg>