<svg width="48" height="48" viewBox="0 0 48 48" xmlns="http://www.w3.org/2000/svg" xmlns:xlink="http://www.w3.org/1999/xlink" overflow="hidden"><g id="Icon-Resource/Management-Governance/Res_AWS-Trusted-Advisor_Checklist-Performance_48" stroke="none" stroke-width="1" fill="none" fill-rule="evenodd"><path d="M40.501 42.375 42.501 42.375 42.501 34.5 40.501 34.5 40.501 42.375ZM36.126 42.375 38.126 42.375 38.126 38.875 36.126 38.875 36.126 42.375ZM31.751 42.375 33.751 42.375 33.751 37.125 31.751 37.125 31.751 42.375ZM27.376 42.375 29.376 42.375 29.376 38.875 27.376 38.875 27.376 42.375ZM32.779 34.808 36.611 37.107C36.844 37.246 37.124 37.284 37.385 37.216 37.646 37.146 37.868 36.973 38 36.735L41.547 30.353 41.714 31.166 43.673 30.762 42.966 27.334C42.853 26.794 42.335 26.45 41.784 26.557L38.356 27.263 38.76 29.222 40.033 28.96 36.754 34.86 33.265 32.768C32.932 32.567 32.518 32.578 32.196 32.793L26.946 36.293 28.055 37.957 32.779 34.808ZM25.876 44 44.001 44 44.001 25.875 25.876 25.875 25.876 44ZM46.001 24.875 46.001 45C46.001 45.553 45.553 46 45.001 46L24.876 46C24.323 46 23.876 45.553 23.876 45L23.876 24.875C23.876 24.322 24.323 23.875 24.876 23.875L45.001 23.875C45.553 23.875 46.001 24.322 46.001 24.875L46.001 24.875ZM6.328 26.68 4.922 28.102 7.722 30.872C7.91 31.058 8.163 31.161 8.426 31.161 8.449 31.161 8.472 31.16 8.497 31.158 8.784 31.138 9.049 30.995 9.222 30.766L13.423 25.224 11.829 24.015 8.318 28.647 6.328 26.68ZM11.829 14.682 8.318 19.314 6.328 17.346 4.922 18.768 7.722 21.539C7.91 21.725 8.163 21.828 8.426 21.828 8.449 21.828 8.472 21.827 8.497 21.825 8.784 21.805 9.049 21.662 9.222 21.433L13.423 15.891 11.829 14.682ZM11.829 5.349 8.318 9.98 6.328 8.013 4.922 9.435 7.722 12.205C7.91 12.391 8.163 12.494 8.426 12.494 8.449 12.494 8.472 12.493 8.497 12.491 8.784 12.471 9.049 12.328 9.222 12.099L13.423 6.558 11.829 5.349ZM15.251 29.375 22.251 29.375 22.251 27.375 15.251 27.375 15.251 29.375ZM15.251 20.625 26.626 20.625 26.626 18.625 15.251 18.625 15.251 20.625ZM15.251 11 26.626 11 26.626 9 15.251 9 15.251 11ZM4 34.375 22.251 34.375 22.251 36.375 3 36.375C2.447 36.375 2 35.928 2 35.375L2 3C2 2.447 2.447 2 3 2L29.251 2C29.803 2 30.251 2.447 30.251 3L30.251 22.25 28.251 22.25 28.251 4 4 4 4 34.375Z" id="AWS-Trusted-Advisor_checklist-performance_Resource-Icon_dark-bg" fill="#E7157B"/></g></svg>