<svg width="80" height="80" viewBox="0 0 80 80" xmlns="http://www.w3.org/2000/svg" xmlns:xlink="http://www.w3.org/1999/xlink" overflow="hidden"><g id="Icon-Architecture/64/Arch_NICE-EnginFrame_64" stroke="none" stroke-width="1" fill="none" fill-rule="evenodd"><g id="Icon-Architecture-BG/64/Compute" fill="#ED7100"><rect x="0" y="0" width="80" height="80" id="Rectangle"/></g><g id="Icon-Service/64/NICE-EnginFrame_64" fill="#FFFFFF" transform="translate(12 16)"><path d="M9.919 28.879C12.393 35.436 19.629 40 28 40 38.477 40 47 32.822 47 24 47 15.177 38.477 8 28 8 19.628 8 12.393 12.563 9.918 19.12 10.272 19.041 10.634 19 11 19L33 19C35.757 19 38 21.243 38 24 38 26.756 35.757 29 33 29L11 29C10.634 29 10.272 28.959 9.919 28.879M28 42C17.805 42 9.117 35.756 7.342 27.153 7.255 26.729 7.45 26.297 7.826 26.083 8.201 25.867 8.673 25.92 8.994 26.211 9.554 26.72 10.266 27 11 27L33 27C34.654 27 36 25.654 36 24 36 22.345 34.654 21 33 21L11 21C10.266 21 9.554 21.279 8.993 21.788 8.673 22.079 8.202 22.13 7.825 21.916 7.449 21.701 7.255 21.269 7.342 20.845 9.117 12.243 17.805 6 28 6 39.579 6 49 14.074 49 24 49 33.925 39.579 42 28 42M28 2C13.663 2 2 11.869 2 24 2 36.13 13.663 46 28 46 42.337 46 54 36.13 54 24 54 11.869 42.337 2 28 2M28 48C12.561 48 0 37.233 0 24 0 10.766 12.561 0 28 0 43.44 0 56 10.766 56 24 56 37.233 43.44 48 28 48" id="Fill-8"/></g></g></svg>