<svg width="48" height="48" viewBox="0 0 48 48" xmlns="http://www.w3.org/2000/svg" xmlns:xlink="http://www.w3.org/1999/xlink" overflow="hidden"><g id="Icon-Resource/IoT/Res_AWS-IoT_Thing_Factory_48" stroke="none" stroke-width="1" fill="none" fill-rule="evenodd"><path d="M30.246 31.762 31.762 31.762 31.762 30.246 30.246 30.246 30.246 31.762ZM28.246 32.761C28.246 33.314 28.693 33.761 29.246 33.761L32.762 33.761C33.314 33.761 33.762 33.314 33.762 32.761L33.762 29.246C33.762 28.693 33.314 28.246 32.762 28.246L29.246 28.246C28.693 28.246 28.246 28.693 28.246 29.246L28.246 32.761ZM16.183 31.761 17.699 31.761 17.699 30.245 16.183 30.245 16.183 31.761ZM15.184 28.246C14.631 28.246 14.184 28.693 14.184 29.246L14.184 32.761C14.184 33.314 14.631 33.761 15.184 33.761L18.699 33.761C19.252 33.761 19.699 33.314 19.699 32.761L19.699 29.246C19.699 28.693 19.252 28.246 18.699 28.246L15.184 28.246ZM23.214 23.851 24.73 23.851 24.73 22.335 23.214 22.335 23.214 23.851ZM22.215 20.336C21.662 20.336 21.215 20.783 21.215 21.336L21.215 24.851C21.215 25.404 21.662 25.851 22.215 25.851L25.73 25.851C26.283 25.851 26.73 25.404 26.73 24.851L26.73 21.336C26.73 20.783 26.283 20.336 25.73 20.336L22.215 20.336ZM16.183 23.851 17.699 23.851 17.699 22.335 16.183 22.335 16.183 23.851ZM15.184 20.336C14.631 20.336 14.184 20.783 14.184 21.336L14.184 24.851C14.184 25.404 14.631 25.851 15.184 25.851L18.699 25.851C19.252 25.851 19.699 25.404 19.699 24.851L19.699 21.336C19.699 20.783 19.252 20.336 18.699 20.336L15.184 20.336ZM35.277 35.277 26.73 35.277 26.73 29.246C26.73 28.693 26.283 28.246 25.73 28.246L22.215 28.246C21.662 28.246 21.215 28.693 21.215 29.246L21.215 35.277 12.668 35.277 12.668 13.945 28.923 19.505C29.228 19.61 29.566 19.559 29.828 19.372 30.09 19.184 30.246 18.882 30.246 18.558L30.246 13.547 30.883 13.547 30.883 19.464C30.883 19.891 31.154 20.271 31.559 20.41L35.277 21.681 35.277 35.277ZM32.883 18.749 32.883 12.547C32.883 11.994 32.435 11.547 31.883 11.547L29.246 11.547C28.693 11.547 28.246 11.994 28.246 12.547L28.246 17.16 11.991 11.6C11.685 11.495 11.348 11.5463 11.086 11.733 10.824 11.921 10.668 12.223 10.668 12.547L10.668 36.277C10.668 36.83 11.115 37.277 11.668 37.277L22.215 37.277C22.767 37.277 23.215 36.83 23.215 36.277L23.215 30.246 24.73 30.246 24.73 36.277C24.73 36.83 25.178 37.277 25.73 37.277L36.277 37.277C36.83 37.277 37.277 36.83 37.277 36.277L37.277 20.966C37.277 20.539 37.006 20.159 36.6 20.02L32.883 18.749ZM39.67 38.537C39.67 39.163 39.161 39.672 38.535 39.672L9.409 39.672C8.783 39.672 8.274 39.163 8.274 38.537L8.274 9.424C8.274 8.798 8.783 8.289 9.409 8.289L38.535 8.289C39.161 8.289 39.67 8.798 39.67 9.424L39.67 38.537ZM45.945 14.425 45.945 12.425 41.67 12.425 41.67 9.424C41.67 7.695 40.264 6.289 38.535 6.289L35.519 6.289 35.519 2 33.519 2 33.519 6.289 30.246 6.289 30.246 2 28.246 2 28.246 6.289 24.973 6.289 24.973 2 22.973 2 22.973 6.289 19.699 6.289 19.699 2 17.699 2 17.699 6.289 14.426 6.289 14.426 2 12.426 2 12.426 6.289 9.409 6.289C7.681 6.289 6.274 7.695 6.274 9.424L6.274 12.425 2 12.425 2 14.425 6.274 14.425 6.274 17.699 2 17.699 2 19.699 6.274 19.699 6.274 22.972 2 22.972 2 24.972 6.274 24.972 6.274 28.246 2 28.246 2 30.246 6.274 30.246 6.274 33.519 2 33.519 2 35.519 6.274 35.519 6.274 38.537C6.274 40.265 7.681 41.672 9.409 41.672L12.426 41.672 12.426 45.945 14.426 45.945 14.426 41.672 17.699 41.672 17.699 45.945 19.699 45.945 19.699 41.672 22.973 41.672 22.973 45.945 24.973 45.945 24.973 41.672 28.246 41.672 28.246 45.945 30.246 45.945 30.246 41.672 33.519 41.672 33.519 45.945 35.519 45.945 35.519 41.672 38.535 41.672C40.264 41.672 41.67 40.265 41.67 38.537L41.67 35.519 45.945 35.519 45.945 33.519 41.67 33.519 41.67 30.246 45.945 30.246 45.945 28.246 41.67 28.246 41.67 24.972 45.945 24.972 45.945 22.972 41.67 22.972 41.67 19.699 45.945 19.699 45.945 17.699 41.67 17.699 41.67 14.425 45.945 14.425Z" id="Amazon-IOT-RESOURCES-IoT-thing-factory_Resource-Icon_light-bg" fill="#7AA116"/></g></svg>