<svg width="48" height="48" viewBox="0 0 48 48" xmlns="http://www.w3.org/2000/svg" xmlns:xlink="http://www.w3.org/1999/xlink" overflow="hidden"><g id="Icon-Resource/Networking-and-Content-Delivery/Res_AWS-Cloud-WAN_Core-Network-Edge_48" stroke="none" stroke-width="1" fill="none" fill-rule="evenodd"><path d="M42 26C40.897 26 40 25.103 40 24 40 22.897 40.897 22 42 22 43.103 22 44 22.897 44 24 44 25.103 43.103 26 42 26M25 36.949 25 30.92C28.059 30.479 30.479 28.059 30.92 25L36.949 25C36.461 31.37 31.37 36.461 25 36.949M24 44C22.897 44 22 43.103 22 42 22 40.897 22.897 40 24 40 25.103 40 26 40.897 26 42 26 43.103 25.103 44 24 44M11.051 25 17.08 25C17.521 28.059 19.941 30.479 23 30.92L23 36.949C16.63 36.461 11.539 31.37 11.051 25M23 11.051 23 17.08C19.941 17.521 17.521 19.941 17.08 23L11.051 23C11.539 16.63 16.63 11.539 23 11.051M24 4C25.103 4 26 4.897 26 6 26 7.103 25.103 8 24 8 22.897 8 22 7.103 22 6 22 4.897 22.897 4 24 4M24 29C21.243 29 19 26.757 19 24 19 21.243 21.243 19 24 19 26.757 19 29 21.243 29 24 29 26.757 26.757 29 24 29M36.949 23 30.92 23C30.479 19.941 28.059 17.521 25 17.08L25 11.051C31.37 11.539 36.461 16.63 36.949 23M6 26C4.897 26 4 25.103 4 24 4 22.897 4.897 22 6 22 7.103 22 8 22.897 8 24 8 25.103 7.103 26 6 26M42 20C40.683 20 39.524 20.647 38.794 21.631 37.777 15.258 32.742 10.223 26.369 9.206 27.353 8.476 28 7.316 28 6 28 3.794 26.206 2 24 2 21.794 2 20 3.794 20 6 20 7.316 20.647 8.476 21.631 9.206 15.258 10.223 10.223 15.258 9.206 21.631 8.476 20.647 7.317 20 6 20 3.794 20 2 21.794 2 24 2 26.206 3.794 28 6 28 7.317 28 8.476 27.353 9.206 26.369 10.223 32.742 15.258 37.777 21.631 38.794 20.647 39.524 20 40.684 20 42 20 44.206 21.794 46 24 46 26.206 46 28 44.206 28 42 28 40.684 27.353 39.524 26.369 38.794 32.742 37.777 37.777 32.742 38.794 26.369 39.524 27.353 40.683 28 42 28 44.206 28 46 26.206 46 24 46 21.794 44.206 20 42 20" id="Fill-1" fill="#8C4FFF"/></g></svg>