<svg width="80" height="80" viewBox="0 0 80 80" xmlns="http://www.w3.org/2000/svg" xmlns:xlink="http://www.w3.org/1999/xlink" overflow="hidden"><g id="Icon-Architecture/64/Arch_Amazon-CloudFront_64" stroke="none" stroke-width="1" fill="none" fill-rule="evenodd"><g id="Icon-Architecture-BG/64/Networking-Content-Delivery" fill="#8C4FFF"><rect x="0" y="0" width="80" height="80" id="Rectangle"/></g><path d="M55.122 52.123C55.122 50.469 53.776 49.123 52.122 49.123 50.468 49.123 49.122 50.469 49.122 52.123 49.122 53.777 50.468 55.123 52.122 55.123 53.776 55.123 55.122 53.777 55.122 52.123L55.122 52.123ZM57.122 52.123C57.122 54.88 54.879 57.123 52.122 57.123 49.365 57.123 47.122 54.88 47.122 52.123 47.122 49.366 49.365 47.123 52.122 47.123 54.879 47.123 57.122 49.366 57.122 52.123L57.122 52.123ZM30.392 37.692C30.392 36.038 29.046 34.692 27.392 34.692 25.737 34.692 24.392 36.038 24.392 37.692 24.392 39.346 25.737 40.692 27.392 40.692 29.046 40.692 30.392 39.346 30.392 37.692L30.392 37.692ZM32.392 37.692C32.392 40.449 30.148 42.692 27.392 42.692 24.635 42.692 22.392 40.449 22.392 37.692 22.392 34.935 24.635 32.692 27.392 32.692 30.148 32.692 32.392 34.935 32.392 37.692L32.392 37.692ZM39.73 22.007C39.73 23.661 41.076 25.007 42.73 25.007 44.385 25.007 45.73 23.661 45.73 22.007 45.73 20.352 44.385 19.007 42.73 19.007 41.076 19.007 39.73 20.352 39.73 22.007L39.73 22.007ZM37.73 22.007C37.73 19.25 39.974 17.007 42.73 17.007 45.487 17.007 47.73 19.25 47.73 22.007 47.73 24.764 45.487 27.007 42.73 27.007 39.974 27.007 37.73 24.764 37.73 22.007L37.73 22.007ZM66 40C66 30.727 61.028 22.148 53.012 17.509 51.575 17.799 50.185 18.196 48.451 18.823L47.771 16.942C48.676 16.616 49.486 16.352 50.266 16.126 47.046 14.737 43.548 14 40 14 38.311 14 36.649 14.175 35.025 14.492 36.201 15.18 37.244 15.866 38.257 16.634L37.048 18.227C35.62 17.145 34.14 16.228 32.197 15.21 22.378 18.298 15.306 26.958 14.183 37.128 16.242 36.711 18.219 36.484 20.414 36.43L20.463 38.429C18.163 38.486 16.187 38.73 14.027 39.205 14.018 39.47 14 39.738 14 40 14 48.658 18.283 56.636 25.327 61.447 24.074 57.716 23.45 54.19 23.45 50.746 23.45 48.782 23.788 47.169 24.145 45.462 24.228 45.067 24.312 44.665 24.394 44.248L26.357 44.635C26.273 45.059 26.187 45.47 26.103 45.873 25.753 47.545 25.45 48.989 25.45 50.746 25.45 54.654 26.308 58.695 28.054 63.083 31.773 65.014 35.789 66 40 66 42.756 66 45.446 65.56 48.012 64.714 49.019 62.727 49.766 60.852 50.39 58.699L52.311 59.256C51.855 60.826 51.332 62.253 50.709 63.677 52.323 62.951 53.85 62.053 55.283 61.005 54.938 60.159 54.568 59.318 54.159 58.499L55.948 57.604C56.296 58.3 56.615 59.012 56.92 59.728 62.705 54.775 66 47.66 66 40L66 40ZM68 40C68 48.727 64.034 56.799 57.121 62.149 55.409 63.479 53.552 64.583 51.589 65.472 50.756 65.85 49.908 66.2 49.036 66.494 46.156 67.493 43.113 68 40 68 35.4 68 30.832 66.854 26.788 64.686 17.667 59.806 12 50.347 12 40 12 39.314 12.018 38.792 12.059 38.309 12.74 26.625 20.756 16.512 32.001 13.166 34.562 12.393 37.255 12 40 12 44.808 12 49.539 13.238 53.684 15.579 62.513 20.525 68 29.884 68 40L68 40ZM37.314 25.463 36 23.956C33.758 25.912 32.014 27.989 29.977 31.126L31.655 32.215C33.583 29.244 35.223 27.288 37.314 25.463L37.314 25.463ZM34.275 38.427 33.625 40.318C38.218 41.895 42.225 44.411 46.234 48.236L47.615 46.789C43.389 42.758 39.15 40.101 34.275 38.427L34.275 38.427ZM47.646 26.668C51.398 32.39 53.511 38.671 53.925 45.338L51.929 45.462C51.536 39.146 49.533 33.192 45.975 27.765L47.646 26.668Z" id="Amazon-CloudFront_Icon_64_Squid" fill="#FFFFFF"/></g></svg>