<svg width="48" height="48" viewBox="0 0 48 48" xmlns="http://www.w3.org/2000/svg" xmlns:xlink="http://www.w3.org/1999/xlink" overflow="hidden"><g id="Icon-Resource/IoT/Res_AWS-IoT_Thing_Police-Emergency_48" stroke="none" stroke-width="1" fill="none" fill-rule="evenodd"><path d="M23.9929 34.2149C23.0979 33.6349 21.3109 32.6249 19.2339 32.2519 17.9239 32.0169 14.8759 31.1899 14.8759 28.6049 14.8759 27.4659 15.3049 26.7269 15.8019 25.8699 16.2929 25.0229 16.8499 24.0639 16.8499 22.7539 16.8499 21.1179 16.0889 19.8679 15.4889 19.1389 16.0019 18.5139 16.7619 17.5839 17.3369 16.8599 18.3549 17.6509 19.4949 18.0769 20.6329 18.0769 21.9229 18.0769 23.0119 17.6349 23.9929 16.6979 24.9749 17.6349 26.0629 18.0769 27.3539 18.0769 28.4909 18.0769 29.6319 17.6509 30.6479 16.8599 31.2249 17.5839 31.9829 18.5139 32.4959 19.1389 31.8969 19.8679 31.1359 21.1179 31.1359 22.7539 31.1359 24.0639 31.6919 25.0229 32.1839 25.8699 32.6809 26.7269 33.1099 27.4659 33.1099 28.6049 33.1099 31.1899 30.0619 32.0169 28.7509 32.2519 26.6759 32.6249 24.8889 33.6349 23.9929 34.2149ZM35.2459 19.3309 34.6039 18.5519C34.5779 18.5229 32.1349 15.5609 31.5819 14.8039L30.8699 13.8259 30.0439 14.7099C29.2199 15.5919 28.2639 16.0769 27.3539 16.0769 26.6469 16.0769 25.7909 15.8999 24.7869 14.5889L23.9929 13.5509 23.1989 14.5889C22.1949 15.8999 21.3389 16.0769 20.6329 16.0769 19.7219 16.0769 18.7659 15.5919 17.9409 14.7099L17.1149 13.8249 16.4019 14.8039C15.8519 15.5609 13.4069 18.5219 13.3819 18.5519L12.7519 19.3249 13.5199 19.9619C13.5329 19.9739 14.8499 21.0849 14.8499 22.7539 14.8499 23.5259 14.5069 24.1169 14.0719 24.8659 13.5389 25.7839 12.8759 26.9269 12.8759 28.6049 12.8759 31.4459 15.1209 33.5459 18.8809 34.2209 21.3109 34.6559 23.3639 36.2089 23.3849 36.2249L23.9939 36.6879 24.6019 36.2249C24.6219 36.2089 26.6759 34.6559 29.1049 34.2209 32.8649 33.5459 35.1099 31.4459 35.1099 28.6049 35.1099 26.9269 34.4459 25.7839 33.9129 24.8659 33.4789 24.1169 33.1359 23.5259 33.1359 22.7539 33.1359 21.0849 34.4519 19.9739 34.4609 19.9659L35.2459 19.3309ZM39.7059 38.5739C39.7059 39.1999 39.1969 39.7089 38.5709 39.7089L9.4139 39.7089C8.7879 39.7089 8.2789 39.1999 8.2789 38.5739L8.2789 9.4289C8.2789 8.8029 8.7879 8.2939 9.4139 8.2939L38.5709 8.2939C39.1969 8.2939 39.7059 8.8029 39.7059 9.4289L39.7059 38.5739ZM45.9859 14.4369 45.9859 12.4369 41.7059 12.4369 41.7059 9.4289C41.7059 7.6999 40.2999 6.2939 38.5709 6.2939L35.5499 6.2939 35.5499 1.9999 33.5499 1.9999 33.5499 6.2939 30.2719 6.2939 30.2719 1.9999 28.2719 1.9999 28.2719 6.2939 24.9929 6.2939 24.9929 1.9999 22.9929 1.9999 22.9929 6.2939 19.7149 6.2939 19.7149 1.9999 17.7149 1.9999 17.7149 6.2939 14.4369 6.2939 14.4369 1.9999 12.4369 1.9999 12.4369 6.2939 9.4139 6.2939C7.6859 6.2939 6.2789 7.6999 6.2789 9.4289L6.2789 12.4369 1.9999 12.4369 1.9999 14.4369 6.2789 14.4369 6.2789 17.7159 1.9999 17.7159 1.9999 19.7159 6.2789 19.7159 6.2789 22.9939 1.9999 22.9939 1.9999 24.9939 6.2789 24.9939 6.2789 28.2729 1.9999 28.2729 1.9999 30.2729 6.2789 30.2729 6.2789 33.5509 1.9999 33.5509 1.9999 35.5509 6.2789 35.5509 6.2789 38.5739C6.2789 40.3029 7.6859 41.7089 9.4139 41.7089L12.4369 41.7089 12.4369 45.9869 14.4369 45.9869 14.4369 41.7089 17.7149 41.7089 17.7149 45.9869 19.7149 45.9869 19.7149 41.7089 22.9929 41.7089 22.9929 45.9869 24.9929 45.9869 24.9929 41.7089 28.2719 41.7089 28.2719 45.9869 30.2719 45.9869 30.2719 41.7089 33.5499 41.7089 33.5499 45.9869 35.5499 45.9869 35.5499 41.7089 38.5709 41.7089C40.2999 41.7089 41.7059 40.3029 41.7059 38.5739L41.7059 35.5509 45.9859 35.5509 45.9859 33.5509 41.7059 33.5509 41.7059 30.2729 45.9859 30.2729 45.9859 28.2729 41.7059 28.2729 41.7059 24.9939 45.9859 24.9939 45.9859 22.9939 41.7059 22.9939 41.7059 19.7159 45.9859 19.7159 45.9859 17.7159 41.7059 17.7159 41.7059 14.4369 45.9859 14.4369Z" id="Amazon-IOT-RESOURCES-IoT-thing-police-emergency_Resource-Icon_light-bg" fill="#7AA116"/></g></svg>