<svg width="48" height="48" viewBox="0 0 48 48" xmlns="http://www.w3.org/2000/svg" xmlns:xlink="http://www.w3.org/1999/xlink" overflow="hidden"><g id="Icon-Resource/Front-End-Web-Mobile/Res_Amazon-Location-Service_Place_48" stroke="none" stroke-width="1" fill="none" fill-rule="evenodd"><path d="M24 4C15.729 4 9 9.832 9 17 9 22.726 13.427 27.853 19.766 29.468 20.819 29.736 21.635 30.581 21.892 31.672L24 40.634 26.108 31.672C26.365 30.581 27.181 29.736 28.235 29.468 34.573 27.853 39 22.726 39 17 39 9.832 32.271 4 24 4M24 46C23.536 46 23.133 45.681 23.026 45.229L19.944 32.13C19.86 31.773 19.597 31.489 19.272 31.407 12.046 29.565 7 23.641 7 17 7 8.729 14.626 2 24 2 33.374 2 41 8.729 41 17 41 23.641 35.954 29.564 28.729 31.407 28.403 31.489 28.14 31.773 28.056 32.13L24.974 45.229C24.867 45.681 24.464 46 24 46M24 12C21.243 12 19 14.243 19 17 19 19.757 21.243 22 24 22 26.757 22 29 19.757 29 17 29 14.243 26.757 12 24 12M24 24C20.141 24 17 20.86 17 17 17 13.14 20.141 10 24 10 27.859 10 31 13.14 31 17 31 20.86 27.859 24 24 24" id="Fill-1" fill="#DD344C"/></g></svg>