<svg width="80" height="80" viewBox="0 0 80 80" xmlns="http://www.w3.org/2000/svg" xmlns:xlink="http://www.w3.org/1999/xlink" overflow="hidden"><g id="Icon-Architecture/64/Arch_AWS-Elemental-MediaConvert_64" stroke="none" stroke-width="1" fill="none" fill-rule="evenodd"><g id="Icon-Architecture-BG/64/Media-Services" fill="#ED7100"><rect x="0" y="0" width="80" height="80" id="Rectangle"/></g><path d="M62 52.4223 55.504 56.135 56.496 57.8713 63.496 53.8706C63.808 53.6935 64 53.3615 64 53.0024L64 46.0011 62 46.0011 62 52.4223ZM53 31.5784 40 24.1491 27 31.5784 27 47.4554 40 55.8139 53 47.4554 53 31.5784ZM64 27.0006 64 33.9989 62 33.9989 62 28.5389 55 31.6485 55 48.0015C55 48.3415 54.827 48.6586 54.541 48.8426L41 57.5493 41 64.2995 46.514 61.2329 47.486 62.9813 40.486 66.874C40.335 66.958 40.167 67 40 67 39.833 67 39.665 66.958 39.514 66.874L32.514 62.9813 33.486 61.2329 39 64.2995 39 57.5493 25.459 48.8426C25.173 48.6586 25 48.3415 25 48.0015L25 31.6485 18 28.5369 18 33.9989 16 33.9989 16 27.0006C16 26.6415 16.192 26.3105 16.504 26.1314L23.504 22.1287 24.496 23.865 19.213 26.8866 25.943 29.8781 39.504 22.1287C39.811 21.9527 40.189 21.9527 40.496 22.1287L54.057 29.8791 60.789 26.8876 55.504 23.865 56.496 22.1287 63.496 26.1314C63.808 26.3105 64 26.6415 64 27.0006L64 27.0006ZM40 35.1651 36 37.5655 36 42.4345 40 44.8349 44 42.4345 44 37.5655 40 35.1651ZM40.515 33.1417 45.044 35.8592 48.553 34.1049 49.447 35.8942 46 37.6176 46 43.0006C46 43.3516 45.815 43.6777 45.515 43.8577L41 46.5672 41 51.002 39 51.002 39 46.5672 34.485 43.8577C34.185 43.6777 34 43.3516 34 43.0006L34 37.6176 30.553 35.8942 31.447 34.1049 34.956 35.8592 39.485 33.1417C39.802 32.9507 40.198 32.9507 40.515 33.1417L40.515 33.1417ZM40 15.1444 46.514 18.7681 47.486 17.0197 40.486 13.126C40.184 12.958 39.816 12.958 39.514 13.126L32.514 17.0197 33.486 18.7681 40 15.1444ZM18 52.4193 24.496 56.135 23.504 57.8713 16.504 53.8676C16.192 53.6895 16 53.3585 16 52.9994L16 46.0011 18 46.0011 18 52.4193Z" id="AWS-Elemental-MediaConvert_Icon_64_Squid" fill="#FFFFFF"/></g></svg>