<svg width="48" height="48" viewBox="0 0 48 48" xmlns="http://www.w3.org/2000/svg" xmlns:xlink="http://www.w3.org/1999/xlink" overflow="hidden"><g id="Icon-Resource/Analytics/Res_Amazon-EMR_Cluster_48" stroke="none" stroke-width="1" fill="none" fill-rule="evenodd"><path d="M36.946 26.491C36.458 26.557 36.076 26.958 36.076 27.465L36.076 30.446 33.745 29.669 36.433 25.74 36.946 26.491ZM38.076 34.329 43.94 34.329 43.94 28.465 38.076 28.465 38.076 34.329ZM33.708 39.47 33.708 37.076C33.708 36.523 33.26 36.076 32.708 36.076L29.36 36.076 32.571 31.385 36.076 32.553 36.076 35.329C36.076 35.882 36.523 36.329 37.076 36.329L37.913 36.329C36.394 37.481 34.831 38.642 33.708 39.47L33.708 39.47ZM25.844 43.94 31.708 43.94 31.708 38.076 25.844 38.076 25.844 43.94ZM10.426 33.455C6.423 33.455 4.106 32.304 4 31.82L3.999 18.747C5.648 19.546 8.087 19.927 10.426 19.927 12.766 19.927 15.205 19.546 16.853 18.747L16.854 31.812C16.745 32.303 14.426 33.455 10.426 33.455L10.426 33.455ZM16.678 16.519C16.07 17.07 13.88 17.927 10.426 17.927 6.966 17.927 4.773 17.067 4.172 16.521 4.774 15.97 6.966 15.112 10.426 15.112 13.88 15.112 16.07 15.968 16.678 16.519L16.678 16.519ZM25.843 9.864 31.707 9.864 31.707 4 25.843 4 25.843 9.864ZM37.913 11.611 37.076 11.611C36.523 11.611 36.076 12.058 36.076 12.611L36.076 15.387 32.571 16.555 29.36 11.864 32.708 11.864C33.26 11.864 33.708 11.417 33.708 10.864L33.708 8.47C34.831 9.298 36.394 10.459 37.913 11.611L37.913 11.611ZM38.076 19.475 43.94 19.475 43.94 13.611 38.076 13.611 38.076 19.475ZM33.745 18.271 36.076 17.494 36.076 20.475C36.076 20.982 36.458 21.384 36.946 21.449L36.433 22.2 33.745 18.271ZM18.853 24.701 18.853 23.239 31.772 18.929 35.221 23.97 31.772 29.011 18.853 24.701ZM24.25 11.648C24.418 11.775 24.617 11.864 24.843 11.864L26.937 11.864 30.598 17.214 18.853 21.132 18.853 16.748C18.853 16.669 18.837 16.595 18.828 16.519 18.837 16.443 18.853 16.37 18.853 16.291L18.801 16.291C18.789 16.232 18.761 16.178 18.743 16.121L24.25 11.648ZM24.843 36.076C24.617 36.076 24.418 36.165 24.25 36.293L18.844 31.903C18.845 31.875 18.853 31.848 18.853 31.82L18.853 26.808 30.598 30.726 26.937 36.076 24.843 36.076ZM39.351 21.475 44.94 21.475C45.493 21.475 45.94 21.028 45.94 20.475L45.94 12.611C45.94 12.058 45.493 11.611 44.94 11.611L41.195 11.611C38.573 9.562 34.915 6.872 33.708 5.987L33.708 3C33.708 2.447 33.26 2 32.708 2L24.843 2C24.291 2 23.843 2.447 23.843 3L23.843 9.4 17.428 14.611C15.811 13.594 13.058 13.112 10.426 13.112 6.625 13.112 2.551 14.111 2.051 16.291L2 16.291C2 16.37 2.016 16.443 2.025 16.519 2.016 16.595 2 16.669 2 16.748L2 31.82C2 34.317 6.368 35.455 10.426 35.455 13.298 35.455 16.316 34.883 17.842 33.665L23.843 38.54 23.843 44.94C23.843 45.493 24.291 45.94 24.843 45.94L32.708 45.94C33.26 45.94 33.708 45.493 33.708 44.94L33.708 41.953C34.915 41.068 38.573 38.378 41.195 36.329L44.94 36.329C45.493 36.329 45.94 35.882 45.94 35.329L45.94 27.465C45.94 26.912 45.493 26.465 44.94 26.465L39.351 26.465 37.644 23.97 39.351 21.475Z" id="Fill-6" fill="#8C4FFF"/></g></svg>