<svg width="48" height="48" viewBox="0 0 48 48" xmlns="http://www.w3.org/2000/svg" xmlns:xlink="http://www.w3.org/1999/xlink" overflow="hidden"><g id="Icon-Resource/Storage/Res_Amazon-Elastic-File-System_One-Zone_48" stroke="none" stroke-width="1" fill="none" fill-rule="evenodd"><path d="M40 9C40 8.449 39.552 8 39 8 38.448 8 38 8.449 38 9 38 9.551 38.448 10 39 10 39.552 10 40 9.551 40 9L40 9ZM42 9C42 10.654 40.654 12 39 12 37.346 12 36 10.654 36 9 36 7.346 37.346 6 39 6 40.654 6 42 7.346 42 9L42 9ZM43.992 8.833C44.061 7.55 43.659 6.411 42.833 5.54 41.904 4.561 40.508 4 39 4 37.581 4 36.215 4.58 35.251 5.592 34.39 6.496 33.947 7.648 34.005 8.837 34.121 11.234 37.104 15.242 38.933 17.405 39.405 16.769 40.074 15.875 40.854 14.861L41.35 14.2C42.047 13.247 42.624 12.349 43.057 11.539L43.354 10.95C43.744 10.126 43.962 9.406 43.992 8.833L43.992 8.833ZM45.99 8.938C45.945 9.785 45.671 10.73 45.151 11.828L44.837 12.45C44.834 12.457 44.83 12.464 44.826 12.471 44.349 13.367 43.72 14.349 42.956 15.391L42.446 16.07C40.913 18.066 39.813 19.583 39.81 19.587 39.633 19.83 39.356 19.981 39.058 19.999 39.038 20 39.019 20 39 20 38.721 20 38.453 19.883 38.263 19.676 37.644 19 32.202 12.958 32.007 8.934 31.923 7.193 32.561 5.517 33.803 4.212 35.143 2.807 37.037 2 39 2 41.054 2 42.979 2.789 44.283 4.163 45.497 5.442 46.087 7.094 45.99 8.938L45.99 8.938ZM14.885 18C14.885 17.488 15.273 15.695 15.575 15L21.854 15C22.103 15.71 22.346 17.408 22.346 18 22.346 18.552 22.793 19 23.346 19L25 19 25 17 24.285 17C24.155 15.614 23.755 13.252 22.524 13.018 22.463 13.006 22.399 13 22.337 13L15.158 13C13.779 13 13.209 15.541 12.997 17L12 17 12 19 13.885 19C14.438 19 14.885 18.552 14.885 18L14.885 18ZM31 19 35 19 35 17 31 17 31 19ZM42.592 19.592C42.858 19.956 43 20.511 43 21.199L43 44 4 44 4 21.199C4 19.555 4.544 19 6.154 19L6.154 17C3.437 17 2 18.452 2 21.199L2 45C2 45.552 2.447 46 3 46L44 46C44.553 46 45 45.552 45 45L45 21.199C45 20.066 44.731 19.127 44.203 18.408L42.592 19.592ZM33 37.5C33 38.878 34.121 40 35.5 40 36.879 40 38 38.878 38 37.5 38 36.122 36.879 35 35.5 35 34.121 35 33 36.122 33 37.5L33 37.5ZM35.5 33C37.981 33 40 35.019 40 37.5 40 39.981 37.981 42 35.5 42 33.019 42 31 39.981 31 37.5 31 35.019 33.019 33 35.5 33L35.5 33ZM25.342 36 23.476 32.463 21.645 36 25.342 36ZM24.353 29.838 27.885 36.533C28.048 36.843 28.037 37.216 27.856 37.517 27.676 37.816 27.351 38 27 38L20 38C19.651 38 19.327 37.818 19.146 37.52 18.964 37.221 18.951 36.85 19.112 36.54L22.58 29.845C22.751 29.514 23.092 29.306 23.464 29.305L23.468 29.305C23.839 29.305 24.179 29.51 24.353 29.838L24.353 29.838ZM10 40 14 40 14 36 10 36 10 40ZM15 34C15.553 34 16 34.448 16 35L16 41C16 41.552 15.553 42 15 42L9 42C8.447 42 8 41.552 8 41L8 35C8 34.448 8.447 34 9 34L15 34ZM24.293 22.707 27.293 25.707C27.488 25.902 27.744 26 28 26 28.256 26 28.512 25.902 28.707 25.707L31.707 22.707 30.293 21.293 29 22.586 29 13 27 13 27 22.586 25.707 21.293 24.293 22.707ZM18 5.415 18 11 20 11 20 5.414 21.293 6.707 22.707 5.293 19.708 2.293C19.521 2.105 19.267 2 19.001 2 18.735 2 18.481 2.105 18.294 2.293L15.293 5.293 16.707 6.707 18 5.415ZM6.707 22.293 8 23.586 8 16 10 16 10 23.586 11.293 22.293 12.707 23.707 9.707 26.707C9.512 26.902 9.256 27 9 27 8.744 27 8.488 26.902 8.293 26.707L5.293 23.707 6.707 22.293Z" id="Fill-1" fill="#7AA116"/></g></svg>