<svg width="48" height="48" viewBox="0 0 48 48" xmlns="http://www.w3.org/2000/svg" xmlns:xlink="http://www.w3.org/1999/xlink" overflow="hidden"><g id="Icon-Resource/Security-Identity-and-Compliance/Res_AWS-Shield_AWS-Shield-Advanced_48" stroke="none" stroke-width="1" fill="none" fill-rule="evenodd"><path d="M36.0802 35.1109 39.1182 35.1109 39.1182 37.1109 36.0802 37.1109 36.0802 40.1489 34.0802 40.1489 34.0802 37.1109 31.0422 37.1109 31.0422 35.1109 34.0802 35.1109 34.0802 32.0729 36.0802 32.0729 36.0802 35.1109ZM35.0802 42.3799C31.6242 42.3799 28.8122 39.5669 28.8122 36.1109 28.8122 32.6549 31.6242 29.8419 35.0802 29.8419 38.5362 29.8419 41.3492 32.6549 41.3492 36.1109 41.3492 39.5669 38.5362 42.3799 35.0802 42.3799L35.0802 42.3799ZM21.1592 38.2829C13.0002 37.6849 12.6702 29.9679 12.6612 29.6499L12.6612 13.3789 21.1592 10.1099 21.1592 38.2829ZM26.8122 36.1109C26.8122 36.5029 26.8502 36.8849 26.9022 37.2619 25.8172 37.8319 24.5652 38.1749 23.1592 38.2839L23.1592 10.1099 31.6572 13.3789 31.6572 28.5929C28.8042 29.8979 26.8122 32.7729 26.8122 36.1109L26.8122 36.1109ZM22.1592 43.9849C17.5692 43.9849 13.9392 42.6229 11.3702 39.9349 6.7122 35.0599 7.00308 27.3509 7.0082 27.2279L7.0082 10.1379 22.1592 4.0779 37.3102 10.1379 37.3112 27.2739C37.3112 27.2789 37.3252 27.6059 37.3092 28.1559 36.5992 27.9569 35.8532 27.8419 35.0802 27.8419 34.5952 27.8419 34.1212 27.8929 33.6572 27.9739L33.6572 12.6919C33.6572 12.2779 33.4022 11.9069 33.0172 11.7579L22.5182 7.7199C22.2862 7.6319 22.0322 7.6319 21.8002 7.7199L11.3022 11.7579C10.9162 11.9069 10.6612 12.2779 10.6612 12.6919L10.6612 29.6719C10.6642 29.7789 11.0232 40.3409 22.1592 40.3409 24.1352 40.3409 25.8942 39.9609 27.4322 39.2399 27.9282 40.4489 28.7042 41.5119 29.6782 42.3559 27.5722 43.4319 25.0552 43.9849 22.1592 43.9849L22.1592 43.9849ZM39.2692 28.9939C39.3402 27.9109 39.3112 27.2279 39.3102 27.2279L39.3102 9.4619C39.3102 9.0519 39.0612 8.6849 38.6822 8.5329L22.5302 2.0719C22.2922 1.9759 22.0262 1.9759 21.7882 2.0719L5.6372 8.5329C5.2572 8.6849 5.0082 9.0519 5.0082 9.4619L5.0092 27.1809C4.9922 27.5299 4.6642 35.8009 9.9142 41.3049 12.8752 44.4109 16.9952 45.9849 22.1592 45.9849 25.8292 45.9849 28.9852 45.1719 31.5672 43.5849 32.6352 44.0899 33.8232 44.3799 35.0802 44.3799 39.6402 44.3799 43.3492 40.6709 43.3492 36.1109 43.3492 33.0809 41.7062 30.4339 39.2692 28.9939L39.2692 28.9939Z" id="AWS-Shield_AWS-Shield-Advanced_Resource-Icon_light-bg" fill="#DD344C"/></g></svg>