<svg width="80" height="80" viewBox="0 0 80 80" xmlns="http://www.w3.org/2000/svg" xmlns:xlink="http://www.w3.org/1999/xlink" overflow="hidden"><g id="Icon-Architecture/64/Arch_Amazon-Comprehend-Medical_64" stroke="none" stroke-width="1" fill="none" fill-rule="evenodd"><g id="Icon-Architecture-BG/64/Machine-Learning" fill="#01A88D"><rect x="0" y="0" width="80" height="80" id="Rectangle"/></g><g id="Icon-Service/64/Amazon-Comprehend-Medical_64" fill="#FFFFFF" transform="translate(12 12)"><path d="M8.96593 6.581 8.96593 41.908 2.17593 7.978 8.96593 6.581ZM39.9659 3.227 45.3359 8 39.9659 8 39.9659 3.227ZM10.9659 2 37.9659 2 37.9659 9C37.9659 9.553 38.4129 10 38.9659 10L46.9659 10 46.9659 33 48.9659 33 48.9659 9C48.9659 8.715 48.8439 8.443 48.6299 8.253L39.6299 0.253C39.4469 0.09 39.2109-3.55271e-15 38.9659-3.55271e-15L9.96593-3.55271e-15C9.41293-3.55271e-15 8.96593 0.448 8.96593 1L8.96593 4.539 0.798933 6.22C0.259933 6.331-0.0890673 6.856 0.0199327 7.395L8.98593 52.197 9.00493 52.193C9.09693 52.65 9.48193 53 9.96593 53L33.9659 53 33.9659 51 10.9659 51 10.9659 2ZM14.9659 39 32.9659 39 32.9659 37 14.9659 37 14.9659 39ZM14.9659 33 39.9659 33 39.9659 31 14.9659 31 14.9659 33ZM14.9659 15 33.9659 15 33.9659 13 14.9659 13 14.9659 15ZM14.9659 27 41.9659 27 41.9659 25 14.9659 25 14.9659 27ZM23.9659 21 41.9659 21 41.9659 19 23.9659 19 23.9659 21ZM14.9659 21 21.9659 21 21.9659 19 14.9659 19 14.9659 21ZM53.9659 48 48.9659 48C48.4129 48 47.9659 48.448 47.9659 49L47.9659 54 42.9659 54 42.9659 49C42.9659 48.448 42.5189 48 41.9659 48L36.9659 48 36.9659 43 41.9659 43C42.5189 43 42.9659 42.553 42.9659 42L42.9659 37 47.9659 37 47.9659 42C47.9659 42.553 48.4129 43 48.9659 43L53.9659 43 53.9659 48ZM54.9659 41 49.9659 41 49.9659 36C49.9659 35.448 49.5189 35 48.9659 35L41.9659 35C41.4129 35 40.9659 35.448 40.9659 36L40.9659 41 35.9659 41C35.4129 41 34.9659 41.448 34.9659 42L34.9659 49C34.9659 49.553 35.4129 50 35.9659 50L40.9659 50 40.9659 55C40.9659 55.553 41.4129 56 41.9659 56L48.9659 56C49.5189 56 49.9659 55.553 49.9659 55L49.9659 50 54.9659 50C55.5189 50 55.9659 49.553 55.9659 49L55.9659 42C55.9659 41.448 55.5189 41 54.9659 41L54.9659 41Z" id="Fill-1"/></g></g></svg>