<svg width="80" height="80" viewBox="0 0 80 80" xmlns="http://www.w3.org/2000/svg" xmlns:xlink="http://www.w3.org/1999/xlink" fill="none" overflow="hidden"><rect x="0" y="0" width="80" height="80" fill="#01A88D"/><path d="M40 42.9997 42 42.9997 42 62.9997C42 63.3469 41.8203 63.6691 41.5244 63.8513L35.0244 67.8513C34.8643 67.9499 34.6816 67.9997 34.5 67.9997 34.3428 67.9997 34.1846 67.9626 34.041 67.8879L19.541 60.3879C19.209 60.216 19 59.8737 19 59.4997L19 51.0798 12.5039 47.3679C12.1924 47.1901 12 46.8586 12 46.4997L12 33.4997C12 33.1208 12.2139 32.7746 12.5527 32.6052L20 28.8815 20 19.4997C20 19.1325 20.2012 18.7951 20.5234 18.6203L32.5234 12.1203C32.8105 11.9655 33.1562 11.9597 33.4473 12.1052L41.4473 16.1052C41.7861 16.2746 42 16.6208 42 16.9997L42 36.9997 40 36.9997 40 17.6179 33.0186 14.1271 29 16.3038 29 25.9997 27 25.9997 27 17.3872 22 20.0954 22 28.9195 27.9595 32.3249 33 28.9646 33 23.9997 35 23.9997 35 29.4997C35 29.8342 34.833 30.1462 34.5547 30.3317L29 34.0349 29 37.9335 33.5146 40.6423 32.4854 42.3571 28 39.6659 23.5146 42.3571 22.4854 40.6423 27 37.9333 27 34.0799 20.9688 30.6335 14 34.1179 14 38.7766 19.5039 35.6316 20.4961 37.3679 14 41.0799 14 45.9196 20 49.3481 26.5039 45.6316 27.4961 47.3679 21 51.0799 21 58.8913 25.8811 61.416 32.5039 57.6316 33.4961 59.3679 27.9968 62.5104 34.457 65.8518 40 62.4412 40 42.9997ZM37 52.9997 37 48.4997C37 48.1393 36.8066 47.8068 36.4932 47.6296 36.1797 47.4518 35.7949 47.4562 35.4854 47.6423L25.4854 53.6423 26.5146 55.3571 35 50.2658 35 52.9997 37 52.9997ZM68 39.9997C68 42.7565 65.7568 44.9997 63 44.9997 60.5856 44.9997 58.5657 43.279 58.1011 40.9997L38 40.9997 38 38.9997 58.1011 38.9997C58.5657 36.7204 60.5856 34.9997 63 34.9997 65.7568 34.9997 68 37.2429 68 39.9997ZM66 39.9997C66 38.3454 64.6543 36.9997 63 36.9997 61.3457 36.9997 60 38.3454 60 39.9997 60 41.654 61.3457 42.9997 63 42.9997 64.6543 42.9997 66 41.654 66 39.9997ZM61 55.9997 61 63.9997C61 64.5519 60.5527 64.9997 60 64.9997L52 64.9997C51.4473 64.9997 51 64.5519 51 63.9997L51 55.9997C51 55.4474 51.4473 54.9997 52 54.9997L55 54.9997 55 46.9997 44 46.9997 44 44.9997 56 44.9997C56.5527 44.9997 57 45.4474 57 45.9997L57 54.9997 60 54.9997C60.5527 54.9997 61 55.4474 61 55.9997ZM59 56.9997 53 56.9997 53 62.9997 59 62.9997 59 56.9997ZM56 34.9997 44 34.9997 44 32.9997 55 32.9997 55 24.9997 51 24.9997C50.6367 24.9997 50.3018 24.8024 50.125 24.4846 49.9492 24.1667 49.959 23.778 50.1523 23.4699L55.1523 15.4699C55.5176 14.8849 56.4824 14.8849 56.8477 15.4699L61.8477 23.4699C62.041 23.778 62.0508 24.1667 61.875 24.4846 61.6982 24.8024 61.3633 24.9997 61 24.9997L57 24.9997 57 33.9997C57 34.5519 56.5527 34.9997 56 34.9997ZM52.8047 22.9997 59.1953 22.9997 56 17.8864 52.8047 22.9997Z" fill="#FFFFFF"/></svg>