<svg width="48" height="48" viewBox="0 0 48 48" xmlns="http://www.w3.org/2000/svg" xmlns:xlink="http://www.w3.org/1999/xlink" overflow="hidden"><g id="Icon-Resource/IoT/Res_AWS-IoT_Thing_Utility_48" stroke="none" stroke-width="1" fill="none" fill-rule="evenodd"><path d="M31.1651 35.006C31.1651 34.482 31.8391 33.177 32.3651 32.223 32.8921 33.178 33.5651 34.482 33.5651 35.006 33.5651 35.668 33.0271 36.206 32.3651 36.206 31.7031 36.206 31.1651 35.668 31.1651 35.006ZM32.3651 29.165C31.9861 29.165 31.6391 29.379 31.4701 29.718 31.3761 29.907 31.2161 30.187 31.0261 30.521 30.0081 32.316 29.1651 33.893 29.1651 35.006 29.1651 36.77 30.6001 38.206 32.3651 38.206 34.1301 38.206 35.5651 36.77 35.5651 35.006 35.5651 33.892 34.7201 32.313 33.7001 30.516 33.5121 30.184 33.3531 29.905 33.2601 29.718 33.0901 29.379 32.7441 29.165 32.3651 29.165ZM33.5651 26.524 30.2071 26.524 30.2071 24.879C30.2071 23.868 29.3851 23.046 28.3751 23.046L12.6811 23.046 12.6811 19.723 28.9211 19.723C31.4811 19.723 33.5651 21.807 33.5651 24.368L33.5651 26.524ZM17.9631 13.323 28.2851 13.323 28.2851 12.682 17.9631 12.682 17.9631 13.323ZM24.1241 17.723 24.1241 15.322 29.2851 15.322C29.8381 15.322 30.2851 14.875 30.2851 14.322L30.2851 11.682C30.2851 11.129 29.8381 10.682 29.2851 10.682L16.9631 10.682C16.4101 10.682 15.9631 11.129 15.9631 11.682L15.9631 14.322C15.9631 14.875 16.4101 15.322 16.9631 15.322L22.1241 15.322 22.1241 17.723 11.6811 17.723C11.1291 17.723 10.6811 18.17 10.6811 18.723L10.6811 24.046C10.6811 24.599 11.1291 25.046 11.6811 25.046L28.2071 25.046 28.2071 27.524C28.2071 28.077 28.6541 28.524 29.2071 28.524L34.5651 28.524C35.1181 28.524 35.5651 28.077 35.5651 27.524L35.5651 24.368C35.5651 20.704 32.5851 17.723 28.9211 17.723L24.1241 17.723ZM39.7251 38.592C39.7251 39.218 39.2171 39.727 38.5911 39.727L9.4181 39.727C8.7921 39.727 8.2831 39.218 8.2831 38.592L8.2831 9.431C8.2831 8.805 8.7921 8.296 9.4181 8.296L38.5911 8.296C39.2171 8.296 39.7251 8.805 39.7251 9.431L39.7251 38.592ZM46.0081 14.441 46.0081 12.441 41.7251 12.441 41.7251 9.431C41.7251 7.702 40.3191 6.296 38.5911 6.296L35.5651 6.296 35.5651 2 33.5651 2 33.5651 6.296 30.2851 6.296 30.2851 2 28.2851 2 28.2851 6.296 25.0041 6.296 25.0041 2 23.0041 2 23.0041 6.296 19.7231 6.296 19.7231 2 17.7231 2 17.7231 6.296 14.4421 6.296 14.4421 2 12.4421 2 12.4421 6.296 9.4181 6.296C7.6891 6.296 6.2831 7.702 6.2831 9.431L6.2831 12.441 2.0001 12.441 2.0001 14.441 6.2831 14.441 6.2831 17.723 2.0001 17.723 2.0001 19.723 6.2831 19.723 6.2831 23.004 2.0001 23.004 2.0001 25.004 6.2831 25.004 6.2831 28.284 2.0001 28.284 2.0001 30.284 6.2831 30.284 6.2831 33.565 2.0001 33.565 2.0001 35.565 6.2831 35.565 6.2831 38.592C6.2831 40.32 7.6891 41.727 9.4181 41.727L12.4421 41.727 12.4421 46.007 14.4421 46.007 14.4421 41.727 17.7231 41.727 17.7231 46.007 19.7231 46.007 19.7231 41.727 23.0041 41.727 23.0041 46.007 25.0041 46.007 25.0041 41.727 28.2851 41.727 28.2851 46.007 30.2851 46.007 30.2851 41.727 33.5651 41.727 33.5651 46.007 35.5651 46.007 35.5651 41.727 38.5911 41.727C40.3191 41.727 41.7251 40.32 41.7251 38.592L41.7251 35.565 46.0081 35.565 46.0081 33.565 41.7251 33.565 41.7251 30.284 46.0081 30.284 46.0081 28.284 41.7251 28.284 41.7251 25.004 46.0081 25.004 46.0081 23.004 41.7251 23.004 41.7251 19.723 46.0081 19.723 46.0081 17.723 41.7251 17.723 41.7251 14.441 46.0081 14.441Z" id="Amazon-IOT-RESOURCES-IoT-thing-utility_Resource-Icon-light-bg" fill="#7AA116"/></g></svg>