<svg width="80" height="80" viewBox="0 0 80 80" xmlns="http://www.w3.org/2000/svg" xmlns:xlink="http://www.w3.org/1999/xlink" overflow="hidden"><g id="Icon-Architecture/64/Arch_Red-Hat-OpenShift-Service-on-AWS_64" stroke="none" stroke-width="1" fill="none" fill-rule="evenodd"><g id="Icon-Architecture-BG/64/Containers" fill="#ED7100"><rect x="0" y="0" width="80" height="80" id="Rectangle"/></g><g id="Icon-Service/64/Red-Hat-OpenShift-Service-on-AWS_64" fill="#FFFFFF" transform="translate(11.5 13)"><path d="M48.0294 15.7524C47.5824 15.0314 47.0914 14.3514 46.5574 13.7164L53.1104 10.9954C53.5104 11.6244 54.1034 12.5714 54.5684 13.3744L48.0294 15.7524ZM42.9604 28.2754C42.9274 25.7694 42.3524 23.2994 41.2664 21.0124L47.7454 18.6534C48.7554 20.9384 49.4034 23.3464 49.6784 25.8334L42.9604 28.2754ZM52.5914 26.9024 53.9934 26.3924C54.0874 30.1164 53.3154 33.8314 51.7364 37.2124 46.0714 49.3634 31.5764 54.6414 19.4254 48.9754 16.0404 47.3964 13.0604 45.0454 10.7404 42.1334L17.7064 39.5964C19.0644 40.8894 20.6164 41.9484 22.3274 42.7474 26.5454 44.7144 31.2824 44.9194 35.6644 43.3234 40.0474 41.7284 43.5444 38.5264 45.5094 34.3084 46.3094 32.5984 46.8004 30.7904 47.0084 28.9324L52.5914 26.9024ZM2.20643 35.2294 8.68443 32.8704C9.32043 35.3164 10.4674 37.5794 12.0564 39.5254L5.33843 41.9704C3.95643 39.8934 2.90543 37.6324 2.20643 35.2294L2.20643 35.2294ZM15.8394 25.1464C15.8494 25.8954 15.9094 26.6484 16.0164 27.4014L9.45543 29.7914C9.30043 29.0474 9.18243 28.3144 9.10043 27.5974L15.8394 25.1464ZM38.9844 20.9474C40.4754 23.6224 41.1444 26.6294 40.9194 29.6444 40.8934 29.9824 41.0424 30.3114 41.3124 30.5164 41.4884 30.6494 41.7014 30.7194 41.9164 30.7194 42.0314 30.7194 42.1464 30.6994 42.2584 30.6594L44.8864 29.7034C44.6534 30.9964 44.2604 32.2564 43.6974 33.4624 41.9574 37.1974 38.8604 40.0314 34.9794 41.4444 31.1004 42.8564 26.9064 42.6754 23.1734 40.9344 21.4844 40.1464 19.9704 39.0714 18.6754 37.7424 18.4004 37.4604 17.9844 37.3664 17.6174 37.5004L14.0734 38.7914C12.2444 36.7494 10.9934 34.2684 10.4394 31.5604L17.4824 28.9964C17.9444 28.8284 18.2154 28.3504 18.1234 27.8684 17.8594 26.4984 17.7784 25.1224 17.8804 23.7774 17.9054 23.4394 17.7584 23.1104 17.4874 22.9054 17.2164 22.7004 16.8614 22.6484 16.5414 22.7624L14.4034 23.5404C14.6354 22.2334 15.0244 20.9754 15.5784 19.7864 19.1764 12.0674 28.3844 8.71636 36.1054 12.3144 37.7644 13.0894 39.2744 14.1664 40.5924 15.5134 40.8774 15.8074 41.3134 15.8964 41.6904 15.7374L44.6084 14.5254C45.2894 15.2694 45.8864 16.1094 46.4254 17.0054L39.5154 19.5214C39.2404 19.6214 39.0224 19.8374 38.9204 20.1114 38.8184 20.3864 38.8414 20.6914 38.9844 20.9474L38.9844 20.9474ZM5.27643 26.8604C5.18843 23.1364 5.96243 19.4204 7.53943 16.0364 13.2064 3.88836 27.7004-1.38864 39.8524 4.27536 43.1184 5.80036 46.0144 8.05836 48.2994 10.8274L41.5364 13.6364C40.1684 12.3374 38.6284 11.2854 36.9514 10.5024 28.2294 6.43636 17.8304 10.2234 13.7654 18.9414 12.9804 20.6264 12.4934 22.4324 12.2814 24.3124L5.27643 26.8604ZM56.9004 13.4814C56.2614 12.1634 54.4164 9.32536 54.3384 9.20536 54.0744 8.80036 53.5604 8.64336 53.1164 8.82736L50.2224 10.0284C47.6944 6.81436 44.4174 4.20036 40.6984 2.46336 27.5504-3.66764 11.8594 2.04236 5.72643 15.1914 3.81643 19.2884 2.99543 23.8354 3.35043 28.3414 3.37543 28.6534 3.54443 28.9354 3.80643 29.1044 4.06843 29.2734 4.39443 29.3084 4.68943 29.2034L7.17343 28.2994C7.29543 29.2154 7.47743 30.1524 7.70543 31.0994L0.658431 33.6654C0.175431 33.8404-0.0945687 34.3524 0.0304313 34.8494 0.841431 38.0644 2.22343 41.0614 4.13743 43.7534 4.33043 44.0234 4.63643 44.1744 4.95343 44.1744 5.06743 44.1744 5.18243 44.1554 5.29543 44.1144L8.77943 42.8474C11.3464 46.2424 14.7144 48.9844 18.5794 50.7874 22.1664 52.4594 25.9404 53.2514 29.6584 53.2514 39.5754 53.2504 49.0894 47.6224 53.5494 38.0594 55.4614 33.9634 56.2804 29.4174 55.9174 24.9104 55.8914 24.5994 55.7224 24.3184 55.4604 24.1494 55.1974 23.9814 54.8724 23.9454 54.5784 24.0514L51.9084 25.0224 51.6094 25.1314C51.2624 22.4484 50.4974 19.8574 49.3554 17.3984L56.3424 14.8564C56.6074 14.7594 56.8204 14.5554 56.9264 14.2934 57.0334 14.0304 57.0234 13.7354 56.9004 13.4814L56.9004 13.4814Z" id="Fill-7"/></g></g></svg>