<svg width="80" height="80" viewBox="0 0 80 80" xmlns="http://www.w3.org/2000/svg" xmlns:xlink="http://www.w3.org/1999/xlink" overflow="hidden"><g id="Icon-Architecture/64/Arch_Amazon-DocumentDB_64" stroke="none" stroke-width="1" fill="none" fill-rule="evenodd"><g id="Icon-Architecture-BG/64/Database" fill="#C925D1"><rect x="0" y="0" width="80" height="80" id="Rectangle"/></g><path d="M34.5 13.9928C44.813 13.9928 52 17.1435 52 19.9713 52 22.7992 44.813 25.9498 34.5 25.9498 24.187 25.9498 17 22.7992 17 19.9713 17 17.1435 24.187 13.9928 34.5 13.9928L34.5 13.9928ZM34.295 67.0072C24.103 67.0072 17 63.7877 17 60.8991L17 52.2124C20.121 54.825 26.472 56.5388 34.161 56.5388 35.934 56.5388 37.718 56.4402 39.465 56.2469L39.244 54.266C37.57 54.4513 35.859 54.546 34.161 54.546 24.646 54.546 17.83 51.7241 17 48.993L17 38.2556C20.121 40.8682 26.472 42.581 34.161 42.581 35.971 42.581 37.757 42.4814 39.469 42.2841L39.24 40.3052C37.603 40.4935 35.895 40.5882 34.161 40.5882 24.646 40.5882 17.83 37.7673 17 35.0362L17 23.5544C19.879 26.0126 25.818 27.9427 34.5 27.9427 43.182 27.9427 49.121 26.0126 52 23.5544L52 26.9462 54 26.9462 54 19.9713C54 16.1072 47.166 12 34.5 12 21.834 12 15 16.1072 15 19.9713L15 60.8991C15 65.5165 23.295 69 34.295 69 43.13 69 50.592 66.6694 52.863 63.2019L51.187 62.1128C49.595 64.545 43.281 67.0072 34.295 67.0072L34.295 67.0072ZM58.207 42.1675C58.77 42.1675 59.267 42.3917 59.606 42.8002 60.23 43.5475 60.129 44.6795 60.068 45.08 60.097 47.1865 61.26 47.598 61.395 47.6388 61.825 47.7684 62.128 48.1719 62.117 48.6203 62.106 49.0687 61.809 49.4573 61.372 49.5659 61.259 49.6008 60.067 50.0223 60.067 52.1964 60.09 53.3692 59.527 54.6695 58.237 54.7084L57.469 54.7084 57.469 52.7156 57.997 52.7156C58.037 52.583 58.068 52.3748 58.067 52.2104 58.067 50.3919 58.677 49.2749 59.329 48.6004 58.677 47.9268 58.067 46.8128 58.067 45.0013 58.067 44.9405 58.073 44.8788 58.084 44.819 58.122 44.6047 58.122 44.3237 58.09 44.1603L57.469 44.1603 57.469 42.1675 58.207 42.1675ZM53.527 42.1675 54.296 42.1675 54.296 44.1603 53.769 44.1603C53.728 44.2929 53.697 44.5011 53.698 44.6655 53.698 46.484 53.089 47.601 52.437 48.2755 53.089 48.9491 53.698 50.0631 53.698 51.8746 53.698 51.9364 53.692 51.9972 53.682 52.0569 53.644 52.2712 53.644 52.5522 53.676 52.7156L54.296 52.7156 54.296 54.7084 53.558 54.7084C52.995 54.7084 52.498 54.4842 52.158 54.0767 51.535 53.3294 51.637 52.1974 51.697 51.7959 51.669 49.6904 50.505 49.2779 50.37 49.2381 49.939 49.1075 49.637 48.704 49.647 48.2556 49.658 47.8082 49.956 47.4186 50.393 47.31 50.507 47.2751 51.698 46.8536 51.698 44.6795 51.675 43.5077 52.237 42.2064 53.527 42.1675L53.527 42.1675ZM64 58.8316 47 58.8316 47 34.9176 58 34.9176 58 38.9032C58 39.4533 58.447 39.8997 59 39.8997L64 39.8997 64 58.8316ZM60 34.9176 60.245 34.9176 63.268 37.9068 60 37.9068 60 34.9176ZM65.704 37.5083 61.361 33.2137C61.175 33.0284 60.921 32.9247 60.657 32.9247L60 32.9247 59.635 32.9247 56.548 29.2918C56.357 29.0676 56.078 28.9391 55.784 28.9391L42 28.9391C41.447 28.9391 41 29.3855 41 29.9355L41 55.8423C41 56.3923 41.447 56.8387 42 56.8387L44 56.8387 44 54.8459 43 54.8459 43 30.9319 55.32 30.9319 57.014 32.9247 46 32.9247C45.447 32.9247 45 33.3711 45 33.9212L45 59.828C45 60.378 45.447 60.8244 46 60.8244L65 60.8244C65.553 60.8244 66 60.378 66 59.828L66 38.2157C66 37.9497 65.894 37.6956 65.704 37.5083L65.704 37.5083Z" id="Amazon-DocumentDB_Icon_64_Squid" fill="#FFFFFF"/></g></svg>