<svg width="80" height="80" viewBox="0 0 80 80" xmlns="http://www.w3.org/2000/svg" xmlns:xlink="http://www.w3.org/1999/xlink" overflow="hidden"><g id="Icon-Architecture/64/Arch_AWS-CodeDeploy_64" stroke="none" stroke-width="1" fill="none" fill-rule="evenodd"><g id="Icon-Architecture-BG/64/Developer-Tools" fill="#C925D1"><rect x="0" y="0" width="80" height="80" id="Rectangle"/></g><path d="M28.0003 66.9823 54.0014 66.9823 54.0014 49.8319 28.0003 49.8319 28.0003 66.9823ZM55.0014 47.8142 27.0003 47.8142C26.4472 47.8142 26.0002 48.2661 26.0002 48.823L26.0002 67.9911C26.0002 68.548 26.4472 69 27.0003 69L55.0014 69C55.5544 69 56.0015 68.548 56.0015 67.9911L56.0015 48.823C56.0015 48.2661 55.5544 47.8142 55.0014 47.8142L55.0014 47.8142ZM37.0957 65.1987 43.1519 51.327 44.982 52.1411 38.9258 66.0128 37.0957 65.1987ZM48.5372 58.511 45.131 55.1667 46.5251 53.72 50.7712 57.8885C50.9803 58.0943 51.0903 58.3829 51.0713 58.6775 51.0523 58.972 50.9063 59.2434 50.6722 59.42L45.925 63.0004 44.728 61.3852 48.5372 58.511ZM31.3905 58.1589C31.1804 57.9531 31.0704 57.6656 31.0894 57.371 31.1084 57.0764 31.2544 56.805 31.4885 56.6285L36.2356 53.0481 37.4337 54.6632 33.6235 57.5364 37.0307 60.8818 35.6366 62.3285 31.3905 58.1589ZM66.0439 35.0502C64.1248 33.1778 61.5717 32.1467 58.8546 32.1467 55.3124 32.1467 52.4193 33.4078 50.6262 35.5072 50.1862 25.8394 47.9761 18.0612 44.816 14.3567 56.1265 16.0657 64.7108 24.422 66.6099 35.6081 66.4229 35.4204 66.2329 35.2348 66.0439 35.0502L66.0439 35.0502ZM48.0661 35.3972 47.7081 35.0502C45.789 33.1778 43.2309 32.1467 40.5068 32.1467 37.0417 32.1467 34.2216 33.313 32.4275 35.2994 33.0875 22.5889 36.9827 14.0248 40.5158 14.0177 40.5218 14.0177 40.5258 14.0187 40.5328 14.0187 44.124 14.0399 48.0871 22.9016 48.6422 35.9672 48.4542 35.7786 48.2691 35.593 48.0661 35.3972L48.0661 35.3972ZM30.3874 36.0712C30.1204 35.7927 29.8394 35.5163 29.5424 35.2257L29.3614 35.0502C27.4423 33.1778 24.8852 32.1467 22.1601 32.1467 19.0669 32.1467 16.4588 33.0839 14.6548 34.7203 17.0319 24.0043 25.4342 16.0455 36.2187 14.3617 33.0005 18.1399 30.7664 26.1451 30.3874 36.0712L30.3874 36.0712ZM40.5268 12C24.8562 12 12.6017 23.9418 12.0007 39.7807 11.9867 40.158 12.1987 40.5 12.5077 40.6897L22.7501 47.4237 23.8421 45.7329 14.1537 39.3721C14.6644 37.2138 16.2409 35.588 18.507 34.7649 19.5827 34.3742 20.8138 34.1644 22.1601 34.1644 24.3632 34.1644 26.4272 34.9937 27.9713 36.5009L28.1523 36.6775C29.5314 38.0213 30.3484 40.4758 30.3484 40.4849 30.3554 40.5464 31.7175 45.6401 31.7175 45.6401L33.6465 45.1125 32.3485 40.276 32.3565 40.153C32.8405 35.7372 36.8837 34.1644 40.5068 34.1644 42.7099 34.1644 44.773 34.9937 46.3171 36.5009 46.3171 36.5009 48.4972 38.1756 48.6572 40.1479L48.6662 40.2821 47.3551 45.1094 49.2852 45.6431 50.6492 40.613C50.6572 40.5757 50.6602 40.5323 50.6652 40.4889 50.9363 36.6351 54.1474 34.1644 58.8546 34.1644 61.0497 34.1644 63.1088 34.9937 64.6528 36.5009 65.8529 37.6712 66.6989 38.557 66.9339 39.4276L58.2946 45.4958 59.4376 47.1524 68.573 40.7341C68.822 40.5373 69.001 39.8291 69 39.7908 68.72 23.9478 56.4975 12.0111 40.5268 12Z" id="AWS-CodeDeploy_Icon_64_Squid" fill="#FFFFFF"/></g></svg>