<svg width="80" height="80" viewBox="0 0 80 80" xmlns="http://www.w3.org/2000/svg" xmlns:xlink="http://www.w3.org/1999/xlink" overflow="hidden"><g id="Icon-Architecture/64/Arch_Amazon-Personalize_64" stroke="none" stroke-width="1" fill="none" fill-rule="evenodd"><g id="Icon-Architecture-BG/64/Machine-Learning" fill="#01A88D"><rect x="0" y="0" width="80" height="80" id="Rectangle"/></g><path d="M43.5257 35.0079C43.5257 36.6593 42.1682 38.0031 40.5 38.0031 38.8318 38.0031 37.4743 36.6593 37.4743 35.0079 37.4743 33.3565 38.8318 32.0126 40.5 32.0126 42.1682 32.0126 43.5257 33.3565 43.5257 35.0079L43.5257 35.0079ZM46.4305 44.9921 34.5453 44.9921C34.8308 43.2838 35.9634 40 40.4455 40 44.9791 40 46.136 43.2858 46.4305 44.9921L46.4305 44.9921ZM35.4571 35.0079C35.4571 36.4386 36.0764 37.7216 37.0537 38.6322 33.4883 40.0978 32.4313 43.808 32.4313 45.9906 32.4313 46.5417 32.8822 46.989 33.4399 46.989L47.5389 46.989C48.0946 46.989 48.5465 46.5437 48.5475 45.9935 48.5475 45.8498 48.5313 42.4621 46.1773 40.1248 45.5328 39.4848 44.7784 38.9966 43.9292 38.6461 44.9166 37.7336 45.5429 36.4456 45.5429 35.0079 45.5429 32.2552 43.2807 30.0157 40.5 30.0157 37.7193 30.0157 35.4571 32.2552 35.4571 35.0079L35.4571 35.0079ZM63.3424 40.6999 63.293 40.6689C63.185 40.8137 63.0438 40.9335 62.8694 41.0044 62.7443 41.0563 62.6132 41.0813 62.4831 41.0813 62.2208 41.0813 61.9626 40.9795 61.77 40.7888L58.2309 37.2843 59.657 35.8725 61.3101 37.5089C60.3469 29.9948 55.2273 23.4261 47.9645 20.6974L48.6796 18.8304C56.5587 21.7907 62.126 28.8755 63.2647 37.0057L64.2804 35.3683 66 36.4127 63.3424 40.6999ZM33.1061 59.4653 32.391 61.3324C24.5331 58.379 18.9728 51.3211 17.817 43.2169L16.7196 44.9861 15 43.9418 17.6576 39.6555 17.6838 39.6715C17.7877 39.4469 17.9652 39.2582 18.2063 39.1603 18.5845 39.0056 19.0172 39.0904 19.3046 39.376L22.8448 42.8805 21.4186 44.2922 19.7645 42.6548C20.7277 50.169 25.8473 56.7366 33.1061 59.4653L33.1061 59.4653ZM60.119 47.4363 62.004 48.1452C58.9258 56.1745 51.429 61.7767 42.9105 62.6663L44.9105 64.5543 43.5187 66 39.8424 62.5295 39.8485 62.5225C39.7486 62.4276 39.6609 62.3208 39.6054 62.189 39.4491 61.8156 39.5358 61.3863 39.8242 61.1007L43.3644 57.5973 44.7905 59.009 43.1364 60.6454C50.728 59.6929 57.3625 54.6239 60.119 47.4363L60.119 47.4363ZM20.9557 32.7275 19.0706 32.0186C22.165 23.9493 29.7203 18.3302 38.2922 17.4825L36.1328 15.4457 37.5257 14 41.202 17.4705 41.1243 17.5514C41.2736 17.6572 41.3966 17.8 41.4692 17.9747 41.6256 18.3481 41.5388 18.7775 41.2504 19.063L37.7103 22.5675 36.2841 21.1557 37.9382 19.5183C30.3476 20.4718 23.7121 25.5398 20.9557 32.7275L20.9557 32.7275ZM53.6116 40C53.6116 47.1567 47.7295 52.9795 40.5 52.9795 33.2705 52.9795 27.3884 47.1567 27.3884 40 27.3884 32.8433 33.2705 27.0205 40.5 27.0205 47.7295 27.0205 53.6116 32.8433 53.6116 40L53.6116 40ZM25.3713 40C25.3713 48.258 32.158 54.9764 40.5 54.9764 48.842 54.9764 55.6287 48.258 55.6287 40 55.6287 31.742 48.842 25.0236 40.5 25.0236 32.158 25.0236 25.3713 31.742 25.3713 40L25.3713 40Z" id="Amazon-Personalize-Icon_64_Squid" fill="#FFFFFF"/></g></svg>