<svg width="80" height="80" viewBox="0 0 80 80" xmlns="http://www.w3.org/2000/svg" xmlns:xlink="http://www.w3.org/1999/xlink" overflow="hidden"><g id="Icon-Architecture/64/Arch_AWS-SimSpace-Weaver_64" stroke="none" stroke-width="1" fill="none" fill-rule="evenodd"><g id="Icon-Architecture-BG/64/Compute" fill="#ED7100"><rect x="0" y="0" width="80" height="80" id="Rectangle"/></g><path d="M60.013 59.8905 60.013 51.9865 66.013 48.4595 66.013 56.4505 60.013 59.8905ZM65.224 65.9675 50.59 65.9675 48.644 57.9665 50.599 57.9665 58.517 62.4965C58.67 62.5845 58.842 62.6285 59.013 62.6285 59.151 62.6285 59.287 62.5915 59.417 62.5345L59.418 62.5365 59.437 62.5265C59.463 62.5145 59.49 62.5085 59.515 62.4935 59.538 62.4805 59.556 62.4605 59.578 62.4455L62.449 60.7995 65.224 65.9675ZM17.697 60.8835 20.517 62.4965C20.67 62.5845 20.842 62.6285 21.013 62.6285 21.151 62.6285 21.287 62.5915 21.417 62.5345L21.418 62.5365 21.437 62.5265C21.463 62.5145 21.49 62.5085 21.515 62.4935 21.538 62.4805 21.556 62.4605 21.578 62.4455L29.389 57.9665 31.266 57.9665 29.199 65.9675 14.849 65.9675 17.697 60.8835ZM14.013 48.5045 20.013 51.9325 20.013 59.9045 14.013 56.4715 14.013 48.5045ZM21.044 43.1605 27.074 46.6955 21.063 50.2295 14.987 46.7575 21.044 43.1605ZM29.846 38.9885 35.388 42.0195 33.851 47.9665 30.013 47.9665 30.013 46.9665 30.009 46.9665C30.034 46.8785 30.049 46.7875 30.049 46.6935 30.049 46.3385 29.861 46.0105 29.555 45.8315L26.833 44.2355 29.846 38.9885ZM28.013 21.5305 39.013 26.6065 39.013 41.7225 28.013 35.7065 28.013 21.5305ZM40.009 14.1345 50.771 19.9005 40.013 24.8655 29.254 19.9005 40.009 14.1345ZM53.415 44.0495 53.465 44.1435 50.483 45.9135C50.177 46.0955 49.991 46.4255 49.993 46.7815 49.994 46.8455 50.007 46.9065 50.019 46.9665L50.013 46.9665 50.013 47.9665 46.213 47.9665 44.742 41.9175 50.546 38.8015 53.415 44.0495ZM52.013 48.5075 58.013 51.9375 58.013 59.9045 52.013 56.4715 52.013 48.5075ZM41.013 41.6505 41.013 26.6065 52.013 21.5305 52.013 35.7435 41.013 41.6505ZM39.534 44.2865C39.683 44.3675 39.848 44.4085 40.013 44.4085 40.19 44.4085 40.366 44.3615 40.523 44.2695 40.62 44.2115 40.701 44.1345 40.772 44.0495L42.921 42.8955 44.154 47.9665 35.916 47.9665 37.197 43.0085 39.534 44.2865ZM30.013 49.9665 33.334 49.9665 31.783 55.9665 30.013 55.9665 30.013 49.9665ZM22.013 51.9905 28.013 48.4635 28.013 49.9665 28.013 56.4505 22.013 59.8905 22.013 51.9905ZM46.586 57.9665 48.532 65.9675 31.263 65.9675 33.331 57.9665 46.586 57.9665ZM33.848 55.9665 35.399 49.9665 44.641 49.9665 46.1 55.9665 33.848 55.9665ZM50.013 55.9665 48.158 55.9665 46.699 49.9665 50.013 49.9665 50.013 55.9665ZM59.037 43.1605 65.067 46.6955 59.055 50.2295 52.98 46.7575 59.037 43.1605ZM68.042 46.6935C68.042 46.3385 67.854 46.0105 67.548 45.8315L59.54 41.1365C59.226 40.9525 58.836 40.9535 58.524 41.1395L55.175 43.1275 52.307 37.8555 53.486 37.2225C53.811 37.0485 54.013 36.7095 54.013 36.3415L54.013 19.9665 54.01 19.9665C54.009 19.5995 53.811 19.2605 53.486 19.0855L40.482 12.1185C40.187 11.9605 39.831 11.9605 39.536 12.1185L26.54 19.0855C26.215 19.2605 26.017 19.5995 26.016 19.9665L26.013 19.9665 26.013 36.2995C26.013 36.6655 26.212 37.0015 26.534 37.1765L28.088 38.0275 25.083 43.2095 21.547 41.1365C21.233 40.9525 20.843 40.9535 20.531 41.1395L12.49 45.9135C12.184 46.0955 11.997 46.4255 12 46.7815 12.001 46.8455 12.014 46.9065 12.026 46.9665L12.013 46.9665 12.013 57.0515C12.013 57.4105 12.205 57.7415 12.517 57.9205L15.962 59.8905 12.277 66.4675C12.105 66.7735 12.107 67.1475 12.281 67.4525 12.455 67.7575 12.777 67.9485 13.127 67.9565L66.525 67.9675 66.899 67.9665C67.249 67.9665 67.575 67.7805 67.754 67.4795 67.935 67.1775 67.943 66.8035 67.777 66.4935L64.185 59.8045 67.51 57.8975C67.822 57.7195 68.013 57.3885 68.013 57.0295L68.013 46.9665 68.002 46.9665C68.027 46.8785 68.042 46.7875 68.042 46.6935L68.042 46.6935Z" id="Fill-3" fill="#FFFFFF"/></g></svg>