<svg width="80" height="80" viewBox="0 0 80 80" xmlns="http://www.w3.org/2000/svg" xmlns:xlink="http://www.w3.org/1999/xlink" overflow="hidden"><g id="Icon-Architecture/64/Arch_AWS-Resource-Explorer_64" stroke="none" stroke-width="1" fill="none" fill-rule="evenodd"><g id="Icon-Architecture-BG/64/Management-Governance" fill="#E7157B"><rect x="0" y="0" width="80" height="80" id="Rectangle"/></g><path d="M47.459 33.027 48.352 34.817 45.769 36.105 44.876 34.315 47.459 33.027ZM42.465 35.589 43.297 37.408 40 38.915 40.002 40.999 38.002 41 38.001 39.126 34.562 37.542 35.397 35.726 38.769 37.278 42.465 35.589ZM38 48 40 48 40 44 38 44 38 48ZM38 55 40 55 40 51 38 51 38 55ZM63.188 65.2C62.476 65.913 61.379 66.354 60.664 65.641L51.93 56.702C52.963 55.9 53.89 54.973 54.691 53.939L63.641 62.649C64.33 63.338 63.935 64.454 63.188 65.2L63.188 65.2ZM40 65.337 40 59.74C40.807 59.87 41.629 59.956 42.472 59.956 45.307 59.956 47.958 59.176 50.246 57.839L51.575 59.199 40 65.337ZM16 27.683 30.028 35.329C28.134 37.896 27 41.056 27 44.484 27 51.46 31.643 57.368 38 59.291L38 65.321 16 53.404 16 27.683ZM39.351 14.14 60.866 26.221 50.61 31.35C48.242 29.877 45.459 29.012 42.472 29.012 38.101 29.012 34.156 30.842 31.339 33.766L17.107 26.009 39.351 14.14ZM42.472 57.956C35.043 57.956 29 51.913 29 44.484 29 37.055 35.043 31.012 42.472 31.012 49.9 31.012 55.944 37.055 55.944 44.484 55.944 51.913 49.9 57.956 42.472 57.956L42.472 57.956ZM58.947 55.29 55.829 52.256C57.165 49.969 57.944 47.318 57.944 44.484 57.944 39.75 55.802 35.511 52.441 32.67L62 27.891 62 53.671 58.947 55.29ZM65.045 61.225 60.452 56.755 63.469 55.156C63.796 54.983 64 54.643 64 54.273L64 26.273C64 25.911 63.805 25.578 63.489 25.401L39.853 12.128C39.556 11.961 39.194 11.957 38.893 12.117L14.529 25.117C14.203 25.291 14 25.631 14 26L14 54C14 54.367 14.201 54.704 14.523 54.879L38.523 67.879C38.672 67.96 38.836 68 39 68 39.161 68 39.322 67.961 39.469 67.883L53.032 60.69 59.242 67.047C59.886 67.691 60.697 68.007 61.548 68.007 62.585 68.007 63.681 67.536 64.603 66.614 66.265 64.953 66.46 62.64 65.045 61.225L65.045 61.225Z" id="Fill-1" fill="#FFFFFF"/></g></svg>