<svg width="48" height="48" viewBox="0 0 48 48" xmlns="http://www.w3.org/2000/svg" xmlns:xlink="http://www.w3.org/1999/xlink" overflow="hidden"><g id="Icon-Resource/Management-Governance/Res_AWS-CloudFormation_Template_48" stroke="none" stroke-width="1" fill="none" fill-rule="evenodd"><path d="M22.734 38.089 37.593 38.089 37.593 36.089 22.734 36.089 22.734 38.089ZM22.734 25.852 37.593 25.852 37.593 23.852 22.734 23.852 22.734 25.852ZM22.734 13.615 37.593 13.615 37.593 11.615 22.734 11.615 22.734 13.615ZM14.118 37.838 18.237 37.838 18.237 33.719 14.118 33.719 14.118 37.838ZM13.118 39.838 19.238 39.838C19.79 39.838 20.238 39.391 20.238 38.838L20.238 32.719C20.238 32.166 19.79 31.719 19.238 31.719L13.118 31.719C12.566 31.719 12.118 32.166 12.118 32.719L12.118 38.838C12.118 39.391 12.566 39.838 13.118 39.838L13.118 39.838ZM14.118 25.6 18.237 25.6 18.237 21.481 14.118 21.481 14.118 25.6ZM13.118 27.601 19.238 27.601C19.79 27.601 20.238 27.153 20.238 26.601L20.238 20.481C20.238 19.929 19.79 19.481 19.238 19.481L13.118 19.481C12.566 19.481 12.118 19.929 12.118 20.481L12.118 26.601C12.118 27.153 12.566 27.601 13.118 27.601L13.118 27.601ZM14.118 13.363 18.237 13.363 18.237 9.244 14.118 9.244 14.118 13.363ZM13.118 15.363 19.238 15.363C19.79 15.363 20.238 14.916 20.238 14.363L20.238 8.244C20.238 7.691 19.79 7.244 19.238 7.244L13.118 7.244C12.566 7.244 12.118 7.691 12.118 8.244L12.118 14.363C12.118 14.916 12.566 15.363 13.118 15.363L13.118 15.363ZM8 43.956 40.963 43.956 40.963 4 8 4 8 43.956ZM41.963 2 7 2C6.448 2 6 2.447 6 3L6 44.956C6 45.509 6.448 45.956 7 45.956L41.963 45.956C42.516 45.956 42.963 45.509 42.963 44.956L42.963 3C42.963 2.447 42.516 2 41.963 2L41.963 2Z" id="AWS-CloudFormation_template_Resource-Icon_light-bg" fill="#E7157B"/></g></svg>