<svg width="90" height="90" viewBox="0 0 90 90" xmlns="http://www.w3.org/2000/svg" xmlns:xlink="http://www.w3.org/1999/xlink" overflow="hidden"><g id="Icon-Architecture-Category/64/Games_64" stroke="none" stroke-width="1" fill="none" fill-rule="evenodd"><rect x="5" y="5" width="80" height="80" id="Rectangle" fill="#8C4FFF"/><rect x="1" y="1" width="88" height="88" id="#879196-Border-Copy-11" stroke="#879196" stroke-width="2"/><g id="Icon-Category/64/Games_64" fill="#FFFFFF" transform="translate(17 26)"><path d="M46.001 16C46.001 17.103 45.104 18 44.001 18 42.898 18 42.001 17.103 42.001 16 42.001 14.897 42.898 14 44.001 14 45.104 14 46.001 14.897 46.001 16L46.001 16ZM41.997 7.999C41.997 6.896 42.895 5.999 43.997 5.999 45.1 5.999 45.996 6.896 45.996 7.999 45.996 9.101 45.1 9.998 43.997 9.998 42.895 9.998 41.997 9.101 41.997 7.999L41.997 7.999ZM46 11.998C46 10.895 46.897 9.998 48 9.998 49.103 9.998 50 10.895 50 11.998 50 13.101 49.103 13.998 48 13.998 46.897 13.998 46 13.101 46 11.998L46 11.998ZM37.999 12.002C37.999 10.9 38.896 10.003 39.998 10.003 41.101 10.003 41.997 10.9 41.997 12.002 41.997 13.104 41.101 14.001 39.998 14.001 38.896 14.001 37.999 13.104 37.999 12.002L37.999 12.002ZM10.999 13 6.998 13 6.998 11 10.999 11 10.999 6.999 12.999 6.999 12.999 11 17 11 17 13 12.999 13 12.999 17.001 10.999 17.001 10.999 13ZM53.999 31.388C53.919 36.842 49.383 37 48.866 37 44.522 37 40.701 28.386 38.128 22.455 39.865 23.435 41.866 24 43.999 24 48.171 24 51.848 21.858 53.999 18.619L53.999 31.388ZM7.133 37C6.616 37 2.08 36.842 2 31.4L2 18.619C4.151 21.858 7.828 24 12 24 14.133 24 16.134 23.435 17.871 22.455 15.298 28.386 11.478 37 7.133 37L7.133 37ZM12 2C17.514 2 22 6.486 22 12 22 17.514 17.514 22 12 22 6.486 22 2 17.514 2 12 2 6.486 6.486 2 12 2L12 2ZM33.622 17.999 22.377 17.999C23.403 16.232 24 14.186 24 12 24 8.925 22.828 6.126 20.919 4L35.08 4C33.171 6.126 31.999 8.925 31.999 12 31.999 14.186 32.596 16.232 33.622 17.999L33.622 17.999ZM53.999 12C53.999 17.514 49.513 22 43.999 22 38.485 22 33.999 17.514 33.999 12 33.999 6.486 38.485 2 43.999 2 49.513 2 53.999 6.486 53.999 12L53.999 12ZM55.974 11.5C55.709 5.116 50.447 0 43.999 0 41.553 0 39.279 0.739 37.38 2L18.619 2C16.72 0.739 14.446 0 12 0 5.552 0 0.29 5.116 0.025 11.5L-3.55271e-15 11.5-3.55271e-15 31.409C0.024 34.035 1.546 39 7.133 39 12.877 39 16.915 29.689 19.862 22.891 20.318 21.842 20.742 20.865 21.14 19.999L34.86 19.999C35.257 20.865 35.681 21.842 36.137 22.891 39.084 29.689 43.122 39 48.866 39 54.453 39 55.975 34.035 55.999 31.4L55.999 11.5 55.974 11.5Z" id="Fill-1"/></g></g></svg>