<svg width="80" height="80" viewBox="0 0 80 80" xmlns="http://www.w3.org/2000/svg" xmlns:xlink="http://www.w3.org/1999/xlink" overflow="hidden"><g id="Icon-Architecture/64/Arch_Amazon-Simple-Email-Service_64" stroke="none" stroke-width="1" fill="none" fill-rule="evenodd"><g id="Icon-Architecture-BG/64/Business-Applications" fill="#DD344C"><rect x="0" y="0" width="80" height="80" id="Rectangle"/></g><path d="M57 60.9999C57 59.3738 55.626 57.9998 54 57.9998 52.374 57.9998 51 59.3738 51 60.9999 51 62.6259 52.374 63.9999 54 63.9999 55.626 63.9999 57 62.6259 57 60.9999L57 60.9999ZM40 59.9999C38.374 59.9999 37 61.3739 37 62.9999 37 64.6259 38.374 66 40 66 41.626 66 43 64.6259 43 62.9999 43 61.3739 41.626 59.9999 40 59.9999L40 59.9999ZM26 57.9998C24.374 57.9998 23 59.3738 23 60.9999 23 62.6259 24.374 63.9999 26 63.9999 27.626 63.9999 29 62.6259 29 60.9999 29 59.3738 27.626 57.9998 26 57.9998L26 57.9998ZM28.605 42.9996 51.395 42.9996 43.739 36.1104 40.649 38.7585C40.463 38.9195 40.23 38.9995 39.999 38.9995 39.768 38.9995 39.535 38.9195 39.349 38.7585L36.26 36.1104 28.605 42.9996ZM27 28.1733 27 41.7545 34.729 34.7984 27 28.1733ZM51.297 26.9993 28.703 26.9993 39.999 36.6824 51.297 26.9993ZM53 41.7545 53 28.1733 45.271 34.7974 53 41.7545ZM59 60.9999C59 63.7099 56.71 66 54 66 51.29 66 49 63.7099 49 60.9999 49 58.6308 50.75 56.5838 53 56.1058L53 52.9997 41 52.9997 41 58.1058C43.25 58.5838 45 60.6309 45 62.9999 45 65.71 42.71 68 40 68 37.29 68 35 65.71 35 62.9999 35 60.6309 36.75 58.5838 39 58.1058L39 52.9997 27 52.9997 27 56.1058C29.25 56.5838 31 58.6308 31 60.9999 31 63.7099 28.71 66 26 66 23.29 66 21 63.7099 21 60.9999 21 58.6308 22.75 56.5838 25 56.1058L25 51.9997C25 51.4477 25.447 50.9997 26 50.9997L39 50.9997 39 44.9996 26 44.9996C25.447 44.9996 25 44.5516 25 43.9996L25 25.9993C25 25.4472 25.447 24.9992 26 24.9992L54 24.9992C54.553 24.9992 55 25.4472 55 25.9993L55 43.9996C55 44.5516 54.553 44.9996 54 44.9996L41 44.9996 41 50.9997 54 50.9997C54.553 50.9997 55 51.4477 55 51.9997L55 56.1058C57.25 56.5838 59 58.6308 59 60.9999L59 60.9999ZM68 39.9995C68 45.9066 66.177 51.5597 62.727 56.3448L61.104 55.1748C64.307 50.7317 66 45.4846 66 39.9995 66 25.6642 54.337 14 40.001 14 25.664 14 14 25.6642 14 39.9995 14 45.4846 15.693 50.7317 18.896 55.1748L17.273 56.3448C13.823 51.5597 12 45.9066 12 39.9995 12 24.5612 24.561 12 39.999 12 55.438 12 68 24.5612 68 39.9995L68 39.9995Z" id="Amazon-Simple-Email-Service_Icon_64_Squid" fill="#FFFFFF"/></g></svg>