<svg width="80" height="80" viewBox="0 0 80 80" xmlns="http://www.w3.org/2000/svg" xmlns:xlink="http://www.w3.org/1999/xlink" overflow="hidden"><g id="Icon-Architecture/64/Arch_AWS-Neuron_64" stroke="none" stroke-width="1" fill="none" fill-rule="evenodd"><g id="Icon-Architecture-BG/64/Machine-Learning" fill="#01A88D"><rect x="0" y="0" width="80" height="80" id="Rectangle"/></g><path d="M62 53.4169 40 65.852 18 53.4169 18 26.5838 40 14.1488 62 26.5838 62 53.4169ZM63.492 25.1298 40.492 12.1298C40.188 11.9567 39.813 11.9567 39.508 12.1298L16.508 25.1298C16.194 25.3068 16 25.6398 16 25.9998L16 53.9999C16 54.3609 16.194 54.6939 16.508 54.8709L39.508 67.871C39.66 67.958 39.83 68 40 68 40.17 68 40.34 67.958 40.492 67.871L63.492 54.8709C63.806 54.6939 64 54.3609 64 53.9999L64 25.9998C64 25.6398 63.806 25.3068 63.492 25.1298L63.492 25.1298ZM42 24.9998C42 26.1038 41.103 26.9998 40 26.9998 38.897 26.9998 38 26.1038 38 24.9998 38 23.8968 38.897 22.9998 40 22.9998 41.103 22.9998 42 23.8968 42 24.9998L42 24.9998ZM55 35.9998C55 37.1039 54.103 37.9999 53 37.9999 51.897 37.9999 51 37.1039 51 35.9998 51 34.8969 51.897 33.9998 53 33.9998 54.103 33.9998 55 34.8969 55 35.9998L55 35.9998ZM48 53.9999C46.897 53.9999 46 53.1039 46 51.9999 46 50.8969 46.897 49.9999 48 49.9999 49.103 49.9999 50 50.8969 50 51.9999 50 53.1039 49.103 53.9999 48 53.9999L48 53.9999ZM44.288 44.2839 46.48 48.3039C46.063 48.4759 45.691 48.7249 45.358 49.0199L41.666 46.2499 44.288 44.2839ZM34.642 49.0199C34.309 48.7249 33.937 48.4759 33.52 48.3039L35.712 44.2839 38.334 46.2499 34.642 49.0199ZM32 53.9999C30.897 53.9999 30 53.1039 30 51.9999 30 50.8969 30.897 49.9999 32 49.9999 33.103 49.9999 34 50.8969 34 51.9999 34 53.1039 33.103 53.9999 32 53.9999L32 53.9999ZM25 35.9998C25 34.8969 25.897 33.9998 27 33.9998 28.103 33.9998 29 34.8969 29 35.9998 29 37.1039 28.103 37.9999 27 37.9999 25.897 37.9999 25 37.1039 25 35.9998L25 35.9998ZM31.371 48.0639C31.093 48.1079 30.823 48.1779 30.566 48.2769L28.25 39.7809C28.568 39.6749 28.873 39.5409 29.15 39.3629L34.095 43.0709 31.371 48.0639ZM39 32.1428C37.279 32.5898 36 34.1418 36 35.9999 36 36.8439 36.266 37.6249 36.713 38.2709L35.063 41.2979 30.508 37.8819C30.812 37.3179 31 36.6839 31 35.9999 31 35.3099 30.809 34.6688 30.499 34.1018L37.866 28.3718C38.212 28.5908 38.594 28.7528 39 28.8578L39 32.1428ZM38.271 39.5919C38.797 39.8459 39.378 39.9999 40 39.9999 40.622 39.9999 41.203 39.8459 41.729 39.5919L43.32 42.5099 40 45.0009 36.68 42.5099 38.271 39.5919ZM40 33.9998C41.103 33.9998 42 34.8969 42 35.9998 42 37.1039 41.103 37.9999 40 37.9999 38.897 37.9999 38 37.1039 38 35.9998 38 34.8969 38.897 33.9998 40 33.9998L40 33.9998ZM48.629 48.0639 45.905 43.0709 50.85 39.3629C51.127 39.5409 51.432 39.6749 51.75 39.7809L49.434 48.2769C49.177 48.1779 48.907 48.1079 48.629 48.0639L48.629 48.0639ZM42.134 28.3718 49.501 34.1018C49.191 34.6688 49 35.3099 49 35.9999 49 36.6839 49.188 37.3179 49.492 37.8819L44.938 41.2979 43.287 38.2709C43.734 37.6249 44 36.8439 44 35.9999 44 34.1418 42.721 32.5898 41 32.1428L41 28.8578C41.406 28.7528 41.788 28.5908 42.134 28.3718L42.134 28.3718ZM36 24.9998C36 25.6908 36.191 26.3318 36.501 26.8988L29.134 32.6288C28.515 32.2358 27.786 31.9998 27 31.9998 24.794 31.9998 23 33.7948 23 35.9999 23 37.9369 24.384 39.5549 26.215 39.9209L28.846 49.5689C28.323 50.2459 28 51.0819 28 51.9999 28 54.2059 29.794 55.9999 32 55.9999 34.206 55.9999 36 54.2059 36 51.9999 36 51.5359 35.905 51.0959 35.759 50.6809L40 47.4999 44.241 50.6809C44.095 51.0959 44 51.5359 44 51.9999 44 54.2059 45.794 55.9999 48 55.9999 50.206 55.9999 52 54.2059 52 51.9999 52 51.0819 51.677 50.2459 51.154 49.5689L53.785 39.9209C55.616 39.5549 57 37.9369 57 35.9999 57 33.7948 55.206 31.9998 53 31.9998 52.214 31.9998 51.485 32.2358 50.866 32.6288L43.499 26.8988C43.809 26.3318 44 25.6908 44 24.9998 44 22.7948 42.206 20.9998 40 20.9998 37.794 20.9998 36 22.7948 36 24.9998L36 24.9998Z" id="AWS-Neuron_Icon_64_Squid" fill="#FFFFFF"/></g></svg>