<svg width="48" height="48" viewBox="0 0 48 48" xmlns="http://www.w3.org/2000/svg" xmlns:xlink="http://www.w3.org/1999/xlink" overflow="hidden"><g id="Icon-Resource/Machine-Learning/Res_Amazon-SageMaker_Canvas_48" stroke="none" stroke-width="1" fill="none" fill-rule="evenodd"><path d="M30.5865 31 39.6725 39.26 38.3275 40.74 28.9995 32.26 28.9995 36 26.9995 36 26.9995 30C26.9995 29.448 27.4475 29 27.9995 29L33.9995 29 33.9995 31 30.5865 31ZM40.9995 22 40.9995 33 38.9995 33 38.9995 23 15.9995 23 15.9995 40 31.9995 40 31.9995 42 14.9995 42C14.4475 42 13.9995 41.552 13.9995 41L13.9995 22C13.9995 21.448 14.4475 21 14.9995 21L39.9995 21C40.5525 21 40.9995 21.448 40.9995 22L40.9995 22ZM34.9995 17 30.9995 17 30.9995 15 35.9995 15C36.5525 15 36.9995 15.448 36.9995 16L36.9995 19 34.9995 19 34.9995 17ZM14.9995 17 27.9995 17 27.9995 15 14.9995 15 14.9995 17ZM7.9995 15 11.9995 15 11.9995 17 8.9995 17 8.9995 19 6.9995 19 6.9995 16C6.9995 15.448 7.4475 15 7.9995 15L7.9995 15ZM6.9995 27 8.9995 27 8.9995 22 6.9995 22 6.9995 27ZM8.9995 32 11.9995 32 11.9995 34 7.9995 34C7.4475 34 6.9995 33.552 6.9995 33L6.9995 30 8.9995 30 8.9995 32ZM12.9995 8 16.9995 8 16.9995 6 12.9995 6 12.9995 8ZM6.9995 8 10.9995 8 10.9995 6 6.9995 6 6.9995 8ZM3.9995 44 43.9995 44 43.9995 12 3.9995 12 3.9995 44ZM3.9995 10 43.9995 10 43.9995 4 3.9995 4 3.9995 10ZM44.9995 2 2.9995 2C2.4475 2 1.9995 2.448 1.9995 3L1.9995 45C1.9995 45.552 2.4475 46 2.9995 46L44.9995 46C45.5525 46 45.9995 45.552 45.9995 45L45.9995 3C45.9995 2.448 45.5525 2 44.9995 2L44.9995 2Z" id="Fill-1" fill="#01A88D"/></g></svg>