<svg width="80" height="80" viewBox="0 0 80 80" xmlns="http://www.w3.org/2000/svg" xmlns:xlink="http://www.w3.org/1999/xlink" overflow="hidden"><g id="Icon-Architecture/64/Arch_AWS-IAM-Identity-Center_64" stroke="none" stroke-width="1" fill="none" fill-rule="evenodd"><g id="Icon-Architecture-BG/64/Security-Identity-Compliance" fill="#DD344C"><rect x="0" y="0" width="80" height="80" id="Rectangle"/></g><path d="M67.438 62.3245 52.56 47.4465C52.251 47.1385 52.178 46.6655 52.379 46.2795 54.457 42.2765 53.659 37.2315 50.439 34.0115 48.143 31.7155 44.972 30.6245 41.748 31.0125 38.518 31.4035 35.67 33.2675 33.936 36.1285 31.898 39.4875 31.989 43.7965 34.166 47.1075 37.187 51.7025 43.076 53.2915 47.864 50.8085 48.251 50.6085 48.722 50.6805 49.032 50.9895L51.5 53.4575C51.687 53.6445 51.792 53.8995 51.792 54.1645L51.792 57.4075 55.035 57.4075C55.299 57.4075 55.554 57.5125 55.742 57.6995L57.157 59.1135C57.344 59.3015 57.45 59.5555 57.45 59.8215L57.45 63.0635 60.692 63.0635C60.958 63.0635 61.211 63.1695 61.399 63.3565L63.254 65.2125 67.196 65.4755 67.438 62.3245ZM69.467 62.0195 69.114 66.6155C69.074 67.1395 68.636 67.5386 68.118 67.5386 68.095 67.5386 68.073 67.5386 68.05 67.5365L62.747 67.1825C62.504 67.1665 62.277 67.0635 62.106 66.8925L60.278 65.0635 56.45 65.0635C55.897 65.0635 55.45 64.6165 55.45 64.0635L55.45 60.2355 54.621 59.4075 50.792 59.4075C50.24 59.4075 49.792 58.9595 49.792 58.4075L49.792 54.5785 48.12 52.9055C42.546 55.3915 35.941 53.4495 32.494 48.2065 29.896 44.2545 29.791 39.1065 32.225 35.0915 34.281 31.7015 37.665 29.4915 41.507 29.0275 45.349 28.5655 49.12 29.8645 51.853 32.5975 55.506 36.2505 56.536 41.8835 54.475 46.5335L69.177 61.2355C69.383 61.4425 69.49 61.7285 69.467 62.0195L69.467 62.0195ZM45.423 41.3455C45.423 40.6775 45.163 40.0495 44.69 39.5775 44.217 39.1045 43.589 38.8445 42.922 38.8445 42.255 38.8445 41.627 39.1045 41.155 39.5765 40.18 40.5515 40.18 42.1375 41.155 43.1125 42.129 44.0875 43.715 44.0875 44.69 43.1125L44.69 43.1125C45.163 42.6395 45.423 42.0125 45.423 41.3455L45.423 41.3455ZM46.104 38.1625C46.955 39.0125 47.423 40.1425 47.423 41.3455 47.423 42.5465 46.955 43.6765 46.104 44.5265L46.104 44.5275C45.227 45.4045 44.075 45.8425 42.922 45.8425 41.77 45.8425 40.618 45.4045 39.741 44.5265 37.987 42.7715 37.987 39.9165 39.741 38.1625 40.59 37.3125 41.72 36.8445 42.922 36.8445 44.125 36.8445 45.254 37.3125 46.104 38.1625L46.104 38.1625ZM22.001 44.9215 28 44.9215 28 46.9215 22 46.9215C16.146 46.9085 11.326 42.7565 11.024 37.4675 11.011 37.2175 11 36.9865 11 36.7545 11 30.2305 15.627 27.8055 18.351 26.9445 18.333 26.6565 18.324 26.3655 18.324 26.0695 18.324 20.7195 22.081 15.1815 27.063 13.1885 32.87 10.8445 39.028 12.0105 43.526 16.3065 44.713 17.4265 46.231 19.1005 47.295 21.1415 48.431 20.1435 49.714 19.6545 51.183 19.6545 54.086 19.6545 57.34 21.9905 57.931 27.0965 63.95 28.4715 67 31.7745 67 36.9215 67 42.3485 63.778 45.9895 58.161 46.9085L57.838 44.9345C61.105 44.4005 65 42.5755 65 36.9215 65 32.5405 62.397 29.9925 56.808 28.9035 56.361 28.8155 56.029 28.4365 56.001 27.9815 55.777 24.2565 53.795 21.6545 51.183 21.6545 49.848 21.6545 48.801 22.2345 47.789 23.5355 47.566 23.8215 47.209 23.9635 46.848 23.9105 46.491 23.8555 46.19 23.6115 46.063 23.2725 45.191 20.9425 43.454 18.9875 42.15 17.7575 38.231 14.0155 32.872 13.0035 27.808 15.0445 23.61 16.7235 20.324 21.5665 20.324 26.0695 20.324 26.5745 20.354 27.0605 20.417 27.5545 20.421 27.5915 20.423 27.6295 20.424 27.6675L20.424 27.6695 20.424 27.6715 20.424 27.6735 20.424 27.6755 20.424 27.6755 20.424 27.6775 20.424 27.6775 20.424 27.6785 20.424 27.6795 20.424 27.6815C20.424 28.1865 20.05 28.6085 19.564 28.6775 17.065 29.3115 13 31.1975 13 36.7545 13 36.9515 13.01 37.1485 13.02 37.3375 13.262 41.5865 17.208 44.9115 22.001 44.9215L22.001 44.9215Z" id="AWS-IAM-Identity-Center_Icon_64_Squid" fill="#FFFFFF"/></g></svg>