<svg width="80" height="80" viewBox="0 0 80 80" xmlns="http://www.w3.org/2000/svg" xmlns:xlink="http://www.w3.org/1999/xlink" overflow="hidden"><g id="Icon-Architecture/64/Arch_AWS-Activate_64" stroke="none" stroke-width="1" fill="none" fill-rule="evenodd"><g id="Icon-Architecture-BG/64/Customer-Enablement" fill="#C925D1"><rect x="0" y="0" width="80" height="80" id="Rectangle"/></g><g id="Icon-Service/64/AWS-Activate_64" fill="#FFFFFF" transform="translate(12.9998 11.9998)"><path d="M53.008 27.28C53.008 38.358 46.175 47.865 36.504 51.822L36.504 49.645C45.043 45.81 51.008 37.231 51.008 27.28 51.008 15.331 42.411 5.359 31.078 3.207L30.145 1.029C43.042 2.811 53.008 13.901 53.008 27.28L53.008 27.28ZM16.504 49.645 16.504 51.822C6.833 47.865 0 38.358 0 27.28 0 13.903 9.962 2.815 22.857 1.03L21.922 3.209C10.593 5.363 2 15.334 2 27.28 2 37.231 7.965 45.81 16.504 49.645L16.504 49.645ZM18.504 56 20.504 56 20.504 37 18.504 37 18.504 56ZM32.504 56 34.504 56 34.504 37 32.504 37 32.504 56ZM25.504 51 27.504 51 27.504 30 25.504 30 25.504 51ZM26.504 3.391 36.985 27.911 27.114 20.384C26.789 20.136 26.324 20.122 25.974 20.333 25.943 20.352 25.911 20.373 25.882 20.395L16.023 27.912 26.504 3.391ZM12.998 31.796C13.179 31.937 13.396 32.007 13.612 32.007 13.826 32.007 14.039 31.939 14.219 31.802L26.506 22.435 38.789 31.802C39.152 32.078 39.652 32.076 40.01 31.796 40.368 31.517 40.493 31.031 40.316 30.614L27.489 0.607C27.331 0.239 26.97 0 26.57 0L26.439 0C26.038 0 25.677 0.239 25.519 0.607L12.693 30.614C12.515 31.031 12.64 31.517 12.998 31.796L12.998 31.796Z" id="AWS-Activate_64_Squid"/></g></g></svg>