<svg width="80" height="80" viewBox="0 0 80 80" xmlns="http://www.w3.org/2000/svg" xmlns:xlink="http://www.w3.org/1999/xlink" overflow="hidden"><g id="Icon-Architecture/64/Arch_Amazon-Connect_64" stroke="none" stroke-width="1" fill="none" fill-rule="evenodd"><g id="Icon-Architecture-BG/64/Business-Applications" fill="#DD344C"><rect x="0" y="0" width="80" height="80" id="Rectangle"/></g><path d="M52.278 36.463C51.175 36.463 50.278 35.5681 50.278 34.4677 50.278 33.3674 51.175 32.4725 52.278 32.4725 53.381 32.4725 54.278 33.3674 54.278 34.4677 54.278 35.5681 53.381 36.463 52.278 36.463M43.278 46.4392C42.175 46.4392 41.278 45.5444 41.278 44.444 41.278 43.3436 42.175 42.4487 43.278 42.4487 44.381 42.4487 45.278 43.3436 45.278 44.444 45.278 45.5444 44.381 46.4392 43.278 46.4392M35.278 34.4677C34.175 34.4677 33.278 33.5729 33.278 32.4725 33.278 31.3721 34.175 30.4773 35.278 30.4773 36.381 30.4773 37.278 31.3721 37.278 32.4725 37.278 33.5729 36.381 34.4677 35.278 34.4677M25.278 44.444C24.175 44.444 23.278 43.5491 23.278 42.4487 23.278 41.3484 24.175 40.4535 25.278 40.4535 26.381 40.4535 27.278 41.3484 27.278 42.4487 27.278 43.5491 26.381 44.444 25.278 44.444M52.278 30.4773C50.072 30.4773 48.278 32.267 48.278 34.4677 48.278 35.5252 48.7 36.4819 49.376 37.1962L45.741 41.3234C45.06 40.7867 44.212 40.4535 43.278 40.4535 42.871 40.4535 42.485 40.5323 42.114 40.646L38.382 34.9596C38.933 34.2752 39.278 33.4173 39.278 32.4725 39.278 30.2717 37.484 28.482 35.278 28.482 33.072 28.482 31.278 30.2717 31.278 32.4725 31.278 33.3414 31.565 34.1395 32.04 34.796L27.596 39.2085C26.94 38.7406 26.144 38.4582 25.278 38.4582 23.072 38.4582 21.278 40.248 21.278 42.4487 21.278 44.6495 23.072 46.4392 25.278 46.4392 27.484 46.4392 29.278 44.6495 29.278 42.4487 29.278 41.8382 29.129 41.2646 28.882 40.7468L33.586 36.0749C34.101 36.3173 34.671 36.463 35.278 36.463 35.81 36.463 36.316 36.3543 36.782 36.1657L40.403 41.6816C39.71 42.3998 39.278 43.3705 39.278 44.444 39.278 46.6447 41.072 48.4345 43.278 48.4345 45.484 48.4345 47.278 46.6447 47.278 44.444 47.278 43.9122 47.169 43.4055 46.978 42.9416L51.099 38.2617C51.474 38.3774 51.865 38.4582 52.278 38.4582 54.484 38.4582 56.278 36.6685 56.278 34.4677 56.278 32.267 54.484 30.4773 52.278 30.4773M58.71 50.4297 49.568 50.4297C49.356 50.4297 49.15 50.4966 48.979 50.6213L33.278 62.041 33.278 51.4273C33.278 50.8767 32.831 50.4297 32.278 50.4297L21.001 50.4297C19.989 50.4287 19.19 50.2352 18.559 49.8371 16.479 48.5272 14 46.0073 14 41.4381 14 35.3417 18.251 33.3434 20.786 32.694 21.249 32.5753 21.563 32.1453 21.535 31.6684L21.434 29.9954C21.434 25.141 24.786 19.9194 29.064 18.1067 30.989 17.2917 32.768 16.9674 34.381 16.9674 38.966 16.9674 42.205 19.5922 43.619 21.0118 45.174 22.5731 46.389 24.5673 47.227 26.9417 47.35 27.2898 47.657 27.5422 48.023 27.5961 48.392 27.649 48.756 27.4984 48.975 27.2011 50.247 25.4802 52.437 24.7619 54.423 25.4133 56.652 26.1436 57.938 28.3104 57.96 31.3631L57.954 31.3961C57.87 31.9348 58.234 32.4416 58.772 32.5344 60.703 32.8666 67 34.4947 67 41.5229 67 49.6915 58.976 50.4068 58.71 50.4297M59.94 30.7366C59.734 27.1382 57.938 24.4656 55.047 23.5178 52.778 22.7736 50.323 23.2864 48.523 24.7888 47.632 22.7746 46.464 21.0357 45.037 19.6052 40.46 15.0111 34.196 13.7651 28.283 16.2701 23.238 18.407 19.434 24.308 19.436 30.0543L19.492 30.994C16.742 31.8909 12 34.4548 12 41.4381 12 47.2054 15.44 50.2332 17.491 51.5241 18.451 52.1287 19.598 52.424 21 52.425L31.278 52.425 31.278 64.0024C31.278 64.3785 31.489 64.7217 31.825 64.8923 31.967 64.9651 32.123 65 32.278 65 32.486 65 32.693 64.9361 32.867 64.8095L49.894 52.425 58.783 52.423C58.884 52.415 69 51.562 69 41.5229 69 33.7824 62.851 31.42 59.94 30.7366" id="Amazon-Connect_Icon_64_Squid" fill="#FFFFFF"/></g></svg>