<svg width="48" height="48" viewBox="0 0 48 48" xmlns="http://www.w3.org/2000/svg" xmlns:xlink="http://www.w3.org/1999/xlink" overflow="hidden"><g id="Icon-Resource/Security-Identity-and-Compliance/Res_Amazon-Inspector_Agent_48" stroke="none" stroke-width="1" fill="none" fill-rule="evenodd"><path d="M23.1026 24.688C21.6706 26.121 19.0896 25.87 17.3526 24.132 15.6146 22.395 15.3646 19.815 16.7966 18.383 17.4036 17.776 18.2476 17.455 19.1696 17.455 19.5186 17.455 19.8776 17.501 20.2406 17.594 21.0906 17.814 21.8886 18.279 22.5466 18.938 24.2866 20.676 24.5356 23.256 23.1026 24.688L23.1026 24.688ZM25.8296 20.477C25.4986 19.37 24.8816 18.332 24.0176 17.467 23.5796 17.03 23.0926 16.658 22.5756 16.349L23.2746 12.852 21.2356 12.445 20.6146 15.552C19.4036 15.268 18.2026 15.339 17.1476 15.741 16.8506 14.677 16.2136 13.389 14.3706 12.613L13.5636 14.529C14.8656 15.078 15.0846 15.903 15.2756 16.861 14.3176 16.671 13.4926 16.451 12.9436 15.148L11.0276 15.956C11.8056 17.802 13.0956 18.438 14.1606 18.733 13.7526 19.809 13.6926 21.016 13.9686 22.199L10.8596 22.821 11.2676 24.86 14.7636 24.161C15.0676 24.671 15.4376 25.159 15.8816 25.603 16.6856 26.407 17.6246 26.975 18.6036 27.315L18.6036 29.381 20.6836 29.381 20.6836 27.687C20.7016 27.688 20.7196 27.69 20.7376 27.69 22.1706 27.69 23.5456 27.186 24.5736 26.159 25.5226 25.209 26.0506 23.949 26.1026 22.556L28.2816 22.556 28.2816 20.477 25.8296 20.477ZM19.1046 30.666C13.2806 30.666 8.5416 25.927 8.5416 20.104 8.5416 14.279 13.2806 9.541 19.1046 9.541 24.9286 9.541 29.6656 14.279 29.6656 20.104 29.6656 25.927 24.9286 30.666 19.1046 30.666L19.1046 30.666ZM19.1046 7.462C12.1336 7.462 6.4616 13.133 6.4616 20.104 6.4616 27.074 12.1336 32.745 19.1046 32.745 26.0756 32.745 31.7466 27.074 31.7466 20.104 31.7466 13.133 26.0756 7.462 19.1046 7.462L19.1046 7.462ZM43.3566 41.843C42.5086 42.784 41.0566 42.858 40.1196 42.012L30.2116 33.084C31.3746 32.086 32.4116 30.945 33.2726 29.673L43.1876 38.607C44.1266 39.453 44.2026 40.905 43.3566 41.843L43.3566 41.843ZM4.0806 20.104C4.0806 11.819 10.8196 5.079 19.1046 5.079 27.3886 5.079 34.1276 11.819 34.1276 20.104 34.1276 28.388 27.3886 35.128 19.1046 35.128 10.8196 35.128 4.0806 28.388 4.0806 20.104L4.0806 20.104ZM44.5806 37.062 34.3406 27.835C35.5256 25.51 36.2076 22.887 36.2076 20.104 36.2076 10.672 28.5356 3 19.1046 3 9.6726 3 1.9996 10.672 1.9996 20.104 1.9996 29.535 9.6726 37.208 19.1046 37.208 22.5846 37.208 25.8226 36.157 28.5266 34.364L38.7276 43.557C39.5616 44.308 40.6076 44.678 41.6516 44.678 42.8466 44.678 44.0396 44.192 44.9016 43.236 46.5146 41.446 46.3706 38.676 44.5806 37.062L44.5806 37.062Z" id="AWS-Amazon-Inspector_Agent_Resource-Icon_light-bg" fill="#DD344C"/></g></svg>