<svg width="80" height="80" viewBox="0 0 80 80" xmlns="http://www.w3.org/2000/svg" xmlns:xlink="http://www.w3.org/1999/xlink" overflow="hidden"><g id="Icon-Architecture/64/Arch_Amazon-CloudSearch_64" stroke="none" stroke-width="1" fill="none" fill-rule="evenodd"><g id="Icon-Architecture-BG/64/Analytics" fill="#8C4FFF"><rect x="0" y="0" width="80" height="80" id="Rectangle"/></g><path d="M46.7093 26.8455 46.7093 28.8537C45.8355 28.8537 45.0058 29.172 44.3731 29.7503 44.128 29.9732 43.7875 30.0606 43.4661 29.9863 43.1437 29.912 42.8795 29.682 42.759 29.3728 41.5336 26.223 38.3568 24.1064 34.8534 24.1064 32.4369 24.1064 30.1338 25.1034 28.5348 26.8425 27.1618 28.3316 26.4065 30.2373 26.4065 32.2093 26.4065 32.6481 26.1222 33.0467 25.7034 33.1782 23.6143 33.8339 22.0585 35.5178 21.6316 37.5771 21.6296 37.5932 21.6276 37.6082 21.6246 37.6223 21.5543 38.0039 21.5201 38.3623 21.5201 38.7178 21.5201 41.9358 24.2511 44.5545 27.6067 44.5545L43.5073 44.5545 43.5073 46.5626 27.6067 46.5626C23.1432 46.5626 19.5113 43.0433 19.5113 38.7178 19.5113 38.2529 19.5535 37.79 19.6409 37.305 19.6439 37.2799 19.6479 37.2568 19.653 37.2337 20.1612 34.6623 21.9621 32.5236 24.4238 31.5085 24.5865 29.2784 25.5066 27.1648 27.0573 25.483 29.034 23.3322 31.8764 22.0982 34.8534 22.0982 38.7414 22.0982 42.311 24.2249 44.0979 27.5002 44.8893 27.0734 45.7842 26.8455 46.7093 26.8455M68.7406 68.7398C67.0693 70.4105 64.3484 70.4095 62.6771 68.7408L48.9902 55.0642C51.2993 53.3251 53.3051 51.2045 54.9152 48.7977L68.7456 62.6852C70.4109 64.3559 70.4079 67.072 68.7406 68.7398M10.0088 34.604C10.0088 21.5932 20.5971 11.0082 33.612 11.0082 46.6269 11.0082 57.2152 21.5932 57.2152 34.604 57.2152 47.6149 46.6269 58.1999 33.612 58.1999 20.5971 58.1999 10.0088 47.6149 10.0088 34.604M70.1699 61.2684 55.9929 47.0336C58.0479 43.3496 59.224 39.1124 59.224 34.604 59.224 20.4867 47.7348 9 33.612 9 19.4892 9 8 20.4867 8 34.604 8 48.7224 19.4892 60.2081 33.612 60.2081 38.648 60.2081 43.3436 58.7421 47.3089 56.2219L61.2569 70.1615C62.4843 71.3875 64.0963 72 65.7084 72 67.3204 72 68.9335 71.3865 70.1608 70.1595 72.6095 67.7106 72.6136 63.7224 70.1699 61.2684M33.612 52.1754C23.9206 52.1754 16.0351 44.2924 16.0351 34.604 16.0351 24.9157 23.9206 17.0326 33.612 17.0326 43.3034 17.0326 51.1889 24.9157 51.1889 34.604 51.1889 44.2924 43.3034 52.1754 33.612 52.1754M33.612 15.0245C22.8128 15.0245 14.0264 23.8082 14.0264 34.604 14.0264 45.3999 22.8128 54.1836 33.612 54.1836 44.4112 54.1836 53.1977 45.3999 53.1977 34.604 53.1977 23.8082 44.4112 15.0245 33.612 15.0245" id="Amazon-CloudSearch_Icon_64_Squid" fill="#FFFFFF"/></g></svg>