<svg width="80" height="80" viewBox="0 0 80 80" xmlns="http://www.w3.org/2000/svg" xmlns:xlink="http://www.w3.org/1999/xlink" overflow="hidden"><g id="Icon-Architecture/64/Arch_AWS-CloudShell_64" stroke="none" stroke-width="1" fill="none" fill-rule="evenodd"><g id="Icon-Architecture-BG/64/Developer-Tools" fill="#C925D1"><rect x="0" y="0" width="80" height="80" id="Rectangle"/></g><g id="Icon-Service/64/AWS-CloudShell_64" fill="#FFFFFF" transform="translate(12.16 12.47)"><path d="M33.84 47.5292 48.84 47.5292 48.84 45.5292 33.84 45.5292 33.84 47.5292ZM22.465 47.3102 32.465 39.3102C32.702 39.1202 32.84 38.8332 32.84 38.5292 32.84 38.2252 32.702 37.9382 32.465 37.7482L22.465 29.7482 21.215 31.3102 30.239 38.5292 21.215 45.7482 22.465 47.3102ZM14.84 53.5292 53.84 53.5292 53.84 23.5292 14.84 23.5292 14.84 53.5292ZM55.84 22.5292 55.84 54.5292C55.84 55.0812 55.393 55.5292 54.84 55.5292L13.84 55.5292C13.287 55.5292 12.84 55.0812 12.84 54.5292L12.84 22.5292C12.84 21.9772 13.287 21.5292 13.84 21.5292L54.84 21.5292C55.393 21.5292 55.84 21.9772 55.84 22.5292L55.84 22.5292ZM11.766 2.71317C9.049 3.86617 6.921 7.19517 6.921 10.2902L6.987 11.3812C7.015 11.8582 6.7 12.2892 6.237 12.4082 4.654 12.8142 2 14.0662 2 17.8832 2 20.7602 3.556 22.3462 4.861 23.1702 5.001 23.2592 5.494 23.4202 5.953 23.5292L8.84 23.5292 8.84 25.5292 5.84 25.5292C5.767 25.5292 5.695 25.5212 5.623 25.5052 5.33 25.4402 4.332 25.2022 3.792 24.8612 2.376 23.9672 3.55271e-15 21.8722 3.55271e-15 17.8832 3.55271e-15 14.4482 1.831 11.8212 4.945 10.7132L4.923 10.3482C4.921 6.38817 7.528 2.34017 10.985 0.872167 15.03-0.847833 19.317 0.00816656 22.447 3.15717 23.328 4.04417 24.065 5.10017 24.646 6.31017 25.882 5.44817 27.46 5.18417 28.939 5.67017 30.923 6.32217 32.181 8.10717 32.392 10.5132 33.748 10.8682 35.857 11.7162 37.195 13.6962 38 14.8862 38.408 16.3142 38.408 17.9392L36.408 17.9392C36.408 16.7212 36.115 15.6702 35.538 14.8162 34.318 13.0102 32.127 12.4602 31.242 12.3072 30.708 12.2152 30.345 11.7142 30.423 11.1782 30.423 9.35117 29.654 8.01117 28.315 7.57117 27.138 7.18617 25.842 7.61217 25.086 8.63617 24.867 8.93417 24.497 9.08517 24.134 9.03217 23.768 8.97817 23.461 8.72517 23.338 8.37517 22.801 6.84917 22.024 5.56817 21.029 4.56717 19.813 3.34317 16.477 0.714167 11.766 2.71317L11.766 2.71317Z" id="Fill-5"/></g></g></svg>