<svg width="90" height="90" viewBox="0 0 90 90" xmlns="http://www.w3.org/2000/svg" xmlns:xlink="http://www.w3.org/1999/xlink" overflow="hidden"><g id="Icon-Architecture-Category/64/Robotics_64" stroke="none" stroke-width="1" fill="none" fill-rule="evenodd"><rect x="5" y="5" width="80" height="80" id="Rectangle" fill="#DD344C"/><rect x="1" y="1" width="88" height="88" id="#879196-Border-Copy-20" stroke="#879196" stroke-width="2"/><g id="Icon-Category/64/Robotics_64" fill="#FFFFFF" transform="translate(17 17)"><path d="M16.85 6.628 15.434 5.215C18.787 1.856 23.249 0.003 27.996 0L28.01 0C32.751 0 37.209 1.844 40.565 5.195L39.153 6.61C36.174 3.637 32.217 2 28.01 2L27.997 2C23.785 2.003 19.826 3.647 16.85 6.628L16.85 6.628ZM37.175 8.848 35.761 10.262C31.482 5.983 24.519 5.983 20.24 10.262L18.826 8.848C23.884 3.789 32.117 3.789 37.175 8.848L37.175 8.848ZM54 49.376 52 50.889 52 39.472 54 41.025 54 49.376ZM10 36.336C10 26.074 17.739 18.336 28 18.336 38.262 18.336 46 26.074 46 36.336L46 53.5 10 53.5 10 36.336ZM6 53.5 8 53.5 8 36.5 6 36.5 6 53.5ZM2 49.376 2 41.025 4 39.472 4 50.889 2 49.376ZM26 14.024C26 13.184 26.684 12.5 27.524 12.5L28.477 12.5C29.317 12.5 30 13.184 30 14.024L30 16.431C29.344 16.371 28.678 16.336 28 16.336 27.323 16.336 26.657 16.371 26 16.431L26 14.024ZM48 53.5 50 53.5 50 36.5 48 36.5 48 53.5ZM55.614 39.746 52 36.94 52 35.5C52 34.948 51.553 34.5 51 34.5L47.913 34.5C47.155 25.365 40.773 18.353 32 16.709L32 14.024C32 12.081 30.419 10.5 28.477 10.5L27.524 10.5C25.581 10.5 24 12.081 24 14.024L24 16.709C15.228 18.353 8.846 25.365 8.087 34.5L5 34.5C4.448 34.5 4 34.948 4 35.5L4 36.94 0.387 39.746C0.143 39.935 0 40.227 0 40.536L0 49.874C0 50.187 0.147 50.482 0.397 50.671L4 53.398 4 53.5 4 54.5 4 55.5 52 55.5 52 54.5 52 53.5 52 53.398 55.604 50.671C55.854 50.482 56 50.187 56 49.874L56 40.536C56 40.227 55.858 39.935 55.614 39.746L55.614 39.746ZM37.224 39.165C36.093 39.604 34.906 39.42 34.042 38.676 33.185 37.936 32.826 36.819 33.081 35.689 33.325 34.616 34.208 33.73 35.281 33.485 35.525 33.429 35.768 33.402 36.006 33.402 36.685 33.402 37.329 33.625 37.869 34.055 38.588 34.629 39 35.484 39 36.413 38.998 37.649 38.285 38.754 37.224 39.165L37.224 39.165ZM39.116 32.492C37.917 31.536 36.358 31.189 34.835 31.535 33 31.954 31.546 33.411 31.13 35.247 30.715 37.084 31.33 38.978 32.736 40.191 33.663 40.99 34.806 41.403 35.994 41.403 36.64 41.403 37.301 41.28 37.947 41.03 39.77 40.324 40.996 38.47 41 36.403 41 34.873 40.314 33.447 39.116 32.492L39.116 32.492ZM21.224 39.165C20.094 39.604 18.906 39.42 18.042 38.676 17.185 37.936 16.826 36.819 17.081 35.689 17.325 34.616 18.208 33.73 19.281 33.485 19.525 33.429 19.768 33.402 20.006 33.402 20.685 33.402 21.329 33.625 21.869 34.055 22.588 34.629 23 35.484 23 36.413 22.998 37.649 22.285 38.754 21.224 39.165L21.224 39.165ZM23.116 32.492C21.917 31.536 20.358 31.189 18.835 31.535 17 31.954 15.546 33.411 15.13 35.247 14.715 37.084 15.33 38.978 16.736 40.191 17.663 40.99 18.806 41.403 19.994 41.403 20.64 41.403 21.301 41.28 21.947 41.03 23.77 40.324 24.996 38.47 25 36.403 25 34.873 24.314 33.447 23.116 32.492L23.116 32.492Z" id="Robotics_Category-Icon_64_Squid"/></g></g></svg>