<svg width="48" height="48" viewBox="0 0 48 48" xmlns="http://www.w3.org/2000/svg" xmlns:xlink="http://www.w3.org/1999/xlink" overflow="hidden"><g id="Icon-Resource/Quantum-Technologies/Res_Amazon-Braket_Simulator-4_48" stroke="none" stroke-width="1" fill="none" fill-rule="evenodd"><path d="M9 39 39 39 39 9 9 9 9 39ZM41 13 41 17 46 17 46 19 41 19 41 23 46 23 46 25 41 25 41 29 46 29 46 31 41 31 41 35 46 35 46 37 41 37 41 40C41 40.552 40.553 41 40 41L37 41 37 46 35 46 35 41 31 41 31 46 29 46 29 41 25 41 25 46 23 46 23 41 19 41 19 46 17 46 17 41 13 41 13 46 11 46 11 41 8 41C7.447 41 7 40.552 7 40L7 37 2 37 2 35 7 35 7 31 2 31 2 29 7 29 7 25 2 25 2 23 7 23 7 19 2 19 2 17 7 17 7 13 2 13 2 11 7 11 7 8C7 7.448 7.447 7 8 7L11 7 11 2 13 2 13 7 17 7 17 2 19 2 19 7 23 7 23 2 25 2 25 7 29 7 29 2 31 2 31 7 35 7 35 2 37 2 37 7 40 7C40.553 7 41 7.448 41 8L41 11 46 11 46 13 41 13ZM21.845 25 10 25 10 23 21.324 23 18.362 20.038 19.776 18.624 23.853 22.7 27.928 18.624 29.342 20.038 26.38 23 37 23 37 25 25.969 25 29.454 28.485 28.04 29.899 23.907 25.766 19.773 29.899 18.359 28.485 21.845 25Z" id="Fill-1" fill="#ED7100"/></g></svg>