<svg width="48" height="48" viewBox="0 0 48 48" xmlns="http://www.w3.org/2000/svg" xmlns:xlink="http://www.w3.org/1999/xlink" overflow="hidden"><g id="Icon-Resource/Networking-and-Content-Delivery/Res_Amazon-VPC_Customer-Gateway_48" stroke="none" stroke-width="1" fill="none" fill-rule="evenodd"><path d="M42.2081 24.707 37.8331 29.082 36.4191 27.668 39.0871 25 25.0001 25 25.0001 39.086 27.6681 36.418 29.0821 37.832 24.7071 42.207C24.5121 42.402 24.2561 42.5 24.0001 42.5 23.7441 42.5 23.4881 42.402 23.2931 42.207L18.9181 37.832 20.3321 36.418 23.0001 39.086 23.0001 25 8.9151 25 11.5831 27.668 10.1691 29.082 5.7941 24.707C5.4031 24.316 5.4031 23.684 5.7941 23.293L10.1691 18.917 11.5831 20.331 8.9151 23 23.0001 23 23.0001 8.913 20.3321 11.581 18.9181 10.167 23.2931 5.792C23.6841 5.401 24.3161 5.401 24.7071 5.792L29.0821 10.167 27.6681 11.581 25.0001 8.913 25.0001 23 39.0871 23 36.4191 20.331 37.8331 18.917 42.2081 23.293C42.5991 23.684 42.5991 24.316 42.2081 24.707M24.0001 44C12.9721 44 4.0001 35.028 4.0001 24 4.0001 12.972 12.9721 4 24.0001 4 35.0281 4 44.0001 12.972 44.0001 24 44.0001 35.028 35.0281 44 24.0001 44M24.0001 2C11.8691 2 2.0001 11.869 2.0001 24 2.0001 36.131 11.8691 46 24.0001 46 36.1311 46 46.0001 36.131 46.0001 24 46.0001 11.869 36.1311 2 24.0001 2" id="AWS-Amazon-VPC_Customer-gateway_Resource-Icon_light-bg" fill="#8C4FFF"/></g></svg>