<svg width="48" height="48" viewBox="0 0 48 48" xmlns="http://www.w3.org/2000/svg" xmlns:xlink="http://www.w3.org/1999/xlink" overflow="hidden"><g id="Icon-Resource/Networking-and-Content-Delivery/Res_Amazon-VPC_Network-Access-Analyzer_48" stroke="none" stroke-width="1" fill="none" fill-rule="evenodd"><path d="M37 39.121 42 39.121 42 37.121 37 37.121 37 39.121ZM32 41.121C32.023 41.121 32.047 41.12 32.071 41.118 32.36 41.098 32.626 40.953 32.8 40.721L35.8 36.721 34.2 35.521 31.892 38.598 30.707 37.414 29.293 38.828 31.293 40.828C31.481 41.016 31.735 41.121 32 41.121L32 41.121ZM37 32.121 42 32.121 42 30.121 37 30.121 37 32.121ZM32 34.121C32.023 34.121 32.047 34.12 32.071 34.118 32.36 34.098 32.626 33.953 32.8 33.721L35.8 29.721 34.2 28.521 31.892 31.598 30.707 30.414 29.293 31.828 31.293 33.828C31.481 34.016 31.735 34.121 32 34.121L32 34.121ZM28 43.993 44 43.993 44 24.993 28 24.993 28 43.993ZM46 23.993 46 44.993C46 45.545 45.553 45.993 45 45.993L27 45.993C26.447 45.993 26 45.545 26 44.993L26 23.993C26 23.441 26.447 22.993 27 22.993L45 22.993C45.553 22.993 46 23.441 46 23.993L46 23.993ZM20 25.993C20.256 25.993 20.512 25.895 20.707 25.7L23.707 22.7 22.293 21.286 21 22.579 21 13.407 22.293 14.7 23.707 13.286 20.707 10.286C20.316 9.895 19.684 9.895 19.293 10.286L16.293 13.286 17.707 14.7 19 13.407 19 22.579 17.707 21.286 16.293 22.7 19.293 25.7C19.488 25.895 19.744 25.993 20 25.993L20 25.993ZM14.707 21.7 17.707 18.7C18.098 18.309 18.098 17.677 17.707 17.286L14.707 14.286 13.293 15.7 14.586 16.993 11 16.993 11 18.993 14.586 18.993 13.293 20.286 14.707 21.7ZM25.414 18.993 29 18.993 29 16.993 25.414 16.993 26.707 15.7 25.293 14.286 22.293 17.286C21.902 17.677 21.902 18.309 22.293 18.7L25.293 21.7 26.707 20.286 25.414 18.993ZM12 28.993 24 28.993 24 30.993 12 30.993C11.49 30.993 11.039 30.997 10.635 31 10.315 31.003 10.021 31.005 9.748 31.005 8.272 31.005 7.389 30.935 6.396 30.447 4.368 29.45 2 26.764 2 22.475 2 17.122 5.532 15.07 7.71 14.313L7.679 13.774C7.677 9.274 10.644 4.664 14.578 2.993 19.185 1.035 24.066 2.008 27.632 5.596 28.677 6.646 29.543 7.907 30.218 9.357 31.626 8.306 33.469 7.971 35.182 8.533 37.443 9.276 38.864 11.335 39.069 14.11 41.577 14.828 45.002 17.006 45.97 20.878L44.03 21.364C43.083 17.577 39.294 16.13 37.913 15.892 37.377 15.8 37.014 15.296 37.094 14.759 37.096 12.562 36.171 10.963 34.558 10.433 33.14 9.967 31.572 10.483 30.662 11.717 30.443 12.014 30.07 12.168 29.71 12.113 29.344 12.058 29.037 11.805 28.914 11.456 28.287 9.674 27.378 8.177 26.214 7.006 24.788 5.572 20.878 2.49 15.359 4.833 12.173 6.187 9.677 10.089 9.677 13.716L9.753 14.983C9.781 15.461 9.467 15.891 9.004 16.011 7.135 16.49 4 17.968 4 22.475 4 25.845 5.766 27.909 7.278 28.652 7.997 29.006 8.604 29.016 10.618 29 11.027 28.997 11.484 28.993 12 28.993L12 28.993Z" id="Fill-1" fill="#8C4FFF"/></g></svg>