<svg width="48" height="48" viewBox="0 0 48 48" xmlns="http://www.w3.org/2000/svg" xmlns:xlink="http://www.w3.org/1999/xlink" overflow="hidden"><g id="Icon-Resource/Containers/Res_Amazon-Elastic-Container-Service_Service_48" stroke="none" stroke-width="1" fill="none" fill-rule="evenodd"><path d="M24.933 38.213 37.674 38.213 37.674 36.213 24.933 36.213 24.933 38.213ZM24.933 28.303 37.674 28.303 37.674 26.303 24.933 26.303 24.933 28.303ZM24.933 18.393 37.674 18.393 37.674 16.393 24.933 16.393 24.933 18.393ZM19.561 38.337 21.808 38.337 21.808 36.09 19.561 36.09 19.561 38.337ZM18.561 40.337 22.808 40.337C23.361 40.337 23.808 39.89 23.808 39.337L23.808 35.09C23.808 34.537 23.361 34.09 22.808 34.09L18.561 34.09C18.009 34.09 17.561 34.537 17.561 35.09L17.561 39.337C17.561 39.89 18.009 40.337 18.561 40.337L18.561 40.337ZM19.561 28.427 21.808 28.427 21.808 26.18 19.561 26.18 19.561 28.427ZM18.561 30.427 22.808 30.427C23.361 30.427 23.808 29.98 23.808 29.427L23.808 25.18C23.808 24.627 23.361 24.18 22.808 24.18L18.561 24.18C18.009 24.18 17.561 24.627 17.561 25.18L17.561 29.427C17.561 29.98 18.009 30.427 18.561 30.427L18.561 30.427ZM19.561 18.517 21.808 18.517 21.808 16.27 19.561 16.27 19.561 18.517ZM18.561 20.517 22.808 20.517C23.361 20.517 23.808 20.07 23.808 19.517L23.808 15.27C23.808 14.717 23.361 14.27 22.808 14.27L18.561 14.27C18.009 14.27 17.561 14.717 17.561 15.27L17.561 19.517C17.561 20.07 18.009 20.517 18.561 20.517L18.561 20.517ZM16.023 44 39.506 44 39.506 12.022 16.023 12.022 16.023 44ZM14.022 11.023 14.022 39.753 11.775 39.753 11.775 7.776 35.259 7.776 35.259 10.023 15.022 10.023C14.469 10.023 14.022 10.47 14.022 11.023L14.022 11.023ZM9.775 6.776 9.775 35.978 8 35.978 8 4 31.483 4 31.483 5.776 10.775 5.776C10.222 5.776 9.775 6.223 9.775 6.776L9.775 6.776ZM40.506 10.023 37.259 10.023 37.259 6.776C37.259 6.223 36.811 5.776 36.259 5.776L33.483 5.776 33.483 3C33.483 2.448 33.036 2 32.483 2L7 2C6.447 2 6 2.448 6 3L6 36.978C6 37.531 6.447 37.978 7 37.978L9.775 37.978 9.775 40.753C9.775 41.306 10.222 41.753 10.775 41.753L14.022 41.753 14.022 45C14.022 45.553 14.469 46 15.022 46L40.506 46C41.058 46 41.506 45.553 41.506 45L41.506 11.023C41.506 10.47 41.058 10.023 40.506 10.023L40.506 10.023Z" id="Amazon-Elastic-Container-Service_Service_Resource-Icon_light-bg" fill="#ED7100"/></g></svg>