<svg width="80" height="80" viewBox="0 0 80 80" xmlns="http://www.w3.org/2000/svg" xmlns:xlink="http://www.w3.org/1999/xlink" overflow="hidden"><g id="Icon-Architecture/64/Arch_AWS-RoboMaker_64" stroke="none" stroke-width="1" fill="none" fill-rule="evenodd"><g id="Icon-Architecture-BG/64/Robotics" fill="#DD344C"><rect x="0" y="0" width="80" height="80" id="Rectangle"/></g><path d="M15.5 41C15.775 41 16 41.224 16 41.5 16 41.776 15.775 42 15.5 42 15.225 42 15 41.776 15 41.5 15 41.224 15.225 41 15.5 41L15.5 41ZM15.5 44C16.879 44 18 42.878 18 41.5 18 40.122 16.879 39 15.5 39 14.121 39 13 40.122 13 41.5 13 42.878 14.121 44 15.5 44L15.5 44ZM16 29.5C16 29.776 15.775 30 15.5 30 15.225 30 15 29.776 15 29.5 15 29.224 15.225 29 15.5 29 15.775 29 16 29.224 16 29.5L16 29.5ZM14 29.5C14 30.327 14.673 31 15.5 31 16.327 31 17 30.327 17 29.5 17 28.673 16.327 28 15.5 28 14.673 28 14 28.673 14 29.5L14 29.5ZM23.5 22C23.775 22 24 22.224 24 22.5 24 22.776 23.775 23 23.5 23 23.225 23 23 22.776 23 22.5 23 22.224 23.225 22 23.5 22L23.5 22ZM23.5 24C24.327 24 25 23.327 25 22.5 25 21.673 24.327 21 23.5 21 22.673 21 22 21.673 22 22.5 22 23.327 22.673 24 23.5 24L23.5 24ZM20 35.5C20 35.776 19.775 36 19.5 36 19.225 36 19 35.776 19 35.5 19 35.224 19.225 35 19.5 35 19.775 35 20 35.224 20 35.5L20 35.5ZM18 35.5C18 36.327 18.673 37 19.5 37 20.327 37 21 36.327 21 35.5 21 34.673 20.327 34 19.5 34 18.673 34 18 34.673 18 35.5L18 35.5ZM23.5 28C24.327 28 25 28.673 25 29.5 25 30.327 24.327 31 23.5 31 22.673 31 22 30.327 22 29.5 22 28.673 22.673 28 23.5 28L23.5 28ZM23.5 33C25.43 33 27 31.43 27 29.5 27 27.57 25.43 26 23.5 26 21.57 26 20 27.57 20 29.5 20 31.43 21.57 33 23.5 33L23.5 33ZM16.5 19C17.327 19 18 19.673 18 20.5 18 21.327 17.327 22 16.5 22 15.673 22 15 21.327 15 20.5 15 19.673 15.673 19 16.5 19L16.5 19ZM16.5 24C18.43 24 20 22.43 20 20.5 20 18.57 18.43 17 16.5 17 14.57 17 13 18.57 13 20.5 13 22.43 14.57 24 16.5 24L16.5 24ZM28.707 18.707 27.293 17.293C30.459 14.127 35.581 12 40.039 12 44.452 12 49.543 14.127 52.707 17.293L51.293 18.707C48.522 15.936 43.896 14 40.039 14 36.139 14 31.479 15.936 28.707 18.707L28.707 18.707ZM40.039 17C43.454 17 46.613 18.2 48.707 20.292L47.293 21.708C45.597 20.012 42.885 19 40.039 19 37.142 19 34.401 20.012 32.707 21.707L31.293 20.293C33.354 18.231 36.623 17 40.039 17L40.039 17ZM66 61.384 64.028 62.377 64.028 53.009 66 54.498 66 61.384ZM62.028 66 60 66 60 50 62.028 50 62.028 65.623 62.028 66ZM18 64.771 18 50 20 50 20 66 18 66 18 64.771ZM14 61.286 14 53.686 16 52.914 16 61.971 14 61.286ZM40 32C45.064 32 49.895 33.937 53.253 37.312 56.338 40.415 58.024 44.563 58.0003 49L58.0003 66 22 66 21.999 49.031C22.304 39.322 30.042 32 40 32L40 32ZM38 27C38 25.882 39.088 25.647 40 25.647 40.912 25.647 42 25.882 42 27L42 30.096C41.338 30.035 40.671 30 40 30 39.323 30 38.656 30.032 38 30.092L38 27ZM68 53.502 64.028 50.502 64.028 48 59.957 48C59.74 43.414 57.898 39.147 54.671 35.902 51.844 33.06 48.087 31.142 44 30.376L44 27C44 24.963 42.43 23.647 40 23.647 37.57 23.647 36 24.963 36 27L36 30.369C27.251 32.009 20.797 38.988 20.079 48L16 48 16 50.77 12 52.314 12 62.714 16 64.085 16 68 64.028 68 64.028 64.616 68 62.616 68 53.502ZM33 46C34.103 46 35 46.897 35 48 35 49.103 34.103 50 33 50 31.897 50 31 49.103 31 48 31 46.897 31.897 46 33 46L33 46ZM33 52C35.206 52 37 50.206 37 48 37 45.794 35.206 44 33 44 30.794 44 29 45.794 29 48 29 50.206 30.794 52 33 52L33 52ZM47 46C48.103 46 49 46.897 49 48 49 49.103 48.103 50 47 50 45.897 50 45 49.103 45 48 45 46.897 45.897 46 47 46L47 46ZM47 52C49.206 52 51 50.206 51 48 51 45.794 49.206 44 47 44 44.794 44 43 45.794 43 48 43 50.206 44.794 52 47 52L47 52Z" id="AWS-RoboMaker_Icon_64_Squid" fill="#FFFFFF"/></g></svg>