<svg width="48" height="48" viewBox="0 0 48 48" xmlns="http://www.w3.org/2000/svg" xmlns:xlink="http://www.w3.org/1999/xlink" overflow="hidden"><g id="Icon-Resource/Database/Res_Amazon-Aurora-Instance_48" stroke="none" stroke-width="1" fill="none" fill-rule="evenodd"><path d="M43.9538 41.606 43.9538 38.889C42.1608 39.827 39.5038 40.261 37.0878 40.261 34.6548 40.261 32.0088 39.825 30.2218 38.889L30.2218 41.606C30.2218 42.413 32.8948 43.955 37.0878 43.955 41.2798 43.955 43.9538 42.413 43.9538 41.606L43.9538 41.606ZM30.2218 24.415C30.2218 25.03 32.5578 26.474 37.0878 26.474 41.6178 26.474 43.9538 25.03 43.9538 24.415 43.9538 23.799 41.6178 22.355 37.0878 22.355 32.5578 22.355 30.2218 23.799 30.2218 24.415L30.2218 24.415ZM43.9538 27.07C42.2428 27.995 39.6598 28.474 37.0878 28.474 34.5158 28.474 31.9328 27.995 30.2218 27.07L30.2218 30.332C30.7598 31.147 33.3138 32.204 37.0878 32.204 40.5868 32.204 43.2218 31.273 43.9228 30.398 43.9358 30.381 43.9418 30.366 43.9538 30.35L43.9538 27.07ZM30.2218 36.389C30.7578 37.206 33.3108 38.261 37.0878 38.261 40.9878 38.261 43.4258 37.176 43.9538 36.394L43.9538 32.819C42.3158 33.682 39.8538 34.204 37.0878 34.204 34.6568 34.204 32.0098 33.767 30.2218 32.832L30.2218 36.389ZM45.9458 24.341 45.9538 24.341 45.9538 41.606C45.9538 44.044 42.0588 45.955 37.0878 45.955 32.1158 45.955 28.2218 44.044 28.2218 41.606L28.2218 24.341 28.2288 24.341C28.3128 21.725 32.7238 20.355 37.0878 20.355 41.4518 20.355 45.8628 21.725 45.9458 24.341L45.9458 24.341ZM27.4208 18.695C27.2998 18.656 27.1548 18.637 26.9888 18.637 26.8298 18.637 26.7068 18.688 26.6218 18.79 26.5358 18.893 26.4928 19.041 26.4928 19.235 26.4928 19.4 26.5268 19.532 26.5968 19.629 26.6658 19.726 26.7578 19.774 26.8738 19.774 27.0558 19.774 27.2378 19.686 27.4208 19.509L27.4208 18.695ZM28.4638 20.463 27.5868 20.463 27.4868 20.082C27.3928 20.225 27.2578 20.343 27.0818 20.434 26.9038 20.525 26.7248 20.572 26.5428 20.572 26.1998 20.572 25.9308 20.459 25.7308 20.235 25.5318 20.011 25.4328 19.703 25.4328 19.309 25.4328 18.894 25.5548 18.566 25.7978 18.325 26.0398 18.085 26.3688 17.964 26.7828 17.964 26.9538 17.964 27.1668 17.997 27.4208 18.064L27.4208 17.681C27.4208 17.394 27.3828 17.199 27.3078 17.097 27.2348 16.994 27.0958 16.943 26.8908 16.943 26.5578 16.943 26.1528 17.031 25.6738 17.209L25.6738 16.453C25.8338 16.348 26.0428 16.265 26.3028 16.204 26.5618 16.143 26.8268 16.112 27.0978 16.112 27.5778 16.112 27.9258 16.222 28.1408 16.44 28.3558 16.659 28.4638 17.009 28.4638 17.491L28.4638 20.463ZM23.8838 17.366C24.1218 17.233 24.3728 17.167 24.6388 17.167 24.7758 17.167 24.9228 17.18 25.0768 17.209L25.0768 16.204C24.9878 16.187 24.8998 16.179 24.8118 16.179 24.6298 16.179 24.4568 16.226 24.2938 16.32 24.1308 16.414 23.9678 16.563 23.8018 16.768L23.6768 16.22 22.7498 16.22 22.7498 20.463 23.8838 20.463 23.8838 17.366ZM19.6608 18.346C19.6608 18.817 19.7058 19.162 19.7978 19.38 19.8878 19.599 20.0358 19.708 20.2398 19.708 20.4438 19.708 20.5928 19.599 20.6828 19.38 20.7748 19.162 20.8198 18.817 20.8198 18.346 20.8198 17.875 20.7748 17.529 20.6828 17.308 20.5928 17.086 20.4438 16.976 20.2398 16.976 20.0358 16.976 19.8878 17.086 19.7978 17.308 19.7058 17.529 19.6608 17.875 19.6608 18.346L19.6608 18.346ZM18.9738 19.99C18.6758 19.603 18.5248 19.055 18.5248 18.346 18.5248 17.632 18.6758 17.082 18.9738 16.694 19.2708 16.306 19.6938 16.112 20.2398 16.112 20.7868 16.112 21.2088 16.306 21.5068 16.694 21.8048 17.082 21.9548 17.632 21.9548 18.346 21.9548 19.055 21.8048 19.603 21.5068 19.99 21.2088 20.378 20.7868 20.572 20.2398 20.572 19.6938 20.572 19.2708 20.378 18.9738 19.99L18.9738 19.99ZM17.0018 17.366C17.2398 17.233 17.4898 17.167 17.7558 17.167 17.8938 17.167 18.0408 17.18 18.1948 17.209L18.1948 16.204C18.1068 16.187 18.0178 16.179 17.9298 16.179 17.7478 16.179 17.5758 16.226 17.4118 16.32 17.2498 16.414 17.0848 16.563 16.9198 16.768L16.7958 16.22 15.8678 16.22 15.8678 20.463 17.0018 20.463 17.0018 17.366ZM11.7018 16.22 11.7018 19.309C11.7018 19.719 11.7818 20.031 11.9418 20.247 12.1018 20.463 12.3368 20.572 12.6458 20.572 13.0378 20.572 13.4468 20.408 13.8718 20.082L13.9628 20.463 14.8908 20.463 14.8908 16.22 13.7568 16.22 13.7568 19.517C13.5738 19.645 13.3998 19.708 13.2338 19.708 13.0908 19.708 12.9888 19.65 12.9278 19.534 12.8678 19.418 12.8368 19.224 12.8368 18.952L12.8368 16.22 11.7018 16.22ZM9.4328 18.263 8.9108 15.879 8.4058 18.263 9.4328 18.263ZM9.5988 14.71 11.1808 20.463 9.9048 20.463 9.6068 19.093 8.2318 19.093 7.9418 20.463 6.7248 20.463 8.3148 14.71 9.5988 14.71ZM32.4888 12.16 32.4888 9.046C32.4888 8.642 32.4048 8.335 32.2368 8.124 32.0678 7.914 31.8228 7.809 31.5038 7.809 31.0998 7.809 30.6788 7.972 30.2358 8.299L30.1448 7.917 29.2188 7.917 29.2188 12.16 30.3518 12.16 30.3518 8.872C30.5568 8.738 30.7438 8.672 30.9158 8.672 31.0758 8.672 31.1878 8.728 31.2548 8.838 31.3208 8.949 31.3548 9.126 31.3548 9.37L31.3548 12.16 32.4888 12.16ZM26.1278 10.043C26.1278 10.513 26.1738 10.858 26.2658 11.077 26.3558 11.295 26.5048 11.404 26.7088 11.404 26.9128 11.404 27.0598 11.295 27.1508 11.077 27.2418 10.858 27.2878 10.513 27.2878 10.043 27.2878 9.572 27.2418 9.226 27.1508 9.005 27.0598 8.783 26.9128 8.672 26.7088 8.672 26.5048 8.672 26.3558 8.783 26.2658 9.005 26.1738 9.226 26.1278 9.572 26.1278 10.043L26.1278 10.043ZM25.4408 11.687C25.1428 11.299 24.9938 10.752 24.9938 10.043 24.9938 9.328 25.1428 8.778 25.4408 8.39 25.7398 8.002 26.1618 7.809 26.7088 7.809 27.2548 7.809 27.6778 8.002 27.9748 8.39 28.2728 8.778 28.4228 9.328 28.4228 10.043 28.4228 10.752 28.2728 11.299 27.9748 11.687 27.6778 12.074 27.2548 12.268 26.7088 12.268 26.1618 12.268 25.7398 12.074 25.4408 11.687L25.4408 11.687ZM24.4798 11.288 22.7328 11.288 24.4468 8.722 24.4468 7.917 21.6068 7.917 21.6068 8.789 23.2558 8.789 21.5408 11.355 21.5408 12.16 24.4798 12.16 24.4798 11.288ZM18.8908 10.931C18.8908 11.097 18.9248 11.229 18.9938 11.326 19.0628 11.422 19.1558 11.471 19.2708 11.471 19.4538 11.471 19.6358 11.382 19.8178 11.206L19.8178 10.391C19.6968 10.353 19.5538 10.333 19.3878 10.333 19.2268 10.333 19.1038 10.384 19.0188 10.487 18.9328 10.589 18.8908 10.738 18.8908 10.931L18.8908 10.931ZM18.9398 12.268C18.5988 12.268 18.3278 12.155 18.1288 11.932 17.9298 11.707 17.8308 11.399 17.8308 11.005 17.8308 10.591 17.9518 10.262 18.1948 10.022 18.4378 9.781 18.7668 9.66 19.1818 9.66 19.3508 9.66 19.5638 9.694 19.8178 9.76L19.8178 9.378C19.8178 9.09 19.7798 8.896 19.7068 8.793 19.6328 8.691 19.4928 8.64 19.2888 8.64 18.9568 8.64 18.5518 8.728 18.0708 8.905L18.0708 8.149C18.2308 8.044 18.4398 7.961 18.6998 7.9 18.9598 7.839 19.2248 7.809 19.4948 7.809 19.9748 7.809 20.3238 7.918 20.5378 8.137 20.7548 8.355 20.8618 8.705 20.8618 9.188L20.8618 12.16 19.9838 12.16 19.8848 11.778C19.7908 11.921 19.6548 12.039 19.4788 12.13 19.3018 12.222 19.1228 12.268 18.9398 12.268L18.9398 12.268ZM15.7978 8.838C15.8608 8.949 15.8928 9.124 15.8928 9.362L15.8928 12.16 17.0268 12.16 17.0268 9.046C17.0268 8.647 16.9448 8.341 16.7788 8.128 16.6128 7.916 16.3758 7.809 16.0668 7.809 15.6808 7.809 15.2598 7.978 14.8078 8.315 14.6478 7.978 14.3708 7.809 13.9788 7.809 13.5938 7.809 13.1798 7.972 12.7368 8.299L12.6458 7.917 11.7188 7.917 11.7188 12.16 12.8528 12.16 12.8528 8.872C13.0578 8.738 13.2368 8.672 13.3918 8.672 13.5398 8.672 13.6468 8.728 13.7108 8.838 13.7728 8.949 13.8058 9.124 13.8058 9.362L13.8058 12.16 14.9398 12.16 14.9398 9.063 14.9398 8.963C14.9398 8.93 14.9378 8.899 14.9328 8.872 15.1368 8.738 15.3188 8.672 15.4778 8.672 15.6278 8.672 15.7338 8.728 15.7978 8.838L15.7978 8.838ZM9.4328 9.959 8.9108 7.576 8.4058 9.959 9.4328 9.959ZM11.1808 12.16 9.9048 12.16 9.6068 10.79 8.2318 10.79 7.9418 12.16 6.7248 12.16 8.3148 6.406 9.5988 6.406 11.1808 12.16ZM45.9538 7.762 45.9538 20.481 43.9538 20.481 43.9538 7.762C43.9538 5.688 42.2668 4 40.1918 4L7.7618 4C5.6868 4 3.9998 5.688 3.9998 7.762L3.9998 40.193C3.9998 42.267 5.6868 43.955 7.7618 43.955L27.4738 43.955 27.4738 45.955 7.7618 45.955C4.5848 45.955 1.9998 43.37 1.9998 40.193L1.9998 7.762C1.9998 4.585 4.5848 2 7.7618 2L40.1918 2C43.3688 2 45.9538 4.585 45.9538 7.762L45.9538 7.762Z" id="Amazon-Aurora_Resource-Icon_light-bg" fill="#C925D1"/></g></svg>