<svg width="80" height="80" viewBox="0 0 80 80" xmlns="http://www.w3.org/2000/svg" xmlns:xlink="http://www.w3.org/1999/xlink" overflow="hidden"><g id="Icon-Architecture/64/Arch_AWS-Auto-Scaling_64" stroke="none" stroke-width="1" fill="none" fill-rule="evenodd"><g id="Icon-Architecture-BG/64/Management-Governance" fill="#E7157B"><rect x="0" y="0" width="80" height="80" id="Rectangle"/></g><path d="M48 44.402 48 36.6908 41 40.5819 41 48.2532 48 44.402ZM32 43.4558 39 48.0841 39 40.5799 32 36.6908 32 43.4558ZM33.062 34.9923 40.002 38.8484 46.938 34.9933 40 31.1531 33.062 34.9923ZM50 34.9903 50 44.9932C50 45.3583 49.802 45.6944 49.481 45.8705L40.481 50.8209C40.331 50.904 40.166 50.945 40 50.945 39.808 50.945 39.615 50.889 39.448 50.7789L30.448 44.8272C30.169 44.6421 30 44.329 30 43.9929L30 34.9903C30 34.6272 30.197 34.2921 30.516 34.115L39.516 29.1355C39.818 28.9685 40.182 28.9685 40.484 29.1355L49.484 34.115C49.803 34.2921 50 34.6272 50 34.9903L50 34.9903ZM68 38.9915 57.414 38.9915 62.707 33.6969 61.293 32.2825 54.293 39.2845C53.902 39.6757 53.902 40.3088 54.293 40.699L61.293 47.701 62.707 46.2866 57.414 40.992 68 40.992 68 38.9915ZM19.8 31.3892 18.2 32.5896 23 38.9915 12 38.9915 12 40.992 22.586 40.992 17.293 46.2866 18.707 47.701 25.707 40.699C26.059 40.3469 26.099 39.7907 25.8 39.3916L19.8 31.3892ZM41 64.3369 41.001 53.9959 39.001 53.9959 39 64.3389 33.753 58.3392 32.247 59.6565 39.246 67.6589C39.437 67.876 39.711 68 39.999 68 40.287 68 40.562 67.876 40.752 67.6589L47.753 59.6565 46.247 58.3392 41 64.3369ZM33.753 21.6453 32.247 20.328 39.246 12.3256C39.627 11.8915 40.371 11.8915 40.752 12.3256L47.753 20.328 46.247 21.6453 41 15.6476 41.001 25.9876 39.001 25.9876 39 15.6446 33.753 21.6453Z" id="AWS-Auto-Scaling_Icon_64_Squid" fill="#FFFFFF"/></g></svg>