<svg width="80" height="80" viewBox="0 0 80 80" xmlns="http://www.w3.org/2000/svg" xmlns:xlink="http://www.w3.org/1999/xlink" overflow="hidden"><g id="Icon-Architecture/64/Arch_AWS-Cloud-Control-API_64" stroke="none" stroke-width="1" fill="none" fill-rule="evenodd"><g id="Icon-Architecture-BG/64/Developer-Tools" fill="#C925D1"><rect x="0" y="0" width="80" height="80" id="Rectangle"/></g><g id="Icon-Service/64/AWS-Cloud-Control-API_64" fill="#FFFFFF" transform="translate(12 18.15)"><path d="M2.05316 28.7645C1.80716 26.7405 2.43116 24.7155 3.76516 23.2085 5.08316 21.7215 6.97416 20.8685 8.95116 20.8685L33.4572 20.8685 28.1642 26.1605 29.5782 27.5755 36.5782 20.5755C36.9692 20.1845 36.9692 19.5515 36.5782 19.1605L29.5782 12.1605 28.1642 13.5755 33.4572 18.8685 8.95116 18.8685C6.40216 18.8685 3.96516 19.9665 2.26816 21.8825 0.555157 23.8175-0.247843 26.4135 0.0671575 29.0055 0.612157 33.4885 4.57416 36.8685 9.28416 36.8685L10.9512 36.8685 10.9512 34.8685 9.28416 34.8685C5.58416 34.8685 2.47516 32.2435 2.05316 28.7645M55.9992 26.1205C55.9992 36.0175 46.0502 36.8585 45.9502 36.8655L18.5822 36.8675 23.8752 42.1605 22.4612 43.5755 15.4612 36.5755C15.0712 36.1845 15.0712 35.5515 15.4612 35.1605L22.4612 28.1605 23.8752 29.5755 18.5822 34.8685 45.8772 34.8685C46.1372 34.8455 53.9992 34.1425 53.9992 26.1205 53.9992 24.6565 53.7252 23.3365 53.1852 22.1985 52.4892 20.7335 51.3452 19.5395 49.7862 18.6505 49.2092 18.3215 48.5782 18.0365 47.9102 17.8045 47.2622 17.5775 46.5982 17.4065 45.9372 17.2925 45.4002 17.2005 45.0352 16.6965 45.1162 16.1575L45.1222 16.1235C45.1162 15.3615 45.0312 14.6465 44.8662 13.9985 44.3322 11.9075 42.9642 10.5005 41.1122 10.1395 39.3182 9.7875 37.4432 10.5345 36.3352 12.0365 36.1162 12.3335 35.7532 12.4845 35.3832 12.4325 35.0172 12.3775 34.7102 12.1255 34.5872 11.7755 33.7642 9.4425 32.5742 7.4815 31.0482 5.9475 29.1752 4.0625 24.0322 0.00949868 16.7782 3.0925 12.5832 4.8735 9.29716 10.0065 9.29716 14.7755L7.29716 14.7755C7.29716 9.1725 11.0362 3.3575 15.9962 1.2515 21.8112-1.2165 27.9672 0.0104987 32.4662 4.5365 33.8642 5.9425 35.0102 7.6495 35.8852 9.6255 37.4372 8.3465 39.5012 7.7865 41.4942 8.1765 44.0982 8.6845 46.0822 10.6765 46.8032 13.5045 46.9622 14.1275 47.0622 14.7925 47.1022 15.4895 47.5952 15.6045 48.0862 15.7475 48.5692 15.9155 49.3522 16.1885 50.0952 16.5245 50.7772 16.9135 52.6992 18.0095 54.1162 19.4985 54.9912 21.3405 55.6602 22.7485 55.9992 24.3575 55.9992 26.1205" id="Fill-1"/></g></g></svg>