<svg width="80" height="80" viewBox="0 0 80 80" xmlns="http://www.w3.org/2000/svg" xmlns:xlink="http://www.w3.org/1999/xlink" overflow="hidden"><g id="Icon-Architecture/64/Arch_Amazon-CloudWatch_64" stroke="none" stroke-width="1" fill="none" fill-rule="evenodd"><g id="Icon-Architecture-BG/64/Management-Governance" fill="#E7157B"><rect x="0" y="0" width="80" height="80" id="Rectangle"/></g><path d="M55.0592 46.7774C55.0592 42.868 51.8576 39.6876 47.9221 39.6876 43.9866 39.6876 40.7859 42.868 40.7859 46.7774 40.7859 50.6867 43.9866 53.8671 47.9221 53.8671 51.8576 53.8671 55.0592 50.6867 55.0592 46.7774M57.0697 46.7774C57.0697 51.7881 52.9663 55.8642 47.9221 55.8642 42.8788 55.8642 38.7754 51.7881 38.7754 46.7774 38.7754 41.7666 42.8788 37.6905 47.9221 37.6905 52.9663 37.6905 57.0697 41.7666 57.0697 46.7774M65.5097 60.4735 58.5012 54.2026C57.9352 54.9945 57.2808 55.7174 56.554 56.3635L63.5525 62.6334C64.1496 63.1687 65.0784 63.1187 65.6182 62.5256 66.155 61.9324 66.1068 61.0108 65.5097 60.4735M47.9221 57.6616C53.9645 57.6616 58.8801 52.7787 58.8801 46.7774 58.8801 40.7751 53.9645 35.8931 47.9221 35.8931 41.8806 35.8931 36.965 40.7751 36.965 46.7774 36.965 52.7787 41.8806 57.6616 47.9221 57.6616M67.112 63.8626C66.4264 64.6166 65.4785 65 64.5285 65 63.7002 65 62.8699 64.7084 62.2075 64.1173L54.9306 57.5987C52.907 58.8968 50.5055 59.6587 47.9221 59.6587 40.7718 59.6587 34.9545 53.8801 34.9545 46.7774 34.9545 39.6746 40.7718 33.896 47.9221 33.896 55.0733 33.896 60.8906 39.6746 60.8906 46.7774 60.8906 48.8154 60.399 50.7366 59.5466 52.4512L66.8557 58.9907C68.2751 60.2659 68.3896 62.4497 67.112 63.8626M21.2803 29.3925C21.2803 29.9118 21.3125 30.429 21.3738 30.9293 21.409 31.2139 21.3205 31.4985 21.1295 31.7132 20.9778 31.8839 20.7737 31.9968 20.5505 32.0347 18.0787 32.6688 14.0105 34.588 14.0105 40.3457 14.0105 44.6934 16.424 47.0929 18.4496 48.3411 19.1412 48.7745 19.9594 49.0051 20.8229 49.0141L32.9451 49.0251 32.9431 51.0222 20.8119 51.0112C19.5664 50.9983 18.3842 50.6608 17.384 50.0347 15.3766 48.7974 12 45.8897 12 40.3457 12 33.6623 16.6 31.1919 19.3 30.3192 19.2799 30.0116 19.2699 29.7021 19.2699 29.3925 19.2699 23.9324 22.9983 18.2696 27.942 16.2216 33.7241 13.8151 39.85 15.0083 44.3263 19.411 45.7136 20.775 46.8545 22.4316 47.7301 24.3478 48.9062 23.3802 50.3557 22.846 51.8837 22.846 54.8863 22.846 58.2659 25.1097 58.8681 30.0606 61.6797 30.7046 67.6206 32.9554 67.6206 40.4226 67.6206 43.4043 66.6797 45.8667 64.8231 47.742L63.3896 46.341C64.8633 44.8532 65.6102 42.862 65.6102 40.4226 65.6102 33.891 60.1055 32.2664 57.7372 31.8719 57.4678 31.827 57.2295 31.6752 57.0757 31.4515 56.926 31.2359 56.8687 30.9712 56.9139 30.7146 56.5852 26.6605 54.1606 24.8431 51.8837 24.8431 50.4472 24.8431 49.1002 25.5381 48.1874 26.7504 47.9653 27.0439 47.6044 27.1937 47.2345 27.1398 46.8696 27.0859 46.563 26.8362 46.4373 26.4917 45.614 24.226 44.4279 22.3208 42.912 20.8309 39.0328 17.0154 33.7281 15.9809 28.7171 18.0649 24.5463 19.7924 21.2803 24.7672 21.2803 29.3925" id="Amazon-CloudWatch_Icon_64_Squid" fill="#FFFFFF"/></g></svg>