<svg width="48" height="48" viewBox="0 0 48 48" xmlns="http://www.w3.org/2000/svg" xmlns:xlink="http://www.w3.org/1999/xlink" overflow="hidden"><g id="Icon-Resource/Containers/Res_Amazon-Elastic-Container-Service_Container-3_48" stroke="none" stroke-width="1" fill="none" fill-rule="evenodd"><path d="M26.112 31.6134 28.861 31.6134 28.861 29.7384 26.112 29.7384 26.112 31.6134ZM17.117 23.9904 30.858 23.9904 30.858 16.3714 17.117 16.3714 17.117 23.9904ZM17.993 31.8624 29.984 31.8624 29.984 29.4894 17.993 29.4894 17.993 31.8624ZM16.117 25.9914 22.989 25.9914 22.989 27.4894 16.992 27.4894C16.44 27.4894 15.992 27.9364 15.992 28.4894L15.992 32.8624C15.992 33.4144 16.44 33.8624 16.992 33.8624L30.984 33.8624C31.536 33.8624 31.984 33.4144 31.984 32.8624L31.984 28.4894C31.984 27.9364 31.536 27.4894 30.984 27.4894L24.989 27.4894 24.989 25.9914 31.859 25.9914C32.411 25.9914 32.859 25.5434 32.859 24.9914L32.859 15.3714C32.859 14.8194 32.411 14.3714 31.859 14.3714L16.117 14.3714C15.565 14.3714 15.117 14.8194 15.117 15.3714L15.117 24.9914C15.117 25.5434 15.565 25.9914 16.117 25.9914L16.117 25.9914ZM39.603 33.7364 41.603 33.7364 41.603 14.4984 39.603 14.4984 39.603 33.7364ZM34.357 33.7364 36.357 33.7364 36.357 14.4984 34.357 14.4984 34.357 33.7364ZM11.62 33.7364 13.62 33.7364 13.62 14.4984 11.62 14.4984 11.62 33.7364ZM6.373 33.7364 8.373 33.7364 8.373 14.4984 6.373 14.4984 6.373 33.7364ZM4 36.2344 43.976 36.2344 43.976 12.0004 4 12.0004 4 36.2344ZM44.976 9.9994 3 9.9994C2.448 9.9994 2 10.4474 2 10.9994L2 37.2344C2 37.7864 2.448 38.2344 3 38.2344L44.976 38.2344C45.529 38.2344 45.976 37.7864 45.976 37.2344L45.976 10.9994C45.976 10.4474 45.529 9.9994 44.976 9.9994L44.976 9.9994Z" id="Amazon-Elastic-Container-Service-Container-3_Resource-Icon_light-bg" fill="#ED7100"/></g></svg>