<svg width="80" height="80" viewBox="0 0 80 80" xmlns="http://www.w3.org/2000/svg" xmlns:xlink="http://www.w3.org/1999/xlink" overflow="hidden"><g id="Icon-Architecture/64/Arch_Amazon-Aurora_64" stroke="none" stroke-width="1" fill="none" fill-rule="evenodd"><g id="Icon-Architecture-BG/64/Database" fill="#C925D1"><rect x="0" y="0" width="80" height="80" id="Rectangle"/></g><path d="M45.0911 18.0451 42.0831 18.0451 42.0831 16.0271 45.0911 16.0271 45.0911 13 47.0965 13 47.0965 16.0271 50.1045 16.0271 50.1045 18.0451 47.0965 18.0451 47.0965 21.0722 45.0911 21.0722 45.0911 18.0451ZM57.1233 29.1444 54.1152 29.1444 54.1152 27.1264 57.1233 27.1264 57.1233 24.0993 59.1286 24.0993 59.1286 27.1264 62.1367 27.1264 62.1367 29.1444 59.1286 29.1444 59.1286 32.1715 57.1233 32.1715 57.1233 29.1444ZM51.9013 61.0336C49.9862 56.1681 45.5664 51.7203 40.7295 49.7921 45.5664 47.8648 49.9862 43.4171 51.9013 38.5505 53.8164 43.4171 58.2362 47.8648 63.0722 49.7921 58.2362 51.7203 53.8164 56.1681 51.9013 61.0336L51.9013 61.0336ZM67.9973 48.7831C60.9445 48.7831 52.904 40.6917 52.904 33.5942 52.904 33.0372 52.4558 32.5852 51.9013 32.5852 51.3468 32.5852 50.8986 33.0372 50.8986 33.5942 50.8986 40.6917 42.8571 48.7831 35.8043 48.7831 35.2508 48.7831 34.8016 49.2351 34.8016 49.7921 34.8016 50.3501 35.2508 50.8011 35.8043 50.8011 42.8571 50.8011 50.8986 58.8925 50.8986 65.991 50.8986 66.548 51.3468 67 51.9013 67 52.4558 67 52.904 66.548 52.904 65.991 52.904 58.8925 60.9445 50.8011 67.9973 50.8011 68.5508 50.8011 69 50.3501 69 49.7921 69 49.2351 68.5508 48.7831 67.9973 48.7831L67.9973 48.7831ZM13.0054 28.9032C15.9252 31.0404 21.5983 32.1715 27.0429 32.1715 32.4874 32.1715 38.1606 31.0404 41.0804 28.9032L41.0804 38.5677C39.6355 40.501 34.3223 42.406 27.2434 42.406 19.0946 42.406 13.0054 39.8431 13.0054 37.5516L13.0054 28.9032ZM27.0429 21.0722C35.7401 21.0722 41.0804 23.7169 41.0804 25.6128 41.0804 27.5088 35.7401 30.1534 27.0429 30.1534 18.3456 30.1534 13.0054 27.5088 13.0054 25.6128 13.0054 23.7169 18.3456 21.0722 27.0429 21.0722L27.0429 21.0722ZM41.0804 58.9419C41.0804 61.2677 35.0753 63.87 27.0379 63.87 19.0064 63.87 13.0054 61.2677 13.0054 58.9419L13.0054 52.4943C15.9613 54.7504 21.7477 55.9451 27.3006 55.9451 31.1619 55.9451 34.8959 55.3962 37.8106 54.3993L37.1669 52.4882C34.4537 53.4155 30.9493 53.9271 27.3006 53.9271 19.1187 53.9271 13.0054 51.3641 13.0054 49.0727L13.0054 40.9793C15.9532 43.2314 21.7146 44.4241 27.2434 44.4241 33.1672 44.4241 38.2478 43.1961 41.0804 41.2517L41.0804 44.2798 43.0857 44.2798 43.0857 25.6128C43.0857 21.3527 34.8207 19.0542 27.0429 19.0542 19.5819 19.0542 11.6918 21.1751 11.0622 25.1083L11 25.1083 11 58.9419C11 63.4533 19.2631 65.8881 27.0379 65.8881 34.8176 65.8881 43.0857 63.4533 43.0857 58.9419L43.0857 55.3791 41.0804 55.3791 41.0804 58.9419Z" id="Amazon-Aurora_Icon_64_Squid" fill="#FFFFFF"/></g></svg>