<svg width="80" height="80" viewBox="0 0 80 80" xmlns="http://www.w3.org/2000/svg" xmlns:xlink="http://www.w3.org/1999/xlink" overflow="hidden"><g id="Icon-Architecture/64/Arch_AWS-Directory-Service_64" stroke="none" stroke-width="1" fill="none" fill-rule="evenodd"><g id="Icon-Architecture-BG/64/Security-Identity-Compliance" fill="#DD344C"><rect x="0" y="0" width="80" height="80" id="Rectangle"/></g><path d="M34 51 37 51 37 49 34 49 34 51ZM25 51 32 51 32 49 25 49 25 51ZM25 46 36 46 36 44 25 44 25 46ZM65 58 65 39 63 39 63 53C63 53.552 62.553 54 62 54L42 54C41.447 54 41 53.552 41 53L41 39 22 39 22 58 65 58ZM44.074 52 59.918 52C59.48 48.983 57.178 46.284 54.152 45.325 53.455 45.619 52.705 45.779 51.951 45.779 51.197 45.779 50.451 45.622 49.756 45.332 46.72 46.299 44.482 48.951 44.074 52L44.074 52ZM53.709 43.33C54.872 42.699 55.594 41.494 55.594 40.185 55.594 38.198 53.96 36.581 51.951 36.581 49.943 36.581 48.31 38.198 48.31 40.185 48.31 41.493 49.029 42.698 50.187 43.331 51.268 43.918 52.613 43.926 53.709 43.33L53.709 43.33ZM61 33 43 33 43 48.75C44.001 46.696 45.696 44.987 47.808 43.966 46.864 42.948 46.31 41.61 46.31 40.185 46.31 37.095 48.841 34.581 51.951 34.581 55.062 34.581 57.594 37.095 57.594 40.185 57.594 41.604 57.042 42.937 56.104 43.952 58.258 44.979 59.985 46.708 61 48.787L61 33ZM22 28 22 37 41 37 41 32C41 31.448 41.447 31 42 31L62 31C62.553 31 63 31.448 63 32L63 37 65 37 65 28 22 28ZM67 27 67 59C67 59.552 66.553 60 66 60L21 60C20.447 60 20 59.552 20 59L20 27C20 26.448 20.447 26 21 26L66 26C66.553 26 67 26.448 67 27L67 27ZM16 52 18 52 18 54 15 54C14.447 54 14 53.552 14 53L14 21C14 20.448 14.447 20 15 20L61 20C61.553 20 62 20.448 62 21L62 24 60 24 60 22 16 22 16 52Z" id="AWS-Directory-Service_Icon_64_Squid" fill="#FFFFFF"/></g></svg>