<svg width="48" height="48" viewBox="0 0 48 48" xmlns="http://www.w3.org/2000/svg" xmlns:xlink="http://www.w3.org/1999/xlink" overflow="hidden"><g id="Icon-Resource/IoT/Res_AWS-IoT_Thing_Lightbulb_48" stroke="none" stroke-width="1" fill="none" fill-rule="evenodd"><path d="M25.9241 36.0526 25.9241 36.1566 21.9861 36.1566 21.9861 36.0526C21.9861 35.9896 21.9901 35.9586 21.9781 35.9726 22.2231 35.6246 22.2511 35.2096 22.0011 34.8646 21.9971 34.8536 21.9861 34.8106 21.9861 34.7456L21.9861 34.6406 25.9241 34.6406 25.9241 34.7456C25.9241 34.7986 25.9081 34.8586 25.9311 34.8236 25.6861 35.1696 25.6601 35.5866 25.9091 35.9326 25.9131 35.9436 25.9241 35.9866 25.9241 36.0526ZM21.3611 32.6406C20.5641 32.6406 19.9861 33.3966 19.9861 34.4376L19.9861 34.7456C19.9861 34.9746 20.0161 35.1956 20.0731 35.3986 20.0161 35.6026 19.9861 35.8246 19.9861 36.0526L19.9861 36.3616C19.9861 37.4016 20.5641 38.1566 21.3611 38.1566L26.5481 38.1566C27.3451 38.1566 27.9241 37.4016 27.9241 36.3616L27.9241 36.0526C27.9241 35.8246 27.8931 35.6026 27.8371 35.3986 27.8931 35.1956 27.9241 34.9746 27.9241 34.7456L27.9241 34.4376C27.9241 33.3966 27.3451 32.6406 26.5481 32.6406L21.3611 32.6406ZM26.4881 27.7316 26.4881 30.0036 24.9721 30.0036 24.9721 24.0936 25.7291 24.0936 25.7291 22.0936 22.2151 22.0936 22.2151 24.0936 22.9721 24.0936 22.9721 30.0036 21.4571 30.0036 21.4571 27.7316C21.4571 27.3426 21.2311 26.9896 20.8791 26.8256 18.2541 25.6036 16.6231 23.0686 16.6231 20.2086 16.6231 16.1566 19.9201 12.8596 23.9721 12.8596 28.0251 12.8596 31.3221 16.1566 31.3221 20.2086 31.3221 23.0686 29.6911 25.6036 27.0661 26.8256 26.7141 26.9896 26.4881 27.3426 26.4881 27.7316ZM14.6231 20.2086C14.6231 23.6396 16.4591 26.7026 19.4571 28.3456L19.4571 31.0036C19.4571 31.5566 19.9041 32.0036 20.4571 32.0036L27.4881 32.0036C28.0411 32.0036 28.4881 31.5566 28.4881 31.0036L28.4881 28.3456C31.4861 26.7016 33.3221 23.6396 33.3221 20.2086 33.3221 15.0536 29.1281 10.8596 23.9721 10.8596 18.8171 10.8596 14.6231 15.0536 14.6231 20.2086ZM39.6701 38.5366C39.6701 39.1626 39.1611 39.6716 38.5351 39.6716L9.4091 39.6716C8.7831 39.6716 8.2741 39.1626 8.2741 38.5366L8.2741 9.4236C8.2741 8.7976 8.7831 8.2886 9.4091 8.2886L38.5351 8.2886C39.1611 8.2886 39.6701 8.7976 39.6701 9.4236L39.6701 38.5366ZM45.9451 14.4256 45.9451 12.4256 41.6701 12.4256 41.6701 9.4236C41.6701 7.6956 40.2631 6.2886 38.5351 6.2886L35.5191 6.2886 35.5191 1.9996 33.5191 1.9996 33.5191 6.2886 30.2461 6.2886 30.2461 1.9996 28.2461 1.9996 28.2461 6.2886 24.9721 6.2886 24.9721 1.9996 22.9721 1.9996 22.9721 6.2886 19.6991 6.2886 19.6991 1.9996 17.6991 1.9996 17.6991 6.2886 14.4261 6.2886 14.4261 1.9996 12.4261 1.9996 12.4261 6.2886 9.4091 6.2886C7.6801 6.2886 6.2741 7.6956 6.2741 9.4236L6.2741 12.4256 2.0001 12.4256 2.0001 14.4256 6.2741 14.4256 6.2741 17.6996 2.0001 17.6996 2.0001 19.6996 6.2741 19.6996 6.2741 22.9726 2.0001 22.9726 2.0001 24.9726 6.2741 24.9726 6.2741 28.2456 2.0001 28.2456 2.0001 30.2456 6.2741 30.2456 6.2741 33.5196 2.0001 33.5196 2.0001 35.5196 6.2741 35.5196 6.2741 38.5366C6.2741 40.2656 7.6801 41.6716 9.4091 41.6716L12.4261 41.6716 12.4261 45.9456 14.4261 45.9456 14.4261 41.6716 17.6991 41.6716 17.6991 45.9456 19.6991 45.9456 19.6991 41.6716 22.9721 41.6716 22.9721 45.9456 24.9721 45.9456 24.9721 41.6716 28.2461 41.6716 28.2461 45.9456 30.2461 45.9456 30.2461 41.6716 33.5191 41.6716 33.5191 45.9456 35.5191 45.9456 35.5191 41.6716 38.5351 41.6716C40.2631 41.6716 41.6701 40.2656 41.6701 38.5366L41.6701 35.5196 45.9451 35.5196 45.9451 33.5196 41.6701 33.5196 41.6701 30.2456 45.9451 30.2456 45.9451 28.2456 41.6701 28.2456 41.6701 24.9726 45.9451 24.9726 45.9451 22.9726 41.6701 22.9726 41.6701 19.6996 45.9451 19.6996 45.9451 17.6996 41.6701 17.6996 41.6701 14.4256 45.9451 14.4256Z" id="Amazon-IOT-RESOURCES-IoT-thing-lightbulb_Resource-Icon_light-bg" fill="#7AA116"/></g></svg>