<svg width="48" height="48" viewBox="0 0 48 48" xmlns="http://www.w3.org/2000/svg" xmlns:xlink="http://www.w3.org/1999/xlink" overflow="hidden"><g id="Icon-Resource/Management-Governance/Res_AWS-Systems-Manager_Run-Command_48" stroke="none" stroke-width="1" fill="none" fill-rule="evenodd"><path d="M2 27.6299 10.815 27.6299 10.815 25.6299 2 25.6299 2 27.6299ZM2 21.4599 12.578 21.4599 12.578 19.4599 2 19.4599 2 21.4599ZM2 15.2889 14.341 15.2889 14.341 13.2889 2 13.2889 2 15.2889ZM34.715 25.6299 20.91 25.6299 22.174 20.5779 35.979 20.5779 34.715 25.6299ZM20.611 18.5779 18.35 27.6299 36.277 27.6299 38.539 18.5779 20.611 18.5779ZM38.279 36.7729C38.24 36.9559 38.076 37.0889 37.889 37.0889L13.424 37.0889C13.258 37.0889 13.158 36.9959 13.113 36.9409 13.069 36.8859 12.999 36.7689 13.033 36.6069L17.566 15.2399 42.846 15.2399 38.279 36.7729ZM19 9.9999 43.466 9.9999C43.631 9.9999 43.731 10.0929 43.776 10.1479 43.82 10.2029 43.891 10.3189 43.856 10.4829L43.271 13.2399 17.99 13.2399 18.611 10.3169C18.65 10.1329 18.813 9.9999 19 9.9999L19 9.9999ZM45.329 8.8889C44.872 8.3239 44.193 7.9999 43.466 7.9999L19 7.9999C17.873 7.9999 16.887 8.7999 16.653 9.9019L11.076 36.1929C10.926 36.9029 11.102 37.6349 11.56 38.1999 12.017 38.7649 12.696 39.0889 13.424 39.0889L37.889 39.0889C39.015 39.0889 40.001 38.2899 40.236 37.1879L45.813 10.8969C45.963 10.1859 45.787 9.4529 45.329 8.8889L45.329 8.8889Z" id="AWS-System-Manager_run-command_Resource-Icon_light-bg" fill="#E7157B"/></g></svg>