<svg width="48" height="48" viewBox="0 0 48 48" xmlns="http://www.w3.org/2000/svg" xmlns:xlink="http://www.w3.org/1999/xlink" overflow="hidden"><g id="Icon-Resource/Compute/Res_Amazon-EC2_Instances_48" stroke="none" stroke-width="1" fill="none" fill-rule="evenodd"><path d="M4.131 22.96 9.986 22.96 9.986 24.96 4.131 24.96C2.956 24.96 2 24.004 2 22.829L2 4.131C2 2.956 2.956 2 4.131 2L22.829 2C24.004 2 24.96 2.956 24.96 4.131L24.96 10.86 22.96 10.86 22.96 4.131C22.96 4.059 22.902 4 22.829 4L4.131 4C4.059 4 4 4.059 4 4.131L4 22.829C4 22.901 4.059 22.96 4.131 22.96L4.131 22.96ZM13.737 33.44 21.279 33.44 21.279 35.44 13.737 35.44C12.563 35.44 11.607 34.484 11.607 33.31L11.607 14.61C11.607 13.436 12.563 12.48 13.737 12.48L32.436 12.48C33.61 12.48 34.567 13.436 34.567 14.61L34.567 21.34 32.567 21.34 32.567 14.61C32.567 14.538 32.508 14.48 32.436 14.48L13.737 14.48C13.665 14.48 13.607 14.538 13.607 14.61L13.607 33.31C13.607 33.382 13.665 33.44 13.737 33.44L13.737 33.44ZM43.85 43.92 24.96 43.85 24.96 25.091C24.96 25.019 25.019 24.96 25.091 24.96L43.789 24.96C43.861 24.96 43.92 25.019 43.92 25.091L43.85 43.92ZM43.789 22.96 25.091 22.96C23.916 22.96 22.96 23.916 22.96 25.091L22.96 43.85C22.96 44.991 23.889 45.92 25.03 45.92L43.85 45.92C44.991 45.92 45.92 44.991 45.92 43.85L45.92 25.091C45.92 23.916 44.964 22.96 43.789 22.96L43.789 22.96Z" id="Amazon-EC2-Instances_Resource-Icon_light-bg" fill="#ED7100"/></g></svg>