<svg width="48" height="48" viewBox="0 0 48 48" xmlns="http://www.w3.org/2000/svg" xmlns:xlink="http://www.w3.org/1999/xlink" overflow="hidden"><g id="Icon-Resource/Management-Governance/Res_AWS-License-Manager_License-Blending_48" stroke="none" stroke-width="1" fill="none" fill-rule="evenodd"><path d="M34.021 38 17.021 38 17.021 40 34.097 40C35.158 40 36.021 39.137 36.021 38.076L36.021 35 34.021 35 34.021 38ZM27.021 4.746 27.021 11 33.289 11 27.021 4.746ZM11.021 22 9.021 22 9.021 3.924C9.021 2.863 9.884 2 10.945 2L26.688 2C26.953 2 27.207 2.105 27.394 2.292L35.727 10.608C35.916 10.796 36.021 11.05 36.021 11.316L36.021 15 34.021 15 34.021 13 26.021 13C25.468 13 25.021 12.552 25.021 12L25.021 4 11.021 4 11.021 22ZM45.144 21.389 43.355 22.283C43.791 23.155 44.021 24.115 44.021 25.061 44.021 28.335 41.372 31 38.116 31L28.138 31 29.951 29.187 28.537 27.773 25.11 31.2C24.922 31.387 24.817 31.642 24.817 31.907 24.817 32.172 24.922 32.426 25.11 32.614L28.537 36.04 29.951 34.625 28.325 33 38.116 33C42.475 33 46.021 29.438 46.021 25.061 46.021 23.807 45.717 22.537 45.144 21.389L45.144 21.389ZM30.578 17C26.218 17 22.672 20.562 22.672 24.939 22.672 26.192 22.975 27.462 23.548 28.61L25.337 27.718C24.903 26.845 24.672 25.884 24.672 24.939 24.672 21.665 27.322 19 30.578 19L39.809 19 38.132 20.677 39.546 22.091 42.972 18.665C43.363 18.274 43.363 17.641 42.972 17.25L39.546 13.824 38.132 15.238 39.894 17 30.578 17ZM28.054 44 16.021 44 16.021 46 28.054 46C29.139 46 30.021 45.118 30.021 44.033L30.021 42 28.021 42 28.054 44ZM3.988 8 7.021 8 7.021 6 3.988 6C2.903 6 2.021 6.882 2.021 7.967L2.021 24 4.021 24 3.988 8ZM11.18 31.618C11.18 30.879 10.58 30.279 9.841 30.279 9.103 30.279 8.502 30.879 8.502 31.618 8.502 32.356 9.103 32.957 9.841 32.957 10.58 32.957 11.18 32.356 11.18 31.618L11.18 31.618ZM13.18 31.618C13.18 33.459 11.682 34.957 9.841 34.957 8 34.957 6.502 33.459 6.502 31.618 6.502 29.777 8 28.279 9.841 28.279 11.682 28.279 13.18 29.777 13.18 31.618L13.18 31.618ZM15.711 31.633C15.711 31.356 15.515 31.117 15.245 31.063 14.875 30.988 14.578 30.712 14.477 30.349 14.371 29.964 14.218 29.598 14.025 29.26 13.843 28.942 13.849 28.551 14.042 28.239 14.1 28.144 14.129 28.044 14.129 27.941 14.129 27.519 13.642 27.207 13.25 27.447 12.939 27.639 12.547 27.645 12.23 27.464 11.89 27.27 11.524 27.118 11.141 27.012 10.777 26.912 10.5 26.615 10.426 26.244 10.373 25.974 10.132 25.777 9.856 25.777 9.58 25.777 9.34 25.974 9.286 26.245 9.211 26.615 8.935 26.912 8.571 27.012 8.189 27.118 7.824 27.27 7.483 27.464 7.164 27.645 6.773 27.639 6.463 27.448 6.069 27.207 5.583 27.519 5.583 27.941 5.583 28.044 5.612 28.144 5.67 28.239 5.862 28.55 5.869 28.941 5.688 29.258 5.494 29.598 5.342 29.965 5.236 30.349 5.135 30.712 4.838 30.989 4.468 31.063 4.197 31.117 4 31.356 4 31.633 4 31.909 4.197 32.149 4.468 32.203 4.838 32.277 5.135 32.553 5.236 32.917 5.342 33.301 5.494 33.667 5.688 34.007 5.869 34.325 5.862 34.715 5.67 35.026 5.612 35.122 5.583 35.222 5.583 35.324 5.583 35.748 6.068 36.061 6.463 35.818 6.624 35.719 6.805 35.67 6.987 35.67 7.158 35.67 7.329 35.714 7.483 35.802 7.824 35.996 8.189 36.148 8.571 36.253 8.935 36.354 9.211 36.65 9.286 37.021 9.34 37.292 9.58 37.488 9.856 37.488 10.132 37.488 10.373 37.292 10.426 37.022 10.5 36.651 10.777 36.354 11.141 36.253 11.524 36.148 11.89 35.996 12.23 35.802 12.547 35.62 12.939 35.626 13.25 35.819 13.643 36.059 14.129 35.748 14.129 35.324 14.129 35.222 14.1 35.122 14.042 35.026 13.849 34.715 13.843 34.323 14.025 34.006 14.218 33.667 14.371 33.301 14.477 32.917 14.578 32.553 14.875 32.277 15.245 32.203 15.515 32.149 15.711 31.909 15.711 31.633L15.711 31.633ZM16.129 35.324C16.129 36.748 14.971 37.906 13.547 37.906 13.279 37.906 13.013 37.863 12.757 37.78 12.572 37.868 12.38 37.947 12.186 38.018 11.766 38.897 10.866 39.488 9.856 39.488 8.847 39.488 7.948 38.897 7.526 38.018 7.332 37.947 7.141 37.868 6.955 37.78 6.7 37.863 6.433 37.906 6.165 37.906 4.741 37.906 3.583 36.748 3.583 35.324 3.583 35.056 3.625 34.789 3.709 34.534 3.622 34.348 3.542 34.157 3.472 33.963 2.592 33.542 2 32.643 2 31.633 2 30.623 2.592 29.723 3.472 29.303 3.542 29.108 3.622 28.918 3.709 28.732 3.625 28.477 3.583 28.21 3.583 27.941 3.583 26.518 4.741 25.359 6.165 25.359 6.433 25.359 6.7 25.402 6.955 25.486 7.141 25.398 7.332 25.319 7.526 25.248 7.948 24.369 8.847 23.777 9.856 23.777 10.866 23.777 11.766 24.369 12.186 25.248 12.38 25.319 12.572 25.398 12.757 25.486 13.013 25.402 13.279 25.359 13.547 25.359 14.971 25.359 16.129 26.518 16.129 27.941 16.129 28.209 16.086 28.476 16.002 28.731 16.09 28.917 16.17 29.108 16.241 29.303 17.121 29.724 17.711 30.624 17.711 31.633 17.711 32.642 17.121 33.542 16.241 33.963 16.17 34.158 16.09 34.349 16.002 34.535 16.086 34.79 16.129 35.056 16.129 35.324L16.129 35.324ZM12.021 39 14.021 39 14.021 45C14.021 45.384 13.8 45.735 13.455 45.901 13.317 45.967 13.168 46 13.021 46 12.798 46 12.577 45.925 12.396 45.781L9.521 43.481 6.646 45.781C6.345 46.021 5.936 46.068 5.587 45.901 5.242 45.735 5.021 45.384 5.021 45L5.021 39 7.021 39 7.021 42.919 8.896 41.419C9.261 41.127 9.781 41.127 10.146 41.419L12.021 42.919 12.021 39Z" id="Fill-1" fill="#E7157B"/></g></svg>