<svg width="80" height="80" viewBox="0 0 80 80" xmlns="http://www.w3.org/2000/svg" xmlns:xlink="http://www.w3.org/1999/xlink" overflow="hidden"><g id="Icon-Architecture/64/Arch_Amazon-Chime_64" stroke="none" stroke-width="1" fill="none" fill-rule="evenodd"><g id="Icon-Architecture-BG/64/Business-Applications" fill="#DD344C"><rect x="0" y="0" width="80" height="80" id="Rectangle"/></g><path d="M66 46.001 51.125 41.702 51.125 36.423 66 40.75 66 46.001ZM57.852 58.918 54.137 62.632 46.448 48.851 50.184 45.115 57.852 58.918ZM44.5 47.971C44.194 48.276 44.121 48.741 44.313 49.125L37.546 49.125C37.301 49.125 37.072 49.214 36.895 49.365L32.029 44.5C31.837 44.307 31.581 44.207 31.322 44.207 31.17 44.207 31.017 44.241 30.875 44.312L30.875 37.545C30.875 37.3 30.786 37.071 30.635 36.894L35.5 32.028C35.806 31.723 35.879 31.258 35.688 30.875L42.454 30.875C42.699 30.875 42.928 30.785 43.105 30.634L47.971 35.5C48.276 35.806 48.743 35.879 49.125 35.687L49.125 42.454C49.125 42.699 49.214 42.928 49.365 43.105L44.5 47.971ZM39.249 66 33.999 66 38.298 51.125 43.577 51.125 39.249 66ZM21.082 57.851 17.366 54.136 31.149 46.448 34.884 50.183 21.082 57.851ZM14 39.249 14 33.998 28.875 38.297 28.875 43.576 14 39.249ZM22.148 21.082 25.863 17.367 33.552 31.148 29.816 34.884 22.148 21.082ZM40.751 14 46.001 14 41.702 28.875 36.423 28.875 40.751 14ZM58.918 22.148 62.634 25.863 48.851 33.551 45.116 29.816 58.918 22.148ZM67.279 39.04 51.399 34.419 64.764 26.965C65.037 26.813 65.224 26.54 65.267 26.23 65.31 25.919 65.205 25.606 64.983 25.385L59.799 20.201C59.483 19.885 58.997 19.816 58.606 20.034L43.993 28.152 48.292 13.277C48.379 12.975 48.319 12.65 48.13 12.398 47.941 12.147 47.646 12 47.331 12L40 12C39.556 12 39.164 12.293 39.04 12.72L34.42 28.6 26.965 15.236C26.812 14.963 26.54 14.776 26.229 14.733 25.923 14.69 25.606 14.795 25.385 15.017L20.201 20.201C19.886 20.516 19.817 21.003 20.034 21.394L28.151 36.006 13.277 31.708C12.977 31.619 12.65 31.679 12.399 31.869 12.147 32.058 12 32.354 12 32.668L12 40C12 40.444 12.294 40.835 12.721 40.959L28.601 45.58 15.236 53.034C14.963 53.187 14.776 53.459 14.733 53.77 14.69 54.08 14.795 54.393 15.017 54.614L20.201 59.798C20.518 60.114 21.004 60.182 21.394 59.965L36.007 51.847 31.708 66.722C31.621 67.024 31.681 67.349 31.87 67.601 32.059 67.852 32.354 68 32.669 68L40 68C40.444 68 40.836 67.706 40.96 67.279L45.58 51.399 53.035 64.763C53.187 65.036 53.46 65.223 53.771 65.266 54.083 65.312 54.394 65.205 54.615 64.982L59.799 59.798C60.114 59.483 60.183 58.996 59.966 58.605L51.849 43.993 66.723 48.292C67.022 48.379 67.35 48.319 67.601 48.13 67.853 47.941 68 47.646 68 47.331L68 40C68 39.555 67.706 39.164 67.279 39.04L67.279 39.04Z" id="Amazon-Chime_Icon_64_Squid" fill="#FFFFFF"/></g></svg>