<svg width="48" height="48" viewBox="0 0 48 48" xmlns="http://www.w3.org/2000/svg" xmlns:xlink="http://www.w3.org/1999/xlink" overflow="hidden"><g id="Icon-Resource/Management-Governance/Res_AWS-Systems-Manager_Distributor_48" stroke="none" stroke-width="1" fill="none" fill-rule="evenodd"><path d="M19 18 29 18 29 16 19 16 19 18ZM23.375 13.781 18.375 9.781 19.625 8.219 23 10.919 23 2 25 2 25 10.919 28.375 8.219 29.625 9.781 24.625 13.781C24.442 13.927 24.221 14 24 14 23.779 14 23.558 13.927 23.375 13.781L23.375 13.781ZM29.061 31.174 25.391 24.933 39.623 17.335 43.591 24.114 29.061 31.174ZM39 36.526C37.558 37.472 31.153 40.581 25 43.436L25 28.215 27.805 32.984C27.99 33.299 28.323 33.478 28.668 33.478 28.815 33.478 28.964 33.445 29.105 33.377L39 28.569 39 36.526ZM9 28.501 18.891 33.375C19.033 33.444 19.184 33.478 19.332 33.478 19.677 33.478 20.01 33.3 20.195 32.984L23 28.215 23 43.383 9 36.394 9 28.501ZM8.372 17.333 22.609 24.933 18.942 31.17 4.411 24.011 8.372 17.333ZM45.863 24.036 40.863 15.495C40.771 15.338 40.636 15.23 40.488 15.146L40.496 15.132 33.496 11.132 32.504 12.868 37.933 15.97 24 23.408 10.178 16.029 16.447 12.895 15.553 11.105 7.553 15.105 7.561 15.121C7.394 15.204 7.241 15.318 7.14 15.49L2.14 23.92C1.998 24.16 1.962 24.448 2.041 24.715 2.121 24.982 2.308 25.204 2.558 25.327L7 27.516 7 37.013C7 37.392 7.214 37.738 7.554 37.907L23.554 45.895 23.558 45.886C23.697 45.956 23.847 46 24 46 24.143 46 24.285 45.97 24.418 45.908 41 38.274 41 37.754 41 36.967L41 27.597 45.438 25.441C45.688 25.319 45.876 25.098 45.957 24.832 46.038 24.565 46.004 24.277 45.863 24.036L45.863 24.036Z" id="Fill-1" fill="#E7157B"/></g></svg>