<svg width="48" height="48" viewBox="0 0 48 48" xmlns="http://www.w3.org/2000/svg" xmlns:xlink="http://www.w3.org/1999/xlink" overflow="hidden"><g id="Icon-Resource/Storage/Res_Amazon-Simple-Storage-Service_S3-Glacier-Instant-Retrieval_48" stroke="none" stroke-width="1" fill="none" fill-rule="evenodd"><path d="M8.17217 21.129C8.46317 21.129 8.73917 21.255 8.93017 21.476 9.11917 21.696 9.20417 21.988 9.16117 22.276 8.91317 23.939 8.66617 25.694 8.47017 27.191 9.10417 26.147 9.80917 24.967 10.4742 23.837L13.4282 18.128 11.0892 18.129C10.7742 18.129 10.4772 17.98 10.2872 17.727 10.0992 17.475 10.0402 17.148 10.1302 16.845L12.1202 10.129 5.52617 10.129 4.03517 21.129 8.17217 21.129ZM7.10317 32.129C6.81217 32.129 6.52517 31.997 6.33417 31.776 5.99317 31.38 5.82917 31.191 7.01317 23.129L3.77717 23.129C3.28717 23.129 2.76117 22.891 2.43617 22.523 2.11317 22.161 1.95717 21.672 2.01017 21.185L3.56317 9.764C3.65717 8.89 4.46817 8.129 5.33017 8.129L12.4322 8.129C13.0072 8.129 13.5472 8.411 13.8782 8.884 14.2042 9.352 14.2862 9.953 14.0982 10.493L12.4282 16.129 13.9402 16.129C14.4182 16.093 14.9292 16.315 15.2652 16.707 15.6032 17.099 15.7312 17.633 15.6172 18.171 15.5992 18.258 15.5682 18.343 15.5272 18.423L12.2232 24.805C7.91217 32.129 7.80517 32.129 7.10317 32.129L7.10317 32.129ZM45.8392 36.435 44.4432 35.003 42.2622 37.129 39.1142 37.129 40.7352 34.317 43.5912 33.552 43.0732 31.621 40.7562 32.241 40.1742 29.957 38.2362 30.45 38.9772 33.362 37.3972 36.103 35.7882 33.321 36.5542 30.462 34.6222 29.945 34.0012 32.262 31.7322 31.624 31.1912 33.549 34.0802 34.362 35.6812 37.129 32.4762 37.129 30.3602 35.012 28.9452 36.426 30.6422 38.123 28.9542 39.769 30.3512 41.2 32.4742 39.129 35.6492 39.129 34.0542 41.887 31.2022 42.651 31.7202 44.583 34.0372 43.962 34.6192 46.246 36.5572 45.753 35.8152 42.836 37.3972 40.101 39.0042 42.887 38.2392 45.741 40.1712 46.258 40.7922 43.941 43.0622 44.579 43.6032 42.654 40.7082 41.84 39.1452 39.129 42.3712 39.129 44.4342 41.191 45.8482 39.777 44.1512 38.081 45.8392 36.435ZM41.6042 24.429 41.3132 26.068C43.0692 26.508 43.8402 26.479 44.1402 26.423 43.9602 26.146 43.3782 25.502 41.6042 24.429L41.6042 24.429ZM8.23817 6.992 7.31717 5.218C11.1372 3.233 17.4752 2 23.8562 2 33.2552 2 43.7282 4.9 43.7282 9.063 43.7282 9.107 43.7252 9.151 43.7192 9.195L43.6672 9.583C43.6642 9.606 43.6582 9.628 43.6542 9.651L41.9512 22.317C44.6462 23.852 45.9722 25.069 46.1882 26.221 46.2872 26.756 46.1502 27.28 45.8002 27.696 45.3752 28.203 44.7082 28.455 43.7192 28.455 42.8012 28.456 41.6052 28.238 40.0662 27.806 35.3142 26.483 28.5282 23.408 25.1642 21.821 24.8572 22.013 24.4972 22.129 24.1102 22.129 23.0072 22.129 22.1102 21.232 22.1102 20.129 22.1102 19.026 23.0072 18.129 24.1102 18.129 25.1862 18.129 26.0602 18.985 26.1022 20.052 28.8372 21.338 34.8312 24.068 39.3812 25.512L39.8852 22.678 41.2842 12.269C37.6702 14.375 30.5942 15.466 23.8562 15.466 20.9972 15.466 18.0932 15.265 15.4572 14.884L15.7422 12.905C18.2862 13.272 21.0922 13.466 23.8562 13.466 34.1342 13.466 41.1182 11.025 41.6942 9.246L41.7262 9.011C41.5872 7.222 34.2582 4 23.8562 4 17.8682 4 11.7382 5.174 8.23817 6.992L8.23817 6.992ZM29.6652 43.631 29.9192 45.615C27.9252 45.87 25.8872 46 23.8602 46 17.8722 46 8.39717 44.629 8.26617 40.956L7.29717 33.75 9.27917 33.483 10.2562 40.745C10.2622 40.79 10.2652 40.834 10.2652 40.879 10.2652 41.832 15.4012 44 23.8602 44 25.8022 44 27.7552 43.876 29.6652 43.631L29.6652 43.631Z" id="Fill-1" fill="#7AA116"/></g></svg>