<svg width="48" height="48" viewBox="0 0 48 48" xmlns="http://www.w3.org/2000/svg" xmlns:xlink="http://www.w3.org/1999/xlink" overflow="hidden"><g id="Icon-Resource/IoT/Res_AWS-IoT_Fire_TV_48" stroke="none" stroke-width="1" fill="none" fill-rule="evenodd"><path d="M40.3984 18.7762C40.7964 19.2682 40.2934 22.6832 38.3464 24.3122 38.0464 24.5622 37.7614 24.4292 37.8944 24.0982 38.3324 23.0042 39.3134 20.5542 38.8484 19.9592 38.3844 19.3642 35.7794 19.6772 34.6094 19.8172 34.2544 19.8602 34.1994 19.5502 34.5194 19.3252 36.5974 17.8662 40.0024 18.2872 40.3984 18.7762ZM7.8824 19.0432C12.5524 21.7612 18.3284 23.3972 24.2924 23.3972 28.3174 23.3972 32.7404 22.5612 36.8104 20.8352 37.4234 20.5752 37.9384 21.2392 37.3374 21.6832 33.7074 24.3632 28.4444 25.7882 23.9124 25.7882 17.5594 25.7882 11.8384 23.4392 7.5104 19.5312 7.1704 19.2232 7.4734 18.8042 7.8824 19.0432ZM3.9994 32.5622 43.8884 32.5622 43.8884 11.0002 3.9994 11.0002 3.9994 32.5622ZM2.9994 9.0002C2.4474 9.0002 1.9994 9.4472 1.9994 10.0002L1.9994 33.5622C1.9994 34.1152 2.4474 34.5622 2.9994 34.5622L22.9444 34.5622 22.9444 37.7992 17.8354 37.7992 17.8354 39.7992 30.0524 39.7992 30.0524 37.7992 24.9444 37.7992 24.9444 34.5622 44.8884 34.5622C45.4414 34.5622 45.8884 34.1152 45.8884 33.5622L45.8884 10.0002C45.8884 9.4472 45.4414 9.0002 44.8884 9.0002L2.9994 9.0002Z" id="Amazon-IOT-RESOURCES-Fire-TV_Resource-Icon_light-bg" fill="#7AA116"/></g></svg>