<svg width="80" height="80" viewBox="0 0 80 80" xmlns="http://www.w3.org/2000/svg" xmlns:xlink="http://www.w3.org/1999/xlink" overflow="hidden"><g id="Icon-Architecture/64/Arch_AWS-Distro-for-OpenTelemetry_64" stroke="none" stroke-width="1" fill="none" fill-rule="evenodd"><g id="Icon-Architecture-BG/64/Application-Integration" fill="#E7157B"><rect x="0" y="0" width="80" height="80" id="Rectangle"/></g><g id="Icon-Service/64/AWS-Distro-for-OpenTelemetry_64" fill="#FFFFFF" transform="translate(12 16)"><path d="M54 2 51 2C48.373 2 48.042 3.678 48 4.061L48 14 46 14 46 5 39 5 39 21 47 21C47.524 21 47.96 21.406 47.997 21.929 48.03 22.265 48.333 24 51 24L54 24 54 2ZM2 15 16 15 16 11 2 11 2 15ZM56 1 56 25C56 25.552 55.553 26 55 26L51 26C48.014 26 46.669 24.354 46.201 23L38 23C37.447 23 37 22.552 37 22L37 21 34 21 34 19 37 19 37 7 19.801 7C18.27 7 18 7.649 18 11L18 15C18 18.351 18.27 19 19.801 19L25 19 25 20.94 19.801 20.94C16.93 20.94 16.229 19.061 16.057 17L2 17 2 21 0 21 0 5 2 5 2 9 16.057 9C16.229 6.939 16.93 5.06 19.801 5.06L37 5.06 37 4C37 3.448 37.447 3 38 3L46.201 3C46.669 1.646 48.014 0 51 0L55 0C55.553 0 56 0.448 56 1L56 1ZM43 35 53 35 53 37 43.738 37 40.313 48.139C40.185 48.559 39.796 48.845 39.357 48.845L39.353 48.845C38.911 48.843 38.523 48.552 38.398 48.129L29.261 17.29 21.7 42.739C21.58 43.142 21.222 43.427 20.803 43.453 20.384 43.488 19.992 43.24 19.825 42.855L15.491 32.93 12.945 40.326C12.807 40.729 12.427 41 12 41L1 41 1 39 11.287 39 14.436 29.853C14.569 29.463 14.929 29.196 15.341 29.18 15.77 29.168 16.132 29.401 16.297 29.778L20.562 39.546 28.303 13.489C28.429 13.065 28.819 12.774 29.262 12.774 29.705 12.774 30.095 13.065 30.221 13.49L39.375 44.385 42.044 35.706C42.173 35.287 42.561 35 43 35L43 35Z" id="Fill-1"/></g></g></svg>