<svg width="48" height="48" viewBox="0 0 48 48" xmlns="http://www.w3.org/2000/svg" xmlns:xlink="http://www.w3.org/1999/xlink" overflow="hidden"><g id="Icon-Resource/Management-Governance/Res_AWS-Systems-Manager_Incident-Manager_48" stroke="none" stroke-width="1" fill="none" fill-rule="evenodd"><path d="M22.8408 15.3737 21.7798 13.6787C23.4628 12.6257 25.3198 11.9467 27.2988 11.6627L27.5838 13.6417C25.8818 13.8867 24.2858 14.4697 22.8408 15.3737L22.8408 15.3737ZM21.5358 16.3157C18.8628 18.5277 17.2448 21.7727 17.0988 25.2217L15.1008 25.1367C15.2718 21.1237 17.1528 17.3467 20.2608 14.7747L21.5358 16.3157ZM22.8088 22.8617C22.4078 23.8577 22.2788 24.9507 22.4328 26.0207L20.4518 26.3057C20.2478 24.8867 20.4218 23.4377 20.9528 22.1157L22.8088 22.8617ZM23.3808 21.7677 21.7108 20.6667C22.9918 18.7227 25.0478 17.4167 27.3528 17.0847L27.6378 19.0647C25.8998 19.3147 24.3478 20.2997 23.3808 21.7677L23.3808 21.7677ZM22.9998 30.9937 8.9558 30.9937C7.7818 30.9937 6.9278 30.5497 6.3138 30.1627 4.7038 29.1517 1.9998 26.7847 1.9998 22.3007 1.9998 16.9847 5.5408 14.9527 7.7268 14.2047L7.6948 13.6767C7.6938 9.20671 10.6678 4.6357 14.6128 2.9857 19.2208 1.0447 24.1068 2.0047 27.6778 5.5617 28.7238 6.6007 29.5938 7.85271 30.2748 9.2977 31.6918 8.24471 33.5488 7.9097 35.2748 8.4817 37.5208 9.22371 38.9338 11.2547 39.1468 13.9867 41.4608 14.5707 45.9708 16.4697 45.9708 22.3697L45.9718 22.6707C45.9742 23.1217 45.9768 23.8627 45.9698 24.0187L43.9718 23.9307C43.9788 23.7847 43.9738 23.0987 43.9718 22.6807L43.9708 22.3697C43.9708 17.3537 39.7868 16.0927 37.9868 15.7827 37.7178 15.7367 37.4788 15.5817 37.3258 15.3537 37.1808 15.1357 37.1258 14.8707 37.1738 14.6147 37.1458 12.4427 36.2288 10.9027 34.6468 10.3807 33.2178 9.9067 31.6368 10.4167 30.7218 11.6507 30.5028 11.9477 30.1338 12.0957 29.7728 12.0447 29.4068 11.9907 29.1028 11.7397 28.9778 11.3927 28.3418 9.61971 27.4298 8.1347 26.2668 6.9797 24.8378 5.5567 20.9168 2.4957 15.3878 4.8297 12.1938 6.1657 9.6938 10.0247 9.6938 13.6167L9.7708 14.8767C9.7998 15.3567 9.4838 15.7887 9.0168 15.9067 7.1438 16.3787 3.9998 17.8377 3.9998 22.3007 3.9998 25.6457 5.8378 27.5017 7.3788 28.4697 7.9778 28.8477 8.4188 28.9937 8.9558 28.9937L22.9998 28.9937 22.9998 30.9937ZM35.7668 42.7787 37.7668 42.7787C37.7668 44.5407 36.3328 45.9747 34.5698 45.9747 32.8078 45.9747 31.3738 44.5407 31.3738 42.7787L33.3738 42.7787C33.3738 43.4377 33.9108 43.9747 34.5698 43.9747 35.2298 43.9747 35.7668 43.4377 35.7668 42.7787L35.7668 42.7787ZM43.9998 38.7727C43.9998 39.4457 43.4518 39.9937 42.7788 39.9937L26.2208 39.9937C25.5478 39.9937 24.9998 39.4457 24.9998 38.7727L24.9998 38.2147C24.9998 37.5417 25.5478 36.9937 26.2208 36.9937L42.7788 36.9937C43.4518 36.9937 43.9998 37.5417 43.9998 38.2147L43.9998 38.7727ZM27.9998 29.1547C27.9998 25.9357 29.5028 23.6077 32.0208 22.9297 32.4568 22.8117 32.7608 22.4157 32.7608 21.9637L32.7608 19.8787C32.7608 19.5327 32.9608 19.2027 33.3108 18.9757 34.0168 18.5167 34.6428 18.7297 34.9518 18.8977 35.4468 19.1657 35.7148 19.6117 35.7148 19.8947L35.7148 21.7627C35.7148 22.2297 36.0378 22.6347 36.4928 22.7377 39.2738 23.3697 40.9998 25.8757 40.9998 29.2797L40.9998 34.9937 27.9998 34.9937 27.9998 29.1547ZM42.9998 35.0157 42.9998 29.2797C42.9998 25.2047 40.9958 22.1077 37.7148 21.0057L37.7148 19.8947C37.7148 18.8177 37.0048 17.7357 35.9058 17.1397 34.7318 16.5027 33.3528 16.5607 32.2198 17.2987 31.3068 17.8937 30.7608 18.8577 30.7608 19.8787L30.7608 21.2387C27.7638 22.3827 25.9998 25.2847 25.9998 29.1547L25.9998 34.9937 26.2208 34.9937C24.4448 34.9937 22.9998 36.4387 22.9998 38.2147L22.9998 38.7727C22.9998 40.5487 24.4448 41.9937 26.2208 41.9937L42.7788 41.9937C44.5558 41.9937 45.9998 40.5487 45.9998 38.7727L45.9998 38.2147C45.9998 36.5147 44.6718 35.1317 42.9998 35.0157L42.9998 35.0157Z" id="Fill-1" fill="#E7157B"/></g></svg>