<svg width="48" height="48" viewBox="0 0 48 48" xmlns="http://www.w3.org/2000/svg" xmlns:xlink="http://www.w3.org/1999/xlink" overflow="hidden"><g id="Icon-Resource/Storage/Res_Amazon-Elastic-Block-Store_Multiple-Volumes_48" stroke="none" stroke-width="1" fill="none" fill-rule="evenodd"><path d="M7.917 7 2 14.836 30.607 14.699 25.475 7 7.917 7ZM8.912 9.001 24.405 9.001 26.883 12.716 6.032 12.817 8.912 9.001ZM29.17 9.736 29.17 11.736 33.143 11.736 35.198 14.456 31.596 14.441 31.589 16.441 39.227 16.473 34.139 9.736 29.17 9.736ZM38.275 12.515 38.275 14.515 41.222 14.515 42.458 16.151 40.146 16.141 40.139 18.141 46.487 18.166 46.487 18.165 42.219 12.515 38.275 12.515ZM2.379 41.101 30.281 41.101 30.281 15.6 2.379 15.6 2.379 41.101ZM4.38 39.101 28.281 39.101 28.281 17.6 4.38 17.6 4.38 39.101ZM31.646 17.213 31.646 19.213 36.918 19.213 36.918 36.709 31.646 36.709 31.646 38.71 38.918 38.71 38.918 17.213 31.646 17.213ZM40.235 18.948 40.235 20.949 44.197 20.949 44.197 34.375 40.235 34.375 40.235 36.375 46.197 36.375 46.197 18.948 40.235 18.948Z" id="AWS-Amazon-Elastic-Block-Store_Multiple-Volumes_Resource-Icon_light-bg" fill="#7AA116"/></g></svg>