<svg width="80" height="80" viewBox="0 0 80 80" xmlns="http://www.w3.org/2000/svg" xmlns:xlink="http://www.w3.org/1999/xlink" overflow="hidden"><g id="Icon-Architecture/64/Arch_AWS-Serverless-Application-Repository_64" stroke="none" stroke-width="1" fill="none" fill-rule="evenodd"><g id="Icon-Architecture-BG/64/Compute" fill="#ED7100"><rect x="0" y="0" width="80" height="80" id="Rectangle"/></g><path d="M57.28 55.9855 23.8 55.9855C19.384 55.9855 14.281 52.7099 14.02 48.0162 14.018 47.987 14.017 47.9568 14.015 47.9276L25.336 47.9276C25.745 47.9276 26.112 47.6767 26.264 47.295 26.416 46.9123 26.322 46.4761 26.026 46.1911 25.531 45.7166 25.259 45.0811 25.259 44.4032 25.259 43.0364 26.362 41.9254 27.718 41.9254 29.075 41.9254 30.178 43.0364 30.178 44.4032 30.178 45.0811 29.906 45.7166 29.411 46.1911 29.115 46.4761 29.021 46.9123 29.173 47.295 29.325 47.6767 29.692 47.9276 30.101 47.9276L41.33 47.9276C41.16 48.406 41.071 48.9136 41.071 49.4374 41.071 51.9142 43.072 53.9297 45.531 53.9297 47.99 53.9297 49.991 51.9142 49.991 49.4374 49.991 48.9136 49.902 48.406 49.732 47.9276L65.993 47.9276C65.757 55.1888 59.849 55.9855 57.28 55.9855L57.28 55.9855ZM20.659 39.0648C21.149 38.9429 21.472 38.4715 21.413 37.9669 21.351 37.4562 21.322 36.9506 21.322 36.4198 21.322 31.7975 24.612 26.8167 28.812 25.0802 31.204 24.0941 33.661 23.8061 36 24.1807L36 35.4528C36 35.8648 36.249 36.2365 36.63 36.3886 37.009 36.5406 37.444 36.446 37.725 36.1458 38.703 35.1094 40.474 35.1748 41.381 36.2546 41.857 36.8217 42.051 37.5459 41.926 38.2933 41.773 39.2048 41.081 39.9864 40.204 40.2372 39.294 40.4961 38.366 40.2453 37.725 39.5644 37.443 39.2642 37.008 39.1686 36.63 39.3217 36.249 39.4737 36 39.8454 36 40.2574L36 45.9131 31.92 45.9131C32.09 45.4346 32.178 44.927 32.178 44.4032 32.178 41.9264 30.177 39.9109 27.718 39.9109 25.259 39.9109 23.259 41.9264 23.259 44.4032 23.259 44.927 23.347 45.4346 23.517 45.9131L14.096 45.9131C14.737 41.2525 18.395 39.6268 20.659 39.0648L20.659 39.0648ZM38 24.6713C39.868 25.2958 41.619 26.3675 43.148 27.8652 44.641 29.3237 45.864 31.2798 46.686 33.5219 46.813 33.8674 47.116 34.1152 47.476 34.1696 47.84 34.226 48.199 34.0759 48.42 33.7848 49.343 32.5661 50.715 31.867 52.182 31.867 54.346 31.867 56.968 33.4655 57.232 37.9709 57.259 38.4272 57.588 38.809 58.033 38.8986 61.318 39.5634 65.173 41.3301 65.884 45.9131L47.914 45.9131C47.505 45.9131 47.137 46.1639 46.985 46.5456 46.834 46.9284 46.927 47.3645 47.223 47.6496 47.718 48.124 47.991 48.7595 47.991 49.4374 47.991 50.8042 46.887 51.9152 45.531 51.9152 44.175 51.9152 43.071 50.8042 43.071 49.4374 43.071 48.7595 43.343 48.124 43.839 47.6496 44.134 47.3645 44.228 46.9284 44.077 46.5456 43.925 46.1639 43.557 45.9131 43.148 45.9131L38 45.9131 38 42.0855C38.865 42.3978 39.822 42.4401 40.75 42.1752 42.38 41.7088 43.616 40.3168 43.898 38.6277 44.119 37.3051 43.758 35.9665 42.907 34.9532 41.725 33.5451 39.704 33.0042 38 33.6237L38 24.6713ZM68 46.9203C68 46.8478 67.992 46.7763 67.977 46.7088 67.689 41.7934 64.592 38.4111 59.162 37.0876 58.578 32.0977 55.301 29.8525 52.182 29.8525 50.629 29.8525 49.156 30.3944 47.966 31.3765 47.08 29.4527 45.912 27.7595 44.542 26.4199 40.043 22.0132 33.88 20.8155 28.053 23.2158 23.076 25.2746 19.322 30.9514 19.322 36.4198 19.322 36.734 19.331 37.0412 19.349 37.3454 16.717 38.1905 12.298 40.5334 12.014 46.7501 12.005 46.8055 12 46.8619 12 46.9203 12 46.9535 12.002 46.9858 12.005 47.019 12.002 47.1399 12 47.2618 12 47.3857 12 47.6455 12.01 47.8802 12.023 48.123 12.351 54.0315 18.378 58 23.8 58L57.28 58C59.795 58 68 57.2415 68 47.4743 68 47.3282 67.998 47.1832 67.993 47.0402 67.998 47.0009 68 46.9616 68 46.9203L68 46.9203Z" id="AWS-Serverless-Application-Repository_Icon_64_Squid" fill="#FFFFFF"/></g></svg>