<svg width="48" height="48" viewBox="0 0 48 48" xmlns="http://www.w3.org/2000/svg" xmlns:xlink="http://www.w3.org/1999/xlink" overflow="hidden"><g id="Icon-Resource/IoT/Res_AWS-IoT-SiteWise_Data-Streams_48" stroke="none" stroke-width="1" fill="none" fill-rule="evenodd"><path d="M36 2 36 7 20 7 20 14 22 14 22 9 36 9 36 12 46 12 46 2 36 2ZM38 10 44 10 44 4 38 4 38 10ZM10 16 10 18 26 18 26 38 28 38 28 16 10 16ZM7 18 9 18 9 16 7 16 7 18ZM4 18 6 18 6 16 4 16 4 18ZM38 28 46 28 46 20 38 20 38 28ZM40 26.001 44.001 26.001 44.001 22 40 22 40 26.001ZM22 46 24 46 24 21 22 21 22 46ZM30 23 30 46 31.999 46 31.999 25 37 25 37 23 30 23ZM2 35 12 35 12 25 2 25 2 35ZM4 33 10 33 10 27 4 27 4 33ZM13.999 29 13.999 31 18 31 18 46 20 46 20 29 13.999 29ZM26 46 28 46 28 40 26 40 26 46Z" id="Fill-1" fill="#7AA116"/></g></svg>