<svg width="48" height="48" viewBox="0 0 48 48" xmlns="http://www.w3.org/2000/svg" xmlns:xlink="http://www.w3.org/1999/xlink" overflow="hidden"><g id="Icon-Resource/Networking-and-Content-Delivery/Res_AWS-Cloud-Map_Namespace_48" stroke="none" stroke-width="1" fill="none" fill-rule="evenodd"><path d="M26.994 42.0192C25.467 42.8353 24.383 43.5892 23.994 43.8722 23.811 43.7393 23.464 43.4953 22.994 43.1922L22.994 37.9463 26.994 37.9463 26.994 42.0192ZM15.994 39.9712C15.4 39.8032 14.789 39.6592 14.163 39.5462 12.775 39.2962 11.518 38.9352 10.388 38.4863L15.994 32.8223 15.994 39.9712ZM4.698 33.6823C4.24 32.7122 4 31.6542 4 30.5243 4 27.7733 5.062 25.9433 6.091 24.1712 6.519 23.4333 6.932 22.7092 7.264 21.9463L15.994 21.9463 15.994 23.0972 4.698 33.6823ZM4.651 11.6552C5.459 10.6753 9.186 6.14525 10.448 4.47325 12.121 6.18725 14.047 7.25325 15.994 7.58425L15.994 14.9462 7.051 14.9462C6.235 13.2262 5.096 12.0662 4.651 11.6552L4.651 11.6552ZM22.994 5.20625C23.333 4.87025 23.667 4.50925 23.994 4.09925 24.941 5.28625 25.932 6.15925 26.994 6.75325L26.994 19.9463 22.994 19.9463 22.994 5.20625ZM43.913 29.3412C43.958 29.7183 43.988 30.1073 43.988 30.5243 43.988 35.0303 40.188 38.4033 33.825 39.5462 32.075 39.8613 30.43 40.4272 28.994 41.0513L28.994 36.9463C28.994 36.3942 28.547 35.9463 27.994 35.9463L21.994 35.9463C21.441 35.9463 20.994 36.3942 20.994 36.9463L20.994 42.0192C20.125 41.5552 19.111 41.0732 17.994 40.6423L17.994 30.3902C17.994 29.9853 17.749 29.6203 17.375 29.4653 16.997 29.3123 16.568 29.3993 16.283 29.6873L8.482 37.5662C7.408 36.9412 6.513 36.2072 5.811 35.3792L17.678 24.2603C17.88 24.0723 17.994 23.8072 17.994 23.5312L17.994 20.9463C17.994 20.3943 17.547 19.9463 16.994 19.9463L7.854 19.9463C7.911 19.5842 7.95 19.2132 7.95 18.8162 7.95 18.1553 7.87 17.5333 7.74 16.9463L16.994 16.9463C17.547 16.9463 17.994 16.4982 17.994 15.9462L17.994 7.66525C19.066 7.57425 20.06 7.27625 20.994 6.75325L20.994 20.9463C20.994 21.4982 21.441 21.9463 21.994 21.9463L27.994 21.9463C28.547 21.9463 28.994 21.4982 28.994 20.9463L28.994 7.51625C29.548 7.63925 30.12 7.70625 30.719 7.70625 33.091 7.70625 35.503 6.56125 37.54 4.47325 38.803 6.14625 42.53 10.6763 43.335 11.6532 43.085 11.8813 42.616 12.3453 42.11 13.0063 42.73 13.2872 43.31 13.6383 43.844 14.0492 44.354 13.4102 44.777 13.0483 44.784 13.0413 45.143 12.7493 45.377 12.3193 45.425 11.8542 45.47 11.3942 45.327 10.9253 45.031 10.5662 44.401 9.80525 39.99 4.44325 38.977 3.05525 38.669 2.63225 38.193 2.37225 37.682 2.34025 37.157 2.30125 36.649 2.50325 36.286 2.89125 34.589 4.70625 32.611 5.70625 30.719 5.70625 28.631 5.70625 27.035 4.78725 25.384 2.62925 24.739 1.79025 23.249 1.79025 22.604 2.62925 20.953 4.78725 19.357 5.70625 17.269 5.70625 15.377 5.70625 13.399 4.70625 11.701 2.89025 11.33 2.49425 10.817 2.29025 10.316 2.33925 9.795 2.37225 9.319 2.63225 9.011 3.05525 7.998 4.44325 3.587 9.80525 2.955 10.5682 2.661 10.9233 2.519 11.3923 2.564 11.8532 2.609 12.3142 2.841 12.7463 3.195 13.0352 3.223 13.0573 5.95 15.3733 5.95 18.8162 5.95 20.4293 5.249 21.6383 4.359 23.1693 3.308 24.9802 2 27.2342 2 30.5243 2 36.0773 6.415 40.1862 13.809 41.5153 18.718 42.3963 22.889 45.5402 22.926 45.5692 23.229 45.8032 23.608 45.9323 23.994 45.9323 24.378 45.9323 24.756 45.8042 25.057 45.5732 25.098 45.5412 29.273 42.3952 34.179 41.5153 41.573 40.1862 45.988 36.0773 45.988 30.5243 45.988 29.0793 45.728 27.8423 45.356 26.7472 44.906 27.6252 44.415 28.5033 43.913 29.3412L43.913 29.3412ZM22.994 30.9463 26.994 30.9463 26.994 26.9463 22.994 26.9463 22.994 30.9463ZM27.994 24.9463 21.994 24.9463C21.441 24.9463 20.994 25.3943 20.994 25.9463L20.994 31.9463C20.994 32.4982 21.441 32.9463 21.994 32.9463L27.994 32.9463C28.547 32.9463 28.994 32.4982 28.994 31.9463L28.994 25.9463C28.994 25.3943 28.547 24.9463 27.994 24.9463L27.994 24.9463ZM38.835 18.9762C37.84 18.9762 37.03 19.7862 37.03 20.7812 37.03 21.7773 37.84 22.5863 38.835 22.5863 39.83 22.5863 40.64 21.7773 40.64 20.7812 40.64 19.7862 39.83 18.9762 38.835 18.9762L38.835 18.9762ZM38.835 24.5863C36.737 24.5863 35.03 22.8792 35.03 20.7812 35.03 18.6833 36.737 16.9762 38.835 16.9762 40.932 16.9762 42.64 18.6833 42.64 20.7812 42.64 22.8792 40.932 24.5863 38.835 24.5863L38.835 24.5863ZM38.526 15.7282C35.643 15.7282 33.299 18.0732 33.299 20.9562 33.299 23.1642 36.559 28.3522 38.526 31.2022 40.493 28.3522 43.755 23.1642 43.755 20.9562 43.755 18.0732 41.409 15.7282 38.526 15.7282L38.526 15.7282ZM38.526 33.9323 38.526 33.9323C38.207 33.9323 37.906 33.7803 37.719 33.5223 37.061 32.6213 31.299 24.6162 31.299 20.9562 31.299 16.9702 34.541 13.7282 38.526 13.7282 42.512 13.7282 45.755 16.9702 45.755 20.9562 45.755 24.6162 39.991 32.6213 39.334 33.5223 39.145 33.7803 38.846 33.9323 38.526 33.9323L38.526 33.9323Z" id="AWS-Cloud-Map-Namespace_Resource-Icon_light-bg" fill="#8C4FFF"/></g></svg>