<svg width="48" height="48" viewBox="0 0 48 48" xmlns="http://www.w3.org/2000/svg" xmlns:xlink="http://www.w3.org/1999/xlink" overflow="hidden"><g id="Icon-Resource/Security-Identity-and-Compliance/Res_AWS-Key-Management-Service_External-Key-Store_48" stroke="none" stroke-width="1" fill="none" fill-rule="evenodd"><path d="M35.9853 24.031 40.9853 24.031 40.9853 22.031 35.9853 22.031 35.9853 24.031ZM35.9853 33.031 40.9853 33.031 40.9853 31.031 35.9853 31.031 35.9853 33.031ZM35.9853 42.031 40.9853 42.031 40.9853 40.031 35.9853 40.031 35.9853 42.031ZM43.9853 39.031 45.9853 39.031 45.9853 44.131C45.9853 45.178 45.1333 46.031 44.0853 46.031L21.8813 46.031C20.8363 46.031 19.9853 45.181 19.9853 44.136L19.9853 39.031 21.9853 39.031 21.9853 44.031 43.9853 44.031 43.9853 39.031ZM43.9853 30.031 45.9853 30.031 45.9853 35.136C45.9853 36.181 45.1353 37.031 44.0903 37.031L21.8813 37.031C20.8363 37.031 19.9853 36.181 19.9853 35.136L19.9853 30.031 21.9853 30.031 21.9853 35.031 43.9853 35.031 43.9853 30.031ZM45.9853 20.479 45.9853 25.995C45.9853 27.118 45.1293 28.031 44.0773 28.031L21.8933 28.031C20.8423 28.031 19.9853 27.118 19.9853 25.995L19.9853 25.031 21.9853 25.031 21.9853 25.995C21.9873 26.015 21.9843 26.026 21.9773 26.031L43.9683 26.031 43.9853 20.479C43.9853 20.211 43.8603 20.05 43.8083 20.028L31.5873 20.031 31.5873 18.031 43.8273 18.031C45.0173 18.031 45.9853 19.129 45.9853 20.479L45.9853 20.479ZM20.0843 14.136C19.7003 13.909 19.4283 13.546 19.3173 13.114 19.2063 12.682 19.2703 12.232 19.4973 11.848 19.7243 11.464 20.0883 11.192 20.5193 11.081 20.6583 11.045 20.7993 11.028 20.9373 11.028 21.2333 11.028 21.5243 11.107 21.7853 11.261 22.1693 11.489 22.4413 11.852 22.5533 12.284 22.6633 12.716 22.5993 13.165 22.3723 13.55 22.1443 13.933 21.7813 14.206 21.3493 14.317 20.9183 14.427 20.4693 14.364 20.0853 14.136L20.0843 14.136ZM21.8473 16.254C22.7963 16.01 23.5943 15.412 24.0933 14.569 24.5933 13.725 24.7333 12.737 24.4903 11.787 24.2463 10.838 23.6473 10.04 22.8043 9.54 21.0603 8.508 18.8063 9.089 17.7763 10.83 17.2763 11.674 17.1363 12.661 17.3803 13.611 17.6233 14.56 18.2223 15.358 19.0653 15.857 19.6393 16.197 20.2793 16.37 20.9293 16.37 21.2343 16.37 21.5423 16.332 21.8473 16.254L21.8473 16.254ZM18.7973 20.996C18.3643 20.891 17.9183 21.077 17.6933 21.457L7.9103 37.989 3.8493 39.031 3.6653 35.607 4.9093 33.504C5.0453 33.275 5.0833 33.003 5.0173 32.746L4.3013 29.952 7.0953 29.236C7.3513 29.17 7.5723 29.005 7.7073 28.777L9.1053 26.413C9.2413 26.184 9.2793 25.912 9.2143 25.655L8.4973 22.862 11.2913 22.145C11.5493 22.079 11.7683 21.913 11.9033 21.685L13.7723 18.526C13.9703 18.193 13.9573 17.778 13.7413 17.458 11.5763 14.243 11.8053 10.066 14.3113 7.062 16.5903 4.331 20.5013 3.293 23.8263 4.537 26.2663 5.45 28.1523 7.356 29.0033 9.767 29.8543 12.179 29.5963 14.825 28.2953 17.024 26.3683 20.281 22.4603 21.916 18.7973 20.996L18.7973 20.996ZM30.0163 18.043C31.6193 15.332 31.9373 12.073 30.8893 9.101 29.8413 6.131 27.5223 3.784 24.5273 2.664 20.3553 1.102 15.6343 2.356 12.7763 5.781 9.8333 9.307 9.4463 14.156 11.7403 18.033L10.3933 20.31 7.0323 21.173C6.4973 21.31 6.1753 21.855 6.3113 22.39L7.1743 25.751 6.1973 27.402 2.8363 28.263C2.5793 28.329 2.3583 28.495 2.2243 28.723 2.0883 28.951 2.0503 29.224 2.1153 29.481L2.9773 32.842 1.7903 34.849C1.6893 35.019 1.6413 35.215 1.6513 35.412L1.9173 40.356C1.9333 40.656 2.0833 40.931 2.3243 41.109 2.4983 41.236 2.7053 41.302 2.9163 41.302 2.9993 41.302 3.0823 41.292 3.1643 41.271L8.8083 39.824C9.0643 39.758 9.2853 39.593 9.4203 39.364L19.0483 23.093C23.3433 23.844 27.7713 21.836 30.0163 18.043L30.0163 18.043Z" id="Fill-1" fill="#DD344C"/></g></svg>