<svg width="80" height="80" viewBox="0 0 80 80" xmlns="http://www.w3.org/2000/svg" xmlns:xlink="http://www.w3.org/1999/xlink" overflow="hidden"><g id="Icon-Architecture/64/Arch_AWS-X-Ray_64" stroke="none" stroke-width="1" fill="none" fill-rule="evenodd"><g id="Icon-Architecture-BG/64/Developer-Tools" fill="#C925D1"><rect x="0" y="0" width="80" height="80" id="Rectangle"/></g><path d="M47.5 42.2003 45.5 42.2003 45.5 56.0834 41.5 56.0834 41.5 46.1669 39.5 46.1669 39.5 56.0834 35.5 56.0834 35.5 49.1418 33.5 49.1418 33.5 56.0834 31.5 56.0834 31.5 58.0668 49.5 58.0668 49.5 56.0834 47.5 56.0834 47.5 42.2003ZM55.5 49.6377C55.5 41.7094 48.995 35.2587 41 35.2587 33.005 35.2587 26.5 41.7094 26.5 49.6377 26.5 57.566 33.005 64.0167 41 64.0167 48.995 64.0167 55.5 57.566 55.5 49.6377L55.5 49.6377ZM57.5 49.6377C57.5 58.6598 50.098 66 41 66 31.902 66 24.5 58.6598 24.5 49.6377 24.5 40.6156 31.902 33.2754 41 33.2754 50.098 33.2754 57.5 40.6156 57.5 49.6377L57.5 49.6377ZM68 38.7017C68 44.3591 64.868 48.0381 59.409 48.7938L59.132 46.8293C62.266 46.396 66 44.6338 66 38.7017 66 33.1335 61.753 31.1195 58.191 30.4105 57.744 30.3222 57.415 29.9454 57.39 29.4942 57.156 25.4214 54.745 23.5978 52.458 23.5978 51.021 23.5978 49.681 24.2691 48.782 25.4403 48.562 25.7279 48.197 25.8726 47.839 25.8201 47.479 25.7665 47.175 25.5236 47.049 25.1834 46.239 23.0147 45.039 21.1236 43.579 19.7145 39.741 16.0027 34.489 14.9942 29.53 17.0191 25.413 18.694 22.188 23.5145 22.188 27.9928 22.188 28.4956 22.219 28.9964 22.279 29.4813 22.342 29.9791 22.019 30.4452 21.527 30.5652 19.09 31.1641 15 33.0076 15 38.6253 15 38.8366 15.011 39.028 15.021 39.2293 15.204 42.5206 18.068 45.5441 21.987 46.5804L21.472 48.4963C16.728 47.2418 13.254 43.4755 13.024 39.3364 13.011 39.0984 13 38.8742 13 38.6253 13 32.135 17.538 29.7282 20.216 28.8744 20.197 28.5828 20.188 28.2883 20.188 27.9928 20.188 22.6815 23.878 17.1758 28.77 15.1846 34.488 12.8482 40.548 14.0105 44.975 18.2944 46.313 19.5855 47.456 21.2188 48.326 23.0732 49.492 22.1331 50.936 21.6145 52.458 21.6145 55.53 21.6145 58.753 23.7912 59.32 28.6275 64.926 29.9771 68 33.5312 68 38.7017L68 38.7017Z" id="AWS-X-Ray_Icon_64_Squid" fill="#FFFFFF"/></g></svg>