<svg width="48" height="48" viewBox="0 0 48 48" xmlns="http://www.w3.org/2000/svg" xmlns:xlink="http://www.w3.org/1999/xlink" overflow="hidden"><g id="Icon-Resource/Database/Res_Amazon-DynamoDB_Standard-Access-Table-Class_48" stroke="none" stroke-width="1" fill="none" fill-rule="evenodd"><path d="M15.714 37.707C15.519 37.902 15.263 38 15.007 38 14.751 38 14.495 37.902 14.3 37.707L11.3 34.707 12.714 33.293 14.007 34.586 14.007 25.414 12.714 26.707 11.3 25.293 14.3 22.293C14.691 21.902 15.323 21.902 15.714 22.293L18.714 25.293 17.3 26.707 16.007 25.414 16.007 34.586 17.3 33.293 18.714 34.707 15.714 37.707ZM8.007 29.414 8.007 38.586 9.3 37.293 10.714 38.707 7.714 41.707C7.519 41.902 7.263 42 7.007 42 6.751 42 6.495 41.902 6.3 41.707L3.3 38.707 4.714 37.293 6.007 38.586 6.007 29.414 4.714 30.707 3.3 29.293 6.3 26.293C6.691 25.902 7.323 25.902 7.714 26.293L10.714 29.293 9.3 30.707 8.007 29.414ZM23.602 40C26.739 40 29.521 39.665 31.787 39.134L31.396 41.033C31.38 41.11 31.379 41.187 31.369 41.264 28.964 41.749 26.281 42 23.602 42 20.408 42 17.586 41.681 15.238 41.111L16.935 39.411C18.831 39.778 21.068 40 23.602 40L23.602 40ZM23.602 4C32.091 4 38.007 6.442 38.007 8.635 38.007 10.827 32.091 13.27 23.602 13.27 15.204 13.27 10.007 10.864 10.007 8.635 10.007 6.406 15.204 4 23.602 4L23.602 4ZM10.007 12.126C12.559 14.085 17.396 15.27 23.602 15.27 29.318 15.27 35.071 14.145 38.007 11.974L38.007 17.5 40.007 17.5 40.007 8.635C40.007 4.279 31.754 2 23.602 2 14.274 2 8.007 4.666 8.007 8.635L8.007 23.193 10.007 23.193 10.007 12.126ZM35.253 40.265 37.324 30.202C37.385 29.907 37.31 29.601 37.12 29.368 36.93 29.135 36.646 29 36.345 29L32.875 29 36.875 21 42.49 21 38.6 27.485C38.414 27.794 38.409 28.179 38.587 28.493 38.765 28.806 39.097 29 39.457 29L42.873 29 35.253 40.265ZM45.64 27.531C45.467 27.204 45.127 27 44.757 27L41.224 27 45.114 20.515C45.3 20.206 45.305 19.821 45.127 19.507 44.949 19.194 44.617 19 44.257 19L36.257 19C35.878 19 35.532 19.214 35.362 19.553L30.362 29.553C30.207 29.863 30.224 30.231 30.406 30.526 30.589 30.821 30.91 31 31.257 31L35.118 31 32.277 44.798C32.181 45.266 32.429 45.736 32.868 45.921 32.994 45.975 33.126 46 33.257 46 33.58 46 33.895 45.842 34.085 45.561L45.585 28.561C45.792 28.254 45.814 27.858 45.64 27.531L45.64 27.531Z" id="Fill-1" fill="#C925D1"/></g></svg>