<svg width="80" height="80" viewBox="0 0 80 80" xmlns="http://www.w3.org/2000/svg" xmlns:xlink="http://www.w3.org/1999/xlink" fill="none" overflow="hidden"><rect x="0" y="0" width="80" height="80" fill="#01A88D"/><path d="M30 42 30 24.4393 26.7041 27.71 25.2959 26.29 30.335 21.29C30.5225 21.1045 30.7754 21 31.0391 21L31.043 21C31.3086 21.001 31.5625 21.1074 31.749 21.2959L36.71 26.2959 35.29 27.7041 32 24.3884 32 42 30 42ZM46 34 46 28.3884 49.29 31.7041 50.71 30.2959 45.749 25.2959C45.5625 25.1074 45.3086 25.001 45.043 25L45.0391 25C44.7754 25 44.5225 25.1045 44.335 25.29L39.2959 30.29 40.7041 31.71 44 28.4393 44 34 46 34ZM43 44 27 44C26.4473 44 26 44.4477 26 45L26 61C26 61.5523 26.4473 62 27 62L34 62 34 60 28 60 28 46 42 46 42 60 40 60 40 62 43 62C43.5527 62 44 61.5523 44 61L44 45C44 44.4477 43.5527 44 43 44ZM53 36 37 36C36.4473 36 36 36.4477 36 37L36 42 38 42 38 38 52 38 52 52 46 52 46 54 53 54C53.5527 54 54 53.5523 54 53L54 37C54 36.4477 53.5527 36 53 36ZM30 68 32 68 32 64 30 64 30 68ZM42 68 44 68 44 64 42 64 42 68ZM36 66 38 66 38 56 36 56 36 66ZM48 66 50 66 50 56 48 56 48 66ZM58.8984 28.1758C58.9658 27.7866 59 27.394 59 27 59 23.1401 55.8594 20 52 20 51.0225 20 50.0635 20.2041 49.1777 20.5962 46.4316 15.3403 40.9795 12 35 12 26.1777 12 19 19.1777 19 28 19 28.2432 19.0059 28.4898 19.0186 28.7437 14.7891 30.376 12 34.4019 12 39 12 45.0654 16.9346 50 23 50L24 50 24 48 23 48C18.0371 48 14 43.9624 14 39 14 35.0166 16.5576 31.5581 20.3643 30.3936 20.8184 30.2549 21.1123 29.8159 21.0674 29.3433 21.0225 28.8623 21 28.4229 21 28 21 20.2803 27.2803 14 35 14 40.5479 14 45.5781 17.2876 47.8154 22.3755 47.9336 22.6445 48.1631 22.8477 48.4453 22.9316 48.7256 23.0146 49.0293 22.9712 49.2764 22.811 50.0908 22.2803 51.0322 22 52 22 54.7568 22 57 24.2432 57 27 57 27.5698 56.8984 28.1396 56.6992 28.6929 56.5918 28.9888 56.6308 29.3174 56.8037 29.5806 56.9756 29.8437 57.2627 30.0102 57.5762 30.0303 62.2998 30.3296 66 34.2695 66 39 66 43.9624 61.9629 48 57 48L56 48 56 50 57 50C63.0654 50 68 45.0654 68 39 68 33.6226 64.0898 29.0806 58.8984 28.1758Z" fill="#FFFFFF"/></svg>