<svg width="80" height="80" viewBox="0 0 80 80" xmlns="http://www.w3.org/2000/svg" xmlns:xlink="http://www.w3.org/1999/xlink" overflow="hidden"><g id="Icon-Architecture/64/Arch_AWS-Managed-Services_64" stroke="none" stroke-width="1" fill="none" fill-rule="evenodd"><g id="Icon-Architecture-BG/64/Customer-Enablement" fill="#C925D1"><rect x="0" y="0" width="80" height="80" id="Rectangle"/></g><g id="Icon-Service/64/AWS-Managed-Services" fill="#FFFFFF" transform="translate(14 15)"><path d="M29.98 22.216C29.98 19.9 28.096 18.016 25.78 18.016 23.463 18.016 21.58 19.9 21.58 22.216 21.58 24.532 23.463 26.416 25.78 26.416 28.096 26.416 29.98 24.532 29.98 22.216L29.98 22.216ZM31.98 22.216C31.98 25.634 29.199 28.416 25.78 28.416 22.361 28.416 19.58 25.634 19.58 22.216 19.58 18.797 22.361 16.016 25.78 16.016 29.199 16.016 31.98 18.797 31.98 22.216L31.98 22.216ZM33.187 31.779 35.344 29.623 34.522 28.89C34.158 28.565 34.082 28.023 34.342 27.61 34.957 26.637 35.396 25.576 35.648 24.457 35.755 23.979 36.209 23.647 36.68 23.678L37.78 23.741 37.78 20.691 36.678 20.754C36.209 20.771 35.753 20.452 35.646 19.976 35.393 18.857 34.954 17.797 34.339 16.825 34.079 16.411 34.155 15.87 34.519 15.545L35.344 14.809 33.187 12.652 32.448 13.481C32.123 13.844 31.581 13.921 31.167 13.66 30.197 13.048 29.137 12.608 28.02 12.356 27.543 12.248 27.214 11.811 27.243 11.323L27.305 10.216 24.255 10.216 24.318 11.322C24.346 11.81 24.017 12.246 23.54 12.354 22.42 12.607 21.36 13.046 20.389 13.658 19.977 13.918 19.434 13.843 19.11 13.478L18.373 12.652 16.216 14.809 17.043 15.547C17.408 15.872 17.484 16.414 17.222 16.827 16.609 17.798 16.168 18.857 15.915 19.977 15.806 20.453 15.327 20.771 14.882 20.754L13.78 20.691 13.78 23.741 14.878 23.678C15.327 23.647 15.803 23.979 15.911 24.456 16.164 25.578 16.603 26.64 17.216 27.612 17.477 28.026 17.401 28.567 17.037 28.892L16.216 29.623 18.373 31.78 19.105 30.96C19.43 30.593 19.972 30.518 20.385 30.78 21.359 31.395 22.42 31.836 23.541 32.089 24.017 32.196 24.346 32.633 24.318 33.121L24.255 34.216 27.305 34.216 27.243 33.122C27.214 32.634 27.543 32.197 28.021 32.09 29.143 31.837 30.205 31.397 31.177 30.782 31.588 30.521 32.131 30.595 32.458 30.962L33.187 31.779ZM33.853 33.943C33.659 34.137 33.406 34.245 33.118 34.235 32.842 34.227 32.583 34.107 32.4 33.901L31.509 32.903C30.8 33.284 30.056 33.591 29.286 33.824L29.362 35.159C29.377 35.434 29.28 35.703 29.09 35.903 28.902 36.103 28.639 36.216 28.364 36.216L23.197 36.216C22.921 36.216 22.659 36.103 22.47 35.903 22.281 35.703 22.183 35.434 22.199 35.159L22.275 33.822C21.505 33.59 20.762 33.282 20.053 32.901L19.161 33.901C18.978 34.107 18.718 34.227 18.443 34.235 18.172 34.243 17.902 34.137 17.708 33.943L14.053 30.289C13.859 30.094 13.752 29.828 13.76 29.553 13.768 29.278 13.889 29.019 14.094 28.835L15.095 27.943C14.715 27.234 14.408 26.491 14.176 25.721L12.836 25.798C12.56 25.815 12.292 25.715 12.093 25.527 11.893 25.338 11.78 25.074 11.78 24.799L11.78 19.632C11.78 19.357 11.893 19.094 12.093 18.905 12.292 18.716 12.559 18.618 12.836 18.633L14.181 18.71C14.414 17.942 14.721 17.201 15.102 16.495L14.094 15.596C13.889 15.413 13.768 15.154 13.76 14.879 13.752 14.604 13.859 14.338 14.053 14.143L17.708 10.489C17.902 10.295 18.175 10.193 18.443 10.197 18.718 10.205 18.978 10.325 19.161 10.531L20.059 11.537C20.765 11.158 21.506 10.851 22.275 10.62L22.199 9.273C22.183 8.998 22.281 8.729 22.47 8.529 22.659 8.329 22.921 8.216 23.197 8.216L28.364 8.216C28.639 8.216 28.902 8.329 29.09 8.529 29.28 8.729 29.377 8.998 29.362 9.273L29.286 10.622C30.052 10.853 30.792 11.16 31.5 11.54L32.4 10.53C32.584 10.325 32.842 10.205 33.118 10.197 33.403 10.191 33.659 10.295 33.853 10.489L37.506 14.143C37.701 14.338 37.807 14.604 37.799 14.879 37.792 15.154 37.67 15.413 37.465 15.596L36.46 16.493C36.84 17.201 37.148 17.942 37.379 18.71L38.723 18.633C38.997 18.619 39.267 18.716 39.466 18.905 39.667 19.094 39.78 19.357 39.78 19.632L39.78 24.799C39.78 25.074 39.667 25.338 39.466 25.527 39.267 25.715 38.996 25.814 38.723 25.798L37.382 25.721C37.151 26.49 36.843 27.233 36.463 27.941L37.465 28.836C37.67 29.019 37.792 29.278 37.799 29.553 37.807 29.828 37.701 30.094 37.506 30.289L33.853 33.943ZM44.297 40.213C44.289 39.733 44.092 39.285 43.746 38.952 43.398 38.617 42.949 38.451 42.501 38.451 42.028 38.451 41.556 38.635 41.204 39.002 40.517 39.716 40.539 40.857 41.253 41.545 41.966 42.232 43.109 42.21 43.796 41.495L43.796 41.494C44.129 41.149 44.307 40.694 44.297 40.213L44.297 40.213ZM45.132 37.51C45.864 38.214 46.278 39.159 46.297 40.174 46.318 41.188 45.941 42.15 45.238 42.881 44.535 43.612 43.588 44.026 42.575 44.046 42.548 44.047 42.523 44.047 42.498 44.047 41.511 44.047 40.58 43.672 39.867 42.986 38.358 41.534 38.311 39.125 39.762 37.616 41.214 36.106 43.624 36.06 45.132 37.51L45.132 37.51ZM49.435 40.905 47.541 40.035C47.285 39.918 47.09 39.698 47.004 39.43L46.616 38.212C46.532 37.947 46.561 37.66 46.697 37.418L47.716 35.604 45.254 33.813 43.86 35.325C43.671 35.529 43.408 35.646 43.13 35.648L41.828 35.655 41.822 35.655C41.543 35.655 41.276 35.539 41.086 35.333L39.682 33.808 37.216 35.596 38.24 37.418C38.376 37.662 38.405 37.952 38.319 38.218L37.926 39.423C37.839 39.688 37.646 39.905 37.392 40.021L35.49 40.894 36.428 43.792 38.459 43.385C38.735 43.327 39.023 43.394 39.25 43.562L40.296 44.337C40.519 44.502 40.663 44.751 40.695 45.025L40.933 47.071 43.978 47.074 44.22 45.011C44.252 44.736 44.398 44.486 44.623 44.321L45.657 43.564C45.883 43.399 46.171 43.335 46.444 43.39L48.492 43.801 49.435 40.905ZM51.613 40.677 50.119 45.266C49.961 45.749 49.462 46.034 48.971 45.937L46.483 45.438 46.156 45.677 45.861 48.192C45.802 48.695 45.375 49.075 44.868 49.075L44.867 49.075 40.042 49.07C39.535 49.07 39.108 48.69 39.049 48.186L38.758 45.687 38.417 45.433 35.948 45.927C35.446 46.026 34.957 45.738 34.8 45.255L33.313 40.664C33.157 40.182 33.386 39.659 33.847 39.447L36.16 38.386 36.281 38.015 35.037 35.799C34.789 35.357 34.911 34.799 35.322 34.5L39.228 31.667C39.634 31.37 40.207 31.424 40.55 31.799L42.258 33.653 42.684 33.65 44.387 31.802C44.732 31.428 45.299 31.373 45.71 31.672L49.612 34.51C50.022 34.809 50.144 35.367 49.896 35.809L48.654 38.019 48.776 38.402 51.079 39.459C51.541 39.671 51.77 40.195 51.613 40.677L51.613 40.677ZM25.832 42.57C18.268 42.57 11.11 38.13 7.597 31.258L5.816 32.169C9.668 39.702 17.524 44.57 25.832 44.57 27.65 44.57 29.887 44.245 31.969 43.678L31.444 41.749C29.554 42.263 27.457 42.57 25.832 42.57L25.832 42.57ZM43.306 26.513 45.661 24.748C45.574 26.421 45.341 27.822 44.769 29.366L46.644 30.061C47.315 28.251 47.578 26.603 47.667 24.684L50.107 26.513 51.306 24.914 47.306 21.914C46.951 21.647 46.462 21.647 46.107 21.914L42.107 24.914 43.306 26.513ZM9.414 18.421 5.414 22.421C5.218 22.616 4.962 22.714 4.707 22.714 4.451 22.714 4.195 22.616 4 22.421L3.55271e-15 18.421 1.414 17.007 3.824 19.417C4.956 8.36 14.192 0 25.78 0 34.01 0 41.79 4.812 45.597 12.258L43.816 13.169C40.347 6.384 33.267 2 25.78 2 15.425 2 7.154 9.334 5.892 19.113L8 17.007 9.414 18.421Z" id="AWS-Managed-Services_Icon_64_Squid"/></g></g></svg>