<svg width="48" height="48" viewBox="0 0 48 48" xmlns="http://www.w3.org/2000/svg" xmlns:xlink="http://www.w3.org/1999/xlink" overflow="hidden"><g id="Icon-Resource/IoT/Res_AWS-IoT-Greengrass_Connector_48" stroke="none" stroke-width="1" fill="none" fill-rule="evenodd"><path d="M29.2267 30.4492 29.2267 18.0002 33.2177 18.0002C36.6507 18.0002 39.4427 20.7932 39.4427 24.2252 39.4427 27.6572 36.6507 30.4492 33.2177 30.4492L29.2267 30.4492ZM45.9997 23.2242 41.3747 23.2242C40.8787 19.1602 37.4127 16.0002 33.2177 16.0002L28.2267 16.0002C27.6737 16.0002 27.2267 16.4472 27.2267 17.0002L27.2267 31.4492C27.2267 32.0022 27.6737 32.4492 28.2267 32.4492L33.2177 32.4492C37.4137 32.4492 40.8797 29.2882 41.3757 25.2242L45.9997 25.2242 45.9997 23.2242ZM18.7737 30.4492 14.7817 30.4492C11.3497 30.4492 8.5567 27.6572 8.5567 24.2242 8.5567 20.7922 11.3497 18.0002 14.7817 18.0002L18.7737 18.0002 18.7737 30.4492ZM20.7737 17.0002C20.7737 16.4472 20.3257 16.0002 19.7737 16.0002L14.7817 16.0002C10.5857 16.0002 7.1197 19.1602 6.6237 23.2242L1.9997 23.2242 1.9997 25.2242 6.6237 25.2242C7.1197 29.2892 10.5857 32.4492 14.7817 32.4492L19.7737 32.4492C20.3257 32.4492 20.7737 32.0022 20.7737 31.4492L20.7737 27.6132 24.8557 27.6132 24.8557 25.6132 20.7737 25.6132 20.7737 22.8372 24.8557 22.8372 24.8557 20.8372 20.7737 20.8372 20.7737 17.0002Z" id="Amazon-AWS-IoT-Greengrass-Connector_Resource-Icon_light-bg" fill="#7AA116"/></g></svg>