<svg width="48" height="48" viewBox="0 0 48 48" xmlns="http://www.w3.org/2000/svg" xmlns:xlink="http://www.w3.org/1999/xlink" overflow="hidden"><g id="Icon-Resource/IoT/Res_AWS-IoT-SiteWise_Asset-Model_48" stroke="none" stroke-width="1" fill="none" fill-rule="evenodd"><path d="M38 26C36.897 26 36 25.103 36 24 36 22.897 36.897 22 38 22 39.103 22 40 22.897 40 24 40 25.103 39.103 26 38 26L38 26ZM38 20C35.794 20 34 21.794 34 24 34 26.206 35.794 28 38 28 40.206 28 42 26.206 42 24 42 21.794 40.206 20 38 20L38 20ZM29 29 25 29 23 29 19 29 19 25 19 23 19 19 23 19 25 19 29 19 29 23 29 25 29 29ZM31 23 31 17 25 17 25 14 24 14 23 14 23 17 17 17 17 23 14 23 14 24 14 25 17 25 17 31 23 31 23 34 24 34 25 34 25 31 31 31 31 25 34 25 34 24 34 23 31 23ZM10 26C8.897 26 8 25.103 8 24 8 22.897 8.897 22 10 22 11.103 22 12 22.897 12 24 12 25.103 11.103 26 10 26L10 26ZM10 20C7.794 20 6 21.794 6 24 6 26.206 7.794 28 10 28 12.206 28 14 26.206 14 24 14 21.794 12.206 20 10 20L10 20ZM24 36C25.103 36 26 36.897 26 38 26 39.103 25.103 40 24 40 22.897 40 22 39.103 22 38 22 36.897 22.897 36 24 36L24 36ZM20 38C20 40.206 21.794 42 24 42 26.206 42 28 40.206 28 38 28 35.794 26.206 34 24 34 21.794 34 20 35.794 20 38L20 38ZM24 12C22.897 12 22 11.103 22 10 22 8.897 22.897 8 24 8 25.103 8 26 8.897 26 10 26 11.103 25.103 12 24 12L24 12ZM28 10C28 7.794 26.206 6 24 6 21.794 6 20 7.794 20 10 20 12.206 21.794 14 24 14 26.206 14 28 12.206 28 10L28 10ZM24 43.5C13.248 43.5 4.5 34.752 4.5 24 4.5 13.248 13.248 4.5 24 4.5 34.752 4.5 43.5 13.248 43.5 24 43.5 34.752 34.752 43.5 24 43.5L24 43.5ZM24 2.5C12.145 2.5 2.5 12.145 2.5 24 2.5 35.855 12.145 45.5 24 45.5 35.855 45.5 45.5 35.855 45.5 24 45.5 12.145 35.855 2.5 24 2.5L24 2.5Z" id="Fill-1" fill="#7AA116"/></g></svg>