<svg width="48" height="48" viewBox="0 0 48 48" xmlns="http://www.w3.org/2000/svg" xmlns:xlink="http://www.w3.org/1999/xlink" overflow="hidden"><g id="Icon-Resource/Storage/Res_AWS-Backup_Legal-Hold_48" stroke="none" stroke-width="1" fill="none" fill-rule="evenodd"><path d="M25 30 27 30 27 22 25 22 25 30ZM21 30 23 30 23 22 21 22 21 30ZM34 26C34 31.514 29.514 36 24 36 18.486 36 14 31.514 14 26L16 26C16 30.411 19.589 34 24 34 28.411 34 32 30.411 32 26 32 21.589 28.411 18 24 18 22.037 18 20.178 18.74 18.738 20L20 20 20 22 17.074 22C17.067 22.011 17.059 22.02 17.053 22.031L16.998 22 16 22C15.447 22 15 21.552 15 21L15 17 17 17 17 18.87C18.848 17.062 21.354 16 24 16 29.514 16 34 20.486 34 26L34 26ZM42 21C40.897 21 40 20.103 40 19 40 17.897 40.897 17 42 17 43.103 17 44 17.897 44 19 44 20.103 43.103 21 42 21L42 21ZM35.166 38.017C35.11 38.014 35.057 38 35 38 33.141 38 31.589 39.28 31.142 41L16.858 41C16.411 39.28 14.859 38 13 38 12.943 38 12.89 38.014 12.834 38.017L8.08 22.4C9.227 21.696 10 20.441 10 19 10 18.487 9.894 18 9.718 17.549L21.463 9.066C22.155 9.641 23.032 10 24 10 24.968 10 25.845 9.641 26.537 9.066L38.282 17.549C38.106 18 38 18.487 38 19 38 20.441 38.773 21.696 39.92 22.4L35.166 38.017ZM35 44C33.897 44 33 43.103 33 42 33 40.897 33.897 40 35 40 36.103 40 37 40.897 37 42 37 43.103 36.103 44 35 44L35 44ZM13 44C11.897 44 11 43.103 11 42 11 40.897 11.897 40 13 40 14.103 40 15 40.897 15 42 15 43.103 14.103 44 13 44L13 44ZM4 19C4 17.897 4.897 17 6 17 7.103 17 8 17.897 8 19 8 20.103 7.103 21 6 21 4.897 21 4 20.103 4 19L4 19ZM24 4C25.103 4 26 4.897 26 6 26 7.103 25.103 8 24 8 22.897 8 22 7.103 22 6 22 4.897 22.897 4 24 4L24 4ZM42 15C41.032 15 40.155 15.359 39.462 15.934L27.718 7.451C27.894 7 28 6.513 28 6 28 3.794 26.206 2 24 2 21.794 2 20 3.794 20 6 20 6.513 20.106 7 20.282 7.451L8.538 15.934C7.845 15.359 6.968 15 6 15 3.794 15 2 16.794 2 19 2 21.206 3.794 23 6 23 6.057 23 6.11 22.986 6.166 22.983L10.92 38.6C9.773 39.304 9 40.559 9 42 9 44.206 10.794 46 13 46 14.859 46 16.411 44.72 16.858 43L31.142 43C31.589 44.72 33.141 46 35 46 37.206 46 39 44.206 39 42 39 40.559 38.227 39.304 37.08 38.6L41.833 22.983C41.89 22.986 41.943 23 42 23 44.206 23 46 21.206 46 19 46 16.794 44.206 15 42 15L42 15Z" id="Fill-1" fill="#7AA116"/></g></svg>