<svg width="80" height="80" viewBox="0 0 80 80" xmlns="http://www.w3.org/2000/svg" xmlns:xlink="http://www.w3.org/1999/xlink" overflow="hidden"><g id="Icon-Architecture/64/Arch_AWS-Transit-Gateway_64" stroke="none" stroke-width="1" fill="none" fill-rule="evenodd"><g id="Icon-Architecture-BG/64/Networking-Content-Delivery" fill="#8C4FFF"><rect x="0" y="0" width="80" height="80" id="Rectangle"/></g><path d="M43.23 64.784C44.303 63.866 45 62.519 45 61 45 58.585 43.279 56.566 41 56.101L41 47.93C44.611 47.477 47.476 44.611 47.93 41L56.101 41C56.565 43.279 58.585 45 61 45 62.519 45 63.866 44.304 64.784 43.23 63.331 54.435 54.435 63.331 43.23 64.784M15.215 43.23C16.133 44.304 17.48 45 19 45 21.414 45 23.434 43.279 23.898 41L32.069 41C32.523 44.611 35.388 47.477 39 47.93L39 56.101C36.72 56.566 35 58.585 35 61 35 62.519 35.696 63.866 36.769 64.784 25.564 63.331 16.668 54.435 15.215 43.23M22 40C22 41.654 20.654 43 19 43 17.345 43 16 41.654 16 40 16 38.346 17.345 37 19 37 20.654 37 22 38.346 22 40M36.769 15.216C35.696 16.134 35 17.48 35 19 35 21.414 36.72 23.434 39 23.899L39 32.069C35.388 32.523 32.523 35.388 32.069 39L23.898 39C23.434 36.721 21.414 35 19 35 17.48 35 16.133 35.696 15.215 36.769 16.668 25.564 25.564 16.669 36.769 15.216M40 16C41.654 16 43 17.346 43 19 43 20.654 41.654 22 40 22 38.345 22 37 20.654 37 19 37 17.346 38.345 16 40 16M40 46C36.691 46 34 43.308 34 40 34 36.691 36.691 34 40 34 43.308 34 46 36.691 46 40 46 43.308 43.308 46 40 46M40 64C38.345 64 37 62.654 37 61 37 59.346 38.345 58 40 58 41.654 58 43 59.346 43 61 43 62.654 41.654 64 40 64M64 40C64 41.654 62.654 43 61 43 59.345 43 58 41.654 58 40 58 38.346 59.345 37 61 37 62.654 37 64 38.346 64 40M64.784 36.769C63.866 35.696 62.519 35 61 35 58.585 35 56.565 36.721 56.101 39L47.93 39C47.476 35.388 44.611 32.523 41 32.069L41 23.899C43.279 23.434 45 21.414 45 19 45 17.48 44.303 16.134 43.23 15.216 54.435 16.669 63.331 25.564 64.784 36.769M40 13C25.112 13 13 25.112 13 40 13 54.888 25.112 67 40 67 54.887 67 67 54.888 67 40 67 25.112 54.887 13 40 13" id="AWS-Transit-Gateway_Icon_64_Squid" fill="#FFFFFF"/></g></svg>