<svg width="48" height="48" viewBox="0 0 48 48" xmlns="http://www.w3.org/2000/svg" xmlns:xlink="http://www.w3.org/1999/xlink" overflow="hidden"><g id="Icon-Resource/IoT/Res_AWS-IoT_Thing_Bicycle_48" stroke="none" stroke-width="1" fill="none" fill-rule="evenodd"><path d="M27.6063 29.2417C27.6063 27.8777 28.2593 26.6757 29.2573 25.8927L30.9683 29.6557 32.7883 28.8267 31.0713 25.0507C31.3333 24.9997 31.6023 24.9687 31.8783 24.9687 34.2333 24.9687 36.1503 26.8857 36.1503 29.2417 36.1503 31.5967 34.2333 33.5137 31.8783 33.5137 29.5233 33.5137 27.6063 31.5967 27.6063 29.2417ZM27.6273 22.3067 28.4063 24.0217C27.4513 24.6587 26.6853 25.5527 26.1953 26.6017L27.6273 22.3067ZM24.4503 25.5137 20.1263 20.5757 26.0973 20.5757 24.4503 25.5137ZM16.0613 33.5137C13.7053 33.5137 11.7883 31.5967 11.7883 29.2417 11.7883 26.9537 13.5993 25.0957 15.8593 24.9897L15.0783 29.0517 17.0433 29.4307 17.8253 25.3617C19.3003 26.0357 20.3333 27.5167 20.3333 29.2417 20.3333 31.5967 18.4163 33.5137 16.0613 33.5137ZM30.2293 23.1967 28.5403 19.4817 28.9333 17.9397 29.8243 17.9397 29.8243 15.9397 26.2953 15.9397 26.2953 17.9397 26.8693 17.9397 26.7073 18.5757 18.7213 18.5757 18.1993 16.1857 20.4563 16.1817 20.4523 14.1817 17.3823 14.1867C17.2853 14.1867 17.1893 14.2017 17.0963 14.2297 16.6803 14.3547 16.3423 14.6527 16.1703 15.0457 16.0313 15.3617 15.9363 15.8757 16.2353 16.5687L16.8983 19.5977 16.2473 22.9787C16.1853 22.9767 16.1233 22.9687 16.0613 22.9687 12.6023 22.9687 9.7883 25.7827 9.7883 29.2417 9.7883 32.7007 12.6023 35.5137 16.0613 35.5137 19.5203 35.5137 22.3333 32.7007 22.3333 29.2417 22.3333 26.5387 20.6123 24.2377 18.2113 23.3567L18.5173 21.7727 24.0963 28.1437C24.3313 28.4127 24.6953 28.5327 25.0453 28.4647 25.3693 28.3997 25.6313 28.1747 25.7603 27.8747 25.6613 28.3157 25.6063 28.7717 25.6063 29.2417 25.6063 32.7007 28.4193 35.5137 31.8783 35.5137 35.3373 35.5137 38.1503 32.7007 38.1503 29.2417 38.1503 25.7827 35.3373 22.9687 31.8783 22.9687 31.3063 22.9687 30.7553 23.0527 30.2293 23.1967ZM39.6643 38.5307C39.6643 39.1567 39.1553 39.6647 38.5293 39.6647L9.4093 39.6647C8.7833 39.6647 8.2743 39.1567 8.2743 38.5307L8.2743 9.4227C8.2743 8.7967 8.7833 8.2877 9.4093 8.2877L38.5293 8.2877C39.1553 8.2877 39.6643 8.7967 39.6643 9.4227L39.6643 38.5307ZM45.9393 14.4237 45.9393 12.4237 41.6643 12.4237 41.6643 9.4227C41.6643 7.6947 40.2583 6.2877 38.5293 6.2877L35.5153 6.2877 35.5153 1.9997 33.5153 1.9997 33.5153 6.2877 30.2423 6.2877 30.2423 1.9997 28.2423 1.9997 28.2423 6.2877 24.9693 6.2877 24.9693 1.9997 22.9693 1.9997 22.9693 6.2877 19.6963 6.2877 19.6963 1.9997 17.6963 1.9997 17.6963 6.2877 14.4243 6.2877 14.4243 1.9997 12.4243 1.9997 12.4243 6.2877 9.4093 6.2877C7.6813 6.2877 6.2743 7.6947 6.2743 9.4227L6.2743 12.4237 2.0003 12.4237 2.0003 14.4237 6.2743 14.4237 6.2743 17.6967 2.0003 17.6967 2.0003 19.6967 6.2743 19.6967 6.2743 22.9687 2.0003 22.9687 2.0003 24.9687 6.2743 24.9687 6.2743 28.2417 2.0003 28.2417 2.0003 30.2417 6.2743 30.2417 6.2743 33.5137 2.0003 33.5137 2.0003 35.5137 6.2743 35.5137 6.2743 38.5307C6.2743 40.2587 7.6813 41.6647 9.4093 41.6647L12.4243 41.6647 12.4243 45.9377 14.4243 45.9377 14.4243 41.6647 17.6963 41.6647 17.6963 45.9377 19.6963 45.9377 19.6963 41.6647 22.9693 41.6647 22.9693 45.9377 24.9693 45.9377 24.9693 41.6647 28.2423 41.6647 28.2423 45.9377 30.2423 45.9377 30.2423 41.6647 33.5153 41.6647 33.5153 45.9377 35.5153 45.9377 35.5153 41.6647 38.5293 41.6647C40.2583 41.6647 41.6643 40.2587 41.6643 38.5307L41.6643 35.5137 45.9393 35.5137 45.9393 33.5137 41.6643 33.5137 41.6643 30.2417 45.9393 30.2417 45.9393 28.2417 41.6643 28.2417 41.6643 24.9687 45.9393 24.9687 45.9393 22.9687 41.6643 22.9687 41.6643 19.6967 45.9393 19.6967 45.9393 17.6967 41.6643 17.6967 41.6643 14.4237 45.9393 14.4237Z" id="Amazon-IOT-RESOURCES-IoT-thing-bicycle_Resource-Icon_light-bg" fill="#7AA116"/></g></svg>