<svg width="48" height="48" viewBox="0 0 48 48" xmlns="http://www.w3.org/2000/svg" xmlns:xlink="http://www.w3.org/1999/xlink" overflow="hidden"><g id="Icon-Resource/Security-Identity-and-Compliance/Res_AWS-WAF_Labels_48" stroke="none" stroke-width="1" fill="none" fill-rule="evenodd"><path d="M13 33.009 41 33.009 41 31.009 13 31.009 13 33.009ZM13 25.009 46 25.009 46 23.009 13 23.009 13 25.009ZM19 11.009C19 12.112 18.103 13.009 17 13.009 15.897 13.009 15 12.112 15 11.009 15 9.906 15.897 9.009 17 9.009 18.103 9.009 19 9.906 19 11.009L19 11.009ZM21 11.009C21 8.803 19.206 7.009 17 7.009 14.794 7.009 13 8.803 13 11.009 13 13.215 14.794 15.009 17 15.009 19.206 15.009 21 13.215 21 11.009L21 11.009ZM32 46.009 2 46.009 2 12.487 11.068 2.009 22.923 2 32 12.487 32 20.009 30 20.009 30 13.232 22.009 4.001 11.982 4.009 4 13.232 4 44.009 30 44.009 30 37.009 32 37.009 32 46.009Z" id="Fill-1" fill="#DD344C"/></g></svg>