<svg width="80" height="80" viewBox="0 0 80 80" xmlns="http://www.w3.org/2000/svg" xmlns:xlink="http://www.w3.org/1999/xlink" overflow="hidden"><g id="Icon-Architecture/64/Arch_Amazon-Simple-Storage-Service_64" stroke="none" stroke-width="1" fill="none" fill-rule="evenodd"><g id="Icon-Architecture-BG/64/Storage" fill="#7AA116"><rect x="0" y="0" width="80" height="80" id="Rectangle"/></g><g id="Icon-Service/64/Amazon-Simple-Storage-Service_64" fill="#FFFFFF" transform="translate(12.9999 11.9996)"><path d="M47.836 30.893 48.22 28.189C51.761 30.31 51.807 31.186 51.806 31.21 51.8 31.215 51.196 31.719 47.836 30.893L47.836 30.893ZM45.893 30.353C39.773 28.501 31.25 24.591 27.801 22.961 27.801 22.947 27.805 22.934 27.805 22.92 27.805 21.595 26.727 20.517 25.401 20.517 24.077 20.517 22.999 21.595 22.999 22.92 22.999 24.245 24.077 25.323 25.401 25.323 25.983 25.323 26.511 25.106 26.928 24.761 30.986 26.682 39.443 30.535 45.608 32.355L43.17 49.561C43.163 49.608 43.16 49.655 43.16 49.702 43.16 51.217 36.453 54 25.494 54 14.419 54 7.641 51.217 7.641 49.702 7.641 49.656 7.638 49.611 7.632 49.566L2.538 12.359C6.947 15.394 16.43 17 25.5 17 34.556 17 44.023 15.4 48.441 12.374L45.893 30.353ZM2 8.478C2.072 7.162 9.634 2 25.5 2 41.364 2 48.927 7.161 49 8.478L49 8.927C48.13 11.878 38.33 15 25.5 15 12.648 15 2.843 11.868 2 8.913L2 8.478ZM51 8.5C51 5.035 41.066 0 25.5 0 9.934 0 0 5.035 0 8.5L0.094 9.254 5.642 49.778C5.775 54.31 17.861 56 25.494 56 34.966 56 45.029 53.822 45.159 49.781L47.555 32.884C48.888 33.203 49.985 33.366 50.866 33.366 52.049 33.366 52.849 33.077 53.334 32.499 53.732 32.025 53.884 31.451 53.77 30.84 53.511 29.456 51.868 27.964 48.522 26.055L50.898 9.293 51 8.5Z" id="Amazon-Simple-Storage-Service-Icon_64_Squid"/></g></g></svg>