<svg width="48" height="48" viewBox="0 0 48 48" xmlns="http://www.w3.org/2000/svg" xmlns:xlink="http://www.w3.org/1999/xlink" overflow="hidden"><g id="Icon-Resource/Quantum-Technologies/Res_Amazon-Braket_Chip_48" stroke="none" stroke-width="1" fill="none" fill-rule="evenodd"><path d="M33.131 4.08175C32.92 4.02675 32.709 4.00075 32.501 4.00075 31.391 4.00075 30.375 4.74675 30.082 5.86975 29.735 7.20375 30.536 8.57075 31.869 8.91875 33.205 9.26875 34.57 8.46375 34.918 7.13075 35.266 5.79675 34.464 4.42975 33.131 4.08175L33.131 4.08175ZM22.131 10.0817C21.92 10.0267 21.709 10.0007 21.501 10.0007 20.391 10.0007 19.375 10.7467 19.082 11.8697 18.735 13.2037 19.536 14.5707 20.869 14.9187 22.206 15.2667 23.57 14.4637 23.918 13.1307 24.266 11.7967 23.464 10.4297 22.131 10.0817L22.131 10.0817ZM16 20.4997C16 19.1217 14.879 17.9997 13.5 17.9997 12.121 17.9997 11 19.1217 11 20.4997 11 21.8787 12.121 22.9997 13.5 22.9997 14.879 22.9997 16 21.8787 16 20.4997L16 20.4997ZM12 15.9997 12 16.2767C12.472 16.1087 12.972 15.9997 13.5 15.9997 14.228 15.9997 14.904 16.1897 15.514 16.4977 15.725 16.2807 15.932 16.0637 16.148 15.8487 16.6 15.3967 17.057 14.9727 17.513 14.5407 17.027 13.5917 16.858 12.4757 17.147 11.3657 17.18 11.2367 17.238 11.1237 17.282 10.9997L12 10.9997 12 15.9997ZM9 31.4997C9 30.1217 7.879 28.9997 6.5 28.9997 5.121 28.9997 4 30.1217 4 31.4997 4 32.8787 5.121 33.9997 6.5 33.9997 7.879 33.9997 9 32.8787 9 31.4997L9 31.4997ZM46.107 8.03375 44.122 8.27875C43.988 7.19975 43.609 6.33975 42.993 5.72575 41.781 4.51175 39.561 4.24175 36.701 4.91775 37.019 5.75975 37.097 6.70075 36.854 7.63475L36.854 7.63575C36.326 9.65675 34.497 10.9997 32.499 10.9997 32.124 10.9997 31.744 10.9527 31.365 10.8537 30.075 10.5177 29.077 9.64375 28.513 8.54075 28.342 8.64475 28.172 8.74575 28 8.85275L28 8.99975 27.758 8.99975C27.012 9.47275 26.263 9.97675 25.512 10.5107 25.978 11.4497 26.138 12.5437 25.854 13.6347L25.854 13.6357C25.326 15.6567 23.497 16.9997 21.499 16.9997 21.124 16.9997 20.744 16.9527 20.365 16.8537 19.777 16.7007 19.247 16.4337 18.789 16.0867 18.38 16.4767 17.968 16.8567 17.562 17.2637 17.391 17.4337 17.227 17.6057 17.059 17.7777 17.641 18.5367 18 19.4727 18 20.4997 18 22.9817 15.982 24.9997 13.5 24.9997 12.726 24.9997 12.008 24.7857 11.371 24.4397 10.539 25.5687 9.762 26.6997 9.069 27.8147 10.234 28.6287 11 29.9747 11 31.4997 11 33.9817 8.982 35.9997 6.5 35.9997 6.102 35.9997 5.722 35.9317 5.354 35.8337 4.492 38.9797 4.718 41.3887 6.024 42.6947 6.719 43.3897 7.725 43.7827 9.012 43.8617L8.889 45.8577C7.1 45.7487 5.66 45.1597 4.61 44.1087 2.684 42.1827 2.341 38.9987 3.562 34.8797 2.613 34.0547 2 32.8537 2 31.4997 2 29.0187 4.019 26.9997 6.5 26.9997 6.891 26.9997 7.264 27.0657 7.625 27.1597L7.257 26.9337C8.031 25.6737 8.913 24.3937 9.858 23.1217 9.827 23.0797 9.791 23.0427 9.762 22.9997L6 22.9997 6 20.9997 9.051 20.9997C9.032 20.8337 9 20.6717 9 20.4997 9 19.5757 9.281 18.7157 9.762 17.9997L6 17.9997 6 15.9997 10 15.9997 10 12.9997 6 12.9997 6 10.9997 10 10.9997 10 9.99975C10 9.44775 10.447 8.99975 11 8.99975L11 4.99975 13 4.99975 13 8.99975 16 8.99975 16 4.99975 18 4.99975 18 8.99975 18.701 8.99975C19.36 8.47575 20.152 8.13775 21 8.04075L21 4.99975 23 4.99975 23 8.28175C23.459 8.44575 23.888 8.66075 24.257 8.94775 24.838 8.53275 25.42 8.13175 26 7.75075L26 4.99975 28 4.99975 28 6.51275C28.006 6.50875 28.012 6.50475 28.018 6.50175 28.018 6.12575 28.047 5.74675 28.147 5.36575 28.773 2.96375 31.236 1.52075 33.635 2.14575 34.353 2.33275 34.971 2.69875 35.487 3.16375 39.455 2.05375 42.54 2.44475 44.407 4.31075 45.346 5.24875 45.917 6.50075 46.107 8.03375L46.107 8.03375ZM40 9.99975 38 9.99975 38 36.9997 12 36.9997 12 35.9997 10 35.9997 10 37.9997C10 38.5527 10.447 38.9997 11 38.9997L11 42.9997 13 42.9997 13 38.9997 16 38.9997 16 42.9997 18 42.9997 18 38.9997 21 38.9997 21 42.9997 23 42.9997 23 38.9997 26 38.9997 26 42.9997 28 42.9997 28 38.9997 31 38.9997 31 42.9997 33 42.9997 33 38.9997 36 38.9997 36 42.9997 38 42.9997 38 38.9997 39 38.9997C39.553 38.9997 40 38.5527 40 37.9997L43 37.9997 43 35.9997 40 35.9997 40 32.9997 43 32.9997 43 30.9997 40 30.9997 40 27.9997 43 27.9997 43 25.9997 40 25.9997 40 22.9997 43 22.9997 43 20.9997 40 20.9997 40 17.9997 43 17.9997 43 15.9997 40 15.9997 40 12.9997 43 12.9997 43 10.9997 40 10.9997 40 9.99975ZM18 25.9997 18 29.9997 31 29.9997 31 16.9997 28 16.9997 28 14.9997 32 14.9997C32.553 14.9997 33 15.4477 33 15.9997L33 30.9997C33 31.5527 32.553 31.9997 32 31.9997L17 31.9997C16.447 31.9997 16 31.5527 16 30.9997L16 25.9997 18 25.9997Z" id="Fill-1" fill="#ED7100"/></g></svg>