<svg width="48" height="48" viewBox="0 0 48 48" xmlns="http://www.w3.org/2000/svg" xmlns:xlink="http://www.w3.org/1999/xlink" overflow="hidden"><g id="Icon-Resource/Analytics/Res_Amazon-Redshift_Data-Sharing-Governance_48" stroke="none" stroke-width="1" fill="none" fill-rule="evenodd"><path d="M23.065 43.818 23.065 45.818C21.648 45.818 20.381 45.064 19.554 43.887 18.727 45.064 17.461 45.818 16.044 45.818 14.627 45.818 13.36 45.064 12.533 43.887 11.705 45.064 10.438 45.818 9.021 45.818 7.604 45.818 6.337 45.064 5.51 43.887 4.683 45.064 3.417 45.818 2 45.818L2 43.818C3.384 43.818 4.51 42.392 4.51 40.639L6.51 40.639C6.51 42.392 7.636 43.818 9.021 43.818 10.406 43.818 11.533 42.392 11.533 40.639L13.533 40.639C13.533 42.392 14.659 43.818 16.044 43.818 17.428 43.818 18.554 42.392 18.554 40.639L20.554 40.639C20.554 42.392 21.68 43.818 23.065 43.818L23.065 43.818ZM30.5 37.818C28.928 37.818 27.468 37.025 26.524 35.836 25.688 37.047 24.35 37.818 22.815 37.818 21.247 37.818 19.82 37.033 18.908 35.838 18.041 37.041 16.67 37.818 15.13 37.818 13.592 37.818 12.195 37.025 11.304 35.819 10.407 37.025 8.997 37.818 7.445 37.818L7.445 35.818C8.97 35.818 10.309 34.416 10.309 32.818L12.309 32.818C12.309 34.444 13.601 35.818 15.13 35.818 16.642 35.818 17.873 34.472 17.873 32.818L19.873 32.818C19.873 34.416 21.248 35.818 22.815 35.818 24.456 35.818 25.436 34.293 25.436 32.818L27.436 32.818C27.436 34.36 28.925 35.818 30.5 35.818 32.124 35.818 33 34.272 33 32.818L35 32.818C35 35.669 33.065 37.818 30.5 37.818L30.5 37.818ZM2 29.996 2 27.996C3.384 27.996 4.51 26.57 4.51 24.818L6.51 24.818C6.51 26.57 7.636 27.996 9.021 27.996 10.406 27.996 11.533 26.57 11.533 24.818L13.533 24.818C13.533 26.57 14.659 27.996 16.044 27.996 17.428 27.996 18.554 26.57 18.554 24.818L20.554 24.818C20.554 26.57 21.68 27.996 23.065 27.996L23.065 29.996C21.648 29.996 20.381 29.242 19.554 28.066 18.727 29.242 17.461 29.996 16.044 29.996 14.627 29.996 13.36 29.242 12.533 28.066 11.705 29.242 10.438 29.996 9.021 29.996 7.604 29.996 6.337 29.242 5.51 28.066 4.683 29.242 3.417 29.996 2 29.996L2 29.996ZM41.387 10.527C40.756 9.606 39.698 9 38.5 9 36.786 9 35.362 10.24 35.063 11.87 34.077 11.949 33.05 12 31.979 12 24.367 12 19.215 10.018 19 8.123L19 8 18.979 8C18.979 6.068 24.15 4 31.847 4 39.441 4 43.979 6.033 43.979 8 43.979 8 43.979 8.001 43.979 8.001L43.958 8.001 43.958 8.125C43.855 9.26 42.448 10.075 41.387 10.527L41.387 10.527ZM38.5 14C37.672 14 37 13.327 37 12.5 37 11.672 37.672 11 38.5 11 39.327 11 40 11.672 40 12.5 40 13.327 39.327 14 38.5 14L38.5 14ZM34.5 24C33.672 24 33 23.327 33 22.5 33 21.672 33.672 21 34.5 21 35.327 21 36 21.672 36 22.5 36 23.327 35.327 24 34.5 24L34.5 24ZM24.5 22C23.672 22 23 21.327 23 20.5 23 19.672 23.672 19 24.5 19 25.327 19 26 19.672 26 20.5 26 21.327 25.327 22 24.5 22L24.5 22ZM45.958 8.363C45.971 8.238 45.979 8.116 45.979 8 45.979 4.355 40.432 2 31.847 2 24.447 2 16.979 3.855 16.979 8 16.979 8.059 16.996 8.113 17 8.172L17 23 19 23 19 11.215C21.781 13.111 27.01 14 31.979 14 33.122 14 34.219 13.946 35.275 13.859 35.548 14.505 36.013 15.049 36.594 15.428L35.16 19.066C34.946 19.025 34.726 19 34.5 19 32.996 19 31.722 19.957 31.228 21.291L27.994 20.555C27.994 20.536 28 20.519 28 20.5 28 18.57 26.429 17 24.5 17 22.57 17 21 18.57 21 20.5 21 22.429 22.57 24 24.5 24 25.699 24 26.759 23.392 27.389 22.469L31.105 23.314C31.474 24.85 32.851 26 34.5 26 36.429 26 38 24.429 38 22.5 38 21.52 37.593 20.637 36.942 20.001L38.52 15.998C40.44 15.986 42 14.422 42 12.5 42 12.479 41.994 12.46 41.993 12.439 42.793 12.112 43.442 11.759 43.962 11.391L44 39.818C44 41.757 39.794 43.818 32 43.818 31.006 43.818 30.021 43.783 29.072 43.714L28.927 45.71C29.925 45.781 30.959 45.818 32 45.818 40.504 45.818 46 43.463 46 39.817L45.958 8.363Z" id="Fill-1" fill="#8C4FFF"/></g></svg>