<svg width="48" height="48" viewBox="0 0 48 48" xmlns="http://www.w3.org/2000/svg" xmlns:xlink="http://www.w3.org/1999/xlink" overflow="hidden"><g id="Icon-Resource/IoT/Res_AWS-IoT-Core_Device-Advisor_48" stroke="none" stroke-width="1" fill="none" fill-rule="evenodd"><path d="M24.0683 40.7777C22.0333 40.7777 20.2113 40.0237 19.3123 38.8087L20.9203 37.6187C21.3463 38.1957 22.4863 38.7777 24.0683 38.7777 25.6533 38.7777 26.7923 38.1947 27.2173 37.6187L28.8273 38.8057C27.9293 40.0227 26.1053 40.7777 24.0683 40.7777M30.0903 41.7607 31.7003 42.9497C30.2833 44.8667 27.3593 46.0577 24.0683 46.0577 20.7803 46.0577 17.8563 44.8677 16.4393 42.9527L18.0473 41.7627C19.0623 43.1357 21.4823 44.0577 24.0683 44.0577 26.6563 44.0577 29.0763 43.1347 30.0903 41.7607M24.0683 20.6007C26.1053 20.6007 27.9283 21.3557 28.8273 22.5707L27.2173 23.7597C26.7923 23.1827 25.6523 22.6007 24.0683 22.6007 22.4863 22.6007 21.3463 23.1827 20.9203 23.7587L19.3123 22.5697C20.2113 21.3547 22.0333 20.6007 24.0683 20.6007M24.0683 17.3197C21.4823 17.3197 19.0623 18.2427 18.0473 19.6147L16.4393 18.4247C17.8573 16.5097 20.7803 15.3197 24.0683 15.3197 27.3593 15.3197 30.2833 16.5107 31.7003 18.4277L30.0903 19.6167C29.0763 18.2427 26.6563 17.3197 24.0683 17.3197M4.06535 22.5107 2.06535 22.5107C2.06535 17.1477 5.60435 15.0917 7.78635 14.3357L7.75535 13.7937C7.75335 9.2847 10.7243 4.6677 14.6653 2.9937 19.2813 1.0337 24.1693 2.0077 27.7413 5.6017 28.7883 6.6537 29.6563 7.9187 30.3323 9.3717 31.7433 8.3167 33.5893 7.9817 35.3063 8.5447 37.5673 9.2867 38.9883 11.3427 39.1993 14.1147 42.6933 14.9807 46.1423 17.5857 46.1423 22.5757L44.1423 22.5757C44.1423 17.5107 39.8773 16.2297 38.0433 15.9137 37.5043 15.8207 37.1383 15.3117 37.2253 14.7707 37.2263 12.5787 36.2983 10.9757 34.6813 10.4447 33.2623 9.9777 31.6903 10.4937 30.7773 11.7317 30.5583 12.0287 30.1943 12.1797 29.8253 12.1277 29.4593 12.0727 29.1523 11.8197 29.0293 11.4707 28.4003 9.6847 27.4893 8.1847 26.3233 7.0117 24.8943 5.5737 20.9763 2.4857 15.4463 4.8347 12.2543 6.1907 9.75335 10.1007 9.75335 13.7357L9.82935 15.0057C9.85735 15.4827 9.54335 15.9137 9.07935 16.0327 7.20735 16.5127 4.06535 17.9937 4.06535 22.5107M39.6453 36.5467C37.7373 36.5467 36.0013 35.4087 35.2213 33.6487 35.0613 33.2867 34.7033 33.0527 34.3073 33.0527L13.8413 33.0527C13.4463 33.0527 13.0883 33.2867 12.9273 33.6487 12.1483 35.4087 10.4123 36.5467 8.50435 36.5467 6.91335 36.5467 5.48235 35.4107 4.60235 34.0527L8.06935 34.0527C8.62235 34.0527 9.06935 33.6057 9.06935 33.0527L9.06935 28.0527C9.06935 27.5007 8.62235 27.0527 8.06935 27.0527L4.66835 27.0527C5.55435 25.6527 6.99035 24.4777 8.56535 24.4777 10.5113 24.4777 12.2003 25.6137 12.9713 27.4417 13.1283 27.8127 13.4903 28.0527 13.8923 28.0527L34.3193 28.0527C34.7213 28.0527 35.0853 27.8117 35.2413 27.4417 36.0113 25.6137 37.6993 24.4777 39.6463 24.4777 41.2223 24.4777 42.6573 25.6527 43.5443 27.0527L40.0693 27.0527C39.5163 27.0527 39.0693 27.5007 39.0693 28.0527L39.0693 33.0527C39.0693 33.6057 39.5163 34.0527 40.0693 34.0527L43.5463 34.0527C42.6673 35.4107 41.2363 36.5467 39.6453 36.5467M45.9643 32.4737C45.7763 32.2097 45.4723 32.0527 45.1483 32.0527L41.0693 32.0527 41.0693 29.0527 45.1383 29.0527C45.4633 29.0527 45.7673 28.8957 45.9553 28.6317 46.1423 28.3667 46.1893 28.0277 46.0823 27.7217 45.1663 25.1157 42.6613 22.4777 39.6463 22.4777 37.1473 22.4777 34.8773 23.8607 33.6913 26.0527L14.5203 26.0527C13.3343 23.8607 11.0633 22.4777 8.56535 22.4777 5.55135 22.4777 3.04735 25.1157 2.12935 27.7207 2.02135 28.0267 2.06835 28.3657 2.25635 28.6307 2.44335 28.8957 2.74835 29.0527 3.07235 29.0527L7.06935 29.0527 7.06935 32.0527 3.00035 32.0527C2.67535 32.0527 2.37235 32.2097 2.18435 32.4737 1.99735 32.7377 1.94935 33.0767 2.05535 33.3827 2.95135 35.9487 5.45435 38.5467 8.50435 38.5467 10.9803 38.5467 13.2513 37.1947 14.4583 35.0527L33.6913 35.0527C34.8983 37.1947 37.1693 38.5467 39.6453 38.5467 42.6953 38.5467 45.1973 35.9487 46.0924 33.3827 46.1993 33.0767 46.1513 32.7377 45.9643 32.4737" id="Fill-1" fill="#7AA116"/></g></svg>