<svg width="48" height="48" viewBox="0 0 48 48" xmlns="http://www.w3.org/2000/svg" xmlns:xlink="http://www.w3.org/1999/xlink" overflow="hidden"><g id="Icon-Resource/Management-Governance/Res_AWS-Organizations_Account_48" stroke="none" stroke-width="1" fill="none" fill-rule="evenodd"><path d="M32 28C35.309 28 38 30.691 38 34 38 37.309 35.309 40 32 40 28.691 40 26 37.309 26 34 26 30.691 28.691 28 32 28L32 28ZM32 42C36.411 42 40 38.411 40 34 40 29.589 36.411 26 32 26 27.589 26 24 29.589 24 34 24 38.411 27.589 42 32 42L32 42ZM34 9.236 38.882 19 29.118 19 34 9.236ZM27.5 21 40.5 21C40.847 21 41.168 20.82 41.351 20.526 41.533 20.231 41.55 19.863 41.395 19.553L34.895 6.553C34.555 5.875 33.445 5.875 33.105 6.553L26.605 19.553C26.45 19.863 26.467 20.231 26.649 20.526 26.832 20.82 27.153 21 27.5 21L27.5 21ZM9 29 20 29 20 18 9 18 9 29ZM8 31 21 31C21.553 31 22 30.552 22 30L22 17C22 16.448 21.553 16 21 16L8 16C7.447 16 7 16.448 7 17L7 30C7 30.552 7.447 31 8 31L8 31ZM4 44 44 44 44 4 4 4 4 44ZM45 2 3 2C2.447 2 2 2.448 2 3L2 45C2 45.552 2.447 46 3 46L45 46C45.553 46 46 45.552 46 45L46 3C46 2.448 45.553 2 45 2L45 2Z" id="Fill-1" fill="#E7157B"/></g></svg>