<svg width="48" height="48" viewBox="0 0 48 48" xmlns="http://www.w3.org/2000/svg" xmlns:xlink="http://www.w3.org/1999/xlink" overflow="hidden"><g id="Icon-Resource/IoT/Res_AWS-IoT_Sailboat_48" stroke="none" stroke-width="1" fill="none" fill-rule="evenodd"><path d="M21.841 26.881C20.512 25.552 18.728 24.82 16.817 24.82L16.817 26.82C18.194 26.82 19.476 27.344 20.427 28.295 21.378 29.246 21.902 30.528 21.902 31.906L23.902 31.906C23.902 29.994 23.17 28.21 21.841 26.881L21.841 26.881ZM16.791 16.271 16.783 18.271C24.304 18.298 30.422 24.415 30.422 31.906L32.422 31.906C32.422 23.316 25.41 16.302 16.791 16.271L16.791 16.271ZM16.787 7.751 16.787 9.751C29.003 9.751 38.942 19.69 38.942 31.906L40.942 31.906C40.942 18.587 30.106 7.751 16.787 7.751L16.787 7.751ZM17 42 31 42 31 40 17 40 17 42ZM6 32 8 32 8 16 6 16 6 32ZM7 38C5.346 38 4 39.345 4 41 4 42.654 5.346 44 7 44 8.654 44 10 42.654 10 41 10 39.345 8.654 38 7 38L7 38ZM7 46C4.243 46 2 43.756 2 41 2 38.243 4.243 36 7 36 9.757 36 12 38.243 12 41 12 43.756 9.757 46 7 46L7 46ZM7 4C5.346 4 4 5.345 4 7 4 8.654 5.346 10 7 10 8.654 10 10 8.654 10 7 10 5.345 8.654 4 7 4L7 4ZM7 12C4.243 12 2 9.756 2 7 2 4.243 4.243 2 7 2 9.757 2 12 4.243 12 7 12 9.756 9.757 12 7 12L7 12ZM41 38C39.346 38 38 39.345 38 41 38 42.654 39.346 44 41 44 42.654 44 44 42.654 44 41 44 39.345 42.654 38 41 38L41 38ZM41 46C38.243 46 36 43.756 36 41 36 38.243 38.243 36 41 36 43.757 36 46 38.243 46 41 46 43.756 43.757 46 41 46L41 46Z" id="Fill-1" fill="#7AA116"/></g></svg>