<svg width="48" height="48" viewBox="0 0 48 48" xmlns="http://www.w3.org/2000/svg" xmlns:xlink="http://www.w3.org/1999/xlink" overflow="hidden"><g id="Icon-Resource/IoT/Res_AWS-IoT_Thing_Camera_48" stroke="none" stroke-width="1" fill="none" fill-rule="evenodd"><path d="M16.939 20.83C16.939 21.107 16.693 21.333 16.389 21.333L13.973 21.333C13.669 21.333 13.423 21.107 13.423 20.83L13.423 20.078C13.423 19.801 13.669 19.575 13.973 19.575L16.389 19.575C16.693 19.575 16.939 19.801 16.939 20.078L16.939 20.83ZM21.968 25.216C21.968 23.46 23.396 22.032 25.151 22.032 26.907 22.032 28.335 23.46 28.335 25.216 28.335 26.971 26.907 28.398 25.151 28.398 23.396 28.398 21.968 26.971 21.968 25.216ZM19.968 25.216C19.968 28.073 22.293 30.398 25.151 30.398 28.009 30.398 30.335 28.073 30.335 25.216 30.335 22.357 28.009 20.032 25.151 20.032 22.293 20.032 19.968 22.357 19.968 25.216ZM19.171 25.216C19.171 21.919 21.854 19.236 25.151 19.236 28.448 19.236 31.13 21.919 31.13 25.216 31.13 28.513 28.448 31.195 25.151 31.195 21.854 31.195 19.171 28.513 19.171 25.216ZM17.171 25.216C17.171 29.616 20.751 33.195 25.151 33.195 29.551 33.195 33.13 29.616 33.13 25.216 33.13 20.815 29.551 17.236 25.151 17.236 20.751 17.236 17.171 20.815 17.171 25.216ZM36.15 32.879C36.15 33.229 35.865 33.515 35.514 33.515L12.405 33.515C12.054 33.515 11.769 33.229 11.769 32.879L11.769 18.562C11.769 18.213 12.054 17.928 12.405 17.928L13.366 17.928C13.385 17.929 13.403 17.939 13.423 17.939L16.939 17.939C16.96 17.939 16.977 17.929 16.998 17.928L20.491 17.928C20.964 17.928 21.373 17.596 21.469 17.132L21.924 14.954C21.965 14.758 22.102 14.525 22.198 14.424L28.235 14.424C28.331 14.525 28.467 14.758 28.508 14.955L28.964 17.133C29.061 17.596 29.469 17.928 29.943 17.928L35.514 17.928C35.865 17.928 36.15 18.213 36.15 18.562L36.15 32.879ZM14.423 15.385C14.423 15.354 14.425 15.327 14.429 15.303L15.933 15.303C15.937 15.327 15.939 15.354 15.939 15.385L15.939 15.928 14.423 15.928 14.423 15.385ZM30.755 15.928 30.465 14.546C30.294 13.725 29.572 12.424 28.361 12.424L22.072 12.424C20.861 12.424 20.138 13.725 19.967 14.546L19.678 15.928 17.939 15.928 17.939 15.385C17.939 14.217 17.176 13.303 16.202 13.303L14.161 13.303C13.186 13.303 12.423 14.217 12.423 15.385L12.423 15.928 12.405 15.928C10.952 15.928 9.769 17.109 9.769 18.562L9.769 32.879C9.769 34.332 10.952 35.515 12.405 35.515L35.514 35.515C36.967 35.515 38.15 34.332 38.15 32.879L38.15 18.562C38.15 17.109 36.967 15.928 35.514 15.928L30.755 15.928ZM39.664 38.53C39.664 39.156 39.155 39.665 38.529 39.665L9.409 39.665C8.783 39.665 8.274 39.156 8.274 38.53L8.274 9.423C8.274 8.797 8.783 8.288 9.409 8.288L38.529 8.288C39.155 8.288 39.664 8.797 39.664 9.423L39.664 38.53ZM45.937 14.424 45.937 12.424 41.664 12.424 41.664 9.423C41.664 7.694 40.257 6.288 38.529 6.288L35.513 6.288 35.513 2 33.513 2 33.513 6.288 30.241 6.288 30.241 2 28.241 2 28.241 6.288 24.968 6.288 24.968 2 22.968 2 22.968 6.288 19.696 6.288 19.696 2 17.696 2 17.696 6.288 14.423 6.288 14.423 2 12.423 2 12.423 6.288 9.409 6.288C7.68 6.288 6.274 7.694 6.274 9.423L6.274 12.424 2 12.424 2 14.424 6.274 14.424 6.274 17.696 2 17.696 2 19.696 6.274 19.696 6.274 22.969 2 22.969 2 24.969 6.274 24.969 6.274 28.241 2 28.241 2 30.241 6.274 30.241 6.274 33.515 2 33.515 2 35.515 6.274 35.515 6.274 38.53C6.274 40.259 7.68 41.665 9.409 41.665L12.423 41.665 12.423 45.937 14.423 45.937 14.423 41.665 17.696 41.665 17.696 45.937 19.696 45.937 19.696 41.665 22.968 41.665 22.968 45.937 24.968 45.937 24.968 41.665 28.241 41.665 28.241 45.937 30.241 45.937 30.241 41.665 33.513 41.665 33.513 45.937 35.513 45.937 35.513 41.665 38.529 41.665C40.257 41.665 41.664 40.259 41.664 38.53L41.664 35.515 45.937 35.515 45.937 33.515 41.664 33.515 41.664 30.241 45.937 30.241 45.937 28.241 41.664 28.241 41.664 24.969 45.937 24.969 45.937 22.969 41.664 22.969 41.664 19.696 45.937 19.696 45.937 17.696 41.664 17.696 41.664 14.424 45.937 14.424Z" id="Amazon-IOT-RESOURCES-IoT-thing-camera_Resource-Icon_light-bg" fill="#7AA116"/></g></svg>