<svg width="80" height="80" viewBox="0 0 80 80" xmlns="http://www.w3.org/2000/svg" xmlns:xlink="http://www.w3.org/1999/xlink" overflow="hidden"><g id="Icon-Architecture/64/Arch_AWS-Backup_64" stroke="none" stroke-width="1" fill="none" fill-rule="evenodd"><g id="Icon-Architecture-BG/64/Storage" fill="#7AA116"><rect x="0" y="0" width="80" height="80" id="Rectangle"/></g><path d="M52.241 40.363C52.684 43.399 51.919 46.425 50.085 48.885 48.252 51.345 45.569 52.944 42.534 53.387 41.971 53.469 41.409 53.509 40.851 53.509 38.395 53.51 36.015 52.725 34.012 51.231 31.099 49.06 29.414 45.729 29.388 42.092L31.388 42.078C31.41 45.082 32.802 47.834 35.207 49.627 37.238 51.142 39.734 51.775 42.245 51.408 44.752 51.042 46.967 49.722 48.481 47.69 49.996 45.658 50.628 43.159 50.262 40.652 49.896 38.144 48.576 35.929 46.545 34.415 42.982 31.76 37.749 32.143 34.332 34.996L35.999 34.994 36.001 36.994 32.001 37 32 37C31.735 37 31.48 36.895 31.293 36.707 31.105 36.52 31 36.265 31 36L31 32.013 33 32.013 33 33.513C34.667 32.11 36.739 31.141 38.968 30.78 42.125 30.269 45.322 31.009 47.74 32.812 50.2 34.645 51.799 37.327 52.241 40.363M54 58C53.544 58 53.084 58.065 52.638 58.19L49.801 54.4 48.199 55.599 50.833 59.115C49.975 59.798 49.327 60.774 49.095 62L30.917 62C30.717 60.739 30.123 59.736 29.238 59.044L31.803 55.596 30.197 54.403 27.389 58.177C26.954 58.076 26.498 58.005 26 58.005 25.57 58.005 25.168 58.054 24.783 58.13L18.964 38.683C19.848 38.379 20.554 37.85 21.068 37.141L25.635 38.931 26.365 37.069 21.858 35.302C21.942 34.893 22 34.465 22 34 22 32.904 21.736 31.955 21.267 31.181L36.351 20.623C37.022 21.298 37.925 21.741 39 21.911L39 27 41 27 41 21.914C42.091 21.749 42.996 21.314 43.665 20.641L58.694 31.3C58.255 32.057 58 32.964 58 34 58 34.42 58.056 34.843 58.16 35.259L53.629 37.071 54.371 38.928 59.011 37.072C59.617 37.889 60.493 38.529 61.617 38.821L54.303 58.025C54.2 58.02 54.105 58 54 58M54 66C52.037 66 51 64.962 51 63 51 61.122 52.525 60 54 60 55.934 60 57 61.065 57 63 57 64.962 55.963 66 54 66M26 66C24.094 66 23 64.906 23 63 23 61.069 24.065 60.005 26 60.005 28.479 60.005 29 61.634 29 63 29 64.934 27.934 66 26 66M14 34C14 32.065 15.065 31 17 31 18.934 31 20 32.065 20 34 20 35.962 18.963 37 17 37 15.01 37 14 35.99 14 34M40 14C41.963 14 43 15.037 43 17 43 18.959 41.963 19.994 40 19.994 38.065 19.994 37 18.931 37 17 37 15.065 38.065 14 40 14M63 31C64.934 31 66 32.065 66 34 66 35.934 64.934 37 63 37 61.052 37 60 35.454 60 34 60 32.093 61.094 31 63 31M68 34C68 30.962 66.037 29 63 29 61.86 29 60.866 29.295 60.068 29.822L44.695 18.92C44.887 18.344 45 17.707 45 17 45 13.916 43.084 12 40 12 36.963 12 35 13.962 35 17 35 17.699 35.115 18.334 35.312 18.908L19.837 29.741C19.059 29.265 18.103 29 17 29 13.963 29 12 30.962 12 34 12 37.073 13.904 38.985 16.97 38.997L22.929 58.909C21.714 59.766 21 61.184 21 63 21 66.037 22.963 68 26 68 28.687 68 30.527 66.459 30.917 64L49.083 64C49.472 66.459 51.312 68 54 68 57.037 68 59 66.037 59 63 59 60.817 57.974 59.204 56.277 58.461L63.712 38.941C66.333 38.651 68 36.789 68 34" id="AWS-Backup_Icon_64_Squid" fill="#FFFFFF"/></g></svg>