<svg width="48" height="48" viewBox="0 0 48 48" xmlns="http://www.w3.org/2000/svg" xmlns:xlink="http://www.w3.org/1999/xlink" fill="none" overflow="hidden"><path d="M23.8945 14.6582C18.3698 14.6582 12.4553 16.0234 12.0402 19L12 19 12 39.9897C12 43.0571 18.0381 44.6621 24.0019 44.6621 29.9639 44.6621 36 43.0571 36 39.9897L36 19 35.9586 19C35.5319 16.1506 29.6871 14.6582 23.8945 14.6582ZM23.8945 16.6582C30.5615 16.6582 34 18.5317 34 19.331 34 20.1304 30.5615 22.0039 23.8945 22.0039 17.4922 22.0039 14 20.2383 14 19.331 14 18.4238 17.4922 16.6582 23.8945 16.6582ZM31.2637 30.0156C32.373 29.7123 33.2787 29.3605 34 28.9666L34 33.3647C34 33.54 33.4463 34.3472 30.7363 35.0874L31.2637 37.0171C32.373 36.7137 33.2787 36.3619 34 35.9681L34 39.9897C34 40.9316 30.2041 42.6621 24.0019 42.6621 17.7978 42.6621 14 40.9316 14 39.9897L14 35.9763C14.7213 36.3709 15.627 36.7229 16.7363 37.0259L17.2637 35.0962C14.5537 34.3564 14 33.5425 14 33.3647L14 28.9748C14.7213 29.3694 15.627 29.7214 16.7363 30.0244L17.2637 28.0947C14.5537 27.355 14 26.541 14 26.3633L14 22.0709C16.2806 23.3826 20.1744 24.0039 23.8945 24.0039 27.7959 24.0039 31.7176 23.3247 34 22.0133L34 26.3633C34 26.5386 33.4463 27.3457 30.7363 28.0859L31.2637 30.0156ZM21.333 14 21.333 10 18.333 10 18.333 14 16.333 14 16.333 9C16.333 8.44775 16.7803 8 17.333 8L22.333 8C22.8857 8 23.333 8.44775 23.333 9L23.333 14 21.333 14ZM29.667 14 29.667 10 26.667 10 26.667 14 24.667 14 24.667 9C24.667 8.44775 25.1143 8 25.667 8L30.667 8C31.2197 8 31.667 8.44775 31.667 9L31.667 14 29.667 14ZM38 21 38 10 35 10 35 15 33 15 33 9C33 8.44775 33.4473 8 34 8L39 8C39.5527 8 40 8.44775 40 9L40 22C40 22.5523 39.5527 23 39 23L37 23 37 21 38 21ZM10 21 11 21 11 23 9 23C8.44727 23 8 22.5523 8 22L8 9C8 8.44775 8.44727 8 9 8L14 8C14.5527 8 15 8.44775 15 9L15 15 13 15 13 10 10 10 10 21ZM43.5 11.5C43.5 12.3271 44.1729 13 45 13 45.5527 13 46 13.4477 46 14L46 30C46 30.5523 45.5527 31 45 31L37 31 37 29 41 29 41 27 37 27 37 25 42 25C42.5527 25 43 25.4477 43 26L43 29 44 29 44 14.8545C42.5557 14.4233 41.5 13.0825 41.5 11.5 41.5 9.91748 42.5557 8.57666 44 8.14551L44 6 4 6 4 8.14551C5.44434 8.57666 6.5 9.91748 6.5 11.5 6.5 13.0825 5.44434 14.4233 4 14.8545L4 29 5 29 5 26C5 25.4477 5.44727 25 6 25L11 25 11 27 7 27 7 29 11 29 11 31 3 31C2.44727 31 2 30.5523 2 30L2 14C2 13.4477 2.44727 13 3 13 3.82715 13 4.5 12.3271 4.5 11.5 4.5 10.6729 3.82715 10 3 10 2.44727 10 2 9.55225 2 9L2 5C2 4.44775 2.44727 4 3 4L45 4C45.5527 4 46 4.44775 46 5L46 9C46 9.55225 45.5527 10 45 10 44.1729 10 43.5 10.6729 43.5 11.5ZM29.5 27.1983 29.5 27.595 25.3241 38.6033C25.3241 38.9008 25.0185 39 24.8148 39L23.1852 39C22.8796 39 22.7778 38.9008 22.6759 38.6033L18.5 27.595 18.5 27.1983C18.5 27 18.6019 27 18.8055 27L20.3333 27C20.537 27 20.7407 27.0992 20.8426 27.2975L24 36.8182 27.1574 27.2975C27.1574 27.0992 27.3611 27 27.6667 27L29.1945 27C29.3981 27 29.5 27 29.5 27.1983Z" fill="#C925D1" fill-rule="evenodd" clip-rule="evenodd"/></svg>