<svg width="48" height="48" viewBox="0 0 48 48" xmlns="http://www.w3.org/2000/svg" xmlns:xlink="http://www.w3.org/1999/xlink" fill="none" overflow="hidden"><path d="M45 32 27 32C26.45 32 26 32.4339 26 32.9839L26 44.9839C26 45.5361 26.4477 46 27 46L45 46C45.5523 46 46 45.5361 46 44.9839L46 32.9839C46 32.4316 45.5523 32 45 32ZM32 44 28 44 28 42 32 42 32 44ZM32 40 28 40 28 38 32 38 32 40ZM32 36 28 36 28 34 32 34 32 36ZM38 44 34 44 34 42 38 42 38 44ZM38 40 34 40 34 38 38 38 38 40ZM38 36 34 36 34 34 38 34 38 36ZM44 44 40 44 40 42 44 42 44 44ZM44 40 40 40 40 38 44 38 44 40ZM44 36 40 36 40 34 44 34 44 36ZM44.0039 26.6357C43.7769 25.423 42.3367 24.1434 39.3459 22.4919L41 8.5C41 4.91016 32.2695 2 21.5 2 10.7305 2 2 4.91016 2 8.5L6.03711 41.5552C6.16699 45.0488 15.7812 46 21.5 46 22.2717 46 23.1181 45.9649 24 45.9269L24 43.9281C23.2023 43.962 22.3743 44 21.5 44 13.2148 44 8.34082 42.3359 8.03613 41.4839 8.03613 41.4439 8.03418 41.4033 8.02929 41.3638L4.38177 11.6137C7.69165 13.6312 14.1153 15 21.5 15 28.8919 15 35.3218 13.6287 38.6288 11.608L36.9288 25.84C32.4574 24.392 26.6908 21.7861 24.03 20.5453 24.0305 20.5244 24 20.5211 24 20.5 24 19.1011 22.8789 18 21.5 18 20.1211 18 19 19.1011 19 20.5 19 21.8989 20.1211 23 21.5 23 22.1408 23 22.756 22.7677 23.1988 22.3643 25.9741 23.658 32.0577 26.4052 36.684 27.8633L36.4274 30 38.4378 30 38.6279 28.4157C39.8082 28.713 40.7739 28.871 41.5342 28.8706 42.5244 28.8706 43.1914 28.6182 43.6162 28.1118 43.9658 27.6953 44.1035 27.1714 44.0039 26.6357ZM21.5 21C21.2246 21 21 20.7757 21 20.5 21 20.2243 21.2246 20 21.5 20 21.7754 20 22 20.2243 22 20.5 22 20.7757 21.7754 21 21.5 21ZM21.5 13C11.835 13 4 10.9853 4 8.5 4 6.01471 11.835 4 21.5 4 31.165 4 39 6.01471 39 8.5 39 10.9853 31.165 13 21.5 13ZM38.8704 26.4144 39.0849 24.645C41.1271 25.8399 41.7662 26.544 41.9561 26.8389 41.6422 26.8978 40.8038 26.9213 38.8704 26.4144Z" fill="#7AA116"/></svg>