<svg width="80" height="80" viewBox="0 0 80 80" xmlns="http://www.w3.org/2000/svg" xmlns:xlink="http://www.w3.org/1999/xlink" overflow="hidden"><g id="Icon-Architecture/64/Arch_Amazon-Deadline-Cloud_64" stroke="none" stroke-width="1" fill="none" fill-rule="evenodd"><g id="Icon-Architecture-BG/64/Media-Services" fill="#ED7100"><rect x="0" y="0" width="80" height="80" id="Rectangle"/></g><g id="Icon-Service/64/Amazon-Deadline-Cloud_64" fill="#FFFFFF" transform="translate(15 12)"><path d="M40 20.0005 40 32.0005 38.136 32.0005 38 31.9185 38 20.6185 25 14.1185 12 20.6185 12 35.4015 24.506 42.0995C24.507 42.1255 24.51 42.1515 24.512 42.1775L23.6 43.8815 10.528 36.8815C10.203 36.7085 10 36.3695 10 36.0005L10 20.0005C10 19.6215 10.214 19.2755 10.553 19.1055L24.553 12.1055C24.834 11.9655 25.166 11.9655 25.447 12.1055L39.447 19.1055C39.786 19.2755 40 19.6215 40 20.0005L40 20.0005ZM36.999 41.4345 32.999 43.8345 29 41.4345 29 36.5665 33 34.1665 37 36.5665 36.999 41.4345ZM24 27.5665 28 25.1665 32 27.5665 31.999 32.4345 27.999 34.8345 24 32.4345 24 27.5665ZM38.515 35.1435 33.999 32.4335 34 27.0005C34 26.6495 33.815 26.3235 33.515 26.1435L28.515 23.1435C28.198 22.9525 27.802 22.9525 27.485 23.1435L22.485 26.1435C22.185 26.3235 22 26.6495 22 27.0005L22 33.0005C22 33.3515 22.185 33.6775 22.485 33.8575L27 36.5675 27 42.0005C27 42.3515 27.185 42.6775 27.485 42.8575L32.484 45.8575C32.643 45.9535 32.821 46.0005 32.999 46.0005 33.177 46.0005 33.355 45.9535 33.514 45.8575L38.514 42.8575C38.814 42.6775 38.999 42.3525 38.999 42.0005L39 36.0005C39 35.6495 38.815 35.3235 38.515 35.1435L38.515 35.1435ZM25.439 6.1155 44.465 16.1155C44.794 16.2885 45 16.6285 45 17.0005L45 39.0005C45 39.3715 44.795 39.7115 44.466 39.8855L41.499 41.4485 41.5 39.1875 43 38.3965 43 17.6045 24.976 8.1305 7 17.6045 7 38.3965 25.024 47.8705 28.195 46.1995 30.201 47.4035 25.491 49.8855C25.346 49.9615 25.186 50.0005 25.025 50.0005 24.865 50.0005 24.706 49.9625 24.561 49.8855L5.535 39.8855C5.206 39.7125 5 39.3725 5 39.0005L5 17.0005C5 16.6295 5.205 16.2895 5.534 16.1155L24.509 6.1155C24.8 5.9625 25.148 5.9615 25.439 6.1155L25.439 6.1155ZM48 41.4045 25 53.8635 2 41.4045 2 14.5965 25 2.1375 48 14.5965 48 41.4045ZM49.477 13.1215 25.477 0.1215C25.18-0.0405 24.82-0.0405 24.523 0.1215L0.523 13.1215C0.201 13.2955 0 13.6335 0 14.0005L0 42.0005C0 42.3675 0.201 42.7055 0.523 42.8795L24.523 55.8795C24.672 55.9605 24.836 56.0005 25 56.0005 25.164 56.0005 25.328 55.9605 25.477 55.8795L49.477 42.8795C49.799 42.7055 50 42.3675 50 42.0005L50 14.0005C50 13.6335 49.799 13.2955 49.477 13.1215L49.477 13.1215Z" id="Fill-7"/></g></g></svg>