<svg width="48" height="48" viewBox="0 0 48 48" xmlns="http://www.w3.org/2000/svg" xmlns:xlink="http://www.w3.org/1999/xlink" overflow="hidden"><g id="Icon-Resource/Analytics/Res_Amazon-Redshift_RA3_48" stroke="none" stroke-width="1" fill="none" fill-rule="evenodd"><path d="M40 17 44 17 44 13 40 13 40 17ZM26.069 17.883 30.369 10 33 10C33.133 10 33.258 9.971 33.373 9.925L38 13.401 38 14.702 26.069 17.883ZM36.826 28.035 36.802 28.035C36.802 29.911 31.544 32 24 32 16.929 32 11.946 30.24 11.07 28.524 11.267 26.456 16.059 24.22 23 24.02L23 29 25 29 25 24.02C31.411 24.204 35.99 26.115 36.826 28.035L36.826 28.035ZM24 44C16.015 44 11.072 41.794 11.072 39.75L11.072 39.748 11.056 31.266C13.879 33.135 19.071 34 24 34 29.147 34 34.33 32.993 36.983 31.048L37 39.75C37 41.794 32.029 44 24 44L24 44ZM10 13.301 14.708 9.941C14.802 9.97 14.896 10 15 10L17.781 10 22.081 17.883 10 14.662 10 13.301ZM4 17 8 17 8 13 4 13 4 17ZM16 4 20 4 20 8 18.969 8 18.953 7.971 18.9 8 16 8 16 4ZM22 9 22 7 26 7 26 9C26 9.552 26.447 10 27 10L28.091 10 24.075 17.362 20.06 10 21 10C21.553 10 22 9.552 22 9L22 9ZM28 4 32 4 32 8 29.25 8 29.197 7.971 29.182 8 28 8 28 4ZM45 11 39 11C38.776 11 38.581 11.087 38.414 11.211L34 7.895 34 3C34 2.448 33.553 2 33 2L27 2C26.447 2 26 2.448 26 3L26 5 22 5 22 3C22 2.448 21.553 2 21 2L15 2C14.447 2 14 2.448 14 3L14 7.989 9.534 11.176C9.377 11.074 9.201 11 9 11L3 11C2.447 11 2 11.448 2 12L2 18C2 18.552 2.447 19 3 19L9 19C9.553 19 10 18.552 10 18L10 16.732 23 20.199 23 22.021C14.982 22.236 9.051 25.012 9.051 28.657L9.051 28.816 9.037 28.82C9.041 28.833 9.048 28.843 9.051 28.855L9.072 39.752C9.074 43.489 15.073 46 24 46 31.466 46 39 44.067 39 39.748L38.979 28.655C38.979 25.012 33.034 22.236 25 22.021L25 20.239 38 16.772 38 18C38 18.552 38.447 19 39 19L45 19C45.553 19 46 18.552 46 18L46 12C46 11.448 45.553 11 45 11L45 11ZM29.127 41.836C28.659 41.836 28.212 41.722 27.786 41.494L27.786 40.792C28.29 41.002 28.722 41.107 29.082 41.107 29.43 41.107 29.697 41.004 29.883 40.797 30.069 40.59 30.162 40.297 30.162 39.919 30.162 39.559 30.073 39.283 29.896 39.091 29.72 38.899 29.46 38.803 29.118 38.803 28.938 38.803 28.722 38.818 28.47 38.848L28.47 38.272 29.955 36.202 27.858 36.202 27.858 35.482 30.81 35.482 30.81 36.148 29.379 38.137C29.877 38.143 30.274 38.307 30.571 38.628 30.868 38.949 31.017 39.379 31.017 39.919 31.017 40.513 30.849 40.981 30.513 41.323 30.177 41.665 29.715 41.836 29.127 41.836L29.127 41.836ZM23.322 39.37 24.871 39.37 24.097 36.319 23.322 39.37ZM25.474 41.719 25.042 40.036 23.16 40.036 22.737 41.719 21.847 41.719 23.646 35.482 24.592 35.482 26.392 41.719 25.474 41.719ZM17.688 38.506 18.58 38.506C18.874 38.506 19.101 38.404 19.259 38.2 19.418 37.996 19.498 37.705 19.498 37.327 19.498 36.955 19.42 36.67 19.264 36.472 19.107 36.274 18.889 36.175 18.606 36.175L17.688 36.175 17.688 38.506ZM16.852 41.719 16.852 35.482 18.696 35.482C19.201 35.482 19.605 35.647 19.912 35.977 20.218 36.307 20.371 36.754 20.371 37.318 20.371 37.727 20.277 38.079 20.092 38.376 19.905 38.673 19.642 38.893 19.3 39.037L20.677 41.719 19.741 41.719 18.49 39.199 17.688 39.199 17.688 41.719 16.852 41.719Z" id="Fill-1" fill="#8C4FFF"/></g></svg>