<svg width="80" height="80" viewBox="0 0 80 80" xmlns="http://www.w3.org/2000/svg" xmlns:xlink="http://www.w3.org/1999/xlink" overflow="hidden"><g id="Icon-Architecture/64/Arch_Amazon-DynamoDB_64" stroke="none" stroke-width="1" fill="none" fill-rule="evenodd"><g id="Icon-Architecture-BG/64/Database" fill="#C925D1"><rect x="0" y="0" width="80" height="80" id="Rectangle"/></g><path d="M52.086 54.8503C48.748 57.549 41.745 58.9753 35.044 58.9753 28.342 58.9753 21.337 57.548 18 54.8493L18 60.2845 18.001 60.2845C18.001 62.9952 25 66.0163 35.044 66.0163 45.08 66.0163 52.075 62.9992 52.086 60.2905L52.086 54.8503ZM52.087 44.5223 54.0869 44.5114 54.0869 44.5223C54.0869 45.7303 53.4819 46.858 52.304 47.8905 53.7319 49.1472 54.0869 50.3801 54.0869 51.2578 54.0869 51.2638 54.0859 51.2687 54.0859 51.2747L54.0859 60.2845 54.0869 60.2845C54.0869 65.2953 44.275 68 35.044 68 25.835 68 16.05 65.3072 16.003 60.3192 16.003 60.3143 16 60.3093 16 60.3044L16 51.2548C16 51.2529 16.002 51.2499 16.002 51.2469 16.005 50.3691 16.361 49.1412 17.787 47.8876 16.37 46.6359 16.01 45.4149 16.001 44.5441L16.002 44.5441C16.002 44.5401 16 44.5372 16 44.5332L16 35.4837C16 35.4807 16.002 35.4777 16.002 35.4748 16.005 34.597 16.362 33.3691 17.788 32.1174 16.37 30.8647 16.01 29.6428 16.001 28.7729L16.002 28.7729C16.002 28.769 16 28.765 16 28.761L16 19.7125C16 19.7095 16.002 19.7066 16.002 19.7036 16.019 14.6998 25.82 12 35.044 12 40.255 12 45.261 12.8282 48.778 14.2723L48.013 16.1052C44.73 14.7573 40.003 13.9837 35.044 13.9837 25 13.9837 18.001 17.0048 18.001 19.7175 18.001 22.4291 25 25.4503 35.044 25.4503 35.315 25.4533 35.58 25.4503 35.848 25.4404L35.932 27.422C35.636 27.4339 35.34 27.4339 35.044 27.4339 28.342 27.4339 21.337 26.0067 18 23.3079L18 28.7402 18.001 28.7402 18.001 28.763C18.011 29.8034 19.078 30.712 19.972 31.2892 22.662 33.0041 27.482 34.1754 32.857 34.4184L32.766 36.4001C27.321 36.1532 22.553 35.0235 19.484 33.2917 18.728 33.8571 18.001 34.6218 18.001 35.4886 18.001 38.2003 25 41.2214 35.044 41.2214 36.029 41.2214 37.007 41.1887 37.952 41.1233L38.091 43.102C37.101 43.1704 36.075 43.2051 35.044 43.2051 28.342 43.2051 21.337 41.7779 18 39.0791L18 44.5114 18.001 44.5114C18.011 45.5746 19.078 46.4821 19.972 47.0604 23.048 49.0232 28.824 50.2452 35.044 50.2452L35.484 50.2452 35.484 52.2288 35.044 52.2288C28.725 52.2288 22.982 51.0555 19.47 49.0728 18.718 49.6372 18.001 50.3979 18.001 51.2578 18.001 53.9695 25 56.9916 35.044 56.9916 45.08 56.9916 52.075 53.9745 52.086 51.2648L52.086 51.2548 52.086 51.2539C52.084 50.392 51.364 49.6312 50.61 49.0669 50.122 49.3436 49.599 49.6104 49.004 49.8554L48.238 48.0225C48.964 47.7239 49.594 47.4016 50.111 47.0624 51.013 46.4742 52.087 45.5548 52.087 44.5223L52.087 44.5223ZM60.6529 30.0167 55.049 30.0167C54.7179 30.0167 54.4069 29.854 54.222 29.5823 54.035 29.3105 53.9969 28.9643 54.1189 28.6599L57.5279 20.138 44.619 20.138 38.619 32.04 45.001 32.04C45.32 32.04 45.62 32.1918 45.809 32.4467 45.996 32.7026 46.051 33.0309 45.954 33.3334L40.258 51.0892 60.6529 30.0167ZM63.7219 29.7122 38.723 55.5396C38.528 55.7399 38.266 55.8441 38.001 55.8441 37.825 55.8441 37.648 55.7994 37.49 55.7052 37.09 55.4692 36.907 54.9921 37.048 54.5517L43.634 34.0237 37.001 34.0237C36.654 34.0237 36.333 33.8462 36.15 33.5536 35.968 33.261 35.951 32.896 36.107 32.5885L43.107 18.7028C43.276 18.3666 43.622 18.1543 44.001 18.1543L59.0009 18.1543C59.3319 18.1543 59.6429 18.318 59.8279 18.5888 60.0149 18.8615 60.0529 19.2067 59.9309 19.5122L56.5219 28.033 62.9999 28.033C63.3999 28.033 63.7629 28.2711 63.9199 28.636 64.0769 29.002 63.9989 29.4256 63.7219 29.7122L63.7219 29.7122ZM19.455 60.6743C20.872 61.4727 22.656 62.1442 24.757 62.6679L25.245 60.7437C23.346 60.2706 21.686 59.6497 20.443 58.9495L19.455 60.6743ZM24.757 46.7985 25.245 44.8754C23.346 44.4013 21.686 43.7804 20.443 43.0801L19.455 44.8049C20.872 45.6034 22.655 46.2748 24.757 46.7985L24.757 46.7985ZM19.455 28.9356 20.443 27.2108C21.684 27.911 23.345 28.5309 25.245 29.006L24.757 30.9292C22.653 30.4045 20.87 29.733 19.455 28.9356L19.455 28.9356Z" id="Amazon-DynamoDB_Icon_64_Squid" fill="#FFFFFF"/></g></svg>