<svg width="80" height="80" viewBox="0 0 80 80" xmlns="http://www.w3.org/2000/svg" xmlns:xlink="http://www.w3.org/1999/xlink" overflow="hidden"><g id="Icon-Architecture/64/Arch_AWS-IoT-Device-Defender_64" stroke="none" stroke-width="1" fill="none" fill-rule="evenodd"><g id="Icon-Architecture-BG/64/Internet-of-Things" fill="#7AA116"><rect x="0" y="0" width="80" height="80" id="Rectangle"/></g><path d="M40 30.0123C42.206 30.0123 44 28.2189 44 26.0137 44 23.8084 42.206 22.015 40 22.015 37.794 22.015 36 23.8084 36 26.0137 36 28.2189 37.794 30.0123 40 30.0123L40 30.0123ZM27 41.0087C27 38.8034 25.206 37.01 23 37.01 20.794 37.01 19 38.8034 19 41.0087 19 43.2139 20.794 45.0073 23 45.0073 25.206 45.0073 27 43.2139 27 41.0087L27 41.0087ZM53 41.0087C53 43.2139 54.794 45.0073 57 45.0073 59.206 45.0073 61 43.2139 61 41.0087 61 38.8034 59.206 37.01 57 37.01 54.794 37.01 53 38.8034 53 41.0087L53 41.0087ZM46 42.0083 46 61.9327 57.871 56.0886C59.799 55.125 61 53.1866 61 51.0313L61 49.006 63 49.006 63 51.0313C63 53.9483 61.375 56.5725 58.76 57.879L40.441 66.897C40.303 66.966 40.151 67 40 67 39.841 67 39.683 66.962 39.538 66.887L22.226 57.872C19.625 56.5725 18 53.9483 18 51.0313L18 49.006 20 49.006 20 51.0313C20 53.1866 21.201 55.125 23.135 56.0906L34 61.7487 34 42.0083 28.91 42.0083C28.432 44.8404 25.967 47.0067 23 47.0067 19.691 47.0067 17 44.3166 17 41.0087 17 37.7008 19.691 35.0107 23 35.0107 25.967 35.0107 28.432 37.1769 28.91 40.009L35 40.009C35.553 40.009 36 40.4568 36 41.0087L36 62.7904 38.997 64.3509 39 31.9217C36.167 31.4439 34 28.9797 34 26.0137 34 22.7058 36.691 20.0157 40 20.0157 43.309 20.0157 46 22.7058 46 26.0137 46 28.9797 43.833 31.4439 41 31.9217L40.997 64.3949 44 62.9174 44 41.0087C44 40.4568 44.447 40.009 45 40.009L51.09 40.009C51.568 37.1769 54.033 35.0107 57 35.0107 60.309 35.0107 63 37.7008 63 41.0087 63 44.3166 60.309 47.0067 57 47.0067 54.033 47.0067 51.568 44.8404 51.09 42.0083L46 42.0083ZM63 19.5068 63 34.011 61 34.011 61 20.4935C52.083 20.3116 42.847 18.5861 39.936 15.8481 36.933 18.3932 28.088 20.2796 20 20.4895L20 34.011 18 34.011 18 19.5068C18 18.958 18.442 18.5122 18.991 18.5072 30.407 18.4072 38.57 15.2942 39 13.9937 39.001 13.9587 39.004 13.9257 39.008 13.8927 39.053 13.3839 39.479 13 40.002 13 40.554 13 41 13.4658 41 14.0177 41.248 15.2682 48.919 18.4102 62.008 18.5072 62.557 18.5112 63 18.958 63 19.5068L63 19.5068Z" id="AWS-IoT-Device-Defender_Icon_64_Squid" fill="#FFFFFF"/></g></svg>