<svg width="48" height="48" viewBox="0 0 48 48" xmlns="http://www.w3.org/2000/svg" xmlns:xlink="http://www.w3.org/1999/xlink" overflow="hidden"><g id="Icon-Resource/Machine-Learning/Res_Amazon-SageMaker_Model_48" stroke="none" stroke-width="1" fill="none" fill-rule="evenodd"><path d="M29.9559 29.8297C29.9559 30.3157 29.5599 30.7117 29.0749 30.7117 28.5889 30.7117 28.1929 30.3157 28.1929 29.8297 28.1929 29.3447 28.5889 28.9487 29.0749 28.9487 29.5599 28.9487 29.9559 29.3447 29.9559 29.8297L29.9559 29.8297ZM32.8379 11.8947C32.3519 11.8947 31.9559 11.4997 31.9559 11.0137 31.9559 10.5267 32.3519 10.1317 32.8379 10.1317 33.3239 10.1317 33.7199 10.5267 33.7199 11.0137 33.7199 11.4997 33.3239 11.8947 32.8379 11.8947L32.8379 11.8947ZM29.4189 20.6907C29.4189 21.1767 29.0229 21.5717 28.5369 21.5717 28.0509 21.5717 27.6549 21.1767 27.6549 20.6907 27.6549 20.2047 28.0509 19.8087 28.5369 19.8087 29.0229 19.8087 29.4189 20.2047 29.4189 20.6907L29.4189 20.6907ZM34.1059 36.2817C34.1059 35.7957 34.5019 35.3997 34.9879 35.3997 35.4749 35.3997 35.8699 35.7957 35.8699 36.2817 35.8699 36.7667 35.4749 37.1627 34.9879 37.1627 34.5019 37.1627 34.1059 36.7667 34.1059 36.2817L34.1059 36.2817ZM38.5299 31.3027C38.2149 31.4787 38.0199 31.8117 38.0199 32.1737L38.0199 38.3647 30.8809 42.5867 30.8809 37.5507 32.4139 37.5507C32.8859 38.5017 33.8559 39.1627 34.9879 39.1627 36.5769 39.1627 37.8699 37.8707 37.8699 36.2817 37.8699 34.6927 36.5769 33.3997 34.9879 33.3997 33.6539 33.3997 32.5379 34.3167 32.2119 35.5507L29.8809 35.5507C29.3279 35.5507 28.8809 35.9977 28.8809 36.5507L28.8809 43.7687 28.4759 44.0087 24.9679 41.9757 24.9679 16.0457 27.8059 16.0457 27.8059 17.9147C26.5719 18.2407 25.6549 19.3557 25.6549 20.6907 25.6549 22.2797 26.9479 23.5717 28.5369 23.5717 30.1259 23.5717 31.4189 22.2797 31.4189 20.6907 31.4189 19.5587 30.7569 18.5877 29.8059 18.1167L29.8059 16.0457 33.1059 16.0457C33.6589 16.0457 34.1059 15.5987 34.1059 15.0457L34.1059 13.5877C35.0579 13.1167 35.7199 12.1447 35.7199 11.0137 35.7199 9.4247 34.4269 8.1317 32.8379 8.1317 31.2489 8.1317 29.9559 9.4247 29.9559 11.0137 29.9559 12.3487 30.8729 13.4637 32.1059 13.7897L32.1059 14.0457 24.9679 14.0457 24.9679 6.8037 29.3659 4.1697 38.5579 9.7737 38.5589 15.9377C38.5589 16.2987 38.7519 16.6307 39.0649 16.8087L43.9339 19.5687 43.9349 22.6467 34.7199 22.6467C34.1669 22.6467 33.7199 23.0947 33.7199 23.6467L33.7199 28.5607 31.6489 28.5607C31.1779 27.6097 30.2069 26.9487 29.0749 26.9487 27.4859 26.9487 26.1929 28.2407 26.1929 29.8297 26.1929 31.4187 27.4859 32.7117 29.0749 32.7117 30.4099 32.7117 31.5239 31.7947 31.8509 30.5607L34.7199 30.5607C35.2719 30.5607 35.7199 30.1137 35.7199 29.5607L35.7199 24.6467 43.9349 24.6467 43.9349 28.2597 38.5299 31.3027ZM17.2469 28.4107C17.7329 28.4107 18.1289 28.8067 18.1289 29.2927 18.1289 29.7787 17.7329 30.1747 17.2469 30.1747 16.7609 30.1747 16.3649 29.7787 16.3649 29.2927 16.3649 28.8067 16.7609 28.4107 17.2469 28.4107L17.2469 28.4107ZM15.8279 12.6267C15.8279 12.1407 16.2239 11.7447 16.7099 11.7447 17.1949 11.7447 17.5909 12.1407 17.5909 12.6267 17.5909 13.1127 17.1949 13.5087 16.7099 13.5087 16.2239 13.5087 15.8279 13.1127 15.8279 12.6267L15.8279 12.6267ZM12.2149 20.6907C12.2149 21.1767 11.8189 21.5717 11.3329 21.5717 10.8479 21.5717 10.4519 21.1767 10.4519 20.6907 10.4519 20.2047 10.8479 19.8087 11.3329 19.8087 11.8189 19.8087 12.2149 20.2047 12.2149 20.6907L12.2149 20.6907ZM17.4399 37.8937C17.4399 37.4077 17.8359 37.0127 18.3219 37.0127 18.8089 37.0127 19.2039 37.4077 19.2039 37.8937 19.2039 38.3807 18.8089 38.7757 18.3219 38.7757 17.8359 38.7757 17.4399 38.3807 17.4399 37.8937L17.4399 37.8937ZM18.9119 44.0027 9.3759 38.3627 9.3769 32.1727C9.3769 31.8087 9.1789 31.4727 8.8589 31.2967L8.5009 31.0997 11.1399 31.0997 11.1399 38.1627C11.1399 38.7157 11.5869 39.1627 12.1399 39.1627L15.7479 39.1627C16.2189 40.1137 17.1899 40.7757 18.3219 40.7757 19.9109 40.7757 21.2039 39.4827 21.2039 37.8937 21.2039 36.3057 19.9109 35.0127 18.3219 35.0127 16.9879 35.0127 15.8719 35.9297 15.5459 37.1627L13.1399 37.1627 13.1399 30.0997C13.1399 29.5467 12.6919 29.0997 12.1399 29.0997L4.8639 29.0997 4.0009 28.6247 3.9999 19.5677 8.8689 16.8067C9.1829 16.6287 9.3759 16.2967 9.3759 15.9357L9.3769 13.3567 10.6019 13.3567 10.6019 17.9147C9.3689 18.2407 8.4519 19.3557 8.4519 20.6907 8.4519 22.2797 9.7439 23.5717 11.3329 23.5717 12.9219 23.5717 14.2149 22.2797 14.2149 20.6907 14.2149 19.5597 13.5539 18.5887 12.6019 18.1167L12.6019 13.3567 13.9339 13.3567C14.2599 14.5917 15.3749 15.5087 16.7099 15.5087 18.2989 15.5087 19.5909 14.2157 19.5909 12.6267 19.5909 11.0377 18.2989 9.7447 16.7099 9.7447 15.5789 9.7447 14.6069 10.4057 14.1359 11.3567L9.3769 11.3567 9.3769 9.7717 18.5679 4.1687 22.9679 6.8027 22.9679 18.3467 16.9779 18.3467C16.4259 18.3467 15.9779 18.7937 15.9779 19.3467L15.9779 26.7187C15.0269 27.1887 14.3649 28.1607 14.3649 29.2927 14.3649 30.8817 15.6579 32.1747 17.2469 32.1747 18.8359 32.1747 20.1289 30.8817 20.1289 29.2927 20.1289 27.9577 19.2119 26.8427 17.9779 26.5167L17.9779 20.3467 22.9679 20.3467 22.9679 41.5897 18.9119 44.0027ZM45.9339 18.9867C45.9339 18.6267 45.7399 18.2947 45.4269 18.1167L40.5589 15.3557 40.5579 9.2127C40.5579 8.8637 40.3759 8.5407 40.0779 8.3587L29.8919 2.1477C29.5739 1.9547 29.1769 1.9517 28.8569 2.1427L23.9689 5.0697 19.0769 2.1427C18.7569 1.9507 18.3589 1.9527 18.0429 2.1467L7.8559 8.3567C7.5589 8.5387 7.3769 8.8617 7.3769 9.2107L7.3759 15.3537 2.5069 18.1157C2.1929 18.2937 1.9999 18.6257 1.9999 18.9857L2.0009 29.2157C2.0009 29.5807 2.1989 29.9157 2.5179 30.0917L7.3769 32.7637 7.3759 38.9337C7.3759 39.2867 7.5619 39.6137 7.8669 39.7937L18.4049 46.0257C18.7209 46.2127 19.1099 46.2127 19.4259 46.0247L23.6399 43.5177 27.9789 46.0317C28.1339 46.1217 28.3079 46.1667 28.4799 46.1667 28.6559 46.1667 28.8319 46.1197 28.9889 46.0267L39.5289 39.7957C39.8339 39.6157 40.0199 39.2887 40.0199 38.9347L40.0199 32.7587 45.4249 29.7157C45.7399 29.5387 45.9349 29.2057 45.9349 28.8447L45.9339 18.9867Z" id="Amazon-Machine-Learning_Model-Icon_light-bg" fill="#01A88D"/></g></svg>