<svg width="48" height="48" viewBox="0 0 48 48" xmlns="http://www.w3.org/2000/svg" xmlns:xlink="http://www.w3.org/1999/xlink" overflow="hidden"><g id="Icon-Resource/Management-Governance/Res_AWS-Systems-Manager_Change-Calendar_48" stroke="none" stroke-width="1" fill="none" fill-rule="evenodd"><path d="M41.958 26.206 43.938 26.489C42.506 36.503 33.726 44.348 23.948 44.348 15.346 44.348 7.52 38.273 4.787 29.992L3.896 32.664 2 32.031 4 26.031C4.103 25.721 4.352 25.481 4.665 25.389 4.979 25.298 5.318 25.363 5.573 25.567L10.573 29.567 9.323 31.128 6.555 28.913C8.879 36.629 16.045 42.348 23.948 42.348 32.753 42.348 40.664 35.257 41.958 26.206L41.958 26.206ZM5.938 22.489 3.958 22.206C5.419 11.997 14.199 4 23.948 4 32.543 4 40.378 10.219 43.115 18.686L44 16.031 45.896 16.664 43.896 22.664C43.794 22.974 43.545 23.214 43.231 23.307 43.139 23.334 43.043 23.348 42.948 23.348 42.724 23.348 42.503 23.272 42.323 23.128L37.323 19.128 38.573 17.567 41.353 19.791C39.03 11.875 31.848 6 23.948 6 15.172 6 7.261 13.243 5.938 22.489L5.938 22.489ZM28.948 32 30.948 32 30.948 30 28.948 30 28.948 32ZM28.948 28 30.948 28 30.948 26 28.948 26 28.948 28ZM24.948 32 26.948 32 26.948 30 24.948 30 24.948 32ZM24.948 28 26.948 28 26.948 26 24.948 26 24.948 28ZM20.948 32 22.948 32 22.948 30 20.948 30 20.948 32ZM20.948 28 22.948 28 22.948 26 20.948 26 20.948 28ZM16.948 32 18.948 32 18.948 30 16.948 30 16.948 32ZM16.948 28 18.948 28 18.948 26 16.948 26 16.948 28ZM16.948 24 18.948 24 18.948 22 16.948 22 16.948 24ZM28.948 24 30.948 24 30.948 22 28.948 22 28.948 24ZM24.948 24 26.948 24 26.948 22 24.948 22 24.948 24ZM20.948 24 22.948 24 22.948 22 20.948 22 20.948 24ZM20.948 15 20.948 16 22.948 16 22.948 15 24.948 15 24.948 16 26.948 16 26.948 15 28.948 15 28.948 16 30.948 16 30.948 15 32.948 15 32.948 18 14.948 18 14.948 15 16.948 15 16.948 16 18.948 16 18.948 15 20.948 15ZM14.948 34 32.948 34 32.948 20 14.948 20 14.948 34ZM16.948 12 16.948 13 13.948 13C13.396 13 12.948 13.448 12.948 14L12.948 19 12.948 35C12.948 35.552 13.396 36 13.948 36L33.948 36C34.501 36 34.948 35.552 34.948 35L34.948 19 34.948 14C34.948 13.448 34.501 13 33.948 13L30.948 13 30.948 12 28.948 12 28.948 13 26.948 13 26.948 12 24.948 12 24.948 13 22.948 13 22.948 12 20.948 12 20.948 13 18.948 13 18.948 12 16.948 12Z" id="Fill-1" fill="#E7157B"/></g></svg>