<svg width="48" height="48" viewBox="0 0 48 48" xmlns="http://www.w3.org/2000/svg" xmlns:xlink="http://www.w3.org/1999/xlink" overflow="hidden"><g id="Icon-Resource/IoT/Res_AWS-IoT_Thing_Generic_48" stroke="none" stroke-width="1" fill="none" fill-rule="evenodd"><path d="M20.4567 22.094C19.5547 22.094 18.8207 21.359 18.8207 20.457 18.8207 19.555 19.5547 18.82 20.4567 18.82 21.3597 18.82 22.0937 19.555 22.0937 20.457 22.0937 21.359 21.3597 22.094 20.4567 22.094ZM27.4887 25.852C28.3907 25.852 29.1247 26.586 29.1247 27.488 29.1247 28.391 28.3907 29.125 27.4887 29.125 26.5857 29.125 25.8517 28.391 25.8517 27.488 25.8517 26.586 26.5857 25.852 27.4887 25.852ZM15.3047 32.641 15.3047 28.488 24.0087 28.488C24.4477 30.006 25.8327 31.125 27.4887 31.125 29.4927 31.125 31.1247 29.493 31.1247 27.488 31.1247 25.483 29.4927 23.852 27.4887 23.852 25.8327 23.852 24.4477 24.971 24.0087 26.488L15.3047 26.488 15.3047 15.305 32.6407 15.305 32.6407 19.457 23.9367 19.457C23.4977 17.939 22.1137 16.82 20.4567 16.82 18.4517 16.82 16.8207 18.452 16.8207 20.457 16.8207 22.462 18.4517 24.094 20.4567 24.094 22.1137 24.094 23.4977 22.975 23.9367 21.457L32.6407 21.457 32.6407 32.641 15.3047 32.641ZM14.3047 13.305C13.7517 13.305 13.3047 13.752 13.3047 14.305L13.3047 33.641C13.3047 34.193 13.7517 34.641 14.3047 34.641L33.6407 34.641C34.1937 34.641 34.6407 34.193 34.6407 33.641L34.6407 14.305C34.6407 13.752 34.1937 13.305 33.6407 13.305L14.3047 13.305ZM39.6697 38.537C39.6697 39.163 39.1607 39.672 38.5347 39.672L9.4097 39.672C8.7837 39.672 8.2757 39.163 8.2757 38.537L8.2757 9.423C8.2757 8.797 8.7837 8.288 9.4097 8.288L38.5347 8.288C39.1607 8.288 39.6697 8.797 39.6697 9.423L39.6697 38.537ZM45.9457 14.426 45.9457 12.426 41.6697 12.426 41.6697 9.423C41.6697 7.694 40.2637 6.288 38.5347 6.288L35.5197 6.288 35.5197 2 33.5197 2 33.5197 6.288 30.2457 6.288 30.2457 2 28.2457 2 28.2457 6.288 24.9727 6.288 24.9727 2 22.9727 2 22.9727 6.288 19.6987 6.288 19.6987 2 17.6987 2 17.6987 6.288 14.4257 6.288 14.4257 2 12.4257 2 12.4257 6.288 9.4097 6.288C7.6817 6.288 6.2757 7.694 6.2757 9.423L6.2757 12.426 1.9997 12.426 1.9997 14.426 6.2757 14.426 6.2757 17.699 1.9997 17.699 1.9997 19.699 6.2757 19.699 6.2757 22.973 1.9997 22.973 1.9997 24.973 6.2757 24.973 6.2757 28.246 1.9997 28.246 1.9997 30.246 6.2757 30.246 6.2757 33.52 1.9997 33.52 1.9997 35.52 6.2757 35.52 6.2757 38.537C6.2757 40.266 7.6817 41.672 9.4097 41.672L12.4257 41.672 12.4257 45.945 14.4257 45.945 14.4257 41.672 17.6987 41.672 17.6987 45.945 19.6987 45.945 19.6987 41.672 22.9727 41.672 22.9727 45.945 24.9727 45.945 24.9727 41.672 28.2457 41.672 28.2457 45.945 30.2457 45.945 30.2457 41.672 33.5197 41.672 33.5197 45.945 35.5197 45.945 35.5197 41.672 38.5347 41.672C40.2637 41.672 41.6697 40.266 41.6697 38.537L41.6697 35.52 45.9457 35.52 45.9457 33.52 41.6697 33.52 41.6697 30.246 45.9457 30.246 45.9457 28.246 41.6697 28.246 41.6697 24.973 45.9457 24.973 45.9457 22.973 41.6697 22.973 41.6697 19.699 45.9457 19.699 45.9457 17.699 41.6697 17.699 41.6697 14.426 45.9457 14.426Z" id="Amazon-IOT-RESOURCES-IoT-thing-generic_Resource-Icon_light-bg" fill="#7AA116"/></g></svg>