<svg width="48" height="48" viewBox="0 0 48 48" xmlns="http://www.w3.org/2000/svg" xmlns:xlink="http://www.w3.org/1999/xlink" overflow="hidden"><g id="Icon-Resource/Database/Res_Amazon-DynamoDB_Stream_48" stroke="none" stroke-width="1" fill="none" fill-rule="evenodd"><path d="M2 4 46 4 46 2 2 2 2 4ZM2 46 46 46 46 44 2 44 2 46ZM30.887 33.616 38.611 35.696 43.813 16.384 36.088 14.304 30.887 33.616ZM39.317 37.922C39.23 37.922 39.143 37.911 39.058 37.888L29.401 35.287C29.145 35.218 28.927 35.05 28.795 34.82 28.662 34.59 28.627 34.317 28.695 34.061L34.417 12.818C34.486 12.562 34.654 12.344 34.884 12.211 35.113 12.08 35.387 12.043 35.643 12.112L45.298 14.713C45.831 14.857 46.147 15.405 46.004 15.939L40.283 37.182C40.214 37.438 40.046 37.656 39.816 37.789 39.663 37.876 39.491 37.922 39.317 37.922L39.317 37.922ZM17 34 25 34 25 14 17 14 17 34ZM26 36 16 36C15.447 36 15 35.552 15 35L15 13C15 12.448 15.447 12 16 12L26 12C26.553 12 27 12.448 27 13L27 35C27 35.552 26.553 36 26 36L26 36ZM4 34 12 34 12 14 4 14 4 34ZM13 36 3 36C2.447 36 2 35.552 2 35L2 13C2 12.448 2.447 12 3 12L13 12C13.553 12 14 12.448 14 13L14 35C14 35.552 13.553 36 13 36L13 36Z" id="Fill-1" fill="#C925D1"/></g></svg>