<svg width="48" height="48" viewBox="0 0 48 48" xmlns="http://www.w3.org/2000/svg" xmlns:xlink="http://www.w3.org/1999/xlink" overflow="hidden"><g id="Icon-Resource/Compute/Res_Amazon-EC2_Instance_48" stroke="none" stroke-width="1" fill="none" fill-rule="evenodd"><path d="M9 39 39 39 39 9 9 9 9 39ZM46 13 46 11 41 11 41 8C41 7.448 40.552 7 40 7L37 7 37 2 35 2 35 7 31 7 31 2 29 2 29 7 25 7 25 2 23 2 23 7 19 7 19 2 17 2 17 7 13 7 13 2 11 2 11 7 8 7C7.447 7 7 7.448 7 8L7 11 2 11 2 13 7 13 7 17 2 17 2 19 7 19 7 23 2 23 2 25 7 25 7 29 2 29 2 31 7 31 7 35 2 35 2 37 7 37 7 40C7 40.553 7.447 41 8 41L11 41 11 46 13 46 13 41 17 41 17 46 19 46 19 41 23 41 23 46 25 46 25 41 29 41 29 46 31 46 31 41 35 41 35 46 37 46 37 41 40 41C40.552 41 41 40.553 41 40L41 37 46 37 46 35 41 35 41 31 46 31 46 29 41 29 41 25 46 25 46 23 41 23 41 19 46 19 46 17 41 17 41 13 46 13Z" id="Amazon-EC2-Instance_Resource-Icon_light-bg" fill="#ED7100"/></g></svg>