<svg width="80" height="80" viewBox="0 0 80 80" xmlns="http://www.w3.org/2000/svg" xmlns:xlink="http://www.w3.org/1999/xlink" overflow="hidden"><g id="Icon-Architecture/64/Arch_NICE-DCV_64" stroke="none" stroke-width="1" fill="none" fill-rule="evenodd"><g id="Icon-Architecture-BG/64/Compute" fill="#ED7100"><rect x="0" y="0" width="80" height="80" id="Rectangle"/></g><g id="Icon-Service/64/NICE-DCV_64" fill="#FFFFFF" transform="translate(12 12)"><path d="M49.0692 26.386C44.3272 29.345 37.7172 32.353 30.4602 34.855 25.3392 36.62 20.3302 37.978 15.8652 38.838 19.7272 48.68 26.9442 55.037 33.9772 53.853 40.5142 52.75 45.3872 45.093 46.1002 34.801L48.0962 34.939C47.3042 46.347 41.8932 54.545 34.3092 55.825 33.6482 55.937 32.9842 55.991 32.3232 55.991 24.9452 55.991 17.7182 49.209 13.8712 39.194 12.7332 39.38 11.6252 39.542 10.5842 39.653 9.17324 39.803 7.90124 39.879 6.76924 39.879 2.95024 39.879 0.726245 39.025 0.141245 37.328-0.585755 35.218 1.49624 32.566 6.32824 29.445L7.41424 31.125C2.70424 34.167 1.81424 36.046 2.03224 36.677 2.26324 37.348 4.27924 38.313 10.3722 37.665 11.2672 37.57 12.2162 37.433 13.1872 37.28 12.5372 35.297 12.0142 33.205 11.6472 31.028 10.4062 23.673 11.0562 16.438 13.4802 10.654 15.9692 4.71502 20.0312 0.990024 24.9172 0.166024 30.8032-0.828976 37.0752 2.69102 41.6792 9.57902L40.0172 10.69C35.8622 4.47602 30.3492 1.28002 25.2492 2.13802 21.0632 2.84402 17.5392 6.14302 15.3252 11.427 13.0462 16.866 12.4402 23.709 13.6202 30.695 13.9882 32.876 14.5152 34.966 15.1732 36.937 19.6182 36.1 24.6512 34.742 29.8072 32.965 36.9272 30.51 43.3922 27.572 48.0102 24.689 53.2072 21.447 54.2012 19.444 53.9692 18.772 53.7692 18.189 52.0952 17.299 47.0972 17.653L46.9572 15.657C52.1712 15.289 55.1712 16.116 55.8602 18.12 56.6192 20.32 54.3342 23.101 49.0692 26.386" id="Fill-8"/></g></g></svg>