<svg width="90" height="90" viewBox="0 0 90 90" xmlns="http://www.w3.org/2000/svg" xmlns:xlink="http://www.w3.org/1999/xlink" overflow="hidden"><g id="Icon-Architecture-Category/64/Contact-Center_64" stroke="none" stroke-width="1" fill="none" fill-rule="evenodd"><rect x="5" y="5" width="80" height="80" id="Rectangle" fill="#DD344C"/><rect x="1" y="1" width="88" height="88" id="#879196-Border-Copy-5" stroke="#879196" stroke-width="2"/><g id="Icon-Category/64/Contact-Center_64" fill="#FFFFFF" transform="translate(19 16.88)"><path d="M2.64964 54.091C7.80164 44.747 16.3506 39.161 25.7896 39.061 30.8486 39.002 35.8466 40.596 40.2146 43.656 43.7686 46.146 46.8946 49.76 49.3216 54.169L2.64964 54.091ZM12.0516 22.601C12.0516 14.983 18.2506 8.785 25.8686 8.785 33.4866 8.785 39.6836 14.983 39.6836 22.601 39.6836 25.215 38.9626 27.7 37.6036 29.879 37.0026 29.392 36.2476 29.088 35.4156 29.088L31.6096 29.088C29.6796 29.088 28.1096 30.658 28.1096 32.589 28.1096 33.983 28.9356 35.18 30.1186 35.742 28.7536 36.182 27.3236 36.417 25.8686 36.417 18.2506 36.417 12.0516 30.219 12.0516 22.601L12.0516 22.601ZM9.98764 28.088 8.76264 28.088C6.68064 28.088 4.98764 26.53 4.98764 24.615L4.98764 21.56C4.98764 19.646 6.68064 18.088 8.76264 18.088L9.98764 18.088 9.98764 28.088ZM25.9436 2C34.6376 2 42.1706 7.988 44.0796 16.157 43.7956 16.116 43.5076 16.088 43.2126 16.088L40.9876 16.088C40.7526 16.088 40.5456 16.182 40.3746 16.317 37.9386 10.716 32.3566 6.785 25.8686 6.785 19.4276 6.785 13.8846 10.66 11.4196 16.196 11.2876 16.131 11.1446 16.088 10.9876 16.088L8.76264 16.088C8.43864 16.088 8.12264 16.12 7.81264 16.169 9.72564 8.01 17.2926 2 25.9436 2L25.9436 2ZM46.9876 24.615C46.9876 26.53 45.2946 28.088 43.2126 28.088L41.9876 28.088 41.9876 18.088 43.2126 18.088C45.2946 18.088 46.9876 19.646 46.9876 21.56L46.9876 24.615ZM40.6106 33.088 38.8646 33.088C38.8886 32.924 38.9156 32.76 38.9156 32.589 38.9156 32.281 38.8626 31.988 38.7876 31.704 39.2846 31.003 39.7176 30.27 40.0886 29.511 40.2486 29.85 40.5876 30.088 40.9876 30.088L43.2126 30.088C43.7446 30.088 44.2586 30.014 44.7486 29.885 44.0806 31.523 42.7476 33.088 40.6106 33.088L40.6106 33.088ZM35.4156 34.088 31.6096 34.088C30.7826 34.088 30.1096 33.415 30.1096 32.589 30.1096 31.761 30.7826 31.088 31.6096 31.088L35.4156 31.088C36.2426 31.088 36.9156 31.761 36.9156 32.589 36.9156 33.415 36.2426 34.088 35.4156 34.088L35.4156 34.088ZM51.8706 54.727C49.2036 49.361 45.5706 44.966 41.3636 42.019 38.1596 39.775 34.6226 38.283 30.9766 37.564 32.0706 37.19 33.1246 36.698 34.1186 36.088L35.4156 36.088C36.3656 36.088 37.2256 35.705 37.8576 35.088L40.6106 35.088C44.3166 35.088 46.6726 31.872 47.1756 28.585 48.2886 27.587 48.9876 26.179 48.9876 24.615L48.9876 21.56C48.9876 19.604 47.8956 17.89 46.2626 16.922 44.6346 7.245 35.9926 0 25.9436 0 15.9226 0 7.20364 7.294 5.60364 16.985 4.03064 17.964 2.98764 19.648 2.98764 21.56L2.98764 24.615C2.98764 27.633 5.57864 30.088 8.76264 30.088L10.9876 30.088C11.3036 30.088 11.5726 29.932 11.7566 29.704 13.6246 33.4 16.8936 36.265 20.8696 37.595 12.2016 39.347 4.65164 45.446 0.103642 54.645-0.0493576 54.955-0.0323576 55.321 0.150642 55.615 0.332642 55.909 0.653642 56.088 0.998642 56.088L50.9726 56.172 50.9746 56.172C51.3206 56.172 51.6416 55.993 51.8246 55.699 52.0066 55.404 52.0246 55.037 51.8706 54.727L51.8706 54.727Z" id="Fill-1"/></g></g></svg>