<svg width="80" height="80" viewBox="0 0 80 80" xmlns="http://www.w3.org/2000/svg" xmlns:xlink="http://www.w3.org/1999/xlink" overflow="hidden"><g id="Icon-Architecture/64/Arch_AWS-Well-Architected-Tool_64" stroke="none" stroke-width="1" fill="none" fill-rule="evenodd"><g id="Icon-Architecture-BG/64/Management-Governance" fill="#E7157B"><rect x="0" y="0" width="80" height="80" id="Rectangle"/></g><path d="M46.5942 30 59.4072 30 64.3162 39 60.5672 39 57.8582 34.485C57.6772 34.184 57.3522 34 57.0002 34L49.0002 34C48.6492 34 48.3232 34.184 48.1432 34.485L45.4342 39 41.6852 39 46.5942 30ZM39.1402 40.51C39.3212 40.814 39.6482 41 40.0002 41L46.0002 41C46.3522 41 46.6772 40.816 46.8582 40.515L49.5672 36 56.4342 36 59.1432 40.515C59.3232 40.816 59.6492 41 60.0002 41L66.0002 41C66.3532 41 66.6802 40.814 66.8612 40.51 67.0402 40.207 67.0472 39.831 66.8782 39.521L60.8782 28.521C60.7032 28.2 60.3662 28 60.0002 28L46.0002 28C45.6342 28 45.2972 28.2 45.1222 28.521L39.1222 39.521C38.9532 39.831 38.9602 40.207 39.1402 40.51L39.1402 40.51ZM59.4072 54 46.5942 54 41.6852 45 45.4342 45 48.1432 49.515C48.3232 49.816 48.6492 50 49.0002 50L57.0002 50C57.3522 50 57.6772 49.816 57.8582 49.515L60.5672 45 64.3162 45 59.4072 54ZM66.0002 43 60.0002 43C59.6492 43 59.3232 43.184 59.1432 43.485L56.4342 48 49.5672 48 46.8582 43.485C46.6772 43.184 46.3522 43 46.0002 43L40.0002 43C39.6482 43 39.3212 43.186 39.1402 43.49 38.9602 43.793 38.9532 44.169 39.1222 44.479L45.1222 55.479C45.2972 55.8 45.6342 56 46.0002 56L60.0002 56C60.3662 56 60.7032 55.8 60.8782 55.479L66.8782 44.479C67.0472 44.169 67.0402 43.793 66.8612 43.49 66.6802 43.186 66.3532 43 66.0002 43L66.0002 43ZM34.4032 68 21.5982 68 15.1472 56.02 21.5742 45 34.4262 45 40.8542 56.02 34.4032 68ZM35.8652 43.496C35.6852 43.189 35.3562 43 35.0002 43L21.0002 43C20.6452 43 20.3162 43.189 20.1362 43.496L13.1362 55.496C12.9612 55.797 12.9542 56.167 13.1192 56.474L20.1192 69.474C20.2942 69.798 20.6322 70 21.0002 70L35.0002 70C35.3682 70 35.7062 69.798 35.8812 69.474L42.8812 56.474C43.0462 56.167 43.0392 55.797 42.8652 55.496L35.8652 43.496ZM31.3822 63 24.6182 63 21.1342 56.031 24.5802 50 31.4202 50 34.8662 56.031 31.3822 63ZM32.0002 48 24.0002 48C23.6422 48 23.3102 48.192 23.1322 48.504L19.1322 55.504C18.9662 55.794 18.9562 56.148 19.1062 56.447L23.1062 64.447C23.2762 64.786 23.6212 65 24.0002 65L32.0002 65C32.3792 65 32.7252 64.786 32.8952 64.447L36.8952 56.447C37.0442 56.148 37.0342 55.794 36.8682 55.504L32.8682 48.504C32.6912 48.192 32.3592 48 32.0002 48L32.0002 48ZM19.4262 29 25.2592 39 21.5742 39 15.7412 29 19.4262 29ZM31.3822 35 33.3822 39 27.5742 39 25.2412 35 31.3822 35ZM36.5352 29 40.2592 29 35.0682 37.899 33.1552 34.072 36.5352 29ZM20.1362 40.504C20.3162 40.811 20.6452 41 21.0002 41L34.9992 41 35.0002 41C35.3552 41 35.6852 40.812 35.8652 40.504L42.8652 28.504C43.0442 28.194 43.0462 27.812 42.8672 27.502 42.6892 27.191 42.3592 27 42.0002 27L36.0002 27C35.6662 27 35.3542 27.167 35.1682 27.445L31.4652 33 24.0742 33 20.8652 27.496C20.6852 27.189 20.3562 27 20.0002 27L14.0002 27C13.6422 27 13.3122 27.191 13.1332 27.502 12.9542 27.812 12.9562 28.194 13.1362 28.504L20.1362 40.504ZM21.5742 13 34.4262 13 40.2592 23 36.5352 23 32.8322 17.445C32.6472 17.167 32.3342 17 32.0002 17L24.0002 17C23.6662 17 23.3542 17.167 23.1682 17.445L19.4652 23 15.7412 23 21.5742 13ZM14.0002 25 20.0002 25C20.3342 25 20.6472 24.833 20.8322 24.555L24.5352 19 31.4652 19 35.1682 24.555C35.3542 24.833 35.6662 25 36.0002 25L42.0002 25C42.3592 25 42.6892 24.809 42.8672 24.498 43.0462 24.188 43.0442 23.806 42.8652 23.496L35.8652 11.496C35.6852 11.189 35.3562 11 35.0002 11L21.0002 11C20.6452 11 20.3162 11.189 20.1362 11.496L13.1362 23.496C12.9562 23.806 12.9542 24.188 13.1332 24.498 13.3122 24.809 13.6422 25 14.0002 25L14.0002 25Z" id="AWS-Well-Architected-Tool_Icon_64_Squid" fill="#FFFFFF"/></g></svg>