<svg width="48" height="48" viewBox="0 0 48 48" xmlns="http://www.w3.org/2000/svg" xmlns:xlink="http://www.w3.org/1999/xlink" overflow="hidden"><g id="Icon-Resource/Security-Identity-and-Compliance/Res_AWS-WAF_Bot_48" stroke="none" stroke-width="1" fill="none" fill-rule="evenodd"><path d="M36.975 32.975C35.653 34.297 33.348 34.297 32.026 32.975 31.365 32.314 31 31.435 31 30.5 31 29.565 31.365 28.686 32.026 28.025 32.687 27.364 33.566 27 34.5 27 35.435 27 36.314 27.364 36.975 28.025 37.636 28.686 38 29.565 38 30.5 38 31.435 37.636 32.314 36.975 32.975L36.975 32.975ZM34.5 25C33.032 25 31.65 25.572 30.612 26.611 29.573 27.649 29 29.031 29 30.5 29 31.969 29.573 33.35 30.612 34.389 31.65 35.428 33.032 36 34.5 36 35.969 36 37.351 35.428 38.389 34.389 39.428 33.35 40 31.969 40 30.5 40 29.031 39.428 27.649 38.389 26.611 37.351 25.572 35.969 25 34.5 25L34.5 25ZM15.975 32.975C14.653 34.297 12.348 34.297 11.026 32.975 10.365 32.314 10 31.435 10 30.5 10 29.565 10.365 28.686 11.026 28.025 11.687 27.364 12.566 27 13.5 27 14.435 27 15.314 27.364 15.975 28.025 16.636 28.686 17 29.565 17 30.5 17 31.435 16.636 32.314 15.975 32.975L15.975 32.975ZM13.5 25C12.032 25 10.65 25.572 9.612 26.611 8.573 27.649 8 29.031 8 30.5 8 31.969 8.573 33.35 9.612 34.389 10.65 35.428 12.032 36 13.5 36 14.969 36 16.351 35.428 17.389 34.389 18.428 33.35 19 31.969 19 30.5 19 29.031 18.428 27.649 17.389 26.611 16.351 25.572 14.969 25 13.5 25L13.5 25ZM44 39.581C44 39.812 43.813 40 43.581 40L4.419 40C4.188 40 4 39.812 4 39.581L4 20.651C4 20.292 4.292 20 4.651 20L43.35 20C43.708 20 44 20.292 44 20.651L44 39.581ZM22.179 14.911 26.322 14.911C28.246 14.911 29.855 16.226 30.338 18L18.163 18C18.646 16.226 20.254 14.911 22.179 14.911L22.179 14.911ZM22 6C22 4.897 22.898 4 24 4 25.103 4 26 4.897 26 6 26 7.103 25.103 8 24 8 22.898 8 22 7.103 22 6L22 6ZM43.35 18 32.398 18C31.881 15.112 29.357 12.911 26.322 12.911L25 12.911 25 9.858C26.721 9.411 28 7.858 28 6 28 3.794 26.206 2 24 2 21.794 2 20 3.794 20 6 20 7.858 21.28 9.411 23 9.858L23 12.911 22.179 12.911C19.144 12.911 16.62 15.112 16.103 18L4.651 18C3.189 18 2 19.189 2 20.651L2 39.581C2 40.915 3.085 42 4.419 42L17 42 17 46 19 46 19 42 29 42 29 46 31 46 31 42 43.581 42C44.915 42 46 40.915 46 39.581L46 20.651C46 19.189 44.812 18 43.35 18L43.35 18Z" id="Fill-1" fill="#DD344C"/></g></svg>