<svg width="80" height="80" viewBox="0 0 80 80" xmlns="http://www.w3.org/2000/svg" xmlns:xlink="http://www.w3.org/1999/xlink" overflow="hidden"><g id="Icon-Architecture/64/Arch_Amazon-Lightsail-for-Research_64" stroke="none" stroke-width="1" fill="none" fill-rule="evenodd"><g id="Icon-Architecture-BG/64/Compute" fill="#ED7100"><rect x="0" y="0" width="80" height="80" id="Rectangle"/></g><path d="M44.1341 41.6168C47.2551 39.3468 47.9471 34.9598 45.6781 31.8388 44.5781 30.3268 42.9551 29.3328 41.1091 29.0418 40.7381 28.9828 40.3681 28.9538 40.0011 28.9538 38.5341 28.9538 37.1091 29.4148 35.8991 30.2948 32.7781 32.5648 32.0841 36.9508 34.3551 40.0728 35.4541 41.5848 37.0771 42.5788 38.9241 42.8698 40.7781 43.1608 42.6221 42.7158 44.1341 41.6168L44.1341 41.6168ZM46.0841 42.5978 51.4121 49.9248 49.7951 51.1008 44.4551 43.7588C43.0991 44.5338 41.5901 44.9578 40.0351 44.9578 39.5631 44.9578 39.0881 44.9208 38.6131 44.8458 36.2381 44.4708 34.1521 43.1938 32.7381 41.2498 29.8191 37.2358 30.7091 31.5958 34.7231 28.6778 36.6661 27.2638 39.0411 26.6898 41.4201 27.0658 43.7951 27.4408 45.8811 28.7188 47.2951 30.6618 48.7091 32.6068 49.2811 34.9848 48.9061 37.3598 48.5841 39.4008 47.5911 41.2268 46.0841 42.5978L46.0841 42.5978ZM63.0161 61.9548 17.0161 61.9548 17.0161 64.5548C17.0161 65.4098 17.4521 65.9548 17.7531 65.9548L62.6661 65.9548C62.7561 65.9248 63.0161 65.5748 63.0161 64.5548L63.0161 61.9548ZM65.0161 60.9548 65.0161 64.5548C65.0161 67.7098 63.2171 67.9548 62.6661 67.9548L17.7531 67.9548C16.2181 67.9548 15.0161 66.4618 15.0161 64.5548L15.0161 60.9548C15.0161 60.4028 15.4631 59.9548 16.0161 59.9548L20.0161 59.9548 20.0161 37.9548C20.0161 36.8518 20.9131 35.9548 22.0161 35.9548L29.0161 35.9548 29.0161 37.9548 22.0161 37.9548 22.0161 59.9548 58.0161 59.9548 58.0161 37.9548 51.0161 37.9548 51.0161 35.9548 58.0161 35.9548C59.1181 35.9548 60.0161 36.8518 60.0161 37.9548L60.0161 59.9548 64.0161 59.9548C64.5691 59.9548 65.0161 60.4028 65.0161 60.9548L65.0161 60.9548ZM68.0151 37.4558C68.0151 37.7038 68.0151 37.8708 68.0111 38.0338 68.0111 38.2288 67.9661 43.4918 63.6151 46.7548L62.4161 45.1558C65.9481 42.5058 66.0111 38.0498 66.0111 38.0048 66.0151 37.8348 66.0151 37.6868 66.0151 37.5368 66.0161 30.9858 61.5491 29.4668 58.1891 28.8878 58.1461 28.8808 58.1031 28.8698 58.0611 28.8568L57.7181 28.7498C57.2481 28.6038 56.9551 28.1378 57.0271 27.6508 57.3941 25.1388 56.3691 23.1448 54.2861 22.3178 52.5741 21.6388 50.1681 21.9078 48.8821 23.7418 48.6661 24.0488 48.2961 24.2088 47.9271 24.1588 47.5561 24.1078 47.2441 23.8538 47.1191 23.5008 46.3211 21.2338 45.1631 19.3278 43.6811 17.8358 41.8611 16.0058 36.8701 12.0698 29.8191 15.0628 25.3371 16.9668 22.5531 20.7568 22.5531 24.9548L22.6501 28.0398C22.6651 28.5078 22.3531 28.9238 21.9001 29.0398L21.6501 29.1038C18.3421 29.9488 14.5931 30.9068 14.0111 37.0498 13.9921 37.2548 13.9981 37.8628 14.0151 38.3078L12.0171 38.3838C12.0151 38.3408 11.9771 37.3218 12.0211 36.8618 12.6971 29.7038 17.2931 28.1718 20.6261 27.3028L20.5541 24.9868C20.5531 19.9398 23.8041 15.4448 29.0371 13.2218 34.7091 10.8118 40.7121 12.0118 45.0991 16.4258 46.4521 17.7868 47.5631 19.4368 48.4131 21.3458 50.1901 19.9168 52.7051 19.5368 55.0261 20.4588 57.1651 21.3098 59.2581 23.4628 59.0941 27.0228 65.0161 28.2198 68.0161 31.7278 68.0151 37.4558L68.0151 37.4558Z" id="Fill-1" fill="#FFFFFF"/></g></svg>