<svg width="80" height="80" viewBox="0 0 80 80" xmlns="http://www.w3.org/2000/svg" xmlns:xlink="http://www.w3.org/1999/xlink" overflow="hidden"><g id="Icon-Architecture/64/Arch_Amazon-EKS-Cloud_64" stroke="none" stroke-width="1" fill="none" fill-rule="evenodd"><g id="Icon-Architecture-BG/64/Containers" fill="#ED7100"><rect x="0" y="0" width="80" height="80" id="Rectangle"/></g><g id="Icon-Service/64/Amazon-EKS-Cloud_64" fill="#FFFFFF" transform="translate(12 12)"><path d="M49.239 49.377 27.737 49.355C25.133 49.352 22.906 47.416 22.667 44.949 22.647 44.743 22.636 44.528 22.636 44.305 22.636 40.929 24.968 39.798 26.391 39.422 26.849 39.328 27.189 38.922 27.189 38.441 27.189 38.394 27.186 38.347 27.179 38.3 27.145 38.004 27.128 37.702 27.128 37.396 27.128 34.613 29.046 31.621 31.494 30.584 35.745 28.786 38.754 31.151 39.852 32.253 40.751 33.154 41.453 34.309 41.938 35.684 42.062 36.033 42.368 36.286 42.734 36.34 43.097 36.394 43.467 36.243 43.686 35.945 44.322 35.085 45.352 34.708 46.307 34.988 47.477 35.33 48.253 36.541 48.393 38.238 48.342 38.756 48.7 39.231 49.218 39.32 50.587 39.556 53.769 40.517 53.769 44.356 53.769 48.839 49.626 49.338 49.239 49.377L49.239 49.377ZM25.444 53.862 2 41.398 2 14.57 22 2.75203 22 12.451 11.463 19.156C11.175 19.339 11 19.658 11 20L11 36C11 36.373 11.208 36.714 11.538 36.887L20.901 41.758 21.04 41.835C20.784 42.592 20.636 43.415 20.636 44.305 20.636 44.594 20.651 44.872 20.677 45.14 21.012 48.621 24.113 51.351 27.735 51.355L29.982 51.356 25.444 53.862ZM40.504 19.136 29 12.425 29 2.75203 49 14.57 49 34.467C48.431 33.803 47.716 33.316 46.868 33.068 45.616 32.703 44.308 32.926 43.245 33.637 42.718 32.567 42.056 31.631 41.268 30.841 41.182 30.755 41.088 30.689 41 30.606L41 20C41 19.644 40.811 19.315 40.504 19.136L40.504 19.136ZM51 37.726 51 14C51 13.646 50.813 13.318 50.509 13.139L28.509 0.139026C28.199-0.043974 27.817-0.045974 27.504 0.131026 27.192 0.309026 27 0.641026 27 1.00003L27 13C27 13.355 27.188 13.684 27.496 13.863L39 20.574 39 29.118C36.483 27.714 33.537 27.548 30.715 28.742 29.725 29.161 28.827 29.828 28.037 30.629L25.011 27.12 31.842 19.199 29.18 19.199 23 26 23 19 21 19 21 36 23 36 23 28 26.682 32.311C25.714 33.841 25.128 35.633 25.128 37.396 25.128 37.505 25.13 37.614 25.133 37.723 23.785 38.216 22.712 39.027 21.946 40.073L13 35.393 13 20.548 23.537 13.843C23.825 13.66 24 13.341 24 13L24 1.00003C24 0.641026 23.807 0.309026 23.496 0.131026 23.183-0.045974 22.802-0.043974 22.491 0.139026L0.491 13.139C0.186 13.318 3.55271e-15 13.646 3.55271e-15 14L3.55271e-15 42C3.55271e-15 42.369 0.204 42.709 0.53 42.882L24.983 55.882C25.131 55.96 25.292 56 25.453 56 25.62 56 25.786 55.958 25.936 55.875L34.114 51.36 49.319 51.374C51.551 51.192 55.769 49.492 55.769 44.356 55.769 40.678 53.505 38.603 51 37.726L51 37.726Z" id="Fill-1"/></g></g></svg>