<svg width="48" height="48" viewBox="0 0 48 48" xmlns="http://www.w3.org/2000/svg" xmlns:xlink="http://www.w3.org/1999/xlink" overflow="hidden"><g id="Icon-Resource/Migration-and-Transfer/Res_AWS-Application-Discovery-Service_Migration-Evaluator-Collector_48" stroke="none" stroke-width="1" fill="none" fill-rule="evenodd"><path d="M14.859 18.1156 13 16.2196 13 22.9956C13 23.5486 12.552 23.9956 12 23.9956L7.363 23.9956C6.512 23.9956 5.81 23.8156 5.213 23.4456 4.014 22.7036 2 20.9616 2 17.6406 2 14.8226 3.503 12.6586 6.065 11.7126L6.056 11.5666C6.054 8.2786 8.251 4.9296 11.164 3.7176 14.563 2.3016 18.16 3.0076 20.79 5.6006 21.486 6.2876 22.076 7.0986 22.549 8.0226 23.598 7.3736 24.899 7.1976 26.112 7.6026 27.692 8.1306 28.729 9.4826 28.999 11.3046 30.509 11.3066 32.129 11.6026 32.84 12.7106L31.159 13.7916C30.997 13.5416 30.035 13.1976 28.133 13.3376 27.82 13.3596 27.534 13.2436 27.327 13.0216 27.12 12.7986 27.026 12.4946 27.07 12.1946 27.068 10.8506 26.489 9.8376 25.478 9.4996 24.571 9.1966 23.567 9.5146 22.983 10.2916 22.761 10.5856 22.394 10.7356 22.034 10.6796 21.671 10.6246 21.367 10.3746 21.242 10.0296 20.809 8.8236 20.184 7.8126 19.385 7.0246 18.407 6.0596 15.718 3.9846 11.933 5.5636 9.795 6.4536 8.054 9.1196 8.054 11.5066L8.108 12.3746C8.137 12.8546 7.82 13.2876 7.354 13.4046 6.101 13.7196 4 14.6896 4 17.6406 4 19.8736 5.233 21.1056 6.267 21.7446 6.539 21.9136 6.897 21.9956 7.364 21.9956L11 21.9956 11 16.2386 9.133 18.1046 7.719 16.6906 11.319 13.0906C11.506 12.9036 11.76 12.7976 12.026 12.7976L12.031 12.7976C12.297 12.7996 12.553 12.9076 12.74 13.0976L16.287 16.7156 14.859 18.1156ZM27 32.9956C23.691 32.9956 21 30.3036 21 26.9936 21 23.6836 23.691 20.9906 27 20.9906 30.308 20.9906 33 23.6836 33 26.9936 33 30.3036 30.308 32.9956 27 32.9956L27 32.9956ZM27 18.9906C22.588 18.9906 19 22.5806 19 26.9936 19 31.4066 22.588 34.9956 27 34.9956 31.411 34.9956 35 31.4066 35 26.9936 35 22.5806 31.411 18.9906 27 18.9906L27 18.9906ZM43.496 43.4906C43.173 43.8166 42.753 43.9956 42.309 43.9956 41.893 43.9956 41.505 43.8346 41.214 43.5406L34.267 36.5186C35.167 35.8286 35.965 35.0156 36.639 34.1016L43.547 41.1396C44.171 41.7746 44.147 42.8286 43.496 43.4906L43.496 43.4906ZM17.008 26.9956C17.008 21.4816 21.491 16.9956 27 16.9956 32.508 16.9956 36.99 21.4816 36.99 26.9956 36.99 32.5106 32.508 36.9956 27 36.9956 21.491 36.9956 17.008 32.5106 17.008 26.9956L17.008 26.9956ZM44.975 39.7386 37.718 32.3436C38.524 30.7316 38.99 28.9186 38.99 26.9956 38.99 20.3796 33.611 14.9956 27 14.9956 20.387 14.9956 15.008 20.3796 15.008 26.9956 15.008 33.6126 20.387 38.9956 27 38.9956 29.001 38.9956 30.886 38.4956 32.547 37.6246L39.792 44.9456C40.46 45.6226 41.353 45.9956 42.308 45.9956L42.309 45.9956C43.292 45.9956 44.219 45.6046 44.92 44.8936 46.333 43.4596 46.357 41.1476 44.975 39.7386L44.975 39.7386Z" id="Fill-1" fill="#01A88D"/></g></svg>