<svg width="80" height="80" viewBox="0 0 80 80" xmlns="http://www.w3.org/2000/svg" xmlns:xlink="http://www.w3.org/1999/xlink" overflow="hidden"><g id="Icon-Architecture/64/Arch_AWS-Private-Certificate-Authority_64" stroke="none" stroke-width="1" fill="none" fill-rule="evenodd"><g id="Icon-Architecture-BG/64/Security-Identity-Compliance" fill="#DD344C"><rect x="0" y="0" width="80" height="80" id="Rectangle"/></g><path d="M67 17 64 17 64 19 66 19 66 66 61 66 61 68 67 68C67.553 68 68 67.552 68 67L68 18C68 17.448 67.553 17 67 17L67 17ZM19 64 17 64 17 67C17 67.552 17.447 68 18 68L53 68 53 66 19 66 19 64ZM35.5 40C35.756 40 36.012 39.902 36.207 39.707L44.207 31.707 42.793 30.293 35.5 37.586 32.207 34.293 30.793 35.707 34.793 39.707C34.988 39.902 35.244 40 35.5 40L35.5 40ZM26 34.5C26 40.841 31.159 46 37.5 46 43.841 46 49 40.841 49 34.5 49 28.159 43.841 23 37.5 23 31.159 23 26 28.159 26 34.5L26 34.5ZM24 34.5C24 27.056 30.056 21 37.5 21 44.944 21 51 27.056 51 34.5 51 41.944 44.944 48 37.5 48 30.056 48 24 41.944 24 34.5L24 34.5ZM14 17 60 17 60 14 14 14 14 17ZM60 60 60 19 14 19 14 60 48 60 48 62 13 62C12.447 62 12 61.552 12 61L12 13C12 12.448 12.447 12 13 12L61 12C61.553 12 62 12.448 62 13L62 61C62 61.552 61.553 62 61 62L56 62 56 60 60 60ZM27 57 27 48 29 48 29 55.473 37.101 51.94C37.354 51.829 37.646 51.829 37.899 51.94L46 55.473 46 48 48 48 48 57C48 57.337 47.83 57.652 47.548 57.836 47.383 57.945 47.191 58 47 58 46.864 58 46.729 57.973 46.601 57.917L37.5 53.948 28.399 57.917C28.091 58.052 27.734 58.022 27.452 57.836 27.17 57.652 27 57.337 27 57L27 57Z" id="Fill-8" fill="#FFFFFF"/></g></svg>