<svg width="80" height="80" viewBox="0 0 80 80" xmlns="http://www.w3.org/2000/svg" xmlns:xlink="http://www.w3.org/1999/xlink" overflow="hidden"><g id="Icon-Architecture/64/Arch_Amazon-Timestream_64" stroke="none" stroke-width="1" fill="none" fill-rule="evenodd"><g id="Icon-Architecture-BG/64/Database" fill="#C925D1"><rect x="0" y="0" width="80" height="80" id="Rectangle"/></g><path d="M60.9194 52.293 62.2022 51 56.2496 51 54.6762 49.414 51.6999 52.414 43.0616 43.707 44.4645 42.293 51.6999 49.586 54.6762 46.586 57.0711 49 62.2022 49 60.9194 47.707 62.3223 46.293 66 50 62.3223 53.707 60.9194 52.293ZM51.6999 36.586 53.2733 35 56.4113 35 59.3827 38.332 57.9064 39.668 55.5274 37 54.0948 37 51.6999 39.414 49.3049 37 43.763 37 43.763 35 50.1264 35 51.6999 36.586ZM62.2022 36 60.6288 36 60.6288 34 65.5893 34 65.5893 39 63.6051 39 63.6051 37.414 61.0395 40 63.6051 42.586 63.6051 41 65.5893 41 65.5893 46 60.6288 46 60.6288 44 62.2022 44 59.6367 41.414 57.0711 44 51.1185 44 49.425 45.707 48.0221 44.293 50.297 42 56.2496 42 62.2022 36ZM43.0616 49.293 45.0458 47.293 46.4487 48.707 44.4645 50.707 43.0616 49.293ZM32.8499 14C42.7898 14 49.7156 17.162 49.7156 20 49.7156 22.838 42.7898 26 32.8499 26 22.9101 26 15.9842 22.838 15.9842 20 15.9842 17.162 22.9101 14 32.8499 14L32.8499 14ZM42.7709 33 40.7867 33 40.7867 55C40.7867 55.552 41.2302 56 41.7788 56L49.7156 56 49.7156 60C49.7156 62.838 42.7898 66 32.8499 66 23.2265 66 15.9842 62.521 15.9842 60.265L15.9842 52.674C19.0171 55.284 25.2673 57 32.8499 57 35.3143 57 37.7082 56.811 39.9623 56.437L39.6409 54.463C37.492 54.819 35.2072 55 32.8499 55 22.9101 55 15.9842 51.838 15.9842 49L15.9842 38.674C19.0171 41.284 25.2673 43 32.8499 43 35.3143 43 37.7082 42.811 39.9623 42.437L39.6409 40.463C37.492 40.819 35.2072 41 32.8499 41 22.9101 41 15.9842 37.838 15.9842 35L15.9842 23.674C19.0171 26.284 25.2673 28 32.8499 28 40.4326 28 46.6828 26.284 49.7156 23.674L49.7156 34 51.6999 34 51.6999 20C51.6999 15.439 43.5964 12 32.8499 12 22.1035 12 14 15.439 14 20L14 60.265C14 64.385 22.8089 68 32.8499 68 43.5964 68 51.6999 64.561 51.6999 60L51.6999 56 65.5893 56 65.5893 54 42.7709 54 42.7709 33Z" id="Amazon-Timestream_Icon_64_Squid" fill="#FFFFFF"/></g></svg>