<svg width="80" height="80" viewBox="0 0 80 80" xmlns="http://www.w3.org/2000/svg" xmlns:xlink="http://www.w3.org/1999/xlink" overflow="hidden"><g id="Icon-Architecture/64/Arch_AWS-Launch-Wizard_64" stroke="none" stroke-width="1" fill="none" fill-rule="evenodd"><g id="Icon-Architecture-BG/64/Management-Governance" fill="#E7157B"><rect x="0" y="0" width="80" height="80" id="Rectangle"/></g><path d="M49.202 44 47.202 44 47.202 47 44.202 47 44.202 49 47.202 49 47.202 52 49.202 52 49.202 49 52.202 49 52.202 47 49.202 47 49.202 44ZM40.202 63 50.202 63 50.202 61 40.202 61 40.202 63ZM56.202 23 64.202 23 64.202 15 56.202 15 56.202 23ZM66.202 14 66.202 24C66.202 24.552 65.755 25 65.202 25L55.202 25C54.649 25 54.202 24.552 54.202 24L54.202 14C54.202 13.448 54.649 13 55.202 13L65.202 13C65.755 13 66.202 13.448 66.202 14L66.202 14ZM48.621 32.58 46.601 30.56 43.158 34.002 45.179 36.022 48.621 32.58ZM43.765 37.436 41.744 35.417 15.414 61.746 17.434 63.766 43.765 37.436ZM50.742 33.287 18.141 65.887C17.946 66.083 17.69 66.18 17.434 66.18 17.179 66.18 16.923 66.083 16.727 65.887L13.293 62.453C13.105 62.266 13 62.011 13 61.746 13 61.481 13.105 61.227 13.293 61.039L45.894 28.438C46.082 28.25 46.336 28.145 46.601 28.145 46.867 28.145 47.121 28.25 47.308 28.438L50.742 31.873C51.133 32.263 51.133 32.896 50.742 33.287L50.742 33.287ZM56.202 39 64.202 39 64.202 31 56.202 31 56.202 39ZM66.202 30 66.202 40C66.202 40.552 65.755 41 65.202 41L55.202 41C54.649 41 54.202 40.552 54.202 40L54.202 30C54.202 29.448 54.649 29 55.202 29L65.202 29C65.755 29 66.202 29.448 66.202 30L66.202 30ZM61.202 57 59.202 57 59.202 61 55.202 61 55.202 63 59.202 63 59.202 67 61.202 67 61.202 63 65.202 63 65.202 61 61.202 61 61.202 57ZM13.202 20 20.202 20 20.202 18 13.202 18 13.202 20ZM40.202 23 48.202 23 48.202 15 40.202 15 40.202 23ZM38.202 24 38.202 14C38.202 13.448 38.649 13 39.202 13L49.202 13C49.755 13 50.202 13.448 50.202 14L50.202 24C50.202 24.552 49.755 25 49.202 25L39.202 25C38.649 25 38.202 24.552 38.202 24L38.202 24ZM28.202 37 28.202 34 31.202 34 31.202 32 28.202 32 28.202 29 26.202 29 26.202 32 23.202 32 23.202 34 26.202 34 26.202 37 28.202 37ZM22.202 20 28.202 20 28.202 18 22.202 18 22.202 20Z" id="AWS-Launch-Wizard_Icon_64_Squid" fill="#FFFFFF"/></g></svg>