<svg width="48" height="48" viewBox="0 0 48 48" xmlns="http://www.w3.org/2000/svg" xmlns:xlink="http://www.w3.org/1999/xlink" overflow="hidden"><g id="Icon-Resource/Containers/Res_Amazon-Elastic-Kubernetes-Service_EKS-on-Outposts_48" stroke="none" stroke-width="1" fill="none" fill-rule="evenodd"><path d="M4 33.4387 21.017 43.8377 27 40.4197 27 36.9997C25.773 36.9997 24.423 36.7427 23.434 35.8677L23.447 35.8947 21.447 36.8947C21.14 37.0467 20.778 37.0327 20.485 36.8567L10.485 30.8567C10.185 30.6767 10 30.3507 10 29.9997L10 16.9997C10 16.6547 10.178 16.3347 10.47 16.1517L18 11.4457 18 4.80372 4 13.5537 4 33.4387ZM24 31.9997C24 33.5577 24.363 34.9997 27 34.9997L27 31.9997C27 31.4477 27.447 30.9997 28 30.9997L40 30.9997C40.553 30.9997 41 31.4477 41 31.9997L41 34.9997C43.131 34.9997 44 34.4197 44 32.9997 44 30.1767 41.496 30.0057 40.994 29.9997 40.446 29.9937 40 29.5477 40 28.9997 39.999 28.9537 39.95 27.5927 38.553 26.8947 37.235 26.2337 35.72 27.6957 35.704 27.7097 35.417 27.9927 34.986 28.0767 34.615 27.9197 34.243 27.7647 34 27.4027 34 26.9997 34 25.3457 32.654 23.9997 31 23.9997 29.346 23.9997 28 25.3457 28 26.9997L28 27.9997C28 28.4587 27.687 28.8587 27.242 28.9697 27.213 28.9777 24 29.8237 24 31.9997L24 31.9997ZM33 16.9997 33 22.4317C34.242 22.9777 35.228 24.0037 35.697 25.2857 36.564 24.8287 37.747 24.4837 39 24.9217L39 13.5717 24 4.74872 24 11.4117 32.485 16.1257C32.803 16.3017 33 16.6367 33 16.9997L33 16.9997ZM39 32.9997 29 32.9997 29 43.9997 33 43.9997 33 41.9997 35 41.9997 35 43.9997 39 43.9997 39 32.9997ZM2 33.9997 2 12.9997C2 12.6547 2.178 12.3347 2.47 12.1517L18.47 2.15172C18.778 1.95972 19.168 1.94872 19.484 2.12572 19.803 2.30172 20 2.63572 20 2.99972L20 11.9997C20 12.3447 19.822 12.6647 19.53 12.8477L12 17.5537 12 29.4337 21.044 34.8597 22.345 34.2097C22.129 33.6027 22 32.8787 22 31.9997 22 30.8187 22.459 29.8957 23.088 29.1797L19 23.9997 19 29.9997 17 29.9997 17 16.9997 19 16.9997 19 22.2407 23.463 16.9997 25.708 16.9997 20.65 23.3397 24.527 27.9917C25.065 27.6637 25.592 27.4297 26 27.2747L26 26.9997C26 24.2427 28.243 21.9997 31 21.9997L31 17.5877 22.515 12.8737C22.197 12.6977 22 12.3627 22 11.9997L22 2.99972C22 2.64072 22.192 2.30972 22.504 2.13172 22.815 1.95372 23.199 1.95672 23.507 2.13772L40.507 12.1377C40.812 12.3177 41 12.6457 41 12.9997L41 26.3507C41.479 26.9497 41.736 27.5797 41.863 28.0767 43.635 28.3777 46 29.6367 46 32.9997 46 34.4937 45.351 36.9997 41 36.9997L41 44.9997C41 45.5517 40.553 45.9997 40 45.9997L28 45.9997C27.447 45.9997 27 45.5517 27 44.9997L27 42.7227 21.496 45.8677C21.342 45.9557 21.171 45.9997 21 45.9997 20.819 45.9997 20.639 45.9507 20.479 45.8537L2.479 34.8537C2.182 34.6707 2 34.3477 2 33.9997L2 33.9997ZM35 40.9997 37 40.9997 37 38.9997 35 38.9997 35 40.9997ZM31 40.9997 33 40.9997 33 38.9997 31 38.9997 31 40.9997ZM31 36.9997 33 36.9997 33 34.9997 31 34.9997 31 36.9997ZM35 36.9997 37 36.9997 37 34.9997 35 34.9997 35 36.9997Z" id="Fill-1" fill="#ED7100"/></g></svg>