<svg width="48" height="48" viewBox="0 0 48 48" xmlns="http://www.w3.org/2000/svg" xmlns:xlink="http://www.w3.org/1999/xlink" overflow="hidden"><g id="Icon-Resource/Networking-and-Content-Delivery/Res_Amazon-CloudFront_Edge-Location_48" stroke="none" stroke-width="1" fill="none" fill-rule="evenodd"><path d="M4 43.889 4 29.036C7.767 27.035 11.783 25.622 15.963 24.829L15.963 31.926 31.926 31.926 31.926 24.829C36.105 25.622 40.121 27.035 43.889 29.036L43.889 43.889 4 43.889ZM17.963 29.926 29.926 29.926 29.926 17.963 17.963 17.963 17.963 29.926ZM43.889 4 43.889 26.781C40.104 24.883 36.091 23.55 31.926 22.797L31.926 15.963 15.963 15.963 15.963 22.797C11.798 23.55 7.784 24.883 4 26.781L4 4 43.889 4ZM2 45.889 45.889 45.889 45.889 2 2 2 2 45.889Z" id="AWS-Amazon-CloudFront_edge-location_Resource-Icon_light-bg" fill="#8C4FFF"/></g></svg>