<svg width="48" height="48" viewBox="0 0 48 48" xmlns="http://www.w3.org/2000/svg" xmlns:xlink="http://www.w3.org/1999/xlink" overflow="hidden"><g id="Icon-Resource/Storage/Res_AWS-Backup_Backup-Plan_48" stroke="none" stroke-width="1" fill="none" fill-rule="evenodd"><path d="M39 44 39 12 32 12C31.447 12 31 11.552 31 11L31 4 9 4 9 44 39 44ZM33 10 37.586 10 33 5.414 33 10ZM41 11 41 45C41 45.552 40.553 46 40 46L8 46C7.447 46 7 45.552 7 45L7 3C7 2.448 7.447 2 8 2L32 2 32 2.01C32.26 2.01 32.516 2.102 32.707 2.293L40.707 10.293C40.898 10.484 40.99 10.74 40.991 11L41 11ZM34.579 36.424 32.914 38.089 31.249 36.424 29.835 37.838 31.5 39.503 29.835 41.168 31.249 42.583 32.914 40.917 34.579 42.583 35.993 41.168 34.328 39.503 35.993 37.838 34.579 36.424ZM15.5 12C16.327 12 17 11.327 17 10.5 17 9.673 16.327 9 15.5 9 14.673 9 14 9.673 14 10.5 14 11.327 14.673 12 15.5 12L15.5 12ZM15.5 14C13.57 14 12 12.43 12 10.5 12 8.57 13.57 7 15.5 7 17.43 7 19 8.57 19 10.5 19 12.43 17.43 14 15.5 14L15.5 14ZM25.527 36.876C24.993 36.954 24.459 36.992 23.929 36.992 21.596 36.993 19.334 36.247 17.43 34.827 14.662 32.764 13.061 29.599 13.037 26.143L15.037 26.129C15.057 28.953 16.364 31.538 18.625 33.223 20.534 34.646 22.879 35.238 25.239 34.897 27.595 34.553 29.677 33.312 31.1 31.403 34.037 27.462 33.221 21.866 29.28 18.928 25.604 16.187 20.487 16.717 17.432 20L19 20 19 22 15 22C14.447 22 14 21.552 14 21L14 17 16 17 16 18.606C19.743 14.614 25.986 13.978 30.476 17.324 35.301 20.921 36.3 27.773 32.703 32.598 30.961 34.936 28.412 36.455 25.527 36.876L25.527 36.876Z" id="Fill-1" fill="#7AA116"/></g></svg>