<svg width="48" height="48" viewBox="0 0 48 48" xmlns="http://www.w3.org/2000/svg" xmlns:xlink="http://www.w3.org/1999/xlink" overflow="hidden"><g id="Icon-Resource/Security-Identity-and-Compliance/Res_AWS-Identity-Access-Management_Data-Encryption-Key_48" stroke="none" stroke-width="1" fill="none" fill-rule="evenodd"><path d="M28.3714 32.8701C28.5014 32.7411 28.6724 32.6701 28.8544 32.6701L28.8554 32.6701C29.0394 32.6701 29.2124 32.7411 29.3424 32.8711 29.4714 33.0011 29.5414 33.1721 29.5414 33.3541L29.5414 33.3561C29.5414 33.5401 29.4704 33.7121 29.3404 33.8421 29.2114 33.9711 29.0394 34.0421 28.8554 34.0421L28.8544 34.0421C28.4764 34.0421 28.1704 33.7341 28.1704 33.3561 28.1704 33.1731 28.2414 33.0001 28.3714 32.8701L28.3714 32.8701ZM27.8554 35.8451 27.8554 38.6551 29.8554 38.6551 29.8554 35.8481C30.1864 35.7151 30.4924 35.5171 30.7544 35.2571 31.2614 34.7501 31.5404 34.0761 31.5414 33.3581 31.5434 32.6411 31.2644 31.9671 30.7574 31.4591 30.2504 30.9501 29.5744 30.6701 28.8564 30.6701L28.8534 30.6701C27.3754 30.6701 26.1724 31.8741 26.1704 33.3551 26.1704 34.4831 26.8694 35.4471 27.8554 35.8451L27.8554 35.8451ZM35.7184 40.4651 21.9874 40.4591 21.9914 29.3511 35.7244 29.3581 35.7184 40.4651ZM25.4874 24.8331C25.4904 23.8461 25.8514 22.9211 26.5054 22.2301 27.1404 21.5591 27.9764 21.1901 28.8614 21.1901L28.8724 21.1901C30.7214 21.1961 32.2194 22.8491 32.2134 24.8761L32.2124 27.3561 25.4754 27.3531 25.4874 24.8331ZM36.7244 27.3581 34.2124 27.3571 34.2134 24.8791C34.2234 21.7521 31.8294 19.2001 28.8784 19.1901L28.8614 19.1901C27.4214 19.1901 26.0684 19.7811 25.0524 20.8561 24.0484 21.9181 23.4924 23.3281 23.4874 24.8251L23.4754 27.3521 20.9914 27.3511C20.7264 27.3511 20.4724 27.4571 20.2844 27.6441 20.0974 27.8321 19.9914 28.0861 19.9914 28.3511L19.9874 41.4591C19.9874 42.0111 20.4344 42.4591 20.9874 42.4591L36.7184 42.4651C37.2694 42.4651 37.7184 42.0171 37.7184 41.4651L37.7244 28.3581C37.7244 28.0941 37.6184 27.8391 37.4314 27.6511 37.2434 27.4641 36.9894 27.3581 36.7244 27.3581L36.7244 27.3581ZM15.7634 11.4691C15.3644 11.4691 15.0404 11.1441 15.0404 10.7461 15.0404 10.3471 15.3644 10.0221 15.7634 10.0221 16.1624 10.0221 16.4864 10.3471 16.4864 10.7461 16.4864 11.1441 16.1624 11.4691 15.7634 11.4691L15.7634 11.4691ZM15.7634 8.0221C14.2624 8.0221 13.0404 9.2441 13.0404 10.7461 13.0404 12.2471 14.2624 13.4691 15.7634 13.4691 17.2654 13.4691 18.4864 12.2471 18.4864 10.7461 18.4864 9.2441 17.2654 8.0221 15.7634 8.0221L15.7634 8.0221ZM17.1844 16.1861C16.7684 16.3181 16.4864 16.7041 16.4864 17.1401L16.4864 18.8881C16.4864 19.1531 16.5924 19.4071 16.7794 19.5951L17.5494 20.3641 16.7794 21.1351C16.5924 21.3221 16.4864 21.5771 16.4864 21.8421L16.4864 22.8261C16.4864 23.0921 16.5924 23.3461 16.7794 23.5331L17.5494 24.3031 16.7794 25.0731C16.5924 25.2611 16.4864 25.5161 16.4864 25.7801L16.4864 26.8811 15.6624 27.8231 15.0404 27.2891 15.0404 17.1401C15.0404 16.7041 14.7584 16.3181 14.3424 16.1861 12.4044 15.5721 11.1014 13.7891 11.1014 11.7491 11.1014 9.1791 13.1924 7.0871 15.7634 7.0871 18.3334 7.0871 20.4254 9.1791 20.4254 11.7491 20.4254 13.7891 19.1224 15.5721 17.1844 16.1861L17.1844 16.1861ZM19.6704 21.0711C20.0604 20.6811 20.0604 20.0481 19.6704 19.6571L18.4864 18.4741 18.4864 17.8281C20.8704 16.7711 22.4254 14.4131 22.4254 11.7491 22.4254 8.0751 19.4364 5.0871 15.7634 5.0871 12.0904 5.0871 9.1014 8.0751 9.1014 11.7491 9.1014 14.4131 10.6564 16.7711 13.0404 17.8281L13.0404 27.7491C13.0404 28.0411 13.1684 28.3181 13.3894 28.5081L15.1114 29.9851C15.3004 30.1471 15.5314 30.2261 15.7634 30.2261 16.0414 30.2261 16.3174 30.1111 16.5164 29.8851L18.2394 27.9151C18.3984 27.7331 18.4864 27.4991 18.4864 27.2571L18.4864 26.1941 19.6704 25.0101C20.0604 24.6191 20.0604 23.9861 19.6704 23.5961L18.4864 22.4121 18.4864 22.2561 19.6704 21.0711ZM39.2214 43.1561C39.2214 43.6001 38.8594 43.9621 38.4154 43.9621L8.8064 43.9621C8.3614 43.9621 8.0004 43.6001 8.0004 43.1561L8.0004 4.8061C8.0004 4.3611 8.3614 4.0001 8.8064 4.0001L38.4154 4.0001C38.8594 4.0001 39.2214 4.3611 39.2214 4.8061L39.2214 43.1561ZM38.4154 2.0001 8.8064 2.0001C7.2594 2.0001 6.0004 3.2591 6.0004 4.8061L6.0004 43.1561C6.0004 44.7031 7.2594 45.9621 8.8064 45.9621L38.4154 45.9621C39.9624 45.9621 41.2214 44.7031 41.2214 43.1561L41.2214 4.8061C41.2214 3.2591 39.9624 2.0001 38.4154 2.0001L38.4154 2.0001Z" id="AWS-Identity-and-Access-Management_Data-Encryption-Key_-Resource-Icon_light-bg" fill="#DD344C"/></g></svg>