<svg width="48" height="48" viewBox="0 0 48 48" xmlns="http://www.w3.org/2000/svg" xmlns:xlink="http://www.w3.org/1999/xlink" overflow="hidden"><g id="Icon-Resource/Migration-and-Transfer/Res_AWS-Transfer-Family_AWS-AS2_48" stroke="none" stroke-width="1" fill="none" fill-rule="evenodd"><path d="M33.49 42.0302C33.899 41.4232 34.181 40.9112 34.336 40.4932 34.491 40.0752 34.568 39.6732 34.568 39.2852 34.568 38.5282 34.37 37.9312 33.974 37.4962 33.578 37.0622 33.036 36.8442 32.346 36.8442 31.933 36.8442 31.529 36.9132 31.133 37.0512 30.736 37.1892 30.319 37.4042 29.88 37.6972L29.88 39.1822C30.698 38.6392 31.383 38.3682 31.933 38.3682 32.192 38.3682 32.389 38.4542 32.527 38.6272 32.665 38.7992 32.734 39.0492 32.734 39.3762 32.734 39.7722 32.644 40.1812 32.463 40.6032 32.282 41.0252 31.978 41.5502 31.553 42.1782 31.126 42.8072 30.509 43.6472 29.699 44.6972L29.699 45.9892 34.84 45.9892 34.84 44.5302 31.624 44.5302C32.459 43.4702 33.081 42.6372 33.49 42.0302L33.49 42.0302ZM27.858 41.6362C27.595 41.3952 27.24 41.1542 26.793 40.9132L26.095 40.5382C25.717 40.3322 25.46 40.1422 25.327 39.9702 25.193 39.7982 25.127 39.5782 25.127 39.3112 25.127 38.9922 25.23 38.7432 25.436 38.5622 25.643 38.3812 25.928 38.2912 26.289 38.2912 26.823 38.2912 27.438 38.4202 28.136 38.6782L28.136 37.3092C27.465 36.9992 26.788 36.8442 26.108 36.8442 25.565 36.8442 25.086 36.9492 24.668 37.1602 24.25 37.3722 23.921 37.6732 23.679 38.0652 23.438 38.4572 23.318 38.9152 23.318 39.4402 23.318 40.0092 23.456 40.4912 23.731 40.8872 24.007 41.2832 24.464 41.6542 25.1 41.9982L25.799 42.3722C26.151 42.5622 26.403 42.7492 26.553 42.9342 26.704 43.1192 26.78 43.3452 26.78 43.6132 26.78 43.9742 26.672 44.2522 26.457 44.4462 26.242 44.6392 25.928 44.7362 25.514 44.7362 25.23 44.7362 24.887 44.6962 24.487 44.6132 24.087 44.5312 23.727 44.4302 23.409 44.3102L23.409 45.6662C23.684 45.8212 24.024 45.9462 24.429 46.0412 24.834 46.1352 25.238 46.1832 25.643 46.1832 26.573 46.1832 27.303 45.9442 27.833 45.4662 28.362 44.9882 28.627 44.3402 28.627 43.5222 28.627 43.1002 28.564 42.7402 28.439 42.4442 28.314 42.1462 28.121 41.8772 27.858 41.6362L27.858 41.6362ZM19.999 42.5662 19.185 38.8592 18.397 42.5662 19.999 42.5662ZM20.258 37.0382 22.724 45.9892 20.735 45.9892 20.27 43.8582 18.127 43.8582 17.675 45.9892 15.775 45.9892 18.256 37.0382 20.258 37.0382ZM45.609 10.8922 36.998 2.2812C36.623 1.9062 35.959 1.9062 35.584 2.2812L26.973 10.8922C26.687 11.1782 26.601 11.6092 26.757 11.9822 26.911 12.3562 27.276 12.5992 27.68 12.5992L32.062 12.5992 32.062 16.9812 32.062 21.2862 32.062 24.5162C32.062 25.0682 32.51 25.5162 33.062 25.5162L36.03 25.5162 29.833 31.7132 23.636 25.5162 26.604 25.5162C27.157 25.5162 27.604 25.0682 27.604 24.5162L27.604 16.9812 25.604 16.9812 25.604 23.5162 21.221 23.5162C20.817 23.5162 20.452 23.7592 20.298 24.1332 20.142 24.5072 20.228 24.9372 20.514 25.2232L29.126 33.8342C29.321 34.0292 29.577 34.1272 29.833 34.1272 30.089 34.1272 30.344 34.0292 30.54 33.8342L39.151 25.2232C39.437 24.9372 39.523 24.5072 39.368 24.1332 39.214 23.7592 38.848 23.5162 38.444 23.5162L34.062 23.5162 34.062 21.2862 34.062 16.9812 34.062 11.5992C34.062 11.0472 33.615 10.5992 33.062 10.5992L30.094 10.5992 36.291 4.4022 42.488 10.5992 39.52 10.5992C38.968 10.5992 38.52 11.0472 38.52 11.5992L38.52 19.2102 36.291 19.2102 36.291 21.2102 41.75 21.2102 41.75 43.9672 39.456 43.9672 39.456 45.9672 42.75 45.9672C43.303 45.9672 43.75 45.5192 43.75 44.9672L43.75 20.2102C43.75 19.6582 43.303 19.2102 42.75 19.2102L40.52 19.2102 40.52 12.5992 44.902 12.5992C45.306 12.5992 45.672 12.3562 45.826 11.9822 45.981 11.6082 45.895 11.1782 45.609 10.8922L45.609 10.8922ZM9.08 43.9672 11.535 43.9672 11.535 45.9672 6.152 45.9672C4.414 45.9672 3 44.5522 3 42.8142L3 12.6762C3 12.1232 3.447 11.6762 4 11.6762L15.922 11.6762C16.231 11.6762 16.524 11.8192 16.714 12.0642L18.906 14.9052 23.375 14.9052 23.375 16.9052 18.415 16.9052C18.105 16.9052 17.812 16.7612 17.623 16.5162L15.43 13.6762 5 13.6762 5 42.8142C5 43.4502 5.516 43.9672 6.152 43.9672 6.788 43.9672 7.305 43.4502 7.305 42.8142L7.305 20.2102C7.305 19.6582 7.753 19.2102 8.305 19.2102L23.375 19.2102 23.375 21.2102 9.305 21.2102 9.305 42.8142C9.305 43.2222 9.222 43.6092 9.08 43.9672L9.08 43.9672Z" id="Fill-1" fill="#01A88D"/></g></svg>