<svg width="48" height="48" viewBox="0 0 48 48" xmlns="http://www.w3.org/2000/svg" xmlns:xlink="http://www.w3.org/1999/xlink" overflow="hidden"><g id="Icon-Resource/Migration-and-Transfer/Res_AWS-Application-Discovery-Service_AWS-Discovery-Agent_48" stroke="none" stroke-width="1" fill="none" fill-rule="evenodd"><path d="M23.2001 15.4482C23.6941 15.3632 24.0341 14.8832 24.0211 14.3872 24.0271 13.1552 24.5121 12.2902 25.3551 12.0132 26.0881 11.7732 26.9011 12.0422 27.3751 12.6852 27.5951 12.9842 27.9581 13.1392 28.3281 13.0822 28.6941 13.0272 29.0001 12.7752 29.1241 12.4252 29.5001 11.3592 30.0391 10.4682 30.7271 9.7742 31.5661 8.9302 33.8641 7.1152 37.1141 8.4942 38.9511 9.2742 40.4451 11.6172 40.4471 13.6582L40.3981 14.4892C40.3701 14.9662 40.6841 15.3972 41.1471 15.5162 42.2131 15.7892 44.0001 16.6332 44.0001 19.2052 44.0001 21.1602 42.9461 22.2352 42.0621 22.7942 41.8461 22.9302 41.5551 22.9962 41.1751 22.9972L33.0001 22.9972 33.0001 24.9972 41.1761 24.9972C41.9361 24.9962 42.5951 24.8232 43.1311 24.4852 44.2021 23.8082 46.0001 22.2222 46.0001 19.2052 46.0001 16.6682 44.6841 14.7132 42.4381 13.8342L42.4451 13.7172C42.4451 10.7922 40.4891 7.7552 37.8961 6.6532 34.8641 5.3652 31.6531 6.0042 29.3091 8.3652 28.7201 8.9582 28.2181 9.6532 27.8071 10.4402 26.8881 9.9072 25.7741 9.7712 24.7311 10.1132 23.2411 10.6022 22.2791 11.9002 22.0661 13.6532 20.9101 13.9692 19.9531 14.5112 19.2681 15.2442L20.7311 16.6092C21.4071 15.8852 22.4471 15.5782 23.2001 15.4482L23.2001 15.4482ZM6.26713 18.7002 7.68913 17.2942 5.41813 14.9972 18.0001 14.9972 18.0001 12.9972 5.39813 12.9972 7.69913 10.7052 6.28913 9.2882 2.29513 13.2652C1.90413 13.6542 1.90113 14.2852 2.28913 14.6772L6.26713 18.7002ZM41.7261 29.2932 40.3041 30.7002 42.5791 32.9972 30.0001 32.9972 30.0001 34.9972 42.5991 34.9972 40.2951 37.2882 41.7051 38.7062 45.7051 34.7292C46.0961 34.3412 46.0981 33.7092 45.7111 33.3172L41.7261 29.2932ZM34.1211 36.5642 35.8791 37.5192C34.1621 40.6742 30.3911 40.9832 30.2311 40.9942L7.75313 40.9972C6.84213 40.9952 6.09113 40.8012 5.45413 40.4012 4.16413 39.5922 2.00013 37.6942 2.00013 34.0782 2.00013 30.9882 3.64013 28.6192 6.43313 27.6012L6.41913 27.3572C6.41713 23.7732 8.78413 20.1152 11.9231 18.7882 15.5981 17.2382 19.4831 18.0082 22.3211 20.8512 23.0941 21.6242 23.7441 22.5412 24.2621 23.5902 25.3861 22.8502 26.7971 22.6372 28.1191 23.0742 29.9141 23.6662 31.0581 25.2612 31.2701 27.4112 32.5941 27.7652 34.6171 28.6172 35.7901 30.6252L34.0631 31.6342C33.0351 29.8752 30.9691 29.3492 30.1281 29.2052 29.5921 29.1132 29.2281 28.6112 29.3071 28.0732 29.3061 26.5132 28.6451 25.3542 27.4921 24.9732 26.4741 24.6392 25.3541 25.0052 24.7001 25.8872 24.4791 26.1842 24.1131 26.3392 23.7491 26.2812 23.3831 26.2262 23.0771 25.9742 22.9541 25.6262 22.4751 24.2762 21.7871 23.1452 20.9071 22.2642 19.8291 21.1852 16.8721 18.8682 12.7021 20.6312 10.2991 21.6462 8.41713 24.5742 8.41713 27.2982L8.47513 28.2652C8.50414 28.7432 8.18913 29.1752 7.72413 29.2932 6.33413 29.6482 4.00013 30.7422 4.00013 34.0782 4.00013 36.5982 5.36913 37.9872 6.51613 38.7072 6.82613 38.9012 7.23113 38.9962 7.75513 38.9972L30.1591 38.9972C30.1221 38.9962 32.9361 38.7422 34.1211 36.5642L34.1211 36.5642Z" id="Fill-1" fill="#01A88D"/></g></svg>