<svg width="48" height="48" viewBox="0 0 48 48" xmlns="http://www.w3.org/2000/svg" xmlns:xlink="http://www.w3.org/1999/xlink" overflow="hidden"><g id="Icon-Resource/Storage/Res_Amazon-File-Cache_Hybrid-NFS-linked-datasets_48" stroke="none" stroke-width="1" fill="none" fill-rule="evenodd"><path d="M15 34 13 34C11.346 34 10 32.654 10 31L8 31C8 33.757 10.243 36 13 36L15 36C17.757 36 20 33.757 20 31 20 28.243 17.757 26 15 26L15 28C16.654 28 18 29.346 18 31 18 32.654 16.654 34 15 34L15 34ZM7 28 9 28C10.654 28 12 29.346 12 31L14 31C14 28.243 11.757 26 9 26L7 26C4.243 26 2 28.243 2 31 2 33.757 4.243 36 7 36L7 34C5.346 34 4 32.654 4 31 4 29.346 5.346 28 7 28L7 28ZM10 18 26 18 22.4 20.7 23.6 22.3 29.6 17.8C29.852 17.611 30 17.315 30 17 30 16.685 29.852 16.389 29.6 16.2L23.6 11.7 22.4 13.3 26 16 9 16C8.447 16 8 16.448 8 17L8 24 10 24 10 18ZM36 44 10 44 10 38.09 8 38.09 8 45C8 45.552 8.447 46 9 46L37 46C37.553 46 38 45.552 38 45L38 34 36 34 36 44ZM46 3 46 31C46 31.552 45.553 32 45 32L29 32 32.6 34.7 31.4 36.3 25.4 31.8C25.148 31.611 25 31.315 25 31 25 30.685 25.148 30.389 25.4 30.2L31.4 25.7 32.6 27.3 29 30 44 30 44 4 18 4 18 14 16 14 16 3C16 2.448 16.447 2 17 2L45 2C45.553 2 46 2.448 46 3L46 3Z" id="Fill-1" fill="#7AA116"/></g></svg>