<svg width="80" height="80" viewBox="0 0 80 80" xmlns="http://www.w3.org/2000/svg" xmlns:xlink="http://www.w3.org/1999/xlink" overflow="hidden"><g id="Icon-Architecture/64/Arch_Amazon-FSx-for-Lustre_64" stroke="none" stroke-width="1" fill="none" fill-rule="evenodd"><g id="Icon-Architecture-BG/64/Storage" fill="#7AA116"><rect x="0" y="0" width="80" height="80" id="Rectangle"/></g><path d="M63.588 39.998 62.845 39.332 56.259 45.73C56.208 45.726 56.16 45.715 56.109 45.715 55.072 45.715 54.23 46.558 54.23 47.594 54.23 48.63 55.072 49.473 56.109 49.473 57.145 49.473 57.988 48.63 57.988 47.594 57.988 47.472 57.975 47.353 57.952 47.238L63.588 39.998ZM58.952 40.956 59.694 39.098C58.549 38.641 57.343 38.409 56.109 38.409 50.644 38.409 46.198 42.924 46.198 48.473L48.198 48.473C48.198 44.026 51.747 40.409 56.109 40.409 57.088 40.409 58.044 40.593 58.952 40.956L58.952 40.956ZM64.156 42.636 62.524 43.791C63.502 45.173 64.019 46.792 64.019 48.473L66.019 48.473C66.019 46.376 65.375 44.358 64.156 42.636L64.156 42.636ZM36.432 48.473 38.516 48.473 41.992 43.396 41.054 42.071 36.432 48.473ZM48.984 33.766 46.929 33.766 42.996 39.379 41.944 40.837 44.936 45.123C45.09 44.4 45.336 43.705 45.654 43.043L44.008 40.702 48.984 33.766ZM42.123 38.134 39.064 33.766 36.895 33.766 41.028 39.592 42.123 38.134ZM31.999 39.266 29.23 38.205C28.315 37.86 27.611 37.537 27.12 37.234 26.628 36.933 26.275 36.596 26.059 36.225 25.843 35.854 25.735 35.367 25.735 34.763 25.735 33.693 26.089 32.869 26.796 32.291 27.504 31.713 28.522 31.424 29.851 31.424 31.213 31.424 32.776 31.734 34.535 32.355L34.535 31.036C33.793 30.708 33.004 30.453 32.167 30.272 31.33 30.091 30.532 30 29.773 30 28.099 30 26.748 30.445 25.722 31.333 24.695 32.222 24.182 33.382 24.182 34.814 24.182 35.867 24.493 36.751 25.114 37.467 25.735 38.184 26.71 38.8 28.038 39.318L31.041 40.483C32.076 40.88 32.827 41.329 33.293 41.829 33.759 42.33 33.991 42.933 33.991 43.641 33.991 44.797 33.565 45.711 32.71 46.384 31.857 47.057 30.713 47.394 29.281 47.394 27.763 47.394 26.098 47.066 24.285 46.41L24.285 47.73C25.787 48.455 27.495 48.817 29.41 48.817 31.257 48.817 32.745 48.343 33.875 47.394 35.005 46.445 35.57 45.203 35.57 43.666 35.57 42.614 35.286 41.738 34.716 41.04 34.148 40.34 33.241 39.749 31.999 39.266L31.999 39.266ZM13 30.44 23.068 30.44 23.068 31.812 14.527 31.812 14.527 38.671 21.748 38.671 21.748 40.043 14.527 40.043 14.527 48.377 13 48.377 13 30.44Z" id="Amazon-FSx-for-Lustre-Icon_64_Squid" fill="#FFFFFF"/></g></svg>