<svg width="80" height="80" viewBox="0 0 80 80" xmlns="http://www.w3.org/2000/svg" xmlns:xlink="http://www.w3.org/1999/xlink" overflow="hidden"><g id="Icon-Architecture/64/Arch_Amazon-Rekognition_64" stroke="none" stroke-width="1" fill="none" fill-rule="evenodd"><g id="Icon-Architecture-BG/64/Machine-Learning" fill="#01A88D"><rect x="0" y="0" width="80" height="80" id="Rectangle"/></g><path d="M65.3266 60.3225 51.9153 47.266C50.6025 49.0402 49.0316 50.6126 47.257 51.9258L60.3446 65.3232C60.993 65.9717 61.7623 66.0272 62.2927 65.9606 63.1054 65.8567 63.9483 65.4038 64.6682 64.6847 65.3901 63.9615 65.8499 63.1113 65.9588 62.2882 66.0304 61.7517 65.978 60.975 65.3266 60.3225L65.3266 60.3225ZM34.124 54.2436C45.2112 54.2436 54.2304 45.2206 54.2304 34.1309 54.2304 23.0402 45.2112 14.0172 34.124 14.0172 23.0368 14.0172 14.0166 23.0402 14.0166 34.1309 14.0166 45.2206 23.0368 54.2436 34.124 54.2436L34.124 54.2436ZM67.9573 62.5555C67.7889 63.8143 67.1274 65.077 66.0939 66.1109 65.0594 67.1447 63.8011 67.8023 62.5478 67.9617 62.3461 67.9879 62.1465 68 61.9478 68 60.7943 68 59.7326 67.5643 58.9109 66.7413L45.557 53.0706C42.2175 55.0938 38.3044 56.2608 34.124 56.2608 21.9246 56.2608 12 46.3331 12 34.1309 12 21.9277 21.9246 12 34.124 12 46.3223 12 56.2469 21.9277 56.2469 34.1309 56.2469 38.3116 55.0814 42.225 53.0587 45.5645L66.7423 58.8862C67.7163 59.8595 68.1438 61.1596 67.9573 62.5555L67.9573 62.5555ZM48.2401 34.1309C48.2401 26.2123 42.0391 20.0104 34.124 20.0104 26.2079 20.0104 20.0079 26.2123 20.0079 34.1309 20.0079 42.0485 26.2079 48.2514 34.124 48.2514 42.0391 48.2514 48.2401 42.0485 48.2401 34.1309L48.2401 34.1309ZM50.2567 34.1309C50.2567 43.1801 43.1694 50.2687 34.124 50.2687 25.0776 50.2687 17.9913 43.1801 17.9913 34.1309 17.9913 25.0817 25.0776 17.9932 34.124 17.9932 43.1694 17.9932 50.2567 25.0817 50.2567 34.1309L50.2567 34.1309ZM27.9008 36.9742 25.8842 36.9742 25.8842 42.0172 30.9257 42.0172 30.9257 40 27.9008 40 27.9008 36.9742ZM25.8842 30.9225 27.9008 30.9225 27.9008 27.8967 30.9257 27.8967 30.9257 25.8795 25.8842 25.8795 25.8842 30.9225ZM36.9754 27.8967 40.0003 27.8967 40.0003 30.9225 42.0169 30.9225 42.0169 25.8795 36.9754 25.8795 36.9754 27.8967ZM40.0003 36.9742 42.0169 36.9742 42.0169 42.0172 36.9754 42.0172 36.9754 40 40.0003 40 40.0003 36.9742Z" id="Amazon-Rekognition-Icon_64_Squid" fill="#FFFFFF"/></g></svg>