<svg width="48" height="48" viewBox="0 0 48 48" xmlns="http://www.w3.org/2000/svg" xmlns:xlink="http://www.w3.org/1999/xlink" overflow="hidden"><g id="Icon-Resource/Networking-and-Content-Delivery/Res_Amazon-VPC_Network-Access-Control-List_48" stroke="none" stroke-width="1" fill="none" fill-rule="evenodd"><path d="M32.625 35.376 34.625 35.376 34.625 12.625 32.625 12.625 32.625 35.376ZM13.375 35.376 15.375 35.376 15.375 12.625 13.375 12.625 13.375 35.376ZM39.625 25.486 37.843 24.001 39.625 22.515 39.625 25.486ZM41.049 19.475C40.701 19.311 40.284 19.363 39.984 19.611L35.64 23.232C35.412 23.423 35.28 23.704 35.28 24.001 35.28 24.298 35.412 24.579 35.64 24.77L39.985 28.39C40.168 28.542 40.396 28.621 40.625 28.621 40.77 28.621 40.914 28.59 41.049 28.526 41.4 28.362 41.625 28.009 41.625 27.621L41.625 20.38C41.625 19.992 41.4 19.639 41.049 19.475L41.049 19.475ZM8.375 25.486 8.375 22.515 10.157 24.001 8.375 25.486ZM8.016 19.611C7.717 19.364 7.302 19.31 6.951 19.475 6.6 19.639 6.375 19.992 6.375 20.38L6.375 27.621C6.375 28.009 6.6 28.362 6.951 28.526 7.086 28.59 7.231 28.621 7.375 28.621 7.605 28.621 7.832 28.542 8.015 28.39L12.36 24.77C12.588 24.579 12.72 24.298 12.72 24.001 12.72 23.704 12.588 23.423 12.36 23.232L8.016 19.611ZM24 44.001C12.972 44.001 4 35.029 4 24.001 4 12.973 12.972 4 24 4 35.028 4 44 12.973 44 24.001 44 35.029 35.028 44.001 24 44.001L24 44.001ZM24 2C11.869 2 2 11.869 2 24.001 2 36.132 11.869 46.001 24 46.001 36.131 46.001 46 36.132 46 24.001 46 11.869 36.131 2 24 2L24 2ZM28.246 29.126 19.75 29.121 19.752 22.376 28.25 22.38 28.246 29.126ZM22.379 19.051C22.381 18.499 22.566 17.987 22.902 17.608 23.206 17.268 23.598 17.079 24.007 17.079L24.012 17.079C24.901 17.082 25.622 17.977 25.619 19.076L25.618 20.379 22.373 20.377 22.379 19.051ZM29.25 20.38 27.618 20.379 27.619 19.079C27.626 16.88 26.01 15.086 24.018 15.079L24.007 15.079C23.018 15.079 22.095 15.506 21.406 16.281 20.747 17.024 20.382 18.006 20.379 19.043L20.373 20.377 18.752 20.376C18.487 20.376 18.232 20.481 18.045 20.669 17.857 20.856 17.752 21.11 17.752 21.376L17.75 30.121C17.75 30.673 18.197 31.121 18.75 31.121L29.246 31.126C29.511 31.126 29.766 31.021 29.953 30.833 30.141 30.646 30.246 30.392 30.246 30.126L30.25 21.38C30.25 21.115 30.145 20.86 29.957 20.673 29.77 20.485 29.516 20.38 29.25 20.38L29.25 20.38Z" id="AWS-Amazon-VPC_Network-access-control-list_Resource-Icon_light-bg" fill="#8C4FFF"/></g></svg>