<svg width="80" height="80" viewBox="0 0 80 80" xmlns="http://www.w3.org/2000/svg" xmlns:xlink="http://www.w3.org/1999/xlink" overflow="hidden"><g id="Icon-Architecture/64/Arch_AWS-Migration-Hub_64" stroke="none" stroke-width="1" fill="none" fill-rule="evenodd"><g id="Icon-Architecture-BG/64/Migration-Transfer" fill="#01A88D"><rect x="0" y="0" width="80" height="80" id="Rectangle"/></g><path d="M30.793 35.258 39.793 26.258C40.184 25.867 40.816 25.867 41.207 26.258L50.207 35.258 48.793 36.672 40.5 28.379 32.207 36.672 30.793 35.258ZM41.207 38.258 50.207 47.258 48.793 48.672 40.5 40.379 32.207 48.672 30.793 47.258 39.793 38.258C40.184 37.867 40.816 37.867 41.207 38.258L41.207 38.258ZM50.207 41.258 48.793 42.672 40.5 34.379 32.207 42.672 30.793 41.258 39.793 32.258C40.184 31.867 40.816 31.867 41.207 32.258L50.207 41.258ZM56.771 55.227C55.796 56.2 54.209 56.201 53.234 55.227 52.762 54.754 52.502 54.127 52.502 53.459 52.502 52.791 52.762 52.163 53.234 51.691 53.722 51.204 54.362 50.96 55.003 50.96 55.643 50.96 56.283 51.204 56.771 51.691 57.744 52.666 57.744 54.252 56.771 55.227L56.771 55.227ZM42.268 63.222C41.324 64.167 39.676 64.167 38.732 63.222 38.26 62.75 38 62.122 38 61.454 38 60.787 38.26 60.159 38.732 59.687 39.204 59.215 39.832 58.955 40.5 58.955 41.168 58.955 41.796 59.215 42.268 59.687 42.74 60.159 43 60.787 43 61.454 43 62.122 42.74 62.75 42.268 63.222L42.268 63.222ZM25.236 55.233C24.764 54.76 24.504 54.133 24.504 53.465 24.504 52.797 24.764 52.17 25.236 51.697 25.708 51.225 26.336 50.965 27.004 50.965 27.672 50.965 28.3 51.225 28.772 51.697 29.244 52.17 29.504 52.797 29.504 53.465 29.504 54.133 29.244 54.76 28.772 55.233 27.826 56.177 26.182 56.177 25.236 55.233L25.236 55.233ZM51.82 50.277C50.97 51.127 50.502 52.257 50.502 53.459 50.502 53.932 50.595 54.388 50.734 54.826L43.936 58.581C43.85 58.479 43.777 58.368 43.682 58.273 42.832 57.423 41.702 56.955 40.5 56.955 39.298 56.955 38.168 57.423 37.318 58.273 37.241 58.35 37.184 58.441 37.113 58.523L31.224 54.99C31.398 54.506 31.504 53.995 31.504 53.465 31.504 52.263 31.036 51.133 30.186 50.283 29.336 49.433 28.206 48.965 27.004 48.965 25.802 48.965 24.672 49.433 23.822 50.283 22.972 51.133 22.504 52.263 22.504 53.465 22.504 54.667 22.972 55.797 23.822 56.647 24.672 57.497 25.802 57.965 27.004 57.965 28.189 57.965 29.303 57.506 30.148 56.677L36.171 60.29C36.07 60.667 36 61.054 36 61.454 36 62.656 36.468 63.787 37.318 64.636 38.168 65.487 39.298 65.954 40.5 65.954 41.702 65.954 42.832 65.487 43.682 64.636 44.532 63.787 45 62.656 45 61.454 45 61.079 44.939 60.716 44.851 60.361L51.747 56.552C51.773 56.58 51.793 56.613 51.82 56.641 52.697 57.518 53.85 57.956 55.002 57.956 56.154 57.956 57.308 57.518 58.185 56.641 59.939 54.886 59.939 52.031 58.185 50.277 56.432 48.524 53.575 48.521 51.82 50.277L51.82 50.277ZM60.5 46.965C59.121 46.965 58 45.843 58 44.465 58 43.087 59.121 41.965 60.5 41.965 61.879 41.965 63 43.087 63 44.465 63 45.843 61.879 46.965 60.5 46.965L60.5 46.965ZM58 27.465C58 26.087 59.121 24.965 60.5 24.965 61.879 24.965 63 26.087 63 27.465 63 28.843 61.879 29.965 60.5 29.965 59.121 29.965 58 28.843 58 27.465L58 27.465ZM46 21C44.621 21 43.5 19.879 43.5 18.5 43.5 17.122 44.621 16 46 16 47.379 16 48.5 17.122 48.5 18.5 48.5 19.879 47.379 21 46 21L46 21ZM61.5 40.086 61.5 31.844C63.5 31.387 65 29.602 65 27.465 65 24.984 62.981 22.965 60.5 22.965 59.45 22.965 58.496 23.341 57.73 23.945L50.277 19.829C50.408 19.406 50.5 18.966 50.5 18.5 50.5 16.019 48.481 14 46 14 43.519 14 41.5 16.019 41.5 18.5 41.5 20.982 43.519 23 46 23 47.296 23 48.457 22.442 49.278 21.562L56.456 25.527C56.173 26.116 56 26.768 56 27.465 56 29.602 57.5 31.387 59.5 31.844L59.5 40.086C57.5 40.543 56 42.328 56 44.465 56 46.946 58.019 48.965 60.5 48.965 62.981 48.965 65 46.946 65 44.465 65 42.328 63.5 40.543 61.5 40.086L61.5 40.086ZM20.5 46.965C19.121 46.965 18 45.843 18 44.465 18 43.087 19.121 41.965 20.5 41.965 21.879 41.965 23 43.087 23 44.465 23 45.843 21.879 46.965 20.5 46.965L20.5 46.965ZM18 27.465C18 26.087 19.121 24.965 20.5 24.965 21.879 24.965 23 26.087 23 27.465 23 28.843 21.879 29.965 20.5 29.965 19.121 29.965 18 28.843 18 27.465L18 27.465ZM35 16C36.379 16 37.5 17.122 37.5 18.5 37.5 19.879 36.379 21 35 21 33.621 21 32.5 19.879 32.5 18.5 32.5 17.122 33.621 16 35 16L35 16ZM25 44.465C25 42.328 23.5 40.543 21.5 40.086L21.5 31.844C23.5 31.387 25 29.602 25 27.465 25 26.768 24.827 26.116 24.544 25.527L31.722 21.562C32.543 22.442 33.704 23 35 23 37.481 23 39.5 20.982 39.5 18.5 39.5 16.019 37.481 14 35 14 32.519 14 30.5 16.019 30.5 18.5 30.5 18.966 30.592 19.406 30.723 19.829L23.27 23.945C22.504 23.341 21.55 22.965 20.5 22.965 18.019 22.965 16 24.984 16 27.465 16 29.602 17.5 31.387 19.5 31.844L19.5 40.086C17.5 40.543 16 42.328 16 44.465 16 46.946 18.019 48.965 20.5 48.965 22.981 48.965 25 46.946 25 44.465L25 44.465Z" id="AWS-Migration-Hub_Icon_64_Squid" fill="#FFFFFF"/></g></svg>