<svg width="48" height="48" viewBox="0 0 48 48" xmlns="http://www.w3.org/2000/svg" xmlns:xlink="http://www.w3.org/1999/xlink" overflow="hidden"><g id="Icon-Resource/Database/Res_Amazon-DynamoDB_Attributes_48" stroke="none" stroke-width="1" fill="none" fill-rule="evenodd"><path d="M12.625 40.5C11.487 40.5 10.562 39.575 10.562 38.437 10.562 37.3 11.487 36.375 12.625 36.375 13.763 36.375 14.688 37.3 14.688 38.437 14.688 39.575 13.763 40.5 12.625 40.5L12.625 40.5ZM12.625 34.375C10.385 34.375 8.563 36.197 8.563 38.437 8.563 40.678 10.385 42.5 12.625 42.5 14.865 42.5 16.687 40.678 16.687 38.437 16.687 36.197 14.865 34.375 12.625 34.375L12.625 34.375ZM12.625 25.625C11.487 25.625 10.562 24.7 10.562 23.563 10.562 22.425 11.487 21.5 12.625 21.5 13.763 21.5 14.688 22.425 14.688 23.563 14.688 24.7 13.763 25.625 12.625 25.625L12.625 25.625ZM12.625 19.5C10.385 19.5 8.563 21.322 8.563 23.563 8.563 25.803 10.385 27.625 12.625 27.625 14.865 27.625 16.687 25.803 16.687 23.563 16.687 21.322 14.865 19.5 12.625 19.5L12.625 19.5ZM12.625 10.75C11.487 10.75 10.562 9.825 10.562 8.688 10.562 7.55 11.487 6.625 12.625 6.625 13.763 6.625 14.688 7.55 14.688 8.688 14.688 9.825 13.763 10.75 12.625 10.75L12.625 10.75ZM12.625 4.625C10.385 4.625 8.563 6.447 8.563 8.688 8.563 10.928 10.385 12.75 12.625 12.75 14.865 12.75 16.687 10.928 16.687 8.688 16.687 6.447 14.865 4.625 12.625 4.625L12.625 4.625ZM26.75 43.125 44 43.125 44 33.75 26.75 33.75 26.75 43.125ZM24.75 45.125 46 45.125 46 31.75 24.75 31.75 24.75 45.125ZM26.75 28.25 44 28.25 44 18.875 26.75 18.875 26.75 28.25ZM24.75 30.25 46 30.25 46 16.875 24.75 16.875 24.75 30.25ZM26.75 13.375 44 13.375 44 4 26.75 4 26.75 13.375ZM24.75 15.375 46 15.375 46 2 24.75 2 24.75 15.375ZM4 43.125 21.25 43.125 21.25 33.75 4 33.75 4 43.125ZM2 45.125 23.25 45.125 23.25 31.75 2 31.75 2 45.125ZM4 28.25 21.25 28.25 21.25 18.875 4 18.875 4 28.25ZM2 30.25 23.25 30.25 23.25 16.875 2 16.875 2 30.25ZM4 13.375 21.25 13.375 21.25 4 4 4 4 13.375ZM2 15.375 23.25 15.375 23.25 2 2 2 2 15.375Z" id="Amazon-DATABASE_Amazon-DynamoDB_Attributes_Resource-Icon_light-bg" fill="#C925D1"/></g></svg>