<svg width="48" height="48" viewBox="0 0 48 48" xmlns="http://www.w3.org/2000/svg" xmlns:xlink="http://www.w3.org/1999/xlink" overflow="hidden"><g id="Icon-Resource/IoT/Res_AWS-IoT_Thing_Car_48" stroke="none" stroke-width="1" fill="none" fill-rule="evenodd"><path d="M37.0351 28.2461 36.0801 28.2461C35.6381 26.6351 34.1751 25.4411 32.4261 25.4411 30.6771 25.4411 29.2141 26.6351 28.7711 28.2461L20.5961 28.2461C20.1531 26.6351 18.6901 25.4411 16.9411 25.4411 15.1921 25.4411 13.7291 26.6351 13.2871 28.2461L12.6681 28.2461 12.6681 25.3521C12.6681 25.1981 12.7721 25.0821 12.8661 25.0741 12.9381 25.0681 13.0111 25.0551 13.0801 25.0331L19.3801 23.0651C19.9311 22.8621 20.3381 22.3891 20.4631 21.8171L21.7111 18.0271C21.7301 17.9691 21.7831 17.9411 21.8241 17.9411L31.2761 17.9411C31.4311 17.9411 31.5711 18.0261 31.6181 18.1071L33.9601 23.1781C34.0951 23.4681 34.3591 23.6771 34.6731 23.7391 36.3061 24.0651 37.0351 25.0211 37.0351 26.8381L37.0351 28.2461ZM30.6211 29.2461C30.6211 28.2511 31.4311 27.4411 32.4261 27.4411 33.4211 27.4411 34.2301 28.2511 34.2301 29.2461 34.2301 30.2411 33.4211 31.0511 32.4261 31.0511 31.4311 31.0511 30.6211 30.2411 30.6211 29.2461ZM15.1371 29.2461C15.1371 28.2511 15.9461 27.4411 16.9411 27.4411 17.9361 27.4411 18.7461 28.2511 18.7461 29.2461 18.7461 30.2411 17.9361 31.0511 16.9411 31.0511 15.9461 31.0511 15.1371 30.2411 15.1371 29.2461ZM33.4031 17.2081C32.9751 16.4271 32.1611 15.9411 31.2761 15.9411L21.8241 15.9411C20.9071 15.9411 20.0981 16.5281 19.8101 17.4021L18.5511 21.2301 12.5721 23.0961C11.4951 23.2521 10.6681 24.2191 10.6681 25.3521L10.6681 27.3671 9.0311 27.3671 9.0311 29.3671 10.8091 29.3671C11.0491 29.8851 11.5661 30.2461 12.1701 30.2461L13.2871 30.2461C13.7291 31.8571 15.1921 33.0511 16.9411 33.0511 18.6901 33.0511 20.1531 31.8571 20.5961 30.2461L28.7711 30.2461C29.2141 31.8571 30.6771 33.0511 32.4261 33.0511 34.1751 33.0511 35.6381 31.8571 36.0801 30.2461L37.5421 30.2461C38.3651 30.2461 39.0351 29.5681 39.0351 28.7361L39.0351 26.8381C39.0351 24.2741 37.8111 22.5401 35.5731 21.9011L33.4031 17.2081ZM39.6711 38.5371C39.6711 39.1631 39.1611 39.6721 38.5351 39.6721L9.4101 39.6721C8.7841 39.6721 8.2751 39.1631 8.2751 38.5371L8.2751 9.4231C8.2751 8.7971 8.7841 8.2881 9.4101 8.2881L38.5361 8.2881C39.1621 8.2881 39.6711 8.7971 39.6711 9.4231L39.6711 38.5371ZM45.9451 14.4261 45.9451 12.4261 41.6711 12.4261 41.6711 9.4231C41.6711 7.6941 40.2641 6.2881 38.5361 6.2881L35.5191 6.2881 35.5191 2.0001 33.5191 2.0001 33.5191 6.2881 30.2461 6.2881 30.2461 2.0001 28.2461 2.0001 28.2461 6.2881 24.9721 6.2881 24.9721 2.0001 22.9721 2.0001 22.9721 6.2881 19.6991 6.2881 19.6991 2.0001 17.6991 2.0001 17.6991 6.2881 14.4261 6.2881 14.4261 2.0001 12.4261 2.0001 12.4261 6.2881 9.4101 6.2881C7.6811 6.2881 6.2751 7.6941 6.2751 9.4231L6.2751 12.4261 2.0001 12.4261 2.0001 14.4261 6.2751 14.4261 6.2751 17.6991 2.0001 17.6991 2.0001 19.6991 6.2751 19.6991 6.2751 22.9731 2.0001 22.9731 2.0001 24.9731 6.2751 24.9731 6.2751 28.2461 2.0001 28.2461 2.0001 30.2461 6.2751 30.2461 6.2751 33.5191 2.0001 33.5191 2.0001 35.5191 6.2751 35.5191 6.2751 38.5371C6.2751 40.2661 7.6811 41.6721 9.4101 41.6721L12.4261 41.6721 12.4261 45.9451 14.4261 45.9451 14.4261 41.6721 17.6991 41.6721 17.6991 45.9451 19.6991 45.9451 19.6991 41.6721 22.9721 41.6721 22.9721 45.9451 24.9721 45.9451 24.9721 41.6721 28.2461 41.6721 28.2461 45.9451 30.2461 45.9451 30.2461 41.6721 33.5191 41.6721 33.5191 45.9451 35.5191 45.9451 35.5191 41.6721 38.5351 41.6721C40.2641 41.6721 41.6711 40.2661 41.6711 38.5371L41.6711 35.5191 45.9451 35.5191 45.9451 33.5191 41.6711 33.5191 41.6711 30.2461 45.9451 30.2461 45.9451 28.2461 41.6711 28.2461 41.6711 24.9731 45.9451 24.9731 45.9451 22.9731 41.6711 22.9731 41.6711 19.6991 45.9451 19.6991 45.9451 17.6991 41.6711 17.6991 41.6711 14.4261 45.9451 14.4261Z" id="Amazon-IOT-RESOURCES-IoT-thing-car_Resource-Icon_light-bg" fill="#7AA116"/></g></svg>