<svg width="48" height="48" viewBox="0 0 48 48" xmlns="http://www.w3.org/2000/svg" xmlns:xlink="http://www.w3.org/1999/xlink" overflow="hidden"><g id="Icon-Resource/Management-Governance/Res_Amazon-CloudWatch_Synthetics_48" stroke="none" stroke-width="1" fill="none" fill-rule="evenodd"><path d="M33 30 29.519 30 25.885 36.164 20.941 25.288 18.503 30 15 30 15 28 17.286 28 21.059 20.712 26.115 31.836 28.376 28 33 28 33 30ZM15.5 33 21.947 33 21.947 35 15.5 35C12.468 35 10 32.533 10 29.5L10 28.5C10 25.467 12.468 23 15.5 23L17 23 17 25 15.5 25C13.57 25 12 26.57 12 28.5L12 29.5C12 31.43 13.57 33 15.5 33L15.5 33ZM38 28.5 38 29.5C38 32.533 35.532 35 32.5 35L30.105 35 30.105 33 32.5 33C34.43 33 36 31.43 36 29.5L36 28.5C36 26.57 34.43 25 32.5 25L25.053 25 25.053 23 32.5 23C35.532 23 38 25.467 38 28.5L38 28.5ZM44 31.534C44 31.791 43.791 32 43.534 32L41 32 41 37.375C37.114 41.059 30.799 43.248 24 43.248 17.201 43.248 10.886 41.059 7 37.375L7 32 4.466 32C4.209 32 4 31.791 4 31.534L4 26.466C4 26.209 4.209 26 4.466 26L7.473 26 7.665 25.248C9.751 17.076 16.01 12 24 12 32.729 12 38.993 18.812 40.455 25.222L40.632 26 43.534 26C43.791 26 44 26.209 44 26.466L44 31.534ZM22.5 5.5C22.5 4.673 23.173 4 24 4 24.827 4 25.5 4.673 25.5 5.5 25.5 6.327 24.827 7 24 7 23.173 7 22.5 6.327 22.5 5.5L22.5 5.5ZM43.534 24 42.208 24C40.312 17.171 33.987 10.513 25 10.045L25 8.837C26.44 8.403 27.5 7.08 27.5 5.5 27.5 3.57 25.93 2 24 2 22.07 2 20.5 3.57 20.5 5.5 20.5 7.08 21.56 8.403 23 8.837L23 10.039C14.78 10.435 8.345 15.679 5.933 24L4.466 24C3.106 24 2 25.106 2 26.466L2 31.534C2 32.894 3.106 34 4.466 34L5 34 5 38.21 5.293 38.503C9.579 42.79 16.397 45.248 24 45.248 31.603 45.248 38.421 42.79 42.707 38.503L43 38.21 43 34 43.534 34C44.894 34 46 32.894 46 31.534L46 26.466C46 25.106 44.894 24 43.534 24L43.534 24Z" id="Fill-1" fill="#E7157B"/></g></svg>