<svg width="80" height="80" viewBox="0 0 80 80" xmlns="http://www.w3.org/2000/svg" xmlns:xlink="http://www.w3.org/1999/xlink" fill="none" overflow="hidden"><rect x="0" y="0" width="80" height="80" fill="#C925D1"/><path d="M42 65.6468C39.9202 65.8672 37.595 66 35 66 22.6025 66 16 63.0962 16 61L16 50.2209C19.6022 52.7973 27.5102 54 35 54 37.3406 54 39.7219 53.8826 42 53.6425L42 51.6468C39.9202 51.8672 37.595 52 35 52 22.6025 52 16 49.0962 16 47L16 35.2209C19.6022 37.7973 27.5102 39 35 39 37.3406 39 39.7219 38.8826 42 38.6425L42 36.6468C39.9202 36.8672 37.595 37 35 37 22.6025 37 16 34.0962 16 32L16 22.2209C19.6022 24.7973 27.5102 26 35 26 42.4898 26 50.3977 24.7973 54 22.2209L54 26 56 26 56 19C56 14.1904 45.1143 12 35 12 24.8857 12 14 14.1904 14 19L14 61C14 65.8096 24.8857 68 35 68 37.3406 68 39.7212 67.8811 42 67.6412L42 65.6468ZM35 14C47.3975 14 54 16.9038 54 19 54 21.0962 47.3975 24 35 24 22.6025 24 16 21.0962 16 19 16 16.9038 22.6025 14 35 14ZM56 34 48 34 48 32 56 32 56 34ZM62 38 48 38 48 36 62 36 62 38ZM53.8079 55 48 46 50.3842 46 55 53.1527 59.6158 46 62 46 56.1921 55 62 64 59.6158 64 55 56.8473 50.3842 64 48 64 53.8079 55ZM62 42 48 42 48 40 62 40 62 42ZM65 28 45 28C44.4473 28 44 28.4477 44 29L44 67C44 67.5523 44.4473 68 45 68L65 68C65.5527 68 66 67.5523 66 67L66 29C66 28.4477 65.5527 28 65 28ZM64 66 46 66 46 30 64 30 64 66Z" fill="#FFFFFF"/></svg>