<svg width="48" height="48" viewBox="0 0 48 48" xmlns="http://www.w3.org/2000/svg" xmlns:xlink="http://www.w3.org/1999/xlink" overflow="hidden"><g id="Icon-Resource/End-User-Computing/Res_Amazon-WorkSpaces-Family_Amazon-WorkSpaces_48" stroke="none" stroke-width="1" fill="none" fill-rule="evenodd"><path d="M5.0307 10.5417 13.0237 6.12871 16.9237 8.07871 8.9917 12.8387 5.0307 10.5417ZM7.9997 26.1307 3.9997 23.4647 3.9997 12.2567 7.9997 14.5757 7.9997 26.1307ZM19.5147 8.85671C19.8267 8.66971 20.0137 8.32571 19.9987 7.96071 19.9857 7.59671 19.7737 7.26871 19.4477 7.10471L13.4477 4.10471C13.1537 3.95871 12.8047 3.96571 12.5167 4.12371L2.5167 9.64471 2.5177 9.64671C2.5127 9.64971 2.5067 9.65071 2.5007 9.65371 2.1917 9.83271 1.9997 10.1627 1.9997 10.5207L1.9997 23.9997C1.9997 24.3337 2.1667 24.6457 2.4457 24.8317L8.4457 28.8317C8.6127 28.9437 8.8057 28.9997 8.9997 28.9997 9.1617 28.9997 9.3247 28.9607 9.4717 28.8817 9.7967 28.7067 9.9997 28.3677 9.9997 27.9997L9.9997 14.5657 19.5147 8.85671ZM33.8197 26.6657 36.4077 28.1827 35.3957 29.9087 32.8077 28.3907 33.8197 26.6657ZM38.1347 29.1977 40.7177 30.7227 39.6997 32.4447 37.1167 30.9187 38.1347 29.1977ZM14.9997 33.4647 14.9997 27.4867 17.6157 25.4447 16.3847 23.8687 14.9997 24.9497 14.9997 17.7657 20.2027 20.8867 18.5067 22.2117 19.7377 23.7877 22.0397 21.9897 27.9997 25.5657 27.9997 42.1307 14.9997 33.4647ZM20.9997 12.9657 20.9997 13.9997 22.9997 13.9997 22.9997 11.7657 29.0147 8.15771 42.9597 16.0657 29.0187 23.8447 22.9997 20.2337 22.9997 16.9997 20.9997 16.9997 20.9997 19.0337 15.9437 15.9997 20.9997 12.9657ZM42.4407 31.7397 41.4227 33.4617 43.0437 34.4187 29.9997 42.2347 29.9997 26.7447 31.0817 27.3797 32.0937 25.6537 31.0137 25.0207 43.9997 17.7757 43.9997 32.6607 42.4407 31.7397ZM45.9997 16.0737C45.9997 15.7137 45.8067 15.3817 45.4927 15.2037L29.4927 6.12971C29.1797 5.95171 28.7947 5.95471 28.4857 6.14171L13.4857 15.1417C13.1847 15.3227 12.9997 15.6487 12.9997 15.9997L12.9997 33.9997C12.9997 34.3337 13.1667 34.6457 13.4457 34.8317L28.4457 44.8317C28.6127 44.9437 28.8057 44.9997 28.9997 44.9997 29.1617 44.9997 29.3247 44.9607 29.4717 44.8817 29.4867 44.8737 29.4967 44.8617 29.5107 44.8527L29.5137 44.8577 45.5137 35.2707C45.8157 35.0897 45.9997 34.7637 45.9997 34.4127L45.9997 16.0737Z" id="Fill-1" fill="#01A88D"/></g></svg>