<svg width="80" height="80" viewBox="0 0 80 80" xmlns="http://www.w3.org/2000/svg" xmlns:xlink="http://www.w3.org/1999/xlink" overflow="hidden"><g id="Icon-Architecture/64/Arch_Amazon-AppStream_64" stroke="none" stroke-width="1" fill="none" fill-rule="evenodd"><g id="Icon-Architecture-BG/64/End-User-Computing" fill="#01A88D"><rect x="0" y="0" width="80" height="80" id="Rectangle"/></g><path d="M40.0625 39 40.0625 63.711 15.4066 39 40.0625 39ZM41.4424 67.049C41.8155 66.894 42.058 66.529 42.058 66.125L42.058 38C42.058 37.448 41.612 37 41.0602 37L12.998 37C12.5949 37 12.2297 37.244 12.076 37.617 11.9214 37.991 12.0072 38.421 12.2925 38.707L40.3548 66.832C40.5454 67.023 40.8008 67.125 41.0602 67.125 41.1889 67.125 41.3186 67.1 41.4424 67.049L41.4424 67.049ZM67.0022 68C66.7428 68 66.4874 67.898 66.2968 67.707L46.092 47.457 47.5028 46.043 66.0045 64.586 66.0045 14 15.5313 14 34.0329 32.543 32.6221 33.957 12.4173 13.707C12.1319 13.421 12.0461 12.991 12.2007 12.617 12.3544 12.244 12.7196 12 13.1227 12L67.0022 12C67.554 12 68 12.448 68 13L68 67C68 67.404 67.7575 67.769 67.3844 67.924 67.2607 67.975 67.1309 68 67.0022 68L67.0022 68Z" id="Amazon-AppStream_Icon_64_Squid" fill="#FFFFFF"/></g></svg>