<svg width="48" height="48" viewBox="0 0 48 48" xmlns="http://www.w3.org/2000/svg" xmlns:xlink="http://www.w3.org/1999/xlink" overflow="hidden"><g id="Icon-Resource/Database/Res_Amazon-Aurora-PostgreSQL-Instance-Alternate_48" stroke="none" stroke-width="1" fill="none" fill-rule="evenodd"><path d="M43.908 39.814C43.908 42.072 42.071 43.909 39.814 43.909L8.094 43.909C5.837 43.909 4 42.072 4 39.814L4 8.094C4 5.836 5.837 4 8.094 4L39.814 4C42.071 4 43.908 5.836 43.908 8.094L43.908 39.814ZM39.814 2 8.094 2C4.733 2 2 4.734 2 8.094L2 39.814C2 43.174 4.733 45.909 8.094 45.909L39.814 45.909C43.175 45.909 45.908 43.174 45.908 39.814L45.908 8.094C45.908 4.734 43.175 2 39.814 2L39.814 2ZM40.953 14.516 43.153 14.516 43.153 15.223 40.105 15.223 40.105 9.172 40.953 9.172 40.953 14.516ZM36.648 14.638C36.177 14.638 35.822 14.433 35.584 14.022 35.345 13.612 35.225 13.005 35.225 12.202 35.225 11.399 35.345 10.793 35.584 10.386 35.822 9.979 36.177 9.775 36.648 9.775 37.12 9.775 37.475 9.979 37.714 10.386 37.952 10.793 38.071 11.399 38.071 12.202 38.071 13.005 37.952 13.612 37.714 14.022 37.475 14.433 37.12 14.638 36.648 14.638L36.648 14.638ZM38.516 14.232C38.796 13.706 38.936 13.029 38.936 12.202 38.936 11.207 38.735 10.434 38.334 9.883 37.932 9.334 37.37 9.059 36.648 9.059 35.927 9.059 35.365 9.334 34.963 9.883 34.561 10.434 34.361 11.207 34.361 12.202 34.361 12.836 34.444 13.386 34.609 13.852 34.775 14.318 35.021 14.679 35.347 14.935 35.674 15.191 36.066 15.331 36.526 15.354 36.858 15.715 37.221 16.002 37.617 16.218 38.013 16.434 38.432 16.571 38.875 16.628L38.875 15.886C38.572 15.852 38.296 15.785 38.046 15.686 37.795 15.586 37.554 15.444 37.32 15.258 37.839 15.101 38.237 14.758 38.516 14.232L38.516 14.232ZM33.265 12.647C33.443 12.91 33.531 13.223 33.531 13.59 33.531 14.12 33.366 14.546 33.034 14.87 32.702 15.192 32.26 15.354 31.707 15.354 31.438 15.354 31.181 15.324 30.934 15.262 30.686 15.202 30.472 15.113 30.293 14.997L30.293 14.324C30.769 14.528 31.232 14.629 31.68 14.629 31.989 14.629 32.232 14.543 32.409 14.368 32.587 14.193 32.676 13.952 32.676 13.643 32.676 13.223 32.443 12.895 31.977 12.656L31.357 12.342C30.968 12.144 30.685 11.917 30.511 11.661 30.336 11.405 30.249 11.09 30.249 10.717 30.249 10.223 30.403 9.823 30.712 9.517 31.019 9.211 31.425 9.059 31.926 9.059 32.315 9.059 32.752 9.164 33.235 9.374L33.235 10.054C32.839 9.874 32.423 9.784 31.986 9.784 31.713 9.784 31.496 9.864 31.336 10.024 31.176 10.184 31.095 10.401 31.095 10.674 31.095 10.889 31.151 11.073 31.262 11.224 31.372 11.376 31.555 11.518 31.811 11.652L32.431 11.966C32.809 12.159 33.088 12.385 33.265 12.647L33.265 12.647ZM28.707 12.516C28.704 12.557 28.703 12.595 28.703 12.629L27.132 12.629C27.149 12.193 27.232 11.863 27.381 11.639 27.529 11.416 27.737 11.302 28.005 11.302 28.243 11.302 28.421 11.392 28.537 11.569 28.653 11.747 28.712 12.022 28.712 12.394 28.712 12.435 28.711 12.476 28.707 12.516L28.707 12.516ZM28.04 10.674C27.498 10.674 27.082 10.875 26.791 11.277 26.5 11.678 26.354 12.254 26.354 13.005 26.354 13.791 26.5 14.376 26.791 14.76 27.082 15.145 27.524 15.336 28.118 15.336 28.59 15.336 29.003 15.226 29.358 15.004L29.358 14.403C28.956 14.583 28.59 14.673 28.258 14.673 27.868 14.673 27.584 14.557 27.407 14.324 27.228 14.091 27.137 13.712 27.132 13.189L29.367 13.189C29.413 12.967 29.436 12.726 29.436 12.463 29.436 11.876 29.318 11.431 29.083 11.128 28.847 10.826 28.499 10.674 28.04 10.674L28.04 10.674ZM25.69 10.761C25.784 10.761 25.877 10.77 25.971 10.788L25.971 11.547C25.807 11.524 25.677 11.512 25.577 11.512 25.246 11.512 24.943 11.621 24.669 11.835L24.669 15.223 23.848 15.223 23.848 10.796 24.53 10.796 24.608 11.329C24.765 11.131 24.929 10.987 25.101 10.897 25.273 10.807 25.47 10.761 25.69 10.761L25.69 10.761ZM21.867 14.131C21.599 14.353 21.346 14.463 21.107 14.463 20.816 14.463 20.6 14.336 20.462 14.084 20.322 13.831 20.252 13.442 20.252 12.918 20.252 12.382 20.317 11.988 20.448 11.735 20.579 11.482 20.785 11.355 21.064 11.355 21.326 11.355 21.594 11.46 21.867 11.669L21.867 14.131ZM21.937 11.154C21.599 10.84 21.247 10.683 20.881 10.683 20.438 10.683 20.086 10.886 19.824 11.294 19.562 11.702 19.431 12.252 19.431 12.944 19.431 13.381 19.488 13.764 19.601 14.092 19.715 14.421 19.879 14.677 20.095 14.861 20.31 15.043 20.566 15.135 20.863 15.135 21.212 15.135 21.547 14.987 21.867 14.691L21.867 15.013C21.867 15.526 21.791 15.892 21.64 16.114 21.488 16.335 21.232 16.445 20.872 16.445 20.54 16.445 20.156 16.355 19.72 16.174L19.72 16.803C20.092 17.019 20.499 17.127 20.941 17.127 22.099 17.127 22.679 16.408 22.679 14.969L22.679 10.796 21.998 10.796 21.937 11.154ZM18.304 14.603C18.485 14.603 18.663 14.574 18.838 14.516L18.838 15.118C18.587 15.223 18.322 15.276 18.043 15.276 17.681 15.276 17.416 15.176 17.244 14.979 17.072 14.781 16.986 14.475 16.986 14.062L16.986 11.46 16.367 11.46 16.367 10.918 17.021 10.814 17.143 9.556 17.807 9.556 17.807 10.796 18.82 10.796 18.82 11.46 17.807 11.46 17.807 14.001C17.807 14.222 17.844 14.377 17.917 14.467 17.989 14.558 18.118 14.603 18.304 14.603L18.304 14.603ZM15.882 13.311C16.008 13.498 16.069 13.727 16.069 14.001 16.069 14.403 15.944 14.725 15.694 14.969 15.444 15.214 15.109 15.336 14.69 15.336 14.242 15.336 13.835 15.229 13.468 15.013L13.468 14.419C13.922 14.6 14.315 14.691 14.646 14.691 14.862 14.691 15.029 14.633 15.148 14.52 15.267 14.407 15.328 14.245 15.328 14.036 15.328 13.786 15.168 13.582 14.847 13.424L14.28 13.145C13.756 12.889 13.494 12.487 13.494 11.94 13.494 11.568 13.616 11.265 13.861 11.033 14.105 10.799 14.423 10.683 14.812 10.683 15.179 10.683 15.531 10.776 15.869 10.962L15.869 11.556C15.549 11.405 15.22 11.329 14.883 11.329 14.684 11.329 14.527 11.381 14.411 11.487 14.295 11.59 14.236 11.734 14.236 11.914 14.236 12.06 14.275 12.182 14.354 12.281 14.432 12.379 14.565 12.476 14.752 12.569L15.284 12.831C15.557 12.964 15.757 13.125 15.882 13.311L15.882 13.311ZM11.765 14.267C11.62 14.538 11.395 14.673 11.094 14.673 10.791 14.673 10.566 14.538 10.421 14.267 10.275 13.997 10.203 13.576 10.203 13.005 10.203 12.435 10.275 12.016 10.421 11.749 10.566 11.48 10.791 11.346 11.094 11.346 11.395 11.346 11.62 11.48 11.765 11.749 11.911 12.016 11.983 12.435 11.983 13.005 11.983 13.576 11.911 13.997 11.765 14.267L11.765 14.267ZM11.094 10.683C10.54 10.683 10.117 10.883 9.823 11.286 9.529 11.687 9.382 12.26 9.382 13.005 9.382 13.756 9.529 14.333 9.823 14.734 10.117 15.135 10.54 15.336 11.094 15.336 11.646 15.336 12.069 15.135 12.363 14.734 12.657 14.333 12.804 13.756 12.804 13.005 12.804 12.26 12.657 11.687 12.363 11.286 12.069 10.883 11.646 10.683 11.094 10.683L11.094 10.683ZM7.632 11.888C7.477 12.097 7.263 12.202 6.99 12.202L6.125 12.202 6.125 9.844 6.99 9.844C7.263 9.844 7.477 9.948 7.632 10.155 7.786 10.361 7.863 10.651 7.863 11.023 7.863 11.39 7.786 11.678 7.632 11.888L7.632 11.888ZM7.937 9.408C7.689 9.252 7.403 9.172 7.077 9.172L5.304 9.172 5.304 15.223 6.125 15.223 6.125 12.875 7.077 12.875C7.56 12.875 7.952 12.706 8.251 12.368 8.551 12.03 8.701 11.583 8.701 11.023 8.701 10.663 8.636 10.342 8.505 10.063 8.374 9.784 8.184 9.565 7.937 9.408L7.937 9.408Z" id="Amazon-DATABASEAmazon-Aurora-PostgreSQL-instance-alternate_Resource-Icon_light-bg" fill="#C925D1"/></g></svg>