<svg width="48" height="48" viewBox="0 0 48 48" xmlns="http://www.w3.org/2000/svg" xmlns:xlink="http://www.w3.org/1999/xlink" overflow="hidden"><g id="Icon-Resource/Analytics/Res_Amazon-Redshift_ML_48" stroke="none" stroke-width="1" fill="none" fill-rule="evenodd"><path d="M41.391 10.527C40.76 9.604 39.701 8.996 38.5 8.996 36.785 8.996 35.36 10.239 35.064 11.87 34.078 11.95 33.051 12 31.98 12 24.369 12 19.215 10.019 19 8.123L19 7.996 18.981 7.996C18.989 6.065 24.157 4 31.848 4 39.438 4 43.975 6.032 43.98 7.997L43.958 7.997 43.958 8.126C43.856 9.259 42.451 10.074 41.391 10.527L41.391 10.527ZM38.5 13.996C37.673 13.996 37 13.323 37 12.496 37 11.669 37.673 10.996 38.5 10.996 39.328 10.996 40 11.669 40 12.496 40 13.323 39.328 13.996 38.5 13.996L38.5 13.996ZM34.5 23.996C33.673 23.996 33 23.323 33 22.496 33 21.669 33.673 20.996 34.5 20.996 35.328 20.996 36 21.669 36 22.496 36 23.323 35.328 23.996 34.5 23.996L34.5 23.996ZM24.5 21.996C23.673 21.996 23 21.323 23 20.496 23 19.669 23.673 18.996 24.5 18.996 25.328 18.996 26 19.669 26 20.496 26 21.323 25.328 21.996 24.5 21.996L24.5 21.996ZM22 32.506 22 36.374 19.608 37.393C19.24 37.55 19 37.912 19 38.313L19 41.327 15.758 43.803 14 42.848 14 26.256 16.116 25.221 19 27.658 19 30.42C19 30.802 19.218 31.151 19.563 31.319L22 32.506ZM12 42.846 10.234 43.801 7 41.33 7 38.417C7 38.016 6.761 37.654 6.392 37.497L4 36.478 4.001 34.404 4 32.506 6.438 31.319C6.783 31.151 7 30.802 7 30.42L7 27.304 9.843 25.201 12 26.256 12 42.846ZM45.959 8.363C45.971 8.239 45.98 8.117 45.98 8 45.98 4.355 40.433 2 31.848 2 24.448 2 16.98 3.856 16.98 8 16.98 8.059 16.997 8.114 17 8.172L17 20.996 19 20.996 19 11.216C21.782 13.112 27.011 14 31.98 14 33.123 14 34.221 13.946 35.278 13.86 35.551 14.504 36.016 15.047 36.596 15.425L35.162 19.063C34.948 19.021 34.727 18.996 34.5 18.996 32.995 18.996 31.721 19.956 31.227 21.291L27.995 20.556C27.995 20.536 28 20.516 28 20.496 28 18.566 26.43 16.996 24.5 16.996 22.571 16.996 21 18.566 21 20.496 21 21.497 21.429 22.396 22.106 23.035L19.784 25.702 16.909 23.273C16.605 23.016 16.179 22.964 15.824 23.138L13 24.518 10.176 23.138C9.84 22.975 9.444 23.011 9.142 23.232L5.406 25.995C5.151 26.184 5 26.483 5 26.799L5 29.794 2.563 30.982C2.218 31.149 2 31.498 2 31.881L2 37.139C2 37.54 2.24 37.902 2.609 38.059L5 39.078 5 41.825C5 42.136 5.146 42.43 5.393 42.619L9.533 45.782C9.847 46.023 10.27 46.055 10.616 45.868L12.999 44.58 15.372 45.87C15.522 45.951 15.686 45.991 15.85 45.991 16.065 45.991 16.279 45.922 16.456 45.786L20.607 42.617C20.855 42.427 21 42.133 21 41.822L21 38.974 23.393 37.954C23.761 37.797 24 37.435 24 37.034L24 31.881C24 31.499 23.783 31.15 23.438 30.982L21 29.795 21 27.351 23.967 23.942C24.142 23.969 24.318 23.996 24.5 23.996 25.698 23.996 26.755 23.389 27.387 22.469L31.107 23.315C31.478 24.849 32.854 25.996 34.5 25.996 36.43 25.996 38 24.425 38 22.496 38 21.517 37.594 20.633 36.945 19.998L38.523 15.993C40.442 15.981 42 14.418 42 12.496 42 12.476 41.995 12.459 41.995 12.439 42.793 12.112 43.481 11.759 44 11.392L44.037 39.819C44.037 41.757 39.794 43.819 32 43.819 28.404 43.819 25.069 43.367 22.61 42.547L21.977 44.444C24.634 45.331 28.194 45.819 32 45.819 40.505 45.819 46 43.464 46 39.817L45.959 8.363Z" id="Fill-1" fill="#8C4FFF"/></g></svg>