<svg width="80" height="80" viewBox="0 0 80 80" xmlns="http://www.w3.org/2000/svg" xmlns:xlink="http://www.w3.org/1999/xlink" overflow="hidden"><g id="Icon-Architecture/64/Arch_AWS-Organizations_64" stroke="none" stroke-width="1" fill="none" fill-rule="evenodd"><g id="Icon-Architecture-BG/64/Management-Governance" fill="#E7157B"><rect x="0" y="0" width="80" height="80" id="Rectangle"/></g><path d="M55 63 63 63 63 55 55 55 55 63ZM36 63 44 63 44 55 36 55 36 63ZM17 63 25 63 25 55 17 55 17 63ZM64 53.0001 60 53.0001 60 48.0001C60 47.4481 59.552 47.0001 59 47.0001L41 47.0001 41 44.0001 39 44.0001 39 47.0001 21 47.0001C20.447 47.0001 20 47.4481 20 48.0001L20 53.0001 16 53.0001C15.447 53.0001 15 53.4481 15 54.0001L15 64C15 64.552 15.447 65 16 65L26 65C26.552 65 27 64.552 27 64L27 54.0001C27 53.4481 26.552 53.0001 26 53.0001L22 53.0001 22 49.0001 39 49.0001 39 53.0001 35 53.0001C34.447 53.0001 34 53.4481 34 54.0001L34 64C34 64.552 34.447 65 35 65L45 65C45.552 65 46 64.552 46 64L46 54.0001C46 53.4481 45.552 53.0001 45 53.0001L41 53.0001 41 49.0001 58 49.0001 58 53.0001 54 53.0001C53.447 53.0001 53 53.4481 53 54.0001L53 64C53 64.552 53.447 65 54 65L64 65C64.552 65 65 64.552 65 64L65 54.0001C65 53.4481 64.552 53.0001 64 53.0001L64 53.0001ZM40 17.1552 49 22.3512 40 27.5472 31 22.3512 40 17.1552ZM41 39.6711 41 29.2792 50 24.0832 50 34.4762 41 39.6711ZM30 24.0832 39 29.2792 39 39.6711 30 34.4762 30 24.0832ZM28.5 35.9191 39.5 42.2701C39.654 42.3591 39.827 42.4031 40 42.4031 40.172 42.4031 40.345 42.3591 40.5 42.2701L51.5 35.9191C51.809 35.7401 52 35.4101 52 35.0532L52 22.3512C52 21.9942 51.809 21.6642 51.5 21.4852L40.5 15.1342C40.191 14.9552 39.808 14.9552 39.5 15.1342L28.5 21.4852C28.19 21.6642 28 21.9942 28 22.3512L28 35.0532C28 35.4101 28.19 35.7401 28.5 35.9191L28.5 35.9191Z" id="AWS-Organizations_Icon_64_Squid" fill="#FFFFFF"/></g></svg>