<svg width="80" height="80" viewBox="0 0 80 80" xmlns="http://www.w3.org/2000/svg" xmlns:xlink="http://www.w3.org/1999/xlink" overflow="hidden"><g id="Icon-Architecture/64/Arch_Amazon-EMR_64" stroke="none" stroke-width="1" fill="none" fill-rule="evenodd"><g id="Icon-Architecture-BG/64/Analytics" fill="#8C4FFF" transform="translate(0.504212 0)"><rect x="0" y="0" width="80" height="80" id="Rectangle"/></g><path d="M64.8154 47.6882C64.0243 46.8962 62.9861 46.5007 61.9469 46.5007 60.9077 46.5007 59.8695 46.8962 59.0784 47.6882 58.3122 48.4552 57.8892 49.4755 57.8892 50.5599 57.8892 51.6443 58.3122 52.6646 59.0784 53.4315 60.6607 55.0145 63.2331 55.0145 64.8154 53.4315 66.3967 51.8475 66.3967 49.2713 64.8154 47.6882L64.8154 47.6882ZM56.2869 48.4102C56.5769 47.6422 57.022 46.9363 57.6101 46.3315L55.4567 42.2283 52.7752 47.2998 56.2869 48.4102ZM49.8847 48.4853 38.0866 44.7545C37.4544 46.3706 36.4923 47.8855 35.19 49.1892 35.026 49.3524 34.85 49.4965 34.6799 49.6497L39.8829 56.8769C40.8661 56.2241 42.0163 55.8736 43.2215 55.8736 44.0897 55.8736 44.9268 56.0609 45.6969 56.4063L49.8847 48.4853ZM47.2782 61.9363C47.2782 60.8519 46.8562 59.8316 46.09 59.0647 45.3239 58.2987 44.3047 57.8762 43.2215 57.8762 42.1383 57.8762 41.1201 58.2987 40.354 59.0647 39.5878 59.8316 39.1648 60.8519 39.1648 61.9363 39.1648 63.0207 39.5878 64.041 40.354 64.808 41.1201 65.5749 42.1383 65.9975 43.2215 65.9975 44.3047 65.9975 45.3239 65.5749 46.09 64.808 46.8562 64.041 47.2782 63.0207 47.2782 61.9363L47.2782 61.9363ZM33.7758 47.7724C38.0656 43.4779 38.0656 36.4911 33.7758 32.1966 31.6304 30.0499 28.8129 28.9765 25.9954 28.9765 23.1779 28.9765 20.3613 30.0489 18.2159 32.1966 13.9262 36.4911 13.9262 43.4779 18.2159 47.7724 22.5057 52.0668 29.486 52.0668 33.7758 47.7724L33.7758 47.7724ZM34.6639 30.3052C34.839 30.4624 35.021 30.6116 35.19 30.7808 36.4393 32.0314 37.3764 33.4762 38.0105 35.0182L49.7637 31.3846 45.6799 23.6027C44.9158 23.9441 44.0827 24.1274 43.2215 24.1274 42.0093 24.1274 40.8521 23.7739 39.8679 23.1141L34.6639 30.3052ZM39.1648 18.0647C39.1648 19.1491 39.5878 20.1684 40.354 20.9353 41.1201 21.7023 42.1383 22.1248 43.2215 22.1248 44.3047 22.1248 45.3239 21.7023 46.09 20.9353 46.8562 20.1684 47.2782 19.1491 47.2782 18.0647 47.2782 16.9793 46.8562 15.96 46.09 15.192 45.3239 14.4251 44.3047 14.0025 43.2215 14.0025 42.1383 14.0025 41.1201 14.4251 40.354 15.192 39.5878 15.96 39.1648 16.9793 39.1648 18.0647L39.1648 18.0647ZM38.6647 42.8371 50.8359 46.686 54.3295 40.0806 50.7109 33.1879 38.6157 36.9266C39.0817 38.8681 39.0997 40.8896 38.6647 42.8371L38.6647 42.8371ZM52.6562 32.5861 55.4627 37.9349 58.0952 32.9556C57.9532 32.8364 57.7981 32.7373 57.6641 32.6031 57.2821 32.2206 56.962 31.7931 56.6999 31.3365L52.6562 32.5861ZM57.8892 28.3147C57.8892 29.4001 58.3122 30.4194 59.0784 31.1873 60.6607 32.7703 63.2331 32.7703 64.8154 31.1873 66.3967 29.6033 66.3967 27.0271 64.8154 25.444 64.0243 24.652 62.9861 24.2565 61.9469 24.2565 60.9077 24.2565 59.8695 24.652 59.0784 25.444 58.3122 26.211 57.8892 27.2303 57.8892 28.3147L57.8892 28.3147ZM66.2297 46.2725C68.5901 48.6364 68.5901 52.4833 66.2297 54.8473 65.0485 56.0298 63.4982 56.6206 61.9469 56.6206 60.3956 56.6206 58.8443 56.0298 57.6641 54.8473 56.5199 53.7019 55.8888 52.1789 55.8888 50.5599 55.8888 50.5018 55.8958 50.4447 55.8978 50.3867L51.8241 49.099 47.3692 57.5257C47.4133 57.5678 47.4603 57.6058 47.5043 57.6489 48.6485 58.7943 49.2786 60.3173 49.2786 61.9363 49.2786 63.5564 48.6485 65.0793 47.5043 66.2237 46.3611 67.3692 44.8388 68 43.2215 68 41.6042 68 40.0829 67.3692 38.9397 66.2237 37.7945 65.0793 37.1644 63.5564 37.1644 61.9363 37.1644 60.5886 37.6075 59.312 38.4136 58.2597L33.1027 50.8833C30.9523 52.2891 28.4748 52.995 25.9954 52.995 22.6658 52.995 19.3362 51.7264 16.8017 49.1892 11.7328 44.1137 11.7328 35.8562 16.8017 30.7808 21.2175 26.3592 28.0467 25.7935 33.0847 29.0756L38.4026 21.7263C37.6035 20.677 37.1644 19.4054 37.1644 18.0647 37.1644 16.4446 37.7955 14.9217 38.9397 13.7763 40.0829 12.6308 41.6042 12 43.2215 12 44.8388 12 46.3611 12.6308 47.5043 13.7763 48.6485 14.9217 49.2786 16.4446 49.2786 18.0647 49.2786 19.6837 48.6485 21.2067 47.5043 22.3511 47.4573 22.3992 47.4043 22.4412 47.3552 22.4883L51.709 30.7828 55.9988 29.4571C55.9268 29.0847 55.8888 28.7032 55.8888 28.3147 55.8888 26.6956 56.5199 25.1727 57.6641 24.0282 60.0256 21.6633 63.8682 21.6633 66.2297 24.0282 68.5901 26.3912 68.5901 30.2381 66.2297 32.6031 65.0485 33.7846 63.4982 34.3764 61.9469 34.3764 61.2238 34.3764 60.5036 34.2342 59.8185 33.9779L56.5899 40.0836 59.2544 45.159C61.5218 44.0296 64.3423 44.3841 66.2297 46.2725L66.2297 46.2725ZM26.9955 38.9832 31.9965 38.9832 31.9965 40.9857 26.9955 40.9857 26.9955 45.9921 24.9952 45.9921 24.9952 40.9857 19.9943 40.9857 19.9943 38.9832 24.9952 38.9832 24.9952 33.9769 26.9955 33.9769 26.9955 38.9832Z" id="Amazon-EMR_Icon_64_Squid" fill="#FFFFFF"/></g></svg>