<svg width="80" height="80" viewBox="0 0 80 80" xmlns="http://www.w3.org/2000/svg" xmlns:xlink="http://www.w3.org/1999/xlink" overflow="hidden"><g id="Icon-Architecture/64/Arch_AWS-CodeArtifact_64" stroke="none" stroke-width="1" fill="none" fill-rule="evenodd"><g id="Icon-Architecture-BG/64/Developer-Tools" fill="#C925D1"><rect x="0" y="0" width="80" height="80" id="Rectangle"/></g><g id="Icon-Service/64/AWS-CodeArtifact_64" fill="#FFFFFF" transform="translate(13 12)"><path d="M23.848 34.128 29.773 20.893 31.599 21.711 25.674 34.945 23.848 34.128ZM32.143 30.097 35.702 27.501 32.567 24.321 33.991 22.917 37.94 26.922C38.144 27.129 38.248 27.416 38.225 27.706 38.202 27.996 38.052 28.261 37.818 28.432L33.323 31.712 32.143 30.097ZM23.304 24.407 19.694 27.042 22.838 30.222 21.416 31.628 17.454 27.623C17.249 27.416 17.145 27.129 17.168 26.839 17.192 26.549 17.34 26.283 17.576 26.112L22.124 22.792 23.304 24.407ZM22.152 1.721 2 13.636 2 36.871 0 36.871 0 13.066C0 12.712 0.187 12.385 0.492 12.205L21.134 3.55271e-15 22.152 1.721ZM55 18.871 55 42.935C55 43.293 54.809 43.623 54.499 43.802L33.873 55.678 32.875 53.945 53 42.357 53 18.871 55 18.871ZM43 36.664 27.92 45.239 13 36.496 13 19.172 27.91 10.599 43 19.347 43 36.664ZM45 37.246 45 18.771C45 18.414 44.811 18.085 44.502 17.905L28.414 8.579C28.104 8.399 27.723 8.399 27.414 8.577L11.502 17.727C11.192 17.905 11 18.236 11 18.594L11 37.069C11 37.424 11.189 37.752 11.494 37.932L27.407 47.257C27.563 47.348 27.738 47.394 27.912 47.394 28.083 47.394 28.253 47.351 28.407 47.263L44.494 38.115C44.807 37.937 45 37.605 45 37.246L45 37.246Z" id="AWS-CodeArtifact_Icon_64_Squid"/></g></g></svg>