<svg width="48" height="48" viewBox="0 0 48 48" xmlns="http://www.w3.org/2000/svg" xmlns:xlink="http://www.w3.org/1999/xlink" overflow="hidden"><g id="Icon-Resource/Management-Governance/Res_AWS-Systems-Manager_Parameter-Store_48" stroke="none" stroke-width="1" fill="none" fill-rule="evenodd"><path d="M35.5886 36.7588C35.5886 37.1338 35.8946 37.4408 36.2696 37.4408L36.2706 37.4408C36.4516 37.4408 36.6226 37.3698 36.7506 37.2418 36.8796 37.1128 36.9506 36.9418 36.9506 36.7588L36.9506 36.7568C36.9506 36.5758 36.8806 36.4048 36.7526 36.2778 36.6236 36.1488 36.4526 36.0768 36.2706 36.0768L36.2696 36.0768C36.0876 36.0768 35.9166 36.1478 35.7886 36.2768 35.6596 36.4048 35.5886 36.5758 35.5886 36.7588L35.5886 36.7588ZM33.5886 36.7578C33.5896 36.0408 33.8686 35.3678 34.3746 34.8618 34.8806 34.3558 35.5536 34.0768 36.2686 34.0768L36.2716 34.0768C36.9876 34.0768 37.6616 34.3568 38.1686 34.8638 38.6746 35.3718 38.9526 36.0448 38.9506 36.7608 38.9496 37.4778 38.6706 38.1508 38.1646 38.6558 37.9046 38.9158 37.6006 39.1128 37.2696 39.2458L37.2706 42.0428 35.2706 42.0428 35.2696 39.2428C34.2856 38.8458 33.5886 37.8828 33.5886 36.7578L33.5886 36.7578ZM43.1156 32.7748 29.4286 32.7688 29.4246 43.8378 43.1096 43.8448 43.1156 32.7748ZM32.9016 30.7708 39.6146 30.7728 39.6146 28.3028C39.6206 26.2818 38.1276 24.6358 36.2866 24.6298L36.2756 24.6298C35.3936 24.6298 34.5606 24.9978 33.9276 25.6658 33.2766 26.3548 32.9166 27.2758 32.9136 28.2598L32.9016 30.7708ZM45.1156 31.7748 45.1096 44.8448C45.1096 45.3978 44.6616 45.8448 44.1096 45.8448L28.4246 45.8378C27.8716 45.8378 27.4246 45.3898 27.4246 44.8378L27.4286 31.7688C27.4286 31.5028 27.5336 31.2488 27.7216 31.0618 27.9086 30.8738 28.1636 30.7688 28.4286 30.7688L30.9016 30.7698 30.9136 28.2518C30.9186 26.7588 31.4726 25.3518 32.4746 24.2918 33.4886 23.2198 34.8386 22.6298 36.2756 22.6298L36.2926 22.6298C39.2366 22.6398 41.6246 25.1858 41.6146 28.3058L41.6146 30.7738 44.1156 30.7748C44.3816 30.7748 44.6356 30.8798 44.8226 31.0678 45.0106 31.2548 45.1156 31.5098 45.1156 31.7748L45.1156 31.7748ZM14.4756 31.0248 21.4496 31.0248 21.4496 29.0248 14.4756 29.0248 14.4756 31.0248ZM14.4756 27.5378 21.4496 27.5378 21.4496 25.5378 14.4756 25.5378 14.4756 27.5378ZM14.4756 24.0508 21.4496 24.0508 21.4496 22.0508 14.4756 22.0508 14.4756 24.0508ZM12.9056 33.3838 23.1096 33.3838 23.1096 19.6928 12.9056 19.6928 12.9056 33.3838ZM25.1096 18.6928 25.1096 34.3838C25.1096 34.9368 24.6626 35.3838 24.1096 35.3838L11.9056 35.3838C11.3536 35.3838 10.9056 34.9368 10.9056 34.3838L10.9056 18.6928C10.9056 18.1398 11.3536 17.6928 11.9056 17.6928L24.1096 17.6928C24.6626 17.6928 25.1096 18.1398 25.1096 18.6928L25.1096 18.6928ZM5.9406 8.9748 30.0166 8.9748 26.4706 3.9998 9.4856 3.9998 5.9406 8.9748ZM3.1106 10.4328C2.9396 10.0998 2.9686 9.6988 3.1856 9.3948L8.1556 2.4198C8.3436 2.1558 8.6476 1.9998 8.9706 1.9998L26.9856 1.9998C27.3096 1.9998 27.6126 2.1558 27.8006 2.4198L32.7716 9.3948C32.9876 9.6988 33.0176 10.0998 32.8456 10.4328 32.6746 10.7658 32.3306 10.9748 31.9566 10.9748L3.9996 10.9748C3.6256 10.9748 3.2816 10.7658 3.1106 10.4328L3.1106 10.4328ZM5.0496 39.4868 24.9376 39.4868 24.9376 41.4868 4.0496 41.4868C3.4966 41.4868 3.0496 41.0388 3.0496 40.4868L3.0496 13.4618C3.0496 12.9088 3.4966 12.4618 4.0496 12.4618L31.9546 12.4618C32.5076 12.4618 32.9546 12.9088 32.9546 13.4618L32.9546 22.1788 30.9546 22.1788 30.9546 14.4618 5.0496 14.4618 5.0496 39.4868Z" id="AWS-System-Manager_Parameter-Store_Resource-Icon_light-bg" fill="#E7157B"/></g></svg>