<svg width="80" height="80" viewBox="0 0 80 80" xmlns="http://www.w3.org/2000/svg" xmlns:xlink="http://www.w3.org/1999/xlink" overflow="hidden"><g id="Icon-Architecture/64/Arch_AWS-Application-Discovery-Service_64" stroke="none" stroke-width="1" fill="none" fill-rule="evenodd"><g id="Icon-Architecture-BG/64/Migration-Transfer" fill="#01A88D"><rect x="0" y="0" width="80" height="80" id="Rectangle"/></g><path d="M65.2618 59.9943 51.9028 47.0769C50.605 48.8135 49.0554 50.353 47.3085 51.6435L60.3433 64.8979C60.9787 65.5282 61.7358 65.5852 62.2564 65.5182 63.0588 65.4161 63.8925 64.971 64.6044 64.2637 65.3202 63.5525 65.7743 62.7172 65.8821 61.9109 65.9526 61.3868 65.9022 60.6295 65.2618 59.9943L65.2618 59.9943ZM54.1693 33.9885C54.1693 23.0107 45.181 14.0797 34.1318 14.0797 23.0825 14.0797 14.0943 23.0107 14.0943 33.9885 14.0943 44.9662 23.0825 53.8972 34.1318 53.8972 45.181 53.8972 54.1693 44.9662 54.1693 33.9885L54.1693 33.9885ZM67.9572 62.185C67.7881 63.4425 67.1235 64.7029 66.0844 65.7342 65.0464 66.7656 63.7808 67.4218 62.5202 67.5809 62.3168 67.6069 62.1154 67.6199 61.9171 67.6199 60.7531 67.6199 59.6838 67.1837 58.8552 66.3594L45.5415 52.8218C42.2078 54.8235 38.3032 55.9769 34.1318 55.9769 21.9286 55.9769 12 46.1136 12 33.9885 12 21.8633 21.9286 12 34.1318 12 46.3349 12 56.2635 21.8633 56.2635 33.9885 56.2635 38.1319 55.1036 42.0092 53.0899 45.3213L66.7329 58.5138C67.7135 59.4871 68.1445 60.7876 67.9572 62.185L67.9572 62.185ZM48.1875 33.9885C48.1875 26.1578 42.0135 20.0227 34.1318 20.0227 26.2501 20.0227 20.076 26.1578 20.076 33.9885 20.076 41.8191 26.2501 47.9532 34.1318 47.9532 42.0135 47.9532 48.1875 41.8191 48.1875 33.9885L48.1875 33.9885ZM50.2818 33.9885C50.2818 42.9855 43.1875 50.0329 34.1318 50.0329 25.0761 50.0329 17.9818 42.9855 17.9818 33.9885 17.9818 24.9914 25.0761 17.943 34.1318 17.943 43.1875 17.943 50.2818 24.9914 50.2818 33.9885L50.2818 33.9885ZM41.1798 24.9854 26.0769 24.9854 26.0769 26.9861 40.1729 26.9861 40.1729 42.9915 42.1866 42.9915 42.1866 25.9857C42.1866 25.4336 41.7366 24.9854 41.1798 24.9854L41.1798 24.9854ZM26.0769 42.9915 38.1592 42.9915 38.1592 40.9908 26.0769 40.9908 26.0769 42.9915ZM23.0563 37.9898 38.1592 37.9898 38.1592 35.9891 23.0563 35.9891 23.0563 37.9898ZM38.1592 65.9993 20.0357 65.9993 20.0357 53.9952 18.022 53.9952 18.022 66.9997C18.022 67.5518 18.4721 68 19.0289 68L39.1661 68C39.7229 68 40.1729 67.5518 40.1729 66.9997L40.1729 58.9969 38.1592 58.9969 38.1592 65.9993ZM23.0563 31.9878 37.9357 31.9878 37.9357 29.9871 23.0563 29.9871 23.0563 31.9878Z" id="AWS-Application-Discovery-Service_Icon_64_Squid" fill="#FFFFFF"/></g></svg>