<svg width="80" height="80" viewBox="0 0 80 80" xmlns="http://www.w3.org/2000/svg" xmlns:xlink="http://www.w3.org/1999/xlink" overflow="hidden"><g id="Icon-Architecture/64/Arch_AWS-Resource-Access-Manager_64" stroke="none" stroke-width="1" fill="none" fill-rule="evenodd"><g id="Icon-Architecture-BG/64/Security-Identity-Compliance" fill="#DD344C"><rect x="0" y="0" width="80" height="80" id="Rectangle"/></g><path d="M33 60C33 59.449 32.552 59 32 59 31.448 59 31 59.449 31 60 31 60.551 31.448 61 32 61 32.552 61 33 60.551 33 60L33 60ZM35 60C35 61.654 33.654 63 32 63 30.346 63 29 61.654 29 60 29 58.346 30.346 57 32 57 33.654 57 35 58.346 35 60L35 60ZM54.431 60.845 52.586 59 38.71 59C38.268 59 37.878 58.709 37.752 58.285 37.001 55.762 34.636 54 32 54 28.691 54 26 56.691 26 60 26 63.309 28.691 66 32 66 34.306 66 36.434 64.654 37.423 62.571 37.589 62.222 37.94 62 38.326 62L41 62C41.266 62 41.52 62.105 41.707 62.293L43 63.586 44.293 62.293C44.48 62.105 44.734 62 45 62L47 62C47.266 62 47.52 62.105 47.707 62.293L49 63.586 50.293 62.293C50.48 62.105 50.734 62 51 62L52.697 62 54.431 60.845ZM56.707 60.293C56.919 60.505 57.024 60.8 56.995 61.099 56.966 61.396 56.804 61.666 56.555 61.832L53.555 63.832C53.391 63.941 53.197 64 53 64L51.414 64 49.707 65.707C49.316 66.098 48.684 66.098 48.293 65.707L46.586 64 45.414 64 43.707 65.707C43.316 66.098 42.684 66.098 42.293 65.707L40.586 64 38.929 64C37.511 66.449 34.857 68 32 68 27.589 68 24 64.411 24 60 24 55.589 27.589 52 32 52 35.26 52 38.208 54.022 39.418 57L53 57C53.266 57 53.52 57.105 53.707 57.293L56.707 60.293ZM47.414 25 53 30.586 58.586 25 53 19.414 47.414 25ZM52.293 32.707 45.293 25.707C44.902 25.316 44.902 24.684 45.293 24.293L52.293 17.293C52.684 16.902 53.316 16.902 53.707 17.293L60.707 24.293C61.098 24.684 61.098 25.316 60.707 25.707L53.707 32.707C53.512 32.902 53.256 33 53 33 52.744 33 52.488 32.902 52.293 32.707L52.293 32.707ZM34.09 29 28.003 20.696 21.964 29 34.09 29ZM36.063 31 20 31C19.624 31 19.279 30.789 19.109 30.454 18.938 30.119 18.97 29.716 19.191 29.412L27.191 18.412C27.379 18.154 27.679 18 27.998 18 28.344 17.984 28.618 18.151 28.807 18.409L36.869 29.409C37.092 29.713 37.125 30.116 36.954 30.452 36.784 30.788 36.439 31 36.063 31L36.063 31ZM22 42.5C22 45.533 24.468 48 27.5 48 30.532 48 33 45.533 33 42.5 33 39.467 30.532 37 27.5 37 24.468 37 22 39.467 22 42.5L22 42.5ZM20 42.5C20 38.364 23.364 35 27.5 35 31.636 35 35 38.364 35 42.5 35 46.636 31.636 50 27.5 50 23.364 50 20 46.636 20 42.5L20 42.5ZM48 47 57 47 57 38 48 38 48 47ZM59 48C59 48.552 58.553 49 58 49L47 49C46.447 49 46 48.552 46 48L46 37C46 36.448 46.447 36 47 36L58 36C58.553 36 59 36.448 59 37L59 48ZM68 13 68 63C68 63.552 67.553 64 67 64L59 64 59 62 66 62 66 14 14 14 14 62 21 62 21 64 13 64C12.447 64 12 63.552 12 63L12 13C12 12.448 12.447 12 13 12L67 12C67.553 12 68 12.448 68 13L68 13Z" id="AWS-Resource-Access-Manager_Icon_64_Squid" fill="#FFFFFF"/></g></svg>