<svg width="48" height="48" viewBox="0 0 48 48" xmlns="http://www.w3.org/2000/svg" xmlns:xlink="http://www.w3.org/1999/xlink" overflow="hidden"><g id="Icon-Resource/Networking-and-Content-Delivery/Res_Amazon-VPC_Reachability-Analyzer_48" stroke="none" stroke-width="1" fill="none" fill-rule="evenodd"><path d="M42 40C42 41.103 41.103 42 40 42 38.897 42 38 41.103 38 40 38 38.897 38.897 38 40 38 41.103 38 42 38.897 42 40M10 8C10 9.103 9.103 10 8 10 6.897 10 6 9.103 6 8 6 6.897 6.897 6 8 6 9.103 6 10 6.897 10 8M40 44C37.794 44 36 42.206 36 40 36 37.794 37.794 36 40 36 42.206 36 44 37.794 44 40 44 42.206 42.206 44 40 44M24 20C26.206 20 28 21.794 28 24 28 26.206 26.206 28 24 28 21.794 28 20 26.206 20 24 20 21.794 21.794 20 24 20M8 12C5.794 12 4 10.206 4 8 4 5.794 5.794 4 8 4 10.206 4 12 5.794 12 8 12 10.206 10.206 12 8 12M40 34C37.033 34 34.568 36.167 34.09 39L14 39C10.141 39 7 35.86 7 32 7 28.14 10.141 25 14 25L18.09 25C18.568 27.833 21.033 30 24 30 26.967 30 29.432 27.833 29.91 25L34 25C38.963 25 43 20.962 43 16 43 11.038 38.963 7 34 7L13.91 7C13.432 4.167 10.967 2 8 2 4.691 2 2 4.691 2 8 2 11.309 4.691 14 8 14 10.967 14 13.432 11.833 13.91 9L34 9C37.859 9 41 12.14 41 16 41 19.86 37.859 23 34 23L29.91 23C29.432 20.167 26.967 18 24 18 21.033 18 18.568 20.167 18.09 23L14 23C9.037 23 5 27.038 5 32 5 36.962 9.037 41 14 41L34.09 41C34.568 43.833 37.033 46 40 46 43.309 46 46 43.309 46 40 46 36.691 43.309 34 40 34" id="Fill-1" fill="#8C4FFF"/></g></svg>