<svg width="80" height="80" viewBox="0 0 80 80" xmlns="http://www.w3.org/2000/svg" xmlns:xlink="http://www.w3.org/1999/xlink" overflow="hidden"><g id="Icon-Architecture/64/Arch_Amazon-Managed-Service-for-Prometheus_64" stroke="none" stroke-width="1" fill="none" fill-rule="evenodd"><g id="Icon-Architecture-BG/64/Management-Governance" fill="#E7157B"><rect x="0" y="0" width="80" height="80" id="Rectangle"/></g><g id="Icon-Service/64/Amazon-Managed-Service-for-Prometheus_64" fill="#FFFFFF" transform="translate(20 12)"><path d="M33 18C31.346 18 30 16.654 30 15 30 13.346 31.346 12 33 12 34.654 12 36 13.346 36 15 36 16.654 34.654 18 33 18L33 18ZM23 8C21.346 8 20 6.654 20 5 20 3.346 21.346 2 23 2 24.654 2 26 3.346 26 5 26 6.654 24.654 8 23 8L23 8ZM15 26C13.346 26 12 24.654 12 23 12 21.346 13.346 20 15 20 16.654 20 18 21.346 18 23 18 24.654 16.654 26 15 26L15 26ZM5 17C3.346 17 2 15.654 2 14 2 12.346 3.346 11 5 11 6.654 11 8 12.346 8 14 8 15.654 6.654 17 5 17L5 17ZM33 10C31.982 10 31.037 10.309 30.247 10.833L27.167 7.753C27.691 6.962 28 6.018 28 5 28 2.243 25.757 0 23 0 20.243 0 18 2.243 18 5 18 6.592 18.762 7.997 19.926 8.913L15.363 18.037C15.241 18.028 15.125 18 15 18 13.728 18 12.576 18.493 11.693 19.279L9.167 16.753C9.691 15.962 10 15.018 10 14 10 11.243 7.757 9 5 9 2.243 9 0 11.243 0 14 0 16.757 2.243 19 5 19 6.018 19 6.963 18.691 7.753 18.167L10.48 20.895C10.181 21.537 10 22.246 10 23 10 25.757 12.243 28 15 28 17.757 28 20 25.757 20 23 20 21.084 18.905 19.437 17.319 18.598L21.713 9.811C22.126 9.922 22.553 10 23 10 24.018 10 24.963 9.691 25.753 9.167L28.833 12.247C28.309 13.038 28 13.982 28 15 28 17.757 30.243 20 33 20 35.757 20 38 17.757 38 15 38 12.243 35.757 10 33 10L33 10ZM26.503 39 12.5 39 8 33 31.048 33 26.503 39ZM22.231 54 16.769 54 13.301 41 25.699 41 22.231 54ZM33.06 31 6 31C5.621 31 5.275 31.214 5.105 31.553 4.937 31.892 4.973 32.297 5.2 32.6L11.084 40.445 15.034 55.258C15.15 55.695 15.547 56 16 56L23 56C23.453 56 23.85 55.695 23.966 55.258L27.916 40.447 33.856 32.604C34.086 32.301 34.124 31.895 33.955 31.555 33.786 31.215 33.439 31 33.06 31L33.06 31Z" id="Fill-7"/></g></g></svg>