<svg width="48" height="48" viewBox="0 0 48 48" xmlns="http://www.w3.org/2000/svg" xmlns:xlink="http://www.w3.org/1999/xlink" overflow="hidden"><g id="Icon-Resource/Analytics/Res_Amazon-EMR_EMR-Engine_48" stroke="none" stroke-width="1" fill="none" fill-rule="evenodd"><path d="M44.065 34.99C44.065 35.503 43.638 35.92 43.114 35.92L40.881 35.92C40.357 35.92 39.93 35.503 39.93 34.99L39.93 33.415C39.93 32.862 39.483 32.415 38.93 32.415L34.548 32.415C33.996 32.415 33.548 32.862 33.548 33.415L33.548 35.795C33.548 37.313 32.305 38.549 30.778 38.549L23.74 38.549C22.198 38.549 20.943 37.313 20.943 35.795L20.943 35.167C20.943 34.614 20.496 34.167 19.943 34.167L8.905 34.167C8.616 34.167 8.381 33.94 8.381 33.661L8.381 17.747C8.381 17.233 8.809 16.815 9.335 16.815L15.232 16.815C15.785 16.815 16.232 16.368 16.232 15.815L16.232 13.877C16.232 13.603 16.462 13.382 16.745 13.382L26.026 13.382C26.308 13.382 26.538 13.603 26.538 13.877L26.538 15.815C26.538 16.368 26.985 16.815 27.538 16.815L32.622 16.815C33.147 16.815 33.575 17.233 33.575 17.747L33.575 19.468C33.575 20.02 34.022 20.468 34.575 20.468L38.898 20.468C39.451 20.468 39.898 20.02 39.898 19.468L39.898 17.868C39.898 17.355 40.325 16.938 40.85 16.938L43.114 16.938C43.638 16.938 44.065 17.355 44.065 17.868L44.065 34.99ZM43.114 14.938 40.85 14.938C39.222 14.938 37.898 16.253 37.898 17.868L37.898 18.468 35.575 18.468 35.575 17.747C35.575 16.131 34.25 14.815 32.622 14.815L28.538 14.815 28.538 13.877C28.538 12.501 27.411 11.382 26.026 11.382L22.403 11.382 22.403 9 27.538 9 27.538 7 15.269 7 15.269 9 20.403 9 20.403 11.382 16.745 11.382C15.359 11.382 14.232 12.501 14.232 13.877L14.232 14.815 9.335 14.815C7.707 14.815 6.381 16.131 6.381 17.747L6.381 24.527 4 24.527 4 15.887 2 15.887 2 35.167 4 35.167 4 26.527 6.381 26.527 6.381 33.661C6.381 35.043 7.513 36.167 8.905 36.167L18.958 36.167C19.15 38.615 21.221 40.549 23.74 40.549L30.778 40.549C33.409 40.549 35.548 38.416 35.548 35.795L35.548 34.415 37.93 34.415 37.93 34.99C37.93 36.605 39.254 37.92 40.881 37.92L43.114 37.92C44.741 37.92 46.065 36.605 46.065 34.99L46.065 17.868C46.065 16.253 44.741 14.938 43.114 14.938L43.114 14.938Z" id="Icon-Resource/48/Amazon-EMR_EMR-Engine" fill="#8C4FFF"/></g></svg>