<svg width="48" height="48" viewBox="0 0 48 48" xmlns="http://www.w3.org/2000/svg" xmlns:xlink="http://www.w3.org/1999/xlink" overflow="hidden"><g id="Icon-Resource/Networking-and-Content-Delivery/Res_Amazon-VPC_Flow-Logs_48" stroke="none" stroke-width="1" fill="none" fill-rule="evenodd"><path d="M42.2071 24.708 37.8321 29.083 36.4181 27.669 39.0861 25.001 7.3751 25.001 7.3751 23.001 39.0861 23.001 36.4181 20.332 37.8321 18.918 42.2071 23.294C42.5981 23.685 42.5981 24.317 42.2071 24.708L42.2071 24.708ZM17.0001 33.751 30.1251 33.751 30.1251 31.751 17.0001 31.751 17.0001 33.751ZM17.0001 29.376 30.1251 29.376 30.1251 27.376 17.0001 27.376 17.0001 29.376ZM17.0001 20.625 30.1251 20.625 30.1251 18.625 17.0001 18.625 17.0001 20.625ZM17.0001 16.25 30.1251 16.25 30.1251 14.25 17.0001 14.25 17.0001 16.25ZM31.7501 26.626 33.7501 26.626 33.7501 37.126C33.7501 37.679 33.3031 38.126 32.7501 38.126L14.3751 38.126C13.8221 38.126 13.3751 37.679 13.3751 37.126L13.3751 26.626 15.3751 26.626 15.3751 36.126 31.7501 36.126 31.7501 26.626ZM15.3751 21.375 13.3751 21.375 13.3751 10.875C13.3751 10.322 13.8221 9.875 14.3751 9.875L32.7501 9.875C33.3031 9.875 33.7501 10.322 33.7501 10.875L33.7501 21.375 31.7501 21.375 31.7501 11.875 15.3751 11.875 15.3751 21.375ZM24.0001 44.001C12.9721 44.001 4.0001 35.029 4.0001 24.001 4.0001 12.973 12.9721 4 24.0001 4 35.0281 4 44.0001 12.973 44.0001 24.001 44.0001 35.029 35.0281 44.001 24.0001 44.001L24.0001 44.001ZM24.0001 2C11.8691 2 2.0001 11.869 2.0001 24.001 2.0001 36.132 11.8691 46.001 24.0001 46.001 36.1311 46.001 46.0001 36.132 46.0001 24.001 46.0001 11.869 36.1311 2 24.0001 2L24.0001 2Z" id="AWS-Amazon-VPC_Flow-logs_Resource-Icon_light-bg" fill="#8C4FFF"/></g></svg>