<svg width="48" height="48" viewBox="0 0 48 48" xmlns="http://www.w3.org/2000/svg" xmlns:xlink="http://www.w3.org/1999/xlink" overflow="hidden"><g id="Icon-Resource/IoT/Res_AWS-IoT_Thing_Temperature-Humidity-Sensor_48" stroke="none" stroke-width="1" fill="none" fill-rule="evenodd"><path d="M14.4365 20.378C13.6485 20.378 13.0065 19.736 13.0065 18.948 13.0065 18.316 13.8405 16.731 14.4365 15.659 15.0335 16.732 15.8675 18.316 15.8675 18.948 15.8675 19.736 15.2255 20.378 14.4365 20.378L14.4365 20.378ZM15.3315 13.154C15.1615 12.816 14.8155 12.602 14.4365 12.602 14.0575 12.602 13.7105 12.816 13.5415 13.155 13.4365 13.365 13.2595 13.676 13.0495 14.047 11.9725 15.944 11.0065 17.747 11.0065 18.948 11.0065 20.839 12.5445 22.378 14.4365 22.378 16.3285 22.378 17.8675 20.839 17.8675 18.948 17.8675 17.745 16.8995 15.941 15.8215 14.042 15.6125 13.673 15.4355 13.364 15.3315 13.154L15.3315 13.154ZM29.9995 27 33.9995 27 33.9995 25 29.9995 25 29.9995 27ZM29.9995 23 34.9995 23 34.9995 21 29.9995 21 29.9995 23ZM29.9995 19 33.9995 19 33.9995 17 29.9995 17 29.9995 19ZM29.9995 15 34.9995 15 34.9995 13 29.9995 13 29.9995 15ZM23.9995 32.977C23.4485 32.977 22.9995 32.528 22.9995 31.977 22.9995 31.426 23.4485 30.977 23.9995 30.977 24.5515 30.977 24.9995 31.426 24.9995 31.977 24.9995 32.528 24.5515 32.977 23.9995 32.977L23.9995 32.977ZM24.9995 29.161 24.9995 18 22.9995 18 22.9995 29.161C21.8385 29.576 20.9995 30.675 20.9995 31.977 20.9995 33.631 22.3455 34.977 23.9995 34.977 25.6545 34.977 26.9995 33.631 26.9995 31.977 26.9995 30.675 26.1615 29.576 24.9995 29.161L24.9995 29.161ZM26.5225 35.081C25.5695 35.857 24.3645 36.142 23.1315 35.887 21.5875 35.566 20.3565 34.298 20.0695 32.732 19.7905 31.205 20.3635 29.734 21.6025 28.797L21.9995 28.497 21.9995 14C21.9995 12.897 22.8975 12 23.9995 12 25.1025 12 25.9995 12.897 25.9995 14L25.9995 28.498 26.3975 28.797C27.4155 29.567 27.9995 30.726 27.9995 31.977 27.9995 33.186 27.4615 34.317 26.5225 35.081L26.5225 35.081ZM27.9995 27.528 27.9995 14C27.9995 11.794 26.2065 10 23.9995 10 21.7935 10 19.9995 11.794 19.9995 14L19.9995 27.529C18.4445 28.923 17.7205 31.01 18.1025 33.092 18.5355 35.451 20.3925 37.361 22.7255 37.845 23.1475 37.933 23.5715 37.976 23.9915 37.976 25.3705 37.976 26.7065 37.511 27.7855 36.632 29.1925 35.487 29.9995 33.79 29.9995 31.977 29.9995 30.264 29.2775 28.669 27.9995 27.528L27.9995 27.528ZM38.9995 37.865C38.9995 38.49 38.4915 39 37.8655 39L10.1345 39C9.5085 39 8.9995 38.49 8.9995 37.865L8.9995 10.134C8.9995 9.509 9.5085 9 10.1345 9L37.8655 9C38.4915 9 38.9995 9.509 38.9995 10.134L38.9995 37.865ZM45.9995 15 45.9995 13 40.9995 13 40.9995 10.134C40.9995 8.406 39.5935 7 37.8655 7L34.9995 7 34.9995 2 32.9995 2 32.9995 7 29.9995 7 29.9995 2 27.9995 2 27.9995 7 24.9995 7 24.9995 2 22.9995 2 22.9995 7 19.9995 7 19.9995 2 17.9995 2 17.9995 7 14.9995 7 14.9995 2 12.9995 2 12.9995 7 10.1345 7C8.4065 7 6.9995 8.406 6.9995 10.134L6.9995 13 1.9995 13 1.9995 15 6.9995 15 6.9995 18 1.9995 18 1.9995 20 6.9995 20 6.9995 23 1.9995 23 1.9995 25 6.9995 25 6.9995 28 1.9995 28 1.9995 30 6.9995 30 6.9995 33 1.9995 33 1.9995 35 6.9995 35 6.9995 37.865C6.9995 39.593 8.4065 41 10.1345 41L12.9995 41 12.9995 46 14.9995 46 14.9995 41 17.9995 41 17.9995 46 19.9995 46 19.9995 41 22.9995 41 22.9995 46 24.9995 46 24.9995 41 27.9995 41 27.9995 46 29.9995 46 29.9995 41 32.9995 41 32.9995 46 34.9995 46 34.9995 41 37.8655 41C39.5935 41 40.9995 39.593 40.9995 37.865L40.9995 35 45.9995 35 45.9995 33 40.9995 33 40.9995 30 45.9995 30 45.9995 28 40.9995 28 40.9995 25 45.9995 25 45.9995 23 40.9995 23 40.9995 20 45.9995 20 45.9995 18 40.9995 18 40.9995 15 45.9995 15Z" id="Fill-1" fill="#7AA116"/></g></svg>