<svg width="80" height="80" viewBox="0 0 80 80" xmlns="http://www.w3.org/2000/svg" xmlns:xlink="http://www.w3.org/1999/xlink" overflow="hidden"><g id="Icon-Architecture/64/Arch_Amazon-Lightsail_64" stroke="none" stroke-width="1" fill="none" fill-rule="evenodd"><g id="Icon-Architecture-BG/64/Compute" fill="#ED7100"><rect x="0" y="0" width="80" height="80" id="Rectangle"/></g><path d="M32 41 35 41 35 39 32 39 32 41ZM26 41 29 41 29 39 26 39 26 41ZM20 41 23 41 23 39 20 39 20 41ZM14 41 17 41 17 39 14 39 14 41ZM59.627 47.412 61.943 46.64 59.627 45.868 58.855 43.553 58.084 45.868 55.769 46.64 58.084 47.412 58.855 49.727 59.627 47.412ZM36.902 50.138 36.13 52.454 33.814 53.226 36.13 53.997 36.902 56.313 37.674 53.997 39.989 53.226 37.674 52.454 36.902 50.138ZM36.902 25.258 36.13 27.573 33.814 28.345 36.13 29.117 36.902 31.433 37.674 29.117 39.989 28.345 37.674 27.573 36.902 25.258ZM40.586 39.933C44.257 42.338 46.837 47.031 47.9 53.252 49.946 50.57 53.206 45.433 53.206 39.933 53.206 34.459 50.325 29.647 47.907 26.573 46.849 32.814 44.264 37.522 40.586 39.933L40.586 39.933ZM38.089 40.852C37.722 40.694 37.483 40.333 37.483 39.933 37.483 39.533 37.722 39.171 38.089 39.014 42.459 37.14 45.426 31.705 46.228 24.104 46.269 23.712 46.537 23.38 46.912 23.258 47.286 23.135 47.699 23.246 47.964 23.539 50.669 26.533 55.206 32.644 55.206 39.933 55.206 47.676 49.663 54.432 47.964 56.318 47.771 56.532 47.499 56.648 47.221 56.648 47.117 56.648 47.014 56.632 46.912 56.6 46.536 56.478 46.268 56.146 46.227 55.753 45.424 48.157 42.458 42.725 38.089 40.852L38.089 40.852ZM67 40C67 52.682 56.683 63 44 63 32.553 63 22.756 54.46 21.212 43.135L23.194 42.865C24.604 53.204 33.548 61 44 61 55.579 61 65 51.58 65 40 65 28.42 55.579 19 44 19 33.861 19 25.175 26.226 23.346 36.181L21.379 35.819C23.383 24.915 32.896 17 44 17 56.683 17 67 27.318 67 40L67 40Z" id="Amazon-Lightsail-Icon_64_Squid" fill="#FFFFFF"/></g></svg>