<svg width="80" height="80" viewBox="0 0 80 80" xmlns="http://www.w3.org/2000/svg" xmlns:xlink="http://www.w3.org/1999/xlink" overflow="hidden"><g id="Icon-Architecture/64/Arch_AWS-Parallel-Cluster_64" stroke="none" stroke-width="1" fill="none" fill-rule="evenodd"><g id="Icon-Architecture-BG/64/Compute" fill="#ED7100"><rect x="0" y="0" width="80" height="80" id="Rectangle"/></g><g id="Icon-Service/64/AWS-ParallelClusters_64" fill="#FFFFFF" transform="translate(12 16)"><path d="M36.7708 46 44.7708 46 44.7708 38 36.7708 38 36.7708 46ZM46.7708 37 46.7708 47C46.7708 47.552 46.3228 48 45.7708 48L35.7708 48C35.2178 48 34.7708 47.552 34.7708 47L34.7708 37C34.7708 36.448 35.2178 36 35.7708 36L45.7708 36C46.3228 36 46.7708 36.448 46.7708 37L46.7708 37ZM51.7708 30 41.7708 30C41.2178 30 40.7708 30.448 40.7708 31L40.7708 34C40.7708 34.552 41.2178 35 41.7708 35 42.3228 35 42.7708 34.552 42.7708 34L42.7708 32 50.7708 32 50.7708 40 49.7708 40C49.2178 40 48.7708 40.448 48.7708 41 48.7708 41.552 49.2178 42 49.7708 42L51.7708 42C52.3228 42 52.7708 41.552 52.7708 41L52.7708 31C52.7708 30.448 52.3228 30 51.7708 30L51.7708 30ZM10.7708 10 18.7708 10 18.7708 2 10.7708 2 10.7708 10ZM8.7708 11 8.7708 1C8.7708 0.448 9.2178 0 9.7708 0L19.7708 0C20.3228 0 20.7708 0.448 20.7708 1L20.7708 11C20.7708 11.552 20.3228 12 19.7708 12L9.7708 12C9.2178 12 8.7708 11.552 8.7708 11L8.7708 11ZM2.7708 18 12.7708 18C13.3228 18 13.7708 17.552 13.7708 17L13.7708 15C13.7708 14.448 13.3228 14 12.7708 14 12.2178 14 11.7708 14.448 11.7708 15L11.7708 16 3.7708 16 3.7708 8 5.7708 8C6.3228 8 6.7708 7.552 6.7708 7 6.7708 6.448 6.3228 6 5.7708 6L2.7708 6C2.2178 6 1.7708 6.448 1.7708 7L1.7708 17C1.7708 17.552 2.2178 18 2.7708 18L2.7708 18ZM55.0798 28.135C54.9288 28.667 54.3688 28.973 53.8458 28.824 53.3148 28.674 53.0058 28.121 53.1558 27.589 53.9718 24.712 53.4428 21.554 51.7758 19.348 50.2158 17.285 47.8308 16.194 44.8778 16.194 37.2628 16.194 33.1048 20.44 28.9878 25.214 31.5708 28.166 34.2938 31.068 37.6968 32.702 38.1948 32.941 38.4048 33.539 38.1658 34.036 37.9938 34.395 37.6368 34.604 37.2638 34.604 37.1188 34.604 36.9718 34.572 36.8318 34.505 33.1638 32.744 30.3338 29.778 27.6728 26.748 23.6588 31.436 19.4208 36.125 12.0748 36.125 8.0038 36.125 4.5278 34.472 2.2878 31.471 0.149796 28.606-0.543204 24.927 0.435796 21.628 0.591796 21.099 1.1488 20.796 1.6788 20.954 2.2078 21.11 2.5108 21.667 2.3538 22.196 1.5658 24.853 2.1538 27.949 3.8908 30.274 5.7438 32.757 8.6508 34.125 12.0748 34.125 18.6278 34.125 22.4028 29.833 26.3438 25.225 23.3688 21.8 20.5268 18.6 16.7748 17.09 16.2618 16.884 16.0138 16.301 16.2198 15.789 16.4268 15.276 17.0138 15.028 17.5208 15.234 21.6198 16.884 24.7088 20.298 27.6608 23.692 31.8768 18.824 36.5148 14.194 44.8778 14.194 48.4308 14.194 51.4468 15.596 53.3708 18.142 55.4088 20.837 56.0638 24.667 55.0798 28.135L55.0798 28.135Z" id="AWS-ParallelCluster_Icon_64_Squid"/></g></g></svg>