<svg width="48" height="48" viewBox="0 0 48 48" xmlns="http://www.w3.org/2000/svg" xmlns:xlink="http://www.w3.org/1999/xlink" overflow="hidden"><g id="Icon-Resource/Application-Integration/Res_Amazon-Simple-Queue-Service_Message_48" stroke="none" stroke-width="1" fill="none" fill-rule="evenodd"><path d="M36.5 4 38.5 4 38.5 2 36.5 2 36.5 4ZM33 2 34.5 2 34.5 4 34 4 34 4.5 32 4.5 32 3C32 2.448 32.447 2 33 2L33 2ZM32 34.5 34 34.5 34 31.5 32 31.5 32 34.5ZM32 40.5 34 40.5 34 37.5 32 37.5 32 40.5ZM32 28.5 34 28.5 34 25.5 32 25.5 32 28.5ZM32 10.5 34 10.5 34 7.5 32 7.5 32 10.5ZM32 16.5 34 16.5 34 13.5 32 13.5 32 16.5ZM32 22.5 34 22.5 34 19.5 32 19.5 32 22.5ZM34 44 34.5 44 34.5 46 33 46C32.447 46 32 45.553 32 45L32 43.5 34 43.5 34 44ZM36.5 46 38.5 46 38.5 44 36.5 44 36.5 46ZM41 43.5 43 43.5 43 45C43 45.553 42.553 46 42 46L40.5 46 40.5 44 41 44 41 43.5ZM41 40.5 43 40.5 43 37.5 41 37.5 41 40.5ZM41 34.5 43 34.5 43 31.5 41 31.5 41 34.5ZM41 16.5 43 16.5 43 13.5 41 13.5 41 16.5ZM41 10.5 43 10.5 43 7.5 41 7.5 41 10.5ZM41 28.5 43 28.5 43 25.5 41 25.5 41 28.5ZM41 22.5 43 22.5 43 19.5 41 19.5 41 22.5ZM43 3 43 4.5 41 4.5 41 4 40.5 4 40.5 2 42 2C42.553 2 43 2.448 43 3L43 3ZM23.5 4 25.5 4 25.5 2 23.5 2 23.5 4ZM20 2 21.5 2 21.5 4 21 4 21 4.5 19 4.5 19 3C19 2.448 19.447 2 20 2L20 2ZM19 10.5 21 10.5 21 7.5 19 7.5 19 10.5ZM19 34.5 21 34.5 21 31.5 19 31.5 19 34.5ZM19 28.5 21 28.5 21 25.5 19 25.5 19 28.5ZM19 22.5 21 22.5 21 19.5 19 19.5 19 22.5ZM19 40.5 21 40.5 21 37.5 19 37.5 19 40.5ZM19 16.5 21 16.5 21 13.5 19 13.5 19 16.5ZM21 44 21.5 44 21.5 46 20 46C19.447 46 19 45.553 19 45L19 43.5 21 43.5 21 44ZM23.5 46 25.5 46 25.5 44 23.5 44 23.5 46ZM28 43.5 30 43.5 30 45C30 45.553 29.553 46 29 46L27.5 46 27.5 44 28 44 28 43.5ZM28 10.5 30 10.5 30 7.5 28 7.5 28 10.5ZM28 16.5 30 16.5 30 13.5 28 13.5 28 16.5ZM28 22.5 30 22.5 30 19.5 28 19.5 28 22.5ZM28 40.5 30 40.5 30 37.5 28 37.5 28 40.5ZM28 28.5 30 28.5 30 25.5 28 25.5 28 28.5ZM28 34.5 30 34.5 30 31.5 28 31.5 28 34.5ZM30 3 30 4.5 28 4.5 28 4 27.5 4 27.5 2 29 2C29.553 2 30 2.448 30 3L30 3ZM7 44 15 44 15 4 7 4 7 44ZM16 2 6 2C5.447 2 5 2.448 5 3L5 45C5 45.553 5.447 46 6 46L16 46C16.553 46 17 45.553 17 45L17 3C17 2.448 16.553 2 16 2L16 2Z" id="Amazon-Simple-Notification-Service_Message_48" fill="#E7157B"/></g></svg>