<svg width="80" height="80" viewBox="0 0 80 80" xmlns="http://www.w3.org/2000/svg" xmlns:xlink="http://www.w3.org/1999/xlink" overflow="hidden"><g id="Icon-Architecture/64/Arch_AWS-CodeBuild_64" stroke="none" stroke-width="1" fill="none" fill-rule="evenodd"><g id="Icon-Architecture-BG/64/Developer-Tools" fill="#C925D1"><rect x="0" y="0" width="80" height="80" id="Rectangle"/></g><path d="M65.4396 22 59.4855 16.549 53.5254 22 65.4396 22ZM57.2017 15.938 45.1238 15.956 51.5751 21.083 57.2017 15.938ZM51.7548 33.5 42.2484 37 60.5346 37 51.7548 33.5ZM37.798 57 64.596 57 64.596 39 37.798 39 37.798 57ZM49.5226 22 42.9373 16.766 36.3956 22 49.5226 22ZM34.3093 21.115 40.7488 15.963 27.9115 15.982 34.3093 21.115ZM32.225 22 25.6525 16.726 19.0801 22 28.8653 22 32.225 22ZM27.8728 24 19.8423 24 27.8728 31.965 27.8728 24ZM27.8728 35.083 18.4479 43.665 27.8728 52.889 27.8728 35.083ZM27.8728 56.137 17.9476 65.839 17.9476 66 27.8728 66 27.8728 56.137ZM17.9476 45.963 17.9476 63.053 26.6838 54.513 17.9476 45.963ZM17.9476 41.424 26.6203 33.528 17.9476 24.928 17.9476 41.424ZM16.9551 21.148 23.3846 15.989 16.9551 15.999 16.9551 21.148ZM14.9701 14 12.985 14 12.985 24 14.9701 24 14.9701 23 14.9701 15 14.9701 14ZM68.9333 23.36C68.7854 23.746 68.4172 24 68.0073 24L52.6858 24 52.6858 32 65.9637 37.074 65.9627 37.076C66.326 37.225 66.581 37.582 66.581 38L66.581 58C66.581 58.552 66.1374 59 65.5885 59L36.8055 59C36.2576 59 35.813 58.552 35.813 58L35.813 38C35.813 37.572 36.0829 37.213 36.4591 37.071L36.4561 37.064 50.7007 32 50.7007 24 29.8578 24 29.8578 67C29.8578 67.552 29.4142 68 28.8653 68L16.9551 68C16.4072 68 15.9626 67.552 15.9626 67L15.9626 26 11.9925 26C11.4446 26 11 25.552 11 25L11 13C11 12.448 11.4446 12 11.9925 12L15.9626 12C16.5115 12 16.9551 12.448 16.9551 13L16.9551 13.999 59.6334 14 68.6752 22.26C68.978 22.538 69.0812 22.975 68.9333 23.36L68.9333 23.36ZM48.3395 55.308 54.116 42.083 52.2997 41.277 46.5232 54.502 48.3395 55.308ZM53.7656 50.888 55.049 52.415 59.3366 48.757C59.5471 48.577 59.6731 48.316 59.686 48.039 59.6989 47.761 59.5947 47.49 59.4011 47.292L55.8221 43.633 54.4088 45.038 57.2355 47.928 53.7656 50.888ZM40.8708 47.984C40.6525 47.783 40.5344 47.493 40.5503 47.195 40.5651 46.896 40.713 46.621 40.9512 46.443L45.8215 42.812 47.0026 44.419 43.1 47.33 46.3753 50.354 45.0335 51.829 40.8708 47.984Z" id="AWS-CodeBuild_Icon_64_Squid" fill="#FFFFFF"/></g></svg>