<svg width="48" height="48" viewBox="0 0 48 48" xmlns="http://www.w3.org/2000/svg" xmlns:xlink="http://www.w3.org/1999/xlink" overflow="hidden"><g id="Icon-Resource/Storage/Res_Amazon-Elastic-Block-Store_Volume_48" stroke="none" stroke-width="1" fill="none" fill-rule="evenodd"><path d="M13.4185 4 33.8805 4 38.2965 9.873 9.0035 9.873 13.4185 4ZM7.0005 11.873 40.2995 11.873C40.6785 11.873 41.0245 11.659 41.1935 11.319 41.3635 10.98 41.3265 10.575 41.0985 10.272L35.1785 2.399C34.9895 2.147 34.6935 2 34.3795 2L12.9195 2C12.6055 2 12.3095 2.147 12.1205 2.399L6.2015 10.272C5.9735 10.575 5.9365 10.98 6.1065 11.319 6.2745 11.659 6.6215 11.873 7.0005 11.873L7.0005 11.873ZM8.0605 43.985 39.2995 43.985 39.2995 15.371 8.0605 15.371 8.0605 43.985ZM40.2995 13.371 7.0605 13.371C6.5075 13.371 6.0605 13.818 6.0605 14.371L6.0605 44.985C6.0605 45.538 6.5075 45.985 7.0605 45.985L40.2995 45.985C40.8525 45.985 41.2995 45.538 41.2995 44.985L41.2995 14.371C41.2995 13.818 40.8525 13.371 40.2995 13.371L40.2995 13.371Z" id="AWS-Amazon-Elastic-Block-Store_Volume_Resource-Icon_light-bg" fill="#7AA116"/></g></svg>