<svg width="80" height="80" viewBox="0 0 80 80" xmlns="http://www.w3.org/2000/svg" xmlns:xlink="http://www.w3.org/1999/xlink" overflow="hidden"><g id="Icon-Architecture/64/Arch_Savings-Plans_64" stroke="none" stroke-width="1" fill="none" fill-rule="evenodd"><g id="Icon-Architecture-BG/64/AWS-Cost-Management" fill="#7AA116"><rect x="0" y="0" width="80" height="80" id="Rectangle"/></g><g id="Icon-Service/64/AWS-Savings-Plans_64" fill="#FFFFFF" transform="translate(13 12)"><path d="M21.288 14.375C21.539 14.461 21.814 14.444 22.055 14.326 22.191 14.259 22.292 14.209 25.617 11.322L28.962 14.188C29.23 14.419 29.603 14.493 29.936 14.375L34.07 12.958 31.726 17 19.519 17 17.163 12.961 21.288 14.375ZM18.945 19 32.302 19C32.658 19 32.988 18.811 33.167 18.502L37.143 11.645C37.352 11.285 37.315 10.832 37.051 10.509 36.786 10.187 36.35 10.062 35.954 10.198L29.829 12.298 26.263 9.242C25.887 8.918 25.33 8.921 24.956 9.247 23.601 10.424 22.104 11.717 21.411 12.303L15.269 10.198C14.875 10.062 14.436 10.187 14.172 10.51 13.907 10.833 13.871 11.287 14.081 11.648L18.081 18.504C18.261 18.812 18.59 19 18.945 19L18.945 19ZM56 33.989 49.953 36.927C49.814 36.995 49.665 37.028 49.514 37.028 49.393 37.028 49.272 37.006 49.156 36.963 48.898 36.864 48.691 36.663 48.586 36.407L46.043 30.218 47.9 29.459 49.763 33.994C50.557 31.558 50.983 29.024 50.983 26.434 50.983 12.962 39.998 2.002 26.495 2.002 12.992 2.002 2.006 12.962 2.006 26.434 2.006 29.73 2.653 32.93 3.93 35.943L2.082 36.722C0.7 33.46 0 29.999 0 26.434 0 11.858 11.885 0 26.495 0 41.104 0 52.99 11.858 52.99 26.434 52.99 28.922 52.636 31.366 51.957 33.728L55.122 32.19 56 33.989ZM42.945 18.459 44.945 18.459C44.945 20.168 43.852 21.619 42.225 22.07 41.902 22.159 41.578 22.203 41.258 22.203 39.968 22.203 38.755 21.494 38.005 20.244 37.756 19.83 37.531 19.646 37.416 19.646L37.412 19.646C37.007 19.662 36.219 20.625 35.811 21.444 35.642 21.784 35.295 22 34.915 22L17.945 22 17.945 20 34.325 20C34.844 19.139 35.916 17.706 37.329 17.647 38.002 17.614 38.914 17.873 39.72 19.215 40.193 20.005 40.93 20.352 41.692 20.142 42.315 19.969 42.945 19.382 42.945 18.459L42.945 18.459ZM29.962 43.56C29.962 45.33 28.642 46.779 26.945 46.996L26.945 40.2C28.447 40.617 29.962 41.679 29.962 43.56L29.962 43.56ZM23.065 34.599C23.065 33.253 23.835 32.096 24.945 31.518L24.945 37.497C23.902 36.931 23.065 35.993 23.065 34.599L23.065 34.599ZM29.962 34.599 31.962 34.599C31.962 31.724 29.748 29.363 26.945 29.141L26.945 28 24.945 28 24.945 29.353C22.704 30.032 21.065 32.125 21.065 34.599 21.065 36.906 22.583 38.815 24.945 39.681L24.945 46.641C23.835 46.062 23.065 44.906 23.065 43.56L21.065 43.56C21.065 46.033 22.704 48.126 24.945 48.806L24.945 51 26.945 51 26.945 49.018C29.748 48.795 31.962 46.435 31.962 43.56 31.962 40.9 29.952 38.766 26.945 38.157L26.945 31.163C28.642 31.38 29.962 32.83 29.962 34.599L29.962 34.599ZM25.945 54C16.399 54 10.469 48.812 10.469 40.459 10.469 31.705 17.276 26.791 19.513 25.175 19.601 25.112 19.682 25.054 19.755 25L32.135 25C32.208 25.054 32.289 25.112 32.377 25.176 34.614 26.791 41.422 31.705 41.422 40.459 41.422 48.812 35.491 54 25.945 54L25.945 54ZM33.548 23.554C33.35 23.411 33.194 23.3 33.091 23.218 32.914 23.077 32.694 23 32.469 23L19.421 23C19.195 23 18.975 23.077 18.799 23.218 18.695 23.3 18.54 23.411 18.343 23.554 11.791 28.284 8.469 33.972 8.469 40.459 8.469 49.9 15.329 56 25.945 56 36.561 56 43.422 49.9 43.422 40.459 43.422 33.972 40.1 28.284 33.548 23.554L33.548 23.554Z" id="AWS-Savings-Plans_64_Squid"/></g></g></svg>