<svg width="80" height="80" viewBox="0 0 80 80" xmlns="http://www.w3.org/2000/svg" xmlns:xlink="http://www.w3.org/1999/xlink" overflow="hidden"><g id="Icon-Architecture/64/Arch_Amazon-EKS-Distro_64" stroke="none" stroke-width="1" fill="none" fill-rule="evenodd"><g id="Icon-Architecture-BG/64/Containers" fill="#ED7100"><rect x="0" y="0" width="80" height="80" id="Rectangle"/></g><g id="Icon-Service/64/Amazon-EKS-Distro_64" fill="#FFFFFF" transform="translate(12 12)"><path d="M39.931 44.813C37.246 44.813 35.062 42.628 35.062 39.943 35.062 37.258 37.246 35.074 39.931 35.074 42.616 35.074 44.8 37.258 44.8 39.943 44.8 42.628 42.616 44.813 39.931 44.813L39.931 44.813ZM39.931 33.074C36.143 33.074 33.062 36.155 33.062 39.943 33.062 43.731 36.143 46.813 39.931 46.813 43.719 46.813 46.8 43.731 46.8 39.943 46.8 36.155 43.719 33.074 39.931 33.074L39.931 33.074ZM53.931 42.204 51.749 42.204C51.295 42.204 50.899 42.509 50.783 42.948 50.532 43.895 50.153 44.808 49.657 45.662 49.428 46.054 49.493 46.55 49.814 46.871L51.358 48.416 48.404 51.371 46.859 49.826C46.537 49.503 46.039 49.44 45.649 49.668 44.794 50.166 43.881 50.545 42.936 50.795 42.497 50.911 42.192 51.308 42.192 51.762L42.192 53.943 37.67 53.943 37.67 51.762C37.67 51.303 37.359 50.903 36.913 50.792 35.908 50.54 34.938 50.158 34.029 49.657 33.649 49.446 33.175 49.507 32.859 49.807L31.169 51.407 28.011 48.416 29.621 46.89C29.965 46.565 30.034 46.044 29.786 45.641 29.263 44.788 28.864 43.877 28.6 42.935 28.479 42.503 28.085 42.204 27.637 42.204L25.931 42.204 25.931 37.945 25.949 37.945 28.13 37.907C28.578 37.899 28.967 37.593 29.08 37.159 29.332 36.192 29.712 35.259 30.209 34.387 30.431 33.999 30.368 33.51 30.055 33.191L28.491 31.596 31.463 28.567 31.478 28.584 32.994 30.137C33.318 30.468 33.826 30.534 34.22 30.298 35.074 29.792 35.986 29.406 36.931 29.151 37.368 29.034 37.67 28.638 37.67 28.186L37.67 25.943 42.192 25.943 42.192 28.125C42.192 28.579 42.497 28.976 42.936 29.092 43.881 29.342 44.794 29.721 45.649 30.218 46.042 30.447 46.537 30.382 46.859 30.061L48.404 28.516 51.358 31.471 49.814 33.016C49.493 33.336 49.428 33.833 49.657 34.225 50.153 35.079 50.532 35.992 50.783 36.939 50.899 37.377 51.295 37.683 51.749 37.683L53.931 37.683 53.931 42.204ZM25.445 53.862 2 41.398 2 14.57 22 2.75203 22 12.451 11.463 19.156C11.175 19.339 11 19.658 11 20L11 36C11 36.373 11.208 36.714 11.538 36.887L24.2 43.475C24.49 43.913 24.986 44.204 25.55 44.204L26.903 44.204C27.114 44.811 27.372 45.404 27.676 45.978L26.344 47.24C26.023 47.544 25.838 47.973 25.838 48.416 25.838 48.858 26.023 49.287 26.344 49.591L28.861 51.976 25.445 53.862ZM40.504 19.136 29 12.425 29 2.75203 49 14.57 49 26.483C48.416 26.262 47.71 26.378 47.259 26.833L45.972 28.119C45.397 27.828 44.801 27.581 44.192 27.379L44.192 25.563C44.192 24.67 43.465 23.943 42.573 23.943L41 23.943 41 20C41 19.644 40.812 19.315 40.504 19.136L40.504 19.136ZM54.312 35.683 52.494 35.683C52.293 35.073 52.046 34.478 51.755 33.902L53.04 32.617C53.347 32.311 53.516 31.904 53.516 31.471 53.516 31.038 53.347 30.631 53.041 30.326L51 28.285 51 14C51 13.646 50.814 13.318 50.509 13.139L28.509 0.139026C28.2-0.043974 27.818-0.045974 27.504 0.131026 27.193 0.309026 27 0.641026 27 1.00003L27 13C27 13.355 27.189 13.684 27.496 13.863L39 20.574 39 23.943 37.289 23.943C36.397 23.943 35.67 24.67 35.67 25.563L35.67 27.444C35.062 27.649 34.468 27.9 33.894 28.195L32.994 27.273C32.704 26.818 32.252 26.519 31.732 26.442 31.189 26.363 30.66 26.53 30.308 26.889L27.37 29.882 25.013 27.12 31.843 19.199 29.182 19.199 23 26 23 19 21 19 21 36 23 36 23 28 26.368 31.89C26.425 32.197 26.568 32.492 26.801 32.73L28.114 34.068C27.816 34.667 27.564 35.286 27.359 35.92L25.928 35.945C25.706 35.945 25.334 35.945 24.964 36.078 24.318 36.309 23.931 36.855 23.931 37.537L23.931 41.08 13 35.393 13 20.548 23.537 13.843C23.826 13.66 24 13.341 24 13L24 1.00003C24 0.641026 23.808 0.309026 23.496 0.131026 23.184-0.045974 22.802-0.043974 22.492 0.139026L0.492 13.139C0.187 13.318 0 13.646 0 14L0 42C0 42.369 0.204 42.709 0.531 42.882L24.984 55.882C25.131 55.96 25.292 56 25.453 56 25.619 56 25.786 55.958 25.937 55.875L30.472 53.372C31.062 53.657 31.782 53.581 32.283 53.107L33.718 51.748C34.349 52.053 35.001 52.311 35.67 52.519L35.67 54.324C35.67 55.217 36.397 55.943 37.289 55.943L42.573 55.943C43.465 55.943 44.192 55.217 44.192 54.324L44.192 52.507C44.801 52.306 45.397 52.059 45.972 51.768L47.258 53.054C47.868 53.665 48.934 53.667 49.548 53.054L53.04 49.562C53.347 49.255 53.516 48.849 53.516 48.416 53.516 47.983 53.347 47.576 53.041 47.271L51.755 45.984C52.046 45.409 52.293 44.814 52.494 44.204L54.312 44.204C55.204 44.204 55.931 43.478 55.931 42.585L55.931 37.301C55.931 36.409 55.204 35.683 54.312 35.683L54.312 35.683Z" id="Fill-1"/></g></g></svg>