<svg width="80" height="80" viewBox="0 0 80 80" xmlns="http://www.w3.org/2000/svg" xmlns:xlink="http://www.w3.org/1999/xlink" overflow="hidden"><g id="Icon-Architecture/64/Arch_Amazon-Lookout-for-Metrics_64" stroke="none" stroke-width="1" fill="none" fill-rule="evenodd"><g id="Icon-Architecture-BG/64/Machine-Learning" fill="#01A88D"><rect x="0" y="0" width="80" height="80" id="Rectangle"/></g><g id="Icon-Service/64/Amazon-Lookout-for-Metrics_64" fill="#FFFFFF" transform="translate(12 12)"><path d="M56 54 56 56 1 56C0.447 56 0 55.552 0 55L0 0 2 0 2 54 56 54ZM4.852 51.524 3.148 50.476 11.148 37.476C11.512 36.884 12.488 36.884 12.852 37.476L19.444 48.188 24.977 14.153C25.054 13.68 25.457 13.328 25.937 13.314 25.946 13.314 25.955 13.314 25.964 13.314 26.433 13.314 26.84 13.64 26.94 14.1L34.586 49 40.293 43.293C40.501 43.085 40.791 42.981 41.082 43.003 41.375 43.028 41.643 43.18 41.813 43.419L46.128 49.458 49.293 46.293 50.707 47.707 46.707 51.707C46.499 51.915 46.206 52.023 45.918 51.997 45.625 51.972 45.357 51.82 45.187 51.581L40.872 45.542 34.707 51.707C34.448 51.965 34.068 52.063 33.719 51.959 33.368 51.857 33.102 51.571 33.023 51.214L26.109 19.651 20.987 51.161C20.92 51.573 20.604 51.9 20.194 51.981 20.129 51.994 20.064 52 20 52 19.657 52 19.333 51.824 19.148 51.524L12 39.908 4.852 51.524ZM36.929 17.689C36.185 11.362 30.631 6.987 24.316 7.734 21.248 8.095 18.536 9.589 16.679 11.941 14.822 14.293 13.999 17.278 14.36 20.346 14.804 24.111 16.918 27.276 20.16 29.032L19.209 30.791C15.386 28.722 12.895 25 12.374 20.58 11.95 16.981 12.922 13.473 15.109 10.702 17.297 7.931 20.483 6.171 24.082 5.748 31.514 4.876 38.04 10.014 38.915 17.456 39.532 22.702 37.177 27.651 32.769 30.371L31.718 28.668C35.458 26.362 37.454 22.155 36.929 17.689L36.929 17.689ZM53.366 37.43C54.378 38.228 54.058 39.722 53.219 40.785 52.415 41.803 51.068 42.517 50.019 41.688L38.287 32.205C39.507 31.03 40.547 29.692 41.393 28.239L53.366 37.43ZM17.323 35.298 18.231 33.516C13.401 31.053 10.136 26.344 9.497 20.918 8.449 12.015 14.84 3.918 23.744 2.871 32.647 1.819 40.742 8.214 41.791 17.117 42.586 23.871 39.072 30.46 33.047 33.513L33.951 35.297C34.947 34.792 35.874 34.192 36.741 33.527L48.771 43.251C49.453 43.79 50.24 44.051 51.047 44.051 52.369 44.051 53.742 43.35 54.789 42.024 56.458 39.909 56.379 37.259 54.595 35.851L42.328 26.435C43.628 23.499 44.169 20.209 43.777 16.884 42.601 6.884 33.502-0.29 23.51 0.884 13.511 2.061 6.334 11.153 7.511 21.152 8.228 27.243 11.896 32.531 17.323 35.298L17.323 35.298Z" id="Fill-3"/></g></g></svg>