<svg width="80" height="80" viewBox="0 0 80 80" xmlns="http://www.w3.org/2000/svg" xmlns:xlink="http://www.w3.org/1999/xlink" overflow="hidden"><g id="Icon-Architecture/64/Arch_AWS-IoT-ExpressLink_64" stroke="none" stroke-width="1" fill="none" fill-rule="evenodd"><g id="Icon-Architecture-BG/64/Internet-of-Things" fill="#7AA116"><rect x="0" y="0" width="80" height="80" id="Rectangle"/></g><g id="Icon-Service/64/AWS-IoT-ExpressLink_64" fill="#FFFFFF" transform="translate(12 11.95)"><path d="M50.91 16.3294C49.572 15.5114 48.013 14.8724 46.527 14.5274 46.097 11.1584 44.247 8.68543 41.492 7.85043 39.385 7.21143 37.156 7.67343 35.47 9.02743 34.603 7.17443 33.47 5.57343 32.088 4.25443 27.645 0.0114285 21.567-1.13957 15.833 1.17043 10.919 3.15143 7.213 8.63343 7.213 13.9214 7.213 14.2084 7.222 14.4964 7.239 14.7844 4.552 15.6344 0 18.0294 0 24.4874 0 30.3384 2.721 32.8424 4.343 33.8144 5.746 34.6554 7.277 35.0644 9.024 35.0644L11.058 35.0644 11.058 33.0644 9.024 33.0644C7.193 33.0644 6.062 32.5134 5.37 32.0984 3.833 31.1774 2 29.1094 2 24.4874 2 18.9574 6.047 17.1144 8.498 16.5054 8.965 16.4174 9.312 16.0074 9.312 15.5214 9.312 15.4714 9.308 15.4214 9.302 15.3714 9.242 14.8924 9.213 14.4044 9.213 13.9214 9.213 9.47743 12.449 4.69043 16.581 3.02443 21.565 1.01643 26.848 2.01543 30.707 5.70143 32.209 7.13543 33.381 8.96643 34.188 11.1434 34.314 11.4834 34.615 11.7294 34.974 11.7844 35.339 11.8394 35.693 11.6954 35.916 11.4094 37.123 9.85543 39.084 9.20943 40.912 9.76443 42.99 10.3944 44.358 12.4274 44.589 15.2134 44.51 15.7524 44.877 16.2564 45.417 16.3454 46.88 16.5844 48.502 17.2004 49.865 18.0354 53.594 20.3164 54.024 22.6874 54.024 24.2714 54.024 32.7894 46.333 33.0574 46.024 33.0644L44.024 33.0644 44.024 35.0644 46.041 35.0644C46.14 35.0624 56.024 34.7784 56.024 24.2714 56.024 21.0344 54.351 18.4354 50.91 16.3294L50.91 16.3294ZM39.024 21.9064C39.024 20.8914 38.198 20.0644 37.182 20.0644L36.024 20.0644 36.024 17.0644 34.024 17.0644 34.024 20.0644 31.024 20.0644 31.024 17.0644 29.024 17.0644 29.024 20.0644 26.024 20.0644 26.024 17.0644 24.024 17.0644 24.024 20.0644 21.024 20.0644 21.024 17.0644 19.024 17.0644 19.024 20.0644 17.868 20.0644C16.851 20.0644 16.024 20.8914 16.024 21.9074L16.024 23.0644 13.024 23.0644 13.024 25.0644 16.024 25.0644 16.024 28.0644 13.024 28.0644 13.024 30.0644 16.024 30.0644 16.024 33.0644 13.024 33.0644 13.024 35.0644 16.024 35.0644 16.024 38.0644 13.024 38.0644 13.024 40.0644 16.024 40.0644 16.024 41.2224C16.024 42.2374 16.85 43.0644 17.866 43.0644L21.024 43.0644 21.024 41.0644 18.024 41.0644 18.024 40.0644 18.024 38.0644 18.024 35.0644 18.024 33.0644 18.024 30.0644 18.024 28.0644 18.024 25.0644 18.024 23.0644 18.024 22.0644 37.024 22.0644 37.024 41.0644 29.024 41.0644 29.024 43.0644 37.181 43.0644C38.197 43.0644 39.024 42.2374 39.024 41.2214L39.024 40.0644 42.024 40.0644 42.024 38.0644 39.024 38.0644 39.024 35.0644 42.024 35.0644 42.024 33.0644 39.024 33.0644 39.024 30.0644 42.024 30.0644 42.024 28.0644 39.024 28.0644 39.024 25.0644 42.024 25.0644 42.024 23.0644 39.024 23.0644 39.024 21.9064ZM34.024 51.0644 36.024 51.0644 36.024 44.0644 34.024 44.0644 34.024 51.0644ZM29.024 55.0644 31.024 55.0644 31.024 47.0644 29.024 47.0644 29.024 55.0644ZM24.024 52.0644 26.024 52.0644 26.024 38.0644 24.024 38.0644 24.024 52.0644ZM19.024 56.0644 21.024 56.0644 21.024 46.0644 19.024 46.0644 19.024 56.0644Z" id="Fill-8"/></g></g></svg>