<svg width="48" height="48" viewBox="0 0 48 48" xmlns="http://www.w3.org/2000/svg" xmlns:xlink="http://www.w3.org/1999/xlink" overflow="hidden"><g id="Icon-Resource/Application-Integration/Res_Amazon-EventBridge_Rule_48" stroke="none" stroke-width="1" fill="none" fill-rule="evenodd"><path d="M23.8532 36.592 24.6372 42.78 22.6522 43.032 21.8692 36.844 23.8532 36.592ZM15.2952 35.437 17.1352 36.223 14.6792 41.978 12.8402 41.193 15.2952 35.437ZM29.8692 33.593 33.6802 38.556 32.0952 39.774 28.2832 34.812 29.8692 33.593ZM10.3182 30.977 11.5192 32.576 6.4842 36.357 5.2832 34.758 10.3182 30.977ZM25.7212 15.768C26.0782 15.768 26.4082 15.958 26.5872 16.268L28.0962 18.884 26.3642 19.884 25.1432 17.768 17.4542 17.768 13.6092 24.427 17.4542 31.086 25.1432 31.086 27.1422 27.623 28.8752 28.623 26.5872 32.586C26.4082 32.895 26.0782 33.086 25.7212 33.086L16.8772 33.086C16.5192 33.086 16.1892 32.895 16.0112 32.586L11.5892 24.927C11.4102 24.617 11.4102 24.236 11.5892 23.927L16.0112 16.268C16.1892 15.958 16.5192 15.768 16.8772 15.768L25.7212 15.768ZM39.6072 17.275 45.5412 23.209C45.9312 23.6 45.9312 24.232 45.5412 24.623L39.6072 30.557 38.1932 29.143 42.4202 24.916 20.7122 24.916 20.7122 22.916 42.4202 22.916 38.1932 18.689 39.6072 17.275ZM8.2662 24.651 8.5182 26.636 2.2522 27.429 2.0002 25.444 8.2662 24.651ZM3.8772 15.743 9.6942 18.151 8.9292 19.999 3.1112 17.591 3.8772 15.743ZM36.0222 11.675 37.2232 13.274 32.1882 17.056 30.9872 15.456 36.0222 11.675ZM10.4132 8.258 14.2242 13.221 12.6382 14.439 8.8272 9.477 10.4132 8.258ZM27.8272 6.054 29.6672 6.839 27.2122 12.595 25.3722 11.81 27.8272 6.054ZM19.8552 5 20.6382 11.188 18.6542 11.44 17.8712 5.252 19.8552 5Z" id="Amazon-EventBridge-Rule" fill="#E7157B"/></g></svg>