<svg width="48" height="48" viewBox="0 0 48 48" xmlns="http://www.w3.org/2000/svg" xmlns:xlink="http://www.w3.org/1999/xlink" overflow="hidden"><g id="Icon-Resource/IoT/Res_AWS-IoT_Over-Air-Update_48" stroke="none" stroke-width="1" fill="none" fill-rule="evenodd"><path d="M18.1091 38.1885 20.3961 38.1885 20.3961 36.1885 14.8481 36.1885 14.8481 41.6995 16.8481 41.6995 16.8481 39.7385C18.5551 41.1515 20.7111 41.9525 22.9501 41.9525 28.2251 41.9525 32.5161 37.6615 32.5161 32.3865L30.5161 32.3865C30.5161 36.5575 27.1221 39.9525 22.9501 39.9525 21.1731 39.9525 19.4611 39.3145 18.1091 38.1885ZM25.6081 28.5285 31.1561 28.5285 31.1561 23.0175 29.1561 23.0175 29.1561 25.1195C27.4341 23.6505 25.2351 22.8195 22.9501 22.8195 17.6751 22.8195 13.3841 27.1105 13.3841 32.3865L15.3841 32.3865C15.3841 28.2145 18.7781 24.8195 22.9501 24.8195 24.6981 24.8195 26.3801 25.4375 27.7211 26.5285L25.6081 26.5285 25.6081 28.5285ZM43.6101 33.4125C41.1641 35.8415 37.7191 35.8905 37.4451 35.8905L37.4331 35.8905 35.1561 35.8895 35.1581 33.8895 37.4411 33.8905C37.4671 33.8905 39.1641 33.8815 40.8031 33.0125 42.9001 31.8995 43.9651 29.8945 43.9651 27.0525 43.9651 25.7925 43.6381 23.9065 40.8211 22.0905 39.3541 21.1425 37.9801 20.8315 37.4581 20.7415 36.9301 20.6505 36.5701 20.1625 36.6361 19.6345 36.4751 17.5305 35.8281 16.1605 34.7111 15.5625 33.3231 14.8185 31.4421 15.2185 30.4291 16.4665L30.3131 16.6145C30.0961 16.9115 29.7371 17.0665 29.3671 17.0115 29.0041 16.9595 28.6971 16.7115 28.5701 16.3665L28.4321 15.9925C27.8231 14.3975 26.9711 13.0385 25.9031 11.9635 24.4981 10.5505 20.6451 7.5065 15.2031 9.8215 12.0621 11.1555 9.6021 15.0035 9.6021 18.5805 9.6021 18.9805 9.6261 19.3815 9.6741 19.7725 9.7351 20.2815 9.4001 20.7555 8.8991 20.8675 8.8861 20.8705 8.8711 20.8735 8.8561 20.8765 7.0091 21.3685 4.0001 22.8455 4.0001 27.2285 4.0001 30.5695 5.8051 32.4115 7.3211 33.3675 7.8311 33.6895 8.4191 33.8605 9.0201 33.8615L11.6211 33.8635 11.6191 35.8635 9.0181 35.8615C8.0381 35.8605 7.0821 35.5825 6.2531 35.0585 4.6651 34.0565 2.0001 31.7055 2.0001 27.2285 2.0001 21.9585 5.4621 19.9235 7.6171 19.1675 7.6071 18.9725 7.6021 18.7755 7.6021 18.5805 7.6021 14.1895 10.5341 9.6325 14.4211 7.9805 18.9781 6.0465 23.8001 7.0095 27.3211 10.5535 28.3481 11.5875 29.2031 12.8315 29.8701 14.2625 31.5331 13.0455 33.8221 12.8195 35.6551 13.7995 36.8041 14.4145 38.2021 15.8045 38.5761 18.9395 39.7121 19.2365 40.8891 19.7535 41.9051 20.4095 44.6371 22.1705 45.9651 24.3445 45.9651 27.0525 45.9651 29.7215 45.1731 31.8615 43.6101 33.4125Z" id="Amazon-IOT-RESOURCES-Over-the-air-update_Resource-Icon_light-bg" fill="#7AA116"/></g></svg>