<svg width="80" height="80" viewBox="0 0 80 80" xmlns="http://www.w3.org/2000/svg" xmlns:xlink="http://www.w3.org/1999/xlink" overflow="hidden"><g id="Icon-Architecture/64/Arch_Amazon-Bedrock_64" stroke="none" stroke-width="1" fill="none" fill-rule="evenodd"><g id="Icon-Architecture-BG/64/Machine-Learning" fill="#01A88D"><rect x="0" y="0" width="80" height="80" id="Rectangle"/></g><g id="Icon-Service/64/Amazon-Bedrock_64" fill="#FFFFFF" transform="translate(12 12)"><path d="M52 26.9999C50.897 26.9999 50 26.1029 50 24.9999 50 23.8969 50.897 22.9999 52 22.9999 53.103 22.9999 54 23.8969 54 24.9999 54 26.1029 53.103 26.9999 52 26.9999L52 26.9999ZM20.113 53.9079 16.865 52.0139 23.53 47.8479 22.47 46.1519 14.913 50.8749 9 47.4259 9 38.5349 14.555 34.8319 13.445 33.1679 7.959 36.8249 2 33.4199 2 28.5799 8.496 24.8679 7.504 23.1319 2 26.2769 2 22.5799 8 19.1519 14 22.5799 14 26.4339 9.485 29.1429 10.515 30.8569 15 28.1659 19.485 30.8569 20.515 29.1429 16 26.4339 16 22.5349 21.555 18.8319C21.833 18.6459 22 18.3339 22 17.9999L22 10.9999 20 10.9999 20 17.4649 14.959 20.8249 9 17.4199 9 8.57389 14 5.65789 14 13.9999 16 13.9999 16 4.49089 20.113 2.09189 28 4.72089 28 33.4339 13.485 42.1429 14.515 43.8569 28 35.7659 28 51.2789 20.113 53.9079ZM50 37.9999C50 39.1029 49.103 39.9999 48 39.9999 46.897 39.9999 46 39.1029 46 37.9999 46 36.8969 46.897 35.9999 48 35.9999 49.103 35.9999 50 36.8969 50 37.9999L50 37.9999ZM40 47.9999C40 49.1029 39.103 49.9999 38 49.9999 36.897 49.9999 36 49.1029 36 47.9999 36 46.8969 36.897 45.9999 38 45.9999 39.103 45.9999 40 46.8969 40 47.9999L40 47.9999ZM39 7.99989C39 6.89689 39.897 5.99989 41 5.99989 42.103 5.99989 43 6.89689 43 7.99989 43 9.10289 42.103 9.99989 41 9.99989 39.897 9.99989 39 9.10289 39 7.99989L39 7.99989ZM52 20.9999C50.141 20.9999 48.589 22.2799 48.142 23.9999L30 23.9999 30 18.9999 41 18.9999C41.553 18.9999 42 18.5519 42 17.9999L42 11.8579C43.72 11.4109 45 9.85789 45 7.99989 45 5.79389 43.206 3.99989 41 3.99989 38.794 3.99989 37 5.79389 37 7.99989 37 9.85789 38.28 11.4109 40 11.8579L40 16.9999 30 16.9999 30 3.99989C30 3.56889 29.725 3.18789 29.316 3.05089L20.316 0.0508918C20.042-0.0391082 19.744-0.00910819 19.496 0.135892L7.496 7.13589C7.188 7.31489 7 7.64489 7 7.99989L7 17.4199 0.504 21.1319C0.192 21.3099 0 21.6409 0 21.9999L0 33.9999C0 34.3589 0.192 34.6899 0.504 34.8679L7 38.5799 7 47.9999C7 48.3549 7.188 48.6849 7.496 48.8639L19.496 55.8639C19.65 55.9539 19.825 55.9999 20 55.9999 20.106 55.9999 20.213 55.9829 20.316 55.9489L29.316 52.9489C29.725 52.8119 30 52.4309 30 51.9999L30 39.9999 37 39.9999 37 44.1419C35.28 44.5889 34 46.1419 34 47.9999 34 50.2059 35.794 51.9999 38 51.9999 40.206 51.9999 42 50.2059 42 47.9999 42 46.1419 40.72 44.5889 39 44.1419L39 38.9999C39 38.4479 38.553 37.9999 38 37.9999L30 37.9999 30 32.9999 42.5 32.9999 44.638 35.8499C44.239 36.4719 44 37.2069 44 37.9999 44 40.2059 45.794 41.9999 48 41.9999 50.206 41.9999 52 40.2059 52 37.9999 52 35.7939 50.206 33.9999 48 33.9999 47.316 33.9999 46.682 34.1879 46.119 34.4919L43.8 31.3999C43.611 31.1479 43.314 30.9999 43 30.9999L30 30.9999 30 25.9999 48.142 25.9999C48.589 27.7199 50.141 28.9999 52 28.9999 54.206 28.9999 56 27.2059 56 24.9999 56 22.7939 54.206 20.9999 52 20.9999L52 20.9999Z" id="Fill-1"/></g></g></svg>