<svg width="80" height="80" viewBox="0 0 80 80" xmlns="http://www.w3.org/2000/svg" xmlns:xlink="http://www.w3.org/1999/xlink" overflow="hidden"><g id="Icon-Architecture/64/Arch_Amazon-SageMaker-Studio-Lab_64" stroke="none" stroke-width="1" fill="none" fill-rule="evenodd"><g id="Icon-Architecture-BG/64/Machine-Learning" fill="#01A88D"><rect x="0" y="0" width="80" height="80" id="Rectangle"/></g><g id="Icon-Service/64/Amazon-SageMaker-Studio-Lab_64" fill="#FFFFFF" transform="translate(12 11.9)"><path d="M34.909 43.1456 54 43.1456 54 13.1456 34.909 13.1456 34.909 43.1456ZM29 43.1456 33 43.1456 33 13.1456 29 13.1456 29 18.1456 31 18.1456 31 20.1456 29 20.1456 29 27.1456 31 27.1456 31 29.1456 29 29.1456 29 36.1456 31 36.1456 31 38.1456 29 38.1456 29 43.1456ZM56 12.1456 56 44.1456C56 44.6976 55.553 45.1456 55 45.1456L28 45.1456C27.447 45.1456 27 44.6976 27 44.1456L27 38.1456 25 38.1456 25 36.1456 27 36.1456 27 29.1456 25 29.1456 25 27.1456 27 27.1456 27 20.1456 25 20.1456 25 18.1456 27 18.1456 27 12.1456C27 11.5936 27.447 11.1456 28 11.1456L55 11.1456C55.553 11.1456 56 11.5936 56 12.1456L56 12.1456ZM27 47.2366 29 47.2366 29 50.2616C29 50.6236 28.804 50.9576 28.487 51.1346L21.359 55.1176C21.208 55.2026 21.04 55.2446 20.872 55.2446 20.7 55.2446 20.528 55.2006 20.374 55.1116L6.502 47.1456C6.191 46.9676 6 46.6366 6 46.2786L6 37.7956 0.54 34.9636C0.208 34.7916 0 34.4496 0 34.0766L0 21.1456C0 20.7926 0.186 20.4656 0.49 20.2856L6 17.0196 6 8.03662C6 7.67062 6.201 7.33262 6.523 7.15862L19.495 0.120623C19.784-0.0343767 20.132-0.0413767 20.423 0.107623L28.45 4.17162C28.787 4.34162 28.999 4.68662 28.999 5.06262L29 9.05462 27 9.05462 27 5.67862 19.987 2.12862 18 3.20762 18 12.1456 16 12.1456 16 4.29262 8 8.63262 8 15.5886 14.987 19.9176 20 16.5586 20 11.1456 22 11.1456 22 17.0926C22 17.4256 21.834 17.7376 21.557 17.9226L16 21.6466 16 26.1456 21 26.1456 21 28.1456 15.303 28.1456 9.555 31.9776 8.445 30.3136 14 26.6106 14 21.6586 7.947 17.9086C7.872 18.1326 7.719 18.3256 7.51 18.4496L2 21.7156 2 26.4586 8.354 22.2226 9.464 23.8866 2 28.8626 2 33.4686 7.207 36.1686 12.407 32.3406 13.593 33.9506 8 38.0686 8 45.6996 14.584 49.4806 14.47 49.2976 17 47.7156 17 37.1456 19 37.1456 19 46.4656 22.47 44.2976 23.53 45.9936 16.339 50.4886 20.879 53.0956 27 49.6746 27 47.2366Z" id="Fill-4"/></g></g></svg>