<svg width="80" height="80" viewBox="0 0 80 80" xmlns="http://www.w3.org/2000/svg" xmlns:xlink="http://www.w3.org/1999/xlink" overflow="hidden"><g id="Icon-Architecture/64/Arch_AWS-Direct-Connect_64" stroke="none" stroke-width="1" fill="none" fill-rule="evenodd"><g id="Icon-Architecture-BG/64/Networking-Content-Delivery" fill="#8C4FFF"><rect x="0" y="0" width="80" height="80" id="Rectangle"/></g><path d="M29.9704 60.6604 47.8307 60.6604 47.8307 54.7873C47.8307 54.2701 47.2645 53.834 46.5942 53.834L31.2059 53.834C30.5356 53.834 29.9704 54.2701 29.9704 54.7873L29.9704 60.6604ZM53.1419 63.9946 53.1419 67.6749 53.1419 68 51.1411 68 51.1411 67.6749 51.1411 63.9946C51.1411 63.2093 50.6839 62.6611 50.2737 62.6611L27.5274 62.6611C27.1162 62.6611 26.66 63.2093 26.66 63.9946L26.66 67.6749 26.66 68 24.6592 68 24.6592 67.6749 24.6592 63.9946C24.6592 62.1569 25.9467 60.6604 27.5274 60.6604L27.9696 60.6604 27.9696 54.7873C27.9696 53.1587 29.4212 51.8333 31.2059 51.8333L46.5942 51.8333C48.3789 51.8333 49.8315 53.1587 49.8315 54.7873L49.8315 60.6604 50.2737 60.6604C51.8554 60.6604 53.1419 62.1569 53.1419 63.9946L53.1419 63.9946ZM45.5208 38.5936C46.7943 38.5936 47.8307 37.5572 47.8307 36.2838 47.8307 35.0103 46.7943 33.9739 45.5208 33.9739 44.2472 33.9739 43.2108 35.0103 43.2108 36.2838 43.2108 37.5572 44.2472 38.5936 45.5208 38.5936L45.5208 38.5936ZM44.5204 50.6278 44.5204 40.4652C42.6256 40.0111 41.21 38.3155 41.21 36.2838 41.21 33.9069 43.1438 31.9732 45.5208 31.9732 47.8977 31.9732 49.8315 33.9069 49.8315 36.2838 49.8315 38.3155 48.415 40.0111 46.5212 40.4652L46.5212 50.6278 44.5204 50.6278ZM41.138 28.561C41.138 27.2866 40.1025 26.2512 38.828 26.2512 37.5545 26.2512 36.5191 27.2866 36.5191 28.561 36.5191 29.8345 37.5545 30.8698 38.828 30.8698 40.1025 30.8698 41.138 29.8345 41.138 28.561L41.138 28.561ZM43.1388 28.561C43.1388 30.5657 41.7572 32.2393 39.9015 32.7195L39.9015 50.6278 37.9006 50.6278 37.9006 32.7645C35.9688 32.3384 34.5182 30.6177 34.5182 28.561 34.5182 26.1842 36.452 24.2505 38.828 24.2505 41.205 24.2505 43.1388 26.1842 43.1388 28.561L43.1388 28.561ZM32.2803 33.9739C31.0058 33.9739 29.9704 35.0103 29.9704 36.2838 29.9704 37.5572 31.0058 38.5936 32.2803 38.5936 33.5539 38.5936 34.5893 37.5572 34.5893 36.2838 34.5893 35.0103 33.5539 33.9739 32.2803 33.9739L32.2803 33.9739ZM32.2803 31.9732C34.6573 31.9732 36.5901 33.9069 36.5901 36.2838 36.5901 38.3155 35.1735 40.0111 33.2807 40.4652L33.2807 50.6278 31.2799 50.6278 31.2799 40.4652C29.3861 40.0111 27.9696 38.3155 27.9696 36.2838 27.9696 33.9069 29.9034 31.9732 32.2803 31.9732L32.2803 31.9732ZM68 37.3661C68 45.0189 62.1906 47.7458 56.7534 47.7458L48.9372 47.7458 48.9372 45.7451 56.7534 45.7451C58.9223 45.7451 65.9992 45.1409 65.9992 37.3661 65.9992 31.7401 61.5924 29.6754 57.8969 28.9341 57.4507 28.8441 57.1215 28.466 57.0945 28.0118 56.8324 23.5722 54.2383 21.9977 52.0965 21.9977 50.6479 21.9977 49.2893 22.6879 48.3699 23.8934 48.1488 24.1835 47.7857 24.3265 47.4245 24.2745 47.0644 24.2205 46.7613 23.9734 46.6352 23.6313 46.001 21.9067 44.8755 19.4948 43.1168 17.7922 39.2352 14.0189 33.924 12.9945 28.9039 15.0512 24.8073 16.7288 21.4739 21.8556 21.4739 26.4793 21.4739 26.9885 21.5049 27.4996 21.5669 27.9978 21.629 28.501 21.3048 28.9722 20.8116 29.0922 18.7638 29.5924 14.0008 31.394 14.0008 37.2881 14.0008 37.4932 14.0118 37.6993 14.0228 37.9053 14.2649 42.2269 18.3316 45.7451 23.0866 45.7451L28.8369 45.7451 28.8369 47.7458 23.0866 47.7458C17.2882 47.7458 12.3251 43.3803 12.025 38.0144 12.011 37.7693 12 37.5282 12 37.2881 12 32.4924 14.7851 28.8421 19.5011 27.3796 19.4831 27.0805 19.4731 26.7794 19.4731 26.4793 19.4731 21.6976 22.7164 15.4224 28.1456 13.1996 33.924 10.8317 40.0425 12.0131 44.5094 16.3557 46.067 17.8622 47.1754 19.8029 47.9258 21.4915 49.1072 20.5282 50.5638 19.997 52.0965 19.997 55.1907 19.997 58.4431 22.2108 59.0253 27.1335 64.8207 28.525 68 32.1373 68 37.3661L68 37.3661Z" id="AWS-Direct-Connect_Icon_64_Squid" fill="#FFFFFF"/></g></svg>