<svg width="48" height="48" viewBox="0 0 48 48" xmlns="http://www.w3.org/2000/svg" xmlns:xlink="http://www.w3.org/1999/xlink" overflow="hidden"><g id="Icon-Resource/Management-Governance/Res_AWS-Systems-Manager_Compliance_48" stroke="none" stroke-width="1" fill="none" fill-rule="evenodd"><path d="M11 37 26 37 26 39 10 39C9.447 39 9 38.552 9 38L9 15C9 14.448 9.447 14 10 14L30 14C30.553 14 31 14.448 31 15L31 21 29 21 29 16 11 16 11 37ZM13.502 6 17.184 6C17.598 7.161 18.698 8 20 8 21.302 8 22.402 7.161 22.816 6L26.615 6 27.74 10 12.377 10 13.502 6ZM20 4C20.552 4 21 4.449 21 5 21 5.551 20.552 6 20 6 19.448 6 19 5.551 19 5 19 4.449 19.448 4 20 4L20 4ZM11.057 12 29.061 12C29.374 12 29.669 11.854 29.857 11.604 30.047 11.354 30.108 11.031 30.023 10.729L28.336 4.729C28.215 4.298 27.821 4 27.373 4L22.816 4C22.402 2.839 21.302 2 20 2 18.698 2 17.598 2.839 17.184 4L12.744 4C12.296 4 11.902 4.298 11.781 4.729L10.094 10.729C10.009 11.031 10.07 11.354 10.26 11.604 10.448 11.854 10.743 12 11.057 12L11.057 12ZM32.353 8 31 8 31 6 32.353 6C33.812 6 35 7.275 35 8.842L35 20 33 20 33 8.842C33 8.386 32.703 8 32.353 8L32.353 8ZM7.647 41 25 41 25 43 7.647 43C6.187 43 5 41.725 5 40.158L5 8.842C5 7.275 6.187 6 7.647 6L9 6 9 8 7.647 8C7.297 8 7 8.386 7 8.842L7 40.158C7 40.614 7.297 41 7.647 41L7.647 41ZM39.471 31.096C39.326 31.296 39.26 31.542 39.286 31.787L39.426 33.132 38.189 33.683C37.963 33.783 37.782 33.964 37.682 34.19L37.133 35.426 35.787 35.286C35.542 35.26 35.297 35.326 35.097 35.471L34 36.265 32.903 35.471C32.731 35.346 32.526 35.28 32.316 35.28 32.282 35.28 32.247 35.282 32.213 35.286L30.867 35.426 30.317 34.189C30.217 33.964 30.036 33.783 29.81 33.683L28.574 33.132 28.714 31.787C28.74 31.542 28.674 31.296 28.529 31.096L27.735 30 28.529 28.904C28.674 28.704 28.74 28.458 28.714 28.213L28.574 26.868 29.811 26.317C30.037 26.217 30.218 26.036 30.318 25.81L30.867 24.574 32.213 24.714C32.455 24.737 32.703 24.674 32.903 24.529L34 23.735 35.097 24.529C35.297 24.674 35.542 24.737 35.787 24.714L37.133 24.574 37.683 25.811C37.783 26.036 37.964 26.217 38.19 26.317L39.426 26.868 39.286 28.213C39.26 28.458 39.326 28.704 39.471 28.904L40.265 30 39.471 31.096ZM38.316 42.051C37.957 41.932 37.56 42.025 37.293 42.293L36.447 43.139 34.824 38.137 35.96 37.314 37.485 37.474 39.328 42.389 38.316 42.051ZM32.225 42.81 31.707 42.293C31.44 42.025 31.043 41.932 30.684 42.051L29.412 42.475 30.666 37.458 32.04 37.314 32.859 37.908 32.74 37.896 32.225 42.81ZM42.31 29.413 41.314 28.04 41.49 26.353C41.535 25.922 41.298 25.511 40.902 25.335L39.354 24.646 38.665 23.097C38.489 22.703 38.076 22.468 37.647 22.509L35.96 22.686 34.587 21.69C34.237 21.437 33.763 21.437 33.413 21.69L32.04 22.686 30.353 22.509C29.927 22.469 29.512 22.703 29.335 23.098L28.646 24.646 27.098 25.335C26.702 25.511 26.464 25.922 26.51 26.353L26.686 28.04 25.69 29.413C25.437 29.763 25.437 30.237 25.69 30.587L26.686 31.96 26.51 33.647C26.465 34.078 26.702 34.489 27.098 34.665L28.646 35.354 28.956 36.052 27.03 43.757C26.941 44.111 27.053 44.486 27.32 44.734 27.588 44.983 27.972 45.065 28.316 44.949L30.729 44.144 32.293 45.707C32.483 45.898 32.739 46 33 46 33.112 46 33.225 45.981 33.334 45.942 33.697 45.814 33.954 45.488 33.994 45.104L34.236 42.803 35.049 45.309C35.156 45.64 35.428 45.891 35.767 45.972 35.844 45.991 35.922 46 36 46 36.262 46 36.518 45.897 36.707 45.707L38.271 44.144 40.684 44.949C41.051 45.071 41.452 44.971 41.72 44.694 41.987 44.417 42.071 44.01 41.937 43.649L39.067 35.997 39.354 35.354 40.902 34.665C41.298 34.489 41.536 34.078 41.49 33.647L41.314 31.96 42.31 30.587C42.563 30.237 42.563 29.763 42.31 29.413L42.31 29.413Z" id="Fill-1" fill="#E7157B"/></g></svg>