<svg width="48" height="48" viewBox="0 0 48 48" xmlns="http://www.w3.org/2000/svg" xmlns:xlink="http://www.w3.org/1999/xlink" overflow="hidden"><g id="Icon-Resource/Database/Res_Amazon-DynamoDB_Items_48" stroke="none" stroke-width="1" fill="none" fill-rule="evenodd"><path d="M35.375 40.5C34.237 40.5 33.312 39.575 33.312 38.437 33.312 37.3 34.237 36.375 35.375 36.375 36.513 36.375 37.438 37.3 37.438 38.437 37.438 39.575 36.513 40.5 35.375 40.5L35.375 40.5ZM35.375 34.375C33.135 34.375 31.313 36.197 31.313 38.437 31.313 40.678 33.135 42.5 35.375 42.5 37.615 42.5 39.437 40.678 39.437 38.437 39.437 36.197 37.615 34.375 35.375 34.375L35.375 34.375ZM35.375 25.625C34.237 25.625 33.312 24.7 33.312 23.563 33.312 22.425 34.237 21.5 35.375 21.5 36.513 21.5 37.438 22.425 37.438 23.563 37.438 24.7 36.513 25.625 35.375 25.625L35.375 25.625ZM35.375 19.5C33.135 19.5 31.313 21.322 31.313 23.563 31.313 25.803 33.135 27.625 35.375 27.625 37.615 27.625 39.437 25.803 39.437 23.563 39.437 21.322 37.615 19.5 35.375 19.5L35.375 19.5ZM35.375 6.625C36.513 6.625 37.438 7.55 37.438 8.688 37.438 9.825 36.513 10.75 35.375 10.75 34.237 10.75 33.312 9.825 33.312 8.688 33.312 7.55 34.237 6.625 35.375 6.625L35.375 6.625ZM35.375 12.75C37.615 12.75 39.437 10.928 39.437 8.688 39.437 6.447 37.615 4.625 35.375 4.625 33.135 4.625 31.313 6.447 31.313 8.688 31.313 10.928 33.135 12.75 35.375 12.75L35.375 12.75ZM4 43.125 21.25 43.125 21.25 33.75 4 33.75 4 43.125ZM2 45.125 23.25 45.125 23.25 31.75 2 31.75 2 45.125ZM4 28.25 21.25 28.25 21.25 18.875 4 18.875 4 28.25ZM2 30.25 23.25 30.25 23.25 16.875 2 16.875 2 30.25ZM4 13.375 21.25 13.375 21.25 4 4 4 4 13.375ZM2 15.375 23.25 15.375 23.25 2 2 2 2 15.375ZM26.75 43.125 44 43.125 44 33.75 26.75 33.75 26.75 43.125ZM24.75 45.125 46 45.125 46 31.75 24.75 31.75 24.75 45.125ZM26.75 28.25 44 28.25 44 18.875 26.75 18.875 26.75 28.25ZM24.75 30.25 46 30.25 46 16.875 24.75 16.875 24.75 30.25ZM26.75 13.375 44 13.375 44 4 26.75 4 26.75 13.375ZM24.75 15.375 46 15.375 46 2 24.75 2 24.75 15.375Z" id="Amazon-DATABASE_Amazon-DynamoDB_Items_Resource-Icon_light-bg" fill="#C925D1"/></g></svg>