<svg width="48" height="48" viewBox="0 0 48 48" xmlns="http://www.w3.org/2000/svg" xmlns:xlink="http://www.w3.org/1999/xlink" overflow="hidden"><g id="Icon-Resource/Storage/Res_Amazon-Simple-Storage-Service_S3-Select_48" stroke="none" stroke-width="1" fill="none" fill-rule="evenodd"><path d="M38.122 39.521C38.042 39.668 38 39.833 38 40L38 44 35 44 35 40C35 39.833 34.958 39.668 34.878 39.521L29.684 30 43.315 30 38.122 39.521ZM45.86 28.49C45.68 28.186 45.352 28 45 28L28 28C27.647 28 27.32 28.186 27.14 28.49 26.96 28.793 26.953 29.169 27.122 29.479L33 40.255 33 45C33 45.552 33.447 46 34 46L39 46C39.553 46 40 45.552 40 45L40 40.255 45.878 29.479C46.047 29.169 46.04 28.793 45.86 28.49L45.86 28.49ZM19.416 4C28.227 4 34.693 6.751 34.832 8.227L34.809 8.406C34.306 9.879 28.15 11.976 19.416 11.976 10.681 11.976 4.525 9.878 4.026 8.405L4.002 8.226C4.143 6.75 10.607 4 19.416 4L19.416 4ZM37.127 22.16C37.157 22.246 37.163 22.317 37.105 22.432 37.094 22.456 37.03 22.499 36.919 22.536 36.469 22.685 35.78 22.669 34.925 22.53L35.188 20.58C36.012 21.023 36.939 21.618 37.127 22.16L37.127 22.16ZM27.125 37.739C24.894 38.254 22.157 38.539 19.416 38.539 12.107 38.539 7.852 36.701 7.726 35.954 7.726 35.91 7.723 35.865 7.717 35.821L4.413 11.282C7.652 13.055 13.672 13.976 19.416 13.976 25.161 13.976 31.182 13.055 34.421 11.282L32.967 22.082C29.718 21.179 25.349 19.34 21.973 17.729 21.839 16.755 21.01 16 20 16 18.897 16 18 16.897 18 18 18 19.103 18.897 20 20 20 20.456 20 20.872 19.841 21.209 19.583 23.911 20.874 28.768 23.054 32.7 24.067L32.474 25.746 34.456 26.013 34.663 24.477C35.209 24.56 35.731 24.617 36.192 24.617 36.711 24.617 37.17 24.56 37.55 24.433 38.334 24.172 38.714 23.688 38.894 23.327 39.186 22.743 39.228 22.112 39.016 21.502 38.523 20.088 36.748 19.095 35.471 18.476L36.781 8.746 36.78 8.745C36.781 8.744 36.781 8.743 36.781 8.741L36.825 8.403C36.831 8.361 36.834 8.317 36.834 8.274 36.834 4.521 27.828 2 19.416 2 11.005 2 2 4.521 2 8.274 2 8.318 2.003 8.362 2.009 8.406L2.054 8.744C2.054 8.745 2.054 8.745 2.054 8.746L2.054 8.746 5.727 36.032C5.852 39.336 13.955 40.539 19.416 40.539 22.304 40.539 25.202 40.236 27.575 39.688 28.533 39.467 29.393 39.208 30.131 38.916L29.396 37.056C28.751 37.311 27.987 37.54 27.125 37.739L27.125 37.739ZM10.724 24 13 20.016 15.276 24 10.724 24ZM17.865 25.502C18.044 25.194 18.045 24.813 17.868 24.504L13.868 17.504C13.513 16.881 12.487 16.881 12.132 17.504L8.132 24.504C7.955 24.813 7.956 25.194 8.135 25.502 8.314 25.81 8.643 26 9 26L17 26C17.356 26 17.685 25.81 17.865 25.502L17.865 25.502ZM23.194 28.197C23.194 29.57 24.311 30.687 25.684 30.687L25.684 32.687C23.209 32.687 21.194 30.672 21.194 28.197 21.194 25.721 23.209 23.707 25.684 23.707 26.965 23.707 28.188 24.256 29.041 25.215L27.547 26.544C27.073 26.012 26.394 25.707 25.684 25.707 24.311 25.707 23.194 26.824 23.194 28.197L23.194 28.197ZM13 34 17 34 17 30 13 30 13 34ZM12 36 18 36C18.553 36 19 35.552 19 35L19 29C19 28.448 18.553 28 18 28L12 28C11.447 28 11 28.448 11 29L11 35C11 35.552 11.447 36 12 36L12 36Z" id="Fill-1" fill="#7AA116"/></g></svg>