<svg width="80" height="80" viewBox="0 0 80 80" xmlns="http://www.w3.org/2000/svg" xmlns:xlink="http://www.w3.org/1999/xlink" overflow="hidden"><g id="Icon-Architecture/64/Arch_AWS-Personal-Health-Dashboard_64" stroke="none" stroke-width="1" fill="none" fill-rule="evenodd"><g id="Icon-Architecture-BG/64/Management-Governance" fill="#E7157B"><rect x="0" y="0" width="80" height="80" id="Rectangle"/></g><path d="M13 42.9974 15 42.9974 15 40.9976 13 40.9976 13 42.9974ZM47.954 25.701C47.825 25.285 47.44 25 47.003 24.999L47 24.999C46.565 24.999 46.179 25.281 46.047 25.696L39.763 45.4472 33.881 34.5242C33.708 34.2042 33.376 34.0032 33.013 33.9982L33 33.9982C32.642 33.9982 32.31 34.1902 32.132 34.5022L28.42 40.9976 17 40.9976 17 42.9974 29 42.9974C29.359 42.9974 29.691 42.8054 29.868 42.4935L32.974 37.0589 39.119 48.4709C39.295 48.7969 39.635 48.9969 40 48.9969 40.031 48.9969 40.062 48.9959 40.093 48.9929 40.493 48.9559 40.831 48.6829 40.953 48.3009L46.992 29.3246 51.046 42.2965C51.176 42.7134 51.563 42.9974 52 42.9974L67 42.9974 67 40.9976 52.736 40.9976 47.954 25.701ZM40.003 63.3666 25.606 44.7853 24.026 46.0101 39.21 65.6084C39.399 65.8534 39.67 66.0314 40 65.9954 40.308 65.9954 40.599 65.8534 40.788 65.6114L56.081 46.0121 54.505 44.7823 40.003 63.3666ZM14.717 34.0792C13.566 31.9644 13 29.8416 13 27.7088 13 20.1495 19.299 14 27.04 14 33.231 14 38.016 16.7998 40 21.2004 41.985 16.7998 46.77 14 52.96 14 60.702 14 67 20.1495 67 27.7088 67 29.7986 66.451 31.8934 65.367 33.9332 65.049 34.5342 64.665 35.1361 64.195 35.7681L63.314 36.811 60.743 39.6667 59.257 38.3288 62.63 34.5242C62.999 34.0252 63.329 33.5093 63.599 32.9973 64.53 31.2465 65 29.4686 65 27.7088 65 21.2524 59.599 15.9998 52.96 15.9998 47.007 15.9998 41 19.0925 41 25.9989 41 26.5519 40.553 26.9988 40 26.9988 39.448 26.9988 39 26.5519 39 25.9989 39 19.0925 32.993 15.9998 27.04 15.9998 20.402 15.9998 15 21.2524 15 27.7088 15 29.5046 15.485 31.3055 16.439 33.0633L19.843 38.3788 18.158 39.4567 14.717 34.0792Z" id="AWS-Personal-Health-Dashboard_Icon_64_Squid" fill="#FFFFFF"/></g></svg>