<svg width="80" height="80" viewBox="0 0 80 80" xmlns="http://www.w3.org/2000/svg" xmlns:xlink="http://www.w3.org/1999/xlink" overflow="hidden"><g id="Icon-Architecture/64/Arch_Amazon-SageMaker_64" stroke="none" stroke-width="1" fill="none" fill-rule="evenodd"><g id="Icon-Architecture-BG/64/Machine-Learning" fill="#01A88D"><rect x="0" y="0" width="80" height="80" id="Rectangle"/></g><path d="M54.034 26.0336C54.034 26.5936 53.578 27.0496 53.017 27.0496 52.458 27.0496 52.002 26.5936 52.002 26.0336 52.002 25.4736 52.458 25.0176 53.017 25.0176 53.578 25.0176 54.034 25.4736 54.034 26.0336L54.034 26.0336ZM48.002 36.0004C48.002 35.4494 48.45 35.0005 49.002 35.0005 49.554 35.0005 50.002 35.4494 50.002 36.0004 50.002 36.5514 49.554 37.0004 49.002 37.0004 48.45 37.0004 48.002 36.5514 48.002 36.0004L48.002 36.0004ZM48.002 55.0002C48.002 54.4492 48.45 54.0002 49.002 54.0002 49.554 54.0002 50.002 54.4492 50.002 55.0002 50.002 55.5512 49.554 56.0002 49.002 56.0002 48.45 56.0002 48.002 55.5512 48.002 55.0002L48.002 55.0002ZM58.002 42.0004C58.002 42.5513 57.554 43.0003 57.002 43.0003 56.45 43.0003 56.002 42.5513 56.002 42.0004 56.002 41.4494 56.45 41.0004 57.002 41.0004 57.554 41.0004 58.002 41.4494 58.002 42.0004L58.002 42.0004ZM65 45.2723 59.963 42.3824C59.979 42.2564 60.002 42.1314 60.002 42.0004 60.002 40.3464 58.656 39.0004 57.002 39.0004 55.347 39.0004 54.002 40.3464 54.002 42.0004 54.002 43.6543 55.347 45.0003 57.002 45.0003 57.801 45.0003 58.523 44.6813 59.061 44.1713L63.886 46.9393 59.555 49.1053C59.216 49.2753 59.002 49.6213 59.002 50.0002L59.002 58.4411 46.983 65.837 41.003 62.4201 41.003 56.0002 46.186 56.0002C46.6 57.1611 47.7 58.0001 49.002 58.0001 50.656 58.0001 52.002 56.6542 52.002 55.0002 52.002 53.3452 50.656 52.0002 49.002 52.0002 47.7 52.0002 46.6 52.8382 46.186 54.0002L41.003 54.0002 41.003 40.0004C41.003 39.6494 40.818 39.3234 40.517 39.1424L35.516 36.1424 34.487 37.8574 39.003 40.5664 39.003 43.5073 33.002 48.1233 33.002 44.0003C33.002 43.6963 32.864 43.4083 32.627 43.2193L28.002 39.5194 28.002 34.5355 33.556 30.8325C33.835 30.6465 34.002 30.3345 34.002 30.0005L34.002 24.0006 32.002 24.0006 32.002 29.4655 27.013 32.7905 22.002 29.4635 22.002 21.5746 27.002 18.6587 27.002 27.0006 29.002 27.0006 29.002 17.4917 33.005 15.1567 39.001 18.6157 39.002 31.0005C39.002 31.3595 39.194 31.6905 39.506 31.8685L46.042 35.6034C46.024 35.7344 46.002 35.8644 46.002 36.0004 46.002 37.6544 47.347 39.0004 49.002 39.0004 50.656 39.0004 52.002 37.6544 52.002 36.0004 52.002 34.3465 50.656 33.0005 49.002 33.0005 48.208 33.0005 47.49 33.3155 46.953 33.8205L41.002 30.4195 41.001 18.6177 46.964 15.1767 58.002 22.5356 58.002 25.0006 55.851 25.0006C55.429 23.8446 54.318 23.0176 53.017 23.0176 51.354 23.0176 50.002 24.3706 50.002 26.0336 50.002 27.6966 51.354 29.0495 53.017 29.0495 54.343 29.0495 55.471 28.1905 55.875 27.0006L58.002 27.0006 58.002 30.0005C58.002 30.3595 58.194 30.6905 58.506 30.8685L65 34.5805 65 45.2723ZM33.02 65.837 29.867 63.8971 35.583 59.8141 34.421 58.1861 28.018 62.7591 21.002 58.4411 21.002 50.5662 25.516 47.8573 24.487 46.1423 19.958 48.8603 15.002 46.3823 15.001 40.6174 20.449 37.8944 19.555 36.1054 15.001 38.3814 15.002 34.5805 20.963 31.1745 26.002 34.5195 26.002 39.4804 20.449 43.1673 21.555 44.8333 26.958 41.2454 31.002 44.4803 31.002 49.6623 26.392 53.2072 27.611 54.7922 39.003 46.0303 39.003 62.4191 33.02 65.837ZM66.496 33.1325 60.002 29.4205 60.002 22.0006C60.002 21.6656 59.835 21.3536 59.556 21.1686L47.556 13.1687C47.24 12.9588 46.832 12.9448 46.502 13.1347L40.004 16.8847 33.502 13.1347C33.19 12.9548 32.807 12.9548 32.498 13.1367L20.498 20.1367C20.19 20.3157 20.002 20.6446 20.002 21.0006L20.002 29.4205 13.506 33.1325C13.194 33.3095 13.002 33.6415 13.002 34.0005L13.002 34.4175C13.001 34.4385 13 34.4585 13 34.4795L13 45.3633C13 45.3833 13.001 45.4033 13.002 45.4223L13.002 47.0003C13.002 47.3793 13.216 47.7253 13.555 47.8943L19.002 50.6182 19.002 59.0001C19.002 59.3471 19.181 59.6691 19.477 59.8511L32.477 67.851C32.638 67.95 32.82 68 33.002 68 33.173 68 33.344 67.956 33.498 67.868L40.003 64.1521 46.506 67.868C46.821 68.049 47.213 68.042 47.526 67.851L60.526 59.8511C60.822 59.6691 61.002 59.3471 61.002 59.0001L61.002 50.6182 66.447 47.8943C66.786 47.7253 67 47.3793 67 47.0003L67 34.0005C67 33.6415 66.807 33.3105 66.496 33.1325L66.496 33.1325Z" id="Amazon-SageMaker_Icon_64_Squid" fill="#FFFFFF"/></g></svg>