<svg width="80" height="80" viewBox="0 0 80 80" xmlns="http://www.w3.org/2000/svg" xmlns:xlink="http://www.w3.org/1999/xlink" overflow="hidden"><g id="Icon-Architecture/64/Arch_AWS-Control-Tower_64" stroke="none" stroke-width="1" fill="none" fill-rule="evenodd"><g id="Icon-Architecture-BG/64/Management-Governance" fill="#E7157B"><rect x="0" y="0" width="80" height="80" id="Rectangle"/></g><path d="M37.1967 58.8504 35.7782 60.2688 32.9414 57.4309 34.3598 56.0125 37.1967 58.8504ZM23.0093 44.664 25.8482 47.5019 24.4287 48.9203 21.5909 46.0825 23.0093 44.664ZM28.6851 50.3388 31.5219 53.1756 30.1035 54.5941 27.2666 51.7572 28.6851 50.3388ZM53.2459 31.54 50.401 28.7111 51.8154 27.2887 54.6603 30.1175 53.2459 31.54ZM58.9367 37.1987 56.0918 34.3698 57.5062 32.9474 60.3511 35.7762 58.9367 37.1987ZM44.7102 23.0514 46.1246 21.63 48.9695 24.4588 47.5551 25.8813 44.7102 23.0514ZM58.0318 44.7021 59.4463 46.1236 56.6014 48.9534 55.1869 47.531 58.0318 44.7021ZM52.341 50.3608 53.7555 51.7833 50.9106 54.6121 49.4961 53.1897 52.341 50.3608ZM46.6502 56.0195 48.0647 57.442 45.2198 60.2708 43.8053 58.8484 46.6502 56.0195ZM22.1496 37.1967 20.7312 35.7782 23.568 32.9404 24.9865 34.3588 22.1496 37.1967ZM33.4981 25.8482 32.0797 24.4297 34.9185 21.5919 36.337 23.0103 33.4981 25.8482ZM27.8244 31.5219 26.4059 30.1035 29.2428 27.2666 30.6612 28.6851 27.8244 31.5219ZM36.7934 36.7934C37.5588 36.028 38.5058 35.5485 39.4969 35.3569L39.4969 39.4969 35.3569 39.4969C35.5485 38.5058 36.027 37.5598 36.7934 36.7934L36.7934 36.7934ZM44.2066 36.7934C44.973 37.5598 45.4515 38.5058 45.6431 39.4969L41.5031 39.4969 41.5031 35.3569C42.4942 35.5485 43.4412 36.028 44.2066 36.7934L44.2066 36.7934ZM44.2066 44.2066C43.4412 44.973 42.4942 45.4515 41.5031 45.6431L41.5031 41.5031 45.6431 41.5031C45.4515 42.4942 44.973 43.4402 44.2066 44.2066L44.2066 44.2066ZM36.7934 44.2066C36.027 43.4402 35.5485 42.4942 35.3569 41.5031L39.4969 41.5031 39.4969 45.6431C38.5058 45.4515 37.5588 44.973 36.7934 44.2066L36.7934 44.2066ZM31.1778 43.8033 28.8777 41.5031 33.3326 41.5031C33.5422 43.0119 34.2174 44.4674 35.375 45.625 36.5326 46.7826 37.9881 47.4578 39.4969 47.6674L39.4969 52.1223 37.1967 49.8222 35.7782 51.2406 40.5 55.9624 45.2218 51.2406 43.8033 49.8222 41.5031 52.1223 41.5031 47.6674C43.0119 47.4578 44.4684 46.7826 45.625 45.625 46.7826 44.4674 47.4578 43.0119 47.6674 41.5031L52.1223 41.5031 49.8222 43.8033 51.2406 45.2218 55.9624 40.5 51.2406 35.7782 49.8222 37.1967 52.1223 39.4969 47.6674 39.4969C47.4578 37.9881 46.7826 36.5326 45.625 35.375 44.4674 34.2174 43.0119 33.5422 41.5031 33.3336L41.5031 28.8777 43.8033 31.1778 45.2218 29.7594 40.5 25.0376 35.7782 29.7594 37.1967 31.1778 39.4969 28.8777 39.4969 33.3336C37.9881 33.5422 36.5326 34.2174 35.375 35.375 34.2174 36.5326 33.5422 37.9881 33.3326 39.4969L28.8777 39.4969 31.1778 37.1967 29.7594 35.7782 25.0376 40.5 29.7594 45.2218 31.1778 43.8033ZM40.5 65.1631 38.909 63.5722 40.5 61.9812 42.091 63.5722 40.5 65.1631ZM36.0722 63.5722 40.5 68 44.9278 63.5722 40.5 59.1443 36.0722 63.5722ZM15.8369 40.5 17.4278 38.909 19.0188 40.5 17.4278 42.091 15.8369 40.5ZM17.4278 36.0722 13 40.5 17.4278 44.9278 21.8557 40.5 17.4278 36.0722ZM61.9812 40.5 63.5722 38.909 65.1631 40.5 63.5722 42.091 61.9812 40.5ZM63.5722 36.0722 59.1443 40.5 63.5722 44.9278 68 40.5 63.5722 36.0722ZM40.5 15.8369 42.091 17.4278 40.5 19.0188 38.909 17.4278 40.5 15.8369ZM44.9278 17.4278 40.5 13 36.0722 17.4278 40.5 21.8557 44.9278 17.4278Z" id="AWS-Control-Tower_Icon_64_Squid" fill="#FFFFFF"/></g></svg>