<svg width="48" height="48" viewBox="0 0 48 48" xmlns="http://www.w3.org/2000/svg" xmlns:xlink="http://www.w3.org/1999/xlink" overflow="hidden"><g id="Icon-Resource/IoT/Res_AWS-IoT-Device-Defender_IoT-Device-Jobs_48" stroke="none" stroke-width="1" fill="none" fill-rule="evenodd"><path d="M10 17 21 17 21 15 10 15 10 17ZM10 12 27 12 27 10 10 10 10 12ZM30.5 33C28.571 33 27 31.43 27 29.5 27 27.57 28.571 26 30.5 26 32.43 26 34 27.57 34 29.5 34 31.43 32.43 33 30.5 33L30.5 33ZM30.5 24C27.467 24 25 26.467 25 29.5 25 32.533 27.467 35 30.5 35 33.532 35 36 32.533 36 29.5 36 26.467 33.532 24 30.5 24L30.5 24ZM40 30.528 39.315 30.488C38.85 30.465 38.389 30.79 38.282 31.268 38.083 32.15 37.737 32.986 37.252 33.754 36.993 34.168 37.069 34.709 37.432 35.033L37.944 35.49 36.491 36.944 36.038 36.436C35.711 36.07 35.168 35.994 34.756 36.256 33.989 36.74 33.151 37.088 32.268 37.287 31.79 37.395 31.461 37.832 31.489 38.32L31.528 39 29.471 39 29.51 38.318C29.54 37.831 29.209 37.395 28.733 37.286 27.852 37.087 27.014 36.739 26.245 36.254 25.833 35.993 25.29 36.068 24.965 36.434L24.508 36.945 23.055 35.49 23.565 35.036C23.93 34.711 24.006 34.17 23.747 33.756 23.262 32.988 22.915 32.15 22.715 31.268 22.608 30.79 22.161 30.465 21.682 30.488L21 30.527 21 28.472 21.687 28.512C22.149 28.531 22.61 28.211 22.719 27.734 22.92 26.851 23.266 26.015 23.75 25.25 24.012 24.837 23.936 24.295 23.571 23.97L23.055 23.51 24.51 22.055 24.969 22.57C25.295 22.936 25.836 23.01 26.25 22.75 27.014 22.268 27.85 21.922 28.733 21.723 29.209 21.614 29.54 21.178 29.51 20.689L29.471 20 31.528 20 31.489 20.69C31.461 21.178 31.79 21.615 32.266 21.723 33.149 21.923 33.985 22.27 34.75 22.752 35.161 23.012 35.704 22.938 36.03 22.572L36.491 22.055 37.946 23.51 37.43 23.969C37.067 24.294 36.991 24.836 37.25 25.248 37.735 26.014 38.081 26.85 38.282 27.733 38.389 28.211 38.85 28.531 39.313 28.512L40 28.472 40 30.528ZM41.686 26.686C41.487 26.498 41.215 26.404 40.944 26.414L40.008 26.469C39.838 25.935 39.624 25.418 39.368 24.921L40.067 24.297C40.272 24.113 40.393 23.854 40.401 23.579 40.409 23.305 40.301 23.038 40.108 22.844L37.157 19.893C36.961 19.697 36.694 19.589 36.42 19.6 36.145 19.607 35.887 19.729 35.704 19.934L35.077 20.637C34.581 20.38 34.065 20.166 33.532 19.996L33.584 19.057C33.6 18.782 33.502 18.514 33.313 18.313 33.125 18.113 32.862 18 32.586 18L28.413 18C28.137 18 27.875 18.113 27.686 18.313 27.497 18.514 27.399 18.782 27.415 19.057L27.467 19.994C26.936 20.164 26.418 20.378 25.922 20.635L25.297 19.934C25.114 19.729 24.854 19.607 24.579 19.6 24.307 19.592 24.038 19.697 23.844 19.893L20.893 22.844C20.698 23.038 20.592 23.305 20.6 23.579 20.608 23.854 20.729 24.113 20.934 24.297L21.635 24.922C21.377 25.419 21.163 25.936 20.993 26.469L20.057 26.414C19.786 26.402 19.512 26.498 19.313 26.686 19.114 26.875 19 27.139 19 27.413L19 31.587C19 31.861 19.114 32.125 19.313 32.314 19.514 32.503 19.772 32.6 20.057 32.586L20.989 32.532C21.159 33.066 21.372 33.584 21.629 34.082L20.934 34.703C20.729 34.886 20.608 35.146 20.6 35.42 20.592 35.695 20.698 35.962 20.893 36.156L23.844 39.107C24.038 39.303 24.303 39.416 24.579 39.4 24.854 39.393 25.114 39.271 25.297 39.066L25.918 38.37C26.417 38.628 26.934 38.843 27.467 39.014L27.415 39.943C27.399 40.217 27.497 40.486 27.686 40.687 27.875 40.887 28.137 41 28.413 41L32.586 41C32.862 41 33.125 40.887 33.315 40.687 33.502 40.486 33.6 40.217 33.584 39.943L33.532 39.015C34.067 38.845 34.584 38.63 35.084 38.371L35.704 39.066C35.885 39.271 36.145 39.393 36.42 39.4 36.668 39.418 36.961 39.303 37.157 39.107L40.108 36.156C40.301 35.962 40.409 35.695 40.401 35.421 40.393 35.146 40.272 34.887 40.067 34.703L39.368 34.08C39.625 33.583 39.84 33.065 40.01 32.531L40.944 32.586C41.213 32.598 41.487 32.502 41.686 32.314 41.887 32.125 42 31.861 42 31.587L42 27.413C42 27.139 41.887 26.875 41.686 26.686L41.686 26.686ZM32 5.414 36.586 10 32 10 32 5.414ZM38 44 8 44 8 4 30 4 30 11C30 11.553 30.448 12 31 12L38 12 38 17 40 17 40 11 39.991 11C39.991 10.74 39.898 10.484 39.708 10.293L31.708 2.293C31.516 2.102 31.26 2.01 31 2.01L31 2 7 2C6.448 2 6 2.447 6 3L6 45C6 45.553 6.448 46 7 46L39 46C39.553 46 40 45.553 40 45L40 41 38 41 38 44Z" id="AWS-IoT-Device-Defender-RESOURCES-IoT-Device-Jobs_Resource-Icon_light-bg" fill="#7AA116"/></g></svg>