<svg width="80" height="80" viewBox="0 0 80 80" xmlns="http://www.w3.org/2000/svg" xmlns:xlink="http://www.w3.org/1999/xlink" fill="none" overflow="hidden"><g id="Icon-Architecture/64/Arch_AWS-Thinkbox-Sequoia_64"><g id="Icon-Architecture-BG/64/Compute"><rect x="0" y="0" width="80" height="80" id="Rectangle" fill="#ED7100"/></g><g id="Icon-Service/64/AWS-ThinkBox-Sequoia_64"><path d="M30.89 41.8215 33.386 43.2165 32.411 44.9625 29.374 43.2665C27.989 44.5245 26.484 45.7445 24.846 46.9265L40 55.8485 55.155 46.9265C53.515 45.7435 52.008 44.5215 50.621 43.2615L47.571 44.9635 46.596 43.2165 49.106 41.8165C47.833 40.5475 46.683 39.2385 45.654 37.8905L40.5 40.8665C40.346 40.9555 40.173 41.0005 40 41.0005 39.828 41.0005 39.655 40.9555 39.5 40.8665L34.347 37.8905C33.317 39.2405 32.164 40.5505 30.89 41.8215L30.89 41.8215ZM35.525 36.2615 40 38.8455 44.476 36.2615C42.381 33.1625 40.89 29.8595 40 26.3315 39.111 29.8595 37.619 33.1625 35.525 36.2615L35.525 36.2615ZM21.331 37.2575C25.899 33.1435 28.414 28.0945 28.414 23.0405L30.414 23.0405C30.414 26.2985 31.31 29.4275 33.078 32.3425L31.367 33.3795C30.514 31.9725 29.855 30.5155 29.37 29.0225 28.28 32.1465 26.356 35.1345 23.677 37.7915L29.06 40.7995C35.725 34.3165 39 26.8025 39 18.0005 39 17.4475 39.448 17.0005 40 17.0005 40.553 17.0005 41 17.4475 41 18.0005 41 26.8005 44.275 34.3135 50.936 40.7955L56.323 37.7905C53.645 35.1345 51.72 32.1465 50.629 29.0225 50.145 30.5165 49.487 31.9725 48.633 33.3805L46.922 32.3425C48.69 29.4295 49.585 26.2995 49.585 23.0405L51.585 23.0405C51.585 28.0935 54.101 33.1435 58.669 37.2575 58.91 37.4725 59.031 37.7915 58.994 38.1125 58.958 38.4325 58.769 38.7165 58.488 38.8735L52.479 42.2255C54.02 43.5865 55.705 44.9045 57.564 46.1745 57.847 46.3675 58.011 46.6915 57.999 47.0335 57.989 47.3755 57.803 47.6885 57.508 47.8625L40.508 57.8705C40.351 57.9635 40.176 58.0085 40 58.0085 39.825 58.0085 39.65 57.9635 39.493 57.8705L22.493 47.8625C22.198 47.6885 22.012 47.3755 22.001 47.0335 21.99 46.6915 22.154 46.3675 22.437 46.1745 24.294 44.9065 25.978 43.5895 27.518 42.2295L21.512 38.8735C21.231 38.7165 21.042 38.4325 21.006 38.1115 20.971 37.7915 21.091 37.4725 21.331 37.2575L21.331 37.2575ZM54.687 20.2145 49.792 17.3885 48.792 19.1205 53.687 21.9465 54.687 20.2145ZM31.208 19.1205 30.208 17.3885 25.314 20.2145 26.314 21.9465 31.208 19.1205ZM64.53 26.1525 59.114 22.7705 58.055 24.4675 62.084 26.9835 58.486 29.1425 59.515 30.8575 63 28.7665 63 52.2345 59.515 50.1425 58.486 51.8575 61.983 53.9555 40 65.8635 18.018 53.9555 21.515 51.8575 20.486 50.1425 17 52.2345 17 28.7665 20.486 30.8575 21.515 29.1425 17.916 26.9835 21.946 24.4675 20.887 22.7705 15.471 26.1525C15.178 26.3345 15 26.6555 15 27.0005L15 54.0005C15 54.3675 15.202 54.7045 15.524 54.8795L39.524 67.8795C39.672 67.9605 39.836 68.0005 40 68.0005 40.164 68.0005 40.328 67.9605 40.477 67.8795L64.477 54.8795C64.799 54.7045 65 54.3675 65 54.0005L65 27.0005C65 26.6555 64.823 26.3345 64.53 26.1525L64.53 26.1525ZM40 49.1905C40.173 49.1905 40.346 49.1455 40.5 49.0565L44.002 47.0345 43.002 45.3015 40 47.0355 36.998 45.3015 35.998 47.0345 39.5 49.0565C39.655 49.1455 39.828 49.1905 40 49.1905L40 49.1905ZM35.515 16.8575 34.486 15.1425 39.486 12.1425C39.802 11.9525 40.199 11.9525 40.515 12.1425L45.515 15.1425 44.486 16.8575 40 14.1665 35.515 16.8575Z" id="AWS-ThinkBox-Sequoia_64_Squid" fill="#FFFFFF" fill-rule="evenodd" clip-rule="evenodd"/></g></g></svg>