<svg width="48" height="48" viewBox="0 0 48 48" xmlns="http://www.w3.org/2000/svg" xmlns:xlink="http://www.w3.org/1999/xlink" overflow="hidden"><g id="Icon-Resource/Storage/Res_Amazon-Simple-Storage-Service_S3-Glacier-Flexible-Retrieval_48" stroke="none" stroke-width="1" fill="none" fill-rule="evenodd"><path d="M43.165 38.0811 44.861 39.7781 43.447 41.1921 41.256 39.0001 38.084 39.0001 39.722 41.8411 42.616 42.6541 42.075 44.5801 39.807 43.9411 39.185 46.2591 37.253 45.7411 38.019 42.8901 36.411 40.1021 34.829 42.8371 35.571 45.7531 33.634 46.2471 33.052 43.9621 30.733 44.5831 30.216 42.6511 33.067 41.8881 34.738 39.0001 31.621 39.0001 29.364 41.2011 27.968 39.7691 29.656 38.1231 27.959 36.4271 29.373 35.0131 31.361 37.0001 34.62 37.0001 33.095 34.3631 30.204 33.5501 30.745 31.6241 33.015 32.2631 33.637 29.9451 35.568 30.4631 34.802 33.3211 36.411 36.1031 37.991 33.3621 37.25 30.4511 39.187 29.9571 39.769 32.2421 42.087 31.6211 42.604 33.5531 39.747 34.3191 38.202 37.0001 41.409 37.0001 43.456 35.0041 44.852 36.4351 43.165 38.0811ZM22.869 4.0001C33.272 4.0001 40.602 7.2241 40.739 9.0131L40.714 9.2101C40.691 9.2911 40.644 9.3761 40.595 9.4601 40.576 9.4911 40.566 9.5221 40.544 9.5551 40.487 9.6361 40.407 9.7181 40.327 9.8001 40.292 9.8361 40.267 9.8721 40.226 9.9091 40.139 9.9891 40.028 10.0691 39.921 10.1501 39.867 10.1901 39.823 10.2291 39.765 10.2691 39.647 10.3491 39.509 10.4291 39.37 10.5091 39.302 10.5501 39.241 10.5901 39.167 10.6301 39.017 10.7121 38.844 10.7931 38.673 10.8741 38.593 10.9121 38.521 10.9501 38.436 10.9881 38.245 11.0731 38.034 11.1571 37.821 11.2411 37.739 11.2741 37.665 11.3081 37.579 11.3391 37.335 11.4311 37.071 11.5201 36.802 11.6091 36.733 11.6321 36.671 11.6551 36.601 11.6791 36.286 11.7781 35.951 11.8761 35.604 11.9721 35.569 11.9811 35.54 11.9911 35.505 12.0011 32.398 12.8431 28.056 13.4631 22.874 13.4631 14.452 13.4631 8.243 11.8231 5.956 10.2541 5.946 10.2471 5.939 10.2401 5.93 10.2331 5.769 10.1211 5.626 10.0101 5.507 9.8991 5.484 9.8791 5.47 9.8581 5.45 9.8391 5.351 9.7421 5.262 9.6451 5.195 9.5511 5.175 9.5201 5.165 9.4911 5.147 9.4611 5.097 9.3771 5.051 9.2931 5.027 9.2111L5.002 9.0131C5.139 7.2241 12.468 4.0001 22.869 4.0001L22.869 4.0001ZM43.157 26.4231C42.865 26.4781 42.126 26.5091 40.458 26.1011L40.677 24.4661C42.417 25.5221 42.984 26.1471 43.157 26.4231L43.157 26.4231ZM23.117 19.9991 24.117 20.0001 23.118 20.0011C23.117 20.0011 23.117 20.0001 23.117 19.9991L23.117 19.9991ZM22.874 44.0001C14.415 44.0001 9.278 41.8321 9.278 40.8791 9.278 40.8341 9.275 40.7901 9.269 40.7461L5.441 12.2711C5.674 12.4071 5.921 12.5371 6.181 12.6641 6.326 12.7351 6.483 12.8021 6.636 12.8701 6.796 12.9401 6.958 13.0121 7.126 13.0801 7.304 13.1511 7.484 13.2221 7.67 13.2911 7.827 13.3491 7.991 13.4051 8.155 13.4611 8.573 13.6031 9.009 13.7391 9.464 13.8661 9.557 13.8931 9.645 13.9211 9.739 13.9461 9.987 14.0131 10.244 14.0751 10.502 14.1381 10.648 14.1741 10.795 14.2101 10.944 14.2441 11.212 14.3061 11.482 14.3641 11.759 14.4211 11.884 14.4471 12.011 14.4711 12.137 14.4951 13.103 14.6851 14.111 14.8471 15.153 14.9801 15.27 14.9951 15.387 15.0111 15.505 15.0251 15.844 15.0661 16.185 15.1051 16.528 15.1421 16.599 15.1481 16.669 15.1541 16.739 15.1611 17.864 15.2731 19.009 15.3531 20.161 15.4031 20.274 15.4081 20.388 15.4131 20.501 15.4171 20.862 15.4311 21.222 15.4421 21.583 15.4491 21.632 15.4501 21.679 15.4501 21.728 15.4511 22.108 15.4581 22.489 15.4671 22.869 15.4671 23.234 15.4671 23.602 15.4581 23.969 15.4521 24.038 15.4501 24.106 15.4501 24.177 15.4491 24.52 15.4421 24.863 15.4311 25.208 15.4181 25.349 15.4131 25.489 15.4071 25.63 15.4011 25.968 15.3861 26.304 15.3701 26.64 15.3511L26.897 15.3331C27.542 15.2921 28.181 15.2401 28.814 15.1791 28.968 15.1651 29.12 15.1511 29.272 15.1361 29.568 15.1041 29.861 15.0701 30.153 15.0351 30.339 15.0131 30.522 14.9891 30.706 14.9661 30.987 14.9291 31.267 14.8921 31.542 14.8521 31.747 14.8211 31.946 14.7871 32.147 14.7551 32.577 14.6861 32.998 14.6121 33.412 14.5331 33.628 14.4921 33.843 14.4511 34.054 14.4071 34.278 14.3601 34.498 14.3121 34.717 14.2631 34.937 14.2131 35.153 14.1601 35.368 14.1071 35.564 14.0591 35.763 14.0111 35.954 13.9601 36.319 13.8621 36.675 13.7601 37.019 13.6521 37.172 13.6041 37.315 13.5531 37.465 13.5031 37.689 13.4281 37.91 13.3521 38.123 13.2721 38.274 13.2161 38.423 13.1581 38.567 13.1011 38.782 13.0141 38.987 12.9251 39.188 12.8341 39.305 12.7811 39.425 12.7301 39.536 12.6771 39.804 12.5471 40.06 12.4131 40.298 12.2741L38.513 25.5511C33.953 24.1181 27.87 21.3471 25.112 20.0511 25.112 20.0331 25.117 20.0181 25.117 20.0001 25.117 18.8971 24.22 18.0001 23.117 18.0001 22.015 18.0001 21.117 18.8971 21.117 20.0001 21.117 21.1021 22.015 22.0001 23.117 22.0001 23.454 22.0001 23.768 21.9081 24.047 21.7601 27.18 23.2401 33.504 26.1161 38.243 27.5601L38.157 28.1981 40.14 28.4661 40.189 28.0951C41.209 28.3341 42.048 28.4551 42.731 28.4551 43.722 28.4551 44.389 28.2031 44.814 27.6961 45.164 27.2801 45.302 26.7571 45.201 26.2221 44.986 25.0711 43.661 23.8541 40.966 22.3191L42.669 9.6481C42.673 9.6261 42.679 9.6031 42.682 9.5811L42.732 9.1931C42.738 9.1501 42.741 9.1061 42.741 9.0631 42.741 4.9001 32.269 2.0001 22.869 2.0001 13.472 2.0001 3 4.9001 3 9.0631 3 9.1061 3.003 9.1501 3.009 9.1931L3.06 9.5811 3.065 9.6131 7.279 40.9561C7.41 44.6291 16.886 46.0001 22.874 46.0001 24.904 46.0001 26.942 45.8711 28.933 45.6161L28.679 43.6321C26.772 43.8761 24.819 44.0001 22.874 44.0001L22.874 44.0001Z" id="Amazon-Simple-Storage-Service_Glacier-Flexible-Retrieval_Resource-Icon" fill="#7AA116"/></g></svg>