<svg width="48" height="48" viewBox="0 0 48 48" xmlns="http://www.w3.org/2000/svg" xmlns:xlink="http://www.w3.org/1999/xlink" overflow="hidden"><g id="Icon-Resource/IoT/Res_AWS-IoT_Actuator_48" stroke="none" stroke-width="1" fill="none" fill-rule="evenodd"><path d="M35.573 40.4535 37.922 40.4535 37.922 38.1045 35.573 38.1045 35.573 40.4535ZM33.573 37.1045C33.573 36.5515 34.02 36.1045 34.573 36.1045L38.922 36.1045C39.475 36.1045 39.922 36.5515 39.922 37.1045L39.922 41.4535C39.922 42.0055 39.475 42.4535 38.922 42.4535L34.573 42.4535C34.02 42.4535 33.573 42.0055 33.573 41.4535L33.573 37.1045ZM22.637 40.3895 25.635 40.3895 24.136 38.3575 22.637 40.3895ZM19.851 40.7955 23.331 36.0785C23.708 35.5675 24.563 35.5675 24.94 36.0785L28.42 40.7955C28.643 41.0995 28.678 41.5035 28.508 41.8405 28.338 42.1765 27.992 42.3895 27.615 42.3895L20.656 42.3895C20.279 42.3895 19.934 42.1765 19.764 41.8405 19.594 41.5035 19.628 41.0995 19.851 40.7955ZM11.523 40.6075C12.291 40.6075 12.916 39.9835 12.916 39.2155 12.916 38.4485 12.291 37.8235 11.523 37.8235 10.756 37.8235 10.132 38.4485 10.132 39.2155 10.132 39.9835 10.756 40.6075 11.523 40.6075ZM11.523 35.8235C13.394 35.8235 14.916 37.3445 14.916 39.2155 14.916 41.0855 13.394 42.6075 11.523 42.6075 9.653 42.6075 8.132 41.0855 8.132 39.2155 8.132 37.3445 9.653 35.8235 11.523 35.8235ZM6 43.9325 42.271 43.9325 42.271 34.6245 6 34.6245 6 43.9325ZM44.271 44.9325C44.271 45.4855 43.824 45.9325 43.271 45.9325L5 45.9325C4.447 45.9325 4 45.4855 4 44.9325L4 33.6245C4 33.0725 4.447 32.6245 5 32.6245L43.271 32.6245C43.824 32.6245 44.271 33.0725 44.271 33.6245L44.271 44.9325ZM26.18 17.9055C26.18 16.7785 25.263 15.8615 24.136 15.8615 23.009 15.8615 22.092 16.7785 22.092 17.9055 22.092 19.0335 23.009 19.9505 24.136 19.9505 25.263 19.9505 26.18 19.0335 26.18 17.9055ZM23.136 28.5375 23.136 21.8095C21.392 21.3615 20.092 19.7875 20.092 17.9055 20.092 15.6755 21.906 13.8615 24.136 13.8615 26.365 13.8615 28.18 15.6755 28.18 17.9055 28.18 19.7875 26.881 21.3615 25.136 21.8095L25.136 28.5375 26.908 26.7665 28.322 28.1805 24.843 31.6595C24.647 31.8545 24.392 31.9525 24.136 31.9525 23.88 31.9525 23.624 31.8545 23.429 31.6595L19.949 28.1805 21.363 26.7665 23.136 28.5375ZM4.679 19.9145C4.679 16.4725 6.534 13.8435 9.689 12.7365 9.683 12.5895 9.68 12.4455 9.68 12.3035 9.68 8.39455 12.329 4.33655 15.844 2.86655 19.941 1.15455 24.286 2.01055 27.466 5.15755 28.362 6.03955 29.112 7.10155 29.705 8.32455 30.888 7.49555 32.365 7.22655 33.78 7.64355 35.799 8.24055 37.17 10.0375 37.533 12.5155 40.589 13.2905 43.593 15.5895 43.593 19.9755 43.593 25.5555 38.957 27.4035 36.506 27.6005L30.224 27.5945 30.225 25.5945 36.427 25.6035C36.557 25.5875 41.593 25.0885 41.593 19.9755 41.593 15.6795 37.981 14.5925 36.43 14.3245 35.913 14.2355 35.556 13.7645 35.603 13.2465 35.447 11.3325 34.559 9.95855 33.213 9.56155 32.106 9.23255 30.914 9.64955 30.168 10.6215 29.988 10.8835 29.686 11.0565 29.346 11.0565 28.885 11.0565 28.496 10.7465 28.381 10.3245 27.833 8.81755 27.053 7.55755 26.06 6.58055 24.817 5.34855 21.407 2.70655 16.615 4.71155 13.848 5.86955 11.68 9.20455 11.68 12.3035 11.68 12.6565 11.704 13.0095 11.742 13.3465 11.8 13.8445 11.479 14.3085 10.993 14.4305 9.382 14.8365 6.679 16.0895 6.679 19.9145 6.679 20.0795 6.687 20.2455 6.695 20.4035 6.876 23.2995 9.425 25.5775 12.498 25.5775L18.049 25.5855 18.045 27.5855 12.496 27.5775C8.371 27.5775 4.945 24.4755 4.698 20.5165 4.687 20.3145 4.679 20.1155 4.679 19.9145Z" id="Amazon-IOT-RESOURCES-IoT-actuator_Resource-Icon_light-bg" fill="#7AA116"/></g></svg>