<svg width="80" height="80" viewBox="0 0 80 80" xmlns="http://www.w3.org/2000/svg" xmlns:xlink="http://www.w3.org/1999/xlink" overflow="hidden"><g id="Icon-Architecture/64/Arch_AWS-Resilience-Hub_64" stroke="none" stroke-width="1" fill="none" fill-rule="evenodd"><g id="Icon-Architecture-BG/64/Management-Governance" fill="#E7157B"><rect x="0" y="0" width="80" height="80" id="Rectangle"/></g><path d="M51 54.1184 56.729 54.1184C54.762 59.0214 49.987 62.2854 44.667 62.2854 37.499 62.2854 31.667 56.4534 31.667 49.2854 31.667 42.1164 37.499 36.2854 44.667 36.2854 51.381 36.2854 57.071 41.5184 57.622 48.2004L59.616 48.0364C58.979 40.3254 52.413 34.2854 44.667 34.2854 36.396 34.2854 29.667 41.0144 29.667 49.2854 29.667 57.5564 36.396 64.2854 44.667 64.2854 50.329 64.2854 55.457 61.0814 58 56.1444L58 60.9514 60 60.9514 60 52.1184 51 52.1184 51 54.1184ZM37.625 50.3374 36.375 51.8994 41.375 55.8994C41.56 56.0464 41.78 56.1184 42 56.1184 42.272 56.1184 42.543 56.0074 42.74 55.7914L52.74 44.7914 51.26 43.4454 41.892 53.7514 37.625 50.3374ZM68.0004 42.2434C67.97 45.7064 66.608 47.8904 65.472 49.1134L64.007 47.7514C64.902 46.7884 65.976 45.0474 66 42.2264 66.039 37.6434 63.33 34.9454 57.72 33.9774 57.2 33.8884 56.839 33.4104 56.896 32.8864 57.261 29.4664 55.446 27.4934 53.627 26.7864 51.784 26.0724 49.88 26.5764 48.777 28.0744 48.557 28.3724 48.196 28.5234 47.824 28.4714 47.458 28.4164 47.151 28.1634 47.028 27.8134 46.163 25.3554 44.432 23.2764 43.132 21.9654 41.253 20.0724 36.099 16.0024 28.821 19.0974 24.614 20.8884 21.318 26.0454 21.318 30.8384 21.318 31.2784 21.388 32.1604 21.415 32.4624 21.458 32.9504 21.143 33.3974 20.668 33.5194 18.178 34.1604 14 36.1334 14 42.1514 14 42.4654 14.012 42.7684 14.035 43.0624 14.393 47.6474 17.625 50.7264 20.421 50.7264L25.931 50.7264 25.931 52.7264 20.421 52.7264C16.747 52.7264 12.499 49.0924 12.041 43.2194 12.014 42.8764 12 42.5194 12 42.1514 12 35.2604 16.646 32.7174 19.36 31.8204 19.338 31.4844 19.318 31.1114 19.318 30.8384 19.318 25.2114 23.067 19.3724 28.038 17.2574 33.866 14.7774 40.039 16.0114 44.552 20.5564 45.742 21.7574 47.261 23.5474 48.312 25.7124 49.968 24.4294 52.229 24.0994 54.351 24.9224 56.579 25.7874 59.006 28.1834 58.941 32.1774 66.457 33.7924 68.031 38.5034 68.0004 42.2434L68.0004 42.2434Z" id="Icon-Service/64/AWS-Resilience-Hub_64_Squid" fill="#FFFFFF"/></g></svg>