<svg width="48" height="48" viewBox="0 0 48 48" xmlns="http://www.w3.org/2000/svg" xmlns:xlink="http://www.w3.org/1999/xlink" overflow="hidden"><g id="Icon-Resource/Networking-and-Content-Delivery/Res_AWS-App-Mesh_Virtual-Gateway_48" stroke="none" stroke-width="1" fill="none" fill-rule="evenodd"><path d="M26.0811 37.3026C26.0811 36.8006 25.8861 36.3296 25.5321 35.9766 25.1791 35.6226 24.7081 35.4276 24.2061 35.4276 23.7051 35.4276 23.2341 35.6226 22.8811 35.9766 22.5271 36.3296 22.3321 36.8006 22.3321 37.3026 22.3321 37.8036 22.5271 38.2746 22.8811 38.6276 23.5891 39.3356 24.8261 39.3336 25.5321 38.6276 25.8861 38.2746 26.0811 37.8036 26.0811 37.3026L26.0811 37.3026ZM22.8811 24.9406C23.5891 25.6486 24.8261 25.6466 25.5321 24.9406 25.8861 24.5866 26.0811 24.1156 26.0811 23.6146 26.0811 23.1136 25.8861 22.6426 25.5321 22.2886 25.1781 21.9346 24.7071 21.7396 24.2061 21.7396 23.7061 21.7396 23.2351 21.9346 22.8811 22.2886 22.5271 22.6426 22.3321 23.1136 22.3321 23.6146 22.3321 24.1156 22.5271 24.5866 22.8811 24.9406L22.8811 24.9406ZM22.8811 10.3766C23.5891 11.0846 24.8261 11.0826 25.5321 10.3766 25.8861 10.0236 26.0811 9.5526 26.0811 9.0506 26.0811 8.5496 25.8861 8.0786 25.5321 7.7256 25.1791 7.3716 24.7081 7.1766 24.2061 7.1766 23.7051 7.1766 23.2341 7.3716 22.8811 7.7256 22.5271 8.0786 22.3321 8.5496 22.3321 9.0506 22.3321 9.5526 22.5271 10.0236 22.8811 10.3766L22.8811 10.3766ZM12.3021 32.1186C12.3021 31.6176 12.1061 31.1476 11.7531 30.7936 11.3881 30.4286 10.9071 30.2456 10.4271 30.2456 9.9461 30.2456 9.4661 30.4286 9.1011 30.7936 8.3701 31.5256 8.3701 32.7146 9.1011 33.4456 9.8311 34.1756 11.0221 34.1756 11.7531 33.4456 12.1061 33.0916 12.3021 32.6206 12.3021 32.1186L12.3021 32.1186ZM8.5521 17.4726C8.5521 17.9736 8.7471 18.4446 9.1011 18.7976 9.8311 19.5286 11.0221 19.5286 11.7531 18.7976 12.1061 18.4446 12.3021 17.9736 12.3021 17.4726 12.3021 16.9706 12.1061 16.4996 11.7531 16.1466 11.3881 15.7816 10.9071 15.5986 10.4271 15.5986 9.9461 15.5986 9.4661 15.7816 9.1011 16.1466 8.7471 16.4996 8.5521 16.9706 8.5521 17.4726L8.5521 17.4726ZM35.9851 14.2346C35.9851 14.7356 36.1811 15.2056 36.5341 15.5596 37.2651 16.2896 38.4561 16.2896 39.1861 15.5596 39.5401 15.2056 39.7351 14.7356 39.7351 14.2346 39.7351 13.7336 39.5401 13.2626 39.1861 12.9076 38.8211 12.5426 38.3411 12.3606 37.8601 12.3606 37.3801 12.3606 36.8991 12.5426 36.5341 12.9076 36.1811 13.2616 35.9851 13.7326 35.9851 14.2346L35.9851 14.2346ZM36.5341 31.0176C37.2671 31.7476 38.4561 31.7476 39.1861 31.0176 39.9171 30.2856 39.9171 29.0966 39.1861 28.3646 38.4561 27.6346 37.2651 27.6346 36.5341 28.3646 35.8041 29.0966 35.8041 30.2856 36.5341 31.0176L36.5341 31.0176ZM28.0721 37.2346C28.0901 38.2486 27.7191 39.2696 26.9461 40.0416 26.1911 40.7976 25.1991 41.1746 24.2061 41.1746 23.2141 41.1746 22.2221 40.7976 21.4671 40.0416 20.7271 39.3026 20.3551 38.3356 20.3401 37.3646L13.6161 34.3096C13.4831 34.5016 13.3381 34.6886 13.1671 34.8596 12.4111 35.6156 11.4191 35.9926 10.4271 35.9926 9.4351 35.9926 8.4421 35.6156 7.6861 34.8596 6.1771 33.3496 6.1761 30.8916 7.6861 29.3796 8.0721 28.9936 8.5211 28.7096 9.0001 28.5206L9.0001 21.0716C8.5211 20.8816 8.0721 20.5976 7.6861 20.2116 6.1761 18.7006 6.1761 16.2426 7.6861 14.7326 9.1981 13.2206 11.6551 13.2206 13.1671 14.7326 14.6781 16.2426 14.6781 18.7006 13.1671 20.2116 12.5581 20.8206 11.7931 21.1716 11.0001 21.2896L11.0001 28.3026C11.7931 28.4196 12.5581 28.7716 13.1671 29.3796 13.9961 30.2096 14.3531 31.3236 14.2721 32.4106L20.8501 35.4006C21.0181 35.1026 21.2131 34.8156 21.4671 34.5626 21.9101 34.1176 22.4401 33.8216 23.0001 33.6376L23.0001 27.2796C22.4401 27.0966 21.9101 26.7986 21.4671 26.3546 19.9561 24.8436 19.9561 22.3856 21.4671 20.8746 21.8991 20.4416 22.4331 20.1526 23.0001 19.9756L23.0001 12.7156C22.4401 12.5316 21.9101 12.2356 21.4671 11.7906 19.9561 10.2806 19.9561 7.8226 21.4671 6.3116 22.9781 4.7996 25.4381 4.8016 26.9461 6.3116 28.4571 7.8226 28.4571 10.2806 26.9461 11.7906 26.3941 12.3436 25.7141 12.6896 25.0001 12.8366L25.0001 19.8586C25.7241 20.0006 26.4091 20.3366 26.9461 20.8746 26.9581 20.8866 26.9651 20.9006 26.9771 20.9116L34.2501 15.6226C33.7191 14.2376 34.0061 12.6086 35.1201 11.4936 36.6321 9.9846 39.0891 9.9846 40.6011 11.4936 42.1111 13.0046 42.1111 15.4626 40.6011 16.9736 39.8451 17.7286 38.8521 18.1066 37.8601 18.1066 36.9981 18.1066 36.1441 17.8026 35.4361 17.2316L27.9491 22.6756C28.2681 23.9526 27.9421 25.3586 26.9461 26.3546 26.3941 26.9066 25.7141 27.2526 25.0001 27.4016L25.0001 33.5156C25.7141 33.6626 26.3941 34.0096 26.9461 34.5626 27.1551 34.7716 27.3281 35.0006 27.4791 35.2406L34.2131 30.9556C33.7461 29.5986 34.0391 28.0326 35.1201 26.9506 36.6301 25.4416 39.0891 25.4416 40.6011 26.9506 42.1101 28.4616 42.1101 30.9206 40.6011 32.4316 39.8461 33.1866 38.8521 33.5646 37.8601 33.5646 36.9581 33.5646 36.0641 33.2356 35.3401 32.6106L28.0721 37.2346ZM14.0001 43.4476 4.0001 38.9026 4.0001 9.3586 14.0001 4.5846 14.0001 10.1766 16.0001 10.1766 16.0001 2.9996C16.0001 2.6566 15.8241 2.3366 15.5331 2.1546 15.2431 1.9706 14.8801 1.9496 14.5691 2.0976L2.5691 7.8246C2.2221 7.9906 2.0001 8.3416 2.0001 8.7276L2.0001 39.5456C2.0001 39.9386 2.2291 40.2936 2.5861 40.4556L14.5861 45.9096C14.7181 45.9706 14.8591 45.9996 15.0001 45.9996 15.1891 45.9996 15.3771 45.9466 15.5411 45.8406 15.8271 45.6566 16.0001 45.3396 16.0001 44.9996L16.0001 38.1766 14.0001 38.1766 14.0001 43.4476ZM46.0001 8.9046 46.0001 39.7226C46.0001 40.1156 45.7701 40.4706 45.4141 40.6326L33.4141 46.0866C33.2821 46.1476 33.1411 46.1766 33.0001 46.1766 32.8101 46.1766 32.6231 46.1226 32.4591 46.0176 32.1731 45.8326 32.0001 45.5166 32.0001 45.1766L32.0001 38.1766 34.0001 38.1766 34.0001 43.6236 44.0001 39.0786 44.0001 9.5346 34.0001 4.7616 34.0001 10.1766 32.0001 10.1766 32.0001 3.1766C32.0001 2.8326 32.1761 2.5136 32.4671 2.3306 32.7571 2.1476 33.1211 2.1256 33.4311 2.2746L45.4311 8.0016C45.7781 8.1676 46.0001 8.5186 46.0001 8.9046L46.0001 8.9046Z" id="AWS-App-Mesh-Virtual-Gateway_Resource-Icon_light-bg" fill="#8C4FFF"/></g></svg>