<svg width="48" height="48" viewBox="0 0 48 48" xmlns="http://www.w3.org/2000/svg" xmlns:xlink="http://www.w3.org/1999/xlink" overflow="hidden"><g id="Icon-Resource/Storage/Res_Amazon-Elastic-File-System_Standard-Infrequent-Access_48" stroke="none" stroke-width="1" fill="none" fill-rule="evenodd"><path d="M41 39.0003 41 16.6542C41 14.8942 40.109 13.0002 38.154 13.0002L34.771 13.0002C34.583 11.6943 34.126 9.52225 33.141 9.08625 33.013 9.02925 32.875 9.00025 32.735 9.00025L25.257 9.00025C25.069 9.00025 24.885 9.05325 24.726 9.15325 23.853 9.70025 23.528 11.7483 23.41 13.0002L21 13.0002 21 15.0002 24.346 15.0002C24.898 15.0002 25.346 14.5522 25.346 14.0002 25.346 13.3073 25.575 11.7093 25.811 11.0002L32.234 11.0002C32.524 11.6982 32.885 13.3783 32.885 14.0002 32.885 14.5522 33.332 15.0002 33.885 15.0002L38.154 15.0002C38.95 15.0002 39 16.6413 39 16.6542L39 38.0003 4 38.0003 4 16.6642C4.008 16.2733 4.166 15.0002 5.846 15.0002L9 15.0002 9 13.0002 5.846 13.0002C3.024 13.0002 2 15.1853 2 16.6542L2 39.0003C2 39.5522 2.447 40.0003 3 40.0003L40 40.0003C40.553 40.0003 41 39.5522 41 39.0003L41 39.0003ZM32 33.0003C33.103 33.0003 34 32.1032 34 31.0002 34 29.8972 33.103 29.0002 32 29.0002 30.897 29.0002 30 29.8972 30 31.0002 30 32.1032 30.897 33.0003 32 33.0003L32 33.0003ZM32 35.0003C29.794 35.0003 28 33.2062 28 31.0002 28 28.7943 29.794 27.0002 32 27.0002 34.206 27.0002 36 28.7943 36 31.0002 36 33.2062 34.206 35.0003 32 35.0003L32 35.0003ZM19.674 27.0002 23.326 27.0002 21.5 23.6092 19.674 27.0002ZM17.119 27.5263 20.619 21.0263C20.969 20.3783 22.031 20.3783 22.381 21.0263L25.881 27.5263C26.047 27.8363 26.039 28.2103 25.858 28.5133 25.678 28.8153 25.352 29.0002 25 29.0002L18 29.0002C17.648 29.0002 17.322 28.8153 17.142 28.5133 16.961 28.2103 16.953 27.8363 17.119 27.5263L17.119 27.5263ZM9 31.0002 12 31.0002 12 28.0002 9 28.0002 9 31.0002ZM13 26.0002C13.553 26.0002 14 26.4482 14 27.0002L14 32.0003C14 32.5522 13.553 33.0003 13 33.0003L8 33.0003C7.447 33.0003 7 32.5522 7 32.0003L7 27.0002C7 26.4482 7.447 26.0002 8 26.0002L13 26.0002ZM15 19.0002C15.256 19.0002 15.512 18.9023 15.707 18.7073L18.707 15.7072 17.293 14.2933 15 16.5863 12.707 14.2933 11.293 15.7072 14.293 18.7073C14.488 18.9023 14.744 19.0002 15 19.0002L15 19.0002ZM15 4.41425 17.293 6.70725 18.707 5.29325 15.707 2.29325C15.316 1.90225 14.684 1.90225 14.293 2.29325L11.293 5.29325 12.707 6.70725 15 4.41425ZM14 13.0002 16 13.0002 16 8.00025 14 8.00025 14 13.0002ZM46 22.0742 46 44.0003C46 44.5522 45.553 45.0003 45 45.0003L8 45.0003C7.448 45.0003 7.001 44.5532 7 44.0013L7 44.0003 7 42.0003 9 42.0003 9 43.0003 44 43.0003 44 22.0742C44 21.5103 43.542 21.0292 42.979 21.0012L43.079 19.0042C44.717 19.0853 46 20.4342 46 22.0742L46 22.0742Z" id="Fill-1" fill="#7AA116"/></g></svg>