<svg width="80" height="80" viewBox="0 0 80 80" xmlns="http://www.w3.org/2000/svg" xmlns:xlink="http://www.w3.org/1999/xlink" overflow="hidden"><g id="Icon-Architecture/64/Arch_Amazon-Managed-Workflows-for-Apache-Airflow_64" stroke="none" stroke-width="1" fill="none" fill-rule="evenodd"><g id="Icon-Architecture-BG/64/Application-Integration" fill="#E7157B"><rect x="0" y="0" width="80" height="80" id="Rectangle"/></g><g id="Icon-Service/64/Amazon-Managed-Workflows-for-Apache-Airflow_64" fill="#FFFFFF" transform="translate(12 12.084)"><path d="M49.084 48C46.374 48 44.169 45.795 44.169 43.084 44.169 40.374 46.374 38.168 49.084 38.168 51.795 38.168 54 40.374 54 43.084 54 45.795 51.795 48 49.084 48L49.084 48ZM49.084 36.168C45.271 36.168 42.169 39.271 42.169 43.084 42.169 46.897 45.271 50 49.084 50 52.897 50 56 46.897 56 43.084 56 39.271 52.897 36.168 49.084 36.168L49.084 36.168ZM49.084 33C46.374 33 44.169 30.795 44.169 28.084 44.169 25.374 46.374 23.168 49.084 23.168 51.795 23.168 54 25.374 54 28.084 54 30.795 51.795 33 49.084 33L49.084 33ZM49.084 21.168C45.271 21.168 42.169 24.271 42.169 28.084 42.169 31.897 45.271 35 49.084 35 52.897 35 56 31.897 56 28.084 56 24.271 52.897 21.168 49.084 21.168L49.084 21.168ZM49.084 17.832C46.374 17.832 44.169 15.626 44.169 12.916 44.169 10.205 46.374 8 49.084 8 51.795 8 54 10.205 54 12.916 54 15.626 51.795 17.832 49.084 17.832L49.084 17.832ZM49.084 6C45.271 6 42.169 9.103 42.169 12.916 42.169 16.729 45.271 19.832 49.084 19.832 52.897 19.832 56 16.729 56 12.916 56 9.103 52.897 6 49.084 6L49.084 6ZM56 0 56 2 38 2 38 54 56 54 56 56 37 56C36.447 56 36 55.552 36 55L36 29 20.105 29 20.105 27 36 27 36 1C36 0.448 36.447 0 37 0L56 0ZM2 34.333 2 21.667 13.875 28 2 34.333ZM16.471 27.118 1.471 19.118C1.159 18.951 0.786 18.962 0.485 19.143 0.185 19.323 0 19.649 0 20L0 36C0 36.351 0.185 36.677 0.485 36.857 0.644 36.952 0.821 37 1 37 1.161 37 1.323 36.961 1.471 36.882L16.471 28.882C16.797 28.708 17 28.369 17 28 17 27.631 16.797 27.292 16.471 27.118L16.471 27.118ZM2 14 14 14 14 2 2 2 2 14ZM1 16 15 16C15.553 16 16 15.552 16 15L16 1C16 0.448 15.553 0 15 0L1 0C0.447 0 0 0.448 0 1L0 15C0 15.552 0.447 16 1 16L1 16ZM8.258 54C4.808 54 2 51.192 2 47.742 2 44.291 4.808 41.484 8.258 41.484 11.709 41.484 14.517 44.291 14.517 47.742 14.517 51.192 11.709 54 8.258 54L8.258 54ZM8.258 39.484C3.704 39.484 0 43.188 0 47.742 0 52.295 3.704 56 8.258 56 12.812 56 16.517 52.295 16.517 47.742 16.517 43.188 12.812 39.484 8.258 39.484L8.258 39.484Z" id="Fill-1"/></g></g></svg>