<svg width="48" height="48" viewBox="0 0 48 48" xmlns="http://www.w3.org/2000/svg" xmlns:xlink="http://www.w3.org/1999/xlink" overflow="hidden"><g id="Icon-Resource/Database/Res_Amazon-RDS_Multi-AZ_48" stroke="none" stroke-width="1" fill="none" fill-rule="evenodd"><path d="M38.19 30.446C34.106 30.446 32.001 29.29 32.001 28.797L32.001 26.21C33.696 26.908 35.977 27.193 37.962 27.193 40.52 27.193 42.596 26.789 44.001 26.083L44.001 28.797C44.001 29.373 42.004 30.446 38.19 30.446L38.19 30.446ZM38.19 16.247C42.059 16.247 44.001 17.38 44.001 18.015 44.001 18.65 42.059 19.783 38.19 19.783 34.106 19.783 32.001 18.544 32.001 18.015 32.001 17.486 34.106 16.247 38.19 16.247L38.19 16.247ZM32.001 20.591C33.602 21.399 35.944 21.783 38.19 21.783 40.618 21.783 42.626 21.371 44.001 20.662L44.001 23.473C43.995 24.092 41.979 25.193 37.962 25.193 35.116 25.193 32.941 24.613 32.001 23.979L32.001 20.591ZM12.244 38.381C6.889 38.381 4.001 36.942 4.001 35.587L4.001 31.037C6.088 32.242 9.506 32.81 12.769 32.81 16.34 32.81 19.212 32.196 21.001 31.141L21.001 35.587C21.001 36.758 17.958 38.381 12.244 38.381L12.244 38.381ZM12.77 9.7C18.086 9.7 21.025 11.237 21.025 12.3 21.025 12.315 21.018 12.331 21.017 12.346L21.001 12.346 21.001 12.445C20.752 13.497 17.849 14.899 12.77 14.899 7.417 14.899 4.001 13.359 4.001 12.3 4.001 11.24 7.417 9.7 12.77 9.7L12.77 9.7ZM4.001 20.017 4.001 15.118C6.088 16.327 9.506 16.899 12.77 16.899 16.333 16.899 19.209 16.272 21.001 15.21L21.001 20.159C20.775 21.176 18.087 22.612 12.769 22.612 7.424 22.612 4.011 21.077 4.001 20.017L4.001 20.017ZM12.769 24.612C16.344 24.612 19.213 23.995 21.001 22.936L21.001 28.38C20.768 29.387 18.072 30.81 12.769 30.81 7.424 30.81 4.011 29.287 4.001 28.235L4.001 22.831C6.088 24.041 9.506 24.612 12.769 24.612L12.769 24.612ZM46.002 23.47 46.001 23.47 46.001 18.346 45.971 18.346C45.987 18.237 46.001 18.128 46.001 18.015 46.001 15.761 42.862 14.247 38.19 14.247 34.246 14.247 30.001 15.426 30.001 18.015 30.001 18.129 30.019 18.238 30.035 18.346L30.001 18.346 30.001 22.041 23.001 22.041 23.001 20.337C23.003 20.32 23.009 20.304 23.01 20.287L23.001 20.286 23.001 12.558C23.009 12.472 23.025 12.387 23.025 12.3 23.025 9.549 18.904 7.7 12.77 7.7 7.584 7.7 2.001 9.14 2.001 12.3 2.001 12.316 2.005 12.33 2.006 12.346L2.001 12.346 2.001 20.012 2 20.012C2 20.015 2.001 20.018 2.001 20.021L2.001 28.23 2 28.23C2 28.233 2.001 28.235 2.001 28.238L2.001 35.587C2.001 38.544 5.925 40.381 12.244 40.381 18.677 40.381 23.001 38.454 23.001 35.587L23.001 28.566C23.002 28.557 23.005 28.548 23.006 28.538L23.001 28.538 23.001 24.041 30.001 24.041 30.001 28.797C30.001 31.318 34.114 32.446 38.19 32.446 42.935 32.446 46.001 31.014 46.001 28.797L46.001 23.481C46.001 23.477 46.002 23.474 46.002 23.47L46.002 23.47Z" id="Fill-1" fill="#C925D1"/></g></svg>