<svg width="80" height="80" viewBox="0 0 80 80" xmlns="http://www.w3.org/2000/svg" xmlns:xlink="http://www.w3.org/1999/xlink" overflow="hidden"><g id="Icon-Architecture/64/Arch_Amazon-Managed-Service-for-Apache-Flink_64" stroke="none" stroke-width="1" fill="none" fill-rule="evenodd"><g id="Icon-Architecture-BG/64/Analytics" fill="#8C4FFF"><rect x="0" y="0" width="80" height="80" id="Rectangle"/></g><g id="Icon-Service/64/Amazon-Managed-Service-for-Apache-Flink_64" fill="#FFFFFF" transform="translate(14 15)"><path d="M30.649 15C30.649 17.594 28.539 19.704 25.945 19.704 23.351 19.704 21.242 17.594 21.242 15 21.242 12.406 23.351 10.296 25.945 10.296 28.539 10.296 30.649 12.406 30.649 15L30.649 15ZM32.649 15C32.649 11.304 29.641 8.296 25.945 8.296 22.249 8.296 19.242 11.304 19.242 15 19.242 18.696 22.249 21.704 25.945 21.704 29.641 21.704 32.649 18.696 32.649 15L32.649 15ZM24.294 26.74C24.322 26.252 23.993 25.815 23.516 25.708 22.301 25.432 21.15 24.955 20.094 24.288 19.681 24.026 19.139 24.101 18.814 24.467L17.971 25.411 15.535 22.974 16.478 22.132C16.842 21.807 16.919 21.266 16.658 20.852 15.993 19.8 15.516 18.648 15.242 17.43 15.134 16.952 14.674 16.625 14.21 16.651L12.945 16.724 12.945 13.276 14.214 13.349C14.699 13.374 15.138 13.048 15.247 12.571 15.52 11.36 15.998 10.211 16.665 9.155 16.925 8.742 16.849 8.201 16.485 7.875L15.534 7.026 17.972 4.589 18.82 5.539C19.144 5.903 19.688 5.979 20.099 5.719 21.154 5.054 22.303 4.578 23.515 4.305 23.993 4.197 24.322 3.76 24.294 3.272L24.221 2 27.67 2 27.597 3.273C27.569 3.762 27.898 4.198 28.375 4.306 29.587 4.58 30.736 5.056 31.789 5.721 32.2 5.98 32.743 5.906 33.069 5.542L33.919 4.589 36.357 7.026 35.408 7.873C35.044 8.199 34.967 8.74 35.229 9.154 35.894 10.206 36.371 11.355 36.646 12.571 36.754 13.048 37.225 13.374 37.678 13.349L38.946 13.276 38.946 16.724 37.679 16.651C37.225 16.625 36.754 16.952 36.647 17.43 36.374 18.643 35.897 19.794 35.231 20.85 34.97 21.264 35.046 21.805 35.411 22.13L36.356 22.974 33.919 25.412 33.079 24.47C32.753 24.103 32.21 24.028 31.798 24.29 30.743 24.957 29.591 25.434 28.375 25.708 27.898 25.816 27.569 26.253 27.597 26.741L27.67 28 24.221 28 24.294 26.74ZM29.456 29.687C29.644 29.486 29.742 29.217 29.726 28.943L29.64 27.444C30.505 27.188 31.338 26.843 32.131 26.412L33.131 27.533C33.314 27.738 33.574 27.859 33.849 27.867 34.119 27.879 34.39 27.769 34.585 27.574L38.519 23.639C38.713 23.445 38.82 23.179 38.812 22.904 38.804 22.629 38.683 22.369 38.478 22.186L37.353 21.183C37.784 20.39 38.128 19.558 38.383 18.695L39.889 18.781C40.164 18.797 40.433 18.698 40.632 18.509 40.833 18.32 40.946 18.057 40.946 17.782L40.946 12.218C40.946 11.943 40.833 11.68 40.632 11.491 40.433 11.302 40.165 11.207 39.889 11.219L38.381 11.305C38.126 10.442 37.781 9.61 37.351 8.82L38.478 7.814C38.683 7.631 38.804 7.371 38.812 7.096 38.82 6.821 38.713 6.555 38.519 6.361L34.585 2.426C34.39 2.231 34.116 2.123 33.849 2.134 33.574 2.142 33.315 2.262 33.131 2.467L32.122 3.599C31.332 3.17 30.502 2.826 29.64 2.57L29.726 1.057C29.742 0.782 29.644 0.513 29.455 0.313 29.266 0.113 29.003 3.55271e-15 28.728 3.55271e-15L23.163 3.55271e-15C22.887 3.55271e-15 22.625 0.113 22.436 0.313 22.247 0.513 22.149 0.782 22.165 1.057L22.251 2.568C21.389 2.824 20.558 3.167 19.767 3.597L18.759 2.467C18.576 2.262 18.317 2.142 18.042 2.134 17.763 2.125 17.502 2.231 17.306 2.426L13.372 6.361C13.177 6.555 13.071 6.821 13.079 7.096 13.087 7.371 13.208 7.631 13.413 7.814L14.543 8.822C14.112 9.614 13.767 10.444 13.511 11.305L12.002 11.219C11.726 11.206 11.458 11.302 11.258 11.491 11.058 11.68 10.945 11.943 10.945 12.218L10.945 17.782C10.945 18.057 11.058 18.32 11.258 18.509 11.458 18.698 11.727 18.798 12.002 18.781L13.505 18.695C13.761 19.56 14.106 20.393 14.536 21.185L13.413 22.186C13.208 22.369 13.087 22.628 13.079 22.903 13.071 23.179 13.177 23.445 13.372 23.639L17.306 27.574C17.502 27.769 17.761 27.876 18.042 27.867 18.317 27.859 18.577 27.738 18.759 27.533L19.761 26.41C20.553 26.841 21.386 27.187 22.251 27.443L22.165 28.943C22.149 29.217 22.247 29.486 22.435 29.687 22.625 29.887 22.887 30 23.163 30L28.728 30C29.003 30 29.266 29.887 29.456 29.687L29.456 29.687ZM31.085 35.254 32.449 34.073C34.44 32.333 37.933 32.332 39.928 34.076L41.285 35.25C44.023 37.647 48.652 37.649 51.39 35.254L52.07 34.665 50.759 33.153 50.077 33.746C48.086 35.488 44.592 35.488 42.597 33.742L41.241 32.568C38.502 30.17 33.872 30.171 31.136 32.564L29.772 33.746C27.78 35.488 24.288 35.488 22.294 33.742L20.937 32.568C18.198 30.17 13.568 30.171 10.833 32.564L9.468 33.746C7.478 35.488 3.984 35.488 1.99 33.742L1.31 33.153 0 34.665 0.676 35.25C3.415 37.647 8.045 37.649 10.781 35.254L12.145 34.073C14.136 32.333 17.629 32.332 19.625 34.076L20.981 35.25C22.351 36.45 24.194 37.05 26.037 37.05 27.878 37.049 29.717 36.451 31.085 35.254L31.085 35.254ZM31.085 48.127 32.449 46.946C34.44 45.204 37.933 45.204 39.928 46.949L41.285 48.124C44.023 50.521 48.652 50.522 51.39 48.127L52.07 47.538 50.759 46.026 50.077 46.619C48.086 48.361 44.592 48.361 42.597 46.615L41.241 45.441C38.502 43.043 33.872 43.043 31.136 45.437L29.772 46.619C27.78 48.361 24.288 48.361 22.294 46.615L20.937 45.441C18.198 43.043 13.568 43.043 10.833 45.437L9.468 46.619C7.478 48.361 3.984 48.361 1.99 46.615L1.31 46.026 0 47.538 0.676 48.124C3.415 50.521 8.045 50.522 10.781 48.127L12.145 46.946C14.136 45.204 17.629 45.204 19.625 46.949L20.981 48.124C22.351 49.323 24.194 49.923 26.037 49.923 27.878 49.922 29.717 49.324 31.085 48.127L31.085 48.127ZM26.037 43.486C24.194 43.486 22.351 42.887 20.981 41.687L19.625 40.513C17.629 38.769 14.136 38.769 12.145 40.509L10.781 41.69C8.045 44.085 3.415 44.084 0.676 41.687L0 41.102 1.31 39.59 1.99 40.179C3.984 41.925 7.478 41.924 9.468 40.182L10.833 39.001C13.568 36.607 18.198 36.607 20.937 39.004L22.294 40.179C24.288 41.925 27.78 41.924 29.772 40.182L31.136 39.001C33.872 36.607 38.502 36.607 41.241 39.004L42.597 40.179C44.592 41.925 48.086 41.924 50.077 40.182L50.759 39.59 52.07 41.102 51.39 41.69C48.652 44.085 44.023 44.084 41.285 41.687L39.928 40.513C37.933 38.769 34.44 38.769 32.449 40.509L31.085 41.69C29.717 42.887 27.878 43.486 26.037 43.486L26.037 43.486Z" id="Fill-8"/></g></g></svg>