<svg width="48" height="48" viewBox="0 0 48 48" xmlns="http://www.w3.org/2000/svg" xmlns:xlink="http://www.w3.org/1999/xlink" overflow="hidden"><g id="Icon-Resource/Storage/Res_AWS-Storage-Gateway_Virtual-Tape-Library_48" stroke="none" stroke-width="1" fill="none" fill-rule="evenodd"><path d="M16.1868 22.3711C18.7708 22.3711 20.8728 24.4741 20.8728 27.0581 20.8728 29.6421 18.7708 31.7441 16.1868 31.7441 13.6028 31.7441 11.4998 29.6421 11.4998 27.0581 11.4998 24.4741 13.6028 22.3711 16.1868 22.3711L16.1868 22.3711ZM26.3728 27.0581C26.3728 24.4741 28.4748 22.3711 31.0588 22.3711 33.6428 22.3711 35.7448 24.4741 35.7448 27.0581 35.7448 29.6421 33.6428 31.7441 31.0588 31.7441 28.4748 31.7441 26.3728 29.6421 26.3728 27.0581L26.3728 27.0581ZM16.1868 33.7441C16.3338 33.7441 16.4788 33.7311 16.6238 33.7221L16.6238 33.7441 31.4968 33.7441 31.4968 33.7221C34.9788 33.4951 37.7448 30.5971 37.7448 27.0581 37.7448 23.3711 34.7458 20.3711 31.0588 20.3711 27.3728 20.3711 24.3728 23.3711 24.3728 27.0581 24.3728 28.8821 25.1088 30.5361 26.2968 31.7441L20.9478 31.7441C22.1358 30.5361 22.8728 28.8821 22.8728 27.0581 22.8728 23.3711 19.8738 20.3711 16.1868 20.3711 12.4998 20.3711 9.4998 23.3711 9.4998 27.0581 9.4998 30.7441 12.4998 33.7441 16.1868 33.7441L16.1868 33.7441ZM32.0568 15.2471 28.0868 15.2471 28.0868 7.3661 29.1908 7.3661 29.1908 14.3261 32.0568 14.3261 32.0568 15.2471ZM24.0048 8.2871 22.0488 8.2871 22.0488 7.3661 27.0758 7.3661 27.0758 8.2871 25.1088 8.2871 25.1088 15.2471 24.0048 15.2471 24.0048 8.2871ZM18.1148 15.2471 15.8398 7.3661 17.0558 7.3661 18.7168 14.0531 20.3888 7.3661 21.5598 7.3661 19.2858 15.2471 18.1148 15.2471ZM39.2448 43.9911 30.7468 43.9911 30.7468 38.8671C30.7468 38.3141 30.2988 37.8671 29.7468 37.8671L17.4988 37.8671C16.9458 37.8671 16.4988 38.3141 16.4988 38.8671L16.4988 43.9911 7.9998 43.9911 7.9998 4.0001 39.2448 4.0001 39.2448 43.9911ZM40.2448 2.0001 6.9998 2.0001C6.4478 2.0001 5.9998 2.4471 5.9998 3.0001L5.9998 44.9911C5.9998 45.5441 6.4478 45.9911 6.9998 45.9911L17.4988 45.9911C18.0508 45.9911 18.4988 45.5441 18.4988 44.9911L18.4988 39.8671 28.7468 39.8671 28.7468 44.9911C28.7468 45.5441 29.1938 45.9911 29.7468 45.9911L40.2448 45.9911C40.7968 45.9911 41.2448 45.5441 41.2448 44.9911L41.2448 3.0001C41.2448 2.4471 40.7968 2.0001 40.2448 2.0001L40.2448 2.0001Z" id="AWS-Storage-Gateway_Virtual-tape-library_Resource-Icon_light-bg" fill="#7AA116"/></g></svg>