<svg width="48" height="48" viewBox="0 0 48 48" xmlns="http://www.w3.org/2000/svg" xmlns:xlink="http://www.w3.org/1999/xlink" overflow="hidden"><g id="Icon-Resource/Networking-and-Content-Delivery/Res_Amazon-VPC_Peering-Connection_48" stroke="none" stroke-width="1" fill="none" fill-rule="evenodd"><path d="M30.6055 25.6368C30.6055 25.2538 30.6055 24.2358 28.9355 23.8938 28.4915 23.8028 28.1645 23.4248 28.1375 22.9718 28.0995 22.3148 27.8295 21.9068 27.4315 21.9068 27.2485 21.9068 27.0725 22.0008 26.9485 22.1648 26.7285 22.4588 26.3685 22.6078 26.0015 22.5548 25.6375 22.4998 25.3335 22.2518 25.2085 21.9068 25.0125 21.3658 24.7265 20.9008 24.3815 20.5608 24.0655 20.2468 23.3415 19.6688 22.3165 19.6688 21.9565 19.6688 21.5585 19.7408 21.1285 19.9188 20.2085 20.3038 19.4595 21.4568 19.4595 22.4898 19.4595 22.6118 19.4665 22.7288 19.4805 22.8458 19.5405 23.3458 19.2185 23.8108 18.7315 23.9338 17.8465 24.1568 17.3975 24.7208 17.3975 25.6118L17.4025 25.7578C17.4475 26.5858 18.4185 27.3468 19.4385 27.3468L28.8285 27.3468C30.6055 27.3468 30.6055 26.0598 30.6055 25.6368L30.6055 25.6368ZM32.6055 25.6368C32.6055 28.3178 30.6755 29.3048 28.9765 29.3458 28.9595 29.3468 28.9425 29.3468 28.9245 29.3468L19.4385 29.3468C17.3555 29.3468 15.5085 27.7498 15.4055 25.8598 15.4005 25.7738 15.3975 25.6968 15.3975 25.6118 15.3975 24.0768 16.1565 22.8738 17.4645 22.2678 17.5605 20.5108 18.7725 18.7358 20.3585 18.0738 22.2795 17.2768 24.3065 17.6718 25.7885 19.1388 26.0665 19.4128 26.3145 19.7238 26.5315 20.0698 27.7795 19.5998 29.5565 20.1578 30.0285 22.1208 31.6755 22.6828 32.6055 23.9348 32.6055 25.6368L32.6055 25.6368ZM44.0015 24.0008C44.0015 12.9728 35.0295 3.9998 24.0015 3.9998 12.9725 3.9998 4.0005 12.9728 4.0005 24.0008 4.0005 35.0298 12.9725 44.0018 24.0015 44.0018 35.0295 44.0018 44.0015 35.0298 44.0015 24.0008L44.0015 24.0008ZM46.0015 24.0008C46.0015 36.1328 36.1325 46.0018 24.0015 46.0018 11.8695 46.0018 2.0005 36.1328 2.0005 24.0008 2.0005 11.8688 11.8695 1.9998 24.0015 1.9998 36.1325 1.9998 46.0015 11.8688 46.0015 24.0008L46.0015 24.0008ZM11.6735 20.3638 10.2595 18.9498 5.9145 23.2938C5.7265 23.4818 5.6215 23.7358 5.6215 24.0008 5.6215 24.2668 5.7265 24.5208 5.9145 24.7078L10.2595 29.0538 11.6735 27.6398 9.0355 25.0008 13.9905 25.0008 13.9905 23.0008 9.0355 23.0008 11.6735 20.3638ZM42.0885 23.2938 37.7435 18.9498 36.3295 20.3638 38.9675 23.0008 33.9855 23.0008 33.9855 25.0008 38.9675 25.0008 36.3295 27.6398 37.7435 29.0538 42.0885 24.7078C42.2765 24.5208 42.3815 24.2668 42.3815 24.0008 42.3815 23.7358 42.2765 23.4818 42.0885 23.2938L42.0885 23.2938ZM25.0015 38.9678 25.0015 30.9758 23.0015 30.9758 23.0015 38.9678 20.3635 36.3288 18.9495 37.7428 23.2935 42.0888C23.4815 42.2768 23.7355 42.3818 24.0015 42.3818 24.2665 42.3818 24.5205 42.2768 24.7085 42.0888L29.0535 37.7428 27.6395 36.3288 25.0015 38.9678ZM20.3635 11.6728 18.9495 10.2588 23.2935 5.9138C23.6845 5.5238 24.3175 5.5238 24.7085 5.9138L29.0535 10.2588 27.6395 11.6728 25.0015 9.0348 25.0015 16.2748 23.0015 16.2748 23.0015 9.0348 20.3635 11.6728Z" id="AWS-Amazon-VPC_Peering-connection_Resource-Icon_light-bg" fill="#8C4FFF"/></g></svg>