<svg width="48" height="48" viewBox="0 0 48 48" xmlns="http://www.w3.org/2000/svg" xmlns:xlink="http://www.w3.org/1999/xlink" overflow="hidden"><g id="Icon-Resource/Compute/Res_Amazon-EC2_DB-Instance_48" stroke="none" stroke-width="1" fill="none" fill-rule="evenodd"><path d="M43.284 42.092 43.284 29.848C41.817 30.552 39.744 30.888 37.751 30.888 35.393 30.888 33.511 30.558 32.217 29.951L32.217 42.092C32.217 42.638 34.24 44.356 37.751 44.356 41.261 44.356 43.284 42.638 43.284 42.092M32.217 27.355C32.217 27.996 34.139 28.888 37.751 28.888 41.559 28.888 43.284 27.71 43.284 27.353 43.284 27.027 41.619 26 37.751 26 34.055 26 32.294 26.97 32.217 27.355M45.284 27.353 45.284 42.092C45.284 44.363 41.763 46.356 37.751 46.356 33.737 46.356 30.217 44.363 30.217 42.092L30.217 27.353C30.217 24.878 34.275 24 37.751 24 41.392 24 45.284 24.881 45.284 27.353M27 35 27 40 25 40 25 36 22 36 22 40 20 40 20 36 17 36 17 40 15 40 15 36 12 36 12 40 10 40 10 36 7 36C6.447 36 6 35.553 6 35L6 32 2 32 2 30 6 30 6 27 2 27 2 25 6 25 6 22 2 22 2 20 6 20 6 17 2 17 2 15 6 15 6 12 2 12 2 10 6 10 6 7C6 6.447 6.447 6 7 6L10 6 10 2 12 2 12 6 15 6 15 2 17 2 17 6 20 6 20 2 22 2 22 6 25 6 25 2 27 2 27 6 30 6 30 2 32 2 32 6 35 6C35.553 6 36 6.447 36 7L36 10 40 10 40 12 36 12 36 15 40 15 40 17 36 17 36 20 40 20 40 22 35 22C34.447 22 34 21.553 34 21L34 8 8 8 8 34 26 34C26.553 34 27 34.447 27 35" id="Amazon-EC2-DB-instance_Resource-Icon_light-bg" fill="#ED7100"/></g></svg>