<svg width="48" height="48" viewBox="0 0 48 48" xmlns="http://www.w3.org/2000/svg" xmlns:xlink="http://www.w3.org/1999/xlink" overflow="hidden"><g id="Icon-Resource/Management-Governance/Res_AWS-CloudFormation_Stack_48" stroke="none" stroke-width="1" fill="none" fill-rule="evenodd"><path d="M2 15.353 45.92 15.353 45.92 2 2 2 2 15.353ZM4 13.354 43.92 13.354 43.92 4 4 4 4 13.354ZM24.706 30.201 45.92 30.201 45.92 16.847 24.706 16.847 24.706 30.201ZM26.706 28.2 43.92 28.2 43.92 18.847 26.706 18.847 26.706 28.2ZM2 30.201 23.213 30.201 23.213 16.847 2 16.847 2 30.201ZM4 28.2 21.213 28.2 21.213 18.847 4 18.847 4 28.2ZM32.567 45.047 45.92 45.047 45.92 31.694 32.567 31.694 32.567 45.047ZM34.566 43.047 43.92 43.047 43.92 33.693 34.566 33.693 34.566 43.047ZM16.847 45.047 31.073 45.047 31.073 31.694 16.847 31.694 16.847 45.047ZM18.847 43.047 29.074 43.047 29.074 33.693 18.847 33.693 18.847 43.047ZM2 45.047 15.352 45.047 15.352 31.694 2 31.694 2 45.047ZM4 43.047 13.353 43.047 13.353 33.693 4 33.693 4 43.047Z" id="AWS-CloudFormation_stack_Resource-Icon_light-bg" fill="#E7157B"/></g></svg>