<svg width="80" height="80" viewBox="0 0 80 80" xmlns="http://www.w3.org/2000/svg" xmlns:xlink="http://www.w3.org/1999/xlink" overflow="hidden"><g id="Icon-Architecture/64/Arch_AWS-rePost-Private_64" stroke="none" stroke-width="1" fill="none" fill-rule="evenodd"><g id="Icon-Architecture-BG/64/Customer-Enablement" fill="#C925D1"><rect x="0" y="0" width="80" height="80" id="Rectangle"/></g><g id="Icon-Service/64/AWS-rePost-Private_64" fill="#FFFFFF" transform="translate(12 12)"><path d="M19.001 30.9993 39.001 30.9993 39.001 28.9993 19.001 28.9993 19.001 30.9993ZM28.656 51.3783 29.656 53.1102 24.883 55.8662C24.729 55.9562 24.556 56.0003 24.383 56.0003 24.21 56.0003 24.037 55.9562 23.883 55.8662L0.5 42.3662C0.191 42.1872 0 41.8573 0 41.5003L0 14.5002C0 14.1433 0.191 13.8123 0.5 13.6342L23.883 0.13425C24.192-0.04475 24.575-0.04475 24.883 0.13425L48.266 13.6342C48.575 13.8123 48.766 14.1433 48.766 14.5002L48.766 17.0002 46.766 17.0002 46.766 15.0772 24.383 2.15525 2 15.0772 2 40.9232 24.383 53.8452 28.656 51.3783ZM37.052 54.0003C37.513 49.6232 40.955 46.2113 45.121 46.2113 46.578 46.2113 48.007 46.6343 49.253 47.4342 51.446 48.8402 52.898 51.2952 53.188 54.0003L37.052 54.0003ZM45.121 35.4292C47.444 35.4292 49.332 37.3182 49.332 39.6403 49.332 41.9622 47.444 43.8522 45.121 43.8522 42.799 43.8522 40.909 41.9622 40.909 39.6403 40.909 37.3182 42.799 35.4292 45.121 35.4292L45.121 35.4292ZM39.137 37.9992 31 37.9992C30.448 37.9992 30 38.4473 30 38.9992L30 43.5853 24.707 38.2923C24.52 38.1043 24.266 37.9992 24 37.9992L19 37.9992C14.589 37.9992 11 34.4103 11 29.9993 11 25.5882 14.589 21.9993 19 21.9993L46 21.9993C50.411 21.9993 54 25.5882 54 29.9993 54 32.6592 52.684 35.1032 50.524 36.5863 49.455 34.7043 47.436 33.4292 45.121 33.4292 42.265 33.4292 39.859 35.3693 39.137 37.9992L39.137 37.9992ZM50.333 45.7503C49.751 45.3763 49.128 45.0913 48.491 44.8512 50.198 43.7433 51.332 41.8232 51.332 39.6403 51.332 39.2513 51.292 38.8713 51.223 38.5023 54.176 36.6872 56 33.4953 56 29.9993 56 24.4853 51.514 19.9993 46 19.9993L19 19.9993C13.487 19.9993 9 24.4853 9 29.9993 9 35.5132 13.487 39.9992 19 39.9992L23.586 39.9992 30.293 46.7072C30.485 46.8983 30.741 47.0003 31 47.0003 31.129 47.0003 31.259 46.9753 31.383 46.9243 31.756 46.7692 32 46.4043 32 46.0003L32 39.9992 38.928 39.9992C39.044 42.0272 40.133 43.7962 41.739 44.8442 37.819 46.3322 35 50.3162 35 55.0003 35 55.5522 35.448 56.0003 36 56.0003L54.242 56.0003C54.794 56.0003 55.242 55.5522 55.242 55.0003 55.242 51.1802 53.407 47.7223 50.333 45.7503L50.333 45.7503Z" id="Fill-5"/></g></g></svg>