<svg width="48" height="48" viewBox="0 0 48 48" xmlns="http://www.w3.org/2000/svg" xmlns:xlink="http://www.w3.org/1999/xlink" overflow="hidden"><g id="Icon-Resource/Storage/Res_Amazon-Simple-Storage-Service_S3-Storage-Lens_48" stroke="none" stroke-width="1" fill="none" fill-rule="evenodd"><path d="M10.604 25.036 10.604 23.036C13.781 23.036 16.365 25.62 16.365 28.797L14.365 28.797C14.365 26.723 12.677 25.036 10.604 25.036M40.813 26.016 41.097 24.266C43.145 25.466 43.771 26.158 43.956 26.453 43.641 26.513 42.789 26.537 40.813 26.016M23.641 13.481C13.299 13.481 6.293 11.012 5.779 9.228L5.75 9.019C5.889 7.227 13.227 4 23.641 4 34.056 4 41.395 7.227 41.534 9.019L41.505 9.228C40.991 11.012 33.984 13.481 23.641 13.481M17 28.5C17 32.084 14.083 35 10.5 35 6.916 35 4 32.084 4 28.5 4 24.916 6.916 22 10.5 22 14.083 22 17 24.916 17 28.5M45.999 26.249C45.774 25.051 44.36 23.785 41.438 22.16L43.471 9.619C43.473 9.61 43.469 9.6 43.47 9.591L43.475 9.591 43.527 9.203C43.533 9.159 43.536 9.115 43.536 9.071 43.536 4.904 33.051 2 23.641 2 14.232 2 3.749 4.904 3.749 9.071 3.749 9.115 3.751 9.159 3.757 9.203L3.809 9.591 3.82 9.59C3.823 9.612 3.815 9.634 3.82 9.656L6.142 21.216C3.666 22.703 2 25.407 2 28.5 2 33.187 5.813 37 10.5 37 11.498 37 12.453 36.818 13.343 36.5L18.108 45.665 19.883 44.743 15.138 35.614C17.459 34.095 19 31.476 19 28.5 19 23.813 15.186 20 10.5 20 9.634 20 8.8 20.132 8.013 20.373L6.414 12.411C10.094 14.435 17.034 15.481 23.641 15.481 30.33 15.481 37.359 14.41 41.004 12.336L38.88 25.441C34.419 23.991 28.708 21.397 25.988 20.12 25.99 20.079 26 20.041 26 20 26 18.897 25.102 18 24 18 22.897 18 22 18.897 22 20 22 21.103 22.897 22 24 22 24.308 22 24.597 21.924 24.858 21.799 27.901 23.236 33.885 25.956 38.556 27.439L36.35 41.046C35.918 41.636 32.515 44.051 23.641 44.051L23.641 46.051C32.912 46.051 38.122 43.317 38.327 41.355L40.492 27.997C41.731 28.316 42.74 28.485 43.528 28.485 44.518 28.485 45.186 28.233 45.611 27.726 45.96 27.309 46.098 26.785 45.999 26.249" id="Fill-1" fill="#7AA116"/></g></svg>