<svg width="48" height="48" viewBox="0 0 48 48" xmlns="http://www.w3.org/2000/svg" xmlns:xlink="http://www.w3.org/1999/xlink" overflow="hidden"><g id="Icon-Resource/Networking-and-Content-Delivery/Res_Amazon-VPC_Endpoints_48" stroke="none" stroke-width="1" fill="none" fill-rule="evenodd"><path d="M20.6197 27.6015 22.0337 29.0155 26.3967 24.6515C26.7877 24.2605 26.7877 23.6275 26.3967 23.2375L22.0337 18.8735 20.6197 20.2885 23.2757 22.9445 6.4907 22.9445 6.4907 24.9445 23.2767 24.9445 20.6197 27.6015ZM43.8897 23.9445C43.8897 12.9475 34.9417 3.9995 23.9447 3.9995 12.9467 3.9995 3.9997 12.9475 3.9997 23.9445 3.9997 34.9425 12.9467 43.8895 23.9447 43.8895 34.9417 43.8895 43.8897 34.9425 43.8897 23.9445L43.8897 23.9445ZM45.8897 23.9445C45.8897 36.0445 36.0457 45.8895 23.9447 45.8895 11.8447 45.8895 1.9997 36.0445 1.9997 23.9445 1.9997 11.8435 11.8447 1.9995 23.9447 1.9995 36.0457 1.9995 45.8897 11.8435 45.8897 23.9445L45.8897 23.9445ZM15.9627 26.5625 15.9627 27.0165C15.9627 27.0765 15.9677 27.1355 15.9777 27.1945 16.0417 27.5435 17.5967 35.7575 23.9447 35.7575 30.2927 35.7575 31.8477 27.5435 31.9107 27.1945 31.9217 27.1355 31.9267 27.0765 31.9267 27.0165L31.9267 16.4655C31.9267 16.0575 31.6787 15.6905 31.2997 15.5385L24.3177 12.7275C24.0797 12.6315 23.8097 12.6315 23.5717 12.7275L16.5897 15.5385C16.2107 15.6905 15.9627 16.0575 15.9627 16.4655L15.9627 21.3265 17.9627 21.3265 17.9627 17.1415 23.9447 14.7335 29.9267 17.1415 29.9267 26.9175C29.7647 27.6895 28.3467 33.7575 23.9447 33.7575 19.5427 33.7575 18.1247 27.6895 17.9627 26.9175L17.9627 26.5625 15.9627 26.5625ZM35.4167 13.3245 35.4167 26.6755C35.4167 31.2075 33.0187 39.7805 23.9447 39.7805 19.2227 39.7805 15.7337 37.3375 13.8537 32.7165 12.8547 30.2675 12.5767 27.8485 12.5007 26.6245L14.4967 26.4995C14.5527 27.3865 14.7807 29.6945 15.7067 31.9615 17.2767 35.8235 20.0487 37.7805 23.9447 37.7805 33.2797 37.7805 33.4157 27.1275 33.4167 26.6745L33.4167 13.9995 23.9447 10.1865 14.4727 13.9995 14.4727 21.3265 12.4727 21.3265 12.4727 13.3245C12.4727 12.9155 12.7207 12.5485 13.0987 12.3965L23.5717 8.1805C23.8097 8.0845 24.0797 8.0845 24.3177 8.1805L34.7897 12.3965C35.1687 12.5485 35.4167 12.9155 35.4167 13.3245L35.4167 13.3245Z" id="AWS-Amazon-VPC_Endpoints_Resource-Icon_light-bg" fill="#8C4FFF"/></g></svg>