<svg width="80" height="80" viewBox="0 0 80 80" xmlns="http://www.w3.org/2000/svg" xmlns:xlink="http://www.w3.org/1999/xlink" overflow="hidden"><g id="Icon-Architecture/64/Arch_Amazon-Fraud-Detector_64" stroke="none" stroke-width="1" fill="none" fill-rule="evenodd"><g id="Icon-Architecture-BG/64/Machine-Learning" fill="#01A88D"><rect x="0" y="0" width="80" height="80" id="Rectangle"/></g><path d="M51.7313 50C48.4446 50 45.7716 47.309 45.7716 44 45.7716 40.691 48.4446 38 51.7313 38 55.0181 38 57.691 40.691 57.691 44 57.691 47.309 55.0181 50 51.7313 50L51.7313 50ZM51.7313 36C47.35 36 43.7851 39.589 43.7851 44 43.7851 48.411 47.35 52 51.7313 52 56.1127 52 59.6776 48.411 59.6776 44 59.6776 39.589 56.1127 36 51.7313 36L51.7313 36ZM52.7246 47C52.7246 47.552 52.2806 48 51.7313 48 51.182 48 50.7381 47.552 50.7381 47 50.7381 46.448 51.182 46 51.7313 46 52.2806 46 52.7246 46.448 52.7246 47L52.7246 47ZM50.7381 45 52.7246 45 52.7246 40 50.7381 40 50.7381 45ZM61.8747 32.344 64.0769 28.631 65.7823 29.656 63.5802 33.369 61.8747 32.344ZM47.9618 29.272 46.6636 25.362 48.5479 24.728 49.8461 28.638 47.9618 29.272ZM55.7343 28.757 56.7276 24.757 58.6545 25.243 57.6612 29.243 55.7343 28.757ZM65.5171 58.883C65.098 59.307 64.4692 59.583 64.0928 59.204L58.739 53.686C59.3598 53.23 59.9329 52.716 60.4543 52.15L65.8419 57.428C66.2094 57.798 65.9561 58.44 65.5171 58.883L65.5171 58.883ZM41.7985 44C41.7985 38.486 46.2544 34 51.7313 34 57.2083 34 61.6642 38.486 61.6642 44 61.6642 49.514 57.2083 54 51.7313 54 46.2544 54 41.7985 49.514 41.7985 44L41.7985 44ZM37.8631 50.077C36.9602 48.825 35.5041 48 33.8522 48 33.7231 48 33.6019 48.028 33.4758 48.038L29.2384 40.04 33.2235 31.936C33.4311 31.963 33.6367 32 33.8522 32 34.9935 32 36.0335 31.595 36.8738 30.94L43.496 35.346C41.2313 37.531 39.8119 40.6 39.8119 44 39.8119 45.585 40.1258 47.097 40.683 48.483L37.8631 50.077ZM33.8522 56C32.2093 56 30.8724 54.654 30.8724 53 30.8724 51.346 32.2093 50 33.8522 50 35.4951 50 36.8321 51.346 36.8321 53 36.8321 54.654 35.4951 56 33.8522 56L33.8522 56ZM20.5373 59.54C20.3466 59.341 20.136 59.166 19.9165 59.001L25.2226 48.209 29.2772 51.056C29.0259 51.653 28.8858 52.311 28.8858 53 28.8858 53.636 29.0159 54.239 29.2315 54.798L20.5373 59.54ZM16.9664 66C15.3235 66 13.9866 64.654 13.9866 63 13.9866 61.346 15.3235 60 16.9664 60 18.6093 60 19.9463 61.346 19.9463 63 19.9463 64.654 18.6093 66 16.9664 66L16.9664 66ZM30.4085 49.411 26.1136 46.396 28.1548 42.246 31.526 48.61C31.1187 48.83 30.7383 49.09 30.4085 49.411L30.4085 49.411ZM21.0458 42.839C21.6031 42.031 21.9328 41.055 21.9328 40 21.9328 39.3 21.7878 38.635 21.5286 38.03L24.6356 35.602 27.0035 40.075 24.4657 45.239 21.0458 42.839ZM16.9664 43C15.3235 43 13.9866 41.654 13.9866 40 13.9866 38.346 15.3235 37 16.9664 37 18.6093 37 19.9463 38.346 19.9463 40 19.9463 41.654 18.6093 43 16.9664 43L16.9664 43ZM19.3443 21.362C19.8797 21.065 20.3505 20.676 20.7439 20.208L29.0646 25.745C28.9593 26.148 28.8858 26.564 28.8858 27 28.8858 27.831 29.1083 28.604 29.4659 29.294L25.2792 32.566 19.3443 21.362ZM13.9866 17C13.9866 15.346 15.3235 14 16.9664 14 18.6093 14 19.9463 15.346 19.9463 17 19.9463 18.654 18.6093 20 16.9664 20 15.3235 20 13.9866 18.654 13.9866 17L13.9866 17ZM30.7194 30.847C30.9111 31.006 31.1118 31.152 31.3273 31.282L28.0882 37.869 26.2278 34.357 30.7194 30.847ZM33.8522 24C35.4951 24 36.8321 25.346 36.8321 27 36.8321 28.654 35.4951 30 33.8522 30 32.2093 30 30.8724 28.654 30.8724 27 30.8724 25.346 32.2093 24 33.8522 24L33.8522 24ZM67.2365 56.004 61.692 50.572C62.9266 48.682 63.6507 46.426 63.6507 44 63.6507 37.383 58.3039 32 51.7313 32 49.2849 32 47.0093 32.748 45.1161 34.025L38.177 29.409C38.5733 28.691 38.8187 27.878 38.8187 27 38.8187 24.243 36.5907 22 33.8522 22 32.264 22 30.8644 22.768 29.9546 23.939L21.6964 18.445C21.8355 17.984 21.9328 17.506 21.9328 17 21.9328 14.243 19.7049 12 16.9664 12 14.2279 12 12 14.243 12 17 12 19.757 14.2279 22 16.9664 22 17.1164 22 17.2584 21.969 17.4045 21.955L23.687 33.811 20.3853 36.391C19.4943 35.534 18.2934 35 16.9664 35 14.2279 35 12 37.243 12 40 12 42.757 14.2279 45 16.9664 45 17.9229 45 18.809 44.713 19.5678 44.24L23.5737 47.052 18.1176 58.149C17.7461 58.06 17.3637 58 16.9664 58 14.2279 58 12 60.243 12 63 12 65.757 14.2279 68 16.9664 68 19.7049 68 21.9328 65.757 21.9328 63 21.9328 62.377 21.8057 61.787 21.5981 61.237L30.3052 56.488C31.2071 57.418 32.4626 58 33.8522 58 36.5907 58 38.8187 55.757 38.8187 53 38.8187 52.623 38.769 52.258 38.6895 51.904L41.5859 50.267C43.6857 53.699 47.4423 56 51.7313 56 53.6225 56 55.4045 55.542 56.9947 54.75L62.6803 60.61C63.1899 61.122 63.8434 61.374 64.5268 61.374 65.3483 61.374 66.2134 61.01 66.9216 60.297 68.2258 58.983 68.3668 57.142 67.2365 56.004L67.2365 56.004Z" id="Amazon-Fraud-Detector_Icon_64_Squid" fill="#FFFFFF"/></g></svg>