<svg width="48" height="48" viewBox="0 0 48 48" xmlns="http://www.w3.org/2000/svg" xmlns:xlink="http://www.w3.org/1999/xlink" overflow="hidden"><g id="Icon-Resource/Storage/Res_Amazon-Simple-Storage-Service-Glacier_Vault_48" stroke="none" stroke-width="1" fill="none" fill-rule="evenodd"><path d="M26.3723 4 34.2783 4 38.4503 10.748 26.3723 10.748 26.3723 4ZM25.3723 12.748 40.2443 12.748C40.6063 12.748 40.9413 12.552 41.1173 12.235 41.2943 11.918 41.2853 11.53 41.0953 11.223L35.6863 2.475C35.5043 2.18 35.1833 2 34.8363 2L25.3723 2C24.8193 2 24.3723 2.447 24.3723 3L24.3723 11.748C24.3723 12.301 24.8193 12.748 25.3723 12.748L25.3723 12.748ZM20.8723 10.748 8.7943 10.748 12.9663 4 20.8723 4 20.8723 10.748ZM21.8723 2 12.4083 2C12.0613 2 11.7403 2.18 11.5583 2.475L6.1493 11.223C5.9593 11.53 5.9503 11.918 6.1273 12.235 6.3033 12.552 6.6383 12.748 7.0003 12.748L21.8723 12.748C22.4253 12.748 22.8723 12.301 22.8723 11.748L22.8723 3C22.8723 2.447 22.4253 2 21.8723 2L21.8723 2ZM26.3723 43.992 39.2443 43.992 39.2443 16.248 26.3723 16.248 26.3723 43.992ZM40.2443 14.248 25.3723 14.248C24.8193 14.248 24.3723 14.695 24.3723 15.248L24.3723 44.992C24.3723 45.545 24.8193 45.992 25.3723 45.992L40.2443 45.992C40.7973 45.992 41.2443 45.545 41.2443 44.992L41.2443 15.248C41.2443 14.695 40.7973 14.248 40.2443 14.248L40.2443 14.248ZM8.0003 43.992 20.8723 43.992 20.8723 16.248 8.0003 16.248 8.0003 43.992ZM21.8723 14.248 7.0003 14.248C6.4473 14.248 6.0003 14.695 6.0003 15.248L6.0003 44.992C6.0003 45.545 6.4473 45.992 7.0003 45.992L21.8723 45.992C22.4253 45.992 22.8723 45.545 22.8723 44.992L22.8723 15.248C22.8723 14.695 22.4253 14.248 21.8723 14.248L21.8723 14.248Z" id="AWS-Amazon-S3-Glacier_Vault_Resource-Icon_light-bg" fill="#7AA116"/></g></svg>