<svg width="80" height="80" viewBox="0 0 80 80" xmlns="http://www.w3.org/2000/svg" xmlns:xlink="http://www.w3.org/1999/xlink" overflow="hidden"><g id="Icon-Architecture/64/Arch_AWS-IoT-FleetWise_64" stroke="none" stroke-width="1" fill="none" fill-rule="evenodd"><g id="Icon-Architecture-BG/64/Internet-of-Things" fill="#7AA116"><rect x="0" y="0" width="80" height="80" id="Rectangle"/></g><g id="Icon-Service/64/AWS-IoT-FleetWise_64" fill="#FFFFFF" transform="translate(12 12)"><path d="M28 48.2895 28 42.5185C28 40.5725 29.583 38.9895 31.529 38.9895L35.819 38.9895C35.089 43.3145 32.044 46.8535 28 48.2895M22 48.8085 22 42.5185C22 39.4705 19.52 36.9895 16.471 36.9895L12 36.9895C12 36.3065 12.071 35.6415 12.181 34.9895L14.769 34.9885C16.82 34.9885 18.773 34.0745 19.993 32.5445 20.947 31.3465 22.392 30.6595 23.955 30.6595 25.518 30.6595 26.962 31.3465 27.917 32.5455 29.138 34.0755 31.09 34.9885 33.142 34.9895L35.819 34.9895C35.929 35.6415 36 36.3065 36 36.9895L31.529 36.9895C28.48 36.9895 26 39.4705 26 42.5185L26 48.8085C25.348 48.9185 24.683 48.9895 24 48.9895 23.317 48.9895 22.652 48.9185 22 48.8085M12.181 38.9895 16.471 38.9895C18.417 38.9895 20 40.5725 20 42.5185L20 48.2895C15.956 46.8535 12.911 43.3145 12.181 38.9895M24 24.9895C29.213 24.9895 33.647 28.3365 35.3 32.9895L33.142 32.9895C31.693 32.9885 30.325 32.3565 29.48 31.2985 28.144 29.6215 26.13 28.6595 23.955 28.6595 21.779 28.6595 19.766 29.6215 18.429 31.2985 17.585 32.3565 16.217 32.9885 14.769 32.9885L12.7 32.9895C14.353 28.3365 18.787 24.9895 24 24.9895M24 22.9895C16.28 22.9895 10 29.2695 10 36.9895 10 44.7095 16.28 50.9895 24 50.9895 31.72 50.9895 38 44.7095 38 36.9895 38 29.2695 31.72 22.9895 24 22.9895M45.897 34.9895 42.891 34.9825C41.885 25.4465 33.798 17.9895 24 17.9895 14.903 17.9895 7.286 24.4195 5.437 32.9715 3.575 31.3655 2.294 28.9495 2.05 26.3755 2.017 26.0305 2 25.6705 2 25.2975 2 22.5375 4.045 18.6605 7.885 18.5575 8.39 18.5445 8.805 18.1575 8.854 17.6555L8.956 16.6055C8.963 16.5335 8.963 16.4605 8.954 16.3885 8.891 15.8625 8.858 15.3265 8.858 14.7975 8.858 10.0205 12.187 4.88152 16.437 3.09652 23.794 0.00552389 29.009 4.06752 30.908 5.95752 32.453 7.49552 33.659 9.45952 34.491 11.7955 34.615 12.1425 34.92 12.3935 35.285 12.4485 35.653 12.5065 36.015 12.3525 36.235 12.0565 37.451 10.4255 39.425 9.72152 41.273 10.2645 43.471 10.9115 44.916 13.1195 45.153 16.1815 45.072 16.7205 45.437 17.2255 45.975 17.3165 48.388 17.7275 54 19.4125 54 26.1595 54 34.2015 46.147 34.9645 45.897 34.9895M24 53.9895C14.626 53.9895 7 46.3635 7 36.9895 7 27.6155 14.626 19.9895 24 19.9895 33.374 19.9895 41 27.6155 41 36.9895 41 46.3635 33.374 53.9895 24 53.9895M47.097 15.5035C46.663 11.8495 44.729 9.19752 41.838 8.34652 39.709 7.72152 37.474 8.22952 35.782 9.64252 34.896 7.66052 33.735 5.94952 32.318 4.53952 27.769 0.0125239 21.543-1.21848 15.662 1.25252 10.644 3.36052 6.858 9.18352 6.858 14.7975 6.858 15.3695 6.891 15.9485 6.955 16.5175L6.944 16.6335C2.631 17.2515 0 21.4525 0 25.2975 0 25.7375 0.021 26.1595 0.06 26.5655 0.396 30.1205 2.294 33.3355 5.089 35.2295 5.036 35.8095 5 36.3955 5 36.9895 5 47.4665 13.523 55.9895 24 55.9895 34.477 55.9895 43 47.4665 43 36.9895 43 36.9875 43 36.9845 43 36.9825L45.976 36.9865C46.076 36.9785 56 36.0635 56 26.1595 56 18.4725 49.939 16.1625 47.097 15.5035" id="Fill-1"/></g></g></svg>