<svg width="48" height="48" viewBox="0 0 48 48" xmlns="http://www.w3.org/2000/svg" xmlns:xlink="http://www.w3.org/1999/xlink" overflow="hidden"><g id="Icon-Resource/Storage/Res_Amazon-Elastic-File-System_Elastic-Throughput_48" stroke="none" stroke-width="1" fill="none" fill-rule="evenodd"><path d="M10.104 13 11.433 13C11.863 13 12.273 13.185 12.557 13.507 12.842 13.829 12.975 14.259 12.921 14.686L12.473 18.273 17.036 12 15 12C14.664 12 14.35 11.831 14.165 11.55 13.98 11.27 13.948 10.915 14.081 10.606L16.483 5 10.905 5 10.104 13ZM8.44 14.506C8.156 14.193 8.017 13.772 8.059 13.351L8.959 4.351C9.036 3.581 9.677 3 10.452 3L17.242 3C17.748 3 18.215 3.252 18.494 3.675 18.772 4.097 18.819 4.627 18.62 5.091L16.516 10 17.036 10C17.791 10 18.474 10.418 18.818 11.092 19.161 11.766 19.098 12.564 18.653 13.176L11.808 22.588C11.616 22.853 11.312 23 11 23 10.876 23 10.751 22.978 10.631 22.93 10.208 22.762 9.951 22.329 10.007 21.876L10.867 15 9.552 15C9.129 15 8.724 14.82 8.44 14.506L8.44 14.506ZM19.618 31 23.381 31 21.5 27.236 19.618 31ZM17.105 31.553 20.605 24.553C20.945 23.875 22.054 23.875 22.394 24.553L25.894 31.553C26.049 31.863 26.033 32.231 25.85 32.526 25.667 32.82 25.346 33 25 33L18 33C17.653 33 17.332 32.82 17.149 32.526 16.966 32.231 16.95 31.863 17.105 31.553L17.105 31.553ZM33 35C34.102 35 35 34.103 35 33 35 31.897 34.102 31 33 31 31.897 31 31 31.897 31 33 31 34.103 31.897 35 33 35L33 35ZM33 37C30.793 37 29 35.206 29 33 29 30.794 30.793 29 33 29 35.206 29 37 30.794 37 33 37 35.206 35.206 37 33 37L33 37ZM8 35 12 35 12 31 8 31 8 35ZM6 30C6 29.448 6.447 29 7 29L13 29C13.552 29 14 29.448 14 30L14 36C14 36.552 13.552 37 13 37L7 37C6.447 37 6 36.552 6 36L6 30ZM45 19 43 19 43 21 44 21 44 44 9 44 9 43 7 43 7 45C7 45.552 7.447 46 8 46L45 46C45.552 46 46 45.552 46 45L46 20C46 19.448 45.552 19 45 19L45 19ZM40 41 3 41C2.447 41 2 40.552 2 40L2 17C2 15.346 3.345 14 5 14L6 14 6 16 5 16C4.448 16 4 16.449 4 17L4 39 39 39 39 17C39 16.449 38.551 16 38 16L34 16C33.541 16 33.141 15.688 33.03 15.243L32.219 12 25.781 12 24.969 15.243C24.858 15.688 24.458 16 24 16L21 16 21 14 23.218 14 23.84 11.515C24.063 10.623 24.861 10 25.781 10L32.218 10C33.138 10 33.936 10.623 34.159 11.515L34.781 14 38 14C39.654 14 41 15.346 41 17L41 40C41 40.552 40.552 41 40 41L40 41Z" id="Fill-1" fill="#7AA116"/></g></svg>