<svg width="80" height="80" viewBox="0 0 80 80" xmlns="http://www.w3.org/2000/svg" xmlns:xlink="http://www.w3.org/1999/xlink" overflow="hidden"><g id="Icon-Architecture/64/Arch_FreeRTOS_64" stroke="none" stroke-width="1" fill="none" fill-rule="evenodd"><g id="Icon-Architecture-BG/64/Internet-of-Things" fill="#7AA116"><rect x="0" y="0" width="80" height="80" id="Rectangle"/></g><path d="M27.943 37.498C29.323 37.498 30.445 38.621 30.445 40 30.445 41.38 29.323 42.503 27.943 42.503 26.563 42.503 25.44 41.38 25.44 40 25.44 38.621 26.563 37.498 27.943 37.498L27.943 37.498ZM35.847 29.558C36.402 30.881 37.574 31.878 39 32.205L39 50.868C38.322 50.807 37.651 50.68 37 50.495L37 40C37 39.448 36.552 39 36 39L32.324 39C31.998 37.571 30.996 36.397 29.667 35.844 30.773 32.975 33 30.709 35.847 29.558L35.847 29.558ZM40 25.32C41.38 25.32 42.502 26.443 42.502 27.823 42.502 29.203 41.38 30.325 40 30.325 38.62 30.325 37.498 29.203 37.498 27.823 37.498 26.443 38.62 25.32 40 25.32L40 25.32ZM50.334 35.844C49.005 36.397 48.002 37.571 47.675 39L44 39C43.447 39 43 39.448 43 40L43 50.496C42.35 50.681 41.679 50.807 41 50.868L41 32.205C42.425 31.878 43.598 30.88 44.153 29.556 47.001 30.706 49.226 32.971 50.334 35.844L50.334 35.844ZM54.559 40C54.559 41.38 53.436 42.503 52.056 42.503 50.676 42.503 49.554 41.38 49.554 40 49.554 38.621 50.676 37.498 52.056 37.498 53.436 37.498 54.559 38.621 54.559 40L54.559 40ZM45 49.7 45 41 47.675 41C47.993 42.39 48.951 43.533 50.224 44.104 49.213 46.507 47.343 48.51 45 49.7L45 49.7ZM31.496 46.932C31.448 46.875 31.399 46.82 31.326 46.721 30.681 45.918 30.159 45.043 29.765 44.109 31.045 43.54 32.005 42.393 32.324 41L35 41 35 49.697C33.662 49.023 32.461 48.092 31.496 46.932L31.496 46.932ZM27.775 44.486C28.254 45.738 28.91 46.907 29.735 47.932 29.807 48.033 29.891 48.133 29.967 48.222 31.314 49.842 33.059 51.11 35 51.903L35 57 37 57 37 52.555C37.652 52.711 38.318 52.819 39 52.87L39 57 41 57 41 52.87C41.682 52.819 42.348 52.711 43 52.556L43 57 45 57 45 51.903C48.307 50.537 50.943 47.806 52.215 44.487 54.624 44.401 56.559 42.429 56.559 40 56.559 37.617 54.692 35.68 52.345 35.527 51.047 31.802 48.172 28.893 44.473 27.546 44.328 25.195 42.387 23.32 40 23.32 37.612 23.32 35.672 25.195 35.525 27.547 31.829 28.895 28.953 31.807 27.656 35.527 25.308 35.678 23.44 37.616 23.44 40 23.44 42.425 25.371 44.395 27.775 44.486L27.775 44.486ZM18 61 62 61 62 20 18 20 18 61ZM68 23 68 21 64 21 64 19C64 18.448 63.552 18 63 18L17 18C16.447 18 16 18.448 16 19L16 21 12 21 12 23 16 23 16 27 12 27 12 29 16 29 16 33 12 33 12 35 16 35 16 39 12 39 12 41 16 41 16 45 12 45 12 47 16 47 16 51 12 51 12 53 16 53 16 57 12 57 12 59 16 59 16 62C16 62.553 16.447 63 17 63L63 63C63.552 63 64 62.553 64 62L64 59 68 59 68 57 64 57 64 53 68 53 68 51 64 51 64 47 68 47 68 45 64 45 64 41 68 41 68 39 64 39 64 35 68 35 68 33 64 33 64 29 68 29 68 27 64 27 64 23 68 23Z" id="FreeRTOS_Icon_64_Squid" fill="#FFFFFF"/></g></svg>