<svg width="48" height="48" viewBox="0 0 48 48" xmlns="http://www.w3.org/2000/svg" xmlns:xlink="http://www.w3.org/1999/xlink" overflow="hidden"><g id="Icon-Resource/Containers/Res_Amazon-Elastic-Container-Service_ECS-Service-Connect_48" stroke="none" stroke-width="1" fill="none" fill-rule="evenodd"><path d="M44 37.5C44 38.327 43.327 39 42.5 39 41.673 39 41 38.327 41 37.5 41 36.673 41.673 36 42.5 36 43.327 36 44 36.673 44 37.5L44 37.5ZM42.5 16.001C43.327 16.001 44 16.674 44 17.501 44 18.328 43.327 19.001 42.5 19.001 41.673 19.001 41 18.328 41 17.501 41 16.674 41.673 16.001 42.5 16.001L42.5 16.001ZM10 42 32 42 32 12 10 12 10 42ZM8 11 8 36 4 36 4 6 26 6 26 10 9 10C8.447 10 8 10.448 8 11L8 11ZM42.5 26.001C43.327 26.001 44 26.674 44 27.501 44 28.328 43.327 29.001 42.5 29.001 41.673 29.001 41 28.328 41 27.501 41 26.674 41.673 26.001 42.5 26.001L42.5 26.001ZM42.5 31.001C44.43 31.001 46 29.431 46 27.501 46 25.571 44.43 24.001 42.5 24.001 41.109 24.001 39.915 24.823 39.351 26.001L36.204 26.001 40.923 20.608C41.399 20.851 41.93 21.001 42.5 21.001 44.43 21.001 46 19.431 46 17.501 46 15.571 44.43 14.001 42.5 14.001 40.57 14.001 39 15.571 39 17.501 39 18.131 39.181 18.715 39.474 19.226L34 25.482 34 11C34 10.448 33.553 10 33 10L28 10 28 5C28 4.448 27.553 4 27 4L3 4C2.447 4 2 4.448 2 5L2 37C2 37.552 2.447 38 3 38L8 38 8 43C8 43.552 8.447 44 9 44L33 44C33.553 44 34 43.552 34 43L34 28.628 39.508 35.711C39.193 36.236 39 36.844 39 37.5 39 39.43 40.57 41 42.5 41 44.43 41 46 39.43 46 37.5 46 35.57 44.43 34 42.5 34 41.957 34 41.448 34.135 40.989 34.357L36.045 28.001 39.051 28.001C39.296 29.693 40.742 31.001 42.5 31.001L42.5 31.001ZM20 37 30 37 30 35 20 35 20 37ZM20 28 30 28 30 26 20 26 20 28ZM20 19 30 19 30 17 20 17 20 19ZM14 37 16 37 16 35 14 35 14 37ZM13 39 17 39C17.553 39 18 38.552 18 38L18 34C18 33.448 17.553 33 17 33L13 33C12.447 33 12 33.448 12 34L12 38C12 38.552 12.447 39 13 39L13 39ZM14 28 16 28 16 26 14 26 14 28ZM13 30 17 30C17.553 30 18 29.552 18 29L18 25C18 24.448 17.553 24 17 24L13 24C12.447 24 12 24.448 12 25L12 29C12 29.552 12.447 30 13 30L13 30ZM14 19 16 19 16 17 14 17 14 19ZM13 21 17 21C17.553 21 18 20.552 18 20L18 16C18 15.448 17.553 15 17 15L13 15C12.447 15 12 15.448 12 16L12 20C12 20.552 12.447 21 13 21L13 21Z" id="Fill-1" fill="#ED7100"/></g></svg>