<svg width="80" height="80" viewBox="0 0 80 80" xmlns="http://www.w3.org/2000/svg" xmlns:xlink="http://www.w3.org/1999/xlink" overflow="hidden"><g id="Icon-Architecture/64/Arch_AWS-Console-Mobile-Application-_64" stroke="none" stroke-width="1" fill="none" fill-rule="evenodd"><g id="Icon-Architecture-BG/64/Application-Integration" fill="#E7157B"><rect x="0" y="0" width="80" height="80" id="Rectangle"/></g><g id="Icon-Service/64/AWS-Console-Mobile-Application_64" fill="#FFFFFF" transform="translate(14 12)"><path d="M0 33.823 24.442 33.823 24.442 31.823 0 31.823 0 33.823ZM8.452 27.92 26.243 27.92 26.243 25.92 8.452 25.92 8.452 27.92ZM31.182 28.906C31.668 28.782 31.987 28.317 31.928 27.818 31.908 27.662 31.898 27.502 31.898 27.34 31.898 25.939 32.896 24.376 34.123 23.857 34.689 23.617 35.213 23.521 35.688 23.521 37.04 23.521 37.995 24.296 38.412 24.715 38.878 25.181 39.244 25.785 39.5 26.509 39.623 26.858 39.929 27.11 40.295 27.165 40.659 27.217 41.027 27.067 41.247 26.77 41.504 26.421 41.897 26.269 42.272 26.382 42.754 26.522 43.079 27.057 43.149 27.821 43.122 28.322 43.474 28.774 43.979 28.861 44.813 29.004 46.214 29.513 46.214 31.305 46.214 33.416 44.35 33.702 44.064 33.735L31.816 33.722C30.492 33.721 29.407 32.721 29.345 31.439L29.341 31.276C29.341 29.705 30.342 29.12 31.182 28.906L31.182 28.906ZM31.814 35.722 44.145 35.731C45.552 35.617 48.214 34.545 48.214 31.305 48.214 28.903 46.691 27.584 45.056 27.069 44.73 25.544 43.737 24.726 42.834 24.462 42.149 24.262 41.444 24.325 40.822 24.61 40.541 24.121 40.209 23.684 39.828 23.303 38.06 21.527 35.635 21.045 33.344 22.015 31.41 22.834 29.945 25.064 29.899 27.236 28.282 27.94 27.341 29.401 27.341 31.276 27.341 31.368 27.344 31.459 27.348 31.542 27.461 33.884 29.423 35.72 31.814 35.722L31.814 35.722ZM32.509 5.465 34.588 5.465 34.588 3.465 32.509 3.465 32.509 5.465ZM35.975 5.465 42.905 5.465 42.905 3.465 35.975 3.465 35.975 5.465ZM48.279 54.055 27.134 54.055C25.682 54.055 24.5 52.894 24.5 51.467L24.5 49.818 50.913 49.818 50.913 51.467C50.913 52.894 49.731 54.055 48.279 54.055L48.279 54.055ZM24.5 6.93 24.5 5.653C24.5 3.639 26.165 2 28.212 2L47.201 2C49.248 2 50.913 3.639 50.913 5.653L50.913 6.93 24.5 6.93ZM52.913 5.649C52.913 2.729 50.661 0.319 47.784 0.03 47.593 0.01 47.398 0 47.201 0L28.212 0C25.062 0 22.5 2.536 22.5 5.653L22.5 9.135 22.5 22.763 24.5 22.763 24.5 9.135 24.5 8.93 50.913 8.93 50.913 47.818 24.5 47.818 24.5 37.727 22.5 37.727 22.5 51.467C22.5 53.997 24.579 56.055 27.134 56.055L48.279 56.055C50.834 56.055 52.913 53.997 52.913 51.467L52.913 5.653 52.913 5.649Z" id="Fill-1"/></g></g></svg>