<svg width="80" height="80" viewBox="0 0 80 80" xmlns="http://www.w3.org/2000/svg" xmlns:xlink="http://www.w3.org/1999/xlink" fill="none" overflow="hidden"><defs><clipPath id="clip0_15_116"><rect x="0" y="0" width="80" height="80" fill="#FFFFFF"/></clipPath></defs><g clip-path="url(#clip0_15_116)"><rect x="0" y="0" width="80" height="80" fill="#DD344C"/><path d="M63.9 20 21.11 20C18.85 20 17.01 21.84 17.01 24.1L17.01 53.91C17.01 56.16 18.84 58 21.09 58L42.01 58 42.01 65.79C42.01 66.17 42.23 66.52 42.58 66.69 42.72 66.76 42.87 66.79 43.01 66.79 43.23 66.79 43.45 66.72 43.63 66.57L54.43 57.99 63.9 57.99C66.16 57.99 68 56.15 68 53.89L68 24.1C68 21.84 66.16 20 63.9 20ZM66 53.9C66 55.06 65.06 56 63.9 56L54.08 56C53.85 56 53.63 56.08 53.46 56.22L44.01 63.73 44.01 57.01C44.01 56.46 43.56 56.01 43.01 56.01L21.09 56.01C19.94 56.01 19.01 55.07 19.01 53.92L19.01 24.11C19.01 22.95 19.95 22.01 21.11 22.01L63.9 22.01C65.06 22.01 66 22.95 66 24.11L66 53.9ZM14 17.1 14 49C14 49.55 14.45 50 15 50L15 52C13.35 52 12 50.65 12 49L12 17.1C12 14.84 13.84 13 16.1 13L53.89 13C56.15 13 57.99 14.84 57.99 17.1L57.99 18 55.99 18 55.99 17.1C55.99 15.94 55.05 15 53.89 15L16.1 15C14.94 15 14 15.94 14 17.1ZM48.34 41.12C47.3 40.45 46.15 40 44.97 39.74 47.53 38.83 49.38 36.39 49.38 33.52 49.38 29.88 46.42 26.92 42.78 26.92 39.14 26.92 36.18 29.88 36.18 33.52 36.18 36.38 38.01 38.81 40.55 39.73 35.66 40.83 31.98 45.47 31.98 51 31.98 51.55 32.43 52 32.98 52L52.59 52C53.14 52 53.59 51.55 53.59 51 53.59 46.98 51.58 43.19 48.35 41.12L48.34 41.12ZM38.18 33.52C38.18 30.98 40.25 28.92 42.78 28.92 45.31 28.92 47.38 30.98 47.38 33.52 47.38 36.06 45.32 38.12 42.78 38.12 40.24 38.12 38.18 36.06 38.18 33.52ZM34.02 50C34.48 45.22 38.23 41.48 42.78 41.48 44.36 41.48 45.91 41.94 47.26 42.81 49.66 44.35 51.24 47.05 51.53 50.01L34.02 50.01 34.02 50Z" fill="#FFFFFF"/></g></svg>