<svg width="48" height="48" viewBox="0 0 48 48" xmlns="http://www.w3.org/2000/svg" xmlns:xlink="http://www.w3.org/1999/xlink" overflow="hidden"><g id="Icon-Resource/IoT/Res_AWS-IoT-Greengrass_Protocol_48" stroke="none" stroke-width="1" fill="none" fill-rule="evenodd"><path d="M19 25 23 25 23 23 19 23 19 25ZM13 25 17 25 17 23 13 23 13 25ZM7 25 11 25 11 23 7 23 7 25ZM4 29 44 29 44 19 4 19 4 29ZM35.917 42C35.09 42 34.417 41.327 34.417 40.5 34.417 39.673 35.09 39 35.917 39 36.744 39 37.417 39.673 37.417 40.5 37.417 41.327 36.744 42 35.917 42L35.917 42ZM25.501 42.5C25.501 43.327 24.828 44 24.001 44 23.174 44 22.501 43.327 22.501 42.5 22.501 41.673 23.174 41 24.001 41 24.828 41 25.501 41.673 25.501 42.5L25.501 42.5ZM11.917 42C11.09 42 10.417 41.327 10.417 40.5 10.417 39.673 11.09 39 11.917 39 12.744 39 13.417 39.673 13.417 40.5 13.417 41.327 12.744 42 11.917 42L11.917 42ZM10.499 7.5C10.499 6.673 11.172 6 11.999 6 12.826 6 13.499 6.673 13.499 7.5 13.499 8.327 12.826 9 11.999 9 11.172 9 10.499 8.327 10.499 7.5L10.499 7.5ZM22.499 5.5C22.499 4.673 23.172 4 23.999 4 24.826 4 25.499 4.673 25.499 5.5 25.499 6.327 24.826 7 23.999 7 23.172 7 22.499 6.327 22.499 5.5L22.499 5.5ZM34.501 7.5C34.501 6.673 35.174 6 36.001 6 36.828 6 37.501 6.673 37.501 7.5 37.501 8.327 36.828 9 36.001 9 35.174 9 34.501 8.327 34.501 7.5L34.501 7.5ZM45 17 33.379 17 36.696 13.783C36.891 13.595 37 13.336 37 13.065L37 10.837C38.441 10.404 39.501 9.08 39.501 7.5 39.501 5.57 37.931 4 36.001 4 34.071 4 32.501 5.57 32.501 7.5 32.501 9.08 33.56 10.403 35 10.836L35 12.642 30.506 17 25 17 25 8.836C26.44 8.403 27.499 7.08 27.499 5.5 27.499 3.57 25.929 2 23.999 2 22.069 2 20.499 3.57 20.499 5.5 20.499 7.08 21.559 8.404 23 8.837L23 17 17.492 17 13 12.642 13 10.836C14.44 10.403 15.499 9.08 15.499 7.5 15.499 5.57 13.929 4 11.999 4 10.069 4 8.499 5.57 8.499 7.5 8.499 9.08 9.559 10.404 11 10.837L11 13.065C11 13.336 11.109 13.595 11.304 13.783L14.62 17 3 17C2.447 17 2 17.448 2 18L2 30C2 30.552 2.447 31 3 31L15.023 31 11.302 34.625C11.109 34.813 11 35.072 11 35.341L11 37.137C9.517 37.543 8.417 38.89 8.417 40.5 8.417 42.43 9.987 44 11.917 44 13.847 44 15.417 42.43 15.417 40.5 15.417 38.951 14.397 37.648 13 37.189L13 35.763 17.89 31 23 31 23 39.164C21.56 39.597 20.501 40.92 20.501 42.5 20.501 44.43 22.071 46 24.001 46 25.931 46 27.501 44.43 27.501 42.5 27.501 40.92 26.441 39.596 25 39.163L25 31 30.086 31 35 35.765 35 37.137C33.517 37.543 32.417 38.89 32.417 40.5 32.417 42.43 33.987 44 35.917 44 37.847 44 39.417 42.43 39.417 40.5 39.417 38.951 38.397 37.648 37 37.189L37 35.341C37 35.071 36.891 34.812 36.696 34.624L32.959 31 45 31C45.553 31 46 30.552 46 30L46 18C46 17.448 45.553 17 45 17L45 17Z" id="Fill-1" fill="#7AA116"/></g></svg>