<svg width="48" height="48" viewBox="0 0 48 48" xmlns="http://www.w3.org/2000/svg" xmlns:xlink="http://www.w3.org/1999/xlink" overflow="hidden"><g id="Icon-Resource/Analytics/Res_AWS-Glue_Data-Quality_48" stroke="none" stroke-width="1" fill="none" fill-rule="evenodd"><path d="M30.283 24.375 31.845 25.624 27.845 30.624C27.648 30.87 27.358 31 27.063 31 26.873 31 26.679 30.945 26.51 30.832L23.51 28.832 24.619 27.167 26.856 28.659 30.283 24.375ZM43.491 43.436C43.006 43.923 42.272 44.236 41.819 43.783L35.356 37.168C36.043 36.612 36.669 35.985 37.225 35.298L43.846 41.741C44.286 42.181 44 42.927 43.491 43.436L43.491 43.436ZM17.054 27.472C17.054 21.698 21.753 17 27.527 17 33.302 17 38 21.698 38 27.472 38 33.247 33.302 37.944 27.527 37.944 21.753 37.944 17.054 33.247 17.054 27.472L17.054 27.472ZM45.25 40.317 38.367 33.618C39.401 31.802 40 29.707 40 27.472 40 20.595 34.405 15 27.527 15 20.649 15 15.054 20.595 15.054 27.472 15.054 34.349 20.649 39.944 27.527 39.944 29.764 39.944 31.859 39.345 33.676 38.31L40.397 45.189C40.935 45.728 41.628 45.992 42.352 45.992 43.227 45.992 44.149 45.606 44.905 44.85 46.296 43.459 46.448 41.515 45.25 40.317L45.25 40.317ZM27.527 34.689C23.48 34.689 20.309 31.519 20.309 27.472 20.309 23.425 23.48 20.254 27.527 20.254 31.574 20.254 34.745 23.425 34.745 27.472 34.745 31.519 31.574 34.689 27.527 34.689L27.527 34.689ZM27.527 18.254C22.358 18.254 18.309 22.303 18.309 27.472 18.309 32.641 22.358 36.689 27.527 36.689 32.696 36.689 36.745 32.641 36.745 27.472 36.745 22.303 32.696 18.254 27.527 18.254L27.527 18.254ZM16.064 4C23.687 4 29 6.107 29 8 29 9.966 24.535 12 17.064 12 9.365 12 4 9.892 4 8 4 6.033 8.512 4 16.064 4L16.064 4ZM16.135 44C8.539 44 4 41.878 4 39.828L4 32.509C6.288 34.367 10.329 35.646 15.039 35.768L15.09 33.769C8.554 33.601 4 31.12 4 29L4 22.465C5.92 23.971 9.093 25.051 12.981 25.375L13.147 23.382C7.497 22.912 4 20.741 4 19L4 11.193C6.785 13.104 12.055 14 17.064 14 22.441 14 26.668 12.992 29 11.316L29 13 31 13 31 8C31 3.877 23.258 2 16.064 2 7.652 2 2 4.411 2 8L2 39.828C2 43.52 7.68 46 16.135 46 22.227 46 27.419 44.68 29.684 42.555L28.315 41.096C26.465 42.833 21.569 44 16.135 44L16.135 44Z" id="Fill-1" fill="#8C4FFF"/></g></svg>