<svg width="48" height="48" viewBox="0 0 48 48" xmlns="http://www.w3.org/2000/svg" xmlns:xlink="http://www.w3.org/1999/xlink" overflow="hidden"><g id="Icon-Resource/Analytics/Res_Amazon-MSK_Amazon-MSK-Connect_48" stroke="none" stroke-width="1" fill="none" fill-rule="evenodd"><path d="M29.035 38.3799 30.133 39.4029 23.998 45.9999 17.865 39.4029 18.964 38.3799 23 42.7229 23 27.1029 7.961 19.3869 9.981 24.9579 8.569 25.4689 5.501 16.9989 14.17 14.5539 14.579 15.9979 8.871 17.6069 24 25.3689 39.126 17.6079 33.422 15.9999 33.83 14.5549 42.501 17.0019 39.431 25.4699 38.019 24.9599 40.041 19.3849 25 27.1029 25 42.7199 29.035 38.3799ZM41.5 37.9999C40.121 37.9999 39 36.8789 39 35.4999 39 34.1219 40.121 32.9999 41.5 32.9999 42.879 32.9999 44 34.1219 44 35.4999 44 36.8789 42.879 37.9999 41.5 37.9999L41.5 37.9999ZM41.5 30.9999C40.984 30.9999 40.496 31.1049 40.035 31.2659L35.473 23.9699 33.778 25.0299 38.33 32.3109C37.738 32.8999 37.315 33.6539 37.122 34.4949L27 34.4949 27 36.4949 37.119 36.4949C37.574 38.4979 39.361 39.9999 41.5 39.9999 43.981 39.9999 46 37.9819 46 35.4999 46 33.0189 43.981 30.9999 41.5 30.9999L41.5 30.9999ZM6.5 37.9999C5.121 37.9999 4 36.8789 4 35.4999 4 34.1219 5.121 32.9999 6.5 32.9999 7.879 32.9999 9 34.1219 9 35.4999 9 36.8789 7.879 37.9999 6.5 37.9999L6.5 37.9999ZM21 36.4949 21 34.4949 10.878 34.4949C10.684 33.6539 10.262 32.8999 9.67 32.3109L14.222 25.0299 12.526 23.9699 7.965 31.2659C7.503 31.1049 7.015 30.9999 6.5 30.9999 4.018 30.9999 2 33.0189 2 35.4999 2 37.9819 4.018 39.9999 6.5 39.9999 8.639 39.9999 10.426 38.4979 10.881 36.4949L21 36.4949ZM24 4.9999C25.379 4.9999 26.5 6.1219 26.5 7.4999 26.5 8.8789 25.379 9.9999 24 9.9999 22.621 9.9999 21.5 8.8789 21.5 7.4999 21.5 6.1219 22.621 4.9999 24 4.9999L24 4.9999ZM17.453 19.8629 22.536 11.7349C22.997 11.8949 23.484 11.9999 24 11.9999 24.515 11.9999 25.003 11.8949 25.465 11.7339L30.547 19.8629 32.242 18.8019 27.17 10.6899C27.99 9.8739 28.5 8.7459 28.5 7.4999 28.5 5.0189 26.481 2.9999 24 2.9999 21.518 2.9999 19.5 5.0189 19.5 7.4999 19.5 8.7459 20.01 9.8739 20.831 10.6899L15.758 18.8019 17.453 19.8629Z" id="Fill-1" fill="#8C4FFF"/></g></svg>