<svg width="48" height="48" viewBox="0 0 48 48" xmlns="http://www.w3.org/2000/svg" xmlns:xlink="http://www.w3.org/1999/xlink" overflow="hidden"><g id="Icon-Resource/Networking-and-Content-Delivery/Res_Amazon-CloudFront_Download-Distribution_48" stroke="none" stroke-width="1" fill="none" fill-rule="evenodd"><path d="M15.9581 27.6694 17.3721 29.0834 15.9581 30.4974 14.5441 29.0834 15.9581 27.6694ZM18.8531 30.5644 21.8131 33.5244 20.3991 34.9394 17.4381 31.9784 18.8531 30.5644ZM29.1501 30.5644 30.5641 31.9784 27.6041 34.9394 26.1891 33.5244 29.1501 30.5644ZM32.0451 27.6694 33.4591 29.0834 32.0451 30.4974 30.6311 29.0834 32.0451 27.6694ZM25.0011 35.2984 26.1221 36.4194 24.7081 37.8344C24.5131 38.0294 24.2571 38.1274 24.0011 38.1274 23.7451 38.1274 23.4891 38.0294 23.2941 37.8344L21.8801 36.4194 23.0011 35.2984 23.0011 34.2524 25.0011 34.2524 25.0011 35.2984ZM23.0011 16.4624 25.0011 16.4624 25.0011 12.9044 23.0011 12.9044 23.0011 16.4624ZM23.0011 21.7994 25.0011 21.7994 25.0011 18.2414 23.0011 18.2414 23.0011 21.7994ZM23.0011 27.1364 25.0011 27.1364 25.0011 23.5784 23.0011 23.5784 23.0011 27.1364ZM23.0011 32.4734 25.0011 32.4734 25.0011 28.9154 23.0011 28.9154 23.0011 32.4734ZM23.0011 11.1254 25.0011 11.1254 25.0011 9.1254 23.0011 9.1254 23.0011 11.1254ZM24.0011 44.0024C12.9731 44.0024 4.0001 35.0294 4.0001 24.0014 4.0001 12.9724 12.9731 4.0004 24.0011 4.0004 35.0291 4.0004 44.0021 12.9724 44.0021 24.0014 44.0021 35.0294 35.0291 44.0024 24.0011 44.0024L24.0011 44.0024ZM24.0011 2.0004C11.8691 2.0004 2.0001 11.8694 2.0001 24.0014 2.0001 36.1324 11.8691 46.0024 24.0011 46.0024 36.1331 46.0024 46.0021 36.1324 46.0021 24.0014 46.0021 11.8694 36.1331 2.0004 24.0011 2.0004L24.0011 2.0004Z" id="AWS-Amazon-CloudFront_Download-distribution_Resource-Icon_light-bg" fill="#8C4FFF"/></g></svg>