<svg width="48" height="48" viewBox="0 0 48 48" xmlns="http://www.w3.org/2000/svg" xmlns:xlink="http://www.w3.org/1999/xlink" overflow="hidden"><g id="Icon-Resource/Media-Services/Res_AWS-Elemental-MediaConnect_Gateway_48" stroke="none" stroke-width="1" fill="none" fill-rule="evenodd"><path d="M22.0007 21.2011 27.0947 23.9681 22.0007 26.7571 22.0007 21.2011ZM20.4897 18.6601C20.1867 18.8401 20.0007 19.1671 20.0007 19.5191L20.0007 28.4451C20.0007 28.7981 20.1877 29.1251 20.4907 29.3051 20.6477 29.3981 20.8237 29.4451 21.0007 29.4451 21.1657 29.4451 21.3307 29.4041 21.4807 29.3221L29.6627 24.8421C29.9837 24.6661 30.1837 24.3291 30.1827 23.9631 30.1817 23.5971 29.9807 23.2611 29.6597 23.0861L21.4787 18.6401C21.1677 18.4731 20.7937 18.4791 20.4897 18.6601L20.4897 18.6601ZM43.9557 25.4221C43.8427 25.9441 43.5327 26.3911 43.0837 26.6801 42.6347 26.9711 42.0997 27.0661 41.5777 26.9541 41.0567 26.8411 40.6087 26.5311 40.3197 26.0821 40.0297 25.6331 39.9337 25.0981 40.0457 24.5761 40.1587 24.0551 40.4687 23.6081 40.9167 23.3191 40.9177 23.3191 40.9177 23.3191 40.9177 23.3181 41.2437 23.1081 41.6167 22.9991 41.9957 22.9991 42.1387 22.9991 42.2807 23.0141 42.4237 23.0451 42.9447 23.1581 43.3927 23.4681 43.6817 23.9161 43.9717 24.3661 44.0677 24.9001 43.9557 25.4221L43.9557 25.4221ZM33.0007 29.1791 24.0007 34.3741 15.0007 29.1791 15.0007 18.7861 24.0007 13.5901 33.0007 18.7861 33.0007 29.1791ZM35.4237 40.0451C35.9447 40.1581 36.3927 40.4681 36.6817 40.9161 36.9717 41.3661 37.0677 41.9001 36.9557 42.4221 36.8427 42.9441 36.5327 43.3911 36.0837 43.6801 35.6347 43.9701 35.0997 44.0641 34.5777 43.9541 34.0567 43.8411 33.6087 43.5311 33.3197 43.0821 33.0297 42.6331 32.9337 42.0981 33.0457 41.5761 33.1587 41.0551 33.4687 40.6081 33.9167 40.3191 33.9177 40.3191 33.9177 40.3191 33.9177 40.3181 34.2437 40.1081 34.6167 39.9991 34.9957 39.9991 35.1387 39.9991 35.2807 40.0141 35.4237 40.0451L35.4237 40.0451ZM13.6817 43.0821C13.3927 43.5311 12.9447 43.8411 12.4237 43.9541 11.8967 44.0671 11.3657 43.9691 10.9167 43.6801 10.4687 43.3911 10.1587 42.9441 10.0457 42.4221 9.93374 41.9001 10.0297 41.3661 10.3197 40.9161 10.6087 40.4681 11.0567 40.1581 11.5777 40.0451 11.7207 40.0141 11.8627 39.9991 12.0057 39.9991 12.3847 39.9991 12.7577 40.1081 13.0837 40.3181 13.0837 40.3191 13.0837 40.3191 13.0847 40.3191 13.5327 40.6081 13.8427 41.0551 13.9557 41.5761 14.0677 42.0981 13.9717 42.6331 13.6817 43.0821L13.6817 43.0821ZM7.95574 25.4221C7.84274 25.9441 7.53274 26.3911 7.08374 26.6801 6.63474 26.9711 6.09974 27.0661 5.57774 26.9541 5.05674 26.8411 4.60874 26.5311 4.31974 26.0821 4.02974 25.6331 3.93374 25.0981 4.04574 24.5761 4.15874 24.0551 4.46874 23.6081 4.91674 23.3191 4.91774 23.3191 4.91774 23.3191 4.91774 23.3181 5.24374 23.1081 5.61674 22.9991 5.99574 22.9991 6.13874 22.9991 6.28074 23.0141 6.42374 23.0451 6.94474 23.1581 7.39274 23.4681 7.68174 23.9161 7.97174 24.3661 8.06774 24.9001 7.95574 25.4221L7.95574 25.4221ZM11.5777 7.9541C11.0567 7.8411 10.6087 7.5311 10.3197 7.0821 10.0297 6.6331 9.93374 6.0981 10.0457 5.5761 10.1587 5.0551 10.4687 4.6081 10.9167 4.3191 10.9177 4.3191 10.9177 4.3191 10.9177 4.3181 11.2437 4.1081 11.6167 3.9991 11.9957 3.9991 12.1387 3.9991 12.2807 4.0141 12.4237 4.0451 12.9447 4.1581 13.3927 4.4681 13.6817 4.9161 13.9717 5.3661 14.0677 5.9001 13.9557 6.4221 13.8427 6.9441 13.5327 7.3911 13.0837 7.6801 12.6347 7.9701 12.1007 8.0651 11.5777 7.9541L11.5777 7.9541ZM33.3197 4.9161C33.6087 4.4681 34.0567 4.1581 34.5777 4.0451 34.7207 4.0141 34.8627 3.9991 35.0057 3.9991 35.3847 3.9991 35.7577 4.1081 36.0837 4.3181 36.0837 4.3191 36.0837 4.3191 36.0847 4.3191 36.5327 4.6081 36.8427 5.0551 36.9557 5.5761 37.0677 6.0981 36.9717 6.6331 36.6817 7.0821 36.3927 7.5311 35.9447 7.8411 35.4237 7.9541 34.8977 8.0671 34.3657 7.9691 33.9167 7.6801 33.4687 7.3911 33.1587 6.9441 33.0457 6.4221 32.9337 5.9001 33.0297 5.3661 33.3197 4.9161L33.3197 4.9161ZM45.3627 22.8331C44.1687 20.9801 41.6907 20.4421 39.8337 21.6381 38.9827 22.1861 38.3927 23.0241 38.1407 23.9991L35.0007 23.9991 35.0007 18.2091C35.0007 17.8511 34.8107 17.5211 34.5007 17.3431L30.5957 15.0881 33.9417 9.8531C34.2877 9.9481 34.6417 9.9981 34.9937 9.9981 36.3097 9.9981 37.5987 9.3511 38.3627 8.1651 38.9407 7.2671 39.1357 6.1981 38.9097 5.1541 38.6847 4.1091 38.0647 3.2161 37.1677 2.6381 35.3117 1.4401 32.8337 1.9791 31.6387 3.8331 31.0607 4.7311 30.8657 5.8011 31.0917 6.8451 31.2597 7.6231 31.6467 8.3151 32.2037 8.8581L28.8617 14.0871 24.5007 11.5691C24.1917 11.3901 23.8097 11.3901 23.5007 11.5691L18.3917 14.5191 14.8227 8.8291C15.3647 8.2901 15.7447 7.6101 15.9097 6.8451 16.1357 5.8011 15.9407 4.7311 15.3627 3.8331 14.1677 1.9801 11.6907 1.4411 9.83374 2.6381 8.93674 3.2161 8.31674 4.1091 8.09174 5.1541 7.86574 6.1981 8.06074 7.2671 8.63874 8.1651 9.40274 9.3511 10.6917 9.9981 12.0077 9.9981 12.3727 9.9981 12.7407 9.9471 13.0997 9.8441L16.6597 15.5191 13.5007 17.3431C13.1907 17.5211 13.0007 17.8511 13.0007 18.2091L13.0007 23.9991 9.85674 23.9991C9.75074 23.5931 9.59674 23.1971 9.36274 22.8331 8.16774 20.9801 5.68974 20.4421 3.83374 21.6381 2.93674 22.2161 2.31674 23.1091 2.09174 24.1541 1.86574 25.1981 2.06074 26.2671 2.63874 27.1651 3.40274 28.3511 4.69174 28.9981 6.00774 28.9981 6.74874 28.9981 7.49874 28.7921 8.16674 28.3621 9.01874 27.8131 9.60874 26.9751 9.86074 25.9991L13.0007 25.9991 13.0007 29.7561C13.0007 30.1131 13.1907 30.4431 13.5007 30.6221L16.8727 32.5691 13.2857 38.2251C11.5877 37.6471 9.65274 38.2601 8.63874 39.8331 8.06074 40.7311 7.86574 41.8011 8.09174 42.8451 8.31674 43.8891 8.93674 44.7831 9.83374 45.3611 10.5027 45.7921 11.2527 45.9981 11.9937 45.9981 13.3097 45.9981 14.5987 45.3511 15.3627 44.1651 15.9407 43.2671 16.1357 42.1981 15.9097 41.1541 15.7597 40.4581 15.4217 39.8401 14.9557 39.3271L18.6067 33.5701 23.5007 36.3951C23.6547 36.4851 23.8277 36.5291 24.0007 36.5291 24.1737 36.5291 24.3467 36.4851 24.5007 36.3951L28.6957 33.9731 32.1067 39.2551C31.6067 39.7811 31.2487 40.4261 31.0917 41.1541 30.8657 42.1981 31.0607 43.2671 31.6387 44.1651 32.4027 45.3511 33.6917 45.9981 35.0077 45.9981 35.7487 45.9981 36.4987 45.7921 37.1667 45.3621 38.0647 44.7831 38.6847 43.8891 38.9097 42.8451 39.1357 41.8011 38.9407 40.7311 38.3627 39.8331 37.3667 38.2881 35.4817 37.6741 33.8057 38.2001L30.4297 32.9721 34.5007 30.6221C34.8107 30.4431 35.0007 30.1131 35.0007 29.7561L35.0007 25.9991 38.1447 25.9991C38.2507 26.4061 38.4047 26.8021 38.6387 27.1651 39.4027 28.3511 40.6917 28.9981 42.0077 28.9981 42.7487 28.9981 43.4987 28.7921 44.1667 28.3621 45.0647 27.7831 45.6847 26.8891 45.9097 25.8451 46.1357 24.8011 45.9407 23.7311 45.3627 22.8331L45.3627 22.8331Z" id="Fill-1" fill="#ED7100"/></g></svg>