<svg width="80" height="80" viewBox="0 0 80 80" xmlns="http://www.w3.org/2000/svg" xmlns:xlink="http://www.w3.org/1999/xlink" overflow="hidden"><g id="Icon-Architecture/64/Arch_Amazon-Kinesis-Video-Streams_64" stroke="none" stroke-width="1" fill="none" fill-rule="evenodd"><g id="Icon-Architecture-BG/64/Analytics" fill="#8C4FFF"><rect x="0" y="0" width="80" height="80" id="Rectangle"/></g><g id="Icon-Architecture/64/Amazon-Kinesis-Video-Streams" fill="#FFFFFF" transform="translate(13 12)"><path d="M24 33.553 24 35.602C9.938 38.908 8 44.719 8 50L6 50C6 44.23 8.077 37.18 24 33.553L24 33.553ZM24 38.76 24 40.898C14.007 44.854 14 51.011 14 56L12 56C12 50.879 12.009 43.191 24 38.76L24 38.76ZM52 49.575C52 50.361 51.361 51 50.575 51L29.425 51C28.639 51 28 50.361 28 49.575L28 36.424C28 35.639 28.639 35 29.425 35L50.575 35C51.361 35 52 35.639 52 36.424L52 49.575ZM50.575 33 29.425 33C27.536 33 26 34.536 26 36.424L26 49.575C26 51.464 27.536 53 29.425 53L50.575 53C52.464 53 54 51.464 54 49.575L54 36.424C54 34.536 52.464 33 50.575 33L50.575 33ZM54 27 54 29C8.756 29 2 37.145 2 42L0 42C0 34.604 10.039 29.92 29.893 28 10.039 26.079 0 21.395 0 14L2 14C2 18.855 8.756 27 54 27L54 27ZM54 23 54 25C11.703 25 6 15.395 6 6L8 6C8 14.406 13.465 23 54 23L54 23ZM54 19 54 21C35.663 21 23.728 18.641 17.51 13.788 12 9.488 12 4.004 12-3.55271e-15L14-3.55271e-15C14 7.566 14 19 54 19L54 19ZM38 45.277 38 40.723 41.984 43 38 45.277ZM44.496 42.132 37.496 38.132C37.187 37.954 36.806 37.956 36.498 38.135 36.189 38.314 36 38.643 36 39L36 47C36 47.356 36.189 47.686 36.498 47.865 36.653 47.955 36.826 48 37 48 37.171 48 37.343 47.956 37.496 47.868L44.496 43.868C44.808 43.69 45 43.359 45 43 45 42.641 44.808 42.309 44.496 42.132L44.496 42.132Z" id="Amazon-Kinesis-Video-Streams_64_Squid"/></g></g></svg>