<svg width="80" height="80" viewBox="0 0 80 80" xmlns="http://www.w3.org/2000/svg" xmlns:xlink="http://www.w3.org/1999/xlink" overflow="hidden"><g id="Icon-Architecture/64/Arch_Amazon-VPC-Lattice_64" stroke="none" stroke-width="1" fill="none" fill-rule="evenodd"><g id="Icon-Architecture-BG/64/Networking-Content-Delivery" fill="#8C4FFF"><rect x="0" y="0" width="80" height="80" id="Rectangle"/></g><path d="M49 43.943C49 49.607 46.308 52.636 41 52.967L41 27.806 49 30.865 49 43.943ZM31 43.943 31 30.865 39 27.806 39 52.957C32.43 52.527 31 47.88 31 43.943L31 43.943ZM39.643 25.419 29.643 29.242C29.256 29.39 29 29.762 29 30.176L29 43.943C29 47.267 30.072 55 40 55 47.094 55 51 51.073 51 43.943L51 30.176C51 29.762 50.744 29.39 50.357 29.242L40.357 25.419C40.127 25.331 39.873 25.331 39.643 25.419L39.643 25.419ZM54 43.943C54 56.986 43.284 58 40 58 26.675 58 26 46.29 26 43.943L26 27.423 40 22.07 54 27.423 54 43.943ZM14 21 21 21 21 14 14 14 14 21ZM59 21 66 21 66 14 59 14 59 21ZM59 66 66 66 66 59 59 59 59 66ZM14 66 21 66 21 59 14 59 14 66ZM67 23C67.553 23 68 22.552 68 22L68 13C68 12.447 67.553 12 67 12L58 12C57.447 12 57 12.447 57 13L57 21.586 53.496 25.09 40.357 20.066C40.127 19.978 39.873 19.978 39.643 20.066L26.504 25.09 23 21.586 23 13C23 12.447 22.553 12 22 12L13 12C12.447 12 12 12.447 12 13L12 22C12 22.552 12.447 23 13 23L21.586 23 24.48 25.894C24.19 26.074 24 26.385 24 26.735L24 43.943C24 46.803 24.634 49.844 26.081 52.505L21.586 57 13 57C12.447 57 12 57.447 12 58L12 67C12 67.552 12.447 68 13 68L22 68C22.553 68 23 67.552 23 67L23 58.414 27.188 54.226C29.681 57.585 33.773 60 40 60 46.7 60 50.6 57.41 52.868 54.282L57 58.414 57 67C57 67.552 57.447 68 58 68L67 68C67.553 68 68 67.552 68 67L68 58C68 57.447 67.553 57 67 57L58.414 57 53.948 52.534C55.817 48.981 56 45.23 56 43.943L56 26.735C56 26.385 55.81 26.074 55.52 25.894L58.414 23 67 23Z" id="Fill-8" fill="#FFFFFF"/></g></svg>