<svg width="80" height="80" viewBox="0 0 80 80" xmlns="http://www.w3.org/2000/svg" xmlns:xlink="http://www.w3.org/1999/xlink" overflow="hidden"><g id="Icon-Architecture/64/Arch_AWS-Elemental-MediaStore_64" stroke="none" stroke-width="1" fill="none" fill-rule="evenodd"><g id="Icon-Architecture-BG/64/Media-Services" fill="#ED7100"><rect x="0" y="0" width="80" height="80" id="Rectangle"/></g><path d="M29 52.3813 24 54.8814 19 52.3813 19 46.6171 24 44.1169 29 46.6171 29 52.3813ZM31 52.9994 31 45.999C31 45.62 30.786 45.274 30.447 45.105L24.447 42.1048C24.166 41.9638 23.834 41.9638 23.553 42.1048L17.553 45.105C17.214 45.274 17 45.62 17 45.999L17 52.9994C17 53.3784 17.214 53.7244 17.553 53.8944L23.553 56.8945C23.693 56.9645 23.847 56.9995 24 56.9995 24.153 56.9995 24.307 56.9645 24.447 56.8945L30.447 53.8944C30.786 53.7244 31 53.3784 31 52.9994L31 52.9994ZM52 58.0696 52 47.5731 62 41.7398 62 52.4193 52 58.0696ZM41 64.2899 41 54.8194 48.88 59.8397 41 64.2899ZM30 33.1984 30 21.7479 39 27.0682 38.997 32.9984 40.997 32.9994 40.999 28.2482 41 28.2482 50 33.5685 50 45.052 46.916 42.8409 45.75 44.467 50 47.5131 50 58.1796 41 52.4493 41 39.9987C41 39.6387 40.811 39.3087 40.49 39.1287L30 33.1984ZM28 21.9279 28 32.0684 19.03 26.9981 28 21.9279ZM40 15.1476 48.875 20.1648 40.387 25.5671 31.189 20.1278 40 15.1476ZM52 33.6165 62 28.6162 62 39.4237 52 45.258 52 33.6165ZM50.851 21.2779 60.872 26.9441 51.042 31.8594 51.04 31.8584 42.32 26.7081 42.319 26.7081 50.851 21.2779ZM63.49 26.1281 40.49 13.1275C40.189 12.9575 39.811 12.9575 39.51 13.1275L16.51 26.1281C16.189 26.3081 16 26.6381 16 26.9981L16 38.9987 18 38.9987 18 28.7082 39 40.5788 39 64.2399 30.512 59.1856 29.488 60.9037 39.489 66.86 39.49 66.859 39.49 66.86 39.5 66.86C39.65 66.95 39.83 67 40 67 40.17 67 40.34 66.96 40.49 66.87L50.89 60.9897 51.89 60.4197 63.49 53.8694C63.811 53.6894 64 53.3594 64 52.9994L64 26.9981C64 26.6381 63.811 26.3081 63.49 26.1281L63.49 26.1281Z" id="AWS-Elemental-MediaStore_Icon_64_Squid" fill="#FFFFFF"/></g></svg>