<svg width="80" height="80" viewBox="0 0 80 80" xmlns="http://www.w3.org/2000/svg" xmlns:xlink="http://www.w3.org/1999/xlink" overflow="hidden"><g id="Icon-Architecture/64/Arch_Amazon-MemoryDB-for-Redis_64" stroke="none" stroke-width="1" fill="none" fill-rule="evenodd"><g id="Icon-Architecture-BG/64/Database" fill="#C925D1"><rect x="0" y="0" width="80" height="80" id="Rectangle"/></g><g id="Icon-Service/64/Amazon-MemoryDB-for-Redis_64" fill="#FFFFFF" transform="translate(12 12)"><path d="M18.979 13.248C8.823 13.248 2 10.34 2 7.624 2 4.909 8.823 2 18.979 2 29.015 2 35.012 4.86 35.012 7.624 35.012 10.389 29.015 13.248 18.979 13.248L18.979 13.248ZM34.409 28.731C36.349 28.731 38.285 28.948 40.161 29.376L40.606 27.426C39.422 27.156 38.216 26.974 37 26.861L37 7.955 36.978 7.955C36.987 7.844 37.012 7.737 37.012 7.624 37.012 3.136 29.597 0 18.979 0 9.548 0 0 2.619 0 7.624 0 7.738 0.031 7.844 0.04 7.955L0 7.955 0 48.313C0 51.193 3.13 53.518 8.814 54.859L9.273 52.913C4.788 51.853 2 50.091 2 48.313L2 38.706C3.295 39.751 5.198 40.639 7.648 41.319L8.183 39.393C4.312 38.317 2 36.713 2 35.101L2 25.361C5.073 27.896 11.256 29.271 17.417 29.526L17.499 27.528C7.797 27.126 2 24.242 2 21.687L2 11.213C5.284 13.869 12.152 15.248 18.979 15.248 26.309 15.248 32.109 13.753 35 11.352L35 26.748C34.803 26.744 34.606 26.731 34.409 26.731 24.06 26.731 14.612 32.43 9.75 41.602L11.518 42.539C16.031 34.022 24.802 28.731 34.409 28.731L34.409 28.731ZM47.637 32.374C46.003 31.398 44.262 30.604 42.461 30.014L43.084 28.113C45.026 28.75 46.902 29.606 48.663 30.657L47.637 32.374ZM37.788 53.955C37.613 52.831 37.149 51.804 36.469 50.953L47.808 40.232C51.43 43.748 53.681 48.761 53.938 53.955L37.788 53.955ZM31.471 50.541C33.558 50.541 35.301 52.003 35.751 53.955L27.192 53.955C27.642 52.003 29.385 50.541 31.471 50.541L31.471 50.541ZM49.275 38.845 52.95 35.371 51.575 33.917 34.988 49.6C33.978 48.932 32.77 48.541 31.471 48.541 28.278 48.541 25.632 50.894 25.155 53.955L13.864 53.955C14.379 43.191 23.169 34.596 33.901 34.596 36.787 34.596 39.57 35.194 42.175 36.375L43.001 34.554C40.135 33.254 37.073 32.596 33.901 32.596 21.737 32.596 11.84 42.626 11.84 54.955L11.84 55.955 55.962 55.955 55.962 54.955C55.962 48.909 53.474 42.956 49.275 38.845L49.275 38.845Z" id="Fill-1"/></g></g></svg>