<svg width="48" height="48" viewBox="0 0 48 48" xmlns="http://www.w3.org/2000/svg" xmlns:xlink="http://www.w3.org/1999/xlink" overflow="hidden"><g id="Icon-Resource/Storage/Res_Amazon-Elastic-Block-Store_Amazon-Data-Lifecycle-Manager_48" stroke="none" stroke-width="1" fill="none" fill-rule="evenodd"><path d="M41.7998 34.5498C41.1938 34.5498 40.6998 34.0568 40.6998 33.4498 40.6998 32.8438 41.1938 32.3498 41.7998 32.3498 42.4058 32.3498 42.9008 32.8438 42.9008 33.4498 42.9008 34.0568 42.4058 34.5498 41.7998 34.5498L41.7998 34.5498ZM41.7998 30.3498C40.0908 30.3498 38.6998 31.7408 38.6998 33.4498 38.6998 34.3198 39.0628 35.1038 39.6418 35.6678 36.1048 40.8998 30.3108 43.9998 23.9498 43.9998 18.8108 43.9998 13.9988 41.9758 10.4038 38.3008L8.9738 39.6988C12.9488 43.7618 18.2678 45.9998 23.9498 45.9998 31.0908 45.9998 37.5838 42.4638 41.4738 36.5168 41.5828 36.5288 41.6878 36.5498 41.7998 36.5498 43.5098 36.5498 44.9008 35.1588 44.9008 33.4498 44.9008 31.7408 43.5098 30.3498 41.7998 30.3498L41.7998 30.3498ZM6.1008 34.5498C5.4938 34.5498 4.9998 34.0568 4.9998 33.4498 4.9998 32.8438 5.4938 32.3498 6.1008 32.3498 6.7068 32.3498 7.1998 32.8438 7.1998 33.4498 7.1998 34.0568 6.7068 34.5498 6.1008 34.5498L6.1008 34.5498ZM6.1008 30.3498C5.9898 30.3498 5.8848 30.3718 5.7768 30.3828 5.2718 28.6578 4.9998 26.8708 4.9998 25.0498 4.9998 17.1898 9.9438 10.0558 17.3008 7.2998L16.5998 5.4258C8.4648 8.4748 2.9998 16.3608 2.9998 25.0498 2.9998 27.1618 3.3298 29.2338 3.9458 31.2288 3.3648 31.7928 2.9998 32.5788 2.9998 33.4498 2.9998 35.1588 4.3908 36.5498 6.1008 36.5498 7.8098 36.5498 9.1998 35.1588 9.1998 33.4498 9.1998 31.7408 7.8098 30.3498 6.1008 30.3498L6.1008 30.3498ZM23.9498 3.9998C24.5568 3.9998 25.0498 4.4938 25.0498 5.0998 25.0498 5.7068 24.5568 6.1998 23.9498 6.1998 23.3438 6.1998 22.8508 5.7068 22.8508 5.0998 22.8508 4.4938 23.3438 3.9998 23.9498 3.9998L23.9498 3.9998ZM23.9498 8.1998C25.2208 8.1998 26.3138 7.4298 26.7908 6.3328 36.0328 7.7148 42.9008 15.5948 42.9008 25.0498 42.9008 25.6668 42.8698 26.2898 42.8108 26.9028L44.8008 27.0968C44.8668 26.4198 44.9008 25.7308 44.9008 25.0498 44.9008 14.5468 37.2358 5.8028 26.9428 4.3348 26.5998 2.9968 25.3938 1.9998 23.9498 1.9998 22.2408 1.9998 20.8508 3.3908 20.8508 5.0998 20.8508 6.8098 22.2408 8.1998 23.9498 8.1998L23.9498 8.1998ZM32.9498 16.1458 32.9498 33.9548C32.9498 34.7058 31.5028 35.7598 28.3258 36.2998 28.2828 36.3068 28.2288 36.3148 28.1658 36.3228 27.2348 36.4448 24.3408 36.6418 23.9708 36.6488 22.4708 36.5558 20.0908 36.3878 19.5728 36.2998 16.3978 35.7598 14.9498 34.7058 14.9498 33.9548L14.9498 16.1458C14.9498 15.1778 17.9578 13.4498 23.9498 13.4498 29.9428 13.4498 32.9498 15.1778 32.9498 16.1458L32.9498 16.1458ZM12.9498 16.1458 12.9498 33.9548C12.9498 36.0188 15.2418 37.5928 19.2378 38.2718 20.0618 38.4118 23.5158 38.6498 23.9498 38.6498 24.3848 38.6498 27.8388 38.4118 28.6608 38.2718 32.6578 37.5928 34.9498 36.0188 34.9498 33.9548L34.9498 16.1458C34.9498 13.3808 30.4268 11.4498 23.9498 11.4498 17.4738 11.4498 12.9498 13.3808 12.9498 16.1458L12.9498 16.1458ZM23.2918 24.4168C23.4608 24.2408 23.6888 24.1418 23.9328 24.1368 23.9388 24.1368 23.9458 24.1368 23.9508 24.1368 24.1878 24.1368 24.4118 24.2268 24.5828 24.3918 24.7588 24.5608 24.8588 24.7878 24.8628 25.0318 24.8678 25.2758 24.7778 25.5068 24.6088 25.6828 24.4398 25.8588 24.2118 25.9588 23.9678 25.9628 23.7408 26.0008 23.4918 25.8778 23.3178 25.7088 23.1418 25.5398 23.0418 25.3118 23.0368 25.0688 23.0318 24.8238 23.1228 24.5928 23.2918 24.4168L23.2918 24.4168ZM21.0368 25.1068C21.0528 25.8848 21.3698 26.6108 21.9308 27.1498 22.4948 27.6928 23.2228 27.9618 23.9488 27.9618 24.7148 27.9618 25.4788 27.6628 26.0498 27.0688 26.5888 26.5078 26.8778 25.7708 26.8628 24.9928 26.8478 24.2148 26.5298 23.4888 25.9698 22.9498 24.8108 21.8368 22.9638 21.8728 21.8508 23.0308 21.3118 23.5918 21.0228 24.3288 21.0368 25.1068L21.0368 25.1068ZM24.4898 21.5038C24.7678 21.5028 25.0308 21.3858 25.2198 21.1818L26.2308 20.0858 27.9428 21.3318 27.2028 22.6478C27.0678 22.8898 27.0378 23.1768 27.1218 23.4418L27.4358 24.4248C27.5218 24.6938 27.7158 24.9128 27.9718 25.0298L29.3458 25.6618 28.6908 27.6758 27.2038 27.3778C26.9308 27.3218 26.6438 27.3848 26.4168 27.5508L25.5808 28.1628C25.3568 28.3268 25.2108 28.5768 25.1788 28.8538L25.0038 30.3488 22.8858 30.3468 22.7128 28.8638C22.6808 28.5898 22.5368 28.3408 22.3148 28.1758L21.4688 27.5498C21.2408 27.3828 20.9538 27.3158 20.6778 27.3738L19.2058 27.6678 18.5538 25.6528 19.9348 25.0188C20.1888 24.9028 20.3818 24.6858 20.4688 24.4208L20.7858 23.4468C20.8718 23.1808 20.8438 22.8908 20.7068 22.6478L19.9638 21.3248 21.6788 20.0818 22.6968 21.1878C22.8878 21.3948 23.1218 21.5028 23.4388 21.5098L24.4898 21.5038ZM22.5468 18.0728C22.2028 17.6978 21.6338 17.6438 21.2248 17.9408L18.0698 20.2288C17.6578 20.5278 17.5358 21.0858 17.7838 21.5288L18.7478 23.2438 18.7018 23.3838 16.9108 24.2058C16.4498 24.4178 16.2208 24.9408 16.3768 25.4228L17.5778 29.1318C17.7348 29.6138 18.2248 29.8998 18.7258 29.8038L20.6358 29.4218 20.7768 29.5258 21.0018 31.4618C21.0608 31.9658 21.4878 32.3458 21.9938 32.3458L25.8928 32.3498 25.8938 32.3498C26.4008 32.3498 26.8278 31.9698 26.8868 31.4668L27.1138 29.5188 27.2428 29.4248 29.1698 29.8118C29.6598 29.9118 30.1588 29.6228 30.3178 29.1408L31.5238 25.4338C31.6808 24.9508 31.4508 24.4278 30.9888 24.2158L29.2068 23.3968 29.1598 23.2488 30.1218 21.5358C30.3698 21.0938 30.2478 20.5358 29.8388 20.2378L26.6878 17.9448C26.2768 17.6458 25.7068 17.7018 25.3628 18.0748L24.0438 19.5068 23.8688 19.5078 22.5468 18.0728Z" id="Fill-1" fill="#7AA116"/></g></svg>