<svg width="80" height="80" viewBox="0 0 80 80" xmlns="http://www.w3.org/2000/svg" xmlns:xlink="http://www.w3.org/1999/xlink" overflow="hidden"><g id="Icon-Architecture/64/Arch_Amazon-Neptune_64" stroke="none" stroke-width="1" fill="none" fill-rule="evenodd"><g id="Icon-Architecture-BG/64/Database" fill="#C925D1"><rect x="0" y="0" width="80" height="80" id="Rectangle"/></g><path d="M65 58C64.448 58 64 57.551 64 57 64 56.449 64.448 56 65 56 65.552 56 66 56.449 66 57 66 57.551 65.552 58 65 58L65 58ZM55.5 66C54.121 66 53 64.878 53 63.5 53 62.122 54.121 61 55.5 61 56.879 61 58 62.122 58 63.5 58 64.878 56.879 66 55.5 66L55.5 66ZM51 48.5C51 46.57 52.57 45 54.5 45 56.43 45 58 46.57 58 48.5 58 50.43 56.43 52 54.5 52 52.57 52 51 50.43 51 48.5L51 48.5ZM45 40C44.448 40 44 39.551 44 39 44 38.449 44.448 38 45 38 45.552 38 46 38.449 46 39 46 39.551 45.552 40 45 40L45 40ZM42 54C40.897 54 40 53.103 40 52 40 50.897 40.897 50 42 50 43.103 50 44 50.897 44 52 44 53.103 43.103 54 42 54L42 54ZM63 33C64.103 33 65 33.897 65 35 65 36.103 64.103 37 63 37 61.897 37 61 36.103 61 35 61 33.897 61.897 33 63 33L63 33ZM65 54C63.346 54 62 55.346 62 57 62 57.446 62.104 57.865 62.279 58.246L58.774 60.434C58.117 59.732 57.244 59.245 56.257 59.077L56.019 53.782C58.314 53.121 60 51.005 60 48.5 60 47.028 59.415 45.692 58.47 44.704L61.955 38.844C62.29 38.936 62.637 39 63 39 65.206 39 67 37.206 67 35 67 32.794 65.206 31 63 31 60.794 31 59 32.794 59 35 59 36.122 59.467 37.133 60.213 37.86L56.841 43.531C56.13 43.194 55.338 43 54.5 43 53.348 43 52.278 43.358 51.394 43.966L47.733 40.223C47.901 39.849 48 39.437 48 39 48 37.346 46.654 36 45 36 43.346 36 42 37.346 42 39 42 40.654 43.346 42 45 42 45.486 42 45.939 41.873 46.347 41.666L49.977 45.378C49.362 46.266 49 47.341 49 48.5 49 48.704 49.013 48.905 49.035 49.103L45.371 49.865C44.66 48.748 43.42 48 42 48 39.794 48 38 49.794 38 52 38 54.206 39.794 56 42 56 44.206 56 46 54.206 46 52 46 51.925 45.982 51.855 45.979 51.782L49.619 51.024C50.467 52.656 52.105 53.811 54.025 53.976L54.26 59.195C52.384 59.738 51 61.452 51 63.5 51 65.981 53.019 68 55.5 68 57.981 68 60 65.981 60 63.5 60 63.033 59.908 62.59 59.775 62.166L63.722 59.703C64.11 59.888 64.541 60 65 60 66.654 60 68 58.654 68 57 68 55.346 66.654 54 65 54L65 54ZM31.5 15C41.224 15 48 18.162 48 21 48 23.838 41.224 27 31.5 27 21.776 27 15 23.838 15 21 15 18.162 21.776 15 31.5 15L31.5 15ZM48 60.02C48 62.772 41.224 65.84 31.5 65.84 21.776 65.84 15 62.772 15 60.02L15 51.78C17.957 54.302 23.937 55.954 31.167 55.954 32.87 55.954 34.591 55.859 36.279 55.672L36.059 53.684C34.443 53.863 32.797 53.954 31.167 53.954 21.496 53.954 15 50.919 15 48.086L15 38.287C17.957 40.809 23.937 42.46 31.167 42.46 34.632 42.46 37.996 42.076 40.895 41.348L40.408 39.409C37.666 40.097 34.471 40.46 31.167 40.46 21.496 40.46 15 37.426 15 34.592L15 24.722C17.997 27.305 24.104 29 31.5 29 38.896 29 45.003 27.305 48 24.722L48 36 50 36 50 21C50 16.439 42.047 13 31.5 13 20.953 13 13 16.439 13 21L13 60.02C13 64.478 20.953 67.84 31.5 67.84 42.047 67.84 50 64.478 50 60.02L50 55 48 55 48 60.02Z" id="Amazon-Neptune_Icon_64_Squid" fill="#FFFFFF"/></g></svg>