<svg width="80" height="80" viewBox="0 0 80 80" xmlns="http://www.w3.org/2000/svg" xmlns:xlink="http://www.w3.org/1999/xlink" overflow="hidden"><g id="Icon-Architecture/64/Arch_AWS-Clean-Rooms_64" stroke="none" stroke-width="1" fill="none" fill-rule="evenodd"><g id="Icon-Architecture-BG/64/Analytics" fill="#8C4FFF"><rect x="0" y="0" width="80" height="80" id="Rectangle"/></g><path d="M65.1178 60.122C63.9847 61.255 62.0088 61.255 60.8758 60.122 59.7057 58.952 59.7057 57.049 60.8758 55.879 61.4417 55.312 62.1948 55 62.9967 55 63.7988 55 64.5518 55.312 65.1178 55.879 66.2878 57.049 66.2878 58.952 65.1178 60.122L65.1178 60.122ZM62.9967 53C62.0008 53 61.0508 53.291 60.2397 53.829L55.7038 49.293 54.2897 50.707 58.8257 55.244C57.5428 57.184 57.7547 59.829 59.4618 61.536 60.4058 62.48 61.6608 63 62.9967 63 64.3327 63 65.5878 62.48 66.5318 61.536 68.4808 59.586 68.4808 56.414 66.5318 54.465 65.5878 53.52 64.3327 53 62.9967 53L62.9967 53ZM60.8758 19.879C61.4417 19.312 62.1948 19 62.9967 19 63.7988 19 64.5518 19.312 65.1178 19.879 66.2878 21.049 66.2878 22.952 65.1178 24.122 63.9847 25.255 62.0088 25.255 60.8758 24.122 59.7057 22.952 59.7057 21.049 60.8758 19.879L60.8758 19.879ZM55.7038 30.707 60.2397 26.171C61.0508 26.71 62.0008 27 62.9967 27 64.3327 27 65.5878 26.48 66.5318 25.536 68.4808 23.586 68.4808 20.414 66.5318 18.465 65.5878 17.52 64.3327 17 62.9967 17 61.6608 17 60.4058 17.52 59.4618 18.465 57.7547 20.172 57.5428 22.817 58.8257 24.757L54.2897 29.293 55.7038 30.707ZM19.1178 60.122C17.9848 61.255 16.0088 61.255 14.8757 60.122 13.7058 58.952 13.7058 57.049 14.8757 55.879 15.4417 55.312 16.1947 55 16.9967 55 17.7987 55 18.5518 55.312 19.1178 55.879 20.2878 57.049 20.2878 58.952 19.1178 60.122L19.1178 60.122ZM24.2897 49.293 19.7537 53.829C18.9428 53.291 17.9928 53 16.9967 53 15.6608 53 14.4058 53.52 13.4618 54.465 11.5127 56.414 11.5127 59.586 13.4618 61.536 14.4058 62.48 15.6608 63 16.9967 63 18.3328 63 19.5877 62.48 20.5317 61.536 22.2388 59.829 22.4508 57.184 21.1677 55.244L25.7038 50.707 24.2897 49.293ZM39.9967 41C40.8237 41 41.4967 41.673 41.4967 42.5 41.4967 43.328 40.8237 44 39.9967 44 39.1698 44 38.4967 43.328 38.4967 42.5 38.4967 41.673 39.1698 41 39.9967 41L39.9967 41ZM39.0277 45.847 39.0277 49 41.0277 49 41.0277 45.828C42.4528 45.384 43.4967 44.069 43.4967 42.5 43.4967 40.571 41.9268 39 39.9967 39 38.0667 39 36.4967 40.571 36.4967 42.5 36.4967 44.092 37.5708 45.424 39.0277 45.847L39.0277 45.847ZM14.8757 24.122C13.7058 22.952 13.7058 21.049 14.8757 19.879 15.4417 19.312 16.1947 19 16.9967 19 17.7987 19 18.5518 19.312 19.1178 19.879 20.2878 21.049 20.2878 22.952 19.1178 24.122 17.9848 25.255 16.0088 25.255 14.8757 24.122L14.8757 24.122ZM20.5317 18.465C19.5877 17.52 18.3328 17 16.9967 17 15.6608 17 14.4058 17.52 13.4618 18.465 11.5127 20.414 11.5127 23.586 13.4618 25.536 14.4058 26.48 15.6608 27 16.9967 27 17.9928 27 18.9428 26.71 19.7537 26.171L24.2897 30.707 25.7038 29.293 21.1677 24.757C22.4508 22.817 22.2388 20.172 20.5317 18.465L20.5317 18.465ZM28.9967 52 50.9967 52 50.9967 37 28.9967 37 28.9967 52ZM33.9728 30.953C33.9728 29.325 35.3298 28 36.9967 28L42.9728 28C44.6398 28 45.9967 29.325 45.9967 30.953L45.9967 35 33.9728 35 33.9728 30.953ZM42.9967 63C42.9967 64.655 41.6507 66 39.9967 66 38.3428 66 36.9967 64.655 36.9967 63 36.9967 61.346 38.3428 60 39.9967 60 41.6507 60 42.9967 61.346 42.9967 63L42.9967 63ZM36.9967 17C36.9967 15.346 38.3428 14 39.9967 14 41.6507 14 42.9967 15.346 42.9967 17 42.9967 18.655 41.6507 20 39.9967 20 38.3428 20 36.9967 18.655 36.9967 17L36.9967 17ZM51.2537 35 47.9967 35 47.9967 30.953C47.9967 28.222 45.7427 26 42.9728 26L40.9967 26 40.9967 21.899C43.2757 21.435 44.9967 19.415 44.9967 17 44.9967 14.244 42.7537 12 39.9967 12 37.2397 12 34.9967 14.244 34.9967 17 34.9967 19.415 36.7178 21.435 38.9967 21.899L38.9967 26 36.9967 26C34.2267 26 31.9727 28.222 31.9727 30.953L31.9727 35 28.7397 35C27.7787 35 26.9967 35.771 26.9967 36.718L26.9967 52.283C26.9967 53.23 27.7787 54 28.7397 54L38.9967 54 38.9967 58.101C36.7178 58.566 34.9967 60.586 34.9967 63 34.9967 65.757 37.2397 68 39.9967 68 42.7537 68 44.9967 65.757 44.9967 63 44.9967 60.586 43.2757 58.566 40.9967 58.101L40.9967 54 51.9967 54C52.5498 54 52.9967 53.553 52.9967 53L52.9967 36.718C52.9967 35.771 52.2147 35 51.2537 35L51.2537 35Z" id="Fill-8" fill="#FFFFFF"/></g></svg>