<svg width="48" height="48" viewBox="0 0 48 48" xmlns="http://www.w3.org/2000/svg" xmlns:xlink="http://www.w3.org/1999/xlink" overflow="hidden"><g id="Icon-Resource/Front-End-Web-Mobile/Res_Amazon-Location-Service_Routes_48" stroke="none" stroke-width="1" fill="none" fill-rule="evenodd"><path d="M14.293 7 17.793 7 17.793 5 14.293 5 14.293 7ZM19.793 7 23.293 7 23.293 5 19.793 5 19.793 7ZM32.352 14.813 33.768 13.4 36.24 15.877 34.824 17.291 32.352 14.813ZM25.142 7.587C25.018 7.462 24.877 7.355 24.725 7.268L25.719 5.532C26.025 5.708 26.308 5.924 26.558 6.175L28.47 8.091 27.054 9.503 25.142 7.587ZM28.467 10.919 29.883 9.506 32.355 11.984 30.939 13.397 28.467 10.919ZM13.148 33.778 14.539 35.216 12.382 37.301 10.991 35.862 13.148 33.778ZM29.253 33.532C29.312 33.586 29.379 33.635 29.45 33.674L28.483 35.424C28.272 35.308 28.075 35.166 27.897 35.002L26.048 33.294 27.405 31.825 29.253 33.532ZM19.112 28.017C19.734 27.415 20.597 27.113 21.453 27.186L21.285 29.179C20.957 29.174 20.689 29.274 20.502 29.455L19.572 30.353 18.184 28.914 19.112 28.017ZM23.732 28.433 25.937 30.468 24.579 31.937 22.375 29.902 23.732 28.433ZM16.746 30.304 18.135 31.742 15.977 33.827 14.588 32.388 16.746 30.304ZM6 44C4.897 44 4 43.103 4 42 4 40.897 4.897 40 6 40 7.103 40 8 40.897 8 42 8 43.103 7.103 44 6 44L6 44ZM9.553 37.252 8.13 38.627C7.512 38.235 6.784 38 6 38 3.794 38 2 39.794 2 42 2 44.206 3.794 46 6 46 8.206 46 10 44.206 10 42 10 41.305 9.807 40.661 9.493 40.091L10.943 38.69 9.553 37.252ZM32.179 31.729 33.69 33.039 32.199 34.761C31.96 35.036 31.679 35.263 31.36 35.435L30.407 33.677C30.513 33.62 30.607 33.543 30.688 33.451L32.179 31.729ZM35.452 27.949 36.964 29.258 35 31.526 33.488 30.217 35.452 27.949ZM6 4C7.103 4 8 4.897 8 6 8 7.103 7.103 8 6 8 4.897 8 4 7.103 4 6 4 4.897 4.897 4 6 4L6 4ZM6 10C7.858 10 9.411 8.72 9.858 7L12.293 7 12.293 5 9.858 5C9.411 3.28 7.858 2 6 2 3.794 2 2 3.794 2 6 2 8.206 3.794 10 6 10L6 10ZM42 24C40.897 24 40 23.103 40 22 40 20.897 40.897 20 42 20 43.103 20 44 20.897 44 22 44 23.103 43.103 24 42 24L42 24ZM42 18C40.988 18 40.073 18.39 39.368 19.012L37.652 17.293 36.236 18.706 38.233 20.707C38.093 21.115 38 21.545 38 22 38 22.822 38.25 23.587 38.678 24.223L36.761 26.437 38.272 27.747 40.182 25.542C40.729 25.825 41.342 26 42 26 44.206 26 46 24.206 46 22 46 19.794 44.206 18 42 18L42 18Z" id="Fill-1" fill="#DD344C"/></g></svg>