<svg width="48" height="48" viewBox="0 0 48 48" xmlns="http://www.w3.org/2000/svg" xmlns:xlink="http://www.w3.org/1999/xlink" overflow="hidden"><g id="Icon-Resource/Networking-and-Content-Delivery/Res_AWS-App-Mesh_Virtual-Router_48" stroke="none" stroke-width="1" fill="none" fill-rule="evenodd"><path d="M36 32.043C35.543 32.498 34.801 32.498 34.344 32.043 33.888 31.586 33.888 30.844 34.344 30.387 34.801 29.93 35.543 29.93 36 30.387 36.456 30.843 36.456 31.587 36 32.043M25.187 37.982C24.557 38.613 23.527 38.613 22.895 37.982 22.263 37.35 22.263 36.321 22.895 35.689 23.527 35.057 24.555 35.059 25.187 35.689 25.493 35.995 25.662 36.402 25.662 36.836 25.662 37.269 25.493 37.676 25.187 37.982M22.895 23.209C23.211 22.893 23.626 22.735 24.041 22.735 24.456 22.735 24.871 22.893 25.187 23.209 25.819 23.841 25.819 24.87 25.187 25.502 24.555 26.135 23.527 26.135 22.895 25.502 22.263 24.87 22.263 23.841 22.895 23.209M22.895 9.931C23.211 9.614 23.626 9.457 24.041 9.457 24.456 9.457 24.871 9.614 25.187 9.931 25.819 10.563 25.819 11.592 25.187 12.224 24.555 12.856 23.527 12.856 22.895 12.224 22.263 11.592 22.263 10.563 22.895 9.931M34.344 16.34C34.565 16.118 34.857 16.007 35.148 16.007 35.439 16.007 35.731 16.118 35.953 16.34 36.396 16.783 36.396 17.506 35.953 17.948 35.509 18.394 34.786 18.393 34.344 17.949 34.129 17.734 34.011 17.448 34.011 17.145 34.011 16.84 34.129 16.555 34.344 16.34M13.606 32.918C13.177 33.35 12.424 33.35 11.992 32.918 11.547 32.473 11.547 31.748 11.992 31.303 12.215 31.08 12.507 30.969 12.8 30.969 13.092 30.969 13.385 31.08 13.607 31.303 13.823 31.519 13.942 31.806 13.942 32.11 13.942 32.415 13.823 32.702 13.606 32.918M12.168 18.56C12.375 18.353 12.647 18.249 12.92 18.249 13.192 18.249 13.465 18.353 13.672 18.56 14.087 18.975 14.087 19.649 13.672 20.064 13.258 20.479 12.582 20.479 12.168 20.064 11.753 19.649 11.753 18.975 12.168 18.56M37.414 28.973C36.178 27.736 34.166 27.736 32.93 28.973 32.124 29.778 31.854 30.911 32.098 31.947L27.084 34.881C26.945 34.665 26.787 34.461 26.602 34.275 26.143 33.816 25.586 33.522 25 33.361L25 27.829C25.586 27.669 26.143 27.376 26.602 26.916 27.512 26.006 27.826 24.73 27.562 23.558L33.259 19.633C33.817 20.056 34.479 20.28 35.148 20.28 35.952 20.28 36.756 19.975 37.368 19.363 38.59 18.139 38.59 16.148 37.367 14.926 36.182 13.74 34.115 13.74 32.93 14.926 32.337 15.518 32.011 16.306 32.011 17.145 32.011 17.432 32.062 17.708 32.137 17.978L26.6 21.793C26.141 21.335 25.584 21.041 25 20.881L25 14.552C25.586 14.391 26.143 14.097 26.602 13.638 28.014 12.226 28.014 9.929 26.602 8.517 25.189 7.105 22.893 7.105 21.48 8.517 20.068 9.929 20.068 12.226 21.48 13.638 21.918 14.075 22.445 14.36 23 14.527L23 20.905C22.445 21.071 21.918 21.357 21.48 21.795 20.068 23.207 20.068 25.504 21.48 26.916 21.918 27.354 22.445 27.64 23 27.806L23 33.386C22.445 33.552 21.918 33.838 21.48 34.275 21.282 34.474 21.119 34.692 20.977 34.921L15.922 32.315C15.927 32.247 15.942 32.18 15.942 32.11 15.942 31.271 15.615 30.481 15.021 29.889 14.721 29.587 14.371 29.362 14 29.209L14 22.172C14.396 22.023 14.769 21.797 15.086 21.479 16.28 20.284 16.28 18.34 15.086 17.146 13.893 15.95 11.947 15.95 10.754 17.146 9.56 18.34 9.56 20.284 10.754 21.479 11.113 21.839 11.545 22.076 12 22.22L12 29.087C11.479 29.224 10.984 29.481 10.578 29.889 9.985 30.481 9.658 31.271 9.658 32.11 9.658 32.95 9.985 33.739 10.578 34.332 11.171 34.926 11.96 35.253 12.8 35.253 13.64 35.253 14.429 34.926 15.021 34.333 15.072 34.282 15.109 34.223 15.156 34.17L20.426 36.888C20.439 37.798 20.787 38.704 21.48 39.397 22.187 40.103 23.113 40.455 24.041 40.455 24.968 40.455 25.896 40.102 26.602 39.397 27.279 38.72 27.652 37.819 27.66 36.862L33.158 33.644C33.742 34.128 34.453 34.384 35.172 34.384 35.983 34.384 36.796 34.074 37.414 33.457 38.649 32.221 38.649 30.209 37.414 28.973M24 44C12.972 44 4 35.028 4 24 4 12.972 12.972 4 24 4 35.028 4 44 12.972 44 24 44 35.028 35.028 44 24 44M24 2C11.869 2 2 11.869 2 24 2 36.131 11.869 46 24 46 36.131 46 46 36.131 46 24 46 11.869 36.131 2 24 2" id="AWS-App-Mesh-Virtual-Router_Resource-Icon_light-bg" fill="#8C4FFF"/></g></svg>