<svg width="48" height="48" viewBox="0 0 48 48" xmlns="http://www.w3.org/2000/svg" xmlns:xlink="http://www.w3.org/1999/xlink" overflow="hidden"><g id="Icon-Resource/End-User-Computing/Res_Amazon-WorkSpaces-Family_Amazon-WorkSpaces-Web_48" stroke="none" stroke-width="1" fill="none" fill-rule="evenodd"><path d="M25 42.26 25 30.574 35 24.741 35 36.425 25 42.26ZM13 24.744 23 30.574 23 42.257 13 36.425 13 24.744ZM24.004 17.158 34.016 22.999 24 28.842 14 23.009 24.004 17.158ZM36.504 22.136 24.507 15.136C24.195 14.953 23.81 14.954 23.498 15.136L11.584 22.104C11.326 22.226 11.121 22.456 11.038 22.745 11.002 22.872 10.992 23.002 11.006 23.128L11.006 37C11.006 37.355 11.194 37.684 11.502 37.863L23.499 44.863C23.654 44.954 23.829 45 24.003 45 24.177 45 24.352 44.954 24.507 44.863L36.504 37.863C36.812 37.684 37 37.355 37 37L37 23C37 22.644 36.812 22.315 36.504 22.136L36.504 22.136ZM13.012 7C13.012 7.552 12.564 8 12.012 8 11.46 8 11.012 7.552 11.012 7 11.012 6.447 11.46 6 12.012 6 12.564 6 13.012 6.447 13.012 7L13.012 7ZM10.012 7C10.012 7.552 9.564 8 9.012 8 8.46 8 8.012 7.552 8.012 7 8.012 6.447 8.46 6 9.012 6 9.564 6 10.012 6.447 10.012 7L10.012 7ZM7.012 7C7.012 7.552 6.564 8 6.012 8 5.46 8 5.012 7.552 5.012 7 5.012 6.447 5.46 6 6.012 6 6.564 6 7.012 6.447 7.012 7L7.012 7ZM40 31 42 31 42 13 40 13 40 31ZM4 9 4 5 44 5 44 9 4 9ZM44 3 4 3C2.897 3 2 3.896 2 5L2.002 33C2.002 34.103 2.899 35 4.002 35L9 35 9 33 4 33 4 11 44 11 44 33 39 33 39 35 44 35C45.103 35 46 34.103 46 33L46 5C46 3.896 45.103 3 44 3L44 3Z" id="Fill-1" fill="#01A88D"/></g></svg>