<svg width="48" height="48" viewBox="0 0 48 48" xmlns="http://www.w3.org/2000/svg" xmlns:xlink="http://www.w3.org/1999/xlink" overflow="hidden"><g id="Icon-Resource/Networking-and-Content-Delivery/Res_Amazon-VPC_Router_48" stroke="none" stroke-width="1" fill="none" fill-rule="evenodd"><path d="M42.8282 23 42.8282 25 29.3112 25 31.9492 27.638 30.5352 29.052 26.1902 24.707C25.8002 24.316 25.8002 23.684 26.1902 23.293L30.5352 18.948 31.9492 20.362 29.3112 23 42.8282 23ZM21.8102 24.707 17.4662 29.052 16.0522 27.638 18.6892 25 5.1732 25 5.1732 23 18.6892 23 16.0522 20.362 17.4662 18.948 21.8102 23.293C22.2012 23.684 22.2012 24.316 21.8102 24.707L21.8102 24.707ZM27.6382 36.328 29.0522 37.742 24.7072 42.087C24.5122 42.282 24.2562 42.38 24.0002 42.38 23.7442 42.38 23.4882 42.282 23.2932 42.087L18.9482 37.742 20.3622 36.328 23.0002 38.966 23.0002 9.325 20.4152 12.341 18.8952 11.04 23.2402 5.971C23.6212 5.527 24.3792 5.527 24.7602 5.971L29.1042 11.04 27.5852 12.341 25.0002 9.325 25.0002 38.966 27.6382 36.328ZM24.0002 44C12.9722 44 4.0002 35.028 4.0002 24 4.0002 12.972 12.9722 4 24.0002 4 35.0282 4 44.0002 12.972 44.0002 24 44.0002 35.028 35.0282 44 24.0002 44L24.0002 44ZM24.0002 2C11.8692 2 2.0002 11.869 2.0002 24 2.0002 36.131 11.8692 46 24.0002 46 36.1312 46 46.0002 36.131 46.0002 24 46.0002 11.869 36.1312 2 24.0002 2L24.0002 2Z" id="AWS-Amazon-VPC_Router_Resource-Icon_light-bg" fill="#8C4FFF"/></g></svg>