<svg width="80" height="80" viewBox="0 0 80 80" xmlns="http://www.w3.org/2000/svg" xmlns:xlink="http://www.w3.org/1999/xlink" overflow="hidden"><g id="Icon-Architecture/64/Arch_Amazon-WorkSpaces-Thin-Client_64" stroke="none" stroke-width="1" fill="none" fill-rule="evenodd"><g id="Icon-Architecture-BG/64/End-User-Computing" fill="#01A88D"><rect x="0" y="0" width="80" height="80" id="Rectangle"/></g><g id="Icon-Service/64/Amazon-WorkSpaces-Thin-Client_64" fill="#FFFFFF" transform="translate(12 12)"><path d="M0 23.174C0 18.64 3.394 14.893 7.742 14.403 8.226 6.379 14.82 0 22.857 0 28.978 0 34.381 3.656 36.757 9.247 37.928 8.331 39.358 7.826 40.857 7.826 44.485 7.826 47.458 10.725 47.635 14.355 52.278 14.541 56 18.425 56 23.174 56 28.041 52.091 32 47.286 32L41 32 41 30 47.286 30C50.988 30 54 26.938 54 23.174 54 19.41 50.988 16.348 47.286 16.348L46.578 16.348C46.294 16.348 46.023 16.227 45.834 16.016 45.645 15.804 45.554 15.523 45.584 15.24L45.611 15.021C45.625 14.914 45.643 14.807 45.643 14.696 45.643 12.011 43.496 9.826 40.857 9.826 39.418 9.826 38.063 10.499 37.139 11.671 36.909 11.963 36.533 12.104 36.171 12.036 35.806 11.967 35.508 11.703 35.398 11.348 33.671 5.757 28.631 2 22.857 2 15.61 2 9.714 7.988 9.714 15.348 9.714 15.9 9.267 16.348 8.714 16.348 5.012 16.348 2 19.41 2 23.174 2 26.938 5.012 30 8.714 30L15 30 15 32 8.714 32C3.909 32 0 28.041 0 23.174L0 23.174ZM14 49 2 49 2 37 12 37 14 37 14 49ZM21 31 21 23.13 23.253 25.665 24.747 24.336 20.747 19.836C20.368 19.409 19.632 19.409 19.253 19.836L15.253 24.336 16.747 25.665 19 23.13 19 31C19 33.206 17.206 35 15 35L12 35 1 35C0.447 35 0 35.448 0 36L0 50C0 50.552 0.447 51 1 51L15 51C15.553 51 16 50.552 16 50L16 36.91C18.833 36.432 21 33.967 21 31L21 31ZM54 49 42 49 42 37 44 37 54 37 54 49ZM55 35 44 35 41 35C38.794 35 37 33.206 37 31L37 23.13 39.253 25.665 40.747 24.336 36.747 19.836C36.368 19.409 35.632 19.409 35.253 19.836L31.253 24.336 32.747 25.665 35 23.13 35 31C35 33.967 37.167 36.432 40 36.91L40 50C40 50.552 40.447 51 41 51L55 51C55.553 51 56 50.552 56 50L56 36C56 35.448 55.553 35 55 35L55 35ZM21 54 35 54 35 40 21 40 21 54ZM36 38 29 38 29 15.13 31.253 17.665 32.747 16.336 28.747 11.836C28.368 11.409 27.632 11.409 27.253 11.836L23.253 16.336 24.747 17.665 27 15.13 27 38 20 38C19.447 38 19 38.448 19 39L19 55C19 55.552 19.447 56 20 56L36 56C36.553 56 37 55.552 37 55L37 39C37 38.448 36.553 38 36 38L36 38Z" id="Fill-1"/></g></g></svg>