<svg width="48" height="48" viewBox="0 0 48 48" xmlns="http://www.w3.org/2000/svg" xmlns:xlink="http://www.w3.org/1999/xlink" overflow="hidden"><g id="Icon-Resource/Storage/Res_Amazon-Simple-Storage-Service_S3-Object-Lambda_48" stroke="none" stroke-width="1" fill="none" fill-rule="evenodd"><path d="M36.128 31.9852 36.169 31.6732C36.42 31.8382 36.626 31.9842 36.78 32.1062 36.603 32.0812 36.386 32.0422 36.128 31.9852L36.128 31.9852ZM31.556 42.8602C31.065 43.0542 30.482 43.2292 29.823 43.3812 28.107 43.7772 26.001 43.9962 23.891 43.9962 18.745 43.9962 15.337 42.7672 15.042 42.2142 15.042 42.1692 15.039 42.1242 15.033 42.0802L12.525 23.4592C12.553 23.4712 12.586 23.4822 12.613 23.4942 12.935 23.6442 13.277 23.7842 13.643 23.9142 13.721 23.9432 13.806 23.9672 13.886 23.9942 14.192 24.0972 14.51 24.1942 14.839 24.2852 14.956 24.3172 15.073 24.3492 15.193 24.3802 15.578 24.4792 15.973 24.5712 16.378 24.6542 16.408 24.6612 16.438 24.6682 16.468 24.6742 16.905 24.7622 17.355 24.8392 17.807 24.9092 17.934 24.9292 18.061 24.9472 18.189 24.9652 18.551 25.0182 18.913 25.0652 19.276 25.1072 19.382 25.1192 19.485 25.1322 19.59 25.1442 20.043 25.1922 20.494 25.2332 20.94 25.2662 21.039 25.2732 21.134 25.2782 21.232 25.2842 21.593 25.3092 21.946 25.3282 22.296 25.3422 22.416 25.3472 22.535 25.3522 22.653 25.3562 23.078 25.3702 23.495 25.3802 23.891 25.3802 24.357 25.3802 24.827 25.3692 25.299 25.3542 25.432 25.3492 25.565 25.3432 25.698 25.3382 26.065 25.3222 26.43 25.3022 26.795 25.2782 26.916 25.2702 27.036 25.2632 27.157 25.2542 27.627 25.2182 28.095 25.1752 28.557 25.1242 28.63 25.1152 28.7 25.1052 28.773 25.0962 29.164 25.0502 29.551 24.9982 29.932 24.9402 30.061 24.9212 30.188 24.9012 30.316 24.8802 30.677 24.8202 31.031 24.7552 31.379 24.6852 31.464 24.6682 31.552 24.6522 31.636 24.6342 32.054 24.5462 32.456 24.4482 32.846 24.3422 32.939 24.3172 33.026 24.2892 33.118 24.2632 33.417 24.1772 33.704 24.0872 33.982 23.9902 34.086 23.9542 34.19 23.9182 34.29 23.8812 34.603 23.7642 34.9 23.6422 35.177 23.5112 35.201 23.5002 35.232 23.4902 35.257 23.4782L34.19 31.4362C31.363 30.5082 27.803 28.9092 25.898 28.0222 25.695 27.4332 25.142 27.0072 24.485 27.0072 23.658 27.0072 22.985 27.6802 22.985 28.5072 22.985 29.3342 23.658 30.0072 24.485 30.0072 24.711 30.0072 24.923 29.9532 25.115 29.8632 27.305 30.8842 30.999 32.5312 33.92 33.4512L32.755 42.1362C32.713 42.2232 32.415 42.5212 31.556 42.8602L31.556 42.8602ZM39.289 32.2562C39.127 31.3952 38.266 30.5572 36.461 29.5082L37.59 21.1272 37.59 21.1262 37.625 20.8642C37.631 20.8202 37.634 20.7762 37.634 20.7312 37.634 19.5292 36.626 18.4662 34.639 17.5712L33.818 19.3952C35.205 20.0202 35.582 20.5482 35.629 20.7032L35.621 20.7602C35.611 20.7892 35.591 20.8212 35.573 20.8522 35.557 20.8812 35.543 20.9092 35.519 20.9392 35.493 20.9702 35.458 21.0042 35.425 21.0372 35.393 21.0682 35.363 21.0992 35.324 21.1322 35.284 21.1652 35.233 21.2002 35.186 21.2342 35.138 21.2682 35.093 21.3022 35.037 21.3382 34.983 21.3722 34.919 21.4062 34.858 21.4412 34.795 21.4772 34.733 21.5132 34.662 21.5502 34.594 21.5862 34.515 21.6212 34.44 21.6562 34.361 21.6932 34.286 21.7312 34.199 21.7682 34.118 21.8032 34.026 21.8382 33.939 21.8732 33.844 21.9102 33.753 21.9482 33.65 21.9852 33.556 22.0212 33.451 22.0552 33.35 22.0892 33.241 22.1262 33.136 22.1642 33.02 22.2002 32.911 22.2352 32.791 22.2682 32.676 22.3012 32.554 22.3372 32.436 22.3732 32.307 22.4082 32.185 22.4412 32.052 22.4722 31.923 22.5042 31.787 22.5382 31.656 22.5722 31.513 22.6052 31.378 22.6362 31.232 22.6652 31.09 22.6952 30.941 22.7262 30.798 22.7582 30.643 22.7882 30.49 22.8182 30.326 22.8442 30.168 22.8722 30.011 22.8992 29.859 22.9272 29.697 22.9532 29.524 22.9802 29.341 23.0042 29.162 23.0292 29 23.0512 28.844 23.0762 28.677 23.0962 28.484 23.1202 28.281 23.1402 28.082 23.1612 27.916 23.1792 27.755 23.1992 27.584 23.2142 27.366 23.2352 27.136 23.2502 26.91 23.2662 26.746 23.2782 26.589 23.2932 26.421 23.3032 26.165 23.3192 25.898 23.3292 25.633 23.3392 25.483 23.3462 25.341 23.3552 25.189 23.3602 24.767 23.3732 24.334 23.3802 23.891 23.3802 23.447 23.3802 23.016 23.3732 22.594 23.3602 22.437 23.3552 22.288 23.3452 22.134 23.3392 21.875 23.3282 21.612 23.3192 21.361 23.3032 21.192 23.2932 21.033 23.2782 20.868 23.2662 20.644 23.2502 20.416 23.2352 20.198 23.2142 20.029 23.1992 19.869 23.1792 19.704 23.1622 19.504 23.1402 19.299 23.1212 19.106 23.0962 18.94 23.0762 18.783 23.0512 18.622 23.0292 18.443 23.0042 18.259 22.9812 18.086 22.9532 17.923 22.9272 17.77 22.8992 17.612 22.8712 17.454 22.8442 17.293 22.8182 17.142 22.7892 16.984 22.7582 16.839 22.7262 16.689 22.6942 16.549 22.6652 16.404 22.6362 16.272 22.6062 16.127 22.5722 15.994 22.5382 15.857 22.5042 15.731 22.4722 15.599 22.4412 15.478 22.4082 15.346 22.3732 15.226 22.3362 15.101 22.2992 14.988 22.2672 14.872 22.2352 14.766 22.2012 14.647 22.1632 14.538 22.1252 14.426 22.0872 14.328 22.0532 14.227 22.0202 14.135 21.9862 14.03 21.9482 13.939 21.9102 13.842 21.8722 13.756 21.8372 13.665 21.8032 13.585 21.7682 13.498 21.7312 13.422 21.6932 13.342 21.6562 13.268 21.6212 13.19 21.5862 13.122 21.5512 13.051 21.5142 12.99 21.4782 12.926 21.4422 12.865 21.4072 12.801 21.3722 12.746 21.3382 12.691 21.3032 12.647 21.2692 12.599 21.2352 12.551 21.2012 12.5 21.1662 12.46 21.1322 12.421 21.1002 12.392 21.0692 12.36 21.0382 12.326 21.0052 12.29 20.9712 12.265 20.9392 12.241 20.9102 12.228 20.8832 12.212 20.8552 12.192 20.8232 12.172 20.7912 12.162 20.7602L12.155 20.7032C12.2 20.5492 12.581 20.0152 13.988 19.3842L13.172 17.5592C11.167 18.4572 10.15 19.5242 10.15 20.7312 10.15 20.7752 10.153 20.8182 10.159 20.8602L10.193 21.1232 10.193 21.1232 10.193 21.1272 13.044 42.2932C13.168 45.2192 20.172 45.9962 23.891 45.9962 26.148 45.9962 28.415 45.7592 30.274 45.3302 31.028 45.1562 31.707 44.9512 32.29 44.7212 33.874 44.0942 34.697 43.2782 34.739 42.2932L35.86 33.9692C36.412 34.0822 36.896 34.1462 37.302 34.1462 38.077 34.1462 38.607 33.9392 38.957 33.5212 39.257 33.1642 39.375 32.7152 39.289 32.2562L39.289 32.2562ZM17.888 32.0072 18.829 30.4382 19.771 32.0072 17.888 32.0072ZM22.406 33.5002C22.584 33.1862 22.579 32.8012 22.394 32.4922L19.687 27.9802C19.506 27.6792 19.181 27.4952 18.829 27.4952 18.478 27.4952 18.152 27.6792 17.972 27.9802L15.264 32.4922C15.078 32.8012 15.073 33.1862 15.251 33.5002 15.429 33.8132 15.761 34.0072 16.121 34.0072L21.536 34.0072C21.897 34.0072 22.229 33.8132 22.406 33.5002L22.406 33.5002ZM28.485 38.0072C27.658 38.0072 26.985 37.3342 26.985 36.5072 26.985 35.6802 27.658 35.0072 28.485 35.0072 29.313 35.0072 29.985 35.6802 29.985 36.5072 29.985 37.3342 29.313 38.0072 28.485 38.0072L28.485 38.0072ZM28.485 33.0072C26.556 33.0072 24.985 34.5772 24.985 36.5072 24.985 38.4372 26.556 40.0072 28.485 40.0072 30.415 40.0072 31.985 38.4372 31.985 36.5072 31.985 34.5772 30.415 33.0072 28.485 33.0072L28.485 33.0072ZM18.985 40.0072 20.985 40.0072 20.985 38.0072 18.985 38.0072 18.985 40.0072ZM21.985 36.0072 17.985 36.0072C17.433 36.0072 16.985 36.4552 16.985 37.0072L16.985 41.0072C16.985 41.5592 17.433 42.0072 17.985 42.0072L21.985 42.0072C22.538 42.0072 22.985 41.5592 22.985 41.0072L22.985 37.0072C22.985 36.4552 22.538 36.0072 21.985 36.0072L21.985 36.0072ZM22.842 10.9022C23.136 10.5962 23.529 10.4422 23.923 10.4422 24.297 10.4422 24.672 10.5812 24.962 10.8602 25.559 11.4332 25.577 12.3842 25.004 12.9812 24.726 13.2702 24.353 13.4332 23.952 13.4412 23.551 13.4352 23.172 13.3002 22.883 13.0222 22.595 12.7452 22.431 12.3712 22.423 11.9712 22.415 11.5702 22.565 11.1902 22.842 10.9022L22.842 10.9022ZM23.922 15.4402C24.841 15.4402 25.76 15.0802 26.445 14.3672 27.783 12.9762 27.739 10.7562 26.349 9.41823 24.957 8.08123 22.736 8.12524 21.4 9.51523 20.752 10.1892 20.405 11.0752 20.424 12.0092 20.441 12.9442 20.823 13.8172 21.497 14.4642 22.175 15.1162 23.049 15.4402 23.922 15.4402L23.922 15.4402ZM18.213 11.9052C18.467 11.7892 18.66 11.5712 18.747 11.3062L19.186 9.96024C19.272 9.69423 19.243 9.40423 19.107 9.16024L17.911 7.03324 20.836 4.91224 22.477 6.69324C22.666 6.89924 22.933 7.01624 23.212 7.01624L23.218 7.01624 24.673 7.00724C24.95 7.00624 25.214 6.88924 25.402 6.68524L27.032 4.91724 29.953 7.04324 28.763 9.16123C28.627 9.40224 28.598 9.69024 28.682 9.95424L29.115 11.3152C29.201 11.5832 29.396 11.8022 29.65 11.9202L31.863 12.9372 30.745 16.3722 28.355 15.8922C28.082 15.8362 27.793 15.9002 27.567 16.0662L26.411 16.9122C26.187 17.0762 26.041 17.3262 26.009 17.6032L25.727 20.0112 22.114 20.0082 21.836 17.6172C21.804 17.3432 21.66 17.0942 21.438 16.9292L20.268 16.0642C20.04 15.8962 19.753 15.8312 19.477 15.8872L17.105 16.3612 15.992 12.9242 18.213 11.9052ZM15.477 17.8242C15.633 18.3082 16.122 18.5932 16.624 18.4972L19.435 17.9352 19.899 18.2792 20.231 21.1232C20.289 21.6262 20.716 22.0062 21.223 22.0072L26.615 22.0122 26.616 22.0122C27.123 22.0122 27.551 21.6322 27.609 21.1292L27.944 18.2682 28.394 17.9402 31.225 18.5072C31.715 18.6052 32.214 18.3192 32.372 17.8372L34.041 12.7092C34.198 12.2272 33.969 11.7032 33.508 11.4912L30.887 10.2872 30.72 9.76124 32.133 7.24724C32.381 6.80524 32.259 6.24724 31.849 5.94824L27.488 2.77624C27.077 2.47824 26.51 2.53324 26.165 2.90724L24.227 5.00924 23.649 5.01324 21.704 2.90324C21.36 2.52824 20.789 2.47324 20.382 2.77124L16.017 5.93724C15.606 6.23524 15.483 6.79424 15.732 7.23624L17.148 9.75724 16.981 10.2702 14.35 11.4772C13.889 11.6892 13.659 12.2122 13.816 12.6942L15.477 17.8242Z" id="Fill-1" fill="#7AA116"/></g></svg>