<svg width="48" height="48" viewBox="0 0 48 48" xmlns="http://www.w3.org/2000/svg" xmlns:xlink="http://www.w3.org/1999/xlink" overflow="hidden"><g id="Icon-Resource/Management-Governance/Res_AWS-Trusted-Advisor_Checklist_48" stroke="none" stroke-width="1" fill="none" fill-rule="evenodd"><path d="M13.2849 41.291 9.7889 37.795 11.2029 36.381 13.8839 39.062 18.4359 32.992 20.0359 34.191 14.7919 41.184C14.6179 41.416 14.3519 41.561 14.0629 41.581 14.0389 41.583 14.0149 41.584 13.9919 41.584 13.7269 41.584 13.4729 41.479 13.2849 41.291L13.2849 41.291ZM13.2849 27.307 9.7889 23.811 11.2029 22.396 13.8839 25.077 18.4359 19.008 20.0359 20.207 14.7919 27.199C14.6179 27.432 14.3519 27.576 14.0629 27.597 14.0389 27.599 14.0149 27.6 13.9919 27.6 13.7269 27.6 13.4729 27.495 13.2849 27.307L13.2849 27.307ZM13.2849 13.321 9.7889 9.825 11.2029 8.411 13.8839 11.092 18.4359 5.022 20.0359 6.222 14.7919 13.214C14.6179 13.446 14.3519 13.591 14.0629 13.611 14.0389 13.613 14.0149 13.614 13.9919 13.614 13.7269 13.614 13.4729 13.51 13.2849 13.321L13.2849 13.321ZM22.7329 39.836 37.5919 39.836 37.5919 37.836 22.7329 37.836 22.7329 39.836ZM22.7329 26.726 37.5919 26.726 37.5919 24.726 22.7329 24.726 22.7329 26.726ZM22.7329 12.74 37.5919 12.74 37.5919 10.74 22.7329 10.74 22.7329 12.74ZM7.9999 43.954 40.9619 43.954 40.9619 4 7.9999 4 7.9999 43.954ZM41.9619 2 6.9999 2C6.4469 2 5.9999 2.447 5.9999 3L5.9999 44.954C5.9999 45.507 6.4469 45.954 6.9999 45.954L41.9619 45.954C42.5139 45.954 42.9619 45.507 42.9619 44.954L42.9619 3C42.9619 2.447 42.5139 2 41.9619 2L41.9619 2Z" id="AWS-Trusted-Advisor_checklist_Resource-Icon_light-bg" fill="#E7157B"/></g></svg>