<svg width="80" height="80" viewBox="0 0 80 80" xmlns="http://www.w3.org/2000/svg" xmlns:xlink="http://www.w3.org/1999/xlink" overflow="hidden"><g id="Icon-Architecture/64/Arch_AWS-DataSync_64" stroke="none" stroke-width="1" fill="none" fill-rule="evenodd"><g id="Icon-Architecture-BG/64/Migration-Transfer" fill="#01A88D"><rect x="0" y="0" width="80" height="80" id="Rectangle"/></g><path d="M58.909 32.1635C58.347 27.9434 55.942 25.7717 53.779 25.142 51.851 24.5821 49.873 25.0384 48.326 26.3335 47.5 24.6409 46.301 23.0031 44.747 21.451 40.27 16.9779 34.388 15.8103 28.61 18.2481 23.621 20.3531 20 25.7667 20 31.1204L20 32.3608C15.416 33.7933 13 37.1387 13 42.079L15 42.079C15 37.7673 17.044 35.1502 21.248 34.0783 21.69 33.9657 22 33.5682 22 33.1129L22 31.1204C22 26.6055 25.177 21.8604 29.389 20.0831 34.381 17.9781 39.459 18.9903 43.331 22.8577 45.117 24.6429 46.371 26.5288 47.056 28.4635 47.18 28.8112 47.486 29.0622 47.852 29.117 48.217 29.1728 48.585 29.0204 48.805 28.7235 49.916 27.2252 51.608 26.5876 53.219 27.0548 55.37 27.6814 56.784 29.9708 57.002 33.1807 57.038 33.7027 57.473 34.1092 58 34.1092 60.075 34.1092 66 35.5736 66 42.079 66 50.8967 58.324 51.0432 58 51.0452L52 51.0452 52 53.0376 58 53.0376C58.099 53.0376 68 52.9121 68 42.079 68 35.3684 62.756 32.55 58.909 32.1635L58.909 32.1635ZM39.629 41.305C39.328 41.0629 38.915 41.0151 38.569 41.1804 38.222 41.3458 38 41.6955 38 42.079L38 45.0648 33.002 45.0648 33.002 47.0572 39 47.0572C39.553 47.0572 40 46.6109 40 46.061L40 44.1672 46.058 49.0527 40 53.9382 40 52.0414C40 51.4915 39.553 51.0452 39 51.0452L23 51.0452 23 49.0527C23 48.6771 22.788 48.3334 22.452 48.1641 22.117 47.9947 21.714 48.0286 21.409 48.2487L12.409 54.8209C12.149 55.0102 11.998 55.3111 12 55.6308 12.002 55.9506 12.158 56.2505 12.42 56.4358L21.42 62.8157C21.593 62.9382 21.796 63 22 63 22.156 63 22.314 62.9641 22.458 62.8894 22.791 62.7181 23 62.3764 23 62.0038L23 60.0272 28 60.0272 28 58.0348 22 58.0348C21.447 58.0348 21 58.4811 21 59.031L21 60.0721 14.708 55.6119 21 51.0183 21 52.0414C21 52.5913 21.447 53.0376 22 53.0376L38 53.0376 38 56.0263C38 56.4099 38.222 56.7596 38.569 56.925 38.915 57.0913 39.329 57.0435 39.629 56.8004L48.277 49.8268C48.512 49.6385 48.648 49.3536 48.648 49.0527 48.648 48.7518 48.512 48.4679 48.277 48.2786L39.629 41.305ZM30 60.0113 33 60.0113 33 58.0188 30 58.0188 30 60.0113ZM36 60.0113 48 60.0113 48 58.0188 36 58.0188 36 60.0113ZM13 47.0602 25.951 47.0602 25.951 45.0677 13 45.0677 13 47.0602ZM28.003 47.0602 30.857 47.0602 30.857 45.0677 28.003 45.0677 28.003 47.0602Z" id="AWS-DataSync_Icon_64_Squid" fill="#FFFFFF"/></g></svg>