<svg width="80" height="80" viewBox="0 0 80 80" xmlns="http://www.w3.org/2000/svg" xmlns:xlink="http://www.w3.org/1999/xlink" overflow="hidden"><g id="Icon-Architecture/64/Arch_AWS-Elemental-Appliances-&amp;-Software_64" stroke="none" stroke-width="1" fill="none" fill-rule="evenodd"><g id="Icon-Architecture-BG/64/Media-Services" fill="#ED7100"><rect x="0" y="0" width="80" height="80" id="Rectangle"/></g><path d="M45.99 51.42 40 54.848 34.01 51.42 34.01 44.58 40 41.152 45.99 44.58 45.99 51.42ZM47.99 44C47.99 43.642 47.798 43.31 47.487 43.132L40.497 39.132C40.188 38.956 39.811 38.956 39.503 39.132L32.512 43.132C32.202 43.31 32.01 43.642 32.01 44L32.01 47 14 47 14 49 32.01 49 32.01 52C32.01 52.358 32.202 52.69 32.512 52.868L39 56.581 39 64 41 64 41 56.581 47.487 52.868C47.798 52.69 47.99 52.358 47.99 52L47.99 49 66 49 66 47 47.99 47 47.99 44ZM18 27 24 27 24 25 18 25 18 27ZM47 27 62 27 62 25 47 25 47 27ZM14 34 66 34 66 18 14 18 14 34ZM67 16 13 16C12.447 16 12 16.448 12 17L12 35C12 35.552 12.447 36 13 36L67 36C67.552 36 68 35.552 68 35L68 17C68 16.448 67.552 16 67 16L67 16Z" id="AWS-Elemental-Appliances-&amp;-Software_Icon_64_Squid" fill="#FFFFFF"/></g></svg>