<svg width="80" height="80" viewBox="0 0 80 80" xmlns="http://www.w3.org/2000/svg" xmlns:xlink="http://www.w3.org/1999/xlink" overflow="hidden"><g id="Icon-Architecture/64/Arch_AWS-Outposts-rack_64" stroke="none" stroke-width="1" fill="none" fill-rule="evenodd"><g id="Icon-Architecture-BG/64/Compute" fill="#ED7100"><rect x="0" y="0" width="80" height="80" id="Rectangle"/></g><path d="M53.0047 29.3343C53.0047 28.9676 53.0047 28.5921 52.9857 28.3612 52.7533 28.3433 52.3752 28.3433 52.007 28.3433L38.0398 28.3433C37.6716 28.3433 37.2935 28.3433 37.0611 28.3612 37.0421 28.5921 37.0421 28.9676 37.0421 29.3343L37.0421 60.0542C37.0421 60.4209 37.0421 60.7964 37.0611 61.0273 37.2935 61.0452 37.6716 61.0452 38.0398 61.0452L42.0304 61.0452 48.0164 61.0452 52.007 61.0452C52.3752 61.0452 52.7533 61.0452 52.9857 61.0273 53.0047 60.7964 53.0047 60.4209 53.0047 60.0542L53.0047 29.3343ZM49.014 64.0181 51.0094 64.0181 51.0094 63.0271 49.014 63.0271 49.014 64.0181ZM39.0374 64.0181 41.0328 64.0181 41.0328 63.0271 39.0374 63.0271 39.0374 64.0181ZM55 29.3343 55 60.0542C55 62.2026 54.6628 62.8408 53.0047 62.9855L53.0047 65.009C53.0047 65.556 52.5587 66 52.007 66L48.0164 66C47.4647 66 47.0187 65.556 47.0187 65.009L47.0187 63.0271 43.0281 63.0271 43.0281 65.009C43.0281 65.556 42.5821 66 42.0304 66L38.0398 66C37.4881 66 37.0421 65.556 37.0421 65.009L37.0421 62.9855C35.384 62.8408 35.0468 62.2026 35.0468 60.0542L35.0468 29.3343C35.0468 26.8064 35.4938 26.3614 38.0398 26.3614L52.007 26.3614C54.553 26.3614 55 26.8064 55 29.3343L55 29.3343ZM50.0117 42.2168C50.0117 42.7629 49.5648 43.2078 49.014 43.2078 48.4633 43.2078 48.0164 42.7629 48.0164 42.2168 48.0164 41.6708 48.4633 41.2259 49.014 41.2259 49.5648 41.2259 50.0117 41.6708 50.0117 42.2168L50.0117 42.2168ZM50.0117 38.253C50.0117 38.799 49.5648 39.244 49.014 39.244 48.4633 39.244 48.0164 38.799 48.0164 38.253 48.0164 37.707 48.4633 37.262 49.014 37.262 49.5648 37.262 50.0117 37.707 50.0117 38.253L50.0117 38.253ZM50.0117 34.2891C50.0117 34.8352 49.5648 35.2801 49.014 35.2801 48.4633 35.2801 48.0164 34.8352 48.0164 34.2891 48.0164 33.7431 48.4633 33.2982 49.014 33.2982 49.5648 33.2982 50.0117 33.7431 50.0117 34.2891L50.0117 34.2891ZM40.0351 35.2801 47.0187 35.2801 47.0187 33.2982 40.0351 33.2982 40.0351 35.2801ZM40.0351 43.2078 47.0187 43.2078 47.0187 41.2259 40.0351 41.2259 40.0351 43.2078ZM40.0351 39.244 47.0187 39.244 47.0187 37.262 40.0351 37.262 40.0351 39.244ZM31.129 36.2711 34.0003 36.2711 34.0003 38.253 31.0352 38.253C30.9754 38.253 30.9145 38.248 30.8556 38.2361 26.7353 37.485 25.2747 34.2297 25.0772 32.6134 24.4976 27.8092 27.304 25.5567 29.426 24.8125 29.3771 22.5184 30.3149 19.9826 31.9351 18.1354 33.1892 16.7055 35.4389 15.001 39.0285 15 44.5036 15 46.8791 18.4733 47.8208 20.598 49.3064 19.6605 50.9206 20.042 51.0074 20.0638 54.0941 20.6554 54.9611 23.7869 54.98 25.3586L52.9847 25.3823C52.9837 25.2674 52.8979 22.4441 50.5754 21.9982 50.3848 21.9546 49.0539 21.6959 48.2239 22.9436 48.0004 23.2805 47.5994 23.447 47.1973 23.3697 46.7992 23.2904 46.49 22.9812 46.4131 22.5858 46.3672 22.3599 45.207 16.9819 39.0285 16.9819 36.1891 16.9819 34.4213 18.3168 33.4396 19.4375 31.7705 21.3402 31.2477 23.8126 31.4712 25.418 31.545 25.9462 31.1849 26.4377 30.6571 26.5299 30.2311 26.6092 26.4649 27.4594 27.0585 32.3766 27.0755 32.5004 27.5314 35.5675 31.129 36.2711L31.129 36.2711Z" id="AWS-Outposts-rack_Icon_64_Squid" fill="#FFFFFF"/></g></svg>