<svg width="48" height="48" viewBox="0 0 48 48" xmlns="http://www.w3.org/2000/svg" xmlns:xlink="http://www.w3.org/1999/xlink" overflow="hidden"><g id="Icon-Resource/Management-Governance/Res_Amazon-CloudWatch_Data-Protection_48" stroke="none" stroke-width="1" fill="none" fill-rule="evenodd"><path d="M31.999 30.972 32.001 30.972C32.535 30.972 33.036 30.764 33.413 30.388 33.792 30.01 34 29.508 34 28.973L34 28.972C34.001 28.438 33.793 27.936 33.416 27.558 33.038 27.18 32.536 26.972 32.001 26.972L31.999 26.972C31.465 26.972 30.964 27.18 30.587 27.556 30.209 27.934 30.001 28.437 30 28.972 30 30.075 30.896 30.972 31.999 30.972L31.999 30.972ZM31 36.973 31 32.83C29.28 32.383 28 30.83 28 28.971 28.001 27.901 28.418 26.897 29.173 26.142 29.928 25.388 30.931 24.972 31.997 24.972L32.002 24.972C33.07 24.972 34.075 25.389 34.831 26.145 35.586 26.901 36.001 27.906 36 28.974 36 30.043 35.583 31.048 34.827 31.803 34.315 32.315 33.683 32.656 33 32.831L33 36.973 31 36.973ZM24.981 19.974 39.034 19.98 39.033 12.992C39.039 11.143 38.32 9.398 37.008 8.074 35.688 6.743 33.932 6.006 32.061 6L32.039 6C30.178 6 28.419 6.733 27.084 8.065 25.751 9.395 25.014 11.145 25.008 12.991L24.981 19.974ZM46 20.982 45.991 41.973C45.991 42.526 45.543 42.973 44.991 42.973L19 42.963C18.447 42.963 18 42.514 18 41.962L18.004 28.972 20.004 28.972 20 40.963 43.991 40.972 44 21.981 20.007 21.972 20.006 22.972 18.006 22.972 18.007 20.972C18.007 20.419 18.455 19.972 19.007 19.972L22.981 19.973 23.008 12.984C23.016 10.606 23.961 8.356 25.672 6.65 27.385 4.94 29.645 4 32.038 4L32.067 4C34.474 4.008 36.732 4.955 38.429 6.666 40.116 8.369 41.041 10.617 41.033 12.995L41.034 19.98 45 19.982C45.266 19.982 45.52 20.087 45.707 20.275 45.895 20.463 46 20.717 46 20.982L46 20.982ZM2 34.973 14 34.973 14 32.973 2 32.973 2 34.973ZM2 18.972 14 18.972 14 16.972 2 16.972 2 18.972ZM2 26.972 25.999 26.972 25.999 24.972 2 24.972 2 26.972ZM2 42.973 15.999 42.973 15.999 40.973 2 40.973 2 42.973ZM2 10.972 17.999 10.972 17.999 8.972 2 8.972 2 10.972Z" id="Fill-1" fill="#E7157B"/></g></svg>