<svg width="48" height="48" viewBox="0 0 48 48" xmlns="http://www.w3.org/2000/svg" xmlns:xlink="http://www.w3.org/1999/xlink" overflow="hidden"><g id="Icon-Resource/Compute/Res_Amazon-EC2_Spot-Instance_48" stroke="none" stroke-width="1" fill="none" fill-rule="evenodd"><path d="M3.675 24.96 2 24.96 2 22.96 3.675 22.96C3.864 19.016 5.161 15.264 7.481 12.061L9.1 13.232C7.03 16.093 5.863 19.439 5.675 22.96L7.271 22.96 7.271 24.96 5.675 24.96C5.863 28.481 7.03 31.827 9.101 34.689L7.48 35.86C5.161 32.656 3.864 28.904 3.675 24.96L3.675 24.96ZM35.861 40.44C32.657 42.761 28.906 44.057 24.96 44.246L24.96 45.862 22.96 45.862 22.96 44.246C19.016 44.057 15.265 42.761 12.061 40.44L13.233 38.821C16.094 40.892 19.44 42.059 22.96 42.246L22.96 40.649 24.96 40.649 24.96 42.246C28.482 42.059 31.828 40.892 34.689 38.821L35.861 40.44ZM12.061 7.481C15.265 5.16 19.016 3.864 22.96 3.674L22.96 2 24.96 2 24.96 3.674C28.906 3.864 32.657 5.16 35.861 7.481L34.689 9.1C31.828 7.029 28.482 5.862 24.96 5.674L24.96 7.271 22.96 7.271 22.96 5.674C19.44 5.862 16.094 7.029 13.233 9.1L12.061 7.481ZM45.92 24.96 44.247 24.96C44.057 28.904 42.761 32.656 40.442 35.86L38.821 34.689C40.892 31.827 42.059 28.481 42.247 24.96L40.65 24.96 40.65 22.96 42.247 22.96C42.059 19.439 40.892 16.093 38.821 13.232L40.441 12.061C42.761 15.264 44.057 19.016 44.247 22.96L45.92 22.96 45.92 24.96ZM35.551 10.956 41.699 4.807 43.113 6.221 36.965 12.37 35.551 10.956ZM12.37 36.965 6.221 43.113 4.807 41.699 10.956 35.551 12.37 36.965ZM31.695 30.28 43.113 41.699 41.699 43.113 30.28 31.694 31.695 30.28ZM16.226 17.64 4.807 6.221 6.221 4.807 17.64 16.226 16.226 17.64ZM33.501 22.96 33.501 14.419 24.96 14.419 24.96 16.904 22.96 16.904 22.96 13.827C22.96 13.051 23.592 12.419 24.368 12.419L34.093 12.419C34.869 12.419 35.501 13.051 35.501 13.827L35.501 23.552C35.501 24.328 34.869 24.96 34.093 24.96L30.987 24.96 30.987 22.96 33.501 22.96ZM14.42 24.96 14.42 33.501 22.96 33.501 22.96 30.987 24.96 30.987 24.96 34.093C24.96 34.869 24.328 35.501 23.552 35.501L13.828 35.501C13.052 35.501 12.42 34.869 12.42 34.093L12.42 24.368C12.42 23.592 13.052 22.96 13.828 22.96L16.933 22.96 16.933 24.96 14.42 24.96ZM19.69 28.231 28.231 28.231 28.231 19.69 19.69 19.69 19.69 28.231ZM30.231 28.579 30.231 19.341C30.231 18.431 29.489 17.689 28.579 17.689L19.341 17.689C18.431 17.689 17.69 18.431 17.69 19.341L17.69 28.579C17.69 29.489 18.431 30.231 19.341 30.231L28.579 30.231C29.489 30.231 30.231 29.489 30.231 28.579L30.231 28.579Z" id="Amazon-EC2-Spot-Instance_Resource-Icon_light-bg" fill="#ED7100"/></g></svg>