<svg width="48" height="48" viewBox="0 0 48 48" xmlns="http://www.w3.org/2000/svg" xmlns:xlink="http://www.w3.org/1999/xlink" overflow="hidden"><g id="Icon-Resource/Application-Integration/Res_Amazon-EventBridge_Schema_48" stroke="none" stroke-width="1" fill="none" fill-rule="evenodd"><path d="M19 27.25 19 21.476 24 18.589 29 21.476 29 27.25 24 30.136 19 27.25ZM24 32.291C24.173 32.291 24.346 32.247 24.5 32.157L30.5 28.693C30.81 28.515 31 28.185 31 27.827L31 20.899C31 20.542 30.81 20.211 30.5 20.033L24.5 16.568C24.191 16.39 23.809 16.39 23.5 16.568L17.5 20.033C17.19 20.211 17 20.542 17 20.899L17 27.827C17 28.185 17.19 28.515 17.5 28.693L23.5 32.157C23.654 32.247 23.827 32.291 24 32.291L24 32.291ZM32.707 17.707 31.293 16.293 37.293 10.293 38.707 11.707 32.707 17.707ZM15.293 31.293 16.707 32.707 10.707 38.707 9.293 37.293 15.293 31.293ZM16.293 17.707 10.293 11.707 11.707 10.293 17.707 16.293 16.293 17.707ZM32.707 31.293 38.707 37.293 37.293 38.707 31.293 32.707 32.707 31.293ZM34 26 40 26 40 24 34 24 34 26ZM8 26 14 26 14 24 8 24 8 26ZM23 13 25 13 25 7 23 7 23 13ZM23 41 25 41 25 36 23 36 23 41ZM4 44 44 44 44 4 4 4 4 44ZM46 3C46 2.448 45.553 2 45 2L3 2C2.447 2 2 2.448 2 3L2 45C2 45.552 2.447 46 3 46L45 46C45.553 46 46 45.552 46 45L46 3Z" id="Fill-4" fill="#E7157B"/></g></svg>