<svg width="80" height="80" viewBox="0 0 80 80" xmlns="http://www.w3.org/2000/svg" xmlns:xlink="http://www.w3.org/1999/xlink" overflow="hidden"><g id="Icon-Architecture/64/Arch_Amazon-Keyspaces_64" stroke="none" stroke-width="1" fill="none" fill-rule="evenodd"><g id="Icon-Architecture-BG/64/Database" fill="#C925D1"><rect x="0" y="0" width="80" height="80" id="Rectangle"/></g><path d="M68.024 29.02 64.803 29.776 67.324 32.604C67.136 32.978 66.884 33.281 66.568 33.514 66.25 33.748 65.896 33.892 65.503 33.948L63.544 30.56 61.584 33.948C61.192 33.892 60.837 33.748 60.519 33.514 60.202 33.281 59.95 32.978 59.763 32.604L62.284 29.776 59.064 29.02C59.026 28.833 59.007 28.684 59.007 28.572 59.007 27.937 59.25 27.377 59.736 26.892L62.759 28.376 62.368 24.764C62.741 24.596 63.132 24.512 63.544 24.512 63.973 24.512 64.365 24.596 64.719 24.764L64.328 28.376 67.351 26.892C67.837 27.377 68.08 27.937 68.08 28.572 68.08 28.684 68.061 28.833 68.024 29.02L68.024 29.02ZM52.93 52.278C54.433 52.278 56.101 51.978 57.932 51.376L57.932 53.303C56.238 54.068 54.53 54.451 52.807 54.451 49.636 54.451 47.232 53.542 45.591 51.725 43.952 49.907 43.131 47.235 43.131 43.709 43.131 40.21 43.965 37.539 45.632 35.693 47.299 33.849 49.718 32.926 52.889 32.926 54.584 32.926 56.183 33.254 57.686 33.91L57.686 35.837C56.183 35.345 54.625 35.099 53.012 35.099 50.416 35.099 48.537 35.762 47.376 37.087 46.213 38.414 45.632 40.539 45.632 43.463L45.632 43.955C45.632 46.798 46.22 48.895 47.396 50.249 48.571 51.602 50.416 52.278 52.93 52.278L52.93 52.278ZM31 13C41.767 13 49 16.103 49 19 49 21.897 41.767 25 31 25 20.358 25 14 21.949 14 19 14 16.051 20.358 13 31 13L31 13ZM49 62C49 64.897 41.767 68 31 68 22.643 68 14 65.756 14 62L14 51.883C16.973 54.44 23.075 56 31 56 35.092 56 38.981 55.565 42.244 54.744L41.755 52.804C38.65 53.586 34.93 54 31 54 22.643 54 14 51.77 14 48.037L14 37.8C17.001 40.384 23.168 42 31 42 35.088 42 38.977 41.561 42.246 40.73L41.753 38.792C38.643 39.583 34.924 40 31 40 20.358 40 14 36.949 14 34L14 22.8C17.001 25.384 23.168 27 31 27 38.258 27 45.578 25.532 49 22.696L49 26 51 26 51 19C51 13.748 40.938 11 31 11 19.813 11 12 14.29 12 19L12 62C12 66.785 19.635 70 31 70 40.938 70 51 67.252 51 62L51 60 49 60 49 62Z" id="Amazon-Keyspaces-Service_Icon_64_Squid" fill="#FFFFFF"/></g></svg>