<svg width="80" height="80" viewBox="0 0 80 80" xmlns="http://www.w3.org/2000/svg" xmlns:xlink="http://www.w3.org/1999/xlink" fill="none" overflow="hidden"><rect x="0" y="0" width="80" height="80" fill="#8C4FFF"/><path d="M65.4473 31.1057 58 27.382 58 20.0002C58 19.6457 57.8125 19.3176 57.5068 19.1379L48.9931 14.1379C48.6836 13.9563 48.2998 13.9538 47.9902 14.132L40 18.7028 32.0098 14.132C31.7002 13.9548 31.3164 13.9572 31.0068 14.1379L22.4932 19.1379C22.1875 19.3176 22 19.6457 22 20.0002L22 27.382 14.5527 31.1057C14.2139 31.2751 14 31.6213 14 32.0002L14 48.0002C14 48.3791 14.2139 48.7253 14.5527 48.8947L22 52.6184 22 60.0002C22 60.3547 22.1875 60.6828 22.4932 60.8625L31.0068 65.8625C31.3154 66.0436 31.6992 66.0456 32.0098 65.8684L40 61.2976 47.9902 65.8684C48.1435 65.9562 48.3154 66.0002 48.4863 66.0002 48.6611 66.0002 48.8369 65.9543 48.9931 65.8625L57.5068 60.8625C57.8125 60.6828 58 60.3547 58 60.0002L58 52.6184 65.4473 48.8947C65.7861 48.7253 66 48.3791 66 48.0002L66 32.0002C66 31.6213 65.7861 31.2751 65.4473 31.1057ZM40 43.4768 37 41.7365 37 38.2873 40 36.5271 43 38.2873 43 41.7365 40 43.4768ZM31.5205 63.8444 24 59.4279 24 52.0002C24 51.6213 23.7861 51.2751 23.4473 51.1057L16 47.382 16 32.6184 23.4473 28.8947C23.7861 28.7253 24 28.3791 24 28.0002L24 20.5725 31.5205 16.156 39.0019 20.4357 39.0019 34.7939 35.4941 36.8523C35.1875 37.0315 35 37.3596 35 37.7146L35 42.3122C35 42.6687 35.1894 42.9983 35.498 43.177L39.002 45.2099 39.002 59.5647 31.5205 63.8444ZM64 47.382 56.5527 51.1057C56.2138 51.2751 56 51.6213 56 52.0002L56 59.4279 48.4795 63.8444 41.0019 59.5669 41.0019 45.2076 44.5019 43.1769C44.8105 42.9982 45 42.6686 45 42.3122L45 37.7145C45 37.3596 44.8125 37.0314 44.5058 36.8522L41.0019 34.7961 41.0019 20.4335 48.4795 16.1559 56 20.5724 56 28.0002C56 28.3791 56.2139 28.7253 56.5527 28.8947L64 32.6183 64 47.382Z" fill="#FFFFFF"/></svg>