<svg width="48" height="48" viewBox="0 0 48 48" xmlns="http://www.w3.org/2000/svg" xmlns:xlink="http://www.w3.org/1999/xlink" overflow="hidden"><g id="Icon-Resource/IoT/Res_AWS-IoT-Greengrass_Interprocess-Communication_48" stroke="none" stroke-width="1" fill="none" fill-rule="evenodd"><path d="M40.6875 15.981 42.1015 17.395 37.7265 21.77C37.5315 21.965 37.2755 22.063 37.0195 22.063 36.7635 22.063 36.5075 21.965 36.3125 21.77L31.9375 17.395 33.3515 15.981 36.0005 18.629 36.0005 15.447C36.0005 12.995 34.0045 11 31.5515 11L25.9995 11 25.9995 9 31.5515 9C35.1075 9 37.9995 11.892 37.9995 15.447L37.9995 18.669 40.6875 15.981ZM32.7205 33.693C32.3375 34.089 31.7055 34.103 31.3065 33.72 31.1145 33.535 31.0055 33.286 30.9995 33.02 30.9955 32.752 31.0935 32.499 31.2795 32.306 31.4755 32.103 31.7375 32 31.9995 32 32.2495 32 32.4995 32.092 32.6925 32.278 32.6925 32.279 32.6925 32.279 32.6935 32.279 32.8855 32.464 32.9945 32.713 33.0005 32.98 33.0045 33.247 32.9065 33.5 32.7205 33.693L32.7205 33.693ZM29.8375 30.92C29.2825 31.498 28.9855 32.257 29.0005 33.059 29.0165 33.86 29.3435 34.607 29.9205 35.162 30.5015 35.721 31.2505 35.998 31.9995 35.998 32.7875 35.998 33.5745 35.69 34.1625 35.079 34.7175 34.501 35.0145 33.742 34.9995 32.94 34.9835 32.139 34.6565 31.392 34.0795 30.837 32.8855 29.689 30.9835 29.729 29.8375 30.92L29.8375 30.92ZM38.2115 36.597 36.0385 36.161C35.7645 36.104 35.4775 36.168 35.2505 36.335L34.1725 37.124C33.9485 37.288 33.8025 37.538 33.7705 37.814L33.5135 40.003 30.2605 40.001 30.0075 37.828C29.9755 37.554 29.8325 37.305 29.6095 37.14L28.5175 36.332C28.2905 36.164 28.0025 36.099 27.7265 36.155L25.5715 36.586 24.5685 33.491 26.5875 32.565C26.8415 32.449 27.0355 32.231 27.1225 31.966L27.5315 30.71C27.6175 30.444 27.5885 30.154 27.4525 29.91L26.3665 27.977 28.9995 26.066 30.4915 27.685C30.6805 27.891 30.9475 28.007 31.2265 28.007L31.2325 28.007 32.5895 28C32.8675 27.998 33.1305 27.881 33.3195 27.677L34.8005 26.071 37.4305 27.985 36.3485 29.91C36.2125 30.152 36.1835 30.439 36.2675 30.703L36.6715 31.974C36.7575 32.242 36.9525 32.461 37.2085 32.579L39.2185 33.503 38.2115 36.597ZM40.8625 32.057 38.4445 30.946 38.3055 30.511 39.6105 28.189C39.8585 27.748 39.7365 27.189 39.3265 26.891L35.2565 23.93C34.8465 23.631 34.2785 23.687 33.9335 24.061L32.1435 26.002 31.6635 26.005 29.8685 24.057C29.5225 23.683 28.9555 23.628 28.5455 23.925L24.4715 26.88C24.0605 27.178 23.9385 27.737 24.1865 28.18L25.4935 30.507 25.3555 30.93 22.9255 32.044C22.4645 32.255 22.2355 32.779 22.3915 33.261L23.9435 38.05C24.0995 38.533 24.5895 38.821 25.0905 38.722L27.6845 38.203 28.0715 38.49 28.3765 41.115C28.4355 41.619 28.8625 41.999 29.3695 42L34.4025 42.004 34.4035 42.004C34.9105 42.004 35.3375 41.625 35.3965 41.121L35.7065 38.48 36.0775 38.208 38.6915 38.732C39.1815 38.833 39.6815 38.544 39.8385 38.062L41.3965 33.275C41.5535 32.793 41.3245 32.269 40.8625 32.057L40.8625 32.057ZM16.4485 37 22.0005 37 22.0005 39 16.4485 39C12.8925 39 10.0005 36.107 10.0005 32.552L10.0005 29.793 7.3825 32.41 5.9685 30.996 10.3435 26.621C10.7345 26.23 11.3675 26.23 11.7575 26.621L16.1325 30.996 14.7185 32.41 12.0005 29.691 12.0005 32.552C12.0005 35.004 13.9955 37 16.4485 37L16.4485 37ZM44.0005 39.552C44.0005 42.004 42.0045 44 39.5515 44L8.4485 44C5.9955 44 3.9995 42.004 3.9995 39.552L3.9995 8.447C3.9995 5.995 5.9955 4 8.4485 4L39.5515 4C42.0045 4 44.0005 5.995 44.0005 8.447L44.0005 39.552ZM39.5515 2 8.4485 2C4.8925 2 1.9995 4.892 1.9995 8.447L1.9995 39.552C1.9995 43.107 4.8925 46 8.4485 46L39.5515 46C43.1075 46 45.9995 43.107 45.9995 39.552L45.9995 8.447C45.9995 4.892 43.1075 2 39.5515 2L39.5515 2ZM15.2795 15.306C15.4755 15.103 15.7375 15 16.0005 15 16.2495 15 16.4995 15.092 16.6925 15.278 16.6925 15.279 16.6925 15.279 16.6935 15.279 16.8855 15.464 16.9945 15.713 17.0005 15.98 17.0045 16.247 16.9065 16.5 16.7205 16.693 16.3385 17.09 15.7065 17.103 15.3065 16.72 15.1145 16.535 15.0055 16.286 15.0005 16.02 14.9955 15.752 15.0935 15.499 15.2795 15.306L15.2795 15.306ZM15.9995 18.998C16.7875 18.998 17.5745 18.69 18.1625 18.079 18.7175 17.501 19.0145 16.742 18.9995 15.94 18.9835 15.139 18.6565 14.392 18.0795 13.837 16.8855 12.689 14.9835 12.728 13.8375 13.92 13.2825 14.498 12.9855 15.257 13.0005 16.059 13.0165 16.86 13.3435 17.607 13.9205 18.162 14.5015 18.721 15.2505 18.998 15.9995 18.998L15.9995 18.998ZM10.9705 15.565C11.2245 15.449 11.4175 15.232 11.5035 14.967L11.9145 13.71C12.0005 13.444 11.9725 13.154 11.8355 12.91L10.7495 10.977 13.3825 9.066 14.8745 10.685C15.0635 10.891 15.3305 11.007 15.6095 11.007L15.6155 11.007 16.9735 11C17.2505 10.998 17.5145 10.881 17.7035 10.677L19.1835 9.071 21.8135 10.985 20.7315 12.91C20.5955 13.152 20.5665 13.439 20.6505 13.703L21.0545 14.974C21.1405 15.242 21.3345 15.462 21.5905 15.579L23.6025 16.503 22.5945 19.597 20.4215 19.161C20.1505 19.105 19.8615 19.168 19.6345 19.334L18.5555 20.124C18.3325 20.288 18.1855 20.538 18.1535 20.814L17.8965 23.003 14.6435 23.001 14.3905 20.828C14.3585 20.554 14.2145 20.305 13.9925 20.14L12.9005 19.332C12.6725 19.164 12.3865 19.099 12.1095 19.155L9.9545 19.586 8.9525 16.491 10.9705 15.565ZM8.3265 21.05C8.4825 21.533 8.9735 21.819 9.4735 21.722L12.0675 21.203 12.4545 21.49 12.7595 24.115C12.8185 24.619 13.2455 24.999 13.7515 25L18.7855 25.004 18.7865 25.004C19.2925 25.004 19.7205 24.625 19.7795 24.121L20.0885 21.48 20.4605 21.208 23.0745 21.732C23.5645 21.832 24.0635 21.543 24.2215 21.062L25.7805 16.275C25.9375 15.793 25.7085 15.269 25.2465 15.057L22.8275 13.946 22.6885 13.511 23.9935 11.189C24.2415 10.748 24.1195 10.189 23.7085 9.891L19.6395 6.93C19.2285 6.631 18.6615 6.688 18.3165 7.061L16.5275 9.002 16.0455 9.005 14.2505 7.057C13.9055 6.683 13.3385 6.628 12.9285 6.925L8.8545 9.88C8.4435 10.179 8.3215 10.737 8.5695 11.18L9.8765 13.507 9.7395 13.93 7.3095 15.044C6.8485 15.256 6.6195 15.779 6.7755 16.261L8.3265 21.05Z" id="Fill-1" fill="#7AA116"/></g></svg>