<svg width="48" height="48" viewBox="0 0 48 48" xmlns="http://www.w3.org/2000/svg" xmlns:xlink="http://www.w3.org/1999/xlink" overflow="hidden"><g id="Icon-Resource/Migration-and-Transfer/Res_AWS-Transfer-Family_AWS-FTPS_48" stroke="none" stroke-width="1" fill="none" fill-rule="evenodd"><path d="M45.502 10.8818 36.913 2.2928C36.523 1.9028 35.89 1.9028 35.499 2.2928L26.91 10.8818C26.624 11.1678 26.538 11.5978 26.693 11.9718 26.848 12.3458 27.213 12.5888 27.617 12.5888L31.985 12.5888 31.985 16.9558 31.985 21.2508 31.985 24.4708C31.985 25.0238 32.433 25.4708 32.985 25.4708L35.939 25.4708 29.765 31.6458 23.591 25.4708 26.544 25.4708C27.097 25.4708 27.544 25.0238 27.544 24.4708L27.544 16.9558 25.544 16.9558 25.544 23.4708 21.177 23.4708C20.773 23.4708 20.407 23.7138 20.253 24.0878 20.098 24.4618 20.184 24.8918 20.47 25.1778L29.058 33.7668C29.245 33.9538 29.499 34.0598 29.765 34.0598 30.03 34.0598 30.284 33.9538 30.472 33.7668L39.061 25.1778C39.347 24.8918 39.433 24.4618 39.277 24.0878 39.123 23.7138 38.758 23.4708 38.354 23.4708L33.985 23.4708 33.985 21.2508 33.985 16.9558 33.985 11.5888C33.985 11.0358 33.538 10.5888 32.985 10.5888L30.031 10.5888 36.206 4.4138 42.381 10.5888 39.427 10.5888C38.874 10.5888 38.427 11.0358 38.427 11.5888L38.427 19.1768 36.206 19.1768 36.206 21.1768 41.648 21.1768 41.648 43.8678 39.696 43.8678 39.696 45.8678 42.648 45.8678C43.2 45.8678 43.648 45.4208 43.648 44.8678L43.648 20.1768C43.648 19.6238 43.2 19.1768 42.648 19.1768L40.427 19.1768 40.427 12.5888 44.795 12.5888C45.199 12.5888 45.564 12.3458 45.719 11.9718 45.874 11.5978 45.788 11.1678 45.502 10.8818L45.502 10.8818ZM9.294 42.7218 9.294 21.1768 23.323 21.1768 23.323 19.1768 8.294 19.1768C7.741 19.1768 7.294 19.6238 7.294 20.1768L7.294 42.7218C7.294 43.3538 6.779 43.8678 6.147 43.8678 5.515 43.8678 5 43.3538 5 42.7218L5 13.6618 15.399 13.6618 17.585 16.4938C17.774 16.7388 18.067 16.8828 18.377 16.8828L23.323 16.8828 23.323 14.8828 18.868 14.8828 16.683 12.0508C16.493 11.8058 16.2 11.6618 15.891 11.6618L4 11.6618C3.447 11.6618 3 12.1098 3 12.6618L3 42.7218C3 44.4568 4.411 45.8678 6.147 45.8678L11.515 45.8678 11.515 43.8678 9.07 43.8678C9.211 43.5118 9.294 43.1268 9.294 42.7218L9.294 42.7218ZM37.588 41.5228C37.326 41.2818 36.971 41.0418 36.525 40.8018L35.83 40.4278C35.451 40.2218 35.195 40.0328 35.063 39.8608 34.93 39.6898 34.863 39.4708 34.863 39.2038 34.863 38.8868 34.967 38.6368 35.172 38.4568 35.379 38.2768 35.662 38.1868 36.023 38.1868 36.555 38.1868 37.17 38.3158 37.865 38.5718L37.865 37.2068C37.195 36.8988 36.522 36.7428 35.842 36.7428 35.301 36.7428 34.822 36.8488 34.406 37.0588 33.99 37.2698 33.66 37.5698 33.42 37.9608 33.18 38.3518 33.061 38.8088 33.061 39.3328 33.061 39.8998 33.197 40.3808 33.473 40.7758 33.746 41.1708 34.201 41.5398 34.838 41.8838L35.533 42.2568C35.885 42.4458 36.137 42.6328 36.287 42.8178 36.438 43.0018 36.512 43.2278 36.512 43.4938 36.512 43.8548 36.404 44.1318 36.189 44.3248 35.975 44.5178 35.662 44.6138 35.25 44.6138 34.967 44.6138 34.625 44.5738 34.227 44.4918 33.826 44.4108 33.467 44.3098 33.15 44.1898L33.15 45.5418C33.424 45.6968 33.764 45.8208 34.168 45.9158 34.57 46.0098 34.975 46.0578 35.379 46.0578 36.307 46.0578 37.033 45.8198 37.563 45.3428 38.09 44.8658 38.356 44.2198 38.356 43.4028 38.356 42.9838 38.293 42.6238 38.168 42.3278 38.043 42.0308 37.85 41.7638 37.588 41.5228L37.588 41.5228ZM30.227 39.7448C30.227 39.2638 30.139 38.8998 29.963 38.6508 29.785 38.4018 29.531 38.2768 29.195 38.2768L28.357 38.2768 28.357 41.2138 29.195 41.2138C29.531 41.2138 29.785 41.0888 29.963 40.8398 30.139 40.5908 30.227 40.2268 30.227 39.7448L30.227 39.7448ZM31.303 37.6908C31.77 38.1928 32.004 38.8778 32.004 39.7448 32.004 40.6118 31.77 41.2978 31.303 41.7998 30.834 42.3018 30.205 42.5538 29.414 42.5538L28.357 42.5538 28.357 45.8638 26.594 45.8638 26.594 36.9368 29.414 36.9368C30.205 36.9368 30.834 37.1878 31.303 37.6908L31.303 37.6908ZM19.494 38.3658 21.633 38.3658 21.633 45.8638 23.438 45.8638 23.438 38.3658 25.576 38.3658 25.576 36.9368 19.494 36.9368 19.494 38.3658ZM14.098 36.9368 18.748 36.9368 18.748 38.3158 15.9 38.3158 15.9 40.7238 18.129 40.7238 18.129 42.1028 15.9 42.1028 15.9 45.8638 14.098 45.8638 14.098 36.9368Z" id="AWS-Transfer-Family-AWS-FTPS_Resource-Icon_light-bg" fill="#01A88D"/></g></svg>