<svg width="48" height="48" viewBox="0 0 48 48" xmlns="http://www.w3.org/2000/svg" xmlns:xlink="http://www.w3.org/1999/xlink" overflow="hidden"><g id="Icon-Resource/Storage/Res_Amazon-Simple-Storage-Service_Bucket_48" stroke="none" stroke-width="1" fill="none" fill-rule="evenodd"><path d="M40.5038 26.1601 40.7278 24.4941C42.5118 25.5811 43.0628 26.2091 43.2228 26.4741 42.7498 26.6171 41.7948 26.4911 40.5038 26.1601L40.5038 26.1601ZM22.8018 20.1111C22.8018 20.0581 22.8448 20.0151 22.8978 20.0151 22.9128 20.0151 22.9238 20.0251 22.9368 20.0321L22.8638 20.1791C22.8308 20.1691 22.8018 20.1491 22.8018 20.1111L22.8018 20.1111ZM36.5138 40.7981C36.5078 40.8431 36.5048 40.8871 36.5048 40.9311 36.5048 41.0861 36.1258 41.6751 34.4408 42.3401 33.6898 42.6371 32.8028 42.9031 31.8028 43.1331 29.2278 43.7291 26.0638 44.0571 22.8958 44.0571 14.4298 44.0571 9.2888 41.8871 9.2888 40.9311 9.2888 40.8871 9.2858 40.8431 9.2798 40.7981L5.4408 12.2851C5.6878 12.4291 5.9528 12.5661 6.2308 12.7001 6.3098 12.7381 6.3958 12.7741 6.4778 12.8121 6.7178 12.9231 6.9668 13.0301 7.2268 13.1341 7.3388 13.1781 7.4518 13.2221 7.5668 13.2651 7.8428 13.3691 8.1278 13.4691 8.4228 13.5651 8.5098 13.5941 8.5928 13.6241 8.6808 13.6511 9.0598 13.7701 9.4528 13.8841 9.8578 13.9911 9.9708 14.0211 10.0878 14.0501 10.2028 14.0781 10.5148 14.1581 10.8328 14.2341 11.1578 14.3061 11.2988 14.3381 11.4388 14.3691 11.5808 14.3981 11.9458 14.4751 12.3188 14.5491 12.6978 14.6181 12.7798 14.6331 12.8588 14.6491 12.9418 14.6641 13.3998 14.7441 13.8688 14.8181 14.3448 14.8881 14.4788 14.9071 14.6148 14.9241 14.7508 14.9421 15.1108 14.9921 15.4758 15.0381 15.8438 15.0811 15.9938 15.0981 16.1448 15.1161 16.2968 15.1331 16.7408 15.1801 17.1888 15.2231 17.6398 15.2621 17.6928 15.2661 17.7468 15.2721 17.8018 15.2761 18.3058 15.3171 18.8128 15.3501 19.3208 15.3801 19.4658 15.3881 19.6108 15.3941 19.7568 15.4011 20.1408 15.4201 20.5248 15.4351 20.9088 15.4481 21.0598 15.4531 21.2088 15.4581 21.3588 15.4621 21.8718 15.4731 22.3848 15.4821 22.8958 15.4821 23.4058 15.4821 23.9188 15.4731 24.4318 15.4621 24.5818 15.4581 24.7328 15.4531 24.8828 15.4481 25.2678 15.4351 25.6508 15.4201 26.0338 15.4011 26.1808 15.3941 26.3258 15.3881 26.4718 15.3801 26.9808 15.3501 27.4868 15.3171 27.9898 15.2761 28.0458 15.2711 28.1008 15.2651 28.1558 15.2621 28.6068 15.2231 29.0518 15.1801 29.4938 15.1331 29.6478 15.1161 29.7988 15.0981 29.9508 15.0811 30.3168 15.0381 30.6808 14.9921 31.0398 14.9431 31.1768 14.9251 31.3148 14.9071 31.4498 14.8871 31.9248 14.8181 32.3928 14.7441 32.8518 14.6641 32.9348 14.6491 33.0158 14.6331 33.0988 14.6171 33.4768 14.5491 33.8478 14.4751 34.2128 14.3981 34.3558 14.3691 34.4948 14.3381 34.6358 14.3061 34.9608 14.2331 35.2788 14.1571 35.5918 14.0781 35.7058 14.0491 35.8228 14.0211 35.9358 13.9921 36.3418 13.8841 36.7348 13.7701 37.1138 13.6511 37.2008 13.6241 37.2828 13.5951 37.3678 13.5661 37.6648 13.4701 37.9518 13.3691 38.2298 13.2641 38.3428 13.2221 38.4548 13.1791 38.5658 13.1351 38.8278 13.0301 39.0788 12.9221 39.3218 12.8101 39.4008 12.7731 39.4848 12.7381 39.5628 12.7011 39.8408 12.5671 40.1068 12.4291 40.3538 12.2851L38.5618 25.5911C34.9248 24.4241 29.8168 22.3071 24.9818 20.0081 24.9268 18.9011 24.0178 18.0151 22.8978 18.0151 21.7418 18.0151 20.8018 18.9561 20.8018 20.1111 20.8018 21.2661 21.7418 22.2061 22.8978 22.2061 23.3518 22.2061 23.7698 22.0571 24.1128 21.8101 28.4448 23.8891 33.9758 26.3421 38.2928 27.5881L36.5138 40.7981ZM22.8958 4.0001C33.3148 4.0001 40.6558 7.2281 40.7918 9.0211L40.7658 9.2291C40.7478 9.2911 40.7088 9.3541 40.6758 9.4181 40.6488 9.4701 40.6288 9.5201 40.5918 9.5731 40.5478 9.6351 40.4828 9.6981 40.4258 9.7611 40.3748 9.8161 40.3318 9.8711 40.2708 9.9271 40.2028 9.9881 40.1158 10.0511 40.0348 10.1131 39.9598 10.1711 39.8938 10.2281 39.8078 10.2871 39.7168 10.3471 39.6078 10.4091 39.5058 10.4711 39.4068 10.5301 39.3158 10.5901 39.2048 10.6491 39.0948 10.7091 38.9658 10.7671 38.8448 10.8271 38.7208 10.8881 38.6048 10.9481 38.4688 11.0091 38.3398 11.0661 38.1928 11.1231 38.0548 11.1801 37.9048 11.2401 37.7638 11.3021 37.6038 11.3611 37.4558 11.4171 37.2898 11.4711 37.1328 11.5251 36.9618 11.5841 36.7978 11.6441 36.6158 11.7021 36.4468 11.7561 36.2608 11.8061 36.0818 11.8591 35.8918 11.9151 35.7088 11.9721 35.5088 12.0261 35.3168 12.0781 35.1098 12.1261 34.9098 12.1761 34.7028 12.2271 34.5028 12.2801 34.2858 12.3301 34.0698 12.3791 33.8378 12.4241 33.6118 12.4711 33.3938 12.5161 33.1818 12.5641 32.9538 12.6071 32.7138 12.6531 32.4568 12.6941 32.2068 12.7371 31.9768 12.7761 31.7538 12.8181 31.5148 12.8551 31.2548 12.8951 30.9788 12.9311 30.7088 12.9681 30.4648 13.0011 30.2268 13.0381 29.9748 13.0681 29.6818 13.1041 29.3728 13.1341 29.0698 13.1651 28.8258 13.1911 28.5898 13.2201 28.3398 13.2421 28.0038 13.2731 27.6518 13.2961 27.3058 13.3201 27.0728 13.3381 26.8478 13.3581 26.6098 13.3731 26.2308 13.3951 25.8338 13.4091 25.4408 13.4261 25.2248 13.4341 25.0148 13.4471 24.7938 13.4541 24.1748 13.4721 23.5418 13.4821 22.8958 13.4821 22.2498 13.4821 21.6168 13.4721 20.9968 13.4541 20.7748 13.4471 20.5628 13.4331 20.3428 13.4251 19.9528 13.4091 19.5598 13.3951 19.1818 13.3731 18.9318 13.3571 18.6938 13.3361 18.4488 13.3181 18.1158 13.2941 17.7758 13.2721 17.4528 13.2421 17.2018 13.2201 16.9658 13.1901 16.7208 13.1651 16.4178 13.1341 16.1088 13.1041 15.8168 13.0681 15.5668 13.0381 15.3298 13.0021 15.0868 12.9681 14.8168 12.9311 14.5388 12.8961 14.2778 12.8551 14.0298 12.8171 13.7978 12.7731 13.5588 12.7321 13.3178 12.6901 13.0708 12.6511 12.8398 12.6071 12.6078 12.5631 12.3928 12.5151 12.1688 12.4691 11.9468 12.4221 11.7188 12.3781 11.5058 12.3291 11.2898 12.2801 11.0908 12.2271 10.8838 12.1761 10.6838 12.1261 10.4758 12.0781 10.2848 12.0261 10.0818 11.9721 9.8968 11.9141 9.7038 11.8571 9.5278 11.8061 9.3448 11.7551 9.1778 11.7021 8.9928 11.6431 8.8268 11.5831 8.6538 11.5221 8.4988 11.4691 8.3358 11.4161 8.1908 11.3611 8.0288 11.3021 7.8878 11.2391 7.7378 11.1791 7.5998 11.1221 7.4528 11.0651 7.3248 11.0091 7.1908 10.9481 7.0738 10.8881 6.9498 10.8271 6.8288 10.7671 6.6988 10.7091 6.5888 10.6481 6.4788 10.5891 6.3868 10.5291 6.2868 10.4691 6.1858 10.4081 6.0768 10.3471 5.9868 10.2871 5.8998 10.2271 5.8318 10.1691 5.7558 10.1101 5.6768 10.0491 5.5908 9.9871 5.5248 9.9271 5.4618 9.8701 5.4178 9.8131 5.3658 9.7581 5.3098 9.6961 5.2468 9.6341 5.2028 9.5731 5.1648 9.5191 5.1458 9.4671 5.1178 9.4131 5.0858 9.3511 5.0468 9.2891 5.0298 9.2291L5.0018 9.0201C5.1408 7.2271 12.4798 4.0001 22.8958 4.0001L22.8958 4.0001ZM45.2548 26.2571C45.0418 25.1071 43.7168 23.8891 41.0178 22.3471L42.7338 9.5951 42.7338 9.5911 42.7338 9.5901 42.7848 9.2001C42.7908 9.1571 42.7938 9.1141 42.7938 9.0711 42.7938 4.9041 32.3078 2.0001 22.8958 2.0001 13.4848 2.0001 2.9998 4.9041 2.9998 9.0711 2.9998 9.1151 3.0028 9.1591 3.0088 9.2031L3.0608 9.5931 3.0608 9.5951 7.2898 41.0091C7.4208 44.6851 16.9028 46.0571 22.8958 46.0571 26.2108 46.0571 29.5338 45.7111 32.2528 45.0821 33.3478 44.8301 34.3308 44.5331 35.1748 44.2001 37.3408 43.3451 38.4598 42.2711 38.5038 41.0091L40.2448 28.0801C41.1968 28.2821 42.0618 28.4051 42.7808 28.4051 43.7498 28.4051 44.4748 28.2001 44.8668 27.7321 45.2168 27.3161 45.3548 26.7921 45.2548 26.2571L45.2548 26.2571Z" id="AWS-Amazon-Simple-Storage_Bucket_Resource-Icon_light-bg" fill="#7AA116"/></g></svg>