<svg width="48" height="48" viewBox="0 0 48 48" xmlns="http://www.w3.org/2000/svg" xmlns:xlink="http://www.w3.org/1999/xlink" overflow="hidden"><g id="Icon-Resource/IoT/Res_AWS-IoT-Device-Tester_48" stroke="none" stroke-width="1" fill="none" fill-rule="evenodd"><path d="M21 4.52292 21 7.03192C21 7.58492 21.447 8.03192 22 8.03192L26 8.03192C26.553 8.03192 27 7.58492 27 7.03192L27 4.57592C27.869 5.27292 28.545 6.26692 28.545 7.34092 28.545 9.01292 27.538 10.2829 26.54 10.7999 26.208 10.9719 26 11.3149 26 11.6879L26 28.3559C26 28.7289 26.208 29.0709 26.54 29.2429 27.538 29.7609 28.545 31.0309 28.545 32.7019 28.545 33.7759 27.869 34.7709 27 35.4679L27 33.0319C27 32.4799 26.553 32.0319 26 32.0319L22 32.0319C21.447 32.0319 21 32.4799 21 33.0319L21 35.4699C20.158 34.7779 19.507 33.7859 19.507 32.7019 19.507 31.0399 20.497 29.7579 21.478 29.2249 21.8 29.0499 22 28.7119 22 28.3459L22 11.6469C22 11.2799 21.8 10.9429 21.478 10.7679 20.497 10.2339 19.507 8.95192 19.507 7.29092 19.507 6.20692 20.158 5.21492 21 4.52292L21 4.52292ZM20 12.1979 20 27.7939C18.488 28.8689 17.507 30.7669 17.507 32.7019 17.507 35.2589 19.593 37.3689 21.653 38.1299 21.766 38.1719 21.883 38.1919 22 38.1919 22.201 38.1919 22.401 38.1309 22.571 38.0129 22.84 37.8259 23 37.5199 23 37.1919L23 34.0319 25 34.0319 25 37.1839C25 37.5119 25.161 37.8189 25.431 38.0059 25.7 38.1919 26.043 38.2359 26.352 38.1199 28.436 37.3369 30.545 35.2249 30.545 32.7019 30.545 30.7139 29.563 28.8499 28 27.7899L28 12.2539C29.563 11.1929 30.545 9.32992 30.545 7.34092 30.545 4.81792 28.436 2.70592 26.352 1.92292 26.043 1.80692 25.7 1.85192 25.431 2.03692 25.161 2.22392 25 2.53092 25 2.85892L25 6.03192 23 6.03192 23 2.79992C23 2.47292 22.84 2.16692 22.571 1.97992 22.302 1.79192 21.958 1.74892 21.653 1.86192 19.593 2.62392 17.507 4.73292 17.507 7.29092 17.507 9.22592 18.488 11.1229 20 12.1979L20 12.1979ZM17.254 22.2819C16.846 22.5869 16.409 23.4599 16.416 24.6569 16.422 25.8539 16.867 26.7219 17.279 27.0229L16.1 28.6379C15.069 27.8859 14.424 26.3639 14.416 24.6669 14.406 22.9719 15.035 21.4439 16.055 20.6809L17.254 22.2819ZM11.044 24.6369C11.055 26.7839 11.875 28.3399 12.682 28.9309L11.502 30.5449C9.999 29.4459 9.057 27.1869 9.044 24.6479 9.031 22.1079 9.948 19.8389 11.438 18.7259L12.636 20.3269C11.836 20.9259 11.033 22.4899 11.044 24.6369L11.044 24.6369ZM30.567 27.0229C30.979 26.7229 31.424 25.8539 31.431 24.6569 31.437 23.4609 31 22.5869 30.592 22.2819L31.791 20.6809C32.811 21.4439 33.438 22.9709 33.431 24.6669 33.421 26.3649 32.776 27.8869 31.747 28.6379L30.567 27.0229ZM36.802 24.6369C36.813 22.4909 36.011 20.9259 35.211 20.3269L36.408 18.7259C37.899 19.8409 38.816 22.1099 38.802 24.6479 38.789 27.1879 37.847 29.4469 36.344 30.5449L35.164 28.9299C35.972 28.3409 36.791 26.7849 36.802 24.6369L36.802 24.6369ZM44 43.0319C44 43.7099 43.73 44.0319 42.197 44.0319L5.803 44.0319C4.182 44.0319 4.013 43.2479 4 43.0319L4 42.0319 5 42.0319 7 42.0319 41 42.0319 43 42.0319 44 42.0319 44 43.0319ZM45 40.0319 43 40.0319 43 17.4349C43 15.3439 41.491 15.0319 40.592 15.0319L30 15.0319 30 17.0319 40.592 17.0319C40.867 17.0319 40.975 17.0879 40.969 17.0769 41 17.1429 41 17.3389 41 17.4349L41 40.0319 7 40.0319 7 17.4349C7 17.3369 7 17.1359 7.016 17.0929 7.017 17.0929 7.111 17.0319 7.408 17.0319L18 17.0319 18 15.0319 7.408 15.0319C6.509 15.0319 5 15.3439 5 17.4349L5 40.0319 3 40.0319C2.447 40.0319 2 40.4799 2 41.0319L2 43.0319C2 44.0699 2.795 46.0319 5.803 46.0319L42.197 46.0319C45.34 46.0319 46 44.4009 46 43.0319L46 41.0319C46 40.4799 45.553 40.0319 45 40.0319L45 40.0319Z" id="Fill-1" fill="#7AA116"/></g></svg>