<svg width="80" height="80" viewBox="0 0 80 80" xmlns="http://www.w3.org/2000/svg" xmlns:xlink="http://www.w3.org/1999/xlink" overflow="hidden"><g id="Icon-Architecture/64/Arch_Amazon-EFS_64" stroke="none" stroke-width="1" fill="none" fill-rule="evenodd"><g id="Icon-Architecture-BG/64/Storage" fill="#7AA116"><rect x="0" y="0" width="80" height="80" id="Rectangle"/></g><g id="Icon-Service/64/Amazon-EFS_64" fill="#FFFFFF" transform="translate(11.9822 12)"><path d="M19.3953 12.0244C25.6595 9.40434 30.0955 12.8505 31.7116 14.4525 33.0296 15.7616 34.0576 17.4336 34.7676 19.4197 34.8906 19.7657 35.1956 20.0167 35.5586 20.0717 35.9266 20.1227 36.2876 19.9787 36.5077 19.6847 37.2957 18.6367 38.4497 18.0356 39.6707 18.0356 41.4957 18.0356 43.7078 19.4207 43.9368 23.3238 43.9628 23.7748 44.2878 24.1509 44.7298 24.2439 49.2629 25.1959 51.5619 27.711 51.5619 31.7161 51.5619 35.4383 49.8579 37.7383 46.4988 38.5534L46.9688 40.4964C51.2209 39.4664 53.562 36.3483 53.562 31.7161 53.562 27.001 50.8359 23.7348 45.8658 22.4558 45.3238 18.0276 42.4268 16.0356 39.6707 16.0356 38.3537 16.0356 37.0977 16.4836 36.0616 17.3006 35.3006 15.6506 34.3156 14.2205 33.1216 13.0325 29.1575 9.10733 23.7404 8.04029 18.6233 10.1794 14.2473 12.0154 10.9472 17.0766 10.9472 21.9548 10.9472 22.1948 10.9552 22.4418 10.9702 22.6968 6.95312 24.0189 4.58208 27.312 4.58208 31.6581 4.58208 31.8771 4.59208 32.0951 4.60408 32.3072 4.81109 36.0653 7.32113 39.3154 10.9992 40.5854L11.6512 38.6944C8.74616 37.6913 6.76312 35.1403 6.60112 32.2011 6.59212 32.0251 6.58212 31.8421 6.58212 31.6581 6.58212 26.5749 10.1552 24.9279 12.2842 24.3989 12.7732 24.2769 13.0952 23.8099 13.0362 23.3088 12.9762 22.8138 12.9472 22.3708 12.9472 21.9548 12.9472 17.9026 15.7803 13.5415 19.3953 12.0244L19.3953 12.0244ZM39.9997 33.0012C39.9997 32.6042 39.9147 32.3052 39.7587 32.1591 39.5877 32.0001 39.2897 31.9851 39.0667 31.9991L25.9995 32.0011C25.4475 32.0011 24.9994 31.5531 24.9994 31.0011 24.9994 30.7301 24.8984 29.9711 24.7824 29.5001L21.3234 29.5001C21.1704 29.9601 21.0064 30.7411 20.9994 31.0051 20.9854 31.5471 20.5414 32.0011 19.9994 32.0011L16.9993 32.0011C16.7063 31.9821 16.4113 32.0001 16.2413 32.1591 16.0853 32.3052 15.9993 32.6042 15.9993 33.0012L15.9993 47.0017 39.9997 47.0017 39.9997 33.0012ZM41.9997 35.0013 41.9997 42.2295 44.5818 35.0013 41.9997 35.0013ZM41.9417 48.3387 41.9328 48.3357C41.7947 48.7217 41.4347 49.0018 40.9997 49.0018L14.9993 49.0018C14.4473 49.0018 13.9993 48.5537 13.9993 48.0017L13.9993 33.0012C13.9993 31.7751 14.4753 31.0721 14.8743 30.6981 15.2573 30.3401 15.9373 29.9211 17.0663 30.0041L19.1163 30.0021C19.2943 28.967 19.7384 27.5 20.8074 27.5L25.3595 27.5C25.4205 27.5 25.4825 27.506 25.5435 27.517 26.4845 27.693 26.8175 29.028 26.9355 30.0011L38.9997 30.0011C40.0567 29.9281 40.7417 30.3401 41.1247 30.6981 41.5247 31.0721 41.9997 31.7751 41.9997 33.0012L45.9998 33.0012C46.3258 33.0012 46.6298 33.1592 46.8178 33.4252 47.0048 33.6912 47.0508 34.0312 46.9418 34.3372L41.9417 48.3387ZM54 52.5869 46.3938 44.9806 44.9798 46.3947 52.5849 53.9999 47.0818 53.9999 47.0818 56 55 56C55.553 56 56 55.552 56 55L56 47.0817 54 47.0817 54 52.5869ZM10.6422 44.9456 2.00004 52.7489 2.00004 47.0817 0 47.0817 0 55C0 55.552 0.448008 56 1.00002 56L9.91918 56 9.91918 53.9999 3.59906 53.9999 11.9822 46.4297 10.6422 44.9456ZM55 0 46.0818 0 46.0818 2.00007 52.7489 2.00007 44.9448 10.6424 46.4288 11.9824 54 3.59913 54 9.91935 56 9.91935 56 1.00004C56 0.448016 55.553 0 55 0L55 0ZM2.00004 9.91935 0 9.91935 0 1.00004C0 0.448016 0.448008 0 1.00002 0L9.91918 0 9.91918 2.00007 3.41406 2.00007 12.0192 10.6054 10.6052 12.0194 2.00004 3.41512 2.00004 9.91935Z" id="Amazon-EFS_Icon_64_Squid"/></g></g></svg>