<svg width="48" height="48" viewBox="0 0 48 48" xmlns="http://www.w3.org/2000/svg" xmlns:xlink="http://www.w3.org/1999/xlink" overflow="hidden"><g id="Icon-Resource/Storage/Res_Amazon-Elastic-File-System_Intelligent-Tiering_48" stroke="none" stroke-width="1" fill="none" fill-rule="evenodd"><path d="M21.954 12.8C21.954 14.33 20.71 15.574 19.18 15.574 17.649 15.574 16.405 14.33 16.405 12.8 16.405 11.27 17.649 10.026 19.18 10.026 20.71 10.026 21.954 11.27 21.954 12.8L21.954 12.8ZM23.954 12.8C23.954 10.167 21.812 8.026 19.18 8.026 16.547 8.026 14.405 10.167 14.405 12.8 14.405 15.433 16.547 17.574 19.18 17.574 21.812 17.574 23.954 15.433 23.954 12.8L23.954 12.8ZM18.147 19.092 17.405 18.895C16.883 18.756 16.492 18.54 15.998 18.25L15.329 17.858 14.129 19.066 12.894 17.822 13.557 17.155 14.047 16.527 13.664 15.864C13.383 15.378 13.197 15.055 13.071 14.578L12.876 13.832 11.18 13.832 11.18 11.768 12.888 11.768 13.085 11.024C13.225 10.493 13.451 10.085 13.73 9.607L14.121 8.939 12.912 7.735 14.156 6.496 14.822 7.159 15.439 7.658 16.103 7.273C16.596 6.988 16.921 6.799 17.402 6.672L18.147 6.475 18.147 4.8 20.212 4.8 20.212 6.5 20.953 6.698C21.422 6.824 21.74 7.012 22.296 7.34L22.968 7.737 24.153 6.535 25.366 7.764 24.176 8.97 24.554 9.629C24.844 10.137 25.055 10.503 25.189 11.021L25.386 11.768 27.18 11.768 27.18 13.832 25.47 13.832 25.272 14.575C25.142 15.071 24.951 15.408 24.627 15.963L24.236 16.632 25.444 17.833 24.199 19.07 22.987 17.866 22.236 18.301C21.753 18.582 21.433 18.768 20.958 18.893L20.212 19.089 20.212 20.8 18.147 20.8 18.147 19.092ZM22.212 21.425 22.212 20.571C22.368 20.505 22.516 20.433 22.658 20.358L23.228 20.925C23.763 21.459 24.633 21.459 25.169 20.926L27.301 18.808C27.562 18.548 27.706 18.201 27.706 17.832 27.706 17.464 27.562 17.117 27.301 16.857L26.734 16.295C26.81 16.147 26.884 15.994 26.952 15.832L27.805 15.832C28.562 15.832 29.18 15.216 29.18 14.457L29.18 11.143C29.18 10.384 28.562 9.768 27.805 9.768L26.873 9.768C26.806 9.605 26.733 9.452 26.657 9.303L27.224 8.729C27.747 8.197 27.747 7.332 27.223 6.799L25.131 4.678C24.87 4.415 24.522 4.27 24.152 4.27L24.15 4.27C23.779 4.271 23.433 4.416 23.174 4.679L22.632 5.229C22.497 5.158 22.358 5.09 22.212 5.026L22.212 4.175C22.212 3.417 21.595 2.8 20.837 2.8L17.522 2.8C16.765 2.8 16.147 3.417 16.147 4.175L16.147 4.994C15.993 5.06 15.845 5.132 15.698 5.208L15.129 4.641C14.612 4.121 13.701 4.123 13.186 4.639L11.057 6.76C10.795 7.02 10.651 7.366 10.651 7.735 10.651 8.104 10.795 8.45 11.056 8.709L11.627 9.278C11.548 9.435 11.473 9.597 11.402 9.768L10.555 9.768C9.797 9.768 9.18 10.384 9.18 11.143L9.18 14.457C9.18 15.216 9.797 15.832 10.555 15.832L11.393 15.832C11.459 15.986 11.53 16.134 11.607 16.28L11.036 16.855C10.509 17.387 10.509 18.255 11.038 18.791L13.152 20.92C13.674 21.445 14.587 21.446 15.104 20.921L15.668 20.354C15.822 20.433 15.98 20.507 16.147 20.576L16.147 21.425C16.147 22.183 16.765 22.8 17.522 22.8L20.837 22.8C21.595 22.8 22.212 22.183 22.212 21.425L22.212 21.425ZM41 39.98 41 17.633C41 15.874 40.109 13.98 38.154 13.98L34.771 13.98C34.583 12.674 34.126 10.502 33.141 10.066 33.013 10.009 32.875 9.98 32.735 9.98L31 9.98 31 11.98 32.234 11.98C32.524 12.678 32.885 14.358 32.885 14.98 32.885 15.532 33.332 15.98 33.885 15.98L38.154 15.98C38.95 15.98 39 17.621 39 17.633L39 38.98 4 38.98 4 17.643C4.008 17.253 4.166 15.98 5.846 15.98L7 15.98 7 13.98 5.846 13.98C3.024 13.98 2 16.165 2 17.633L2 39.98C2 40.532 2.447 40.98 3 40.98L40 40.98C40.553 40.98 41 40.532 41 39.98L41 39.98ZM35 32.98C35 34.083 34.102 34.98 33 34.98 31.897 34.98 31 34.083 31 32.98 31 31.877 31.897 30.98 33 30.98 34.102 30.98 35 31.877 35 32.98L35 32.98ZM37 32.98C37 30.774 35.206 28.98 33 28.98 30.794 28.98 29 30.774 29 32.98 29 35.185 30.794 36.98 33 36.98 35.206 36.98 37 35.185 37 32.98L37 32.98ZM21.5 27.589 23.326 30.98 19.674 30.98 21.5 27.589ZM25.858 32.492C26.039 32.19 26.047 31.816 25.881 31.506L22.381 25.006C22.031 24.358 20.969 24.358 20.619 25.006L17.119 31.506C16.953 31.816 16.961 32.19 17.142 32.492 17.322 32.795 17.648 32.98 18 32.98L25 32.98C25.351 32.98 25.678 32.795 25.858 32.492L25.858 32.492ZM8 34.98 11 34.98 11 31.98 8 31.98 8 34.98ZM13 35.98 13 30.98C13 30.427 12.553 29.98 12 29.98L7 29.98C6.447 29.98 6 30.427 6 30.98L6 35.98C6 36.532 6.447 36.98 7 36.98L12 36.98C12.553 36.98 13 36.532 13 35.98L13 35.98ZM45 45.98 8 45.98C7.448 45.98 7.001 45.533 7 44.981L7 44.98 7 42.98 9 42.98 9 43.98 44 43.98 44 23.053C44 22.49 43.542 22.009 42.979 21.981L43.079 19.984C44.717 20.065 46 21.413 46 23.053L46 44.98C46 45.532 45.553 45.98 45 45.98L45 45.98Z" id="Fill-1" fill="#7AA116"/></g></svg>