<svg width="48" height="48" viewBox="0 0 48 48" xmlns="http://www.w3.org/2000/svg" xmlns:xlink="http://www.w3.org/1999/xlink" overflow="hidden"><g id="Icon-Resource/IoT/Res_AWS-IoT-Hardware-Board_48" stroke="none" stroke-width="1" fill="none" fill-rule="evenodd"><path d="M37.221 22.981 40.467 22.981 40.467 19.736 37.221 19.736 37.221 22.981ZM31.597 22.359 35.221 22.359 35.221 24.982 42.467 24.982 42.467 17.736 35.221 17.736 35.221 20.359 31.597 20.359C31.233 19.657 30.509 19.173 29.664 19.173 28.457 19.173 27.479 20.151 27.479 21.359 27.479 22.566 28.457 23.544 29.664 23.544 30.509 23.544 31.234 23.06 31.597 22.359ZM32.77 40.148C31.267 43.68 27.818 45.963 23.982 45.963 20.146 45.963 16.697 43.68 15.194 40.148L17.034 39.364C18.222 42.158 20.95 43.963 23.982 43.963 27.014 43.963 29.742 42.158 30.93 39.364L32.77 40.148ZM20.141 37.458C20.597 39.19 22.177 40.4 23.982 40.4 25.788 40.4 27.368 39.19 27.824 37.458L29.757 37.968C29.07 40.577 26.695 42.4 23.982 42.4 21.269 42.4 18.895 40.577 18.207 37.968L20.141 37.458ZM15.194 7.816C16.697 4.283 20.146 2 23.982 2 27.818 2 31.267 4.283 32.77 7.816L30.93 8.599C29.742 5.805 27.014 4 23.982 4 20.95 4 18.222 5.805 17.034 8.599L15.194 7.816ZM27.824 10.505C27.368 8.773 25.788 7.564 23.982 7.564 22.176 7.564 20.597 8.773 20.141 10.505L18.207 9.995C18.894 7.386 21.269 5.564 23.982 5.564 26.696 5.564 29.071 7.386 29.757 9.995L27.824 10.505ZM16.24 33.473 16.24 24.442 11.653 19.855C11.891 19.102 11.721 18.247 11.124 17.65 10.271 16.796 8.887 16.796 8.034 17.65 7.18 18.503 7.18 19.887 8.034 20.74 8.63 21.338 9.486 21.508 10.239 21.269L14.24 25.27 14.24 33.473 9.246 33.473 9.246 28.975C9.947 28.61 10.431 27.886 10.431 27.041 10.431 25.834 9.453 24.856 8.246 24.856 7.038 24.856 6.06 25.834 6.06 27.041 6.06 27.886 6.544 28.61 7.246 28.974L7.246 33.473 4 33.473 4 14.49 15.119 14.49 15.138 18.3 19.722 22.885C19.484 23.638 19.654 24.492 20.25 25.09 21.104 25.943 22.488 25.943 23.341 25.09 24.195 24.236 24.195 22.853 23.341 21.999 22.745 21.401 21.89 21.232 21.136 21.471L17.134 17.468 17.119 14.49 43.964 14.49 43.964 28.227 28.538 28.227C28.173 27.526 27.449 27.041 26.605 27.041 25.397 27.041 24.418 28.02 24.418 29.227 24.418 30.434 25.397 31.412 26.605 31.412 27.45 31.412 28.173 30.928 28.538 30.227L43.964 30.227 43.964 33.473 16.24 33.473ZM3 12.49C2.448 12.49 2 12.938 2 13.49L2 34.473C2 35.025 2.448 35.473 3 35.473L44.964 35.473C45.517 35.473 45.964 35.025 45.964 34.473L45.964 13.49C45.964 12.938 45.517 12.49 44.964 12.49L3 12.49Z" id="Amazon-IOT-RESOURCES-IoT-IoT-Hardware-Board_Resource-Icon_light-bg" fill="#7AA116"/></g></svg>