<svg width="80" height="80" viewBox="0 0 80 80" xmlns="http://www.w3.org/2000/svg" xmlns:xlink="http://www.w3.org/1999/xlink" overflow="hidden"><g id="Icon-Architecture/64/Arch_AWS-IoT-Analytics_64" stroke="none" stroke-width="1" fill="none" fill-rule="evenodd"><g id="Icon-Architecture-BG/64/Internet-of-Things" fill="#7AA116"><rect x="0" y="0" width="80" height="80" id="Rectangle"/></g><path d="M59.4956 44.0698C57.5641 44.0698 55.9928 42.496 55.9928 40.5613 55.9928 38.6267 57.5641 37.0529 59.4956 37.0529 61.4271 37.0529 62.9984 38.6267 62.9984 40.5613 62.9984 42.496 61.4271 44.0698 59.4956 44.0698M51.261 57.104C47.469 60.9032 42.4309 62.9952 37.0777 62.9952 33.2886 62.9952 29.6297 61.9276 26.4492 59.9258 26.7024 59.3825 26.8755 58.7951 26.9406 58.1736L55.013 43.75C55.5194 44.4617 56.188 45.0471 56.9666 45.4521 56.4041 49.8386 54.3985 53.9605 51.261 57.104M21.4652 61.1107C19.5336 61.1107 17.9624 59.5369 17.9624 57.6022 17.9624 55.6676 19.5336 54.0938 21.4652 54.0938 23.3967 54.0938 24.968 55.6676 24.968 57.6022 24.968 59.5369 23.3967 61.1107 21.4652 61.1107M17.0016 42.8869C17.0016 37.5241 19.0903 32.479 22.8833 28.6798 26.0318 25.5263 30.1651 23.5164 34.5576 22.9661 34.947 23.747 35.5144 24.4206 36.209 24.9368L22.2698 52.1542C22.0066 52.1161 21.7384 52.089 21.4652 52.089 20.7516 52.089 20.0701 52.2304 19.4436 52.479 17.8463 49.5519 17.0016 46.263 17.0016 42.8869M39.4796 17.0048C41.4111 17.0048 42.9824 18.5786 42.9824 20.5132 42.9824 22.4479 41.4111 24.0217 39.4796 24.0217 37.548 24.0217 35.9768 22.4479 35.9768 20.5132 35.9768 18.5786 37.548 17.0048 39.4796 17.0048M50.5324 27.9932 25.0971 53.4703C24.8159 53.2217 24.5096 53.0012 24.1813 52.8138L38.0054 25.82C38.4758 25.9513 38.9682 26.0265 39.4796 26.0265 41.217 26.0265 42.7672 25.2135 43.777 23.9495 46.256 24.8266 48.5608 26.2059 50.5324 27.9932M57.494 19.0096C59.4255 19.0096 60.9968 20.5834 60.9968 22.518 60.9968 24.4527 59.4255 26.0265 57.494 26.0265 55.5625 26.0265 53.9912 24.4527 53.9912 22.518 53.9912 20.5834 55.5625 19.0096 57.494 19.0096M53.9912 40.5613C53.9912 41.0355 54.0572 41.4926 54.1703 41.9306L26.7374 56.0255C26.6363 55.6876 26.5032 55.3639 26.3431 55.0571L51.9466 29.4096C53.756 31.4114 55.1461 33.759 56.0248 36.2871 54.7848 37.2995 53.9912 38.8382 53.9912 40.5613M59.4956 35.0481C58.9071 35.0481 58.3427 35.1433 57.8092 35.3148 56.8305 32.6273 55.3153 30.1383 53.3757 28.0072L54.3695 27.0519C55.2582 27.6684 56.3341 28.0313 57.494 28.0313 60.5284 28.0313 62.9984 25.5583 62.9984 22.518 62.9984 19.4777 60.5284 17.0048 57.494 17.0048 54.4596 17.0048 51.9896 19.4777 51.9896 22.518 51.9896 23.6728 52.3469 24.7454 52.9564 25.6325L51.9626 26.5888C49.8509 24.6552 47.3889 23.1405 44.7338 22.1572 44.8959 21.6379 44.984 21.0856 44.984 20.5132 44.984 17.4729 42.514 15 39.4796 15 36.4452 15 33.9752 17.4729 33.9752 20.5132 33.9752 20.6856 33.9852 20.8551 34.0002 21.0235 29.2844 21.684 24.8569 23.8683 21.4682 27.2624 17.2968 31.4395 15 36.9888 15 42.8869 15 46.6409 15.9518 50.2977 17.7502 53.5465 16.6533 54.5549 15.9608 55.9974 15.9608 57.6022 15.9608 60.6425 18.4307 63.1155 21.4652 63.1155 22.9484 63.1155 24.2954 62.521 25.2862 61.5617 28.809 63.8051 32.8713 65 37.0777 65 42.9664 65 48.5068 62.6985 52.6771 58.5215 56.0478 55.1453 58.2246 50.7398 58.9011 46.0415 59.0973 46.0625 59.2944 46.0746 59.4956 46.0746 62.53 46.0746 65 43.6016 65 40.5613 65 37.521 62.53 35.0481 59.4956 35.0481" id="AWS-IoT-Analytics-_Icon_64_Squid" fill="#FFFFFF"/></g></svg>