<svg width="48" height="48" viewBox="0 0 48 48" xmlns="http://www.w3.org/2000/svg" xmlns:xlink="http://www.w3.org/1999/xlink" overflow="hidden"><g id="Icon-Resource/IoT/Res_AWS-IoT-Analytics_Pipeline_48" stroke="none" stroke-width="1" fill="none" fill-rule="evenodd"><path d="M23 21 29 21 29 19 23 19 23 21ZM31 21 33 21 33 19 31 19 31 21ZM44 34 37 34 37 32 37 16 37 14 44 14 44 34ZM13 31 35 31 35 17 13 17 13 31ZM11 34 4 34 4 14 11 14 11 16 11 32 11 34ZM36 12C35.447 12 35 12.447 35 13L35 15 13 15 13 13C13 12.447 12.553 12 12 12L3 12C2.447 12 2 12.447 2 13L2 35C2 35.553 2.447 36 3 36L12 36C12.553 36 13 35.553 13 35L13 33 35 33 35 35C35 35.553 35.447 36 36 36L45 36C45.553 36 46 35.553 46 35L46 13C46 12.447 45.553 12 45 12L36 12Z" id="Amazon-IOT-RESOURCES-IoT-Pipeline_Resource-Icon_light-bg" fill="#7AA116"/></g></svg>