<svg width="80" height="80" viewBox="0 0 80 80" xmlns="http://www.w3.org/2000/svg" xmlns:xlink="http://www.w3.org/1999/xlink" overflow="hidden"><g id="Icon-Architecture/64/Arch_Amazon-Macie_64" stroke="none" stroke-width="1" fill="none" fill-rule="evenodd"><g id="Icon-Architecture-BG/64/Security-Identity-Compliance" fill="#DD344C"><rect x="0" y="0" width="80" height="80" id="Rectangle"/></g><path d="M55.5559 41.8372C53.5045 40.2544 51.7666 38.9222 50.2979 37.8245 52.0267 34.7713 54.0489 31.2926 54.95 30.5628 57.4329 32.0979 65.3511 45.8021 65.9559 49.3972 64.0104 48.3612 59.1959 44.6468 55.5559 41.8372M39.8022 49.9947C39.1772 49.6099 37.9736 47.9148 36.5946 45.7414 36.8839 45.2851 37.1913 44.7959 37.521 44.269 39.3828 41.3013 42.4634 36.3879 43.5702 35.7357 44.2124 35.9345 45.7829 36.9904 47.681 38.3743 45.3867 42.4417 41.3394 49.5751 39.8022 49.9947M31.7025 49.3504C31.006 48.5511 29.758 46.3161 28.9717 44.9043 26.9839 41.3421 26.2429 40.1082 25.1895 40.0725 24.3216 40.0406 23.3882 40.831 19.6695 44.2104 18.234 45.5158 16.1272 47.4306 14.6686 48.5411 16.725 44.0592 22.9981 33.0583 25.0857 30.3849 26.0333 31.7082 27.9496 35.0378 29.5423 37.8017 31.4404 41.0995 32.9666 43.7043 34.2206 45.7355 33.2307 47.2815 32.263 48.729 31.7025 49.3504M66.5365 45.0773C64.6353 40.8181 57.6909 28.5028 54.9228 28.5028 53.4964 28.5028 52.066 30.6434 48.6699 36.6245 45.9633 34.6649 44.4109 33.7523 43.5652 33.7244 42.033 33.6996 40.3767 35.9345 35.8063 43.2241 35.6803 43.4249 35.5502 43.6327 35.4172 43.8445 33.9736 41.4703 32.4646 38.8516 31.2953 36.8204 26.7611 28.9452 26.129 28.0385 25.1502 28.0027 24.4597 27.9769 23.8166 27.955 18.6191 36.9397 16.2875 40.9712 13.3359 46.4185 12.3672 48.8523 12.0719 49.592 11.7059 50.5137 12.3864 51.0913 13.6636 52.176 15.6585 50.5594 21.0364 45.6718 22.3983 44.4331 24.1936 42.8026 25.0222 42.2249 25.5625 42.9199 26.5302 44.6538 27.2046 45.8627 29.4878 49.9559 30.4656 51.5059 31.6894 51.5407 31.7025 51.5407 31.7156 51.5407 31.7267 51.5407 32.5946 51.5407 33.39 50.6946 35.4041 47.6036 37.5018 50.8139 38.6973 52 39.7185 52L39.7336 52C42.0239 51.9742 44.5511 47.9983 49.308 39.5783 50.9753 40.8281 52.7545 42.2001 54.314 43.4031 64.8077 51.5009 66.4125 52.4544 67.5234 51.2603 68.1443 50.5912 68.4558 49.3793 66.5365 45.0773" id="Amazon-Macie-Icon_64_Squid" fill="#FFFFFF"/></g></svg>