<svg width="48" height="48" viewBox="0 0 48 48" xmlns="http://www.w3.org/2000/svg" xmlns:xlink="http://www.w3.org/1999/xlink" overflow="hidden"><g id="Icon-Resource/Quantum-Technologies/Res_Amazon-Braket_Embedded-Simulator_48" stroke="none" stroke-width="1" fill="none" fill-rule="evenodd"><path d="M33 25.999 35 25.999 35 22 33 22 33 25.999ZM13.001 25.999 15.001 25.999 15.001 22 13.001 22 13.001 25.999ZM22.001 34.999 26 34.999 26 32.999 22.001 32.999 22.001 34.999ZM22.001 15 26 15 26 13 22.001 13 22.001 15ZM33 31.899 35 31.899 35 27.999 33 27.999 33 31.899ZM28 34.999 32 34.999 32 32.999 28 32.999 28 34.999ZM16.101 34.999 20.001 34.999 20.001 32.999 16.101 32.999 16.101 34.999ZM13.001 31.999 15.001 31.999 15.001 27.999 13.001 27.999 13.001 31.999ZM28 15 32 15 32 13 28 13 28 15ZM33 20 35 20 35 16 33 16 33 20ZM13.001 20 15.001 20 15.001 16 13.001 16 13.001 20ZM16.001 15 20.001 15 20.001 13 16.001 13 16.001 15ZM9 39 39 39 39 9 9 9 9 39ZM46 13 46 11 41 11 41 8C41 7.448 40.553 7 40 7L37 7 37 2 35 2 35 7 31 7 31 2 29 2 29 7 25 7 25 2 23 2 23 7 19 7 19 2 17 2 17 7 13 7 13 2 11 2 11 7 8 7C7.447 7 7 7.448 7 8L7 11 2 11 2 13 7 13 7 17 2 17 2 19 7 19 7 23 2 23 2 25 7 25 7 29 2 29 2 31 7 31 7 35 2 35 2 37 7 37 7 40C7 40.552 7.447 41 8 41L11 41 11 46 13 46 13 41 17 41 17 46 19 46 19 41 23 41 23 46 25 46 25 41 29 41 29 46 31 46 31 41 35 41 35 46 37 46 37 41 40 41C40.553 41 41 40.552 41 40L41 37 46 37 46 35 41 35 41 31 46 31 46 29 41 29 41 25 46 25 46 23 41 23 41 19 46 19 46 17 41 17 41 13 46 13Z" id="Fill-1" fill="#ED7100"/></g></svg>