<svg width="48" height="48" viewBox="0 0 48 48" xmlns="http://www.w3.org/2000/svg" xmlns:xlink="http://www.w3.org/1999/xlink" overflow="hidden"><g id="Icon-Resource/Networking-and-Content-Delivery/Res_Amazon-Route-53_Route-Table_48" stroke="none" stroke-width="1" fill="none" fill-rule="evenodd"><path d="M4 43.07 43.944 43.07 43.944 33.711 4 33.711 4 43.07ZM45.944 32.711 45.944 44.07C45.944 44.623 45.497 45.07 44.944 45.07L3 45.07C2.447 45.07 2 44.623 2 44.07L2 32.711C2 32.158 2.447 31.711 3 31.711L44.944 31.711C45.497 31.711 45.944 32.158 45.944 32.711L45.944 32.711ZM4 28.214 43.944 28.214 43.944 18.855 4 18.855 4 28.214ZM45.944 17.855 45.944 29.215C45.944 29.767 45.497 30.215 44.944 30.215L3 30.215C2.447 30.215 2 29.767 2 29.215L2 17.855C2 17.302 2.447 16.855 3 16.855L44.944 16.855C45.497 16.855 45.944 17.302 45.944 17.855L45.944 17.855ZM4 13.359 43.944 13.359 43.944 4 4 4 4 13.359ZM45.944 3 45.944 14.359C45.944 14.912 45.497 15.359 44.944 15.359L3 15.359C2.447 15.359 2 14.912 2 14.359L2 3C2 2.447 2.447 2 3 2L44.944 2C45.497 2 45.944 2.447 45.944 3L45.944 3ZM39.399 38.417C39.399 39.273 39.479 39.893 39.64 40.278 39.801 40.663 40.058 40.854 40.411 40.854 40.763 40.854 41.02 40.663 41.181 40.278 41.342 39.893 41.422 39.273 41.422 38.417 41.422 37.566 41.342 36.949 41.181 36.564 41.02 36.179 40.763 35.987 40.411 35.987 40.058 35.987 39.801 36.179 39.64 36.564 39.479 36.949 39.399 37.566 39.399 38.417L39.399 38.417ZM38.986 40.758C38.661 40.222 38.499 39.442 38.499 38.417 38.499 37.391 38.661 36.612 38.986 36.079 39.311 35.546 39.786 35.279 40.411 35.279 41.036 35.279 41.511 35.546 41.835 36.079 42.161 36.612 42.323 37.391 42.323 38.417 42.323 39.448 42.161 40.23 41.835 40.762 41.511 41.296 41.036 41.562 40.411 41.562 39.786 41.562 39.311 41.295 38.986 40.758L38.986 40.758ZM37.107 41.536C37.273 41.536 37.409 41.485 37.51 41.383 37.612 41.282 37.664 41.146 37.664 40.977 37.664 40.808 37.612 40.673 37.51 40.571 37.409 40.468 37.273 40.418 37.107 40.418 36.94 40.418 36.804 40.468 36.703 40.571 36.601 40.673 36.55 40.808 36.55 40.977 36.55 41.146 36.601 41.282 36.703 41.383 36.804 41.485 36.94 41.536 37.107 41.536L37.107 41.536ZM35.584 40.723 33.059 40.723C33.777 39.849 34.285 39.202 34.582 38.779 34.878 38.357 35.083 38.003 35.194 37.717 35.305 37.432 35.362 37.156 35.362 36.887 35.362 36.381 35.228 35.986 34.961 35.703 34.696 35.421 34.325 35.279 33.849 35.279 33.576 35.279 33.31 35.325 33.05 35.415 32.791 35.505 32.521 35.649 32.243 35.847L32.243 36.591C32.83 36.217 33.316 36.031 33.7 36.031 34.202 36.031 34.452 36.334 34.452 36.94 34.452 37.214 34.38 37.502 34.239 37.805 34.095 38.108 33.861 38.488 33.533 38.945 33.205 39.402 32.728 40.018 32.103 40.794L32.103 41.449 35.584 41.449 35.584 40.723ZM30.498 41.536C30.665 41.536 30.799 41.485 30.902 41.383 31.003 41.282 31.055 41.146 31.055 40.977 31.055 40.808 31.003 40.673 30.902 40.571 30.799 40.468 30.665 40.418 30.498 40.418 30.331 40.418 30.196 40.468 30.094 40.571 29.992 40.673 29.941 40.808 29.941 40.977 29.941 41.146 29.992 41.282 30.094 41.383 30.196 41.485 30.331 41.536 30.498 41.536L30.498 41.536ZM26.255 38.784C26.255 39.507 26.337 40.035 26.502 40.37 26.666 40.705 26.923 40.872 27.276 40.872 27.865 40.872 28.159 40.462 28.159 39.64 28.159 39.261 28.082 38.971 27.926 38.77 27.772 38.57 27.543 38.468 27.24 38.468 26.918 38.468 26.59 38.55 26.255 38.714L26.255 38.784ZM25.842 40.841C25.536 40.361 25.383 39.62 25.383 38.618 25.383 37.54 25.568 36.714 25.936 36.14 26.304 35.566 26.828 35.279 27.508 35.279 27.718 35.279 27.931 35.305 28.145 35.358 28.358 35.411 28.545 35.48 28.706 35.568L28.706 36.206C28.551 36.135 28.375 36.079 28.177 36.036 27.979 35.992 27.794 35.969 27.62 35.969 27.181 35.969 26.853 36.143 26.636 36.49 26.419 36.837 26.295 37.388 26.265 38.146 26.661 37.913 27.07 37.796 27.491 37.796 27.96 37.796 28.336 37.96 28.618 38.286 28.9 38.612 29.041 39.046 29.041 39.588 29.041 40.194 28.878 40.674 28.558 41.029 28.236 41.384 27.799 41.562 27.25 41.562 26.618 41.562 26.149 41.322 25.842 40.841L25.842 40.841ZM22.635 41.449 23.517 41.449 23.517 35.393 22.71 35.393 21.252 36.223 21.252 36.94 22.635 36.284 22.635 41.449ZM19.377 41.536C19.544 41.536 19.679 41.485 19.782 41.383 19.883 41.282 19.935 41.146 19.935 40.977 19.935 40.808 19.883 40.673 19.782 40.571 19.679 40.468 19.544 40.418 19.377 40.418 19.211 40.418 19.076 40.468 18.974 40.571 18.872 40.673 18.821 40.808 18.821 40.977 18.821 41.146 18.872 41.282 18.974 41.383 19.076 41.485 19.211 41.536 19.377 41.536L19.377 41.536ZM17.855 40.723 15.331 40.723C16.048 39.849 16.556 39.202 16.852 38.779 17.15 38.357 17.354 38.003 17.465 37.717 17.577 37.432 17.633 37.156 17.633 36.887 17.633 36.381 17.5 35.986 17.233 35.703 16.967 35.421 16.596 35.279 16.121 35.279 15.847 35.279 15.582 35.325 15.322 35.415 15.061 35.505 14.793 35.649 14.514 35.847L14.514 36.591C15.101 36.217 15.587 36.031 15.971 36.031 16.473 36.031 16.723 36.334 16.723 36.94 16.723 37.214 16.652 37.502 16.51 37.805 16.367 38.108 16.132 38.488 15.804 38.945 15.476 39.402 15 40.018 14.375 40.794L14.375 41.449 17.855 41.449 17.855 40.723ZM10.429 41.449 11.339 41.449 13.28 36.04 13.28 35.393 9.734 35.393 9.734 36.118 12.398 36.118 10.429 41.449ZM7.004 41.449 7.886 41.449 7.886 35.393 7.079 35.393 5.621 36.223 5.621 36.94 7.004 36.284 7.004 41.449ZM39.399 23.237C39.399 24.093 39.479 24.715 39.64 25.099 39.801 25.483 40.058 25.675 40.411 25.675 40.763 25.675 41.02 25.483 41.181 25.099 41.342 24.715 41.422 24.093 41.422 23.237 41.422 22.387 41.342 21.769 41.181 21.385 41.02 21.001 40.763 20.808 40.411 20.808 40.058 20.808 39.801 21.001 39.64 21.385 39.479 21.769 39.399 22.387 39.399 23.237L39.399 23.237ZM38.986 25.58C38.661 25.044 38.499 24.263 38.499 23.237 38.499 22.213 38.661 21.433 38.986 20.9 39.311 20.367 39.786 20.1 40.411 20.1 41.036 20.1 41.511 20.367 41.835 20.9 42.161 21.433 42.323 22.213 42.323 23.237 42.323 24.268 42.161 25.05 41.835 25.584 41.511 26.117 41.036 26.383 40.411 26.383 39.786 26.383 39.311 26.116 38.986 25.58L38.986 25.58ZM37.107 26.357C37.273 26.357 37.409 26.306 37.51 26.204 37.612 26.102 37.664 25.967 37.664 25.798 37.664 25.629 37.612 25.494 37.51 25.391 37.409 25.29 37.273 25.239 37.107 25.239 36.94 25.239 36.804 25.29 36.703 25.391 36.601 25.494 36.55 25.629 36.55 25.798 36.55 25.967 36.601 26.102 36.703 26.204 36.804 26.306 36.94 26.357 37.107 26.357L37.107 26.357ZM33.755 26.27 34.637 26.27 34.637 20.214 33.83 20.214 32.373 21.045 32.373 21.76 33.755 21.105 33.755 26.27ZM30.498 26.357C30.665 26.357 30.799 26.306 30.902 26.204 31.003 26.102 31.055 25.967 31.055 25.798 31.055 25.629 31.003 25.494 30.902 25.391 30.799 25.29 30.665 25.239 30.498 25.239 30.331 25.239 30.196 25.29 30.094 25.391 29.992 25.494 29.941 25.629 29.941 25.798 29.941 25.967 29.992 26.102 30.094 26.204 30.196 26.306 30.331 26.357 30.498 26.357L30.498 26.357ZM26.255 23.605C26.255 24.327 26.337 24.856 26.502 25.191 26.666 25.526 26.923 25.693 27.276 25.693 27.865 25.693 28.159 25.283 28.159 24.462 28.159 24.083 28.082 23.793 27.926 23.591 27.772 23.39 27.543 23.29 27.24 23.29 26.918 23.29 26.59 23.372 26.255 23.535L26.255 23.605ZM25.842 25.663C25.536 25.182 25.383 24.441 25.383 23.438 25.383 22.361 25.568 21.535 25.936 20.961 26.304 20.387 26.828 20.1 27.508 20.1 27.718 20.1 27.931 20.127 28.145 20.179 28.358 20.231 28.545 20.301 28.706 20.389L28.706 21.027C28.551 20.957 28.375 20.9 28.177 20.856 27.979 20.812 27.794 20.791 27.62 20.791 27.181 20.791 26.853 20.964 26.636 21.311 26.419 21.657 26.295 22.21 26.265 22.966 26.661 22.734 27.07 22.617 27.491 22.617 27.96 22.617 28.336 22.78 28.618 23.106 28.9 23.433 29.041 23.867 29.041 24.409 29.041 25.014 28.878 25.495 28.558 25.85 28.236 26.206 27.799 26.383 27.25 26.383 26.618 26.383 26.149 26.143 25.842 25.663L25.842 25.663ZM22.635 26.27 23.517 26.27 23.517 20.214 22.71 20.214 21.252 21.045 21.252 21.76 22.635 21.105 22.635 26.27ZM19.377 26.357C19.544 26.357 19.679 26.306 19.782 26.204 19.883 26.102 19.935 25.967 19.935 25.798 19.935 25.629 19.883 25.494 19.782 25.391 19.679 25.29 19.544 25.239 19.377 25.239 19.211 25.239 19.076 25.29 18.974 25.391 18.872 25.494 18.821 25.629 18.821 25.798 18.821 25.967 18.872 26.102 18.974 26.204 19.076 26.306 19.211 26.357 19.377 26.357L19.377 26.357ZM17.855 25.545 15.331 25.545C16.048 24.671 16.556 24.022 16.852 23.6 17.15 23.178 17.354 22.824 17.465 22.539 17.577 22.253 17.633 21.976 17.633 21.708 17.633 21.202 17.5 20.807 17.233 20.524 16.967 20.242 16.596 20.1 16.121 20.1 15.847 20.1 15.582 20.145 15.322 20.236 15.061 20.326 14.793 20.47 14.514 20.669L14.514 21.411C15.101 21.039 15.587 20.852 15.971 20.852 16.473 20.852 16.723 21.155 16.723 21.76 16.723 22.035 16.652 22.323 16.51 22.626 16.367 22.929 16.132 23.309 15.804 23.766 15.476 24.223 15 24.84 14.375 25.615L14.375 26.27 17.855 26.27 17.855 25.545ZM10.429 26.27 11.339 26.27 13.28 20.861 13.28 20.214 9.734 20.214 9.734 20.939 12.398 20.939 10.429 26.27ZM7.004 26.27 7.886 26.27 7.886 20.214 7.079 20.214 5.621 21.045 5.621 21.76 7.004 21.105 7.004 26.27ZM39.399 8.917C39.399 9.773 39.479 10.394 39.64 10.779 39.801 11.163 40.058 11.355 40.411 11.355 40.763 11.355 41.02 11.163 41.181 10.779 41.342 10.394 41.422 9.773 41.422 8.917 41.422 8.067 41.342 7.449 41.181 7.065 41.02 6.68 40.763 6.488 40.411 6.488 40.058 6.488 39.801 6.68 39.64 7.065 39.479 7.449 39.399 8.067 39.399 8.917L39.399 8.917ZM38.986 11.259C38.661 10.723 38.499 9.943 38.499 8.917 38.499 7.892 38.661 7.113 38.986 6.58 39.311 6.047 39.786 5.78 40.411 5.78 41.036 5.78 41.511 6.047 41.835 6.58 42.161 7.113 42.323 7.892 42.323 8.917 42.323 9.948 42.161 10.73 41.835 11.263 41.511 11.797 41.036 12.063 40.411 12.063 39.786 12.063 39.311 11.795 38.986 11.259L38.986 11.259ZM37.107 12.037C37.273 12.037 37.409 11.986 37.51 11.883 37.612 11.782 37.664 11.646 37.664 11.477 37.664 11.308 37.612 11.174 37.51 11.071 37.409 10.969 37.273 10.919 37.107 10.919 36.94 10.919 36.804 10.969 36.703 11.071 36.601 11.174 36.55 11.308 36.55 11.477 36.55 11.646 36.601 11.782 36.703 11.883 36.804 11.986 36.94 12.037 37.107 12.037L37.107 12.037ZM32.791 8.917C32.791 9.773 32.871 10.394 33.031 10.779 33.193 11.163 33.449 11.355 33.801 11.355 34.154 11.355 34.412 11.163 34.572 10.779 34.734 10.394 34.813 9.773 34.813 8.917 34.813 8.067 34.734 7.449 34.572 7.065 34.412 6.68 34.154 6.488 33.801 6.488 33.449 6.488 33.193 6.68 33.031 7.065 32.871 7.449 32.791 8.067 32.791 8.917L32.791 8.917ZM32.377 11.259C32.052 10.723 31.89 9.943 31.89 8.917 31.89 7.892 32.052 7.113 32.377 6.58 32.703 6.047 33.177 5.78 33.801 5.78 34.427 5.78 34.902 6.047 35.226 6.58 35.552 7.113 35.714 7.892 35.714 8.917 35.714 9.948 35.552 10.73 35.226 11.263 34.902 11.797 34.427 12.063 33.801 12.063 33.177 12.063 32.703 11.795 32.377 11.259L32.377 11.259ZM30.498 12.037C30.665 12.037 30.799 11.986 30.902 11.883 31.003 11.782 31.055 11.646 31.055 11.477 31.055 11.308 31.003 11.174 30.902 11.071 30.799 10.969 30.665 10.919 30.498 10.919 30.331 10.919 30.196 10.969 30.094 11.071 29.992 11.174 29.941 11.308 29.941 11.477 29.941 11.646 29.992 11.782 30.094 11.883 30.196 11.986 30.331 12.037 30.498 12.037L30.498 12.037ZM26.255 9.284C26.255 10.007 26.337 10.536 26.502 10.871 26.666 11.206 26.923 11.373 27.276 11.373 27.865 11.373 28.159 10.962 28.159 10.14 28.159 9.761 28.082 9.472 27.926 9.271 27.772 9.07 27.543 8.969 27.24 8.969 26.918 8.969 26.59 9.051 26.255 9.215L26.255 9.284ZM25.842 11.342C25.536 10.861 25.383 10.12 25.383 9.118 25.383 8.041 25.568 7.215 25.936 6.64 26.304 6.067 26.828 5.78 27.508 5.78 27.718 5.78 27.931 5.806 28.145 5.858 28.358 5.911 28.545 5.981 28.706 6.068L28.706 6.707C28.551 6.636 28.375 6.58 28.177 6.536 27.979 6.492 27.794 6.47 27.62 6.47 27.181 6.47 26.853 6.643 26.636 6.991 26.419 7.337 26.295 7.889 26.265 8.646 26.661 8.414 27.07 8.297 27.491 8.297 27.96 8.297 28.336 8.46 28.618 8.786 28.9 9.112 29.041 9.547 29.041 10.089 29.041 10.694 28.878 11.174 28.558 11.53 28.236 11.885 27.799 12.063 27.25 12.063 26.618 12.063 26.149 11.823 25.842 11.342L25.842 11.342ZM22.635 11.95 23.517 11.95 23.517 5.893 22.71 5.893 21.252 6.723 21.252 7.44 22.635 6.785 22.635 11.95ZM19.377 12.037C19.544 12.037 19.679 11.986 19.782 11.883 19.883 11.782 19.935 11.646 19.935 11.477 19.935 11.308 19.883 11.174 19.782 11.071 19.679 10.969 19.544 10.919 19.377 10.919 19.211 10.919 19.076 10.969 18.974 11.071 18.872 11.174 18.821 11.308 18.821 11.477 18.821 11.646 18.872 11.782 18.974 11.883 19.076 11.986 19.211 12.037 19.377 12.037L19.377 12.037ZM17.855 11.224 15.331 11.224C16.048 10.35 16.556 9.702 16.852 9.28 17.15 8.858 17.354 8.504 17.465 8.218 17.577 7.932 17.633 7.656 17.633 7.387 17.633 6.882 17.5 6.487 17.233 6.204 16.967 5.922 16.596 5.78 16.121 5.78 15.847 5.78 15.582 5.825 15.322 5.916 15.061 6.006 14.793 6.15 14.514 6.348L14.514 7.091C15.101 6.718 15.587 6.532 15.971 6.532 16.473 6.532 16.723 6.835 16.723 7.44 16.723 7.715 16.652 8.003 16.51 8.305 16.367 8.608 16.132 8.989 15.804 9.446 15.476 9.903 15 10.519 14.375 11.294L14.375 11.95 17.855 11.95 17.855 11.224ZM10.429 11.95 11.339 11.95 13.28 6.541 13.28 5.893 9.734 5.893 9.734 6.619 12.398 6.619 10.429 11.95ZM7.004 6.785 5.621 7.44 5.621 6.723 7.079 5.893 7.886 5.893 7.886 11.95 7.004 11.95 7.004 6.785Z" id="AWS-Amazon-Route-53_Route-table_Resource-Icon_light-bg" fill="#8C4FFF"/></g></svg>