<svg width="80" height="80" viewBox="0 0 80 80" xmlns="http://www.w3.org/2000/svg" xmlns:xlink="http://www.w3.org/1999/xlink" overflow="hidden"><g id="Icon-Architecture/64/Arch_Amazon-Elastic-Inference_64" stroke="none" stroke-width="1" fill="none" fill-rule="evenodd"><g id="Icon-Architecture-BG/64/Machine-Learning" fill="#01A88D"><rect x="0" y="0" width="80" height="80" id="Rectangle"/></g><path d="M38.0059 48.3734 25.9102 55.4711 24.8949 53.7527 31.712 49.7528 31.712 45.3333 25.9732 42.1269 19.8694 45.137 18.9821 43.3498 25.0019 40.3816 25.0019 34.6025 19.0451 31.2097 14.0006 34.6085 14.0006 38.8466 18.8201 36.0239 19.8344 37.7412 14.0006 41.16 14.0006 46.4427 19.0361 49.7937 25.152 46.2503 26.1583 47.9747 20.0004 51.541 20.0004 58.3786 25.5771 61.7216 31.3939 58.3078 32.4092 60.0262 27.5277 62.8898 32.4392 65.8341 38.0059 62.3754 38.0059 48.3734ZM58.5121 43.0299C58.5121 42.2056 57.8389 41.5348 57.0117 41.5348 56.1844 41.5348 55.5112 42.2056 55.5112 43.0299 55.5112 43.8542 56.1844 44.525 57.0117 44.525 57.8389 44.525 58.5121 43.8542 58.5121 43.0299L58.5121 43.0299ZM53.5106 26.0496C53.5106 25.2253 52.8374 24.5545 52.0101 24.5545 51.1829 24.5545 50.5097 25.2253 50.5097 26.0496 50.5097 26.8739 51.1829 27.5447 52.0101 27.5447 52.8374 27.5447 53.5106 26.8739 53.5106 26.0496L53.5106 26.0496ZM46.5085 38.0462C46.5085 38.8705 47.1817 39.5413 48.0089 39.5413 48.8362 39.5413 49.5094 38.8705 49.5094 38.0462 49.5094 37.2219 48.8362 36.5511 48.0089 36.5511 47.1817 36.5511 46.5085 37.2219 46.5085 38.0462L46.5085 38.0462ZM44.0077 53.9581 40.0065 53.9581 40.0065 62.9286C40.0065 63.2725 39.8284 63.5925 39.5354 63.7749L32.9784 67.8495C32.8163 67.9492 32.6323 68 32.4482 68 32.2702 68 32.0921 67.9522 31.9331 67.8575L18.484 59.7959C18.1839 59.6155 17.9998 59.2916 17.9998 58.9417L17.9998 51.5011 12.4441 47.8052C12.1671 47.6198 12 47.3089 12 46.976L12 34.0802C12 33.7493 12.1651 33.4394 12.4391 33.255L17.9998 29.5072 17.9998 22.0627C17.9998 21.7118 18.1849 21.3869 18.487 21.2075L31.9371 13.1967C32.2592 13.0074 32.6623 13.0104 32.9794 13.2077L39.0162 16.9644 45.4261 13.1419C45.7442 12.9505 46.1424 12.9535 46.4605 13.1459L59.5334 21.0869C59.8305 21.2673 60.0126 21.5902 60.0126 21.9381L60.0126 29.4564 66.5106 33.1583C66.8226 33.3357 67.0147 33.6656 67.0147 34.0234L67.0147 48.2637C67.0147 48.6156 66.8276 48.9425 66.5236 49.1209 66.2165 49.3013 65.8403 49.3053 65.5322 49.1369L59.2673 45.6962C58.6582 46.2095 57.8699 46.5185 57.0117 46.5185 55.0811 46.5185 53.5106 44.9536 53.5106 43.0299 53.5106 41.1062 55.0811 39.5413 57.0117 39.5413 58.9422 39.5413 60.5127 41.1062 60.5127 43.0299 60.5127 43.3748 60.4617 43.7087 60.3677 44.0246L65.0141 46.5763 65.0141 34.6015 58.5161 30.8997C58.204 30.7223 58.012 30.3923 58.012 30.0345L58.012 27.0463 55.3652 27.0463C54.934 28.4856 53.5936 29.5381 52.0101 29.5381 50.0796 29.5381 48.5091 27.9733 48.5091 26.0496 48.5091 24.1259 50.0796 22.561 52.0101 22.561 53.5936 22.561 54.934 23.6136 55.3652 25.0529L58.012 25.0529 58.012 22.4972 45.9353 15.1613 40.0055 18.6977 40.0065 31.2615 45.9553 35.2225C46.5325 34.8049 47.2417 34.5577 48.0089 34.5577 49.9395 34.5577 51.51 36.1226 51.51 38.0462 51.51 39.9699 49.9395 41.5348 48.0089 41.5348 46.0783 41.5348 44.5079 39.9699 44.5079 38.0462 44.5079 37.6107 44.5889 37.193 44.7359 36.8073L38.45 32.623C38.1729 32.4376 38.0059 32.1267 38.0059 31.7937L38.0049 18.6857 32.4382 15.2211 27.0026 18.4575 27.0026 26.0496 25.0019 26.0496 25.0019 19.6496 20.0004 22.6278 20.0004 29.4574 26.0023 32.8752 32.0041 29.4574 32.0041 24.0561 34.0047 24.0561 34.0047 30.0365C34.0047 30.3943 33.8126 30.7243 33.5005 30.9017L27.0026 34.6025 27.0026 40.4165 33.2014 43.8801C33.5175 44.0565 33.7126 44.3884 33.7126 44.7493L33.7126 48.5797 38.0059 46.06 38.0059 41.5258 32.3902 37.6984 33.5195 36.0538 39.5704 40.1782C39.8435 40.3636 40.0065 40.6716 40.0065 41.0006L40.0065 51.9646 44.0077 51.9646 44.0077 53.9581ZM65.1341 54.3946 64.3909 53.7308 56.0874 61.7684C56.0474 61.7664 56.0094 61.7565 55.9693 61.7565 54.818 61.7565 53.8807 62.6904 53.8807 63.8377 53.8807 64.9859 54.818 65.9188 55.9693 65.9188 57.1207 65.9188 58.058 64.9859 58.058 63.8377 58.058 63.721 58.042 63.6094 58.024 63.4978L65.1341 54.3946ZM59.8155 55.5269 60.6068 53.6959C59.1323 53.064 57.5728 52.744 55.9693 52.744 49.3353 52.744 43.9387 58.2071 43.9387 64.9221L45.9393 64.9221C45.9393 59.3065 50.4387 54.7375 55.9693 54.7375 57.2988 54.7375 58.5931 55.0026 59.8155 55.5269L59.8155 55.5269ZM68 64.9221 65.9994 64.9221C65.9994 62.817 65.3542 60.7857 64.1318 59.0474L65.7713 57.9041C67.2298 59.9793 68 62.4063 68 64.9221L68 64.9221Z" id="Amazon-Elastic-Inference_Icon_64_Squid" fill="#FFFFFF"/></g></svg>