<svg width="80" height="80" viewBox="0 0 80 80" xmlns="http://www.w3.org/2000/svg" xmlns:xlink="http://www.w3.org/1999/xlink" overflow="hidden"><g id="Icon-Architecture/64/Arch_Reserved-Instance-Reporting_64" stroke="none" stroke-width="1" fill="none" fill-rule="evenodd"><g id="Icon-Architecture-BG/64/AWS-Cost-Management" fill="#7AA116"><rect x="0" y="0" width="80" height="80" id="Rectangle"/></g><path d="M56.344 54.964 47.808 46.427 46.394 47.841 54.913 56.361 40.006 62.54 25.021 56.338 33.562 47.797 32.148 46.382 23.633 54.898 17.459 40.005 23.636 25.083 32.158 33.606 33.573 32.192 25.039 23.658 39.994 17.459 54.901 23.629 46.383 32.147 47.797 33.561 56.335 25.023 62.541 39.994 56.344 54.964ZM68 41 68 39 64.293 39 57.866 23.491 61.001 20.356 59.587 18.942 56.432 22.098 41 15.711 41 12 39 12 39 15.706 23.508 22.128 20.323 18.942 18.909 20.356 22.106 23.552 15.711 39 12 39 12 41 15.707 41 22.102 56.429 18.909 59.621 20.323 61.035 23.49 57.869 39 64.289 39 68 41 68 41 64.293 56.445 57.892 59.587 61.035 61.001 59.621 57.875 56.495 64.289 41 68 41ZM40 45.72C36.846 45.72 34.281 43.154 34.281 40 34.281 36.845 36.846 34.279 40 34.279 43.155 34.279 45.72 36.845 45.72 40 45.72 43.154 43.155 45.72 40 45.72L40 45.72ZM40 32.279C35.743 32.279 32.281 35.743 32.281 40 32.281 44.256 35.743 47.72 40 47.72 44.257 47.72 47.72 44.256 47.72 40 47.72 35.743 44.257 32.279 40 32.279L40 32.279Z" id="Reserved-Instance-Reporting_Icon_64_Squid" fill="#FFFFFF"/></g></svg>