<svg width="48" height="48" viewBox="0 0 48 48" xmlns="http://www.w3.org/2000/svg" xmlns:xlink="http://www.w3.org/1999/xlink" overflow="hidden"><g id="Icon-Resource/Storage/Res_Amazon-Elastic-Block-Store_Volume-gp3_48" stroke="none" stroke-width="1" fill="none" fill-rule="evenodd"><path d="M30.009 32.759C29.305 32.759 28.615 32.612 27.941 32.319L27.941 31.285C28.743 31.556 29.417 31.692 29.964 31.692 30.481 31.692 30.881 31.576 31.161 31.345 31.442 31.114 31.582 30.786 31.582 30.361 31.582 29.554 31.073 29.151 30.055 29.151 29.728 29.151 29.375 29.173 28.997 29.217L28.997 28.37 31.164 26.016 28.051 26.016 28.051 24.971 32.594 24.971 32.594 25.972 30.306 28.216C30.407 28.209 30.509 28.205 30.61 28.205 31.038 28.205 31.426 28.295 31.773 28.474 32.12 28.654 32.397 28.909 32.603 29.239 32.81 29.569 32.913 29.946 32.913 30.372 32.913 30.834 32.796 31.245 32.561 31.604 32.326 31.964 31.989 32.246 31.549 32.451 31.109 32.656 30.595 32.759 30.009 32.759L30.009 32.759ZM22.958 28.271C23.361 27.992 23.801 27.853 24.278 27.853 24.747 27.853 25.093 28.009 25.318 28.321 25.541 28.632 25.653 29.111 25.653 29.756 25.653 30.409 25.539 30.894 25.312 31.214 25.085 31.532 24.736 31.692 24.267 31.692 23.805 31.692 23.368 31.549 22.958 31.263L22.958 28.271ZM22.958 32.11C23.171 32.301 23.42 32.449 23.706 32.555 23.992 32.662 24.289 32.715 24.597 32.715 25.081 32.715 25.503 32.587 25.862 32.33 26.221 32.073 26.496 31.719 26.687 31.268 26.878 30.818 26.973 30.299 26.973 29.712 26.973 28.832 26.766 28.132 26.351 27.611 25.937 27.091 25.382 26.83 24.685 26.83 24.347 26.83 24.023 26.892 23.711 27.017 23.4 27.142 23.115 27.322 22.859 27.556L22.738 26.995 21.66 26.995 21.66 34.86 22.958 34.86 22.958 32.11ZM16.803 28.282C17.02 27.989 17.352 27.842 17.799 27.842 18.232 27.842 18.639 27.974 19.02 28.238L19.02 31.054C18.631 31.34 18.22 31.483 17.788 31.483 16.915 31.483 16.479 30.867 16.479 29.635 16.479 29.027 16.587 28.575 16.803 28.282L16.803 28.282ZM17.403 32.484C18.004 32.484 18.543 32.279 19.02 31.868L19.02 32.341C19.02 32.913 18.895 33.325 18.646 33.578 18.397 33.831 17.997 33.958 17.447 33.958 16.904 33.958 16.292 33.844 15.61 33.617L15.61 34.541C16.214 34.842 16.855 34.992 17.533 34.992 18.425 34.992 19.112 34.75 19.594 34.266 20.077 33.782 20.318 33.096 20.318 32.209L20.318 26.995 19.218 26.995 19.108 27.501C18.639 27.054 18.085 26.83 17.447 26.83 16.978 26.83 16.571 26.951 16.226 27.193 15.881 27.435 15.617 27.77 15.434 28.199 15.251 28.629 15.159 29.122 15.159 29.679 15.159 30.53 15.363 31.21 15.77 31.719 16.176 32.229 16.721 32.484 17.403 32.484L17.403 32.484ZM8.06897 44 40.069 44 40.069 15 8.06897 15 8.06897 44ZM41.069 13 7.06897 13C6.51697 13 6.06897 13.448 6.06897 14L6.06897 45C6.06897 45.552 6.51697 46 7.06897 46L41.069 46C41.621 46 42.069 45.552 42.069 45L42.069 14C42.069 13.448 41.621 13 41.069 13L41.069 13ZM13.533 4 34.468 4.002 38.993 10 9.00697 10 13.533 4ZM6.99997 12 41 12C41.38 12 41.726 11.786 41.895 11.446 42.064 11.107 42.027 10.701 41.799 10.398L35.765 2.4C35.576 2.15 35.28 2.002 34.967 2.002L13.035 2C12.721 2 12.426 2.148 12.237 2.398L6.20197 10.398C5.97297 10.701 5.93597 11.107 6.10497 11.446 6.27397 11.786 6.62097 12 6.99997 12L6.99997 12Z" id="Fill-1" fill="#7AA116"/></g></svg>