<svg width="80" height="80" viewBox="0 0 80 80" xmlns="http://www.w3.org/2000/svg" xmlns:xlink="http://www.w3.org/1999/xlink" overflow="hidden"><g id="Icon-Architecture/64/Arch_Amazon-EC2-Image-Builder_64" stroke="none" stroke-width="1" fill="none" fill-rule="evenodd"><g id="Icon-Architecture-BG/64/Compute" fill="#ED7100"><rect x="0" y="0" width="80" height="80" id="Rectangle"/></g><path d="M32.591 32.745 24.682 40.655 32.591 48.564 34.005 47.15 27.51 40.655 34.005 34.159 32.591 32.745ZM14 64 40 64 40 16 14 16 14 64ZM12 66 42 66 42 14 12 14 12 66ZM17.238 40C17.238 51.383 26.498 60.643 37.881 60.643L37.881 58.643C27.602 58.643 19.238 50.28 19.238 40 19.238 29.72 27.602 21.357 37.881 21.357L37.881 19.357C26.498 19.357 17.238 28.617 17.238 40L17.238 40ZM43.707 50.399 43.707 52.399C50.544 52.399 56.107 46.837 56.107 40 56.107 33.163 50.544 27.6 43.707 27.6L43.707 29.6C49.442 29.6 54.107 34.266 54.107 40 54.107 45.734 49.442 50.399 43.707 50.399L43.707 50.399ZM69 35.853 69 44.147C69 45.27 68.086 46.183 66.963 46.183L63.416 46.183C63.018 47.492 62.49 48.763 61.841 49.977L64.352 52.488C64.737 52.872 64.948 53.384 64.948 53.928 64.948 54.472 64.737 54.984 64.352 55.369L58.487 61.233C57.718 62.002 56.376 62.003 55.607 61.232L53.096 58.722C51.883 59.37 50.612 59.898 49.303 60.297L49.303 63.844C49.303 64.967 48.389 65.881 47.266 65.881L43.119 65.881 43.119 63.881 47.266 63.881 47.303 58.772 48.047 58.575C49.695 58.139 51.281 57.48 52.766 56.616L53.431 56.229 57.022 59.819 62.938 53.954 59.348 50.312 59.736 49.647C60.601 48.161 61.26 46.573 61.695 44.928L61.892 44.183 66.963 44.183 67 35.853 61.892 35.816 61.695 35.072C61.26 33.427 60.601 31.839 59.736 30.353L59.348 29.687 62.938 26.098 57.073 20.181 53.431 23.771 52.766 23.384C51.281 22.52 49.695 21.861 48.047 21.425L47.303 21.227 47.303 16.156 43.204 16.119 43.204 14.119 47.266 14.119C48.389 14.119 49.303 15.033 49.303 16.156L49.303 19.703C50.612 20.102 51.883 20.63 53.096 21.278L55.608 18.767C56.375 17.997 57.718 17.998 58.487 18.766L64.352 24.632C64.737 25.016 64.948 25.528 64.948 26.072 64.948 26.616 64.737 27.127 64.352 27.512L61.841 30.023C62.49 31.237 63.018 32.508 63.416 33.816L66.963 33.816C68.086 33.816 69 34.73 69 35.853L69 35.853Z" id="AWS-EC2-Image-Builder_Ikon-64_Squid" fill="#FFFFFF"/></g></svg>