<svg width="80" height="80" viewBox="0 0 80 80" xmlns="http://www.w3.org/2000/svg" xmlns:xlink="http://www.w3.org/1999/xlink" overflow="hidden"><g id="Icon-Architecture/64/Arch_AWS-IoT-Events_64" stroke="none" stroke-width="1" fill="none" fill-rule="evenodd"><g id="Icon-Architecture-BG/64/Internet-of-Things" fill="#7AA116"><rect x="0" y="0" width="80" height="80" id="Rectangle"/></g><path d="M26 21C27.654 21 29 22.346 29 24 29 25.654 27.654 27 26 27 24.346 27 23 25.654 23 24 23 22.346 24.346 21 26 21L26 21ZM26 29C27.042 29 28.01 28.678 28.812 28.13L33.1 31.56C32.865 32.095 32.646 32.639 32.463 33.203L34.365 33.822C36.367 27.673 41.832 23.438 48.287 23.036L48.162 21.04C42.174 21.414 36.946 24.716 34.021 29.736L30.205 26.683C30.702 25.906 31 24.989 31 24 31 21.243 28.757 19 26 19 23.243 19 21 21.243 21 24 21 26.757 23.243 29 26 29L26 29ZM18 43C16.346 43 15 41.654 15 40 15 38.346 16.346 37 18 37 19.654 37 21 38.346 21 40 21 41.654 19.654 43 18 43L18 43ZM22.898 41 40.589 41C40.857 42.696 41.601 44.283 42.771 45.594 44.382 47.397 46.599 48.465 49.012 48.601 49.186 48.611 49.357 48.616 49.529 48.616 53.26 48.616 56.607 46.342 57.965 42.832L56.1 42.11C54.993 44.971 52.199 46.78 49.125 46.604 47.244 46.498 45.518 45.667 44.263 44.262 43.009 42.857 42.376 41.048 42.481 39.167 42.588 37.287 43.42 35.561 44.824 34.306 46.229 33.051 48.054 32.419 49.918 32.524 53 32.698 55.585 34.821 56.353 37.807L58.29 37.309C57.305 33.476 53.985 30.75 50.031 30.527 47.602 30.388 45.295 31.204 43.492 32.814 41.702 34.413 40.641 36.607 40.491 39L22.898 39C22.435 36.721 20.414 35 18 35 15.243 35 13 37.243 13 40 13 42.757 15.243 45 18 45 20.414 45 22.435 43.279 22.898 41L22.898 41ZM64.895 37.69C64.788 35.996 64.416 34.351 63.789 32.801L65.643 32.051C66.351 33.801 66.771 35.656 66.891 37.565L64.895 37.69ZM64.576 41.971 66.531 42.392C66.045 44.653 65.13 46.769 63.813 48.681L62.166 47.546C63.334 45.851 64.145 43.975 64.576 41.971L64.576 41.971ZM53 41 67 41 67 39 53 39 53 41ZM50.023 50.112 50.148 52.108C49.875 52.125 49.603 52.134 49.332 52.134 43.455 52.134 38.2 48.167 36.651 42.442L38.581 41.92C39.955 46.996 44.79 50.448 50.023 50.112L50.023 50.112ZM48.658 25.889C55.098 25.494 60.833 29.756 62.277 36.043L60.328 36.491C59.104 31.163 54.235 27.557 48.783 27.885 43.512 28.214 39.164 32.244 38.444 37.467L36.464 37.194C37.312 31.032 42.44 26.277 48.658 25.889L48.658 25.889ZM26 59C24.346 59 23 57.654 23 56 23 54.346 24.346 53 26 53 27.654 53 29 54.346 29 56 29 57.654 27.654 59 26 59L26 59ZM50.24 54.298C44.018 54.686 38.154 51.349 35.313 45.793L33.532 46.705C33.779 47.188 34.055 47.651 34.342 48.105L29.391 52.348C28.498 51.519 27.312 51 26 51 23.243 51 21 53.243 21 56 21 58.757 23.243 61 26 61 28.757 61 31 58.757 31 56 31 55.279 30.84 54.597 30.563 53.977L35.504 49.742C38.827 53.87 43.871 56.329 49.258 56.329 49.625 56.329 49.995 56.317 50.365 56.294 53.896 56.073 57.24 54.819 60.033 52.667L58.813 51.083C56.337 52.99 53.372 54.102 50.24 54.298L50.24 54.298Z" id="AWS-IoT-Events_Icon_64_Squid" fill="#FFFFFF"/></g></svg>