<svg width="80" height="80" viewBox="0 0 80 80" xmlns="http://www.w3.org/2000/svg" xmlns:xlink="http://www.w3.org/1999/xlink" overflow="hidden"><g id="Icon-Architecture/64/Arch_AWS-DeepRacer_64" stroke="none" stroke-width="1" fill="none" fill-rule="evenodd"><g id="Icon-Architecture-BG/64/Machine-Learning" fill="#01A88D"><rect x="0" y="0" width="80" height="80" id="Rectangle"/></g><path d="M40.366 46.4533 40.5862 44.4455C38.7731 44.2505 36.9027 46.119 36.0892 48.8974 35.4174 51.191 35.6809 53.4119 36.7589 54.5531L38.218 53.1624C37.7444 52.6605 37.5121 51.195 38.0179 49.467 38.5941 47.5016 39.7737 46.3816 40.366 46.4533L40.366 46.4533ZM20.6863 46.6724 20.8925 44.6636C19.005 44.4667 17.043 46.3351 16.1792 49.0984 15.4572 51.4112 15.7388 53.6472 16.8952 54.7955L18.3091 53.3584C17.8083 52.8615 17.5649 51.4122 18.0979 49.7033 18.7415 47.647 20.0146 46.5957 20.6863 46.6724L20.6863 46.6724ZM43.7841 36.897 44.5986 35.0488C44.5021 35.0074 34.9599 30.8979 29.1063 41.2691L30.856 42.266C35.7915 33.5187 43.4593 36.7556 43.7841 36.897L43.7841 36.897ZM64.6956 47.545 64.0681 49.2913 63.0122 51.8737C62.9288 52.0727 62.787 52.2333 62.612 52.3423L62.6361 52.8403C62.6572 54.033 62.3163 55.0046 61.6526 55.6823 61.2132 56.1317 60.645 56.4226 59.9793 56.5882L59.8707 56.8346C60.0658 56.8357 60.2679 56.8346 60.4751 56.8336 63.0374 56.8175 64.6896 56.0822 65.3865 54.6491 66.4071 52.5484 66.1075 49.9043 64.6956 47.545L64.6956 47.545ZM67.1935 55.5358C66.4645 57.0346 64.7107 58.8263 60.4892 58.8536 60.3242 58.8546 60.1623 58.8546 60.0055 58.8546 59.0652 58.8546 58.314 58.8384 58.314 58.8384 57.9782 58.8313 57.6674 58.6556 57.4864 58.3708 57.3064 58.086 57.2793 57.7295 57.415 57.4204L57.7107 56.7488 45.6967 56.7488C44.4528 56.7488 43.3446 56.2862 42.6518 55.4803 42.3732 55.1541 42.1681 54.7804 42.0444 54.3734 41.615 55.1783 41.1393 55.8792 40.6194 56.4711 39.7596 57.4507 37.9757 58.8879 36.1495 58.8879 35.8418 58.8879 35.5341 58.8465 35.2294 58.7566 32.2025 57.8618 31.1134 53.1109 32.6973 47.7046 34.2881 42.2761 37.8902 38.717 40.901 39.6098 41.2127 39.7027 41.5124 39.8411 41.79 40.0218L40.6999 41.7186C40.5822 41.6428 40.4595 41.5853 40.3328 41.5479 38.7158 41.0692 35.9645 43.7112 34.626 48.2752 33.3047 52.7877 34.1645 56.3367 35.7965 56.8185 36.7086 57.0871 38.1989 56.1751 39.111 55.1359 40.0844 54.027 40.8899 52.4019 41.5044 50.3063 42.1077 48.2419 42.2968 46.1695 42.0343 44.4758 41.9508 43.9364 42.3088 43.4284 42.8428 43.3274 43.3718 43.2264 43.8937 43.5688 44.0103 44.1021 44.5121 46.3826 44.486 49.4306 43.9319 53.1594 43.8705 53.5654 43.953 53.9017 44.1763 54.1613 44.4809 54.5168 45.0491 54.7289 45.6967 54.7289L58.7304 54.7289C59.4172 54.7289 59.918 54.5733 60.2187 54.2663 60.4992 53.9795 60.637 53.522 60.6259 52.9069L60.6058 52.4989 59.2261 52.4979C58.9144 52.4979 58.6207 52.3535 58.4307 52.106 58.2396 51.8586 58.1743 51.5364 58.2527 51.2334L58.4247 50.5709C58.4458 50.4901 58.4769 50.4123 58.5162 50.3396L53.639 50.2558C52.9924 50.2558 52.3951 50.5911 52.0542 51.1385L51.8892 51.7485C51.7706 52.1888 51.3724 52.4938 50.9188 52.4938L46.9336 52.4928C46.4379 52.5908 45.9521 52.2959 45.7882 51.8182 45.6344 51.3728 45.4805 50.7022 45.2844 49.8528 45.0883 49.0095 44.846 47.9591 44.5463 46.8916L46.4811 46.3432C46.7948 47.4562 47.0432 48.5318 47.2433 49.3963 47.3349 49.7932 47.4203 50.1618 47.4978 50.4729L50.1495 50.4739C50.1707 50.3992 50.1988 50.3275 50.236 50.2598 50.9178 49.0115 52.2221 48.2358 53.639 48.2358L58.4669 48.2358C59.205 48.2358 59.8707 48.6176 60.2468 49.2549 60.4701 49.6336 60.5646 50.0598 60.5304 50.479L61.4083 50.479 62.1927 48.5641 62.9187 46.5401C63.4879 44.9494 63.8861 43.2881 64.1013 41.6004L64.9762 33.7904C65.2336 31.7674 64.769 29.897 63.6669 28.5083 62.5315 27.0782 60.8854 26.2359 59.1507 26.1975 59.0873 26.1965 59.026 26.1894 58.9637 26.1753L55.5386 26.1177C55.3566 26.1056 52.7058 25.9208 50.6895 28.5285 50.4221 28.8739 49.9635 29.0052 49.5582 28.8608 49.148 28.7143 48.8795 28.3215 48.8895 27.8852 48.9086 27.062 49.5844 25.5441 51.0727 24.4432 36.6161 22.5001 30.7504 27.6064 28.4908 31.0271L26.5953 34.4014C26.5651 34.4549 26.5299 34.5054 26.4907 34.5529 25.4589 35.7881 23.5302 37.2344 20.2549 37.1445 17.6856 37.3081 15.8333 38.6281 14.8377 41.0641 14.5984 41.7277 14.3591 42.5185 14.34 42.7194 14.3299 42.8184 14.3058 42.9295 14.2676 43.0305 14.2022 43.3759 14.1549 43.7092 14.1197 44.0213 14.3953 43.79 14.6628 43.5678 14.9222 43.3547 15.3043 43.0396 15.8584 43.0517 16.2285 43.383 16.5976 43.7143 16.672 44.2647 16.4045 44.6828 15.7257 45.7423 15.1515 46.9906 14.7442 48.2924 14.5059 49.0569 14.3249 49.8376 14.2082 50.6103L14.0644 52.1646C13.8251 54.7471 14.3701 56.3175 15.6845 56.8346 16.9485 57.3305 18.4227 56.4357 19.3016 55.5177 20.5285 54.233 21.5652 52.3757 22.2169 50.2901 23.1481 47.3077 23.1279 44.3 22.1656 42.6265L23.9083 41.6166C25.1573 43.789 25.2447 47.3441 24.1356 50.8941 23.7172 52.2313 23.1511 53.4876 22.4823 54.6036L29.9339 54.6036 29.9339 56.6236 21.0132 56.6236C20.9257 56.7215 20.8402 56.8235 20.7517 56.9165 19.6948 58.0203 18.122 59 16.4578 59 15.959 59 15.4542 58.9131 14.9514 58.7152 13.4048 58.1072 11.648 56.4448 12.0613 51.9818 12.0653 51.9303 12.0935 51.6323 12.2141 50.3638 12.3529 49.4327 12.556 48.551 12.8255 47.6874 12.8698 47.545 12.916 47.4036 12.9643 47.2633 12.8647 47.2542 12.7672 47.2319 12.6727 47.1926 12.3227 47.0491 12.0824 46.7209 12.0512 46.3432 12.0452 46.2715 11.9064 44.5646 12.3197 42.5084 12.3298 42.4589 12.3438 42.4114 12.3599 42.3639 12.4645 41.7489 12.8064 40.7662 12.9633 40.3349 14.2716 37.1293 16.7766 35.3417 20.2228 35.1266 21.5069 35.1639 22.6 34.9327 23.504 34.4418L12.8617 34.4418 12.8617 32.4219 25.3986 32.4219 26.7783 29.9717C26.901 29.7859 27.0367 29.594 27.1785 29.4001L21.9232 29.4001 21.9232 27.3802 28.9484 27.3802C30.0757 26.3005 31.5298 25.234 33.3911 24.3382L17.8898 24.3382 17.8898 22.3183 40.0724 22.3183 40.0724 22.3536C44.0717 21.7547 49.1188 21.8527 55.4853 23.1444 55.9509 23.2393 56.2817 23.6453 56.2918 24.1119L59.1215 24.1584C59.1899 24.1594 59.2563 24.1675 59.3227 24.1816 61.6084 24.2715 63.7594 25.3845 65.2396 27.2489 66.6837 29.0698 67.2991 31.4776 66.9733 34.0318L66.0984 41.8418C65.9566 42.9527 65.7354 44.0465 65.4528 45.1201 68.0282 48.3449 68.7301 52.3757 67.1935 55.5358L67.1935 55.5358ZM56.6317 41.5075C57.7258 41.4812 58.5785 40.7086 58.7102 39.6684L58.9013 38.1665C58.2909 38.9594 57.3446 39.4805 56.2707 39.4805 55.6472 39.4805 55.071 39.2967 54.5712 38.9967L54.5531 39.1361C54.4756 39.7461 54.6667 40.3561 55.076 40.8116 55.4722 41.254 56.0394 41.5075 56.6317 41.5075L56.6317 41.5075ZM54.9483 36.1315C54.9483 36.8637 55.5416 37.4606 56.2707 37.4606 57.0007 37.4606 57.595 36.8637 57.595 36.1315 57.595 35.3982 57.0007 34.8024 56.2707 34.8024 55.5416 34.8024 54.9483 35.3982 54.9483 36.1315L54.9483 36.1315ZM55.3827 32.6007 55.3405 32.9319C55.6381 32.8441 55.9458 32.7825 56.2707 32.7825 57.6393 32.7825 58.8148 33.6147 59.3277 34.8004L59.5399 33.1329C59.6183 32.5239 59.4262 31.9129 59.018 31.4564 58.6187 31.013 58.0556 30.7615 57.4643 30.7615 57.4462 30.7615 57.4291 30.7615 57.412 30.7625 56.3672 30.7878 55.5134 31.5604 55.3827 32.6007L55.3827 32.6007ZM56.7272 43.5264C55.4692 43.5264 54.359 43.0295 53.5827 42.165 52.7802 41.2722 52.4061 40.0754 52.558 38.8806L53.3866 32.3451C53.646 30.3081 55.3173 28.7931 57.3617 28.7436 58.5524 28.7002 59.7078 29.2092 60.5113 30.104 61.3128 30.9968 61.6868 32.1936 61.536 33.3874L61.536 33.3884 60.7064 39.9239C60.4469 41.961 58.7756 43.4759 56.7312 43.5264L56.7272 43.5264Z" id="AWS-DeepRacer_Icon_64_Squid" fill="#FFFFFF"/></g></svg>