<svg width="48" height="48" viewBox="0 0 48 48" xmlns="http://www.w3.org/2000/svg" xmlns:xlink="http://www.w3.org/1999/xlink" overflow="hidden"><g id="Icon-Resource/Networking-and-Content-Delivery/Res_AWS-Transit-Gateway_Attachment_48" stroke="none" stroke-width="1" fill="none" fill-rule="evenodd"><path d="M24 44C12.972 44 4 35.028 4 24 4 12.972 12.972 4 24 4 35.028 4 44 12.972 44 24 44 35.028 35.028 44 24 44M24 2C11.869 2 2 11.869 2 24 2 36.131 11.869 46 24 46 36.131 46 46 36.131 46 24 46 11.869 36.131 2 24 2M36 27C34.346 27 33 25.654 33 24 33 22.346 34.346 21 36 21 37.654 21 39 22.346 39 24 39 25.654 37.654 27 36 27M12 27C10.346 27 9 25.654 9 24 9 22.346 10.346 21 12 21 13.654 21 15 22.346 15 24 15 25.654 13.654 27 12 27M36 19C33.586 19 31.566 20.721 31.101 23L16.899 23C16.434 20.721 14.414 19 12 19 9.243 19 7 21.243 7 24 7 26.757 9.243 29 12 29 14.414 29 16.434 27.279 16.899 25L31.101 25C31.566 27.279 33.586 29 36 29 38.757 29 41 26.757 41 24 41 21.243 38.757 19 36 19" id="Fill-1" fill="#8C4FFF"/></g></svg>