<svg width="80" height="80" viewBox="0 0 80 80" xmlns="http://www.w3.org/2000/svg" xmlns:xlink="http://www.w3.org/1999/xlink" overflow="hidden"><g id="Icon-Architecture/64/Arch_Alexa-For-Business_64" stroke="none" stroke-width="1" fill="none" fill-rule="evenodd"><g id="Icon-Architecture-BG/64/Business-Applications" fill="#DD344C"><rect x="0" y="0" width="80" height="80" id="Rectangle"/></g><path d="M30.753 41.4957 41.753 41.4957 41.753 39.5043 30.753 39.5043 30.753 41.4957ZM30.753 36.5172 51.753 36.5172 51.753 34.5259 30.753 34.5259 30.753 36.5172ZM30.753 31.5388 48.753 31.5388 48.753 29.5474 30.753 29.5474 30.753 31.5388ZM40 14.9914C28.421 14.9914 19 24.3708 19 35.9009 19 44.3075 24.032 51.8658 31.819 55.1576 32.406 55.4045 32.697 55.9133 32.685 56.669L32.684 65.7338 36.588 64.775C50.729 61.1427 61 48.9982 61 35.9009 61 24.3708 51.579 14.9914 40 14.9914L40 14.9914ZM31.684 68C31.462 68 31.245 67.9263 31.067 67.7879 30.825 67.5997 30.684 67.31 30.684 67.0043L30.684 56.8373C22.358 53.1542 17 44.9786 17 35.9009 17 23.2735 27.317 13 40 13 52.683 13 63 23.2735 63 35.9009 63 49.8924 52.098 62.8473 37.077 66.7056L31.923 67.9711C31.844 67.99 31.764 68 31.684 68L31.684 68ZM39.883 20.6011C31.46 20.6628 24.602 27.549 24.602 35.9497 24.602 41.42 27.787 46.5438 33.124 49.6574 33.894 50.1034 35.949 51.5532 36.036 51.6139 37.544 52.752 38.443 54.5144 38.596 56.5954L38.598 58.4015C48.489 55.2263 55.542 46.2451 55.542 36.5909 55.542 35.1113 55.342 33.6447 54.946 32.2298 54.913 32.0894 54.884 31.9988 54.854 31.9042 53.115 25.6732 47.692 21.1945 41.331 20.6638L41.182 20.6569C40.821 20.6379 40.112 20.6011 39.883 20.6011L39.883 20.6011ZM37.599 60.7265C37.381 60.7265 37.166 60.6558 36.989 60.5204 36.743 60.3322 36.599 60.0404 36.599 59.7308L36.599 56.668C36.491 55.2382 35.871 53.9876 34.854 53.22 34.307 52.8346 32.693 51.7115 32.115 51.3769 26.157 47.901 22.602 42.1339 22.602 35.9497 22.602 26.4588 30.351 18.6794 39.875 18.6097 40.131 18.6097 40.896 18.6486 41.284 18.6685L41.463 18.6764C48.689 19.2788 54.819 24.3419 56.752 31.2779 56.808 31.4522 56.851 31.5915 56.885 31.7399 57.317 33.2842 57.542 34.9311 57.542 36.5909 57.542 47.5366 49.263 57.6737 37.855 60.6936 37.771 60.7155 37.685 60.7265 37.599 60.7265L37.599 60.7265Z" id="Alexa-For-Business_Icon_64_Squid" fill="#FFFFFF"/></g></svg>