<svg width="48" height="48" viewBox="0 0 48 48" xmlns="http://www.w3.org/2000/svg" xmlns:xlink="http://www.w3.org/1999/xlink" overflow="hidden"><g id="Icon-Resource/Storage/Res_Amazon-File-Cache_On-premises-NFS-linked-datasets_48" stroke="none" stroke-width="1" fill="none" fill-rule="evenodd"><path d="M18 31C18 29.346 16.654 28 15 28L15 26C17.757 26 20 28.243 20 31 20 33.757 17.757 36 15 36L13 36C10.243 36 8 33.757 8 31L10 31C10 32.654 11.346 34 13 34L15 34C16.654 34 18 32.654 18 31L18 31ZM4 31C4 32.654 5.346 34 7 34L7 36C4.243 36 2 33.757 2 31 2 28.243 4.243 26 7 26L9 26C11.757 26 14 28.243 14 31L12 31C12 29.346 10.654 28 9 28L7 28C5.346 28 4 29.346 4 31L4 31ZM32 23 34 23 34 21 32 21 32 23ZM38 23 40 23 40 21 38 21 38 23ZM20 9 22 9 22 7 20 7 20 9ZM14 9 16 9 16 7 14 7 14 9ZM13 16 41 16 41 14 13 14 13 16ZM10 12 44 12 44 4 10 4 10 12ZM34 44 41 44 41 42 34 42 34 44ZM13 44 20 44 20 42 13 42 13 44ZM44.082 14C45.14 14 46 13.14 46 12.083L46 3.917C46 2.86 45.14 2 44.082 2L10 2C8.897 2 8 2.897 8 4L8 12.083C8 13.14 8.86 14 9.918 14L11 14 11 16 9.918 16C8.86 16 8 16.86 8 17.917L8 24 10 24 10 18 44 18 44 26 22 26 22 28 41 28 41 30 22 30 22 32 44 32 44 40 10 40 10 38 8 38 8 40C8 41.103 8.897 42 10 42L11 42 11 45C11 45.552 11.447 46 12 46L21 46C21.553 46 22 45.552 22 45L22 42 32 42 32 45C32 45.552 32.447 46 33 46L42 46C42.553 46 43 45.552 43 45L43 42 44 42C45.103 42 46 41.103 46 40L46 32C46 30.897 45.103 30 44 30L43 30 43 28 44.082 28C45.14 28 46 27.14 46 26.083L46 18C46 16.897 45.103 16 44 16L43 16 43 14 44.082 14Z" id="Fill-1" fill="#7AA116"/></g></svg>