<svg width="48" height="48" viewBox="0 0 48 48" xmlns="http://www.w3.org/2000/svg" xmlns:xlink="http://www.w3.org/1999/xlink" overflow="hidden"><g id="Icon-Resource/Analytics/Res_AWS-Glue_Data-Catalog_48" stroke="none" stroke-width="1" fill="none" fill-rule="evenodd"><path d="M21.306 18.375C23.678 18.932 26.68 19 28 19 29.321 19 32.323 18.932 34.695 18.375L29 29.764 29 33 27 33 27 29.764 21.306 18.375ZM28 15C31.95 15 34.573 15.561 35.617 16 34.573 16.441 31.95 17 28 17 24.051 17 21.429 16.441 20.384 16 21.429 15.561 24.051 15 28 15L28 15ZM31 35 31 30.236 37.642 16.952C37.868 16.674 38 16.359 38 16 38 13.217 30.346 13 28 13 25.655 13 18 13.217 18 16 18 16.359 18.131 16.674 18.358 16.952L25 30.236 25 35 31 35ZM4 2 9 2 9 4 6 4 6 44 9 44 9 46 4 46 4 2ZM16 42 40 42 40 40 16 40 16 42ZM16 38 40 38 40 36 16 36 16 38ZM16 12 40 12 40 10 16 10 16 12ZM16 8 40 8 40 6 16 6 16 8ZM13 44 42 44 42 4 13 4 13 44ZM11 46 44 46 44 2 11 2 11 46Z" id="Icon-Resource/48/AWS-Glue_Data-Catalog" fill="#8C4FFF"/></g></svg>