<svg width="80" height="80" viewBox="0 0 80 80" xmlns="http://www.w3.org/2000/svg" xmlns:xlink="http://www.w3.org/1999/xlink" overflow="hidden"><g id="Icon-Architecture/64/Arch_Amazon-Omics_64" stroke="none" stroke-width="1" fill="none" fill-rule="evenodd"><g id="Icon-Architecture-BG/64/Machine-Learning" fill="#01A88D"><rect x="0" y="0" width="80" height="80" id="Rectangle"/></g><path d="M28.1074 24.142C27.3104 24.642 26.5214 25.134 25.7454 25.618 22.1244 27.872 18.7034 30.003 16.1574 32.056 12.9784 34.618 11.6124 37.955 12.0944 41.975 12.4624 45.032 14.9144 47.953 19.5884 50.904L20.6574 49.212C18.3984 47.786 16.7334 46.379 15.6294 45L28.0014 45 28.0014 43 14.4294 43C14.2614 42.576 14.1314 42.153 14.0814 41.736 13.6794 38.4 14.7694 35.743 17.4134 33.612 19.8644 31.636 23.2344 29.537 26.8024 27.315 27.5814 26.83 28.3734 26.337 29.1714 25.835 31.9074 24.117 36.9994 20.917 36.9994 15L36.9994 12 34.9994 12 34.9994 15C34.9994 15.346 34.9704 15.676 34.9294 16L14.0024 16 14.0024 12 12.0024 12 12.0024 15.986C11.9384 20.381 15.7834 23.038 18.8724 25.173L19.1864 25.39 20.3254 23.746 20.0084 23.528C17.7794 21.986 15.3224 20.281 14.3924 18L34.3934 18C33.2384 20.708 30.6094 22.569 28.1074 24.142L28.1074 24.142ZM43.0014 53 68.0014 53 68.0014 51 43.0014 51 43.0014 53ZM43.0014 29 68.0014 29 68.0014 27 43.0014 27 43.0014 29ZM43.0014 45 56.0014 45 56.0014 43 43.0014 43 43.0014 45ZM14.6064 62 34.5534 62C33.6234 59.72 31.1664 58.015 28.9364 56.473L28.6204 56.254 29.7584 54.611 30.0734 54.828C33.1624 56.963 37.0064 59.62 36.9434 64.015L36.9434 68 34.9434 68 34.9434 64 14.0704 64C14.0294 64.324 14.0014 64.655 14.0014 65L14.0014 68 12.0014 68 12.0014 65C12.0014 59.085 17.0924 55.885 19.8284 54.165 20.6274 53.663 21.4194 53.17 22.1974 52.686 25.7654 50.464 29.1354 48.365 31.5864 46.389 34.2304 44.258 35.3204 41.6 34.9194 38.265 34.8684 37.847 34.7384 37.425 34.5714 37L23.0014 37 23.0014 35 33.3704 35C32.2664 33.622 30.6014 32.215 28.3424 30.788L29.4114 29.097C32.5234 31.062 34.6284 33.014 35.8104 35L63.0014 35 63.0014 37 36.6934 37C36.7874 37.341 36.8634 37.682 36.9054 38.026 37.3874 42.046 36.0214 45.383 32.8424 47.945 30.2964 49.998 26.8764 52.128 23.2544 54.383 22.4784 54.867 21.6894 55.358 20.8924 55.859 18.3904 57.432 15.7624 59.293 14.6064 62L14.6064 62Z" id="Fill-5" fill="#FFFFFF"/></g></svg>