<svg width="80" height="80" viewBox="0 0 80 80" xmlns="http://www.w3.org/2000/svg" xmlns:xlink="http://www.w3.org/1999/xlink" overflow="hidden"><g id="Icon-Architecture/64/Arch_AWS-Private-5G_64" stroke="none" stroke-width="1" fill="none" fill-rule="evenodd"><g id="Icon-Architecture-BG/64/Networking-Content-Delivery" fill="#8C4FFF"><rect x="0" y="0" width="80" height="80" id="Rectangle"/></g><path d="M31.221 20.755 22.224 13.918 23.435 12.325 32.432 19.162 31.221 20.755ZM48.179 20.73 46.968 19.137 55.964 12.3 57.175 13.893 48.179 20.73ZM42 61.01 45 61.01 45 58.01 42 58.01 42 61.01ZM35 61.01 38 61.01 38 58.01 35 58.01 35 61.01ZM42 54.01 45 54.01 45 51.01 42 51.01 42 54.01ZM35 54.01 38 54.01 38 51.01 35 51.01 35 54.01ZM55.964 36.145 46.968 29.308 48.179 27.715 57.175 34.552 55.964 36.145ZM50 26.01 64 26.01 64 24.01 50 24.01 50 26.01ZM31.221 27.74 32.432 29.333 23.435 36.17 22.224 34.577 31.221 27.74ZM17 26.01 31 26.01 31 24.01 17 24.01 17 26.01ZM50 65.676 50 58.56C61.558 59.574 65.757 61.491 65.99 62.311 65.526 63.344 59.978 64.98 50 65.676L50 65.676ZM48 65.802C45.562 65.932 42.901 66.01 40 66.01 37.1 66.01 34.439 65.932 32 65.802L32 47.01 48 47.01 48 65.802ZM30 56.586C24.026 57.09 17.485 58.025 14.177 59.759 15.659 47.865 26.065 38.775 39 38.323L39 45.01 30 45.01 30 56.586ZM30 65.677C19.964 64.978 14.406 63.334 14.003 62.335 14.207 61.524 18.406 59.598 30 58.598L30 65.677ZM36 24.01C36 21.805 37.794 20.01 40 20.01 42.206 20.01 44 21.805 44 24.01 44 26.216 42.206 28.01 40 28.01 37.794 28.01 36 26.216 36 24.01L36 24.01ZM65.706 59.688C62.373 57.988 55.94 57.057 50 56.548L50 45.01 41 45.01 41 38.324C53.298 38.795 63.767 47.986 65.706 59.688L65.706 59.688ZM67.996 62.282 67.999 62.281C67.29 48.278 55.276 36.833 41 36.324L41 29.92C43.833 29.442 46 26.978 46 24.01 46 20.702 43.309 18.01 40 18.01 36.692 18.01 34 20.702 34 24.01 34 26.978 36.167 29.442 39 29.92L39 36.323C24.159 36.807 12.384 47.9 12 61.983L12.035 61.984C12.013 62.098 12 62.214 12 62.332 12 67.946 38.857 68.01 40 68.01 41.144 68.01 68 67.946 68 62.332 68 62.315 67.996 62.299 67.996 62.282L67.996 62.282Z" id="Fill-1" fill="#FFFFFF"/></g></svg>