<svg width="80" height="80" viewBox="0 0 80 80" xmlns="http://www.w3.org/2000/svg" xmlns:xlink="http://www.w3.org/1999/xlink" overflow="hidden"><g id="Icon-Architecture/64/Arch_AWS-Service-Management-Connector_64" stroke="none" stroke-width="1" fill="none" fill-rule="evenodd"><g id="Icon-Architecture-BG/64/Management-Governance" fill="#E7157B"><rect x="0" y="0" width="80" height="80" id="Rectangle"/></g><path d="M47 40.333 47 44 33 44 33 40.333C33 36.304 34.839 32 40 32 45.161 32 47 36.304 47 40.333M50.667 14.104 49.905 15.952C60.232 20.211 66.677 30.582 65.941 41.759 65.089 54.739 54.653 65.138 41.668 65.947 34.41 66.394 27.485 63.916 22.2 58.952 16.912 53.983 14 47.252 14 40 14 25.998 25.126 14.546 39 14.019L39 30.053C33.124 30.588 31 35.815 31 40.333L31 45C31 45.552 31.447 46 32 46L35 46 35 52 37 52 37 46 43 46 43 52 45 52 45 46 48 46C48.553 46 49 45.552 49 45L49 40.333C49 35.815 46.876 30.588 41 30.053L41 13C41 12.447 40.553 12 40 12 24.561 12 12 24.56 12 40 12 47.697 15.219 55.136 20.831 60.409 26.08 65.341 32.82 68 39.978 68 40.58 68 41.186 67.981 41.793 67.943 55.778 67.071 67.019 55.871 67.937 41.89 68.729 29.856 61.788 18.689 50.667 14.104" id="Fill-8" fill="#FFFFFF"/></g></svg>