<svg width="48" height="48" viewBox="0 0 48 48" xmlns="http://www.w3.org/2000/svg" xmlns:xlink="http://www.w3.org/1999/xlink" overflow="hidden"><g id="Icon-Resource/Front-End-Web-Mobile/Res_Amazon-Location-Service_Map-_48" stroke="none" stroke-width="1" fill="none" fill-rule="evenodd"><path d="M42.2059 24.7523 32.1979 22.2503 34.8669 4.4583 43.9999 8.6103 42.2059 24.7523ZM33.9949 41.1993 32.2189 24.3163 42.1529 26.8003 43.9299 43.6833 33.9949 41.1993ZM6.90594 24.1393 17.9839 25.8443 16.1899 43.7883 4.20994 41.2203 6.90594 24.1393ZM4.22094 4.3833 17.1159 7.7813 18.0069 23.8243 6.95094 22.1233 4.22094 4.3833ZM30.1919 22.1333 20.0109 23.8303 19.1179 7.7693 32.8619 4.3333 30.1919 22.1333ZM19.9929 25.8603 30.1909 24.1603 31.9829 41.1873 18.2019 43.7713 19.9929 25.8603ZM46.0679 8.1103C46.1159 7.6803 45.8819 7.2683 45.4879 7.0893L34.4879 2.0893C34.2819 1.9963 34.0499 1.9753 33.8319 2.0293L18.0809 5.9673 3.25494 2.0613C2.93094 1.9743 2.58094 2.0593 2.33094 2.2853 2.07994 2.5103 1.95994 2.8473 2.01194 3.1803L5.06194 22.9983 2.08694 41.8443C2.00394 42.3683 2.34594 42.8663 2.86394 42.9783L16.8639 45.9783C16.9929 46.0053 17.1259 46.0063 17.2589 45.9823L33.0439 43.0233 44.8319 45.9703C44.9119 45.9903 44.9929 46.0003 45.0739 46.0003 45.3119 46.0003 45.5459 45.9143 45.7299 45.7543 45.9769 45.5413 46.1019 45.2193 46.0679 44.8953L44.0799 26.0023 46.0679 8.1103Z" id="Fill-1" fill="#DD344C"/></g></svg>