<svg width="48" height="48" viewBox="0 0 48 48" xmlns="http://www.w3.org/2000/svg" xmlns:xlink="http://www.w3.org/1999/xlink" overflow="hidden"><g id="Icon-Resource/Containers/Res_Amazon-Elastic-Container-Service_Container-2_48" stroke="none" stroke-width="1" fill="none" fill-rule="evenodd"><path d="M18.863 29.233 29.102 29.233 29.102 18.994 18.863 18.994 18.863 29.233ZM17.737 31.014 17.737 32.857 19.737 32.857 19.737 31.234 21.234 31.234 21.234 32.857 23.234 32.857 23.234 31.234 24.731 31.234 24.731 32.857 26.731 32.857 26.731 31.234 28.228 31.234 28.228 32.857 30.228 32.857 30.228 31.014C30.502 30.861 30.728 30.635 30.882 30.36L32.725 30.36 32.725 28.36 31.102 28.36 31.102 26.863 32.725 26.863 32.725 24.863 31.102 24.863 31.102 23.365 32.725 23.365 32.725 21.365 31.102 21.365 31.102 19.868 32.725 19.868 32.725 17.868 30.882 17.868C30.729 17.594 30.502 17.367 30.228 17.214L30.228 15.371 28.228 15.371 28.228 16.994 26.731 16.994 26.731 15.371 24.731 15.371 24.731 16.994 23.234 16.994 23.234 15.371 21.234 15.371 21.234 16.994 19.737 16.994 19.737 15.371 17.737 15.371 17.737 17.214C17.461 17.367 17.236 17.594 17.082 17.868L15.24 17.868 15.24 19.868 16.863 19.868 16.863 21.365 15.24 21.365 15.24 23.365 16.863 23.365 16.863 24.863 15.24 24.863 15.24 26.863 16.863 26.863 16.863 28.36 15.24 28.36 15.24 30.36 17.082 30.36C17.236 30.635 17.461 30.861 17.737 31.014L17.737 31.014ZM39.593 33.731 41.593 33.731 41.593 14.498 39.593 14.498 39.593 33.731ZM34.347 33.731 36.347 33.731 36.347 14.498 34.347 14.498 34.347 33.731ZM11.616 33.731 13.616 33.731 13.616 14.498 11.616 14.498 11.616 33.731ZM6.371 33.731 8.371 33.731 8.371 14.498 6.371 14.498 6.371 33.731ZM4 36.228 43.964 36.228 43.964 12 4 12 4 36.228ZM44.964 10 3 10C2.448 10 2 10.447 2 11L2 37.228C2 37.78 2.448 38.228 3 38.228L44.964 38.228C45.517 38.228 45.964 37.78 45.964 37.228L45.964 11C45.964 10.447 45.517 10 44.964 10L44.964 10Z" id="Amazon-Elastic-Container-Service-Container-2_Resource-Icon_light-bg" fill="#ED7100"/></g></svg>