<svg width="48" height="48" viewBox="0 0 48 48" xmlns="http://www.w3.org/2000/svg" xmlns:xlink="http://www.w3.org/1999/xlink" overflow="hidden"><g id="Icon-Resource/Security-Identity-and-Compliance/Res_AWS-Certificate-Manager_Certificate-Authority_48" stroke="none" stroke-width="1" fill="none" fill-rule="evenodd"><path d="M29.0706 20.5469 23.2436 26.6649C23.0536 26.8629 22.7926 26.9759 22.5186 26.9759 22.2456 26.9759 21.9836 26.8629 21.7956 26.6649L18.8816 23.6069 20.3296 22.2279 22.5186 24.5259 27.6226 19.1679 29.0706 20.5469ZM20.6056 32.0939 20.6056 37.8489 23.3426 35.6099C23.7106 35.3089 24.2416 35.3089 24.6086 35.6099L27.3456 37.8489 27.3456 32.0939 29.3456 32.0939 29.3456 39.9589C29.3456 40.3459 29.1236 40.6969 28.7746 40.8619 28.6376 40.9279 28.4916 40.9589 28.3456 40.9589 28.1196 40.9589 27.8946 40.8819 27.7136 40.7339L23.9756 37.6759 20.2386 40.7339C19.9396 40.9769 19.5266 41.0289 19.1766 40.8619 18.8286 40.6969 18.6056 40.3459 18.6056 39.9589L18.6056 32.0939 20.6056 32.0939ZM23.9756 29.3459C20.1896 29.3459 17.1096 26.2659 17.1096 22.4799 17.1096 18.6939 20.1896 15.6139 23.9756 15.6139 27.7606 15.6139 30.8416 18.6939 30.8416 22.4799 30.8416 26.2659 27.7606 29.3459 23.9756 29.3459L23.9756 29.3459ZM32.8416 22.4799C32.8416 17.5909 28.8646 13.6139 23.9756 13.6139 19.0876 13.6139 15.1096 17.5909 15.1096 22.4799 15.1096 27.3679 19.0876 31.3459 23.9756 31.3459 28.8646 31.3459 32.8416 27.3679 32.8416 22.4799L32.8416 22.4799ZM4.0006 9.2439 43.9016 9.2439 43.9016 5.9999 4.0006 5.9999 4.0006 9.2439ZM45.9016 10.2419 45.9016 4.9999C45.9016 4.4469 45.4546 3.9999 44.9016 3.9999L3.0006 3.9999C2.4476 3.9999 2.0006 4.4469 2.0006 4.9999L2.0006 10.2439 2.0006 43.4549C2.0006 44.0079 2.4476 44.4549 3.0006 44.4549L31.8416 44.4549 31.8416 42.4549 4.0006 42.4549 4.0006 11.2439 43.9036 11.2439 43.9496 42.4549 40.5816 42.4549 40.5816 44.4549 44.9516 44.4549C45.2166 44.4549 45.4716 44.3499 45.6596 44.1619 45.8466 43.9739 45.9516 43.7189 45.9516 43.4529L45.9016 10.2419Z" id="AWS-Certificate-Manager_Certificate-authority_Resource-Icon_light-bg" fill="#DD344C"/></g></svg>