<svg width="48" height="48" viewBox="0 0 48 48" xmlns="http://www.w3.org/2000/svg" xmlns:xlink="http://www.w3.org/1999/xlink" overflow="hidden"><g id="Icon-Resource/Storage/Res_AWS-Backup_AWS-Backup-Support-for-VMware-Workloads_48" stroke="none" stroke-width="1" fill="none" fill-rule="evenodd"><path d="M23.9996 29.0335C23.9996 29.7705 23.5946 30.4085 22.9996 30.7555L22.9996 35.0335 20.9996 35.0335 20.9996 30.7555C20.4046 30.4085 19.9996 29.7705 19.9996 29.0335 19.9996 27.9305 20.8966 27.0335 21.9996 27.0335 23.1026 27.0335 23.9996 27.9305 23.9996 29.0335L23.9996 29.0335ZM12.9996 38.0335 30.9996 38.0335 30.9996 23.0335 12.9996 23.0335 12.9996 38.0335ZM36.9996 43.0335 6.9996 43.0335 6.9996 40.0335 12.7276 40.0335 31.2716 40.0335 36.9996 40.0335 36.9996 43.0335ZM26.9996 21.0335 16.9996 21.0335 16.9996 16.1685C16.9996 14.2635 17.9926 13.0335 19.5286 13.0335L24.4706 13.0335C26.0066 13.0335 26.9996 14.2635 26.9996 16.1685L26.9996 21.0335ZM10.6506 29.0045C7.1426 29.0015 4.1886 26.3675 3.9266 23.0085 3.9086 22.7855 3.8996 22.5555 3.8996 22.3175 3.8996 17.8395 6.9976 16.3445 8.8826 15.8495 9.3426 15.7565 9.6846 15.3495 9.6846 14.8675 9.6846 14.8195 9.6806 14.7715 9.6736 14.7245 9.6286 14.3305 9.6046 13.9315 9.6046 13.5385 9.6046 9.90247 12.1146 5.99147 15.3186 4.63447 20.8676 2.28447 24.8016 5.37447 26.2366 6.81247 27.4066 7.98747 28.3196 9.48847 28.9506 11.2745 29.0746 11.6235 29.3806 11.8755 29.7466 11.9305 30.1096 11.9825 30.4786 11.8325 30.6986 11.5355 31.5746 10.3485 33.0006 9.83247 34.3226 10.2195 35.9276 10.6885 36.9866 12.3265 37.1696 14.6115 37.1036 15.1385 37.4656 15.6275 37.9926 15.7175 39.7986 16.0285 43.9996 17.2985 43.9996 22.3835 43.9996 28.4325 38.1366 29.0155 37.9726 29.0335L32.9996 29.0285 32.9996 22.7615C32.9996 21.8085 32.2246 21.0335 31.2716 21.0335L28.9996 21.0335 28.9996 16.1685C28.9996 13.1455 27.1376 11.0335 24.4706 11.0335L19.5286 11.0335C16.8616 11.0335 14.9996 13.1455 14.9996 16.1685L14.9996 21.0335 12.7276 21.0335C11.7746 21.0335 10.9996 21.8085 10.9996 22.7615L10.9996 29.0045 10.6506 29.0045ZM38.0526 31.0305C40.8016 30.8065 45.9996 28.7125 45.9996 22.3835 45.9996 17.3615 42.5686 14.7585 39.1046 13.9085 38.7236 11.0435 37.1766 8.96947 34.8836 8.29947 33.2706 7.82747 31.5766 8.16947 30.2506 9.17047 29.5726 7.71747 28.7026 6.45347 27.6526 5.40047 24.0706 1.80747 19.1676 0.835469 14.5396 2.79247 10.5866 4.46747 7.6046 9.08647 7.6046 13.5385 7.6046 13.7405 7.6096 13.9425 7.6206 14.1455 5.4316 14.9075 1.8996 16.9675 1.8996 22.3175 1.8996 22.6095 1.9106 22.8915 1.9326 23.1645 2.2756 27.5565 6.1036 31.0005 10.6496 31.0045L10.9996 31.0045 10.9996 38.0335 5.9996 38.0335C5.4466 38.0335 4.9996 38.4815 4.9996 39.0335L4.9996 44.0335C4.9996 44.5855 5.4466 45.0335 5.9996 45.0335L37.9996 45.0335C38.5526 45.0335 38.9996 44.5855 38.9996 44.0335L38.9996 39.0335C38.9996 38.4815 38.5526 38.0335 37.9996 38.0335L32.9996 38.0335 32.9996 31.0275 38.0526 31.0305Z" id="Fill-1" fill="#7AA116"/></g></svg>