<svg width="48" height="48" viewBox="0 0 48 48" xmlns="http://www.w3.org/2000/svg" xmlns:xlink="http://www.w3.org/1999/xlink" overflow="hidden"><g id="Icon-Resource/Management-Governance/Res_AWS-Systems-Manager_Inventory_48" stroke="none" stroke-width="1" fill="none" fill-rule="evenodd"><path d="M23.945 2 2 14.54 2 46.041 45.89 46.041 45.89 14.54 23.945 2ZM4 15.7 23.945 4.302 43.89 15.7 43.89 44.041 4 44.041 4 15.7ZM7.237 42.55 40.654 42.55 40.654 16.114 7.237 16.114 7.237 42.55ZM9.236 40.551 38.653 40.551 38.653 18.115 9.236 18.115 9.236 40.551ZM17.709 25.097 23.199 25.097 23.199 19.605 17.709 19.605 17.709 25.097ZM19.709 23.096 21.199 23.096 21.199 21.605 19.709 21.605 19.709 23.096ZM10.728 25.097 16.218 25.097 16.218 19.605 10.728 19.605 10.728 25.097ZM12.727 23.096 14.217 23.096 14.217 21.605 12.727 21.605 12.727 23.096ZM24.69 32.078 30.181 32.078 30.181 26.586 24.69 26.586 24.69 32.078ZM26.691 30.077 28.181 30.077 28.181 28.587 26.691 28.587 26.691 30.077ZM17.709 32.078 23.199 32.078 23.199 26.586 17.709 26.586 17.709 32.078ZM19.709 30.077 21.199 30.077 21.199 28.587 19.709 28.587 19.709 30.077ZM10.728 32.078 16.218 32.078 16.218 26.586 10.728 26.586 10.728 32.078ZM12.727 30.077 14.217 30.077 14.217 28.587 12.727 28.587 12.727 30.077ZM31.672 39.059 37.164 39.059 37.164 33.567 31.672 33.567 31.672 39.059ZM33.672 37.059 35.163 37.059 35.163 35.568 33.672 35.568 33.672 37.059ZM24.69 39.059 30.181 39.059 30.181 33.567 24.69 33.567 24.69 39.059ZM26.691 37.059 28.181 37.059 28.181 35.568 26.691 35.568 26.691 37.059ZM17.709 39.059 23.199 39.059 23.199 33.567 17.709 33.567 17.709 39.059ZM19.709 37.059 21.199 37.059 21.199 35.568 19.709 35.568 19.709 37.059ZM10.728 39.059 16.218 39.059 16.218 33.567 10.728 33.567 10.728 39.059ZM12.727 37.059 14.217 37.059 14.217 35.568 12.727 35.568 12.727 37.059Z" id="AWS-System-Manager_inventory_Resource-Icon_light-bg" fill="#E7157B"/></g></svg>