<svg width="80" height="80" viewBox="0 0 80 80" xmlns="http://www.w3.org/2000/svg" xmlns:xlink="http://www.w3.org/1999/xlink" overflow="hidden"><g id="Icon-Architecture/64/Arch_Elastic-Fabric-Adapter_64" stroke="none" stroke-width="1" fill="none" fill-rule="evenodd"><g id="Icon-Architecture-BG/64/Compute" fill="#ED7100"><rect x="0" y="0" width="80" height="80" id="Rectangle"/></g><g id="Icon-Service/64/Elastic-Fabric-Adapter_64" fill="#FFFFFF" transform="translate(12 17)"><path d="M8.401 15.362 6.536 14.637C9.937 5.882 18.563 0 28 0 37.436 0 46.062 5.882 49.464 14.637L47.598 15.362C44.494 7.369 36.618 2 28 2 19.381 2 11.505 7.369 8.401 15.362L8.401 15.362ZM47.598 30.637 49.464 31.362C46.062 40.117 37.436 46 28 46 18.563 46 9.937 40.117 6.536 31.362L8.401 30.637C11.505 38.63 19.381 44 28 44 36.618 44 44.494 38.63 47.598 30.637L47.598 30.637ZM54 26.552C54 26.795 53.795 27 53.551 27L46.448 27C46.205 27 46 26.795 46 26.552L46 19.447C46 19.205 46.205 19 46.448 19L53.551 19C53.795 19 54 19.205 54 19.447L54 26.552ZM53.551 17 46.448 17C45.098 17 44 18.098 44 19.447L44 26.552C44 27.902 45.098 29 46.448 29L53.551 29C54.901 29 56 27.902 56 26.552L56 19.447C56 18.098 54.901 17 53.551 17L53.551 17ZM2 26.552 2 19.447C2 19.205 2.205 19 2.448 19L9.551 19C9.795 19 10 19.205 10 19.447L10 26.552C10 26.795 9.795 27 9.551 27L2.448 27C2.205 27 2 26.795 2 26.552L2 26.552ZM12 26.552 12 19.447C12 18.098 10.901 17 9.551 17L2.448 17C1.098 17 0 18.098 0 19.447L0 26.552C0 27.902 1.098 29 2.448 29L9.551 29C10.901 29 12 27.902 12 26.552L12 26.552ZM29 24 34 24 34 20 29 20 29 24ZM22 24 27 24 27 20 22 20 22 24ZM20 26 36 26 36 18 20 18 20 26ZM27 28 27 31 18 31 18 28 16 28 16 16 40 16 40 28 36 28 36 31 33 31 33 28 27 28ZM38 33 38 30 42 30 42 14 14 14 14 30 16 30 16 33 29 33 29 30 31 30 31 33 38 33Z" id="Fill-1"/></g></g></svg>