<svg width="80" height="80" viewBox="0 0 80 80" xmlns="http://www.w3.org/2000/svg" xmlns:xlink="http://www.w3.org/1999/xlink" overflow="hidden"><g id="Icon-Architecture/64/Arch_AWS-AppSync_64" stroke="none" stroke-width="1" fill="none" fill-rule="evenodd"><g id="Icon-Architecture-BG/64/Application-Integration" fill="#E7157B"><rect x="0" y="0" width="80" height="80" id="Rectangle"/></g><g id="Icon-Service/64/AWS-AppSync" fill="#FFFFFF" transform="translate(13 15)"><path d="M53.5203 12.9808 48.0137 11.5893C53.4777 21.1164 52.6105 33.5997 45.6261 41.602 40.8538 47.0708 33.7723 50 26.6521 50 22.5093 50 18.3535 49.0082 14.6309 46.9485L15.5833 45.1914C24.9117 50.3536 37.1887 48.2409 44.1394 40.2766 50.5985 32.8774 51.3636 21.2947 46.2396 12.4819L44.8104 18.2623 42.8876 17.7764 44.8698 9.76208C45.0026 9.22613 45.5398 8.89554 46.0711 9.03378L54 11.0374 53.5203 12.9808ZM7.75846 36.587 9.18963 30.7997 11.1124 31.2856 9.13017 39.2999C9.01817 39.7557 8.6138 40.0592 8.16978 40.0592 8.09049 40.0592 8.00921 40.0502 7.92893 40.0292L-3.55271e-15 38.0256 0.4797 36.0821 5.97742 37.4706C0.556016 28.1049 1.44108 16.5031 8.45918 8.46176 16.1165-0.310919 29.117-2.55894 39.3701 3.11621L38.4177 4.87335C28.9693-0.354998 16.9947 1.71069 9.94586 9.78713 3.47089 17.2064 2.68494 27.9426 7.75846 36.587L7.75846 36.587ZM18.3961 28.72C19.6628 28.72 20.6935 29.7618 20.6935 31.0431 20.6935 32.3234 19.6628 33.3653 18.3961 33.3653 17.1285 33.3653 16.0977 32.3234 16.0977 31.0431 16.0977 29.7618 17.1285 28.72 18.3961 28.72L18.3961 28.72ZM25.8642 19.8491C26.2279 19.9513 26.6045 20.0234 27 20.0234 27.3717 20.0234 27.7265 19.9603 28.0704 19.8691L31.7683 27.8534C31.1409 28.4284 30.685 29.1818 30.4818 30.0413L22.5479 30.0413C22.3487 29.1968 21.9057 28.4525 21.2951 27.8805L25.8642 19.8491ZM27 13.3745C28.2676 13.3745 29.2984 14.4164 29.2984 15.6967 29.2984 16.978 28.2676 18.0198 27 18.0198 25.7334 18.0198 24.7026 16.978 24.7026 15.6967 24.7026 14.4164 25.7334 13.3745 27 13.3745L27 13.3745ZM36.932 31.0431C36.932 32.3234 35.9012 33.3653 34.6336 33.3653 33.3669 33.3653 32.3362 32.3234 32.3362 31.0431 32.3362 29.7618 33.3669 28.72 34.6336 28.72 35.9012 28.72 36.932 29.7618 36.932 31.0431L36.932 31.0431ZM18.3961 35.3689C20.413 35.3689 22.0989 33.9463 22.5479 32.0449L30.4818 32.0449C30.9318 33.9463 32.6167 35.3689 34.6336 35.3689 36.9934 35.3689 38.9142 33.4284 38.9142 31.0431 38.9142 28.6569 36.9934 26.7164 34.6336 26.7164 34.2421 26.7164 33.8694 26.7875 33.5087 26.8877L29.8207 18.9255C30.7078 18.132 31.2806 16.986 31.2806 15.6967 31.2806 13.3114 29.3598 11.371 27 11.371 24.6402 11.371 22.7204 13.3114 22.7204 15.6967 22.7204 16.962 23.2694 18.09 24.1277 18.8814L19.5646 26.9017C19.191 26.7935 18.8045 26.7164 18.3961 26.7164 16.0363 26.7164 14.1155 28.6569 14.1155 31.0431 14.1155 33.4284 16.0363 35.3689 18.3961 35.3689L18.3961 35.3689Z" id="AWS-AppSync-Icon_64_Squid"/></g></g></svg>