<svg width="80" height="80" viewBox="0 0 80 80" xmlns="http://www.w3.org/2000/svg" xmlns:xlink="http://www.w3.org/1999/xlink" overflow="hidden"><g id="Icon-Architecture/64/Arch_AWS-HealthScribe_64" stroke="none" stroke-width="1" fill="none" fill-rule="evenodd"><g id="Icon-Architecture-BG/64/Machine-Learning" fill="#01A88D"><rect x="0" y="0" width="80" height="80" id="Rectangle"/></g><g id="Icon-Service/64/AWS-HealthScribe_64" fill="#FFFFFF" transform="translate(12.51 12)"><path d="M24.011 41.959C22.956 40.58 20.304 39.796 17.497 39.646L17.497 34.723 20.866 33.612C20.912 33.596 20.957 33.578 21 33.556 21.401 33.355 21.876 33.425 22.207 33.727 24.303 35.636 28.057 38.709 31.094 39.306 29.443 40.325 26.218 41.754 24.011 41.959L24.011 41.959ZM16.497 45C12.56 45 10.497 43.743 10.497 43.308 10.497 42.873 12.56 41.615 16.497 41.615 20.433 41.615 22.497 42.873 22.497 43.308 22.497 43.743 20.433 45 16.497 45L16.497 45ZM20.497 48.5C20.497 49.029 18.978 50 16.497 50 14.015 50 12.497 49.029 12.497 48.5 12.497 47.971 14.015 47 16.497 47 18.978 47 20.497 47.971 20.497 48.5L20.497 48.5ZM11.945 33.727C12.277 33.423 12.75 33.357 13.179 33.57L15.497 34.64 15.497 39.646C12.691 39.796 10.039 40.58 8.983 41.958 6.856 41.75 4.031 40.346 2.693 39.367 5.613 38.993 9.291 36.144 11.945 33.727L11.945 33.727ZM13.497 26C13.497 24.346 14.843 23 16.497 23 18.151 23 19.497 24.346 19.497 26 19.497 27.654 18.151 29 16.497 29 14.843 29 13.497 27.654 13.497 26L13.497 26ZM33.198 37.585C32.908 37.465 32.553 37.409 32.082 37.409 30.289 37.409 27.101 35.48 23.553 32.248 22.623 31.401 21.304 31.203 20.177 31.733L17.497 32.617 17.497 30.899C19.776 30.434 21.497 28.415 21.497 26 21.497 23.243 19.254 21 16.497 21 13.74 21 11.497 23.243 11.497 26 11.497 28.415 13.218 30.434 15.497 30.899L15.497 32.438 14.046 31.768C12.902 31.193 11.547 31.383 10.598 32.248 7.05 35.48 3.861 37.409 2.07 37.409 1.556 37.409 1.154 37.479 0.839 37.622 0.314 37.862-3.55271e-15 38.327-3.55271e-15 38.867-3.55271e-15 40.871 5.382 43.468 8.6 43.923 8.933 45.006 10.131 45.811 11.735 46.325 10.955 46.914 10.497 47.663 10.497 48.5 10.497 50.295 12.587 51.689 15.497 51.952L15.497 56 17.497 56 17.497 51.952C20.407 51.689 22.497 50.295 22.497 48.5 22.497 47.663 22.038 46.914 21.258 46.325 22.863 45.811 24.062 45.005 24.395 43.921 27.679 43.458 34.047 40.837 34.047 38.785 34.047 38.252 33.73 37.803 33.198 37.585L33.198 37.585ZM30.497 26 37.497 26 37.497 24 30.497 24 30.497 26ZM30.497 13 39.497 13 39.497 11 30.497 11 30.497 13ZM30.497 20 49.497 20 49.497 18 30.497 18 30.497 20ZM36.497 32 49.497 32 49.497 30 36.497 30 36.497 32ZM40.497 26 49.497 26 49.497 24 40.497 24 40.497 26ZM45.497 3.587 52.236 11 45.497 11 45.497 3.587ZM55.237 11.327 45.237 0.327C45.048 0.119 44.779 3.55271e-15 44.497 3.55271e-15L24.497 3.55271e-15C23.944 3.55271e-15 23.497 0.448 23.497 1L23.497 27 25.497 27 25.497 2 43.497 2 43.497 12C43.497 12.552 43.944 13 44.497 13L53.497 13 53.497 41 38.497 41 38.497 43 54.497 43C55.05 43 55.497 42.552 55.497 42L55.497 12C55.497 11.752 55.404 11.511 55.237 11.327L55.237 11.327Z" id="Fill-7"/></g></g></svg>