<svg width="48" height="48" viewBox="0 0 48 48" xmlns="http://www.w3.org/2000/svg" xmlns:xlink="http://www.w3.org/1999/xlink" overflow="hidden"><g id="Icon-Resource/Compute/Res_Amazon-EC2_Elastic-IP-Address_48" stroke="none" stroke-width="1" fill="none" fill-rule="evenodd"><path d="M43.62 24.058 43.62 23.794 43.742 23.926 43.62 24.058ZM10.926 30.852C7.106 30.852 4 27.746 4 23.926 4 20.107 7.106 17 10.926 17 14.745 17 17.851 20.107 17.851 23.926 17.851 27.746 14.745 30.852 10.926 30.852L10.926 30.852ZM45.839 23.246 39.398 16.31 37.933 17.671 42.813 22.926 19.792 22.926C19.293 18.474 15.51 15 10.926 15 6.004 15 2 19.004 2 23.926 2 28.848 6.004 32.852 10.926 32.852 15.51 32.852 19.293 29.378 19.792 24.926L42.813 24.926 37.933 30.181 39.398 31.542 45.839 24.607C46.195 24.223 46.195 23.629 45.839 23.246L45.839 23.246Z" id="Amazon-EC2-Elastic-IP-address_Resource-Icon_light-bg" fill="#ED7100"/></g></svg>