<svg width="48" height="48" viewBox="0 0 48 48" xmlns="http://www.w3.org/2000/svg" xmlns:xlink="http://www.w3.org/1999/xlink" overflow="hidden"><g id="Icon-Resource/Migration-and-Transfer/Res_AWS-Mainframe-Modernization_Converter_48" stroke="none" stroke-width="1" fill="none" fill-rule="evenodd"><path d="M22.997 13 26.997 13 26.997 9 22.997 9 22.997 13ZM24.997 35C23.894 35 22.997 35.897 22.997 37 22.997 38.103 23.894 39 24.997 39 26.099 39 26.997 38.103 26.997 37 26.997 35.897 26.099 35 24.997 35L24.997 35ZM25.997 15 25.997 33.142C27.717 33.589 28.997 35.142 28.997 37 28.997 39.206 27.203 41 24.997 41 22.791 41 20.997 39.206 20.997 37 20.997 35.142 22.276 33.589 23.997 33.142L23.997 15 20.997 15 20.997 7 28.997 7 28.997 15 25.997 15ZM20.997 20 20.997 18 14.16 18 5.198 11 14.16 4 33.952 4 42.914 11 33.952 18 27.997 18 27.997 20 34.641 20 46.162 11 34.641 2 13.471 2 1.95 11 13.471 20 20.997 20ZM34.641 28 46.162 37 34.641 46 13.471 46 1.95 37 13.471 28 20.997 28 20.997 30 14.16 30 5.198 37 14.16 44 33.952 44 42.914 37 33.952 30 27.997 30 27.997 28 34.641 28Z" id="Fill-1" fill="#01A88D"/></g></svg>