<svg width="48" height="48" viewBox="0 0 48 48" xmlns="http://www.w3.org/2000/svg" xmlns:xlink="http://www.w3.org/1999/xlink" overflow="hidden"><g id="Icon-Resource/Storage/Res_AWS-Backup_Backup-Restore_48" stroke="none" stroke-width="1" fill="none" fill-rule="evenodd"><path d="M15.969 30.9958 13.969 30.9958 13.969 33.9958C13.969 34.5478 14.416 34.9958 14.969 34.9958L25.969 34.9958 25.969 32.9958 15.969 32.9958 15.969 30.9958ZM37.969 33.2348 37.969 32.4738C36.463 32.9408 34.585 33.0128 33.587 33.0128 32.558 33.0128 30.519 32.9258 28.969 32.3828L28.97 33.2618C29.01 33.3478 29.508 33.8278 31.137 34.1048 31.527 34.1708 31.943 34.2198 32.377 34.2508 32.554 34.2648 32.733 34.2738 32.913 34.2798 33.279 34.2928 33.657 34.2928 34.021 34.2798 34.202 34.2738 34.38 34.2648 34.556 34.2508 34.992 34.2198 35.407 34.1708 35.798 34.1048 37.427 33.8278 37.925 33.3478 37.969 33.2348L37.969 33.2348ZM33.451 22.4518C31.033 22.4518 29.694 22.9688 29.183 23.3188 29.88 23.7138 31.441 24.0938 33.572 24.0938 35.721 24.0938 37.158 23.7188 37.848 23.3748 37.467 23.0728 36.094 22.4518 33.451 22.4518L33.451 22.4518ZM28.97 30.1838C29.327 30.4778 30.804 31.0118 33.59 31.0118 35.969 31.0118 37.377 30.6308 37.969 30.3348L37.968 28.9868C36.372 29.4948 34.383 29.5538 33.59 29.5538 32.775 29.5538 30.607 29.4908 28.969 28.9058L28.97 30.1838ZM28.969 25.3968 28.97 26.6838C29.317 26.9888 30.795 27.5528 33.592 27.5528 35.991 27.5528 37.388 27.1378 37.969 26.8398L37.968 25.4918C36.825 25.8778 35.307 26.0948 33.592 26.0948 31.758 26.0948 30.14 25.8398 28.969 25.3968L28.969 25.3968ZM39.969 23.4808 39.969 27.6878 39.974 27.6908C39.973 27.6938 39.97 27.6958 39.969 27.6978L39.969 31.1968 39.971 31.1978C39.97 31.1988 39.97 31.1998 39.969 31.2008L39.969 33.2608C39.969 34.0688 39.471 35.5098 36.135 36.0768 35.679 36.1538 35.197 36.2108 34.701 36.2468 34.503 36.2608 34.3 36.2718 34.093 36.2798 33.888 36.2868 33.68 36.2908 33.469 36.2908 33.258 36.2908 33.05 36.2868 32.844 36.2798 32.638 36.2718 32.434 36.2608 32.235 36.2468 31.74 36.2108 31.258 36.1538 30.803 36.0768 27.467 35.5098 26.969 34.0698 26.969 33.2608L26.969 23.4808C26.969 21.3888 30.234 20.4518 33.469 20.4518 36.704 20.4518 39.969 21.3888 39.969 23.4808L39.969 23.4808ZM32.969 14.9958 21.969 14.9958 21.969 16.9958 31.969 16.9958 31.969 18.9958 33.969 18.9958 33.969 15.9958C33.969 15.4438 33.522 14.9958 32.969 14.9958L32.969 14.9958ZM18.969 27.0758 18.969 26.2748C17.445 26.7758 15.494 26.8538 14.47 26.8538 13.466 26.8538 11.503 26.7698 9.969 26.2638L9.97 27.1028C10.01 27.1888 10.508 27.6688 12.137 27.9458 12.527 28.0118 12.943 28.0618 13.377 28.0928 13.554 28.1058 13.733 28.1148 13.913 28.1208 14.279 28.1338 14.657 28.1338 15.021 28.1208 15.202 28.1148 15.38 28.1058 15.556 28.0928 15.992 28.0618 16.407 28.0118 16.798 27.9458 18.427 27.6688 18.925 27.1888 18.969 27.0758L18.969 27.0758ZM14.451 16.2928C11.946 16.2928 10.594 16.8488 10.129 17.1978 10.858 17.5788 12.391 17.9348 14.454 17.9348 16.673 17.9348 18.138 17.5358 18.798 17.1828 18.366 16.8708 17.007 16.2928 14.451 16.2928L14.451 16.2928ZM18.968 19.2878C17.812 19.7018 16.252 19.9358 14.475 19.9358 12.7 19.9358 11.13 19.6968 9.969 19.2808L9.97 20.6138C10.478 20.9278 11.937 21.3928 14.475 21.3928 17.052 21.3928 18.475 20.9148 18.969 20.6168L18.968 19.2878ZM9.97 24.1078C10.482 24.4088 11.937 24.8528 14.473 24.8528 17.02 24.8528 18.46 24.4158 18.969 24.1148L18.968 22.7888C17.354 23.3328 15.285 23.3948 14.473 23.3948 13.677 23.3948 11.591 23.3368 9.969 22.7898L9.97 24.1078ZM20.969 17.3228 20.969 27.1018C20.969 27.9108 20.471 29.3508 17.135 29.9168 16.676 29.9958 16.194 30.0528 15.701 30.0878 15.503 30.1018 15.3 30.1138 15.093 30.1208 14.888 30.1278 14.68 30.1318 14.469 30.1318 14.258 30.1318 14.05 30.1278 13.844 30.1208 13.638 30.1138 13.434 30.1018 13.235 30.0878 12.743 30.0528 12.262 29.9958 11.803 29.9168 8.467 29.3518 7.969 27.9108 7.969 27.1018L7.969 17.3228C7.969 15.2298 11.234 14.2928 14.469 14.2928 17.704 14.2928 20.969 15.2298 20.969 17.3228L20.969 17.3228ZM37.68 41.0208C36.37 42.0898 34.92 42.9888 33.378 43.6838 30.297 45.0718 27.084 45.7408 23.94 45.7408 19.24 45.7408 14.684 44.2458 10.848 41.4008 5.274 37.2668 2.048 30.9228 2 23.9958L4.114 23.9818C4.157 30.2708 7.071 36.0298 12.105 39.7828 16.358 42.9518 21.589 44.2718 26.837 43.5098 33.404 42.5528 39.011 38.4658 41.989 32.2498 43.063 30.0068 43.684 27.5538 43.808 25.0698 44.152 18.1798 41.161 11.9118 35.837 7.94179 27.779 1.93579 16.626 2.99379 9.787 9.99579L11.969 9.99579 11.969 11.9958 7.974 11.9958C7.97 12.0008 7.966 12.0048 7.962 12.0098L7.944 11.9958 6.969 11.9958C6.416 11.9958 5.969 11.5478 5.969 10.9958L5.969 5.99579 7.969 5.99579 7.969 8.89179C16.6-0.261206 31.822-0.611206 40.798 9.73479 42.464 11.6558 43.772 13.8808 44.63 16.2748 47.855 25.2708 45.189 34.8938 37.68 41.0208L37.68 41.0208Z" id="Fill-1" fill="#7AA116"/></g></svg>