<svg width="80" height="80" viewBox="0 0 80 80" xmlns="http://www.w3.org/2000/svg" xmlns:xlink="http://www.w3.org/1999/xlink" overflow="hidden"><g id="Icon-Architecture/64/Arch_AWS-Snowball_64" stroke="none" stroke-width="1" fill="none" fill-rule="evenodd"><g id="Icon-Architecture-BG/64/Storage" fill="#7AA116"><rect x="0" y="0" width="80" height="80" id="Rectangle"/></g><path d="M36 24 44 24 44 22 36 22 36 24ZM26 47 55 47 55 35 26 35 26 47ZM56 33 25 33C24.447 33 24 33.448 24 34L24 48C24 48.552 24.447 49 25 49L56 49C56.553 49 57 48.552 57 48L57 34C57 33.448 56.553 33 56 33L56 33ZM66 55.847C66 58.137 64.238 60 62.072 60L17.928 60C15.762 60 14 58.137 14 55.847L14 24.153C14 21.863 15.762 20 17.928 20L62.072 20C64.238 20 66 21.863 66 24.153L66 55.847ZM62.072 18 17.928 18C14.659 18 12 20.76 12 24.153L12 55.847C12 59.24 14.659 62 17.928 62L62.072 62C65.341 62 68 59.24 68 55.847L68 24.153C68 20.76 65.341 18 62.072 18L62.072 18ZM62 53.52C62 54.336 61.329 55 60.505 55L19.495 55C18.671 55 18 54.336 18 53.52L18 25.48C18 24.664 18.671 24 19.495 24L30.219 24 31.03 27.243C31.142 27.687 31.541 28 32 28L48 28C48.459 28 48.858 27.687 48.97 27.243L49.781 24 60.505 24C61.329 24 62 24.664 62 25.48L62 53.52ZM60.505 22 49 22C48.541 22 48.142 22.312 48.03 22.757L47.219 26 32.781 26 31.97 22.757C31.858 22.312 31.459 22 31 22L19.495 22C17.568 22 16 23.562 16 25.48L16 53.52C16 55.438 17.568 57 19.495 57L60.505 57C62.432 57 64 55.438 64 53.52L64 25.48C64 23.562 62.432 22 60.505 22L60.505 22Z" id="Fill-1" fill="#FFFFFF"/></g></svg>