<svg width="80" height="80" viewBox="0 0 80 80" xmlns="http://www.w3.org/2000/svg" xmlns:xlink="http://www.w3.org/1999/xlink" overflow="hidden"><g id="Icon-Architecture/64/Arch_AWS-Thinkbox-XMesh_64" stroke="none" stroke-width="1" fill="none" fill-rule="evenodd"><g id="Icon-Architecture-BG/64/Compute" fill="#ED7100"><rect x="0" y="0" width="80" height="80" id="Rectangle"/></g><g id="Icon-Service/64/AWS-ThinkBox-XMesh_64" fill="#FFFFFF" transform="translate(15 12)"><path d="M38.75 29.158 33.834 32.036 42.507 37.138C42.812 37.318 43 37.645 43 38L43 44.277 48 41.42 48 34.573 38.75 29.158ZM25.505 35.186 41 44.256 41 38.572 31.352 32.896C31.046 32.716 30.858 32.387 30.858 32.033 30.858 31.678 31.047 31.35 31.354 31.171L47.003 22.011 42.007 19.156 8.507 38.862C8.351 38.954 8.176 39 8 39 7.829 39 7.657 38.956 7.504 38.868L2 35.723 2 41.42 7.994 44.845 24.495 35.186C24.806 35.003 25.194 35.003 25.505 35.186L25.505 35.186ZM11.25 26.841 16.166 23.963 7.493 18.862C7.188 18.682 7 18.354 7 18L7 11.723 2 14.58 2 21.427 11.25 26.841ZM24.5 20.817 9 11.744 9 17.428 18.507 23.02C18.654 23.107 18.777 23.231 18.864 23.379L18.937 23.503C19.214 23.979 19.054 24.591 18.577 24.869L2.997 33.989 7.993 36.844 41.493 17.138C41.802 16.956 42.186 16.954 42.496 17.132L48 20.277 48 14.58 42.006 11.155 25.556 20.784C25.246 20.987 24.837 21.015 24.5 20.817L24.5 20.817ZM49.505 22.863 40.729 28 49.505 33.137C49.812 33.316 50 33.645 50 34L50 42C50 42.359 49.808 42.69 49.496 42.868L42.496 46.868C42.343 46.956 42.171 47.0001 42 47.0001 41.825 47.0001 41.65 46.954 41.495 46.863L25 37.207 8.505 46.863C8.198 47.044 7.814 47.046 7.504 46.868L0.504 42.868C0.192 42.69 0 42.359 0 42L0 34C0 33.645 0.188 33.316 0.495 33.137L9.271 28 0.495 22.863C0.188 22.683 0 22.355 0 22L0 14C0 13.641 0.192 13.309 0.504 13.132L7.504 9.132C7.813 8.953 8.197 8.956 8.505 9.137L25 18.792 41.495 9.137C41.803 8.957 42.187 8.954 42.496 9.132L49.496 13.132C49.808 13.309 50 13.641 50 14L50 22C50 22.355 49.812 22.683 49.505 22.863L49.505 22.863ZM31 50.42 25 53.848 20.016 51 25.496 47.868C25.808 47.69 26 47.359 26 47L26 43 24 43 24 46.42 19 49.277 19 46 17 46 17 51C17 51.359 17.192 51.69 17.504 51.868L24.504 55.868C24.657 55.956 24.829 56 25 56 25.171 56 25.343 55.956 25.496 55.868L32.496 51.868C32.808 51.69 33 51.359 33 51L33 46 31 46 31 50.42ZM19 10 17 10 17 5C17 4.641 17.192 4.309 17.504 4.132L24.504 0.132C24.811-0.044 25.189-0.044 25.496 0.132L32.496 4.132C32.808 4.309 33 4.641 33 5L33 10 31 10 31 6.723 26 9.58 26 13 24 13 24 9C24 8.641 24.192 8.309 24.504 8.132L29.984 5 25 2.152 19 5.58 19 10Z" id="AWS-ThinkBox-Mesh_64_Squid"/></g></g></svg>