<svg width="80" height="80" viewBox="0 0 80 80" xmlns="http://www.w3.org/2000/svg" xmlns:xlink="http://www.w3.org/1999/xlink" overflow="hidden"><g id="Icon-Architecture/64/Arch_Amazon-DataZone_64" stroke="none" stroke-width="1" fill="none" fill-rule="evenodd"><g id="Icon-Architecture-BG/64/Analytics" fill="#8C4FFF"><rect x="0" y="0" width="80" height="80" id="Rectangle"/></g><path d="M32.7072 21.7073 31.2932 20.2932 39.2933 12.2933C39.6842 11.9023 40.3162 11.9023 40.7072 12.2933L48.7072 20.2932 47.2933 21.7073 40.0003 14.4143 32.7072 21.7073ZM67.7073 40.7072 59.7072 48.7072 58.2933 47.2933 65.5863 40.0003 58.2933 32.7072 59.7072 31.2932 67.7073 39.2933C68.0983 39.6842 68.0983 40.3162 67.7073 40.7072L67.7073 40.7072ZM47.2933 58.2933 48.7072 59.7072 40.7072 67.7073C40.5122 67.9023 40.2562 68.0003 40.0003 68.0003 39.7443 68.0003 39.4883 67.9023 39.2933 67.7073L31.2932 59.7072 32.7072 58.2933 40.0003 65.5863 47.2933 58.2933ZM21.7073 47.2933 20.2932 48.7072 12.2933 40.7072C11.9023 40.3162 11.9023 39.6842 12.2933 39.2933L20.2932 31.2932 21.7073 32.7072 14.4143 40.0003 21.7073 47.2933ZM53.5003 57.0003C51.5703 57.0003 50.0003 55.4302 50.0003 53.5003 50.0003 51.5703 51.5703 50.0003 53.5003 50.0003 55.4302 50.0003 57.0003 51.5703 57.0003 53.5003 57.0003 55.4302 55.4302 57.0003 53.5003 57.0003L53.5003 57.0003ZM48.6073 51.0003 31.3932 51.0003C30.8662 49.9733 30.0273 49.1343 29.0002 48.6073L29.0002 31.3932C30.0273 30.8662 30.8662 30.0273 31.3932 29.0002L48.6073 29.0002C49.1343 30.0273 49.9733 30.8662 51.0003 31.3932L51.0003 48.6073C49.9733 49.1343 49.1343 49.9733 48.6073 51.0003L48.6073 51.0003ZM26.5002 57.0003C24.5702 57.0003 23.0002 55.4302 23.0002 53.5003 23.0002 51.5703 24.5702 50.0003 26.5002 50.0003 28.4303 50.0003 30.0002 51.5703 30.0002 53.5003 30.0002 55.4302 28.4303 57.0003 26.5002 57.0003L26.5002 57.0003ZM23.0002 26.5002C23.0002 24.5702 24.5702 23.0002 26.5002 23.0002 28.4303 23.0002 30.0002 24.5702 30.0002 26.5002 30.0002 28.4303 28.4303 30.0002 26.5002 30.0002 24.5702 30.0002 23.0002 28.4303 23.0002 26.5002L23.0002 26.5002ZM53.5003 23.0002C55.4302 23.0002 57.0003 24.5702 57.0003 26.5002 57.0003 28.4303 55.4302 30.0002 53.5003 30.0002 51.5703 30.0002 50.0003 28.4303 50.0003 26.5002 50.0003 24.5702 51.5703 23.0002 53.5003 23.0002L53.5003 23.0002ZM53.5003 48.0003C53.3312 48.0003 53.1652 48.0103 53.0003 48.0252L53.0003 31.9753C53.1652 31.9902 53.3312 32.0003 53.5003 32.0003 56.5322 32.0003 59.0003 29.5333 59.0003 26.5002 59.0003 23.4673 56.5322 21.0002 53.5003 21.0002 50.4683 21.0002 48.0003 23.4673 48.0003 26.5002 48.0003 26.6693 48.0103 26.8353 48.0252 27.0002L31.9753 27.0002C31.9902 26.8353 32.0003 26.6693 32.0003 26.5002 32.0003 23.4673 29.5322 21.0002 26.5002 21.0002 23.4683 21.0002 21.0002 23.4673 21.0002 26.5002 21.0002 29.5333 23.4683 32.0003 26.5002 32.0003 26.6693 32.0003 26.8353 31.9902 27.0002 31.9753L27.0002 48.0252C26.8353 48.0103 26.6693 48.0003 26.5002 48.0003 23.4683 48.0003 21.0002 50.4673 21.0002 53.5003 21.0002 56.5332 23.4683 59.0003 26.5002 59.0003 29.5322 59.0003 32.0003 56.5332 32.0003 53.5003 32.0003 53.3312 31.9902 53.1652 31.9753 53.0003L48.0252 53.0003C48.0103 53.1652 48.0003 53.3312 48.0003 53.5003 48.0003 56.5332 50.4683 59.0003 53.5003 59.0003 56.5322 59.0003 59.0003 56.5332 59.0003 53.5003 59.0003 50.4673 56.5322 48.0003 53.5003 48.0003L53.5003 48.0003Z" id="Fill-5" fill="#FFFFFF"/></g></svg>