<svg width="48" height="48" viewBox="0 0 48 48" xmlns="http://www.w3.org/2000/svg" xmlns:xlink="http://www.w3.org/1999/xlink" overflow="hidden"><g id="Icon-Resource/Application-Integration/Res_Amazon-Simple-Notification-Service_Email-Notification_48" stroke="none" stroke-width="1" fill="none" fill-rule="evenodd"><path d="M28.194 17 28.194 11.109 27.251 11.109 25.355 14.722 23.451 11.109 22.482 11.109 22.482 17 23.281 17 23.281 12.359 24.947 15.495 25.738 15.495 27.395 12.367 27.395 17 28.194 17ZM30.633 14.781 32.614 14.781 31.62 11.892 30.633 14.781ZM30.413 15.436 29.885 17 28.993 17 31.169 11.109 32.104 11.109 34.28 17 33.379 17 32.835 15.436 30.413 15.436ZM21.378 11.807 21.378 11.109 17.714 11.109 17.714 17 21.378 17 21.378 16.303 18.581 16.303 18.581 14.314 20.926 14.314 20.926 13.617 18.581 13.617 18.581 11.807 21.378 11.807ZM35.113 17 35.98 17 35.98 11.109 35.113 11.109 35.113 17ZM37.442 11.109 37.442 17 41.089 17 41.089 16.286 38.309 16.286 38.309 11.109 37.442 11.109ZM4 8C4 10.206 5.794 12 8 12 10.206 12 12 10.206 12 8 12 5.794 10.206 4 8 4 5.794 4 4 5.794 4 8L4 8ZM2 8C2 4.691 4.691 2 8 2 11.308 2 14 4.691 14 8 14 11.309 11.308 14 8 14 4.691 14 2 11.309 2 8L2 8ZM44 41.5 46 41.5 46 39.5 44 39.5 44 41.5ZM45 35 43.5 35 43.5 37 44 37 44 37.5 46 37.5 46 36C46 35.447 45.552 35 45 35L45 35ZM31.5 37 34.5 37 34.5 35 31.5 35 31.5 37ZM25.5 37 28.5 37 28.5 35 25.5 35 25.5 37ZM37.5 37 40.5 37 40.5 35 37.5 35 37.5 37ZM13.5 37 16.5 37 16.5 35 13.5 35 13.5 37ZM19.5 37 22.5 37 22.5 35 19.5 35 19.5 37ZM7.5 37 10.5 37 10.5 35 7.5 35 7.5 37ZM2 36 2 37.5 4 37.5 4 37 4.5 37 4.5 35 3 35C2.447 35 2 35.447 2 36L2 36ZM2 41.5 4 41.5 4 39.5 2 39.5 2 41.5ZM4 43.5 2 43.5 2 45C2 45.553 2.447 46 3 46L4.5 46 4.5 44 4 44 4 43.5ZM37.5 46 40.5 46 40.5 44 37.5 44 37.5 46ZM25.5 46 28.5 46 28.5 44 25.5 44 25.5 46ZM13.5 46 16.5 46 16.5 44 13.5 44 13.5 46ZM7.5 46 10.5 46 10.5 44 7.5 44 7.5 46ZM31.5 46 34.5 46 34.5 44 31.5 44 31.5 46ZM19.5 46 22.5 46 22.5 44 19.5 44 19.5 46ZM44 44 43.5 44 43.5 46 45 46C45.552 46 46 45.553 46 45L46 43.5 44 43.5 44 44ZM44 28.5 46 28.5 46 26.5 44 26.5 44 28.5ZM45 22 43.5 22 43.5 24 44 24 44 24.5 46 24.5 46 23C46 22.447 45.552 22 45 22L45 22ZM31.5 24 34.5 24 34.5 22 31.5 22 31.5 24ZM19.5 24 22.5 24 22.5 22 19.5 22 19.5 24ZM7.5 24 10.5 24 10.5 22 7.5 22 7.5 24ZM25.5 24 28.5 24 28.5 22 25.5 22 25.5 24ZM13.5 24 16.5 24 16.5 22 13.5 22 13.5 24ZM37.5 24 40.5 24 40.5 22 37.5 22 37.5 24ZM2 23 2 24.5 4 24.5 4 24 4.5 24 4.5 22 3 22C2.447 22 2 22.447 2 23L2 23ZM2 28.5 4 28.5 4 26.5 2 26.5 2 28.5ZM4 30.5 2 30.5 2 32C2 32.553 2.447 33 3 33L4.5 33 4.5 31 4 31 4 30.5ZM7.5 33 10.5 33 10.5 31 7.5 31 7.5 33ZM19.5 33 22.5 33 22.5 31 19.5 31 19.5 33ZM13.5 33 16.5 33 16.5 31 13.5 31 13.5 33ZM37.5 33 40.5 33 40.5 31 37.5 31 37.5 33ZM31.5 33 34.5 33 34.5 31 31.5 31 31.5 33ZM25.5 33 28.5 33 28.5 31 25.5 31 25.5 33ZM44 31 43.5 31 43.5 33 45 33C45.552 33 46 32.553 46 32L46 30.5 44 30.5 44 31ZM46 9 46 19C46 19.553 45.552 20 45 20L3 20C2.447 20 2 19.553 2 19L2 15 4 15 4 18 44 18 44 10 16 10 16 8 45 8C45.552 8 46 8.447 46 9L46 9Z" id="Amazon-Simple-Notification-Service_Email-notification_Resource-Icon_light-bg" fill="#E7157B"/></g></svg>