<svg width="90" height="90" viewBox="0 0 90 90" xmlns="http://www.w3.org/2000/svg" xmlns:xlink="http://www.w3.org/1999/xlink" overflow="hidden"><g id="Icon-Architecture-Category/64/Front-End-Web-Mobile_64" stroke="none" stroke-width="1" fill="none" fill-rule="evenodd"><rect x="5" y="5" width="80" height="80" id="Rectangle" fill="#DD344C"/><rect x="1" y="1" width="88" height="88" id="#879196-Border-Copy-17" stroke="#879196" stroke-width="2"/><g id="Icon-Category/64/Mobile_64" fill="#FFFFFF" transform="translate(17 17)"><path d="M40 51 47 51 47 49 40 49 40 51ZM33 54 54.001 54 54.001 46 33 46 33 54ZM33 16 33 44 54.001 44 54 16 33 16ZM56 16 56 54C56 55.103 55.103 56 54 56L33 56C31.897 56 31 55.103 31 54L31 16C31 14.897 31.897 14 33 14L54 14C55.103 14 56 14.897 56 16L56 16ZM8 8 32 8 32 12 34 12 34 7C34 6.448 33.553 6 33 6L7 6C6.447 6 6 6.448 6 7L6 45C6 45.552 6.447 46 7 46L29 46 29 44 8 44 8 8ZM3.814 50 29 50 29 52 3.814 52C1.711 52 0 50.269 0 48.141L0 3.859C0 1.731 1.711 0 3.814 0L36.186 0C38.289 0 40 1.731 40 3.859L40 12 38 12 38 3.859C38 2.834 37.187 2 36.186 2L3.814 2C2.813 2 2 2.834 2 3.859L2 48.141C2 49.166 2.813 50 3.814 50L3.814 50Z" id="Fill-4"/></g></g></svg>