<svg width="48" height="48" viewBox="0 0 48 48" xmlns="http://www.w3.org/2000/svg" xmlns:xlink="http://www.w3.org/1999/xlink" overflow="hidden"><g id="Icon-Resource/Containers/Res_Amazon-Elastic-Container-Service_CopiIoT-CLI_48" stroke="none" stroke-width="1" fill="none" fill-rule="evenodd"><path d="M21.53 28.0406 9.673 17.2606 8.327 18.7406 18.469 27.9606 8.367 36.2266 9.633 37.7746 21.53 28.0406ZM19 37.0006 35 37.0006 35 35.0006 19 35.0006 19 37.0006ZM38 18.0006C38 17.6376 37.802 17.3026 37.485 17.1266L29 12.4126 29 5.66164 44 13.6026 44 31.1966 38 27.4466 38 18.0006ZM45.484 33.8746C45.802 33.6986 46 33.3646 46 33.0006L46 13.0006C46 12.6296 45.795 12.2906 45.467 12.1166L28.467 3.11664C28.157 2.95164 27.783 2.96264 27.484 3.14364 27.183 3.32464 27 3.64964 27 4.00064L27 13.0006C27 13.3636 27.197 13.6986 27.514 13.8746L36 18.5886 36 28.0006C36 28.3456 36.177 28.6656 36.469 28.8486L44.469 33.8486C44.632 33.9496 44.815 34.0006 45 34.0006 45.167 34.0006 45.334 33.9586 45.484 33.8746L45.484 33.8746ZM14.023 6.00064 23 6.00064 23 4.00064 14.023 4.00064 14.023 6.00064ZM44 44.0006 4 44.0006C2.912 43.9916 2 43.0756 2 42.0006L2 6.00064C2 4.91664 2.916 4.00064 4 4.00064L10 4.00064 10 6.00064 4 6.00064 4 42.0006 44 42.0006 44 38.0006 46 38.0006 46 42.0006C46 43.0846 45.084 44.0006 44 44.0006L44 44.0006Z" id="Fill-1" fill="#ED7100"/></g></svg>