<svg width="48" height="48" viewBox="0 0 48 48" xmlns="http://www.w3.org/2000/svg" xmlns:xlink="http://www.w3.org/1999/xlink" overflow="hidden"><g id="Icon-Resource/Database/Res_Amazon-Aurora_Amazon-RDS-Instance_48" stroke="none" stroke-width="1" fill="none" fill-rule="evenodd"><path d="M21.2395 25.3828C20.9905 25.3828 20.6895 25.3468 20.3375 25.2758 19.9865 25.2028 19.6705 25.1138 19.3905 25.0088L19.3905 26.1988C19.6325 26.3358 19.9305 26.4448 20.2865 26.5288 20.6415 26.6118 20.9975 26.6538 21.3525 26.6538 22.1705 26.6538 22.8105 26.4438 23.2755 26.0238 23.7415 25.6048 23.9735 25.0348 23.9735 24.3168 23.9735 23.9458 23.9185 23.6298 23.8095 23.3688 23.6995 23.1088 23.5295 22.8718 23.2995 22.6598 23.0675 22.4478 22.7565 22.2368 22.3625 22.0248L21.7505 21.6948C21.4175 21.5148 21.1925 21.3478 21.0745 21.1958 20.9585 21.0448 20.8985 20.8518 20.8985 20.6168 20.8985 20.3378 20.9905 20.1178 21.1725 19.9598 21.3525 19.8008 21.6025 19.7208 21.9205 19.7208 22.3885 19.7208 22.9295 19.8338 23.5435 20.0618L23.5435 18.8598C22.9535 18.5868 22.3585 18.4498 21.7615 18.4498 21.2855 18.4498 20.8635 18.5428 20.4965 18.7288 20.1295 18.9138 19.8405 19.1788 19.6285 19.5228 19.4175 19.8668 19.3105 20.2698 19.3105 20.7308 19.3105 21.2308 19.4305 21.6538 19.6735 22.0018 19.9155 22.3498 20.3165 22.6748 20.8775 22.9778L21.4885 23.3068C21.7995 23.4728 22.0205 23.6378 22.1525 23.7998 22.2845 23.9628 22.3505 24.1608 22.3505 24.3958 22.3505 24.7138 22.2575 24.9568 22.0675 25.1268 21.8785 25.2978 21.6025 25.3828 21.2395 25.3828L21.2395 25.3828ZM16.7695 22.4328C16.7695 21.5408 16.6505 20.8848 16.4115 20.4638 16.1745 20.0448 15.8015 19.8338 15.2945 19.8338L14.6355 19.8338 14.6355 25.2698 15.3045 25.2698C15.7975 25.2698 16.1635 25.0558 16.4065 24.6288 16.6475 24.1998 16.7695 23.5438 16.7695 22.6598L16.7695 22.4328ZM17.6425 19.6188C18.1495 20.2848 18.4025 21.2598 18.4025 22.5458 18.4025 23.8398 18.1535 24.8198 17.6545 25.4858 17.1545 26.1508 16.4285 26.4838 15.4755 26.4838L13.0485 26.4838 13.0485 18.6208 15.4195 18.6208C16.3945 18.6208 17.1355 18.9538 17.6425 19.6188L17.6425 19.6188ZM10.2005 21.0938C10.2005 20.6708 10.1225 20.3498 9.9685 20.1298 9.8125 19.9098 9.5875 19.8008 9.2925 19.8008L8.5545 19.8008 8.5545 22.3878 9.2925 22.3878C9.5875 22.3878 9.8125 22.2788 9.9685 22.0588 10.1225 21.8388 10.2005 21.5178 10.2005 21.0938L10.2005 21.0938ZM10.5865 23.3298 12.1745 26.4838 10.5415 26.4838 9.1685 23.5678 8.5545 23.5678 8.5545 26.4838 7.0015 26.4838 7.0015 18.6208 9.4855 18.6208C10.1815 18.6208 10.7355 18.8418 11.1475 19.2848 11.5595 19.7268 11.7655 20.3298 11.7655 21.0938 11.7655 21.6228 11.6635 22.0808 11.4605 22.4668 11.2555 22.8528 10.9645 23.1408 10.5865 23.3298L10.5865 23.3298ZM41.5935 15.1378 41.5935 10.8828C41.5935 10.3308 41.4775 9.9108 41.2475 9.6228 41.0155 9.3358 40.6805 9.1928 40.2435 9.1928 39.6905 9.1928 39.1125 9.4158 38.5075 9.8618L38.3825 9.3398 37.1115 9.3398 37.1115 15.1378 38.6655 15.1378 38.6655 10.6448C38.9455 10.4628 39.2025 10.3718 39.4365 10.3718 39.6565 10.3718 39.8115 10.4478 39.9025 10.5988 39.9935 10.7508 40.0385 10.9928 40.0385 11.3248L40.0385 15.1378 41.5935 15.1378ZM34.4685 12.2448C34.4685 11.6018 34.4055 11.1288 34.2805 10.8258 34.1565 10.5238 33.9535 10.3718 33.6745 10.3718 33.3945 10.3718 33.1915 10.5238 33.0665 10.8258 32.9425 11.1288 32.8795 11.6018 32.8795 12.2448 32.8795 12.8878 32.9425 13.3588 33.0665 13.6568 33.1915 13.9558 33.3945 14.1058 33.6745 14.1058 33.9535 14.1058 34.1565 13.9558 34.2805 13.6568 34.4055 13.3588 34.4685 12.8878 34.4685 12.2448L34.4685 12.2448ZM35.4105 9.9868C35.8185 10.5158 36.0225 11.2688 36.0225 12.2448 36.0225 13.2128 35.8185 13.9608 35.4105 14.4898 35.0025 15.0208 34.4235 15.2848 33.6745 15.2848 32.9265 15.2848 32.3465 15.0208 31.9375 14.4898 31.5295 13.9608 31.3255 13.2128 31.3255 12.2448 31.3255 11.2688 31.5295 10.5158 31.9375 9.9868 32.3465 9.4568 32.9265 9.1928 33.6745 9.1928 34.4235 9.1928 35.0025 9.4568 35.4105 9.9868L35.4105 9.9868ZM26.5945 15.1378 30.6225 15.1378 30.6225 13.9458 28.2285 13.9458 30.5765 10.4408 30.5765 9.3398 26.6845 9.3398 26.6845 10.5308 28.9425 10.5308 26.5945 14.0368 26.5945 15.1378ZM24.2335 13.8328 24.2335 12.7208C24.0675 12.6678 23.8715 12.6418 23.6435 12.6418 23.4255 12.6418 23.2565 12.7118 23.1395 12.8518 23.0215 12.9908 22.9635 13.1948 22.9635 13.4578 22.9635 13.6858 23.0105 13.8648 23.1055 13.9968 23.2005 14.1298 23.3265 14.1948 23.4855 14.1948 23.7355 14.1948 23.9845 14.0738 24.2335 13.8328L24.2335 13.8328ZM23.7695 15.0988C23.5265 15.2228 23.2815 15.2848 23.0315 15.2848 22.5625 15.2848 22.1915 15.1328 21.9205 14.8248 21.6475 14.5198 21.5105 14.0978 21.5105 13.5608 21.5105 12.9928 21.6775 12.5448 22.0105 12.2158 22.3435 11.8868 22.7935 11.7228 23.3605 11.7228 23.5945 11.7228 23.8855 11.7688 24.2335 11.8588L24.2335 11.3368C24.2335 10.9438 24.1825 10.6768 24.0815 10.5368 23.9785 10.3978 23.7885 10.3268 23.5085 10.3268 23.0535 10.3268 22.4985 10.4478 21.8415 10.6898L21.8415 9.6568C22.0595 9.5138 22.3465 9.4008 22.7025 9.3178 23.0575 9.2348 23.4215 9.1928 23.7915 9.1928 24.4495 9.1928 24.9265 9.3418 25.2215 9.6408 25.5165 9.9398 25.6645 10.4178 25.6645 11.0758L25.6645 15.1378 24.4615 15.1378 24.3255 14.6158C24.1965 14.8128 24.0105 14.9728 23.7695 15.0988L23.7695 15.0988ZM20.4105 15.1378 20.4105 10.8828C20.4105 10.3378 20.2975 9.9208 20.0705 9.6288 19.8435 9.3378 19.5175 9.1928 19.0945 9.1928 18.5655 9.1928 17.9905 9.4228 17.3705 9.8848 17.1505 9.4228 16.7725 9.1928 16.2365 9.1928 15.7065 9.1928 15.1385 9.4158 14.5345 9.8618L14.4085 9.3398 13.1375 9.3398 13.1375 15.1378 14.6925 15.1378 14.6925 10.6448C14.9715 10.4628 15.2185 10.3718 15.4295 10.3718 15.6345 10.3718 15.7805 10.4478 15.8675 10.5988 15.9545 10.7508 15.9975 10.9888 15.9975 11.3148L15.9975 15.1378 17.5515 15.1378 17.5515 10.9048 17.5515 10.7698C17.5515 10.7238 17.5485 10.6828 17.5405 10.6448 17.8205 10.4628 18.0705 10.3718 18.2895 10.3718 18.4935 10.3718 18.6385 10.4478 18.7265 10.5988 18.8125 10.7508 18.8565 10.9888 18.8565 11.3148L18.8565 15.1378 20.4105 15.1378ZM10.0085 12.1318 9.2925 8.8748 8.6005 12.1318 10.0085 12.1318ZM12.4015 15.1378 10.6545 15.1378 10.2455 13.2658 8.3625 13.2658 7.9655 15.1378 6.2975 15.1378 8.4755 7.2758 10.2345 7.2758 12.4015 15.1378ZM44.0025 30.0058 44.0025 26.4708C42.2715 27.4138 39.6485 27.9028 37.0365 27.9028 34.4245 27.9028 31.8015 27.4138 30.0715 26.4708L30.0715 30.0058C30.0715 30.6348 32.4405 32.1098 37.0365 32.1098 41.6325 32.1098 44.0025 30.6348 44.0025 30.0058L44.0025 30.0058ZM44.0025 36.1038 44.0025 32.6778C42.2715 33.6208 39.6485 34.1098 37.0365 34.1098 34.4245 34.1098 31.8015 33.6208 30.0715 32.6778L30.0715 36.1038C30.0715 36.7328 32.4405 38.2068 37.0365 38.2068 41.6325 38.2068 44.0025 36.7328 44.0025 36.1038L44.0025 36.1038ZM44.0025 41.5478 44.0025 38.7758C42.2715 39.7188 39.6485 40.2068 37.0365 40.2068 34.4245 40.2068 31.8015 39.7188 30.0715 38.7758L30.0715 41.5478C30.0715 42.1768 32.4405 43.6518 37.0365 43.6518 41.6325 43.6518 44.0025 42.1768 44.0025 41.5478L44.0025 41.5478ZM30.0715 23.7988C30.0715 24.4278 32.4405 25.9028 37.0365 25.9028 41.6325 25.9028 44.0025 24.4278 44.0025 23.7988 44.0025 23.1698 41.6325 21.6948 37.0365 21.6948 32.4405 21.6948 30.0715 23.1698 30.0715 23.7988L30.0715 23.7988ZM46.0025 23.7988 46.0025 41.5478C46.0025 44.2418 41.4915 45.6518 37.0365 45.6518 32.5815 45.6518 28.0715 44.2418 28.0715 41.5478L28.0715 23.7988C28.0715 21.1048 32.5815 19.6958 37.0365 19.6958 41.4915 19.6958 46.0025 21.1048 46.0025 23.7988L46.0025 23.7988ZM7.7545 43.8918 27.4365 43.8918 27.4365 45.8918 7.7545 45.8918C4.5815 45.8918 2.0005 43.3108 2.0005 40.1378L2.0005 7.7548C2.0005 4.5818 4.5815 1.9998 7.7545 1.9998L40.1365 1.9998C43.3095 1.9998 45.8915 4.5818 45.8915 7.7548L45.8915 20.4548 43.8915 20.4548 43.8915 7.7548C43.8915 5.6848 42.2075 3.9998 40.1365 3.9998L7.7545 3.9998C5.6835 3.9998 4.0005 5.6848 4.0005 7.7548L4.0005 40.1378C4.0005 42.2078 5.6835 43.8918 7.7545 43.8918L7.7545 43.8918Z" id="Amazon-DATABASEAmazon-Aurora-Amazon-RDS-instance_Res_48" fill="#C925D1"/></g></svg>