<svg width="80" height="80" viewBox="0 0 80 80" xmlns="http://www.w3.org/2000/svg" xmlns:xlink="http://www.w3.org/1999/xlink" overflow="hidden"><g id="Icon-Architecture/64/Arch_AWS-Ground-Station_64" stroke="none" stroke-width="1" fill="none" fill-rule="evenodd"><g id="Icon-Architecture-BG/64/Satellite" fill="#C925D1"><rect x="0" y="0" width="80" height="80" id="Rectangle"/></g><path d="M33.9532 64.9861 37.961 64.9861 37.961 44.8466 33.9532 44.8466 33.9532 64.9861ZM21.1131 32.7629 27.7591 32.7629C27.6178 36.2007 28.6348 39.0434 29.743 41.0805 24.5929 38.2328 21.6943 35.4455 21.1131 32.7629L21.1131 32.7629ZM35.2738 28.735 36.4451 28.735 37.5111 30.7489 34.1225 30.7489 35.2738 28.735ZM35.9571 23.7142 36.944 24.7071 35.9571 25.7 34.9702 24.7071 35.9571 23.7142ZM42.577 40.7492C43.7092 38.7373 44.7022 36.0154 44.587 32.7629L49.716 32.7629C49.1138 36.0134 45.7091 38.8108 42.577 40.7492L42.577 40.7492ZM36.9591 32.7629 42.579 32.7629C42.7834 38.0475 39.507 41.8458 38.5532 42.8326L36.9591 42.8326 36.9591 32.7629ZM33.3861 42.8326C32.4803 41.8126 29.5245 38.0485 29.768 32.7629L34.9552 32.7629 34.9552 42.8326 33.3861 42.8326ZM51.8141 31.7559C51.8141 31.2001 51.3662 30.7489 50.8121 30.7489L39.7806 30.7489 37.932 27.2547C37.8518 27.1057 37.7356 26.9869 37.6003 26.8952L38.6694 25.8218C38.8568 25.6325 38.963 25.3767 38.963 25.1099L38.963 24.3043C38.963 24.0374 38.8568 23.7817 38.6694 23.5924L37.0663 21.9812C36.8789 21.7919 36.6244 21.6862 36.3579 21.6862L35.5553 21.6862C35.2898 21.6862 35.0353 21.7919 34.8469 21.9812L33.2448 23.5924C33.0564 23.7817 32.9512 24.0374 32.9512 24.3043L32.9512 25.1099C32.9512 25.3767 33.0564 25.6325 33.2448 25.8218L34.2498 26.8318C34.0764 26.9194 33.9261 27.0513 33.8249 27.2265L31.811 30.7489 20.002 30.7489C19.4479 30.7489 19 31.2001 19 31.7559 19 36.1332 23.2453 40.2961 31.9493 44.472L31.9493 65.993C31.9493 66.5489 32.3972 67 32.9512 67L38.963 67C39.5171 67 39.9649 66.5489 39.9649 65.993L39.9649 44.473C44.6451 42.1992 51.8141 37.7414 51.8141 31.7559L51.8141 31.7559ZM42.8816 23.5914 41.0871 24.4876C40.0802 22.4525 38.0512 21.1877 35.7918 21.1877 33.5314 21.1877 31.5024 22.4525 30.4964 24.4876L28.7019 23.5914C30.0476 20.8665 32.7649 19.1738 35.7918 19.1738 38.8167 19.1738 41.534 20.8665 42.8816 23.5914L42.8816 23.5914ZM43.8335 23.104C42.3015 20.0176 39.2205 18.1003 35.7918 18.1003 32.3561 18.1003 29.2721 20.0236 27.7421 23.1181L25.9476 22.2229C27.8182 18.4377 31.5896 16.0864 35.7918 16.0864 39.985 16.0864 43.7533 18.4306 45.626 22.2048L43.8335 23.104ZM24.9907 21.7446 23.1962 20.8474C25.5899 16.0068 30.4173 13 35.7918 13 41.1492 13 45.9697 15.9937 48.3703 20.8131L46.5768 21.7144C44.5198 17.5807 40.3868 15.0139 35.7918 15.0139 31.1828 15.0139 27.0437 17.5928 24.9907 21.7446L24.9907 21.7446ZM52.2118 46.1949C52.9232 44.7801 53.4903 42.9665 53.4362 40.8187L58.7947 40.8187C57.9941 42.8588 54.9512 44.771 52.2118 46.1949L52.2118 46.1949ZM44.9747 64.9861 47.9806 64.9861 47.9806 49.8814 44.9747 49.8814 44.9747 64.9861ZM61 39.8117C61 39.2558 60.5521 38.8047 59.998 38.8047L49.9845 38.8047 49.9845 40.8187 51.4303 40.8187C51.5435 44.5757 49.3462 47.1072 48.5848 47.8675L44.9747 47.8675 44.9747 44.8466 42.9708 44.8466 42.9708 65.993C42.9708 66.5489 43.4187 67 43.9728 67L48.9825 67C49.5366 67 49.9845 66.5489 49.9845 65.993L49.9845 49.5169C54.1236 47.5865 61 44.3652 61 39.8117L61 39.8117Z" id="AWS-Ground-Station_Icon_64_Squid" fill="#FFFFFF"/></g></svg>