<svg width="48" height="48" viewBox="0 0 48 48" xmlns="http://www.w3.org/2000/svg" xmlns:xlink="http://www.w3.org/1999/xlink" overflow="hidden"><g id="Icon-Resource/Migration-and-Transfer/Res_AWS-Application-Discovery-Service_AWS-Agentless-Collector_48" stroke="none" stroke-width="1" fill="none" fill-rule="evenodd"><path d="M33 26.9986C33 23.6886 30.309 20.9956 27 20.9956 23.691 20.9956 21 23.6886 21 26.9986 21 30.3086 23.691 33.0006 27 33.0006 30.309 33.0006 33 30.3086 33 26.9986L33 26.9986ZM35 26.9986C35 31.4116 31.411 35.0006 27 35.0006 22.589 35.0006 19 31.4116 19 26.9986 19 22.5856 22.589 18.9956 27 18.9956 31.411 18.9956 35 22.5856 35 26.9986L35 26.9986ZM43.548 41.1446 36.64 34.1066C35.966 35.0206 35.168 35.8336 34.267 36.5236L41.215 43.5446C41.814 44.1536 42.872 44.1286 43.496 43.4946 44.147 42.8336 44.171 41.7796 43.548 41.1446L43.548 41.1446ZM27 37.0006C32.509 37.0006 36.99 32.5156 36.99 27.0006 36.99 21.4866 32.509 17.0006 27 17.0006 21.491 17.0006 17.009 21.4866 17.009 27.0006 17.009 32.5156 21.491 37.0006 27 37.0006L27 37.0006ZM44.976 39.7436C46.357 41.1526 46.333 43.4646 44.92 44.8986 44.22 45.6096 43.292 46.0006 42.31 46.0006 41.354 46.0006 40.46 45.6276 39.792 44.9506L32.547 37.6296C30.887 38.5016 29.002 39.0006 27 39.0006 20.388 39.0006 15.009 33.6176 15.009 27.0006 15.009 20.3846 20.388 15.0006 27 15.0006 33.611 15.0006 38.99 20.3846 38.99 27.0006 38.99 28.9236 38.525 30.7356 37.718 32.3486L44.976 39.7436ZM29 13.9996 42 13.9996 42 11.9996 29 11.9996 29 13.9996ZM29 8.9996 42 8.9996 42 6.9996 29 6.9996 29 8.9996ZM44.472 1.9996 26.529 1.9996C25.687 1.9996 25 2.6866 25 3.5286L25 12.9996 27 12.9996 27 3.9996 44 3.9996 43.997 36.9996 44 36.9996C45.104 36.9986 46 36.1006 46 34.9966L46 3.5276C46 2.6856 45.314 1.9996 44.472 1.9996L44.472 1.9996ZM6 13.9996 19 13.9996 19 11.9996 6 11.9996 6 13.9996ZM6 8.9996 19 8.9996 19 6.9996 6 6.9996 6 8.9996ZM4 36.9996 18 36.9996 18 38.9996 3.529 38.9996C2.687 38.9996 2 38.3136 2 37.4716L2 3.5276C2 2.6856 2.686 1.9996 3.528 1.9996L21.472 1.9996C22.314 1.9996 23 2.6856 23 3.5276L23 12.9996 21 12.9996 21 3.9996 4 3.9996 4 36.9996Z" id="Fill-1" fill="#01A88D"/></g></svg>