<svg width="48" height="48" viewBox="0 0 48 48" xmlns="http://www.w3.org/2000/svg" xmlns:xlink="http://www.w3.org/1999/xlink" overflow="hidden"><g id="Icon-Resource/Blockchain/Res_Amazon-Managed-Blockchain_Blockchain_48" stroke="none" stroke-width="1" fill="none" fill-rule="evenodd"><path d="M7.167 25.71 10.71 25.71 10.71 22.167 7.167 22.167 7.167 25.71ZM10.936 20.167 6.941 20.167C5.963 20.167 5.167 20.963 5.167 21.941L5.167 25.936C5.167 26.914 5.963 27.71 6.941 27.71L10.936 27.71C11.914 27.71 12.71 26.914 12.71 25.936L12.71 21.941C12.71 20.963 11.914 20.167 10.936 20.167L10.936 20.167ZM37.258 25.71 40.801 25.71 40.801 22.167 37.258 22.167 37.258 25.71ZM37.032 27.71 41.026 27.71C42.005 27.71 42.801 26.914 42.801 25.936L42.801 21.941C42.801 20.963 42.005 20.167 41.026 20.167L37.032 20.167C36.054 20.167 35.258 20.963 35.258 21.941L35.258 25.936C35.258 26.914 36.054 27.71 37.032 27.71L37.032 27.71ZM22.213 25.71 25.756 25.71 25.756 22.167 22.213 22.167 22.213 25.71ZM25.981 20.167 21.986 20.167C21.009 20.167 20.213 20.963 20.213 21.941L20.213 25.936C20.213 26.914 21.009 27.71 21.986 27.71L25.981 27.71C26.96 27.71 27.756 26.914 27.756 25.936L27.756 21.941C27.756 20.963 26.96 20.167 25.981 20.167L25.981 20.167ZM43.968 28.877 34.402 28.877C34.327 28.873 34.19 28.824 34.09 28.772L34.09 24.918 28.923 24.918 28.923 28.877 19.357 28.877C19.281 28.873 19.145 28.824 19.045 28.772L19.045 24.918 13.878 24.918 13.878 28.772C13.778 28.824 13.642 28.873 13.571 28.877L4 28.877 4 19 13.637 18.999C13.677 19.003 13.742 19.028 13.797 19.057L13.797 22.959 19.126 22.959 19.126 19.056C19.18 19.027 19.242 19.003 19.277 19L28.923 19 28.923 22.959 34.172 22.959 34.172 19.056C34.224 19.027 34.288 19.003 34.322 19L43.968 19 43.968 28.877ZM44.149 17 34.322 17C33.425 17 32.172 17.703 32.172 18.848L32.172 20.959 30.923 20.959 30.923 18.848C30.923 17.829 30.107 17 29.104 17L19.277 17C18.379 17 17.126 17.703 17.126 18.848L17.126 20.959 15.797 20.959 15.797 18.848C15.797 17.703 14.544 17 13.645 17L3.819 17C2.816 17 2 17.829 2 18.848L2 29.029C2 30.048 2.816 30.877 3.819 30.877L13.571 30.877C14.376 30.877 15.878 30.242 15.878 29.029L15.878 26.918 17.045 26.918 17.045 29.029C17.045 30.242 18.547 30.877 19.351 30.877L29.104 30.877C30.107 30.877 30.923 30.048 30.923 29.029L30.923 26.918 32.09 26.918 32.09 29.029C32.09 30.242 33.592 30.877 34.396 30.877L44.149 30.877C45.152 30.877 45.968 30.048 45.968 29.029L45.968 18.848C45.968 17.829 45.152 17 44.149 17L44.149 17Z" id="Amazon-Managed-Blockchain-Blockchain_Resource-Icon_light-bg" fill="#ED7100"/></g></svg>