<svg width="80" height="80" viewBox="0 0 80 80" xmlns="http://www.w3.org/2000/svg" xmlns:xlink="http://www.w3.org/1999/xlink" fill="none" overflow="hidden"><g id="Icon-Architecture/64/Arch_AWS-Fault-Injection-Service_64"><g id="Icon-Architecture-BG/64/Developer-Tools"><rect x="0" y="0" width="80" height="80" id="Rectangle" fill="#C925D1"/></g><g id="Icon-Service/64/AWS-Fault-Injection-Simulator_64"><path d="M30.003 37.0002C31.657 37.0002 33.003 38.3462 33.003 40.0002L35.003 40.0002C35.003 37.2432 32.76 35.0002 30.003 35.0002 27.246 35.0002 25.003 37.2432 25.003 40.0002L27.003 40.0002C27.003 38.3462 28.349 37.0002 30.003 37.0002ZM45.71 40.7102 48.503 37.9162 51.296 40.7102 52.71 39.2962 49.917 36.5012 52.71 33.7072 51.296 32.2932 48.503 35.0872 45.71 32.2932 44.296 33.7072 47.089 36.5012 44.296 39.2962 45.71 40.7102ZM37.003 25.5002C37.003 24.1222 35.882 23.0002 34.503 23.0002 33.124 23.0002 32.003 24.1222 32.003 25.5002 32.003 26.8782 33.124 28.0002 34.503 28.0002 35.882 28.0002 37.003 26.8782 37.003 25.5002ZM39.003 25.5002C39.003 27.9812 36.984 30.0002 34.503 30.0002 32.022 30.0002 30.003 27.9812 30.003 25.5002 30.003 23.0192 32.022 21.0002 34.503 21.0002 36.984 21.0002 39.003 23.0192 39.003 25.5002ZM33.003 44.0002 27.003 44.0002 27.003 56.8942C30.06 56.3092 33.003 53.2352 33.003 51.0002L33.003 44.0002ZM33.003 55.5112C31.508 57.2292 29.332 58.6072 27.003 58.9252L27.003 63.0002C27.003 64.3692 27.524 66.0002 30.003 66.0002 32.482 66.0002 33.003 64.3692 33.003 63.0002L33.003 55.5112ZM35.003 42.0002 37.003 42.0002 37.003 44.0002 35.003 44.0002 35.003 63.0002C35.003 65.4172 33.69 68.0002 30.003 68.0002 26.316 68.0002 25.003 65.4172 25.003 63.0002L25.003 44.0002 23.003 44.0002 23.003 42.0002 25.003 42.0002 27.003 42.0002 33.003 42.0002 35.003 42.0002ZM67.959 38.3002C67.959 48.1522 58.176 48.9902 58.077 48.9972L39.003 49.0002 39.003 47.0002 58.003 47.0002C58.255 46.9772 65.959 46.2782 65.959 38.3002 65.959 31.4352 59.821 29.8432 57.94 29.5192 57.406 29.4272 57.043 28.9272 57.119 28.3912L57.125 28.3542C57.106 25.3722 55.855 23.2562 53.685 22.5432 51.754 21.9092 49.626 22.6092 48.389 24.2872 48.169 24.5842 47.798 24.7352 47.437 24.6832 47.07 24.6282 46.764 24.3752 46.641 24.0262 45.823 21.7062 44.639 19.7552 43.121 18.2272 41.258 16.3532 36.144 12.3232 28.924 15.3872 24.752 17.1592 21.483 22.2652 21.483 27.0102L21.582 28.6472C21.61 29.1252 21.296 29.5562 20.833 29.6752 18.363 30.3092 14.22 32.2612 14.22 38.2172 14.22 42.6822 16.637 45.1442 18.663 46.4232 19.277 46.8112 20.053 46.9992 21.037 47.0002L21.035 49.0002C19.662 48.9992 18.537 48.7092 17.596 48.1142 15.588 46.8482 12.22 43.8772 12.22 38.2172 12.22 31.3772 16.844 28.8572 19.539 27.9712L19.485 27.0692C19.483 21.4312 23.206 15.6432 28.143 13.5462 33.926 11.0882 40.059 12.3112 44.539 16.8172 45.929 18.2152 47.067 19.9112 47.938 21.8732 49.698 20.4132 52.093 19.9152 54.31 20.6432 57.139 21.5732 58.899 24.1912 59.105 27.7172 61.961 28.3922 67.959 30.7162 67.959 38.3002Z" id="Fill 7" fill="#FFFFFF" fill-rule="evenodd" clip-rule="evenodd"/></g></g></svg>