<svg width="48" height="48" viewBox="0 0 48 48" xmlns="http://www.w3.org/2000/svg" xmlns:xlink="http://www.w3.org/1999/xlink" overflow="hidden"><g id="Icon-Resource/Storage/Res_Amazon-Simple-Storage-Service_S3-Batch-Operations_48" stroke="none" stroke-width="1" fill="none" fill-rule="evenodd"><path d="M9.584 39.43 13.421 35.593 14.835 37.007 10.302 41.54C10.106 41.736 9.851 41.833 9.595 41.833 9.344 41.833 9.093 41.74 8.898 41.552L6.834 39.552 8.227 38.115 9.584 39.43ZM14.835 27.34 10.302 31.873C10.106 32.069 9.851 32.166 9.595 32.166 9.344 32.166 9.093 32.073 8.898 31.885L6.834 29.885 8.227 28.448 9.584 29.763 13.421 25.926 14.835 27.34ZM14.835 17.674 10.302 22.207C10.106 22.402 9.851 22.5 9.595 22.5 9.344 22.5 9.093 22.406 8.898 22.218L6.834 20.218 8.227 18.782 9.584 20.097 13.421 16.26 14.835 17.674ZM14.835 8.007 10.302 12.54C10.106 12.736 9.851 12.833 9.595 12.833 9.344 12.833 9.093 12.74 8.898 12.552L6.834 10.552 8.227 9.115 9.584 10.43 13.421 6.593 14.835 8.007ZM34 37 36 37 36 45C36 45.552 35.553 46 35 46L3 46C2.447 46 2 45.552 2 45L2 3C2 2.448 2.447 2 3 2L35 2C35.553 2 36 2.448 36 3L36 14 34 14 34 4 4 4 4 44 34 44 34 37ZM25 26 24 26 24 24 25 24 25 20 27 20 27 24 28 24 28 26 27 26 27 31 25 31 25 26ZM32 29 31 29 31 27 32 27 32 20 34 20 34 27 35 27 35 29 34 29 34 31 32 31 32 29ZM39 24 38 24 38 22 39 22 39 20 41 20 41 22 42 22 42 24 41 24 41 31 39 31 39 24ZM22 33 44 33 44 18 22 18 22 33ZM45 16 21 16C20.447 16 20 16.448 20 17L20 34C20 34.552 20.447 35 21 35L45 35C45.553 35 46 34.552 46 34L46 17C46 16.448 45.553 16 45 16L45 16Z" id="Fill-1" fill="#7AA116"/></g></svg>