<svg width="48" height="48" viewBox="0 0 48 48" xmlns="http://www.w3.org/2000/svg" xmlns:xlink="http://www.w3.org/1999/xlink" overflow="hidden"><g id="Icon-Resource/IoT/Res_AWS-IoT_Shadow_48" stroke="none" stroke-width="1" fill="none" fill-rule="evenodd"><path d="M35.437 40.4143 37.803 40.4143 37.803 38.0493 35.437 38.0493 35.437 40.4143ZM38.803 42.4143C39.356 42.4143 39.803 41.9673 39.803 41.4143L39.803 37.0493C39.803 36.4963 39.356 36.0493 38.803 36.0493L34.437 36.0493C33.884 36.0493 33.437 36.4963 33.437 37.0493L33.437 41.4143C33.437 41.9673 33.884 42.4143 34.437 42.4143L38.803 42.4143ZM23.958 38.3003 25.47 40.3503 22.446 40.3503 23.958 38.3003ZM27.451 42.3503C27.828 42.3503 28.173 42.1383 28.343 41.8023 28.513 41.4653 28.479 41.0603 28.255 40.7573L24.763 36.0213C24.575 35.7663 24.276 35.6153 23.958 35.6153 23.641 35.6153 23.342 35.7653 23.154 36.0213L19.661 40.7573C19.437 41.0603 19.403 41.4653 19.573 41.8023 19.743 42.1373 20.088 42.3503 20.465 42.3503L27.451 42.3503ZM12.654 39.2313C12.654 39.9793 12.044 40.5893 11.296 40.5893 10.548 40.5893 9.939 39.9793 9.939 39.2313 9.939 38.4833 10.548 37.8743 11.296 37.8743 12.044 37.8743 12.654 38.4833 12.654 39.2313ZM14.654 39.2313C14.654 37.3803 13.148 35.8743 11.296 35.8743 9.445 35.8743 7.939 37.3803 7.939 39.2313 7.939 41.0833 9.445 42.5893 11.296 42.5893 13.148 42.5893 14.654 41.0833 14.654 39.2313ZM5.747 43.9073 42.168 43.9073 42.168 34.5553 5.747 34.5553 5.747 43.9073ZM4.747 32.5553C4.195 32.5553 3.747 33.0033 3.747 33.5553L3.747 44.9073C3.747 45.4603 4.195 45.9073 4.747 45.9073L43.168 45.9073C43.721 45.9073 44.168 45.4603 44.168 44.9073L44.168 33.5553C44.168 33.0033 43.721 32.5553 43.168 32.5553L4.747 32.5553ZM32.808 23.0133 34.31 23.0133 34.31 21.5123 32.808 21.5123 32.808 23.0133ZM31.808 19.5123C31.255 19.5123 30.808 19.9603 30.808 20.5123L30.808 24.0133C30.808 24.5663 31.255 25.0133 31.808 25.0133L35.31 25.0133C35.863 25.0133 36.31 24.5663 36.31 24.0133L36.31 20.5123C36.31 19.9603 35.863 19.5123 35.31 19.5123L31.808 19.5123ZM22.6 22.9503 23.376 22.0193 24.152 22.9503 22.6 22.9503ZM24.145 19.8173C23.954 19.5893 23.673 19.4573 23.376 19.4573 23.079 19.4573 22.798 19.5893 22.608 19.8163L19.697 23.3093C19.449 23.6083 19.395 24.0223 19.56 24.3743 19.724 24.7253 20.078 24.9503 20.465 24.9503L26.287 24.9503C26.674 24.9503 27.028 24.7253 27.192 24.3743 27.357 24.0233 27.303 23.6083 27.055 23.3103L24.145 19.8173ZM12.605 22.2043C12.605 21.7213 12.997 21.3293 13.48 21.3293 13.961 21.3293 14.354 21.7213 14.354 22.2043 14.354 22.6853 13.961 23.0783 13.48 23.0783 12.997 23.0783 12.605 22.6853 12.605 22.2043ZM10.605 22.2043C10.605 23.7893 11.895 25.0783 13.48 25.0783 15.065 25.0783 16.354 23.7893 16.354 22.2043 16.354 20.6193 15.065 19.3293 13.48 19.3293 11.895 19.3293 10.605 20.6193 10.605 22.2043ZM10.114 25.5693 36.929 25.5693 36.929 18.8383 10.114 18.8383 10.114 25.5693ZM37.929 27.5693C38.482 27.5693 38.929 27.1223 38.929 26.5693L38.929 17.8383C38.929 17.2853 38.482 16.8383 37.929 16.8383L9.114 16.8383C8.561 16.8383 8.114 17.2853 8.114 17.8383L8.114 26.5693C8.114 27.1223 8.561 27.5693 9.114 27.5693L37.929 27.5693ZM9.007 15.9643C9.494 15.8413 9.813 15.3753 9.753 14.8763 9.705 14.4763 9.681 14.0713 9.681 13.6723 9.681 10.0613 12.178 6.1783 15.367 4.8303 16.803 4.2223 18.131 3.9813 19.335 3.9813 22.759 3.9813 25.177 5.9363 26.233 6.9943 27.397 8.1593 28.305 9.6493 28.934 11.4253 29.057 11.7733 29.363 12.0253 29.729 12.0803 30.09 12.1303 30.46 11.9813 30.68 11.6853 31.553 10.5063 32.971 9.9983 34.288 10.3813 35.882 10.8473 36.934 12.4723 37.116 14.7373 37.05 15.2643 37.412 15.7543 37.939 15.8443 39.736 16.1523 43.915 17.4143 43.915 22.4603 43.915 28.4663 38.081 29.0443 37.918 29.0623L10.744 29.0343C7.186 29.0303 4.232 26.3583 4.018 22.9513 4.006 22.7693 4 22.5863 4 22.3953 4 17.9083 7.137 16.4403 9.007 15.9643ZM37.998 31.0593C40.737 30.8373 45.915 28.7543 45.915 22.4603 45.915 17.4693 42.5 14.8813 39.051 14.0343 38.669 11.1893 37.131 9.1293 34.85 8.4623 33.242 7.9883 31.555 8.3303 30.233 9.3233 29.557 7.8803 28.692 6.6253 27.648 5.5803 24.08 2.0093 19.199 1.0393 14.587 2.9883 10.65 4.6523 7.681 9.2453 7.681 13.6723 7.681 13.8703 7.686 14.0703 7.696 14.2703 5.514 15.0283 2 17.0773 2 22.3953 2 22.6293 2.008 22.8553 2.022 23.0763 2.301 27.5343 6.131 31.0293 10.742 31.0343L37.998 31.0593Z" id="Amazon-IOT-RESOURCES-IoT-shadow_Resource-Icon_light-bg" fill="#7AA116"/></g></svg>