<svg width="80" height="80" viewBox="0 0 80 80" xmlns="http://www.w3.org/2000/svg" xmlns:xlink="http://www.w3.org/1999/xlink" overflow="hidden"><g id="Icon-Architecture/64/Arch_AWS-Lambda_64" stroke="none" stroke-width="1" fill="none" fill-rule="evenodd"><g id="Icon-Architecture-BG/64/Compute" fill="#ED7100"><rect x="0" y="0" width="80" height="80" id="Rectangle"/></g><path d="M28.0075 66 15.5907 66 29.3236 37.296 35.546 50.106 28.0075 66ZM30.2197 34.553C30.0513 34.208 29.7005 33.989 29.3176 33.989L29.3146 33.989C28.9287 33.99 28.5779 34.211 28.4125 34.558L13.0979 66.569C12.9496 66.879 12.9706 67.243 13.1551 67.534 13.3375 67.824 13.6582 68 14.002 68L28.642 68C29.0299 68 29.3817 67.777 29.5481 67.428L37.5637 50.528C37.693 50.254 37.692 49.937 37.5587 49.665L30.2197 34.553ZM64.9953 66 52.6587 66 32.8668 24.57C32.7014 24.222 32.3486 24 31.9617 24L23.89 24 23.899 14 39.7197 14 59.4204 55.429C59.5858 55.777 59.9386 56 60.3255 56L64.9953 56 64.9953 66ZM65.9977 54 60.96 54 41.2593 12.571C41.0939 12.223 40.7411 12 40.3532 12L22.8977 12C22.3454 12 21.8964 12.447 21.8954 12.999L21.8843 24.999C21.8843 25.265 21.9886 25.519 22.178 25.707 22.3654 25.895 22.62 26 22.8867 26L31.3292 26 51.1222 67.43C51.2885 67.778 51.6394 68 52.0263 68L65.9977 68C66.552 68 67 67.552 67 67L67 55C67 54.448 66.552 54 65.9977 54L65.9977 54Z" id="AWS-Lambda_Icon_64_Squid" fill="#FFFFFF"/></g></svg>