<svg width="48" height="48" viewBox="0 0 48 48" xmlns="http://www.w3.org/2000/svg" xmlns:xlink="http://www.w3.org/1999/xlink" overflow="hidden"><g id="Icon-Resource/Networking-and-Content-Delivery/Res_Amazon-VPC_Traffic-Mirroring_48" stroke="none" stroke-width="1" fill="none" fill-rule="evenodd"><path d="M10.0904 26.916C10.4814 27.307 10.4814 27.939 10.0904 28.33 9.8954 28.525 9.6394 28.623 9.3834 28.623 9.1274 28.623 8.8714 28.525 8.6764 28.33L5.9404 25.595C5.5494 25.204 5.5494 24.571 5.9404 24.181L8.6764 21.444C9.0674 21.054 9.6994 21.054 10.0904 21.444 10.4814 21.835 10.4814 22.468 10.0904 22.858L9.0614 23.888 13.9434 23.888 13.9434 25.888 9.0624 25.888 10.0904 26.916ZM42.0094 25.595 39.2734 28.33C39.0774 28.525 38.8214 28.623 38.5664 28.623 38.3104 28.623 38.0544 28.525 37.8594 28.33 37.4684 27.939 37.4684 27.307 37.8594 26.916L38.8884 25.888 37.6534 25.888 37.6534 23.888 38.8884 23.888 37.8594 22.858C37.4684 22.468 37.4684 21.835 37.8594 21.444 38.2494 21.054 38.8824 21.054 39.2734 21.444L42.0094 24.181C42.4004 24.571 42.4004 25.204 42.0094 25.595L42.0094 25.595ZM34.0064 25.888 36.7414 25.888 36.7414 23.888 34.0064 23.888 34.0064 25.888ZM30.2084 14.14 28.2744 16.074 26.8604 14.66 28.7944 12.726 30.2084 14.14ZM25.7104 19.415 27.7104 19.415 27.7104 16.68 25.7104 16.68 25.7104 19.415ZM25.7104 23.063 27.7104 23.063 27.7104 20.327 25.7104 20.327 25.7104 23.063ZM25.7104 26.711 27.7104 26.711 27.7104 23.976 25.7104 23.976 25.7104 26.711ZM25.7104 30.359 27.7104 30.359 27.7104 27.623 25.7104 27.623 25.7104 30.359ZM25.7104 34.006 27.7104 34.006 27.7104 31.271 25.7104 31.271 25.7104 34.006ZM25.7104 37.655 27.7104 37.655 27.7104 34.919 25.7104 34.919 25.7104 37.655ZM31.1824 12.208 25.8174 12.208 25.8174 10.208 33.1824 10.208 33.1824 17.592 31.1824 17.592 31.1824 12.208ZM18.1814 12.208 22.2384 16.266 22.2384 37.655 20.2384 37.655 20.2384 17.094 16.7844 13.64 16.7844 17.592 14.7844 17.592 14.7844 10.208 22.1514 10.208 22.1514 12.208 18.1814 12.208ZM33.9184 29.447 35.9184 29.447 35.9184 35.919 29.4464 35.919 29.4464 33.919 32.5044 33.919 30.5634 31.978 31.9774 30.564 33.9184 32.505 33.9184 29.447ZM35.6114 20.136 34.1974 18.722 36.9464 15.973 38.3614 17.387 35.6114 20.136ZM30.5634 22.356 33.2724 19.647 34.6864 21.062 31.9774 23.77 30.5634 22.356ZM30.2704 26.711 32.2704 26.711 32.2704 24.029 30.2704 24.029 30.2704 26.711ZM30.2704 30.359 32.2704 30.359 32.2704 27.704 30.2704 27.704 30.2704 30.359ZM15.4454 33.919 18.5024 33.919 18.5024 35.919 12.0304 35.919 12.0304 29.447 14.0304 29.447 14.0304 32.505 15.6794 30.857 15.6794 23.478 9.5884 17.387 11.0024 15.973 17.6794 22.649 17.6794 31.686 15.4454 33.919ZM23.9744 43.95C12.9604 43.95 3.9994 34.989 3.9994 23.976 3.9994 12.961 12.9604 4 23.9744 4 34.9884 4 43.9494 12.961 43.9494 23.976 43.9494 34.989 34.9884 43.95 23.9744 43.95L23.9744 43.95ZM23.9744 2C11.8574 2 1.9994 11.858 1.9994 23.976 1.9994 36.093 11.8574 45.95 23.9744 45.95 36.0914 45.95 45.9494 36.093 45.9494 23.976 45.9494 11.858 36.0914 2 23.9744 2L23.9744 2Z" id="AWS-Amazon-VPC_Traffic-Mirroring_Resource-Icon_light-bg" fill="#8C4FFF"/></g></svg>