<svg width="48" height="48" viewBox="0 0 48 48" xmlns="http://www.w3.org/2000/svg" xmlns:xlink="http://www.w3.org/1999/xlink" overflow="hidden"><g id="Icon-Resource/Front-End-Web-Mobile/Res_Amazon-Location-Service_Track-_48" stroke="none" stroke-width="1" fill="none" fill-rule="evenodd"><path d="M42 24C40.897 24 40 23.103 40 22 40 20.897 40.897 20 42 20 43.103 20 44 20.897 44 22 44 23.103 43.103 24 42 24M30 37C28.897 37 28 36.103 28 35 28 33.897 28.897 33 30 33 31.103 33 32 33.897 32 35 32 36.103 31.103 37 30 37M20 27C20 25.897 20.897 25 22 25 23.103 25 24 25.897 24 27 24 28.103 23.103 29 22 29 20.897 29 20 28.103 20 27M6 44C4.897 44 4 43.103 4 42 4 40.897 4.897 40 6 40 7.103 40 8 40.897 8 42 8 43.103 7.103 44 6 44M23 6C23 4.897 23.897 4 25 4 26.103 4 27 4.897 27 6 27 7.103 26.103 8 25 8 23.897 8 23 7.103 23 6M6 8C4.897 8 4 7.103 4 6 4 4.897 4.897 4 6 4 7.103 4 8 4.897 8 6 8 7.103 7.103 8 6 8M42 18C40.998 18 40.093 18.383 39.391 18.993L28.34 8.19C28.755 7.561 29 6.809 29 6 29 3.794 27.206 2 25 2 23.142 2 21.589 3.28 21.142 5L9.858 5C9.411 3.28 7.858 2 6 2 3.794 2 2 3.794 2 6 2 8.206 3.794 10 6 10 7.858 10 9.411 8.72 9.858 7L21.142 7C21.589 8.72 23.142 10 25 10 25.67 10 26.291 9.819 26.847 9.527L38.245 20.669C38.096 21.088 38 21.531 38 22 38 22.792 38.238 23.526 38.637 24.147L31.845 31.472C31.29 31.181 30.669 31 30 31 29.15 31 28.366 31.27 27.718 31.723L25.092 29.506C25.651 28.818 26 27.953 26 27 26 24.794 24.206 23 22 23 19.794 23 18 24.794 18 27 18 27.661 18.177 28.275 18.461 28.825L8.05 38.583C7.448 38.221 6.752 38 6 38 3.794 38 2 39.794 2 42 2 44.206 3.794 46 6 46 8.206 46 10 44.206 10 42 10 41.273 9.79 40.6 9.45 40.011L19.783 30.326C20.419 30.75 21.181 31 22 31 22.507 31 22.986 30.896 23.433 30.723L26.422 33.247C26.16 33.779 26 34.369 26 35 26 37.206 27.794 39 30 39 32.206 39 34 37.206 34 35 34 34.189 33.754 33.436 33.337 32.804L40.108 25.502C40.674 25.81 41.313 26 42 26 44.206 26 46 24.206 46 22 46 19.794 44.206 18 42 18" id="Fill-1" fill="#DD344C"/></g></svg>