<svg width="80" height="80" viewBox="0 0 80 80" xmlns="http://www.w3.org/2000/svg" xmlns:xlink="http://www.w3.org/1999/xlink" overflow="hidden"><g id="Icon-Architecture/64/Arch_AWS-Management-Console_64" stroke="none" stroke-width="1" fill="none" fill-rule="evenodd"><g id="Icon-Architecture-BG/64/Management-Governance" fill="#E7157B"><rect x="0" y="0" width="80" height="80" id="Rectangle"/></g><path d="M26 19 29 19 29 17 26 17 26 19ZM21 19 24 19 24 17 21 17 21 19ZM16 19 19 19 19 17 16 17 16 19ZM14 22 66 22 66 14 14 14 14 22ZM67 12 13 12C12.447 12 12 12.448 12 13L12 67C12 67.552 12.447 68 13 68L46 68 46 66 14 66 14 24 66 24 66 66 59 66 59 68 67 68C67.553 68 68 67.552 68 67L68 13C68 12.448 67.553 12 67 12L67 12ZM40 50.878C36.879 50.878 34.339 48.338 34.339 45.217 34.339 42.096 36.879 39.557 40 39.557 43.121 39.557 45.661 42.096 45.661 45.217 45.661 48.338 43.121 50.878 40 50.878L40 50.878ZM40 37.557C35.775 37.557 32.339 40.993 32.339 45.217 32.339 49.441 35.775 52.878 40 52.878 44.225 52.878 47.661 49.441 47.661 45.217 47.661 40.993 44.225 37.557 40 37.557L40 37.557ZM55.652 47.468 53.946 47.371C53.491 47.348 53.021 47.672 52.914 48.149 52.584 49.613 52.009 51.001 51.205 52.277 50.944 52.69 51.021 53.231 51.385 53.557L52.659 54.694 49.477 57.876 48.344 56.607C48.018 56.241 47.476 56.166 47.063 56.427 45.791 57.231 44.401 57.808 42.932 58.139 42.455 58.247 42.126 58.684 42.154 59.172L42.251 60.87 37.749 60.87 37.847 59.17C37.875 58.683 37.546 58.246 37.069 58.138 35.604 57.806 34.214 57.23 32.939 56.424 32.526 56.164 31.984 56.237 31.659 56.604L30.523 57.877 27.341 54.694 28.613 53.559C28.978 53.234 29.054 52.692 28.793 52.279 27.99 51.008 27.415 49.619 27.084 48.149 26.977 47.672 26.518 47.348 26.052 47.371L24.348 47.468 24.348 42.966 26.058 43.064C26.518 43.082 26.981 42.763 27.09 42.286 27.421 40.824 27.996 39.437 28.801 38.164 29.062 37.75 28.985 37.209 28.621 36.884L27.341 35.741 30.524 32.558 31.666 33.838C31.991 34.203 32.533 34.277 32.945 34.018 34.218 33.216 35.604 32.641 37.068 32.311 37.546 32.203 37.875 31.767 37.847 31.278L37.749 29.565 42.251 29.565 42.154 31.28C42.126 31.768 42.455 32.204 42.932 32.312 44.395 32.644 45.78 33.218 47.051 34.021 47.464 34.281 48.006 34.205 48.331 33.841L49.476 32.558 52.659 35.741 51.381 36.881C51.017 37.207 50.94 37.749 51.201 38.162 52.005 39.432 52.58 40.82 52.912 42.287 53.02 42.763 53.491 43.082 53.944 43.064L55.652 42.966 55.652 47.468ZM56.596 40.909 54.652 41.02C54.334 39.907 53.89 38.837 53.327 37.826L54.781 36.529C54.986 36.346 55.107 36.086 55.115 35.811 55.123 35.536 55.017 35.27 54.822 35.076L50.142 30.396C49.946 30.201 49.687 30.089 49.406 30.103 49.131 30.111 48.872 30.231 48.688 30.437L47.387 31.895C46.376 31.333 45.309 30.891 44.197 30.573L44.308 28.622C44.323 28.348 44.226 28.079 44.036 27.878 43.848 27.679 43.585 27.565 43.31 27.565L36.69 27.565C36.415 27.565 36.152 27.679 35.964 27.879 35.774 28.079 35.677 28.348 35.692 28.623L35.804 30.571C34.691 30.888 33.623 31.331 32.61 31.893L31.312 30.437C31.128 30.231 30.869 30.111 30.594 30.103 30.316 30.091 30.054 30.201 29.858 30.396L25.178 35.076C24.983 35.27 24.877 35.536 24.885 35.811 24.893 36.086 25.014 36.346 25.219 36.529L26.675 37.828C26.111 38.84 25.668 39.909 25.35 41.02L23.404 40.909C23.132 40.892 22.86 40.992 22.661 41.181 22.461 41.37 22.348 41.633 22.348 41.908L22.348 48.527C22.348 48.802 22.461 49.065 22.661 49.254 22.86 49.442 23.133 49.542 23.404 49.525L25.344 49.415C25.661 50.53 26.104 51.602 26.667 52.614L25.219 53.906C25.014 54.089 24.893 54.349 24.885 54.624 24.877 54.899 24.983 55.165 25.178 55.359L29.858 60.04C30.054 60.234 30.313 60.343 30.594 60.332 30.869 60.324 31.129 60.204 31.312 59.998L32.604 58.55C33.618 59.115 34.689 59.559 35.803 59.877L35.692 61.813C35.677 62.087 35.774 62.356 35.963 62.556 36.152 62.756 36.415 62.87 36.69 62.87L43.31 62.87C43.585 62.87 43.848 62.756 44.036 62.556 44.226 62.356 44.323 62.087 44.308 61.813L44.197 59.879C45.313 59.561 46.386 59.117 47.399 58.553L48.688 59.998C48.871 60.204 49.131 60.324 49.406 60.332 49.663 60.346 49.948 60.234 50.142 60.04L54.822 55.359C55.017 55.165 55.123 54.899 55.115 54.624 55.107 54.349 54.986 54.089 54.781 53.906L53.33 52.612C53.894 51.598 54.337 50.527 54.654 49.415L56.596 49.525C56.866 49.542 57.14 49.442 57.339 49.254 57.539 49.065 57.652 48.802 57.652 48.527L57.652 41.908C57.652 41.633 57.539 41.37 57.339 41.181 57.14 40.992 56.867 40.893 56.596 40.909L56.596 40.909Z" id="AWS-Management-Console_Icon_64_Squid" fill="#FFFFFF"/></g></svg>