<svg width="48" height="48" viewBox="0 0 48 48" xmlns="http://www.w3.org/2000/svg" xmlns:xlink="http://www.w3.org/1999/xlink" overflow="hidden"><g id="Icon-Resource/Storage/Res_Amazon-Simple-Storage-Service_S3-Glacier-Deep-Archive_48" stroke="none" stroke-width="1" fill="none" fill-rule="evenodd"><path d="M43.8584 39.7657 45.0154 40.9217 43.6014 42.3357 42.1544 40.8897 42.1544 40.9097 40.1054 40.9097 41.0154 42.4897 43.1754 43.0967 42.6344 45.0227 41.0904 44.5877 40.6674 46.1677 38.7354 45.6507 39.3044 43.5247 38.2984 41.7787 37.3094 43.4887 37.8634 45.6617 35.9254 46.1567 35.5304 44.6027 33.9504 45.0257 33.4324 43.0937 35.5564 42.5257 36.4914 40.9097 34.4584 40.9097 32.9854 42.3447 31.5884 40.9127 32.7374 39.7937 31.5804 38.6367 32.9944 37.2227 34.6804 38.9097 36.6414 38.9097 35.5764 37.0687 33.4204 36.4617 33.9624 34.5367 35.5044 34.9707 35.9284 33.3907 37.8604 33.9087 37.2904 36.0367 38.2984 37.7807 39.2854 36.0687 38.7324 33.8967 40.6704 33.4027 41.0654 34.9567 42.6464 34.5337 43.1644 36.4647 41.0364 37.0357 39.9554 38.9097 41.8734 38.9097 43.6104 37.2137 45.0064 38.6457 43.8584 39.7657ZM29.5554 39.7657 30.7124 40.9217 29.2974 42.3357 27.8714 40.9097 25.8024 40.9097 26.7134 42.4897 28.8724 43.0967 28.3314 45.0227 26.7884 44.5877 26.3644 46.1677 24.4324 45.6507 25.0024 43.5267 23.9944 41.7787 23.0054 43.4877 23.5594 45.6627 21.6224 46.1557 21.2264 44.6027 19.6464 45.0257 19.1294 43.0937 21.2534 42.5257 22.1874 40.9097 20.1554 40.9097 18.6824 42.3447 17.2864 40.9127 18.4344 39.7937 17.2774 38.6367 18.6914 37.2227 20.3784 38.9097 22.3374 38.9097 21.2724 37.0677 19.1174 36.4617 19.6584 34.5367 21.2024 34.9707 21.6254 33.3907 23.5564 33.9087 22.9864 36.0377 23.9944 37.7807 24.9824 36.0677 24.4294 33.8967 26.3674 33.4027 26.7624 34.9557 28.3424 34.5337 28.8604 36.4647 26.7344 37.0357 25.6524 38.9097 27.5704 38.9097 29.3064 37.2137 30.7034 38.6457 29.5554 39.7657ZM22.8844 3.9997C33.2964 3.9997 40.6334 7.2267 40.7694 9.0187L40.7444 9.2107C40.7204 9.3017 40.6704 9.3937 40.6134 9.4877 40.5994 9.5107 40.5924 9.5327 40.5764 9.5557 40.5124 9.6477 40.4244 9.7417 40.3304 9.8347 40.3044 9.8607 40.2884 9.8847 40.2614 9.9097 40.1584 10.0037 40.0334 10.0987 39.9004 10.1947 39.8664 10.2197 39.8394 10.2447 39.8024 10.2697 39.6604 10.3677 39.4944 10.4647 39.3224 10.5627 39.2814 10.5847 39.2494 10.6087 39.2074 10.6307 39.0174 10.7337 38.8064 10.8357 38.5864 10.9377 38.5484 10.9537 38.5174 10.9717 38.4804 10.9897 38.2354 11.0987 37.9684 11.2067 37.6884 11.3147 37.6664 11.3237 37.6474 11.3307 37.6254 11.3397 34.5434 12.5017 29.3724 13.4717 22.8884 13.4717 14.4574 13.4717 8.2394 11.8297 5.9534 10.2577 5.9524 10.2567 5.9514 10.2547 5.9494 10.2537 5.7784 10.1367 5.6304 10.0197 5.5044 9.9037 5.4874 9.8877 5.4764 9.8717 5.4604 9.8557 5.3554 9.7547 5.2634 9.6537 5.1944 9.5547 5.1754 9.5277 5.1674 9.5007 5.1504 9.4727 5.0974 9.3857 5.0504 9.2997 5.0274 9.2157L5.0024 9.0187C5.1374 7.2267 12.4734 3.9997 22.8844 3.9997L22.8844 3.9997ZM43.1854 26.4437C42.8954 26.4977 42.1514 26.5267 40.4824 26.1197L40.7034 24.4817C42.4354 25.5347 43.0084 26.1687 43.1854 26.4437L43.1854 26.4437ZM23.1544 19.9087 24.1544 19.9097 23.1554 19.9107C23.1544 19.9107 23.1544 19.9097 23.1544 19.9087L23.1544 19.9087ZM9.2824 40.9097C9.2824 40.8647 9.2794 40.8207 9.2734 40.7767L5.4414 12.2777C5.6714 12.4117 5.9184 12.5417 6.1764 12.6677 6.3324 12.7437 6.4994 12.8157 6.6634 12.8877 6.8104 12.9537 6.9604 13.0187 7.1154 13.0817 7.3014 13.1577 7.4924 13.2317 7.6874 13.3037 7.8294 13.3567 7.9754 13.4057 8.1214 13.4557 8.8784 13.7157 9.6954 13.9507 10.5654 14.1617 10.6794 14.1887 10.7944 14.2157 10.9104 14.2437 11.2034 14.3107 11.4984 14.3757 11.8004 14.4377 11.8794 14.4537 11.9604 14.4687 12.0394 14.4847 13.0644 14.6877 14.1384 14.8607 15.2504 15.0007 15.3144 15.0087 15.3794 15.0177 15.4444 15.0267 17.0114 15.2187 18.6364 15.3497 20.2744 15.4167 20.3244 15.4187 20.3734 15.4207 20.4234 15.4227 21.2444 15.4547 22.0664 15.4767 22.8844 15.4767 23.6944 15.4767 24.5074 15.4547 25.3214 15.4237 25.3934 15.4207 25.4654 15.4177 25.5394 15.4147 26.7244 15.3657 27.9044 15.2837 29.0604 15.1667 29.1164 15.1617 29.1724 15.1577 29.2284 15.1517 29.5744 15.1157 29.9164 15.0767 30.2564 15.0347 30.3794 15.0197 30.5004 15.0037 30.6214 14.9887 30.9534 14.9457 31.2844 14.9017 31.6094 14.8537 31.6234 14.8517 31.6364 14.8487 31.6504 14.8467 32.3064 14.7487 32.9454 14.6377 33.5684 14.5167 33.7224 14.4867 33.8794 14.4567 34.0314 14.4257 34.2894 14.3717 34.5414 14.3177 34.7914 14.2597 34.9684 14.2197 35.1424 14.1767 35.3154 14.1347 35.5484 14.0777 35.7814 14.0217 36.0054 13.9597 36.3344 13.8717 36.6524 13.7807 36.9614 13.6847 37.1644 13.6217 37.3574 13.5557 37.5524 13.4907 37.7464 13.4247 37.9374 13.3587 38.1234 13.2897 38.2924 13.2277 38.4574 13.1627 38.6184 13.0987 38.8094 13.0207 38.9924 12.9417 39.1724 12.8607 39.3084 12.7997 39.4474 12.7417 39.5764 12.6777 39.8394 12.5497 40.0914 12.4167 40.3274 12.2807L38.5384 25.5697C33.9794 24.1357 27.9024 21.3687 25.1384 20.0697 25.1424 20.0157 25.1544 19.9637 25.1544 19.9097 25.1544 18.8067 24.2564 17.9097 23.1544 17.9097 22.0514 17.9097 21.1544 18.8067 21.1544 19.9097 21.1544 21.0117 22.0514 21.9097 23.1544 21.9097 23.4454 21.9097 23.7204 21.8427 23.9704 21.7307 27.0704 23.1977 33.4754 26.1177 38.2674 27.5787L37.7044 31.7637 39.6864 32.0337 40.2134 28.1137C41.2364 28.3547 42.0774 28.4757 42.7624 28.4757 43.7534 28.4757 44.4204 28.2227 44.8454 27.7167 45.1954 27.2997 45.3334 26.7757 45.2334 26.2397 45.0174 25.0867 43.6914 23.8697 40.9924 22.3327L42.6954 9.6747C42.7014 9.6457 42.7094 9.6167 42.7124 9.5867L42.7624 9.1987C42.7684 9.1557 42.7714 9.1117 42.7714 9.0687 42.7714 4.9037 32.2914 1.9997 22.8844 1.9997 13.4794 1.9997 3.0004 4.9037 3.0004 9.0687 3.0004 9.1117 3.0034 9.1557 3.0084 9.1987L3.0594 9.5867C3.0604 9.5987 3.0644 9.6107 3.0664 9.6217L7.2834 40.9867C7.3804 43.8087 12.8434 45.0497 16.1114 45.5407L16.4084 43.5627C10.9704 42.7467 9.2824 41.3317 9.2824 40.9097L9.2824 40.9097Z" id="Amazon-Simple-Storage_Service-Glacier-Deep-Archive_Resource-Icon_light-bg" fill="#7AA116"/></g></svg>