<svg width="80" height="80" viewBox="0 0 80 80" xmlns="http://www.w3.org/2000/svg" xmlns:xlink="http://www.w3.org/1999/xlink" overflow="hidden"><g id="Icon-Architecture/64/Arch_Amazon-WorkSpaces-Family_64" stroke="none" stroke-width="1" fill="none" fill-rule="evenodd"><g id="Icon-Architecture-BG/64/End-User-Computing" fill="#01A88D"><rect x="0" y="0" width="80" height="80" id="Rectangle"/></g><path d="M39 68 41 68 41 61 39 61 39 68ZM39 19 41 19 41 12.159 39 12.159 39 19ZM59 41 68 41 68 39 59 39 59 41ZM12 41 21 41 21 39 12 39 12 41ZM14 36 12 36 12 13C12 12.448 12.447 12 13 12L36 12 36 14 14 14 14 36ZM68 13 68 36 66 36 66 14 44 14 44 12 67 12C67.553 12 68 12.448 68 13L68 13ZM66 44 68 44 68 67C68 67.552 67.553 68 67 68L44 68 44 66 66 66 66 44ZM14 66 36 66 36 68 13 68C12.447 68 12 67.552 12 67L12 44 14 44 14 66ZM41 55.288 41 40.583 54 33.216 54 47.92 41 55.288ZM26 33.216 39 40.583 39 55.288 26 47.92 26 33.216ZM40.001 24.145 52.974 31.499 40 38.851 27.043 31.508 40.001 24.145ZM39.506 22.126 24.598 30.596C24.338 30.713 24.128 30.937 24.038 31.223 23.994 31.364 23.982 31.508 24 31.648L24 48.502C24 48.862 24.194 49.195 24.507 49.372L39.507 57.874C39.66 57.961 39.83 58.004 40 58.004 40.17 58.004 40.34 57.961 40.493 57.874L55.493 49.372C55.806 49.195 56 48.862 56 48.502L56 31.498C56 31.137 55.806 30.805 55.493 30.628L40.493 22.125C40.186 21.952 39.812 21.953 39.506 22.126L39.506 22.126Z" id="Fill-4" fill="#FFFFFF"/></g></svg>