<svg width="48" height="48" viewBox="0 0 48 48" xmlns="http://www.w3.org/2000/svg" xmlns:xlink="http://www.w3.org/1999/xlink" overflow="hidden"><g id="Icon-Resource/Management-Governance/Res_Amazon-CloudWatch_RUM_48" stroke="none" stroke-width="1" fill="none" fill-rule="evenodd"><path d="M41.945 40.906 36.316 35.638 42.394 29.5C43.55 31.067 44.177 32.959 44.177 34.927 44.177 37.153 43.387 39.246 41.945 40.906L41.945 40.906ZM25.882 35.465C25.871 35.286 25.867 35.107 25.867 34.927 25.867 30.219 29.44 26.328 34.017 25.826L34.017 35.528C34.017 35.785 34.123 36.018 34.289 36.199L34.149 36.349 40.474 42.269C38.904 43.439 37.012 44.082 35.022 44.082 30.178 44.082 26.164 40.299 25.882 35.465L25.882 35.465ZM18.091 20.895C20.543 20.895 22.946 21.58 25.041 22.878 26.35 23.689 27.492 24.717 28.469 25.92 25.916 27.782 24.182 30.694 23.913 34.021L4.534 34.021C5.029 26.696 10.92 20.895 18.091 20.895L18.091 20.895ZM10.791 11.401C10.791 7.375 14.067 4.1 18.092 4.1 22.118 4.1 25.392 7.375 25.392 11.401 25.392 15.427 22.118 18.702 18.092 18.702 14.067 18.702 10.791 15.427 10.791 11.401L10.791 11.401ZM42.474 27.014C42.211 27.034 41.94 27.117 41.748 27.31L36.017 33.097 36.017 24.772C36.017 24.506 35.912 24.252 35.724 24.065 35.537 23.877 35.283 23.772 35.017 23.772 33.288 23.772 31.657 24.18 30.195 24.886 29.042 23.412 27.674 22.157 26.093 21.177 24.975 20.485 23.778 19.951 22.536 19.569 25.427 17.99 27.392 14.921 27.392 11.401 27.392 6.272 23.22 2.1 18.092 2.1 12.963 2.1 8.791 6.272 8.791 11.401 8.791 14.922 10.758 17.991 13.65 19.57 7.211 21.554 2.5 27.725 2.5 35.021 2.5 35.573 2.947 36.021 3.5 36.021L23.933 36.021C24.486 41.695 29.268 46.082 35.022 46.082 37.958 46.082 40.73 44.95 42.825 42.896 44.987 40.783 46.177 37.953 46.177 34.927 46.177 32.101 45.117 29.404 43.191 27.333 43.005 27.133 42.747 27.018 42.474 27.014L42.474 27.014ZM39.017 18.075C40.872 18.28 42.63 19.051 44.038 20.276L39.017 25.346 39.017 18.075ZM37.636 28.702C37.759 28.753 37.889 28.777 38.017 28.777 38.279 28.777 38.536 28.674 38.728 28.481L46.169 20.966C46.546 20.586 46.556 19.975 46.191 19.582 44.089 17.319 41.111 16.021 38.017 16.021 37.464 16.021 37.017 16.468 37.017 17.021L37.017 27.777C37.017 28.183 37.262 28.548 37.636 28.702L37.636 28.702Z" id="Fill-1" fill="#E7157B"/></g></svg>