<svg width="48" height="48" viewBox="0 0 48 48" xmlns="http://www.w3.org/2000/svg" xmlns:xlink="http://www.w3.org/1999/xlink" overflow="hidden"><g id="Icon-Resource/Management-Governance/Res_Amazon-CloudWatch_Rule_48" stroke="none" stroke-width="1" fill="none" fill-rule="evenodd"><path d="M2.042 2 2.042 14.473 13.06 14.497 15.725 17.13 45.967 17.079 45.951 4.607 16.537 4.607 13.888 2 2.042 2ZM13.882 12.499 4.043 12.477 4.043 4 13.07 4 15.719 6.607 43.953 6.607 43.965 15.082 16.546 15.127 13.882 12.499ZM37.94 9.454 36.048 7.556 34.631 8.968 36.526 10.868 34.624 12.77 36.038 14.184 37.938 12.285 39.838 14.192 41.254 12.78 39.352 10.871 41.253 8.969 39.839 7.555 37.94 9.454ZM2 15.968 2 28.468 13.061 28.468 15.71 31.09 45.96 31.076 45.945 18.617 16.528 18.607 13.948 15.968 2 15.968ZM4 17.968 13.106 17.968 15.687 20.607 43.947 20.617 43.959 29.076 16.533 29.09 13.883 26.468 4 26.468 4 17.968ZM35.419 25.276 34.299 24.158 32.885 25.572 35.297 27.985 41.229 23.023 39.946 21.49 35.419 25.276ZM2 29.95 2 42.451 13.084 42.438 15.741 45.022 45.951 45.074 45.96 32.586 16.532 32.587 13.819 29.95 2 29.95ZM4 31.95 13.007 31.95 15.719 34.588 43.959 34.585 43.953 43.07 16.555 43.024 13.895 40.438 4 40.449 4 31.95ZM35.179 39.211 34.06 38.093 32.646 39.507 35.058 41.92 40.99 36.958 39.706 35.424 35.179 39.211Z" id="Amazon-Cloudwatch_rule_Resource-Icon_light-bg" fill="#E7157B"/></g></svg>