<svg width="48" height="48" viewBox="0 0 48 48" xmlns="http://www.w3.org/2000/svg" xmlns:xlink="http://www.w3.org/1999/xlink" overflow="hidden"><g id="Icon-Resource/Quantum-Technologies/Res_Amazon-Braket_Simulator-3_48" stroke="none" stroke-width="1" fill="none" fill-rule="evenodd"><path d="M9 39 39 39 39 9 9 9 9 39ZM41 13 41 17 46 17 46 19 41 19 41 23 46 23 46 25 41 25 41 29 46 29 46 31 41 31 41 35 46 35 46 37 41 37 41 40C41 40.552 40.553 41 40 41L37 41 37 46 35 46 35 41 31 41 31 46 29 46 29 41 25 41 25 46 23 46 23 41 19 41 19 46 17 46 17 41 13 41 13 46 11 46 11 41 8 41C7.447 41 7 40.552 7 40L7 37 2 37 2 35 7 35 7 31 2 31 2 29 7 29 7 25 2 25 2 23 7 23 7 19 2 19 2 17 7 17 7 13 2 13 2 11 7 11 7 8C7 7.448 7.447 7 8 7L11 7 11 2 13 2 13 7 17 7 17 2 19 2 19 7 23 7 23 2 25 2 25 7 29 7 29 2 31 2 31 7 35 7 35 2 37 2 37 7 40 7C40.553 7 41 7.448 41 8L41 11 46 11 46 13 41 13ZM10.402 14.914 10.402 12.914C14.444 12.914 16.179 18.552 18.015 24.522 19.52 29.416 21.226 34.962 23.938 34.962 26.654 34.962 28.363 29.446 29.87 24.58 31.729 18.58 33.484 12.914 37.598 12.914L37.598 14.914C34.958 14.914 33.271 20.363 31.781 25.171 29.985 30.968 28.129 36.962 23.938 36.962 19.748 36.962 17.895 30.937 16.103 25.11 14.633 20.331 12.967 14.914 10.402 14.914L10.402 14.914Z" id="Fill-1" fill="#ED7100"/></g></svg>