<svg width="48" height="48" viewBox="0 0 48 48" xmlns="http://www.w3.org/2000/svg" xmlns:xlink="http://www.w3.org/1999/xlink" overflow="hidden"><g id="Icon-Resource/Migration-and-Transfer/Res_AWS-Mainframe-Modernization_Developer_48" stroke="none" stroke-width="1" fill="none" fill-rule="evenodd"><path d="M13.03 8 15.03 8 15.03 6 13.03 6 13.03 8ZM10.03 8 12.03 8 12.03 6 10.03 6 10.03 8ZM7.03 8 9.03 8 9.03 6 7.03 6 7.03 8ZM33.318 19.466C33.709 19.856 33.709 20.489 33.318 20.88L29.437 24.762 28.022 23.348 31.197 20.173 28.022 16.998 29.437 15.583 33.318 19.466ZM18.256 16.998 15.081 20.173 18.256 23.348 16.842 24.762 12.96 20.88C12.569 20.489 12.569 19.856 12.96 19.466L16.842 15.583 18.256 16.998ZM24.192 14.529 26.05 15.272 21.833 25.816 19.976 25.073 24.192 14.529ZM33.671 43 14.37 43 5.561 36.119 12.012 29.999 35.988 29.996 42.478 36.121 33.671 43ZM5.045 11 42.03 11 42.03 28 5.03 28.004 5.045 11ZM42.03 5 42.03 9 5.03 9 5.034 5 42.03 5ZM38.902 30 42.27 30C43.24 30 44.03 29.236 44.03 28.298L44.03 4.701C44.03 3.763 43.24 3 42.27 3L4.791 3C3.82 3 3.03 3.763 3.03 4.699L3.01 28.296C3.008 29.23 3.792 29.994 4.766 30L9.105 30 2.5 36.265 13.681 45 34.362 45 45.542 36.266 38.902 30Z" id="Fill-1" fill="#01A88D"/></g></svg>