<svg width="80" height="80" viewBox="0 0 80 80" xmlns="http://www.w3.org/2000/svg" xmlns:xlink="http://www.w3.org/1999/xlink" overflow="hidden"><g id="Icon-Architecture/64/Arch_Amazon-Elastic-Transcoder_64" stroke="none" stroke-width="1" fill="none" fill-rule="evenodd"><g id="Icon-Architecture-BG/64/Media-Services" fill="#ED7100"><rect x="0" y="0" width="80" height="80" id="Rectangle"/></g><path d="M14.797 33.5289C14.787 33.3454 14.783 33.1538 14.783 32.9583 14.783 27.2181 18.566 25.0315 20.877 24.2321 20.864 24.0003 20.859 23.7674 20.859 23.5355 20.859 18.7813 24.016 13.8487 28.202 12.0613 33.102 9.96846 38.298 11.0088 42.093 14.8467 43.223 15.9889 44.156 17.3639 44.88 18.9476 46.284 17.8478 48.092 17.4637 49.819 17.9748 52.248 18.6896 53.882 20.9145 54.275 23.9882 55.672 24.337 57.988 25.1898 59.647 27.1778 59.28 27.1425 58.91 27.1213 58.535 27.1213 57.945 27.1213 57.371 27.1808 56.805 27.2675 55.477 26.335 54.001 25.956 53.159 25.8098 52.629 25.7181 52.268 25.2221 52.336 24.6868 52.142 22.2038 50.996 20.4215 49.259 19.9094 47.823 19.487 46.279 20.0495 45.33 21.3459 45.11 21.6453 44.74 21.7976 44.378 21.7441 44.012 21.6887 43.706 21.4346 43.583 21.0828 42.907 19.1563 41.93 17.5373 40.677 16.2701 39.14 14.7166 34.928 11.3798 28.982 13.9182 25.548 15.384 22.859 19.608 22.859 23.5355 22.859 23.967 22.883 24.3985 22.933 24.8188 22.939 24.8662 22.943 24.9136 22.943 24.962 22.943 25.4469 22.603 25.8562 22.144 25.9509 20.119 26.4842 16.783 28.1012 16.783 32.9583 16.783 33.1186 16.787 33.2748 16.795 33.428 16.861 34.8122 17.329 36.1106 18.126 37.2024L15.789 37.2024C15.211 36.0773 14.859 34.8354 14.797 33.5289L14.797 33.5289ZM56.958 61.5299 56.958 56.9743 61.155 59.2526 56.958 61.5299ZM56.432 54.3986C56.123 54.2303 55.747 54.2393 55.445 54.4208 55.143 54.6023 54.958 54.9309 54.958 55.2868L54.958 63.2185C54.958 63.5734 55.143 63.902 55.445 64.0835 55.603 64.1782 55.78 64.2266 55.958 64.2266 56.121 64.2266 56.284 64.1863 56.432 64.1057L63.738 60.1398C64.063 59.9644 64.265 59.6226 64.265 59.2526 64.265 58.8817 64.063 58.5409 63.738 58.3645L56.432 54.3986ZM58.535 66.9838C54.419 66.9838 51.069 63.6077 51.069 59.4583 51.069 55.3079 54.419 51.9318 58.535 51.9318 62.651 51.9318 66 55.3079 66 59.4583 66 63.6077 62.651 66.9838 58.535 66.9838L58.535 66.9838ZM14 58.3726 33 58.3726 33 41.2348 14 41.2348 14 58.3726ZM58.535 31.1538C62.651 31.1538 66 34.5299 66 38.6793 66 42.8296 62.651 46.2058 58.535 46.2058 54.419 46.2058 51.069 42.8296 51.069 38.6793 51.069 34.5299 54.419 31.1538 58.535 31.1538L58.535 31.1538ZM58.535 49.9156C53.763 49.9156 49.815 53.4984 49.172 58.1326L35 52.449 35 47.7945 49.687 42.0393C51.039 45.6463 54.49 48.222 58.535 48.222 63.754 48.222 68 43.9416 68 38.6793 68 33.418 63.754 29.1376 58.535 29.1376 53.316 29.1376 49.069 33.418 49.069 38.6793 49.069 39.1551 49.115 39.6178 49.182 40.0745L35 45.6311 35 40.2267C35 39.6702 34.553 39.2186 34 39.2186L13 39.2186C12.447 39.2186 12 39.6702 12 40.2267L12 59.3807C12 59.9371 12.447 60.3888 13 60.3888L34 60.3888C34.553 60.3888 35 59.9371 35 59.3807L35 54.6184 49.11 60.2789C49.526 65.1571 53.59 69 58.535 69 63.754 69 68 64.7196 68 59.4583 68 54.196 63.754 49.9156 58.535 49.9156L58.535 49.9156ZM56.958 36.5764 61.155 38.8547 56.958 41.133 56.958 36.5764ZM55.445 43.6865C55.603 43.7813 55.78 43.8287 55.958 43.8287 56.121 43.8287 56.284 43.7893 56.432 43.7087L63.738 39.7428C64.063 39.5664 64.265 39.2257 64.265 38.8547 64.265 38.4847 64.063 38.1429 63.738 37.9675L56.432 34.0006C56.123 33.8323 55.747 33.8414 55.445 34.0228 55.143 34.2043 54.958 34.5339 54.958 34.8888L54.958 42.8205C54.958 43.1754 55.143 43.5051 55.445 43.6865L55.445 43.6865ZM21 46.981 26.762 50.2069 21 52.7887 21 46.981ZM19.455 55.1849C19.62 55.2928 19.81 55.3483 20 55.3483 20.138 55.3483 20.276 55.32 20.406 55.2616L29.406 51.2291C29.753 51.0739 29.983 50.7342 29.999 50.3521 30.016 49.971 29.818 49.6121 29.485 49.4267L20.485 44.3861C20.177 44.2127 19.798 44.2178 19.493 44.3982 19.188 44.5797 19 44.9104 19 45.2672L19 54.3402C19 54.6809 19.171 54.9995 19.455 55.1849L19.455 55.1849Z" id="Amazon-Elastic-Transcoder_Icon_64_Squid" fill="#FFFFFF"/></g></svg>