<svg width="48" height="48" viewBox="0 0 48 48" xmlns="http://www.w3.org/2000/svg" xmlns:xlink="http://www.w3.org/1999/xlink" overflow="hidden"><g id="Icon-Resource/Application-Integration/Res_Amazon-EventBridge_Saas-Partner-Event_48" stroke="none" stroke-width="1" fill="none" fill-rule="evenodd"><path d="M31.084 20.877 25.023 24.333 24.984 31.31 31.046 27.855 31.084 20.877ZM16.858 27.821 22.983 31.402 23.023 24.241 16.898 20.66 16.858 27.821ZM17.855 18.902 24.103 22.555 30.267 19.04 24.021 15.388 17.855 18.902ZM24.47 33.905C24.316 33.992 24.146 34.036 23.975 34.036 23.839 34.036 23.707 34 23.58 33.945L15.351 29.257C15.042 29.076 14.854 28.745 14.8548 28.388L14.908 18.917C14.91 18.592 15.075 18.296 15.338 18.111L23.532 13.364C23.842 13.189 24.223 13.19 24.532 13.37L32.618 18.302C32.914 18.485 33.096 18.807 33.094 19.156L33.043 28.443C33.041 28.8 32.849 29.129 32.538 29.307L24.47 33.905ZM33.454 4.026 31.614 3.241 28.811 9.816 30.65 10.602 33.454 4.026ZM42.132 11.32 40.931 9.721 35.179 14.039 36.38 15.639 42.132 11.32ZM38.792 22.837 45.95 21.931 45.698 19.946 38.54 20.853 38.792 22.837ZM37.233 30.272 43.88 33.022 44.644 31.174 37.997 28.424 37.233 30.272ZM32.117 35.948 36.471 41.617 38.057 40.398 33.703 34.73 32.117 35.948ZM24.818 38.338 25.713 45.407 27.697 45.155 26.803 38.086 24.818 38.338ZM14.495 43.38 16.335 44.165 19.14 37.591 17.3 36.806 14.495 43.38ZM5.817 36.087 7.019 37.687 12.771 33.367 11.569 31.768 5.817 36.087ZM9.158 24.57 2 25.477 2.252 27.461 9.41 26.555 9.158 24.57ZM10.716 17.135 4.069 14.385 3.306 16.232 9.952 18.982 10.716 17.135ZM11.479 5.789 9.893 7.008 14.246 12.678 15.832 11.459 11.479 5.789ZM21.146 9.32 20.252 2.252 22.236 2 23.131 9.068 21.146 9.32Z" id="Amazon-EventBridge-Saas-Partner-Event_48" fill="#E7157B"/></g></svg>