<svg width="48" height="48" viewBox="0 0 48 48" xmlns="http://www.w3.org/2000/svg" xmlns:xlink="http://www.w3.org/1999/xlink" overflow="hidden"><g id="Icon-Resource/Management-Governance/Res_AWS-Systems-Manager_Application-Manager_48" stroke="none" stroke-width="1" fill="none" fill-rule="evenodd"><path d="M39 23.9767C39 20.9487 38.103 18.0307 36.404 15.5397L38.057 14.4137C39.982 17.2377 41 20.5447 41 23.9767L39 23.9767ZM27.751 38.5047 28.249 40.4407C26.869 40.7967 25.439 40.9767 24 40.9767 23.289 40.9767 22.574 40.9327 21.876 40.8447L22.124 38.8607C23.987 39.0937 25.932 38.9727 27.751 38.5047L27.751 38.5047ZM9 23.9767 7 23.9767C7 20.3937 8.103 16.9647 10.188 14.0637L11.812 15.2307C9.973 17.7897 9 20.8147 9 23.9767L9 23.9767ZM17.037 10.7217C17.522 10.5977 17.841 10.1337 17.782 9.63667 17.763 9.46667 17.752 9.29467 17.752 9.11867 17.752 7.60567 18.824 5.91967 20.142 5.35867 20.748 5.10067 21.309 4.99767 21.817 4.99767 23.267 4.99767 24.291 5.83167 24.738 6.28267 25.23 6.77967 25.634 7.44767 25.903 8.21367 26.026 8.56267 26.333 8.81567 26.699 8.87067 27.07 8.92367 27.433 8.77267 27.652 8.47367 27.939 8.08267 28.379 7.91567 28.796 8.03967 29.331 8.19567 29.69 8.78467 29.769 9.62467 29.736 10.1277 30.088 10.5847 30.597 10.6727 31.498 10.8287 33.01 11.3807 33.01 13.3317 33.01 15.6327 30.993 15.9417 30.678 15.9767L17.774 15.9627C16.494 15.9617 15.205 14.8907 15.069 13.7157 15.055 13.5837 15.046 13.4457 15.046 13.3007 15.046 11.5907 16.129 10.9547 17.037 10.7217L17.037 10.7217ZM17.772 17.9627 30.758 17.9737C32.229 17.8527 35.01 16.7287 35.01 13.3317 35.01 10.7997 33.399 9.41467 31.679 8.88067 31.395 7.47967 30.558 6.46967 29.355 6.11967 28.634 5.90867 27.883 5.98067 27.226 6.29667 26.926 5.76467 26.569 5.28867 26.158 4.87467 24.302 3.00367 21.76 2.49667 19.358 3.51867 17.322 4.38467 15.782 6.75367 15.752 9.04967 14.042 9.78267 13.046 11.3217 13.046 13.3007 13.046 13.5267 13.059 13.7417 13.083 13.9457 13.334 16.1207 15.481 17.9607 17.772 17.9627L17.772 17.9627ZM18.154 41.8037C17.933 42.0227 17.59 42.0367 17.386 41.8327L13.697 38.1517C13.978 37.8967 14.24 37.6207 14.477 37.3237L18.185 41.0417C18.386 41.2437 18.372 41.5847 18.154 41.8037L18.154 41.8037ZM4 32.9767C4 30.2197 6.243 27.9767 9 27.9767 11.757 27.9767 14 30.2197 14 32.9767 14 35.7337 11.757 37.9767 9 37.9767 6.243 37.9767 4 35.7337 4 32.9767L4 32.9767ZM15.511 35.5287C15.823 34.7367 16 33.8777 16 32.9767 16 29.1167 12.859 25.9767 9 25.9767 5.141 25.9767 2 29.1167 2 32.9767 2 36.8367 5.141 39.9767 9 39.9767 10.077 39.9767 11.093 39.7247 12.005 39.2887L15.974 43.2477C16.459 43.7337 17.099 43.9757 17.742 43.9757 18.4 43.9757 19.062 43.7227 19.566 43.2187 20.564 42.2227 20.58 40.6117 19.601 39.6297L15.511 35.5287ZM37 38.9767C33.629 38.9767 30 37.4127 30 33.9767 30 31.9267 30.948 29.5207 33 28.4147L33 32.9767C33 33.5287 33.447 33.9767 34 33.9767L40 33.9767C40.553 33.9767 41 33.5287 41 32.9767L41 28.4147C43.052 29.5207 44 31.9267 44 33.9767 44 37.4127 40.371 38.9767 37 38.9767L37 38.9767ZM46 33.9767C46 30.0827 43.627 26.8037 40.229 26.0037 39.93 25.9327 39.619 26.0027 39.379 26.1927 39.14 26.3827 39 26.6707 39 26.9767L39 31.9767 35 31.9767 35 26.9767C35 26.6707 34.86 26.3827 34.621 26.1927 34.382 26.0027 34.068 25.9337 33.771 26.0037 30.373 26.8037 28 30.0827 28 33.9767 28 36.8927 29.962 39.2267 33 40.3127L33 43.9767 35 43.9767 35 40.8207C35.638 40.9207 36.305 40.9767 37 40.9767 37.695 40.9767 38.362 40.9207 39 40.8207L39 43.9767 41 43.9767 41 40.3127C44.038 39.2267 46 36.8927 46 33.9767L46 33.9767Z" id="Fill-1" fill="#E7157B"/></g></svg>