<svg width="48" height="48" viewBox="0 0 48 48" xmlns="http://www.w3.org/2000/svg" xmlns:xlink="http://www.w3.org/1999/xlink" overflow="hidden"><g id="Icon-Resource/Analytics/Res_Amazon-Redshift_Streaming-Ingestion_48" stroke="none" stroke-width="1" fill="none" fill-rule="evenodd"><path d="M9 43C9 42.449 8.552 42 8 42 7.448 42 7 42.449 7 43 7 43.551 7.448 44 8 44 8.552 44 9 43.551 9 43L9 43ZM11 34C11 34.551 11.448 35 12 35 12.552 35 13 34.551 13 34 13 33.449 12.552 33 12 33 11.448 33 11 33.449 11 34L11 34ZM21 36C21 36.551 21.448 37 22 37 22.552 37 23 36.551 23 36 23 35.449 22.552 35 22 35 21.448 35 21 35.449 21 36L21 36ZM24 27C24 27.551 24.448 28 25 28 25.552 28 26 27.551 26 27 26 26.449 25.552 26 25 26 24.448 26 24 26.449 24 27L24 27ZM10.211 40.99C10.696 41.523 11 42.224 11 43 11 44.654 9.654 46 8 46 6.346 46 5 44.654 5 43 5 41.346 6.346 40 8 40 8.151 40 8.295 40.023 8.44 40.044L10.054 36.264C9.414 35.714 9 34.908 9 34 9 32.346 10.346 31 12 31 13.654 31 15 32.346 15 34 15 34.023 14.994 34.045 14.993 34.068L19.178 35.02C19.587 33.848 20.691 33 22 33 22.013 33 22.024 33.004 22.037 33.004L23.405 29.531C22.564 28.999 22 28.067 22 27 22 25.346 23.346 24 25 24 26.654 24 28 25.346 28 27 28 28.522 26.857 29.769 25.386 29.961L23.91 33.706C24.57 34.257 25 35.075 25 36 25 37.654 23.654 39 22 39 20.727 39 19.643 38.199 19.208 37.077L14.259 35.952C13.709 36.589 12.905 37 12 37 11.972 37 11.946 36.993 11.918 36.992L10.211 40.99ZM31.291 11.986 30.709 13.899C32.97 14.586 34 15.497 34 16.052 34 16.607 32.97 17.517 30.709 18.205L31.291 20.118C32.375 19.788 33.278 19.389 34 18.939L34 41C34 41.711 32.578 42.636 30.165 43.271 30.004 43.313 29.844 43.355 29.677 43.394 29.459 43.445 29.238 43.494 29.007 43.54 28.635 43.612 28.253 43.676 27.861 43.731 27.711 43.753 27.558 43.773 27.404 43.792 26.93 43.85 26.448 43.898 25.954 43.931 25.861 43.938 25.764 43.942 25.669 43.948 25.119 43.979 24.563 44 24 44 17.988 44 14 42.216 14 41.036L14 39 12 39 12 41.036C12 44.295 18.037 46 24 46 24.61 46 25.219 45.977 25.824 45.942 25.908 45.937 25.992 45.934 26.075 45.928 26.631 45.891 27.178 45.836 27.718 45.768 27.839 45.753 27.959 45.738 28.079 45.721 28.588 45.65 29.086 45.568 29.569 45.47 29.698 45.444 29.82 45.415 29.946 45.387 30.362 45.295 30.767 45.194 31.155 45.082 31.221 45.063 31.296 45.049 31.361 45.03L31.36 45.026C34.091 44.197 36 42.846 36 41L36 16 35.994 16C35.959 14.324 34.296 12.899 31.291 11.986L31.291 11.986ZM14 18.894C14.601 19.284 15.317 19.639 16.169 19.942L16.841 18.059C14.878 17.359 14 16.485 14 15.929 14 15.438 14.731 14.626 16.792 13.95L16.169 12.05C12.542 13.24 12 14.991 12 15.929 12 15.953 12.008 15.976 12.008 16L12 16 12 29 14 29 14 18.894ZM41.999 4 43.999 4 43.999 2 41.999 2 41.999 4ZM37.999 4 39.999 4 39.999 2 37.999 2 37.999 4ZM8 8 10 8 10 6 8 6 8 8ZM4 8 6 8 6 6 4 6 4 8ZM27 20 29 20 29 6 12 6 12 8 27 8 27 20ZM19 20 21 20 21 10 19 10 19 20ZM20 4 35.999 4 35.999 2 20 2 20 4ZM23 22 25 22 25 11 23 11 23 22Z" id="Fill-1" fill="#8C4FFF"/></g></svg>