<svg width="48" height="48" viewBox="0 0 48 48" xmlns="http://www.w3.org/2000/svg" xmlns:xlink="http://www.w3.org/1999/xlink" overflow="hidden"><g id="Icon-Resource/IoT/Res_AWS-IoT-Analytics_Data-Store_48" stroke="none" stroke-width="1" fill="none" fill-rule="evenodd"><path d="M17.632 40 22.632 40 22.632 38 17.632 38 17.632 40ZM13.632 40 15.632 40 15.632 38 13.632 38 13.632 40ZM17.632 30 22.632 30 22.632 28 17.632 28 17.632 30ZM13.632 30 15.632 30 15.632 28 13.632 28 13.632 30ZM17.632 19 22.632 19 22.632 17 17.632 17 17.632 19ZM13.632 19 15.632 19 15.632 17 13.632 17 13.632 19ZM11 19.211 11 11.527C13.376 13.269 17.723 14.316 23.264 14.316 28.375 14.316 33.528 13.321 36.264 11.392L36.264 19.211C36.264 21.178 30.925 23.368 23.264 23.368 15.688 23.368 11 21.21 11 19.211ZM11 29.554 11 22.579C13.376 24.319 17.723 25.368 23.264 25.368 28.246 25.368 33.488 24.451 36.264 22.495L36.264 29.554C36.264 31.508 30.925 33.685 23.264 33.685 15.587 33.685 11 31.584 11 29.554ZM11 39.843 11 32.907C13.376 34.641 17.723 35.685 23.264 35.685 28.246 35.685 33.488 34.771 36.264 32.823L36.264 39.843C36.264 41.809 30.925 44 23.264 44 15.587 44 11 41.887 11 39.843ZM36.264 8.158C36.264 10.125 30.925 12.316 23.264 12.316 15.688 12.316 11 10.158 11 8.158 11 6.158 15.688 4 23.264 4 30.925 4 36.264 6.191 36.264 8.158ZM9 8.158 9 39.843C9 43.525 14.732 46 23.264 46 30.488 46 38.264 44.073 38.264 39.843L38.264 8.158C38.264 4.115 30.718 2 23.264 2 14.732 2 9 4.475 9 8.158Z" id="AWS-IoT-Analytics-Data-Store_Resource-Icon_light-bg" fill="#7AA116"/></g></svg>