<svg width="80" height="80" viewBox="0 0 80 80" xmlns="http://www.w3.org/2000/svg" xmlns:xlink="http://www.w3.org/1999/xlink" overflow="hidden"><g id="Icon-Architecture/64/Arch_AWS-Backint-Agent_64" stroke="none" stroke-width="1" fill="none" fill-rule="evenodd"><g id="Icon-Architecture-BG/64/Management-Governance" fill="#E7157B"><rect x="0" y="0" width="80" height="80" id="Rectangle"/></g><g id="Icon-Service/64/AWS-Backint-Agent_64" fill="#FFFFFF" transform="translate(13 13)"><path d="M48.826 44.1369 47.949 42.3399C51.028 40.8349 52.941 37.7739 52.941 34.3489 52.941 29.4489 48.955 25.4619 44.055 25.4619 43.443 25.4619 42.828 25.5259 42.225 25.6519 41.762 25.7499 41.295 25.5069 41.104 25.0749 40.711 24.1769 39.946 23.5029 39.009 23.2269 38.607 23.1089 38.322 22.7529 38.293 22.3359 38.044 18.7359 35.023 15.9149 31.416 15.9149 30.268 15.9149 29.133 16.2019 28.13 16.7459 27.776 16.9389 27.341 16.8999 27.026 16.6459 25.472 15.3939 23.608 14.6369 21.639 14.4579L21.819 12.4659C23.97 12.6609 26.013 13.4299 27.766 14.6969 28.908 14.1839 30.157 13.9149 31.416 13.9149 35.849 13.9149 39.596 17.2159 40.219 21.5439 41.184 21.9709 41.998 22.6729 42.561 23.5649 44.102 23.3529 45.667 23.4799 47.086 23.8909 48.924 20.6859 49.478 16.9679 48.647 13.3529 47.773 9.54595 45.47 6.30895 42.159 4.23695 38.85 2.16295 34.932 1.49995 31.126 2.37695 27.32 3.25095 24.082 5.55595 22.009 8.86595 19.318 13.1619 19.056 18.5839 21.298 23.1189L23.854 18.9159 25.563 19.9559 21.721 26.2729C21.582 26.4989 21.359 26.6609 21.101 26.7239 20.844 26.7859 20.572 26.7439 20.346 26.6069L14.029 22.7629 15.07 21.0549 19.334 23.6499C16.972 18.5709 17.324 12.5759 20.314 7.80395 22.671 4.04095 26.351 1.42195 30.678 0.427949 35.006-0.566051 39.459 0.184949 43.222 2.54095 46.983 4.89795 49.603 8.57795 50.597 12.9049 51.52 16.9229 50.938 21.0509 48.964 24.6329 52.508 26.4309 54.941 30.1109 54.941 34.3489 54.941 38.5439 52.598 42.2939 48.826 44.1369L48.826 44.1369ZM18.584 45.236 9.615 45.236C4.313 45.236 0 40.9219 0 35.6189 0 30.6199 3.835 26.4999 8.717 26.0449 8.65 25.5319 8.615 25.0209 8.615 24.5179 8.615 19.8999 11.305 15.6189 15.466 13.6119L16.335 15.4129C12.86 17.0889 10.615 20.6619 10.615 24.5179 10.615 25.2589 10.706 26.0249 10.883 26.7929 10.953 27.0959 10.879 27.4139 10.681 27.6549 10.482 27.8939 10.181 28.0209 9.875 28.0179L9.615 28.0039C5.416 28.0039 2 31.4199 2 35.6189 2 39.82 5.416 43.236 9.615 43.236L18.584 43.236 18.584 45.236ZM32.085 44.9109C34.598 45.3999 36.048 44.0399 36.527 42.7199 37.007 41.3989 36.765 39.4269 34.526 38.1889 32.018 37.7049 30.563 39.0599 30.084 40.3809 29.604 41.702 29.845 43.6729 32.085 44.9109L32.085 44.9109ZM33.103 47.014C32.635 47.014 32.139 46.9639 31.619 46.8579 31.474 46.8279 31.333 46.778 31.199 46.7059L31.193 46.7029C27.997 44.9809 27.389 41.945 28.204 39.6989 29.019 37.4529 31.431 35.5129 34.992 36.2419 35.137 36.2719 35.278 36.3239 35.412 36.3939 38.614 38.1199 39.222 41.1579 38.407 43.403 37.711 45.32 35.848 47.014 33.103 47.014L33.103 47.014ZM28.217 51.1719 30.989 52.1779 31.413 51.0079C31.641 50.382 32.283 49.9979 32.914 50.0159 33.419 50.0409 33.927 50.0179 34.426 49.9509 35.08 49.8659 35.723 50.2049 36.003 50.8079L36.529 51.9319 39.201 50.6829 38.675 49.5579C38.395 48.9569 38.539 48.2509 39.03 47.799 39.404 47.4569 39.747 47.0809 40.05 46.681 40.457 46.1469 41.147 45.9409 41.773 46.1659L42.945 46.5919 43.951 43.8189 42.765 43.3879C42.143 43.1619 41.744 42.563 41.773 41.8949 41.794 41.3949 41.769 40.8909 41.702 40.3999 41.609 39.7329 41.954 39.0959 42.559 38.8149L43.705 38.2789 42.456 35.6069 41.288 36.153C40.688 36.4319 39.982 36.2899 39.531 35.799 39.198 35.4389 38.829 35.104 38.436 34.806 37.903 34.4019 37.695 33.709 37.921 33.084L38.364 31.8639 35.591 30.8569 35.142 32.0899C34.918 32.7109 34.305 33.1079 33.652 33.0829 33.162 33.063 32.672 33.0849 32.187 33.1499 31.537 33.2389 30.891 32.8969 30.608 32.2969L30.052 31.1029 27.379 32.3519 27.935 33.5429C28.216 34.1419 28.074 34.8489 27.581 35.3019 27.218 35.6349 26.884 35.9979 26.588 36.3829 26.182 36.9139 25.491 37.1189 24.868 36.8909L23.636 36.4439 22.629 39.216 23.847 39.6579C24.471 39.8849 24.87 40.486 24.841 41.1549 24.817 41.6489 24.838 42.146 24.901 42.6379 24.987 43.2979 24.642 43.931 24.044 44.2099L22.876 44.7559 24.125 47.4289 25.273 46.8919C25.874 46.611 26.584 46.7549 27.035 47.2519 27.373 47.6229 27.744 47.9649 28.139 48.2679 28.668 48.6729 28.872 49.3639 28.647 49.986L28.217 51.1719ZM31.283 54.3169C31.109 54.3169 30.934 54.2859 30.766 54.2259L27.074 52.8849C26.694 52.7469 26.39 52.4699 26.22 52.104 26.049 51.7379 26.031 51.327 26.17 50.9479L26.646 49.6359C26.349 49.3919 26.066 49.1309 25.798 48.8549L24.527 49.4479C23.774 49.8009 22.872 49.4739 22.519 48.7179L20.857 45.1589C20.685 44.7949 20.668 44.3839 20.805 44.0049 20.943 43.625 21.221 43.3229 21.586 43.1519L22.879 42.5469C22.843 42.1699 22.827 41.792 22.832 41.417L21.486 40.9289C20.705 40.6449 20.299 39.778 20.582 38.9949L21.924 35.3009C22.059 34.9229 22.337 34.6189 22.702 34.4489 23.068 34.278 23.477 34.2599 23.858 34.3969L25.221 34.8909C25.456 34.6049 25.708 34.3299 25.973 34.07L25.359 32.7549C25.008 31.9999 25.334 31.0999 26.088 30.7469L29.564 29.1219 29.565 29.1219C30.366 28.7489 31.322 29.0959 31.695 29.8959L32.269 31.1269C32.64 31.0899 33.023 31.0719 33.384 31.0759L33.879 29.7139C34.162 28.9319 35.029 28.5249 35.813 28.8089L39.507 30.1509C40.289 30.4349 40.694 31.3019 40.412 32.0829L39.923 33.431C40.216 33.6689 40.495 33.9229 40.76 34.1919L42.052 33.5869C42.418 33.417 42.829 33.3989 43.207 33.535 43.587 33.6729 43.889 33.9499 44.06 34.3169L45.724 37.875C46.076 38.6299 45.749 39.5309 44.995 39.8829L43.725 40.4769C43.764 40.8579 43.783 41.243 43.78 41.6279L45.095 42.1059C45.876 42.3899 46.281 43.257 45.999 44.0389L44.658 47.7349C44.371 48.5179 43.506 48.9229 42.722 48.639L41.426 48.167C41.18 48.4689 40.916 48.7579 40.637 49.0319L41.221 50.2799C41.572 51.0339 41.246 51.9349 40.492 52.2869L36.932 53.9509C36.568 54.1219 36.155 54.1399 35.777 54.0019 35.397 53.8649 35.095 53.5869 34.924 53.2219L34.341 51.9739C33.954 52.0119 33.564 52.035 33.173 52.0239L32.702 53.3219C32.564 53.6999 32.288 54.0029 31.922 54.174 31.719 54.2689 31.501 54.3169 31.283 54.3169L31.283 54.3169Z" id="AWS-Backint-Agent_Icon_64_Squid"/></g></g></svg>