<svg width="48" height="48" viewBox="0 0 48 48" xmlns="http://www.w3.org/2000/svg" xmlns:xlink="http://www.w3.org/1999/xlink" overflow="hidden"><g id="Icon-Resource/Storage/Res_AWS-Storage-Gateway_Amazon-S3-File-Gateway_48" stroke="none" stroke-width="1" fill="none" fill-rule="evenodd"><path d="M31 7.5C27.486 5.689 23.498 4 18 4 12.189 4 8.621 5.404 5 7.5L5 46 3 46 3 7.072C3 6.752 3.17 6.456 3.446 6.294 7.308 4.031 11.507 2 18 2 24.03 2 28.648 4.279 32.203 6.111L32.511 6.27C32.812 6.425 33 6.734 33 7.072L33 16 31 16 31 7.5ZM38 37 38 45C38 45.55 37.55 46 37 46L9.914 46C9.415 46 9.012 45.596 9.011 45.098L9 26C9 25.45 9.449 25 10 25L18 25C18.229 25 18.497 25.168 18.597 25.375L19.441 26.724C19.522 26.893 19.693 27 19.88 27L27 27 27 29 19 29C18.653 29 18.5 29 18.203 28.209L17.618 27.288C17.547 27.114 17.188 27 17 27L11 27 11 44 36 44 36 37 38 37ZM35.979 32.995C32.967 32.995 32.139 32.558 31.97 32.44L30.4 23.282C32.569 23.992 35.495 24.026 36 24.026 36.506 24.026 39.438 23.992 41.608 23.28L41.046 26.635C39.688 26.14 38.234 25.449 37.417 25.057 37.219 24.46 36.662 24.026 36 24.026 35.173 24.026 34.5 24.699 34.5 25.526 34.5 26.354 35.173 27.026 36 27.026 36.22 27.026 36.427 26.976 36.615 26.891 37.544 27.335 39.187 28.113 40.71 28.637L40.073 32.432C39.894 32.554 39.034 32.995 35.979 32.995L35.979 32.995ZM36 20.026C39.137 20.026 41.155 20.611 41.829 21.026 41.155 21.442 39.137 22.026 36 22.026 32.863 22.026 30.845 21.442 30.171 21.026 30.845 20.611 32.863 20.026 36 20.026L36 20.026ZM44.933 27.773C44.804 27.107 44.17 26.587 43.177 26.02L43.986 21.192 43.975 21.19C43.979 21.134 44 21.084 44 21.026 44 18.11 36.818 18.026 36 18.026 35.182 18.026 28 18.11 28 21.026 28 21.085 28.021 21.136 28.026 21.193L28.015 21.195 30.013 32.862C30.254 34.337 32.094 34.995 35.979 34.995 39.921 34.995 41.786 34.337 42.028 32.866L42.648 29.169C42.979 29.231 43.264 29.263 43.51 29.263 44.053 29.263 44.409 29.112 44.667 28.807 44.908 28.52 45.005 28.143 44.933 27.773L44.933 27.773Z" id="Fill-1" fill="#7AA116"/></g></svg>