<svg width="80" height="80" viewBox="0 0 80 80" xmlns="http://www.w3.org/2000/svg" xmlns:xlink="http://www.w3.org/1999/xlink" overflow="hidden"><g id="Icon-Architecture/64/Arch_Amazon-FSx_64" stroke="none" stroke-width="1" fill="none" fill-rule="evenodd"><g id="Icon-Architecture-BG/64/Storage" fill="#7AA116"><rect x="0" y="0" width="80" height="80" id="Rectangle"/></g><g id="Icon-Service/64/Amazon-FSx_64" fill="#FFFFFF" transform="translate(13 26.5)"><path d="M41.536 18.534 34.693 28.365 37.779 28.365 42.926 20.569 41.536 18.534ZM50.747 28.365 54 28.365 45.911 16.432 53.277 5.783 50.234 5.783 44.412 14.402 42.854 16.639 50.747 28.365ZM43.12 12.49 38.59 5.783 35.378 5.783 41.499 14.729 43.12 12.49ZM22.265 14.307C20.299 13.513 18.855 12.566 17.935 11.466 17.015 10.367 16.556 9.009 16.556 7.392 16.556 5.194 17.316 3.412 18.836 2.047 20.355 0.683 22.355-3.55271e-15 24.834-3.55271e-15 25.958-3.55271e-15 27.139 0.139 28.379 0.418 29.617 0.696 30.786 1.087 31.885 1.59L31.885 3.617C29.279 2.663 26.967 2.186 24.948 2.186 22.981 2.186 21.474 2.63 20.427 3.517 19.379 4.406 18.855 5.67 18.855 7.313 18.855 8.241 19.015 8.989 19.335 9.558 19.653 10.128 20.178 10.645 20.905 11.108 21.634 11.572 22.675 12.069 24.029 12.598L28.13 14.228C29.969 14.97 31.31 15.877 32.153 16.951 32.996 18.023 33.418 19.368 33.418 20.984 33.418 23.343 32.581 25.25 30.908 26.707 29.234 28.164 27.03 28.893 24.297 28.893 21.461 28.893 18.932 28.336 16.709 27.223L16.709 25.197C19.391 26.204 21.857 26.707 24.105 26.707 26.225 26.707 27.919 26.19 29.183 25.157 30.448 24.124 31.08 22.72 31.08 20.945 31.08 19.858 30.735 18.931 30.046 18.162 29.355 17.394 28.244 16.706 26.712 16.096L22.265 14.307ZM0 28.217 0 0.676 14.907 0.676 14.907 2.783 2.261 2.783 2.261 13.314 12.953 13.314 12.953 15.42 2.261 15.42 2.261 28.217 0 28.217Z" id="Amazon-FSx_64_Squid"/></g></g></svg>