<svg width="80" height="80" viewBox="0 0 80 80" xmlns="http://www.w3.org/2000/svg" xmlns:xlink="http://www.w3.org/1999/xlink" overflow="hidden"><g id="Icon-Architecture/64/Arch_AWS-Mainframe-Modernization_64" stroke="none" stroke-width="1" fill="none" fill-rule="evenodd"><g id="Icon-Architecture-BG/64/Migration-Transfer" fill="#01A88D"><rect x="0" y="0" width="80" height="80" id="Rectangle"/></g><g id="Icon-Service/64/AWS-Mainframe-Modernization_64" fill="#FFFFFF" transform="translate(12 12.05)"><path d="M55.813 25.302C55.813 25.629 55.799 25.954 55.772 26.274 55.294 31.922 50.293 36.345 44.386 36.345L44.386 34.345C49.263 34.345 53.389 30.726 53.78 26.107 53.801 25.843 53.813 25.573 53.813 25.302 53.813 20.429 50.511 16.755 46.133 16.755 45.581 16.755 45.133 16.307 45.133 15.755 45.133 12.462 43.344 8.943 38.322 8.943L37.455 8.943C37.091 8.943 36.756 8.746 36.58 8.428 34.349 4.403 30.134 2 25.303 2 18.197 2 12.416 7.781 12.416 14.886 12.416 15.439 11.968 15.886 11.416 15.886 6.224 15.886 2 20.11 2 25.302 2 34.117 10.145 34.372 11.074 34.372L11.074 36.372C3.424 36.372 0 30.812 0 25.302 0 19.334 4.604 14.421 10.446 13.927 10.942 6.164 17.417 0 25.303 0 30.664 0 35.376 2.584 38.03 6.943L38.322 6.943C43.35 6.943 46.707 9.994 47.095 14.802 52.128 15.295 55.813 19.644 55.813 25.302L55.813 25.302ZM41.187 45.47 45.412 48.769 36.228 55.943 19.733 55.943 10.55 48.769 14.773 45.47 16.003 47.047 13.798 48.769 20.422 53.943 35.539 53.943 42.162 48.769 39.957 47.047 41.187 45.47ZM41.187 36.47 45.412 39.769 36.228 46.943 19.733 46.943 10.55 39.769 14.773 36.47 16.003 38.047 13.798 39.769 20.422 44.943 35.539 44.943 42.162 39.769 39.957 38.047 41.187 36.47ZM20.004 23.943 35.957 23.943 42.998 29.443 35.957 34.943 20.004 34.943 12.963 29.443 20.004 23.943ZM36.646 36.943 46.246 29.443 36.646 21.943 19.315 21.943 9.715 29.443 19.315 36.943 36.646 36.943Z" id="Fill-1"/></g></g></svg>