<svg width="80" height="80" viewBox="0 0 80 80" xmlns="http://www.w3.org/2000/svg" xmlns:xlink="http://www.w3.org/1999/xlink" fill="none" overflow="hidden"><defs><clipPath id="clip0_448_4441"><rect x="0" y="0" width="80" height="80" fill="#FFFFFF"/></clipPath></defs><g clip-path="url(#clip0_448_4441)"><rect x="0" y="0" width="80" height="80" fill="#01A88D"/><path d="M40 14.163 18 27.2255 18 53.4485 40 66.511 62 53.4485 62 27.2255 40 14.163ZM64 26.6562C64 26.3033 63.814 25.9766 63.5105 25.7964L40.5105 12.1401C40.1958 11.9533 39.8042 11.9533 39.4895 12.1401L16.4895 25.7964C16.186 25.9766 16 26.3033 16 26.6562L16 54.0178C16 54.3707 16.186 54.6975 16.4895 54.8776L39.4895 68.5339C39.8042 68.7207 40.1958 68.7207 40.5105 68.5339L63.5105 54.8776C63.814 54.6975 64 54.3707 64 54.0178L64 26.6562Z" fill="#FFFFFF" fill-rule="evenodd" clip-rule="evenodd"/><path d="M39.9996 40.5216 54.9996 31.7709 54.9998 48.5126C54.9998 48.8683 54.8109 49.1972 54.5037 49.3764L40.5037 57.5431C40.1923 57.7247 39.8073 57.7247 39.4959 57.5431L25.4959 49.3764C25.1887 49.1972 24.9998 48.8683 24.9998 48.5126L24.9998 39.7708 26.9998 40.8954 26.9998 47.9383 39.9998 55.5216 52.9998 47.9383 52.9998 35.2535 39.9996 42.837 24.9996 34.087 24.9998 31.771 39.9996 40.5216ZM31.6986 29.9948 39.9998 25.1524 48.3008 29.9947 50.2854 28.837 40.5037 23.1309C40.1923 22.9493 39.8073 22.9493 39.4959 23.1309L29.7139 28.8371 31.6986 29.9948Z" fill="#FFFFFF" fill-rule="evenodd" clip-rule="evenodd"/></g></svg>