<svg width="80" height="80" viewBox="0 0 80 80" xmlns="http://www.w3.org/2000/svg" xmlns:xlink="http://www.w3.org/1999/xlink" overflow="hidden"><g id="Icon-Architecture/64/Arch_Amazon-Braket_64" stroke="none" stroke-width="1" fill="none" fill-rule="evenodd"><g id="Icon-Architecture-BG/64/Quantum-Technologies" fill="#ED7100"><rect x="0" y="0" width="80" height="80" id="Rectangle"/></g><path d="M35.6276 61.3659C36.2936 60.8939 36.9596 60.4089 37.6276 59.9079L37.6276 65.6279 35.6276 65.6279 35.6276 61.3659ZM61.3726 35.6279 65.6276 35.6279 65.6276 37.6279 59.9176 37.6279C60.4186 36.9599 60.9006 36.2939 61.3726 35.6279L61.3726 35.6279ZM59.6276 41.6279 65.6276 41.6279 65.6276 43.6279 59.6276 43.6279 59.6276 47.6279 65.6276 47.6279 65.6276 49.6279 59.6276 49.6279 59.6276 53.6279 65.6276 53.6279 65.6276 55.6279 59.6276 55.6279 59.6276 58.6279C59.6276 59.1799 59.1806 59.6279 58.6276 59.6279L55.6276 59.6279 55.6276 65.6279 53.6276 65.6279 53.6276 59.6279 49.6276 59.6279 49.6276 65.6279 47.6276 65.6279 47.6276 59.6279 43.6276 59.6279 43.6276 65.6279 41.6276 65.6279 41.6276 59.6279 37.9966 59.6279C38.8486 58.9819 39.6976 58.3149 40.5466 57.6279L57.6276 57.6279 57.6276 40.5569C58.3146 39.7099 58.9816 38.8589 59.6276 38.0079L59.6276 41.6279ZM19.6276 55.6279 13.6276 55.6279 13.6276 53.6279 19.6276 53.6279 19.6276 49.6279 13.6276 49.6279 13.6276 47.6279 19.6276 47.6279 19.6276 43.6279 13.6276 43.6279 13.6276 41.6279 19.6276 41.6279 19.6276 37.6279 13.6276 37.6279 13.6276 35.6279 19.6276 35.6279 19.6276 31.6279 13.6276 31.6279 13.6276 29.6279 19.6276 29.6279 19.6276 25.6279 13.6276 25.6279 13.6276 23.6279 19.6276 23.6279 19.6276 20.6279C19.6276 20.0749 20.0746 19.6279 20.6276 19.6279L23.6276 19.6279 23.6276 13.6279 25.6276 13.6279 25.6276 19.6279 29.6276 19.6279 29.6276 13.6279 31.6276 13.6279 31.6276 19.6279 35.6276 19.6279 35.6276 13.6279 37.6276 13.6279 37.6276 19.6279 41.6276 19.6279 41.6276 13.6279 43.6276 13.6279 43.6276 19.6279 47.6276 19.6279 47.6276 13.6279 49.6276 13.6279 49.6276 19.6279 53.6276 19.6279 53.6276 13.6279 55.6276 13.6279 55.6276 19.6279 58.6276 19.6279C59.1806 19.6279 59.6276 20.0749 59.6276 20.6279L59.6276 27.2749C59.0396 28.2929 58.3736 29.3659 57.6276 30.4919L57.6276 21.6279 21.6276 21.6279 21.6276 57.6279 30.4926 57.6279C29.3676 58.3739 28.2936 59.0399 27.2756 59.6279L20.6276 59.6279C20.0746 59.6279 19.6276 59.1799 19.6276 58.6279L19.6276 55.6279ZM47.6276 43.6279C49.8336 43.6279 51.6276 45.4219 51.6276 47.6279 51.6276 49.8329 49.8336 51.6279 47.6276 51.6279 45.4216 51.6279 43.6276 49.8329 43.6276 47.6279 43.6276 45.4219 45.4216 43.6279 47.6276 43.6279L47.6276 43.6279ZM47.6276 53.6279C50.9366 53.6279 53.6276 50.9359 53.6276 47.6279 53.6276 46.1649 53.1006 44.8239 52.2276 43.7819 66.5446 27.9709 69.3306 17.0039 65.7906 13.4649 64.2896 11.9629 61.8816 11.6179 58.6276 12.4209L58.6276 14.4939C61.3376 13.7469 63.3686 13.8709 64.3766 14.8789 68.0686 18.5709 60.2366 31.9209 50.7036 42.4859 49.8036 41.9449 48.7526 41.6279 47.6276 41.6279 44.3186 41.6279 41.6276 44.3189 41.6276 47.6279 41.6276 48.7529 41.9446 49.8029 42.4856 50.7039 31.9006 60.2499 18.5766 68.0699 14.8786 64.3769 13.8716 63.3689 13.7476 61.3369 14.4936 58.6279L12.4206 58.6279C11.6176 61.8809 11.9636 64.2889 13.4646 65.7909 14.3636 66.6899 15.7396 67.1819 17.5516 67.1819 22.8816 67.1819 31.9846 62.9059 43.7786 52.2249 44.8206 53.0989 46.1636 53.6279 47.6276 53.6279L47.6276 53.6279Z" id="Amazon-Braket_Icon_64_Squid" fill="#FFFFFF"/></g></svg>