<svg width="48" height="48" viewBox="0 0 48 48" xmlns="http://www.w3.org/2000/svg" xmlns:xlink="http://www.w3.org/1999/xlink" overflow="hidden"><g id="Icon-Resource/Storage/Res_AWS-Backup_Virtual-Machine_48" stroke="none" stroke-width="1" fill="none" fill-rule="evenodd"><path d="M5.4146 44 10.9996 44 10.9996 46 1.9996 46 1.9996 37 3.9996 37 3.9996 42.586 9.2926 37.293 10.7066 38.708 5.4146 44ZM43.9996 37 45.9996 37 45.9996 46 36.9996 46 36.9996 44 42.5856 44 37.2926 38.707 38.7066 37.293 43.9996 42.586 43.9996 37ZM3.9996 11 1.9996 11 1.9996 2 10.9996 2 10.9996 4 5.4146 4 10.7066 9.292 9.2926 10.707 3.9996 5.414 3.9996 11ZM45.9996 2 45.9996 11 43.9996 11 43.9996 5.414 38.7066 10.707 37.2926 9.293 42.5856 4 36.9996 4 36.9996 2 45.9996 2ZM23.9996 39C22.8976 39 21.9996 38.103 21.9996 37 21.9996 35.897 22.8976 35 23.9996 35 25.1026 35 25.9996 35.897 25.9996 37 25.9996 38.103 25.1026 39 23.9996 39L23.9996 39ZM6.9996 26C5.8976 26 4.9996 25.103 4.9996 24 4.9996 22.897 5.8976 22 6.9996 22 8.1026 22 8.9996 22.897 8.9996 24 8.9996 25.103 8.1026 26 6.9996 26L6.9996 26ZM23.9996 9C25.1026 9 25.9996 9.897 25.9996 11 25.9996 12.103 25.1026 13 23.9996 13 22.8976 13 21.9996 12.103 21.9996 11 21.9996 9.897 22.8976 9 23.9996 9L23.9996 9ZM40.9996 22C42.1026 22 42.9996 22.897 42.9996 24 42.9996 25.103 42.1026 26 40.9996 26 39.8976 26 38.9996 25.103 38.9996 24 38.9996 22.897 39.8976 22 40.9996 22L40.9996 22ZM23.9996 33C23.2076 33 22.4716 33.239 21.8496 33.638L10.7586 25.319C10.9046 24.904 10.9996 24.465 10.9996 24 10.9996 23.535 10.9046 23.096 10.7586 22.681L21.8496 14.362C22.4716 14.761 23.2076 15 23.9996 15 24.7926 15 25.5276 14.761 26.1506 14.362L37.2416 22.681C37.0956 23.096 36.9996 23.535 36.9996 24 36.9996 24.465 37.0956 24.904 37.2416 25.319L26.1506 33.638C25.5276 33.239 24.7926 33 23.9996 33L23.9996 33ZM38.3586 26.981C39.0646 27.607 39.9836 28 40.9996 28 43.2066 28 44.9996 26.206 44.9996 24 44.9996 21.794 43.2066 20 40.9996 20 39.9836 20 39.0646 20.393 38.3586 21.019L27.5086 12.882C27.8116 12.318 27.9996 11.684 27.9996 11 27.9996 8.794 26.2066 7 23.9996 7 21.7936 7 19.9996 8.794 19.9996 11 19.9996 11.684 20.1886 12.318 20.4916 12.882L9.6416 21.019C8.9356 20.393 8.0166 20 6.9996 20 4.7936 20 2.9996 21.794 2.9996 24 2.9996 26.206 4.7936 28 6.9996 28 8.0166 28 8.9356 27.607 9.6416 26.981L20.4916 35.118C20.1886 35.682 19.9996 36.316 19.9996 37 19.9996 39.206 21.7936 41 23.9996 41 26.2066 41 27.9996 39.206 27.9996 37 27.9996 36.316 27.8116 35.682 27.5086 35.118L38.3586 26.981Z" id="Fill-1" fill="#7AA116"/></g></svg>