<svg width="80" height="80" viewBox="0 0 80 80" xmlns="http://www.w3.org/2000/svg" xmlns:xlink="http://www.w3.org/1999/xlink" overflow="hidden"><g id="Icon-Architecture/64/Arch_AWS-Service-Catalog_64" stroke="none" stroke-width="1" fill="none" fill-rule="evenodd"><g id="Icon-Architecture-BG/64/Management-Governance" fill="#E7157B"><rect x="0" y="0" width="80" height="80" id="Rectangle"/></g><path d="M63.726 30.349C63.339 30.498 62.927 30.574 62.5 30.574 60.571 30.574 59 29.004 59 27.074 59 25.847 59.628 24.732 60.689 24.087 61.236 23.746 61.845 23.574 62.5 23.574 64.43 23.574 66 25.144 66 27.074 66 28.523 65.09 29.837 63.726 30.349L63.726 30.349ZM62.5 21.574C61.788 21.574 61.091 21.72 60.446 21.983 59.887 21.271 59.304 20.583 58.686 19.956 53.74 14.826 47.083 12 39.944 12 32.846 12 26.207 14.805 21.249 19.896L22.683 21.292C27.26 16.59 33.391 14 39.944 14 46.536 14 52.68 16.608 57.254 21.352 57.782 21.888 58.278 22.468 58.754 23.066 57.646 24.093 57 25.523 57 27.074 57 30.107 59.468 32.574 62.5 32.574 63.174 32.574 63.83 32.453 64.437 32.218 66.569 31.419 68 29.352 68 27.074 68 24.041 65.533 21.574 62.5 21.574L62.5 21.574ZM43.435 62.72C43.321 64.559 41.787 66 39.944 66 38.101 66 36.568 64.559 36.447 62.653 36.441 62.603 36.444 62.549 36.444 62.5 36.444 60.571 38.014 59 39.944 59 41.873 59 43.444 60.571 43.444 62.5 43.444 62.552 43.447 62.611 43.435 62.72L43.435 62.72ZM63.795 34.758C63.953 35.819 64.032 36.939 64.032 38.088 64.032 48.532 57.377 57.73 47.46 60.981 46.796 61.209 46.085 61.395 45.358 61.561 44.91 58.975 42.655 57 39.944 57 36.912 57 34.444 59.468 34.444 62.5 34.444 62.632 34.447 62.78 34.457 62.844 34.637 65.735 37.047 68 39.944 68 42.589 68 44.809 66.103 45.311 63.615 46.284 63.414 47.228 63.176 48.097 62.877 58.825 59.361 66.032 49.399 66.032 38.088 66.032 36.842 65.945 35.623 65.774 34.466L63.795 34.758ZM17.5 23.574C18.118 23.574 18.724 23.74 19.26 24.057 20.35 24.69 21 25.818 21 27.074 21 29.004 19.43 30.574 17.5 30.574 17.038 30.574 16.597 30.49 16.191 30.322 14.861 29.779 14 28.504 14 27.074 14 25.144 15.571 23.574 17.5 23.574L17.5 23.574ZM15.857 38.088C15.857 36.921 15.936 35.789 16.094 34.716 16.201 33.953 16.356 33.211 16.533 32.482 16.848 32.538 17.17 32.574 17.5 32.574 20.533 32.574 23 30.107 23 27.074 23 25.126 21.952 23.307 20.272 22.332 19.435 21.836 18.476 21.574 17.5 21.574 14.468 21.574 12 24.041 12 27.074 12 29.024 13.018 30.787 14.65 31.776 14.43 32.643 14.241 33.529 14.115 34.432 13.944 35.594 13.857 36.824 13.857 38.088 13.857 49.399 21.064 59.361 31.791 62.877L32.414 60.976C22.511 57.73 15.857 48.532 15.857 38.088L15.857 38.088ZM32.973 50.986 32.973 44.192 39 40.778 39 47.572 32.973 50.986ZM24.947 40.778 30.973 44.192 30.973 50.986 24.947 47.572 24.947 40.778ZM31.973 35.665 37.971 39.062 31.973 42.459 25.976 39.062 31.973 35.665ZM32.973 27.138 39 30.552 39 37.346 32.973 33.932 32.973 27.138ZM40 22.025 45.998 25.422 40 28.819 34.002 25.422 40 22.025ZM47.028 33.932 41 37.346 41 30.552 47.028 27.138 47.028 33.932ZM54.025 39.062 48.028 42.459 42.03 39.062 48.028 35.665 54.025 39.062ZM55.054 47.572 49.028 50.986 49.028 44.192 55.054 40.778 55.054 47.572ZM47.028 50.986 41 47.572 41 40.778 47.028 44.192 47.028 50.986ZM47.535 53.572C47.688 53.659 47.858 53.702 48.028 53.702 48.198 53.702 48.368 53.659 48.521 53.572L56.547 49.025C56.861 48.848 57.054 48.516 57.054 48.155L57.054 39.062C57.054 38.702 56.861 38.37 56.547 38.192L49.028 33.932 49.028 25.422C49.028 25.062 48.834 24.73 48.521 24.552L40.494 20.005C40.187 19.832 39.814 19.832 39.507 20.005L31.48 24.552C31.166 24.73 30.973 25.062 30.973 25.422L30.973 33.932 23.454 38.192C23.14 38.37 22.947 38.702 22.947 39.062L22.947 48.155C22.947 48.516 23.14 48.848 23.454 49.025L31.48 53.572C31.787 53.745 32.16 53.745 32.466 53.572L40 49.305 47.535 53.572Z" id="AWS-Service-Catalog_Icon_64_Squid" fill="#FFFFFF"/></g></svg>