<svg width="48" height="48" viewBox="0 0 48 48" xmlns="http://www.w3.org/2000/svg" xmlns:xlink="http://www.w3.org/1999/xlink" overflow="hidden"><g id="Icon-Resource/Networking-and-Content-Delivery/Res_Amazon-Route-53_Resolver-DNS-Firewall_48" stroke="none" stroke-width="1" fill="none" fill-rule="evenodd"><path d="M23.818 35.5387C20.825 35.5387 18.078 34.0288 16.469 31.4998 15.2 29.5058 15.178 26.9268 16.414 24.7698L16.45 24.7087C17.881 22.5357 17.58 19.6268 17.139 17.7188 18.29 18.5557 19.302 20.0408 19.663 20.6877 19.853 21.0298 20.228 21.2327 20.616 21.1987 21.006 21.1677 21.342 20.9128 21.476 20.5448 22.775 16.9778 22.169 14.2697 21.267 12.4757 22.849 13.1237 24.794 14.2458 26.185 16.1268 27.831 18.3517 28.4 21.2218 27.877 24.6558 27.814 25.0627 28.007 25.4667 28.364 25.6728 28.721 25.8778 29.167 25.8447 29.488 25.5888 29.557 25.5338 30.907 24.4298 31.629 21.7997 32.091 22.5627 32.522 23.7447 32.522 25.4977 32.522 29.2477 31.391 35.5387 23.818 35.5387M31.472 18.8377C31.178 18.6807 30.826 18.6798 30.532 18.8347 30.237 18.9907 30.04 19.2827 30.005 19.6147 29.983 19.8267 29.956 20.0298 29.924 20.2248 29.639 18.2348 28.923 16.4608 27.781 14.9207 24.532 10.5448 19.033 9.71275 18.8 9.67975 18.362 9.61375 17.926 9.85775 17.746 10.2688 17.565 10.6798 17.683 11.1628 18.031 11.4467 18.157 11.5507 20.732 13.7168 20.12 17.8377 19.074 16.5597 17.479 15.1167 15.615 15.1167 15.283 15.1167 14.972 15.2817 14.787 15.5568 14.6 15.8317 14.563 16.1817 14.687 16.4897 15.191 17.7437 16.191 21.4667 14.783 23.6038 14.772 23.6197 14.723 23.7008 14.714 23.7167L14.686 23.7638C14.683 23.7677 14.681 23.7717 14.679 23.7757 13.073 26.5788 13.112 29.9508 14.782 32.5737 16.759 35.6828 20.137 37.5387 23.818 37.5387 33.751 37.5387 34.522 28.3228 34.522 25.4977 34.522 20.5298 31.596 18.9048 31.472 18.8377M34.387 38.7327C29.816 39.5537 25.918 41.7897 24.015 43.0387 22.113 41.7897 18.214 39.5537 13.643 38.7327 11.381 38.3257 4 36.5378 4 30.5987 4 28.0667 4.945 26.4377 6.041 24.5518 7.093 22.7377 8.287 20.6817 8.287 17.8927 8.287 14.3007 6.602 11.6038 5.273 10.0358 6.522 8.51375 8.27 6.37175 9.527 4.78975 11.739 6.55775 14.258 7.51975 16.717 7.51975 19.496 7.51975 21.893 6.50875 24.015 4.43575 26.137 6.50875 28.535 7.51975 31.313 7.51975 33.773 7.51975 36.292 6.55775 38.504 4.79075 39.818 6.44575 41.63 8.66175 42.757 10.0367 41.428 11.6047 39.744 14.3007 39.744 17.8927 39.744 20.6838 40.938 22.7388 41.993 24.5537 43.087 26.4398 44.031 28.0678 44.031 30.5987 44.031 36.5378 36.649 38.3257 34.387 38.7327M43.72 23.5467C42.704 21.7978 41.744 20.1448 41.744 17.8927 41.744 14.4318 43.656 11.9397 44.797 10.7638 45.15 10.3977 45.173 9.82475 44.85 9.43275 43.715 8.05375 40.917 4.64175 39.431 2.73675 39.259 2.51675 39.004 2.37775 38.724 2.35575 38.446 2.32875 38.171 2.42775 37.964 2.61775 35.939 4.48875 33.577 5.51975 31.313 5.51975 28.774 5.51975 26.693 4.50375 24.764 2.32175 24.385 1.89275 23.645 1.89275 23.266 2.32175 21.338 4.50375 19.256 5.51975 16.717 5.51975 14.454 5.51975 12.091 4.48875 10.066 2.61775 9.86 2.42775 9.586 2.32875 9.306 2.35575 9.027 2.37775 8.771 2.51675 8.599 2.73675 7.216 4.50875 4.611 7.69275 3.18 9.43275 2.857 9.82575 2.881 10.3977 3.234 10.7638 4.375 11.9397 6.287 14.4318 6.287 17.8927 6.287 20.1437 5.327 21.7967 4.31 23.5478 3.174 25.5047 2 27.5278 2 30.5987 2 38.0887 10.641 40.2248 13.29 40.7018 17.995 41.5467 21.96 44.0358 23.445 45.0667 23.617 45.1847 23.816 45.2448 24.015 45.2448 24.214 45.2448 24.414 45.1847 24.586 45.0667 26.071 44.0358 30.036 41.5467 34.741 40.7018 37.389 40.2248 46.031 38.0887 46.031 30.5987 46.031 27.5298 44.857 25.5068 43.72 23.5467" id="Fill-1" fill="#8C4FFF"/></g></svg>