<svg width="48" height="48" viewBox="0 0 48 48" xmlns="http://www.w3.org/2000/svg" xmlns:xlink="http://www.w3.org/1999/xlink" overflow="hidden"><g id="Icon-Resource/Analytics/Res_Amazon-OpenSearch-Service_OpenSearch-Dashboards_48" stroke="none" stroke-width="1" fill="none" fill-rule="evenodd"><path d="M27.54 28 29.186 28 30.985 30.436C31.213 30.744 31.599 30.898 31.973 30.825 32.35 30.755 32.653 30.476 32.754 30.106L34.243 24.687 36.837 34 24.961 34 27.54 28ZM35.199 20.667C35.079 20.234 34.686 19.935 34.236 19.935L34.234 19.935C33.785 19.936 33.391 20.236 33.272 20.67L31.371 27.591 30.496 26.406C30.308 26.151 30.009 26 29.691 26L26.882 26C26.482 26 26.121 26.238 25.963 26.605L22.784 34 21.023 34 21.023 36 41.023 36 41.023 34 38.912 34 35.199 20.667ZM11.023 36 13.023 36 13.023 23 11.023 23 11.023 36ZM15.023 36 17.023 36 17.023 21 15.023 21 15.023 36ZM7.023 36 9.023 36 9.023 28 7.023 28 7.023 36ZM14.023 14 16.023 14 16.023 12 14.023 12 14.023 14ZM10.023 14 12.023 14 12.023 12 10.023 12 10.023 14ZM6.023 14 8.023 14 8.023 12 6.023 12 6.023 14ZM4 39 4.018 17 44.023 17 44.023 38.994 4 39ZM44.023 10 44.023 15 4.019 15 4.023 10 44.023 10ZM44.146 8 3.9 8C2.865 8 2.023 8.842 2.023 9.875L2 39.128C1.998 40.154 2.834 40.994 3.87 41L44.146 40.994C45.182 40.994 46.023 40.152 46.023 39.117L46.023 9.877C46.023 8.842 45.182 8 44.146 8L44.146 8Z" id="Fill-1" fill="#8C4FFF"/></g></svg>