<svg width="48" height="48" viewBox="0 0 48 48" xmlns="http://www.w3.org/2000/svg" xmlns:xlink="http://www.w3.org/1999/xlink" overflow="hidden"><g id="Icon-Resource/Management-Governance/Res_Amazon-CloudWatch_Metrics-Insights_48" stroke="none" stroke-width="1" fill="none" fill-rule="evenodd"><path d="M19.0117 34.688 19.0027 27.92C18.0477 28.271 16.8087 28.478 15.3427 28.478 14.0667 28.478 12.3017 28.306 10.9847 27.8L10.9997 34.75C11.0497 34.806 11.5317 35.196 12.8957 35.427 13.2477 35.487 13.6227 35.532 14.0157 35.56 14.1737 35.572 14.3357 35.58 14.4997 35.586 14.8297 35.598 15.1697 35.598 15.4997 35.586 15.6637 35.58 15.8257 35.572 15.9847 35.56 16.3767 35.532 16.7517 35.487 17.1037 35.427 18.4687 35.196 18.9497 34.806 19.0117 34.688L19.0117 34.688ZM14.9997 25.015C12.9807 25.015 11.7797 25.426 11.2657 25.726 11.7667 26.02 13.1987 26.478 15.3427 26.478 17.4477 26.478 18.5107 26.027 18.8897 25.774 18.5227 25.54 17.2797 25.015 14.9997 25.015L14.9997 25.015ZM14.9997 23.015C17.9867 23.015 20.9997 23.894 20.9997 25.859L20.9997 34.75C20.9997 35.514 20.5367 36.874 17.4387 37.399 17.0277 37.469 16.5877 37.522 16.1277 37.555 15.9457 37.568 15.7597 37.578 15.5727 37.585 15.3837 37.592 15.1927 37.595 14.9997 37.595 14.8077 37.595 14.6157 37.592 14.4277 37.585 14.2407 37.578 14.0547 37.568 13.8717 37.555 13.4117 37.522 12.9727 37.469 12.5607 37.399 9.4627 36.874 8.9997 35.514 8.9997 34.75L8.9997 25.859C8.9997 23.894 12.0137 23.015 14.9997 23.015L14.9997 23.015ZM39.9997 5.5C39.9997 6.327 40.6727 7 41.4997 7 42.3267 7 42.9997 6.327 42.9997 5.5 42.9997 4.673 42.3267 4 41.4997 4 40.6727 4 39.9997 4.673 39.9997 5.5L39.9997 5.5ZM29.9997 22.5C29.9997 21.673 29.3267 21 28.4997 21 27.6727 21 26.9997 21.673 26.9997 22.5 26.9997 23.327 27.6727 24 28.4997 24 29.3267 24 29.9997 23.327 29.9997 22.5L29.9997 22.5ZM16.4997 12C17.3267 12 17.9997 11.327 17.9997 10.5 17.9997 9.673 17.3267 9 16.4997 9 15.6727 9 14.9997 9.673 14.9997 10.5 14.9997 11.327 15.6727 12 16.4997 12L16.4997 12ZM37.9997 5.5C37.9997 3.57 39.5707 2 41.4997 2 43.4297 2 44.9997 3.57 44.9997 5.5 44.9997 7.43 43.4297 9 41.4997 9 41.2757 9 41.0577 8.974 40.8457 8.934L31.7107 21.114C31.8957 21.539 31.9997 22.007 31.9997 22.5 31.9997 24.43 30.4297 26 28.4997 26 26.5707 26 24.9997 24.43 24.9997 22.5 24.9997 21.962 25.1317 21.458 25.3507 21.002L17.9987 13.65C17.5427 13.868 17.0377 14 16.4997 14 14.5707 14 12.9997 12.43 12.9997 10.5 12.9997 8.57 14.5707 7 16.4997 7 18.4297 7 19.9997 8.57 19.9997 10.5 19.9997 11.163 19.8047 11.777 19.4827 12.306L26.6937 19.517C27.2227 19.196 27.8367 19 28.4997 19 29.1927 19 29.8347 19.208 30.3787 19.557L39.0507 7.994C38.4037 7.358 37.9997 6.476 37.9997 5.5L37.9997 5.5ZM21.9997 44 23.9997 44 23.9997 41 21.9997 41 21.9997 44ZM43.0637 39 43.0497 33 22.9997 33 22.9997 31 43.0447 31 42.9997 12 44.9997 12 44.9997 39.063C44.9997 40.131 44.1307 41 43.0637 41L25.9997 41 25.9997 44 33.9997 44 33.9997 46 24.9997 46 20.9997 46 12.9997 46 12.9997 44 19.9997 44 19.9997 41 3.9517 41C2.8757 41 1.9997 40.125 1.9997 39.048L1.9997 33 1.9997 31 1.9997 27 3.9997 27 3.9997 31 6.9997 31 6.9997 33 3.9997 33 3.9997 39.048 43.0637 39ZM3.9997 18 1.9997 18 1.9997 10.937C1.9997 9.869 2.8687 9 3.9367 9L8.2647 9C9.0947 5.178 12.5007 2.305 16.5677 2.305 20.6347 2.305 24.0397 5.178 24.8697 9L33.9997 9 33.9997 11 25.0597 11C25.0397 11.886 24.8887 12.757 24.6017 13.588L22.7107 12.934C22.9477 12.251 23.0677 11.535 23.0677 10.805 23.0677 7.221 20.1517 4.305 16.5677 4.305 12.9837 4.305 10.0677 7.221 10.0677 10.805 10.0677 14.389 12.9837 17.305 16.5677 17.305 17.3277 17.305 18.0727 17.175 18.7807 16.919L19.4597 18.8C18.5327 19.135 17.5607 19.305 16.5677 19.305 14.2377 19.305 12.1247 18.361 10.5877 16.838L3.7507 24.081 2.2957 22.708 9.3357 15.25C8.5687 14.007 8.1127 12.556 8.0777 11L3.9367 11 3.9997 18Z" id="Fill-1" fill="#E7157B"/></g></svg>