<svg width="48" height="48" viewBox="0 0 48 48" xmlns="http://www.w3.org/2000/svg" xmlns:xlink="http://www.w3.org/1999/xlink" overflow="hidden"><g id="Icon-Resource/IoT/Res_AWS-IoT_Desired-State_48" stroke="none" stroke-width="1" fill="none" fill-rule="evenodd"><path d="M35.437 36.055 38.676 36.055 38.676 32.816 35.437 32.816 35.437 36.055ZM40.676 37.056C40.676 37.608 40.229 38.056 39.676 38.056L34.437 38.056C33.884 38.056 33.437 37.608 33.437 37.056L33.437 31.816C33.437 31.264 33.884 30.816 34.437 30.816L39.676 30.816C40.229 30.816 40.676 31.264 40.676 31.816L40.676 37.056ZM23.104 36.056 24.811 36.056 23.957 34.633 23.104 36.056ZM20.481 36.541 23.1 32.175C23.461 31.573 24.454 31.573 24.815 32.175L27.435 36.541C27.621 36.85 27.625 37.234 27.448 37.548 27.27 37.862 26.938 38.056 26.578 38.056L21.338 38.056C20.978 38.056 20.646 37.862 20.468 37.549 20.29 37.235 20.295 36.851 20.481 36.541ZM10.86 36.056C11.512 36.056 12.042 35.524 12.042 34.872 12.042 34.22 11.512 33.689 10.86 33.689 10.207 33.689 9.676 34.22 9.676 34.872 9.676 35.524 10.207 36.056 10.86 36.056ZM10.86 31.689C12.615 31.689 14.042 33.117 14.042 34.872 14.042 36.628 12.615 38.056 10.86 38.056 9.104 38.056 7.676 36.628 7.676 34.872 7.676 33.117 9.104 31.689 10.86 31.689ZM32.817 39.549 41.296 39.549 41.296 15.352 32.817 15.352 32.817 39.549ZM30.817 14.352C30.817 13.799 31.264 13.351 31.817 13.351L42.295 13.351C42.848 13.351 43.295 13.799 43.295 14.352L43.295 40.549C43.295 41.102 42.848 41.549 42.295 41.549L31.817 41.549C31.264 41.549 30.817 41.102 30.817 40.549L30.817 14.352ZM19.719 39.549 28.198 39.549 28.198 10.112 19.719 10.112 19.719 39.549ZM18.718 41.549C18.165 41.549 17.718 41.102 17.718 40.549L17.718 9.112C17.718 8.56 18.165 8.112 18.718 8.112L29.198 8.112C29.75 8.112 30.198 8.56 30.198 9.112L30.198 40.549C30.198 41.102 29.75 41.549 29.198 41.549L18.718 41.549ZM6.62 39.549 15.099 39.549 15.099 22.338 6.62 22.338 6.62 39.549ZM17.099 40.549C17.099 41.102 16.652 41.549 16.099 41.549L5.621 41.549C5.068 41.549 4.621 41.102 4.621 40.549L4.621 21.338C4.621 20.785 5.068 20.338 5.621 20.338L16.099 20.338C16.652 20.338 17.099 20.785 17.099 21.338L17.099 40.549ZM23.236 45.914 27.294 45.914 27.294 43.914 23.236 43.914 23.236 45.914ZM17.149 45.914 21.208 45.914 21.208 43.914 17.149 43.914 17.149 45.914ZM29.323 45.914 33.381 45.914 33.381 43.914 29.323 43.914 29.323 45.914ZM43.915 27.675 45.915 27.675 45.915 23.616 43.915 23.616 43.915 27.675ZM43.915 21.588 45.915 21.588 45.915 17.53 43.915 17.53 43.915 21.588ZM43.915 15.501 45.915 15.501 45.915 11.443 43.915 11.443 43.915 15.501ZM43.22 6.06C43.675 6.772 43.915 7.598 43.915 8.448L43.915 9.414 45.915 9.414 45.915 8.448C45.915 7.216 45.566 6.018 44.906 4.983L43.22 6.06ZM43.915 39.467C43.915 39.571 43.912 39.675 43.904 39.778L45.9 39.917C45.91 39.768 45.915 39.618 45.915 39.467L45.915 35.79 43.915 35.79 43.915 39.467ZM41.884 45.445C43.389 44.836 44.6 43.693 45.296 42.226L43.49 41.369C43.009 42.382 42.172 43.171 41.134 43.592L41.884 45.445ZM35.41 43.914 35.41 45.914 39.531 45.914 39.467 43.914 35.41 43.914ZM43.915 33.761 45.915 33.761 45.915 29.703 43.915 29.703 43.915 33.761ZM11.063 45.914 15.121 45.914 15.121 43.914 11.063 43.914 11.063 45.914ZM6.069 2.454C4.56 3.052 3.341 4.188 2.635 5.653L4.438 6.52C4.924 5.51 5.765 4.726 6.805 4.313L6.069 2.454ZM12.474 4 12.474 2 8.419 2.001 8.418 2.151 8.449 4 12.474 4ZM20.59 4 24.648 4 24.648 2 20.59 2 20.59 4ZM4.613 44.649C5.73 45.477 7.056 45.914 8.449 45.914L9.034 45.914 9.034 43.914 8.449 43.914C7.488 43.914 6.573 43.612 5.802 43.042L4.613 44.649ZM43.274 3.243C42.163 2.43 40.846 2 39.467 2L38.85 2 38.85 4 39.467 4C40.418 4 41.327 4.296 42.092 4.856L43.274 3.243ZM4 8.448C4 8.336 4.004 8.225 4.013 8.113L2.019 7.957C2.006 8.119 2 8.283 2 8.448L2 12.092 4 12.092 4 8.448ZM26.677 4 30.735 4 30.735 2 26.677 2 26.677 4ZM32.763 4 36.821 4 36.821 2 32.763 2 32.763 4ZM14.503 4 18.561 4 18.561 2 14.503 2 14.503 4ZM2 24.266 4 24.266 4 20.208 2 20.208 2 24.266ZM4 38.468 2 38.468 2 39.467C2 40.685 2.342 41.873 2.99 42.899L4.681 41.833C4.236 41.126 4 40.308 4 39.467L4 38.468ZM2 30.353 4 30.353 4 26.295 2 26.295 2 30.353ZM2 18.179 4 18.179 4 14.121 2 14.121 2 18.179ZM2 36.439 4 36.439 4 32.38 2 32.38 2 36.439Z" id="Amazon-IOT-RESOURCES-IoT-desired-state_Resource-Icon_light-bg" fill="#7AA116"/></g></svg>