<svg width="80" height="80" viewBox="0 0 80 80" xmlns="http://www.w3.org/2000/svg" xmlns:xlink="http://www.w3.org/1999/xlink" overflow="hidden"><g id="Icon-Architecture/64/Arch_Amazon-CodeCatalyst_64" stroke="none" stroke-width="1" fill="none" fill-rule="evenodd"><g id="Icon-Architecture-BG/64/Developer-Tools" fill="#C925D1"><rect x="0" y="0" width="80" height="80" id="Rectangle"/></g><path d="M63.95 49.7 60.262 47.164C61.171 44.88 61.632 42.471 61.632 39.992 61.632 37.143 61 34.308 59.798 31.74L63.402 29.152C65.113 32.495 66.013 36.22 66.013 39.992 66.013 43.384 65.32 46.644 63.95 49.7L63.95 49.7ZM64.609 27.181C64.469 26.936 64.23 26.762 63.954 26.701 63.677 26.642 63.388 26.701 63.158 26.866L57.941 30.611C57.536 30.902 57.407 31.447 57.638 31.888 58.961 34.407 59.632 37.133 59.632 39.992 59.632 42.469 59.12 44.866 58.11 47.117 57.912 47.557 58.057 48.076 58.456 48.35L63.781 52.012C63.949 52.127 64.147 52.187 64.347 52.187 64.43 52.187 64.513 52.177 64.595 52.156 64.874 52.085 65.109 51.896 65.239 51.639 67.08 48.006 68.013 44.087 68.013 39.992 68.013 35.5 66.836 31.07 64.609 27.181L64.609 27.181ZM40.04 66.012 40.04 61.075C46.447 61.065 52.529 58.104 56.508 53.101L60.582 55.904C55.673 62.243 48.07 66.002 40.04 66.012L40.04 66.012ZM14 40.007C14 26.329 24.616 15.091 38.04 14.082L38.04 19.036C27.341 20.033 18.936 29.052 18.936 40.007 18.936 50.961 27.341 59.981 38.04 60.977L38.04 65.932C24.616 64.922 14 53.685 14 40.007L14 40.007ZM59.719 23.052 55.694 25.942C51.7 21.487 46.049 18.947 40.04 18.938L40.04 14.001C47.657 14.01 54.769 17.294 59.719 23.052L59.719 23.052ZM49.858 30.131C47.25 27.53 43.708 26.054 40.007 26.054 32.318 26.054 26.063 32.306 26.055 39.993L20.937 39.993C20.945 29.484 29.496 20.937 40.007 20.937 45.384 20.937 50.447 23.176 54.058 27.116L49.858 30.131ZM40.007 53.959C44.087 53.959 47.987 52.141 50.625 49.054L54.853 51.963C51.244 56.434 45.77 59.076 40.007 59.076 30.162 59.076 22.038 51.578 21.041 41.993L26.213 41.993C27.182 48.746 32.989 53.959 40.007 53.959L40.007 53.959ZM56.854 50.912 50.99 46.879C50.545 46.572 49.939 46.674 49.62 47.108 47.339 50.191 43.835 51.959 40.007 51.959 33.416 51.959 28.054 46.597 28.054 40.007 28.054 33.416 33.416 28.054 40.007 28.054 43.437 28.054 46.708 29.534 48.979 32.115 49.319 32.5 49.895 32.567 50.313 32.267L56.115 28.101 61.754 24.053C61.976 23.893 62.123 23.65 62.161 23.379 62.199 23.108 62.124 22.833 61.954 22.619 56.6 15.87 48.6 12 40.007 12 24.563 12 12 24.564 12 40.007 12 55.45 24.563 68.013 40.007 68.013 49.034 68.013 57.561 63.615 62.817 56.248 62.972 56.03 63.034 55.758 62.987 55.494 62.941 55.23 62.791 54.995 62.569 54.844L56.854 50.912Z" id="Fill-1" fill="#FFFFFF"/></g></svg>