<svg width="48" height="48" viewBox="0 0 48 48" xmlns="http://www.w3.org/2000/svg" xmlns:xlink="http://www.w3.org/1999/xlink" overflow="hidden"><g id="Icon-Resource/Containers/Res_Amazon-Elastic-Container-Service_Task_48" stroke="none" stroke-width="1" fill="none" fill-rule="evenodd"><path d="M20.25 36.375 36 36.375 36 34.375 20.25 34.375 20.25 36.375ZM20.25 24.125 36 24.125 36 22.125 20.25 22.125 20.25 24.125ZM20.25 11.875 36 11.875 36 9.875 20.25 9.875 20.25 11.875ZM13.375 37 16.625 37 16.625 33.75 13.375 33.75 13.375 37ZM12.375 39 17.625 39C18.178 39 18.625 38.553 18.625 38L18.625 32.75C18.625 32.198 18.178 31.75 17.625 31.75L12.375 31.75C11.822 31.75 11.375 32.198 11.375 32.75L11.375 38C11.375 38.553 11.822 39 12.375 39L12.375 39ZM13.375 24.75 16.625 24.75 16.625 21.5 13.375 21.5 13.375 24.75ZM12.375 26.75 17.625 26.75C18.178 26.75 18.625 26.303 18.625 25.75L18.625 20.5C18.625 19.948 18.178 19.5 17.625 19.5L12.375 19.5C11.822 19.5 11.375 19.948 11.375 20.5L11.375 25.75C11.375 26.303 11.822 26.75 12.375 26.75L12.375 26.75ZM13.375 12.5 16.625 12.5 16.625 9.25 13.375 9.25 13.375 12.5ZM12.375 14.5 17.625 14.5C18.178 14.5 18.625 14.053 18.625 13.5L18.625 8.25C18.625 7.698 18.178 7.25 17.625 7.25L12.375 7.25C11.822 7.25 11.375 7.698 11.375 8.25L11.375 13.5C11.375 14.053 11.822 14.5 12.375 14.5L12.375 14.5ZM9 44 38.5 44 38.5 4 9 4 9 44ZM39.5 2 8 2C7.447 2 7 2.448 7 3L7 45C7 45.553 7.447 46 8 46L39.5 46C40.053 46 40.5 45.553 40.5 45L40.5 3C40.5 2.448 40.053 2 39.5 2L39.5 2Z" id="Amazon-Elastic-Container-Service_Task_Resource-Icon_light-bg" fill="#ED7100"/></g></svg>