<svg width="80" height="80" viewBox="0 0 80 80" xmlns="http://www.w3.org/2000/svg" xmlns:xlink="http://www.w3.org/1999/xlink" overflow="hidden"><g id="Icon-Architecture/64/Arch_AWS-Fargate_64" stroke="none" stroke-width="1" fill="none" fill-rule="evenodd"><g id="Icon-Architecture-BG/64/Compute" fill="#ED7100"><rect x="0" y="0" width="80" height="80" id="Rectangle"/></g><path d="M52 56.523 52 51.677 55 50.477 55 55.323 52 56.523ZM47 50.477 50 51.677 50 56.523 47 55.323 47 50.477ZM41 63.523 41 58.677 44 57.477 44 62.323 41 63.523ZM36 57.477 39 58.677 39 63.523 36 62.323 36 57.477ZM30 56.523 30 51.677 33 50.477 33 55.323 30 56.523ZM25 50.477 28 51.677 28 56.523 25 55.323 25 50.477ZM29 48.077 31.308 49 29 49.923 26.692 49 29 48.077ZM40 55.077 42.308 56 40 56.923 37.692 56 40 55.077ZM51 48.077 53.308 49 51 49.923 48.692 49 51 48.077ZM56.371 48.071 51.371 46.071C51.133 45.977 50.867 45.977 50.629 46.071L45.629 48.071C45.249 48.224 45 48.591 45 49L45 54.923 40.371 53.071C40.133 52.977 39.867 52.977 39.629 53.071L35 54.923 35 49C35 48.591 34.751 48.224 34.371 48.071L29.371 46.071C29.133 45.977 28.867 45.977 28.629 46.071L23.629 48.071C23.249 48.224 23 48.591 23 49L23 56C23 56.409 23.249 56.776 23.629 56.929L28.629 58.929C28.748 58.976 28.874 59 29 59 29.126 59 29.252 58.976 29.371 58.929L34 57.077 34 63C34 63.409 34.249 63.776 34.629 63.929L39.629 65.929C39.748 65.976 39.874 66 40 66 40.126 66 40.252 65.976 40.371 65.929L45.371 63.929C45.751 63.776 46 63.409 46 63L46 57.077 50.629 58.929C50.748 58.976 50.874 59 51 59 51.126 59 51.252 58.976 51.371 58.929L56.371 56.929C56.751 56.776 57 56.409 57 56L57 49C57 48.591 56.751 48.224 56.371 48.071L56.371 48.071ZM65 35.938C65 41.783 52.119 44.938 40 44.938 27.881 44.938 15 41.783 15 35.938 15 33.147 18.095 30.69 23.715 29.019L24.285 30.936C19.791 32.272 17 34.189 17 35.938 17 39.249 26.445 42.938 40 42.938 53.555 42.938 63 39.249 63 35.938 63 34.189 60.209 32.272 55.715 30.936L56.285 29.019C61.905 30.69 65 33.147 65 35.938L65 35.938ZM40 17.071 50.214 21 40 24.929 29.786 21 40 17.071ZM50.58 36.842C48.694 37.686 45.528 38.669 41 38.801L41 26.687 52 22.457 52 34.648C52 35.599 51.444 36.46 50.58 36.842L50.58 36.842ZM28 34.648 28 22.457 39 26.687 39 38.801C34.472 38.669 31.306 37.686 29.416 36.84 28.556 36.46 28 35.599 28 34.648L28 34.648ZM28.604 38.667C30.805 39.652 34.569 40.827 40 40.827 45.431 40.827 49.195 39.652 51.393 38.669 52.977 37.968 54 36.39 54 34.648L54 21C54 20.586 53.745 20.215 53.359 20.066L40.359 15.066C40.127 14.978 39.873 14.978 39.641 15.066L26.641 20.066C26.255 20.215 26 20.586 26 21L26 34.648C26 36.39 27.023 37.968 28.604 38.667L28.604 38.667Z" id="AWS-Fargate_Icon_64_Squid" fill="#FFFFFF"/></g></svg>