<svg width="48" height="48" viewBox="0 0 48 48" xmlns="http://www.w3.org/2000/svg" xmlns:xlink="http://www.w3.org/1999/xlink" overflow="hidden"><g id="Icon-Resource/IoT/Res_AWS-IoT_Echo_48" stroke="none" stroke-width="1" fill="none" fill-rule="evenodd"><path d="M33.9437 26.4878C31.7667 27.6348 28.1137 28.1718 24.4757 28.1718 20.8327 28.1718 17.1757 27.6338 14.9987 26.4828L14.9997 41.0268C16.1437 42.4018 19.2157 43.9018 24.4757 43.9018 29.7717 43.9018 32.8437 42.3898 33.9657 41.0098L33.9437 26.4878ZM14.9987 23.9138C14.9997 24.5358 17.9137 26.1718 24.4757 26.1718 30.8997 26.1718 33.8197 24.6068 33.9397 23.9568L33.9377 22.5538C31.7597 23.6998 28.1107 24.2358 24.4757 24.2358 20.8317 24.2358 17.1757 23.6978 14.9987 22.5458L14.9987 23.9138ZM14.9987 19.9768C14.9997 20.5988 17.9137 22.2358 24.4757 22.2358 30.8267 22.2358 33.7517 20.7038 33.9337 20.0418L33.9167 9.2578C31.7637 10.4328 28.0977 10.9828 24.4447 10.9828 20.8057 10.9828 17.1547 10.4378 14.9977 9.2728L14.9987 19.9768ZM24.4447 8.9828C30.6587 8.9828 33.5677 7.4928 33.8177 6.8178 33.7327 6.5808 33.5917 6.3608 33.3757 6.1458 31.5837 4.3608 26.2657 3.9888 24.4087 3.9998 16.8307 3.9998 15.3487 6.1138 15.0667 6.7948 15.2587 7.4598 18.1607 8.9828 24.4447 8.9828ZM35.9667 41.3588C35.9667 41.6208 35.8637 41.8738 35.6797 42.0618 34.2947 43.9438 30.6647 45.9018 24.4757 45.9018 18.1487 45.9018 14.4887 43.8478 13.1747 41.9248 13.0607 41.7588 12.9997 41.5618 12.9997 41.3608L12.9997 6.9528C13.0067 6.4338 13.3857 1.9998 24.4037 1.9998 25.1537 2.0018 32.0807 2.0358 34.7857 4.7268 35.5337 5.4718 35.9137 6.3498 35.9137 7.3378L35.9337 19.9768 35.9507 19.9768C35.9507 20.0248 35.9377 20.0698 35.9337 20.1158L35.9397 23.9138 35.9507 23.9138C35.9507 23.9458 35.9417 23.9738 35.9407 24.0048L35.9667 41.3588ZM19.1907 5.4138C20.1307 5.4138 20.8927 5.7868 20.8927 6.2468 20.8927 6.7068 20.1307 7.0798 19.1907 7.0798 18.2497 7.0798 17.4877 6.7068 17.4877 6.2468 17.4877 5.7868 18.2497 5.4138 19.1907 5.4138Z" id="Amazon-IOT-RESOURCES-Echo_Resource-Icon_light-bg" fill="#7AA116"/></g></svg>