<svg width="48" height="48" viewBox="0 0 48 48" xmlns="http://www.w3.org/2000/svg" xmlns:xlink="http://www.w3.org/1999/xlink" overflow="hidden"><g id="Icon-Resource/IoT/Res_AWS-IoT_Thing_Door-Lock_48" stroke="none" stroke-width="1" fill="none" fill-rule="evenodd"><path d="M24.7306 29.6857C24.7306 30.1037 24.3906 30.4437 23.9726 30.4437 23.5546 30.4437 23.2146 30.1037 23.2146 29.6857 23.2146 29.2677 23.5546 28.9277 23.9726 28.9277 24.3906 28.9277 24.7306 29.2677 24.7306 29.6857ZM21.2146 29.6857C21.2146 30.8527 21.9466 31.8467 22.9726 32.2487L22.9726 35.3987 24.9726 35.3987 24.9726 32.2487C25.9986 31.8467 26.7306 30.8527 26.7306 29.6857 26.7306 28.1647 25.4936 26.9277 23.9726 26.9277 22.4516 26.9277 21.2146 28.1647 21.2146 29.6857ZM20.5776 19.1387C20.5776 17.2667 22.1006 15.7437 23.9726 15.7437 25.8446 15.7437 27.3676 17.2667 27.3676 19.1387 27.3676 21.0107 25.8446 22.5327 23.9726 22.5327 22.1006 22.5327 20.5776 21.0107 20.5776 19.1387ZM18.5776 19.1387C18.5776 22.1137 20.9976 24.5327 23.9726 24.5327 26.9476 24.5327 29.3676 22.1137 29.3676 19.1387 29.3676 16.1637 26.9476 13.7437 23.9726 13.7437 20.9976 13.7437 18.5776 16.1637 18.5776 19.1387ZM30.8826 36.2867C30.8826 36.6987 30.5466 37.0347 30.1346 37.0347L17.8096 37.0347C17.3976 37.0347 17.0626 36.6987 17.0626 36.2867L17.0626 12.5357C17.0626 12.1237 17.3976 11.7887 17.8096 11.7887L30.1346 11.7887C30.5466 11.7887 30.8826 12.1237 30.8826 12.5357L30.8826 36.2867ZM17.8096 9.7887C16.2946 9.7887 15.0626 11.0217 15.0626 12.5357L15.0626 36.2867C15.0626 37.8027 16.2946 39.0347 17.8096 39.0347L30.1346 39.0347C31.6506 39.0347 32.8826 37.8027 32.8826 36.2867L32.8826 12.5357C32.8826 11.0217 31.6506 9.7887 30.1346 9.7887L17.8096 9.7887ZM39.6696 38.5367C39.6696 39.1627 39.1606 39.6717 38.5356 39.6717L9.4096 39.6717C8.7836 39.6717 8.2746 39.1627 8.2746 38.5367L8.2746 9.4227C8.2746 8.7967 8.7836 8.2877 9.4096 8.2877L38.5356 8.2877C39.1606 8.2877 39.6696 8.7967 39.6696 9.4227L39.6696 38.5367ZM45.9456 14.4257 45.9456 12.4257 41.6696 12.4257 41.6696 9.4227C41.6696 7.6947 40.2636 6.2877 38.5356 6.2877L35.5196 6.2877 35.5196 1.9997 33.5196 1.9997 33.5196 6.2877 30.2456 6.2877 30.2456 1.9997 28.2456 1.9997 28.2456 6.2877 24.9726 6.2877 24.9726 1.9997 22.9726 1.9997 22.9726 6.2877 19.6996 6.2877 19.6996 1.9997 17.6996 1.9997 17.6996 6.2877 14.4256 6.2877 14.4256 1.9997 12.4256 1.9997 12.4256 6.2877 9.4096 6.2877C7.6806 6.2877 6.2746 7.6947 6.2746 9.4227L6.2746 12.4257 1.9996 12.4257 1.9996 14.4257 6.2746 14.4257 6.2746 17.6987 1.9996 17.6987 1.9996 19.6987 6.2746 19.6987 6.2746 22.9727 1.9996 22.9727 1.9996 24.9727 6.2746 24.9727 6.2746 28.2457 1.9996 28.2457 1.9996 30.2457 6.2746 30.2457 6.2746 33.5197 1.9996 33.5197 1.9996 35.5197 6.2746 35.5197 6.2746 38.5367C6.2746 40.2657 7.6806 41.6717 9.4096 41.6717L12.4256 41.6717 12.4256 45.9457 14.4256 45.9457 14.4256 41.6717 17.6996 41.6717 17.6996 45.9457 19.6996 45.9457 19.6996 41.6717 22.9726 41.6717 22.9726 45.9457 24.9726 45.9457 24.9726 41.6717 28.2456 41.6717 28.2456 45.9457 30.2456 45.9457 30.2456 41.6717 33.5196 41.6717 33.5196 45.9457 35.5196 45.9457 35.5196 41.6717 38.5356 41.6717C40.2636 41.6717 41.6696 40.2657 41.6696 38.5367L41.6696 35.5197 45.9456 35.5197 45.9456 33.5197 41.6696 33.5197 41.6696 30.2457 45.9456 30.2457 45.9456 28.2457 41.6696 28.2457 41.6696 24.9727 45.9456 24.9727 45.9456 22.9727 41.6696 22.9727 41.6696 19.6987 45.9456 19.6987 45.9456 17.6987 41.6696 17.6987 41.6696 14.4257 45.9456 14.4257Z" id="Amazon-IOT-RESOURCES-IoT-thing-door-lock_Resource-Icon_light-bg" fill="#7AA116"/></g></svg>