<svg width="80" height="80" viewBox="0 0 80 80" xmlns="http://www.w3.org/2000/svg" xmlns:xlink="http://www.w3.org/1999/xlink" overflow="hidden"><g id="Icon-Architecture/64/Arch_AWS-Elastic-Beanstalk_64" stroke="none" stroke-width="1" fill="none" fill-rule="evenodd"><g id="Icon-Architecture-BG/64/Compute" fill="#ED7100"><rect x="0" y="0" width="80" height="80" id="Rectangle"/></g><path d="M50.4868 45.9605C50.4868 44.3029 49.1426 42.9539 47.4908 42.9539 45.8389 42.9539 44.4947 44.3029 44.4947 45.9605 44.4947 47.6181 45.8389 48.9671 47.4908 48.9671 49.1426 48.9671 50.4868 47.6181 50.4868 45.9605M39.5013 35.9386C41.1531 35.9386 42.4974 34.5896 42.4974 32.932 42.4974 31.2744 41.1531 29.9254 39.5013 29.9254 37.8495 29.9254 36.5053 31.2744 36.5053 32.932 36.5053 34.5896 37.8495 35.9386 39.5013 35.9386M30.5132 46.9627C32.165 46.9627 33.5092 45.6138 33.5092 43.9561 33.5092 42.2985 32.165 40.9496 30.5132 40.9496 28.8614 40.9496 27.5171 42.2985 27.5171 43.9561 27.5171 45.6138 28.8614 46.9627 30.5132 46.9627M52.4842 45.9605C52.4842 48.3808 50.7654 50.4042 48.4894 50.8703L48.4894 56.9846C48.4894 57.5379 48.043 57.9868 47.4908 57.9868L40.5 57.9868 40.5 64 38.5026 64 38.5026 52.9759 30.5132 52.9759C29.9609 52.9759 29.5145 52.5269 29.5145 51.9737L29.5145 48.8659C27.2385 48.3999 25.5198 46.3764 25.5198 43.9561 25.5198 41.1931 27.7598 38.9452 30.5132 38.9452 33.2666 38.9452 35.5066 41.1931 35.5066 43.9561 35.5066 46.3764 33.7879 48.3999 31.5119 48.8659L31.5119 50.9715 38.5026 50.9715 38.5026 37.8418C36.2266 37.3757 34.5079 35.3523 34.5079 32.932 34.5079 30.169 36.748 27.921 39.5013 27.921 42.2547 27.921 44.4947 30.169 44.4947 32.932 44.4947 35.3523 42.776 37.3757 40.5 37.8418L40.5 55.9825 46.4921 55.9825 46.4921 50.8703C44.2161 50.4042 42.4974 48.3808 42.4974 45.9605 42.4974 43.1975 44.7374 40.9496 47.4908 40.9496 50.2441 40.9496 52.4842 43.1975 52.4842 45.9605M67 41.0117C67 48.3548 61.5442 50.9715 56.4389 50.9715L56.4389 48.9671C59.0135 48.9671 65.0026 48.1914 65.0026 41.0117 65.0026 35.6399 60.932 33.6927 57.5175 33.0052 57.0721 32.916 56.7435 32.5361 56.7166 32.0822 56.4689 27.8749 54.0261 26.3817 52.0078 26.3817 50.6436 26.3817 49.3643 27.0341 48.4984 28.1726 48.2777 28.4642 47.9142 28.6126 47.5547 28.5564 47.1952 28.5023 46.8926 28.2548 46.7667 27.911 45.9848 25.7794 44.8622 23.9935 43.4291 22.6024 39.747 19.0196 34.7106 18.0474 29.9549 20.0047 26.0061 21.6183 22.9142 26.2835 22.9142 30.626 22.9142 31.106 22.9432 31.5881 23.0021 32.0591 23.064 32.5632 22.7415 33.0342 22.2511 33.1555 19.9152 33.7358 15.9974 35.5177 15.9974 40.9365 15.9974 41.142 16.0063 41.3384 16.0163 41.5238 16.25 45.6959 19.9332 48.9671 24.4023 48.9671L25.5198 48.9671 25.5198 50.9715 24.4023 50.9715C18.8746 50.9715 14.3146 46.8695 14.022 41.6331 14.011 41.4106 14 41.1791 14 40.9365 14 34.6397 18.3513 32.2876 20.9408 31.4478 20.9239 31.1742 20.9169 30.8996 20.9169 30.626 20.9169 25.4416 24.4782 20.0779 29.2009 18.1497 34.7096 15.8837 40.5489 17.0082 44.8183 21.1623 46.1316 22.436 47.2141 23.9864 48.048 25.7844 49.1735 24.8774 50.5547 24.3773 52.0078 24.3773 54.9669 24.3773 58.0768 26.4959 58.643 31.2032 64.0399 32.5241 67 35.9847 67 41.0117" id="AWS-Elastic-Beanstalk_Icon_64_Squid" fill="#FFFFFF"/></g></svg>