<svg width="48" height="48" viewBox="0 0 48 48" xmlns="http://www.w3.org/2000/svg" xmlns:xlink="http://www.w3.org/1999/xlink" overflow="hidden"><g id="Icon-Resource/Management-Governance/Res_Amazon-CloudWatch_Event-Event-Based_48" stroke="none" stroke-width="1" fill="none" fill-rule="evenodd"><path d="M34.522 40.526 41.278 40.526 41.278 19.76 34.522 19.76 34.522 40.526ZM33.522 17.76C32.969 17.76 32.522 18.208 32.522 18.76L32.522 41.526C32.522 42.079 32.969 42.526 33.522 42.526L42.278 42.526C42.831 42.526 43.278 42.079 43.278 41.526L43.278 18.76C43.278 18.208 42.831 17.76 42.278 17.76L33.522 17.76ZM32.77 4.417C32.77 4.187 32.958 4 33.188 4L42.612 4C42.842 4 43.029 4.187 43.029 4.417L43.029 13.841C43.029 14.071 42.842 14.258 42.612 14.258L33.188 14.258C32.958 14.258 32.77 14.071 32.77 13.841L32.77 4.417ZM33.188 16.258 42.612 16.258C43.945 16.258 45.029 15.174 45.029 13.841L45.029 4.417C45.029 3.084 43.945 2 42.612 2L33.188 2C31.855 2 30.77 3.084 30.77 4.417L30.77 13.841C30.77 15.174 31.855 16.258 33.188 16.258L33.188 16.258ZM2 46.029 45.78 46.029 45.78 44.029 2 44.029 2 46.029ZM20.512 40.526 27.268 40.526 27.268 27.641 20.512 27.641 20.512 40.526ZM19.512 42.526 28.268 42.526C28.821 42.526 29.268 42.079 29.268 41.526L29.268 26.641C29.268 26.089 28.821 25.641 28.268 25.641L19.512 25.641C18.96 25.641 18.512 26.089 18.512 26.641L18.512 41.526C18.512 42.079 18.96 42.526 19.512 42.526L19.512 42.526ZM6.503 40.526 13.259 40.526 13.259 23.263 6.503 23.263 6.503 40.526ZM5.503 42.526 14.259 42.526C14.811 42.526 15.259 42.079 15.259 41.526L15.259 22.263C15.259 21.711 14.811 21.263 14.259 21.263L5.503 21.263C4.95 21.263 4.503 21.711 4.503 22.263L4.503 41.526C4.503 42.079 4.95 42.526 5.503 42.526L5.503 42.526Z" id="Amazon-Cloudwatch_Event-event-based_Resource-Icon_light-bg" fill="#E7157B"/></g></svg>