<svg width="48" height="48" viewBox="0 0 48 48" xmlns="http://www.w3.org/2000/svg" xmlns:xlink="http://www.w3.org/1999/xlink" overflow="hidden"><g id="Icon-Resource/Storage/Res_Amazon-Simple-Storage-Service_S3-On-Outposts_48" stroke="none" stroke-width="1" fill="none" fill-rule="evenodd"><path d="M42.416 22.305C42.206 21.444 37.853 19.487 31.461 19.487 25.069 19.487 20.717 21.444 20.507 22.305L20.515 22.363C20.858 23.228 25.154 24.754 31.461 24.754 37.704 24.754 41.971 23.259 42.391 22.39L42.397 22.338 42.411 22.34 42.416 22.305ZM42.037 25.015C39.16 26.343 34.353 26.754 31.461 26.754 28.562 26.754 23.745 26.341 20.871 25.008L21.901 32.656C22.672 32.939 23.395 33.396 24.03 34.024 24.396 34.386 24.717 34.799 24.989 35.26 25.601 34.988 26.292 34.935 26.959 35.131 28.064 35.459 28.84 36.371 29.114 37.631 29.562 37.778 30.006 37.986 30.4 38.236 31.768 39.101 32.461 40.234 32.461 41.604 32.461 42.529 32.25 43.323 31.853 43.991 33.695 43.965 35.516 43.771 37.015 43.425 37.631 43.283 38.174 43.12 38.631 42.939 39.336 42.66 39.631 42.413 39.709 42.313 39.71 42.294 39.713 42.275 39.715 42.256L40.785 34.305C37.887 33.384 34.217 31.726 32.24 30.797 32.021 30.923 31.77 31 31.5 31 30.673 31 30 30.327 30 29.5 30 28.673 30.673 28 31.5 28 32.104 28 32.624 28.362 32.861 28.879 34.43 29.619 38.141 31.324 41.057 32.29L42.037 25.015ZM30.461 41.604C30.461 41.128 30.326 40.556 29.33 39.925 28.938 39.677 28.457 39.487 28.042 39.417 27.536 39.331 27.184 38.88 27.21 38.379 27.143 37.676 26.84 37.181 26.391 37.049 26.029 36.943 25.655 37.08 25.411 37.407 25.189 37.701 24.821 37.846 24.462 37.795 24.099 37.741 23.794 37.491 23.67 37.144 23.425 36.461 23.073 35.889 22.625 35.447 22.222 35.049 21.301 34.314 19.996 34.314 19.537 34.314 19.031 34.405 18.483 34.633 17.305 35.124 16.346 36.598 16.346 37.919 16.346 38.071 16.354 38.22 16.373 38.366 16.436 38.867 16.114 39.337 15.624 39.46 14.82 39.662 13.862 40.211 13.862 41.681 13.862 42.878 14.523 43.534 15.078 43.875 15.212 43.957 15.368 44 15.531 44L28.122 44.013 28.127 44.013C28.518 44.011 30.461 43.879 30.461 41.604L30.461 41.604ZM14.348 37.786C14.406 35.702 15.834 33.571 17.714 32.787 18.418 32.494 19.134 32.355 19.84 32.334L18.543 22.709 18.544 22.709C18.543 22.708 18.543 22.707 18.543 22.705L18.511 22.459C18.505 22.416 18.502 22.373 18.502 22.329 18.502 20.954 19.933 19.825 22.074 19L22 19 22 5C22 4.449 21.552 4 21 4L5 4C4.448 4 4 4.449 4 5L4 40C4 40.552 4.448 41 5 41L11.909 41C12.111 39.523 12.98 38.38 14.348 37.786L14.348 37.786ZM15.529 46C14.996 45.999 14.479 45.854 14.032 45.579 13.401 45.192 12.444 44.389 12.049 43L8 43 8 46 6 46 6 43 5 43C3.346 43 2 41.655 2 40L2 5C2 3.346 3.346 2 5 2L21 2C22.654 2 24 3.346 24 5L24 18.389C26.234 17.807 28.887 17.487 31.461 17.487 37.693 17.487 44.421 19.339 44.421 22.329 44.421 22.373 44.418 22.416 44.412 22.459L44.38 22.705C44.375 22.747 44.367 22.788 44.356 22.829 44.354 22.838 44.349 22.845 44.347 22.853L43.312 30.529C45.008 31.518 45.819 32.314 45.974 33.137 46.058 33.586 45.941 34.025 45.648 34.374 45.308 34.78 44.796 34.981 44.048 34.981 43.674 34.981 43.233 34.925 42.733 34.825L41.704 42.469C41.663 43.418 40.877 44.202 39.366 44.799 38.816 45.017 38.176 45.21 37.464 45.373 35.716 45.778 33.584 46 31.461 46L28.131 46 15.529 46ZM8 19 19 19 19 17 8 17 8 19ZM8 24 16 24 16 22 8 22 8 24ZM8 14 19 14 19 12 8 12 8 14Z" id="Fill-4" fill="#7AA116"/></g></svg>