<svg width="48" height="48" viewBox="0 0 48 48" xmlns="http://www.w3.org/2000/svg" xmlns:xlink="http://www.w3.org/1999/xlink" overflow="hidden"><g id="Icon-Resource/Storage/Res_AWS-Backup_Compliance-Reporting_48" stroke="none" stroke-width="1" fill="none" fill-rule="evenodd"><path d="M15.271 10 32.55 10 31.3 6 26.815 6C26.401 7.162 25.301 8 24 8 22.698 8 21.598 7.162 21.184 6L16.521 6 15.271 10ZM23 5C23 5.551 23.448 6 24 6 24.551 6 25 5.551 25 5 25 4.449 24.551 4 24 4 23.448 4 23 4.449 23 5L23 5ZM13.105 11.592C12.917 11.336 12.861 11.005 12.957 10.702L14.832 4.702C14.961 4.284 15.348 4 15.786 4L21.184 4C21.598 2.838 22.698 2 24 2 25.301 2 26.401 2.838 26.815 4L32.036 4C32.473 4 32.86 4.284 32.99 4.702L34.865 10.702C34.96 11.005 34.905 11.336 34.716 11.592 34.528 11.849 34.229 12 33.911 12L13.911 12C13.592 12 13.293 11.849 13.105 11.592L13.105 11.592ZM39 6 36 6 36 8 39 8C39.551 8 40 8.449 40 9L40 43C40 43.551 39.551 44 39 44L9 44C8.448 44 8 43.551 8 43L8 9C8 8.449 8.448 8 9 8L12 8 12 6 9 6C7.345 6 6 7.346 6 9L6 43C6 44.654 7.345 46 9 46L39 46C40.654 46 42 44.654 42 43L42 9C42 7.346 40.654 6 39 6L39 6ZM14.5 27.5C14.5 32.738 18.761 37 24 37 29.238 37 33.5 32.738 33.5 27.5 33.5 22.262 29.238 18 24 18 18.761 18 14.5 22.262 14.5 27.5L14.5 27.5ZM12.5 27.5C12.5 21.159 17.659 16 24 16 30.34 16 35.5 21.159 35.5 27.5 35.5 33.841 30.34 39 24 39 17.659 39 12.5 33.841 12.5 27.5L12.5 27.5ZM21.26 31.745 18.002 28.487 19.417 27.073 21.967 29.624 28.248 23.343 29.662 24.757 22.674 31.745C22.487 31.933 22.233 32.038 21.967 32.038 21.702 32.038 21.448 31.933 21.26 31.745L21.26 31.745Z" id="Fill-1" fill="#7AA116"/></g></svg>