<svg width="80" height="80" viewBox="0 0 80 80" xmlns="http://www.w3.org/2000/svg" xmlns:xlink="http://www.w3.org/1999/xlink" overflow="hidden"><g id="Icon-Architecture/64/Arch_AWS-Network-Firewall_64" stroke="none" stroke-width="1" fill="none" fill-rule="evenodd"><g id="Icon-Architecture-BG/64/Security-Identity-Compliance" fill="#DD344C"><rect x="0" y="0" width="80" height="80" id="Rectangle"/></g><g id="Icon-Service/64/AWS-Network-Firewall_64" fill="#FFFFFF" transform="translate(12 12.3)"><path d="M54 45.7047 45 45.7047 42 45.7047 42 39.7047 51 39.7047 54 39.7047 54 45.7047ZM44 53.7047 32 53.7047 32 47.7047 41 47.7047 44 47.7047 44 53.7047ZM22.591 51.6907C18.422 51.6907 14.595 49.5877 12.354 46.0657 10.565 43.2557 10.534 39.6287 12.275 36.5947L12.33 36.4967C14.422 33.3217 13.672 28.9107 13.004 26.4777 14.923 27.4637 16.661 29.9747 17.278 31.0817 17.47 31.4237 17.85 31.6227 18.231 31.5927 18.622 31.5617 18.958 31.3067 19.092 30.9387 21.009 25.6727 19.723 21.7847 18.314 19.4557 19.568 19.8887 21.1 20.5407 22.616 21.4967 27.231 24.4067 29.571 28.6587 29.571 34.1337 29.571 34.4057 29.683 34.6667 29.88 34.8557 30.076 35.0437 30.341 35.1397 30.614 35.1327 31.808 35.0807 33.963 34.1637 34.96 31.2607 34.985 31.3967 35 31.5447 35 31.7047L35 37.7047 26 37.7047C25.447 37.7047 25 38.1527 25 38.7047L25 46.7047C25 47.2567 25.447 47.7047 26 47.7047L30 47.7047 30 49.2547C28.271 50.8017 25.605 51.6907 22.591 51.6907L22.591 51.6907ZM6.168 33.9477C4.267 32.6597 2 30.2217 2 25.9207 2 19.9647 6.144 18.0117 8.613 17.3777 9.076 17.2587 9.391 16.8277 9.362 16.3507L9.265 14.7117C9.265 9.96668 12.533 4.86068 16.706 3.08768 23.925 0.0236767 29.041 4.05268 30.904 5.92868 32.423 7.45568 33.607 9.40768 34.425 11.7277 34.548 12.0777 34.854 12.3297 35.221 12.3847 35.584 12.4397 35.954 12.2867 36.173 11.9887 37.409 10.3107 39.541 9.61168 41.47 10.2447 43.64 10.9577 44.891 13.0747 44.91 16.0577L44.904 16.0947C44.828 16.6297 45.191 17.1297 45.725 17.2217 47.606 17.5457 53.745 19.1367 53.745 26.0037 53.745 28.2047 53.158 30.0317 52 31.4617L52 30.7047C52 30.1527 51.553 29.7047 51 29.7047L36.494 29.7047C35.876 28.5847 34.902 28.1077 34.843 28.0797 34.55 27.9467 34.21 27.9637 33.932 28.1217 33.653 28.2817 33.468 28.5657 33.435 28.8857 33.188 31.2337 32.266 32.2867 31.524 32.7567 31.049 25.8507 27.028 21.8977 23.622 19.7667 19.752 17.3457 15.925 16.7397 15.764 16.7147 15.317 16.6447 14.882 16.8867 14.699 17.2997 14.517 17.7127 14.635 18.1977 14.985 18.4817 15.172 18.6337 19.139 21.9487 17.794 28.2497 16.457 26.4737 14.156 24.0707 11.495 24.0707 11.163 24.0707 10.854 24.2357 10.667 24.5107 10.481 24.7857 10.443 25.1347 10.567 25.4427 10.591 25.5027 12.785 31.0997 11 34.7827L11 34.7047 8.635 34.7047C7.753 34.7047 6.9 34.4427 6.168 33.9477L6.168 33.9477ZM41 37.7047 37 37.7047 37 31.7047 50 31.7047 50 37.7047 41 37.7047ZM40 45.7047 31 45.7047 27 45.7047 27 39.7047 36 39.7047 40 39.7047 40 45.7047ZM55 37.7047 52 37.7047 52 34.2317C54.446 32.3147 55.745 29.4767 55.745 26.0037 55.745 18.4187 49.747 16.0947 46.89 15.4197 46.684 11.8927 44.924 9.27468 42.094 8.34468 39.877 7.61668 37.482 8.11368 35.722 9.57468 34.852 7.61168 33.712 5.91568 32.322 4.51768 27.842 0.0116767 21.713-1.21232 15.925 1.24668 10.987 3.34368 7.265 9.13268 7.267 14.7707L7.319 15.6737C4.624 16.5597 0 19.0797 0 25.9207 0 31.3717 3.162 34.3267 5.047 35.6037 6.111 36.3237 7.353 36.7047 8.635 36.7047L9.999 36.7047C8.475 40.1387 8.691 44.0357 10.666 47.1397 13.276 51.2417 17.734 53.6907 22.591 53.6907 25.41 53.6907 28.002 52.9977 30 51.7517L30 54.7047C30 55.2567 30.447 55.7047 31 55.7047L45 55.7047C45.553 55.7047 46 55.2567 46 54.7047L46 47.7047 55 47.7047C55.553 47.7047 56 47.2567 56 46.7047L56 38.7047C56 38.1527 55.553 37.7047 55 37.7047L55 37.7047Z" id="Fill-1"/></g></g></svg>