<svg width="48" height="48" viewBox="0 0 48 48" xmlns="http://www.w3.org/2000/svg" xmlns:xlink="http://www.w3.org/1999/xlink" overflow="hidden"><g id="Icon-Resource/Security-Identity-and-Compliance/Res_AWS-WAF_Bad-Bot_48" stroke="none" stroke-width="1" fill="none" fill-rule="evenodd"><path d="M24 35C21.586 35 19.565 33.279 19.102 31L28.898 31C28.435 33.279 26.414 35 24 35L24 35ZM24 25C26.414 25 28.435 26.721 28.898 29L19.102 29C19.565 26.721 21.586 25 24 25L24 25ZM24 23C20.141 23 17 26.14 17 30 17 33.86 20.141 37 24 37 27.859 37 31 33.86 31 30 31 26.14 27.859 23 24 23L24 23ZM34 30C34 34.962 29.963 39 25 39L23 39C18.037 39 14 34.962 14 30 14 25.038 18.037 21 23 21L25 21C27.031 21 28.9 21.684 30.408 22.823L30.518 22.993 30.581 22.952C32.66 24.603 34 27.146 34 30L34 30ZM22.291 17 25.707 17C27.131 17 28.332 18.126 28.779 19.683 27.599 19.249 26.329 19 25 19L23 19C21.67 19 20.4 19.249 19.219 19.684 19.666 18.126 20.867 17 22.291 17L22.291 17ZM22 8C22 6.897 22.897 6 24 6 25.103 6 26 6.897 26 8 26 9.103 25.103 10 24 10 22.897 10 22 9.103 22 8L22 8ZM46 17 46 15 39.221 15 30.942 20.34C30.652 17.341 28.416 15 25.707 15L25 15 25 11.858C26.721 11.411 28 9.858 28 8 28 5.794 26.206 4 24 4 21.794 4 20 5.794 20 8 20 9.858 21.279 11.411 23 11.858L23 15 22.291 15C19.453 15 17.139 17.57 17.032 20.772 16.997 20.796 16.958 20.816 16.923 20.839L9.49 15 2 15 2 17 8.799 17 15.329 22.131C14.477 22.962 13.763 23.931 13.214 25L2 25 2 27 12.427 27C12.155 27.955 12 28.959 12 30 12 30.684 12.071 31.351 12.191 32L2 32 2 34 12.764 34C13.333 35.452 14.196 36.756 15.289 37.833L8.212 42 2 42 2 44 8.757 44 16.949 39.177C18.687 40.326 20.766 41 23 41L25 41C27.216 41 29.277 40.336 31.006 39.204L38.565 44 46 44 46 42 39.146 42 32.656 37.882C33.774 36.796 34.657 35.475 35.236 34L46 34 46 32 35.809 32C35.929 31.351 36 30.684 36 30 36 28.959 35.845 27.955 35.573 27L46 27 46 25 34.786 25C34.167 23.794 33.332 22.721 32.332 21.823L39.811 17 46 17Z" id="Fill-1" fill="#DD344C"/></g></svg>