<svg width="48" height="48" viewBox="0 0 48 48" xmlns="http://www.w3.org/2000/svg" xmlns:xlink="http://www.w3.org/1999/xlink" overflow="hidden"><g id="Icon-Resource/Quantum-Technologies/Res_Amazon-Braket_State-Vector_48" stroke="none" stroke-width="1" fill="none" fill-rule="evenodd"><path d="M19.22 25.571C18.236 25.793 17.155 25.926 16 25.976L16 33 14 33 14 25.966C10.235 25.802 7.301 24.716 5.293 22.707 2.985 20.399 2 18.094 2 15L2 4 4 4 4 15C4 17.58 4.759 19.344 6.707 21.293 8.336 22.923 10.793 23.815 14 23.968L14 4 16 4 16 23.976C17.003 23.929 17.936 23.81 18.781 23.62L19.22 25.571ZM27.101 19.421 25.286 18.578C25.774 17.531 26 16.394 26 15L26 4 28 4 28 15C28 16.673 27.706 18.119 27.101 19.421L27.101 19.421ZM39.296 29.35C39.574 29.571 39.841 29.793 40.101 30.017 39.842 30.24 39.574 30.463 39.296 30.683 39.301 30.461 39.309 30.238 39.309 30.017 39.309 29.792 39.3 29.572 39.296 29.35L39.296 29.35ZM36.795 35.724C36.477 35.613 36.156 35.494 35.83 35.365 36.022 35.259 36.213 35.158 36.405 35.048 36.596 34.937 36.782 34.821 36.969 34.708 36.916 35.058 36.859 35.396 36.795 35.724L36.795 35.724ZM33.5 42C32.601 42 31.468 40.426 30.672 37.687 31.593 37.373 32.542 36.986 33.498 36.547 34.459 36.989 35.407 37.369 36.329 37.684 35.533 40.425 34.4 42 33.5 42L33.5 42ZM30.032 34.708C30.219 34.821 30.405 34.937 30.596 35.048 30.79 35.16 30.985 35.262 31.18 35.37 30.852 35.499 30.528 35.618 30.206 35.731 30.143 35.401 30.084 35.06 30.032 34.708L30.032 34.708ZM26.9 30.017C27.158 29.794 27.426 29.571 27.704 29.35 27.699 29.573 27.692 29.795 27.692 30.017 27.692 30.238 27.699 30.461 27.704 30.683 27.426 30.463 27.158 30.24 26.9 30.017L26.9 30.017ZM23.123 24.026C23.437 23.483 24.646 23.053 27.081 23.468 27.471 23.534 27.876 23.626 28.288 23.728 28.096 24.696 27.953 25.713 27.854 26.747 26.99 27.36 26.174 27.992 25.436 28.636 25.146 28.335 24.868 28.033 24.619 27.733 23.038 25.827 22.81 24.568 23.123 24.026L23.123 24.026ZM31.179 24.664C30.985 24.772 30.789 24.875 30.596 24.987 30.405 25.097 30.219 25.213 30.032 25.326 30.084 24.974 30.143 24.634 30.206 24.303 30.528 24.416 30.851 24.535 31.179 24.664L31.179 24.664ZM37.309 30.017C37.309 30.767 37.28 31.483 37.236 32.175 36.647 32.567 36.038 32.949 35.405 33.315 34.772 33.681 34.136 34.016 33.504 34.33 32.867 34.015 32.229 33.68 31.596 33.315 30.962 32.949 30.354 32.567 29.765 32.175 29.721 31.483 29.692 30.767 29.692 30.017 29.692 29.266 29.721 28.551 29.765 27.859 30.354 27.467 30.962 27.085 31.596 26.719 32.231 26.353 32.866 26.016 33.5 25.702 34.134 26.016 34.77 26.353 35.405 26.719 36.037 27.085 36.646 27.467 37.235 27.858 37.28 28.567 37.309 29.286 37.309 30.017L37.309 30.017ZM36.794 24.303C36.858 24.637 36.916 24.977 36.968 25.325 36.78 25.213 36.596 25.097 36.405 24.987 36.211 24.875 36.016 24.772 35.822 24.664 36.15 24.535 36.473 24.415 36.794 24.303L36.794 24.303ZM39.919 23.468C42.358 23.053 43.565 23.484 43.877 24.026 44.191 24.568 43.962 25.827 42.381 27.733 42.132 28.033 41.854 28.335 41.564 28.637 40.829 27.994 40.018 27.364 39.156 26.754 39.058 25.697 38.913 24.683 38.724 23.725 39.132 23.624 39.533 23.534 39.919 23.468L39.919 23.468ZM43.009 30.017C43.332 29.681 43.642 29.345 43.92 29.01 46.427 25.988 46.223 24.088 45.61 23.026 44.996 21.964 43.452 20.837 39.582 21.497 39.153 21.57 38.707 21.67 38.254 21.782 38.074 21.162 37.879 20.568 37.657 20.023L35.805 20.778C36 21.257 36.174 21.788 36.334 22.345 35.41 22.66 34.459 23.048 33.5 23.488 32.543 23.049 31.594 22.662 30.672 22.347 31.468 19.608 32.601 18.034 33.5 18.034 33.983 18.034 34.442 18.483 34.741 18.86L36.306 17.613C35.265 16.308 34.205 16.034 33.5 16.034 31.32 16.034 29.724 18.446 28.761 21.786 28.304 21.673 27.853 21.571 27.418 21.497 23.551 20.838 22.004 21.964 21.391 23.026 20.778 24.087 20.574 25.988 23.08 29.01 23.358 29.345 23.667 29.681 23.991 30.016 23.681 30.338 23.384 30.66 23.116 30.981L24.651 32.263C24.891 31.975 25.157 31.686 25.436 31.397 26.174 32.042 26.989 32.674 27.854 33.287 27.953 34.321 28.096 35.338 28.288 36.306 27.876 36.408 27.471 36.5 27.081 36.566 24.644 36.98 23.437 36.551 23.123 36.008 22.827 35.496 23.136 34.669 23.346 34.222L21.535 33.371C20.703 35.143 20.997 36.327 21.391 37.009 21.877 37.851 22.949 38.734 25.302 38.734 25.916 38.734 26.617 38.674 27.418 38.537 27.853 38.463 28.304 38.362 28.762 38.248 29.724 41.588 31.32 44 33.5 44 35.68 44 37.277 41.588 38.239 38.248 38.879 38.406 39.503 38.535 40.097 38.616L40.366 36.634C39.844 36.564 39.287 36.447 38.713 36.303 38.906 35.336 39.047 34.32 39.147 33.287 40.012 32.675 40.826 32.042 41.564 31.397 41.854 31.699 42.132 32.001 42.381 32.301 43.962 34.207 44.191 35.466 43.877 36.008 43.63 36.436 42.991 36.608 42.496 36.677L42.776 38.658C44.467 38.42 45.25 37.63 45.61 37.009 46.223 35.946 46.427 34.047 43.92 31.024 43.642 30.689 43.332 30.353 43.009 30.017L43.009 30.017Z" id="Fill-1" fill="#ED7100"/></g></svg>