<svg width="48" height="48" viewBox="0 0 48 48" xmlns="http://www.w3.org/2000/svg" xmlns:xlink="http://www.w3.org/1999/xlink" overflow="hidden"><g id="Icon-Resource/Migration-and-Transfer/Res_AWS-DataSync_Discovery_48" stroke="none" stroke-width="1" fill="none" fill-rule="evenodd"><path d="M13.0081 28.0373 13.0081 10.0373 19.0081 10.0373 19.0081 15.0373C19.0081 15.5893 19.4551 16.0373 20.0081 16.0373L25.0081 16.0373 25.0081 28.0373 13.0081 28.0373ZM21.0081 11.4513 23.5941 14.0373 21.0081 14.0373 21.0081 11.4513ZM20.0081 8.03729 12.0081 8.03729C11.4551 8.03729 11.0081 8.48529 11.0081 9.03729L11.0081 29.0373C11.0081 29.5893 11.4551 30.0373 12.0081 30.0373L26.0081 30.0373C26.5611 30.0373 27.0081 29.5893 27.0081 29.0373L27.0081 15.0373C27.0081 14.7723 26.9031 14.5173 26.7151 14.3303L20.7151 8.33029C20.5281 8.14229 20.2741 8.03729 20.0081 8.03729L20.0081 8.03729ZM33.0081 12.0373 46.0081 12.0373 46.0081 10.0373 33.0081 10.0373 33.0081 12.0373ZM29.0081 16.0373 37.0081 16.0373 37.0081 14.0373 29.0081 14.0373 29.0081 16.0373ZM39.0081 16.0373 44.0081 16.0373 44.0081 14.0373 39.0081 14.0373 39.0081 16.0373ZM31.0081 20.0373 45.0081 20.0373 45.0081 18.0373 31.0081 18.0373 31.0081 20.0373ZM43.0901 43.1163C41.9481 44.2743 39.9931 44.3113 38.8881 43.1943L28.3931 32.5723C30.0091 31.3093 31.3961 29.7433 32.4661 27.9403L43.1721 38.8293C44.3141 39.9913 44.2781 41.9143 43.0901 43.1163L43.0901 43.1163ZM33.4181 26.0553C33.8311 25.1083 34.1731 24.1173 34.4141 23.0803L32.4671 22.6263C31.0281 28.8043 25.9601 33.3463 19.8591 33.9293 11.9311 34.6833 4.8571 28.6003 4.0701 20.3683 3.2851 12.1343 9.0891 4.82029 17.0081 4.06429 21.5341 3.63129 25.9081 5.38629 29.0121 8.87529L30.5061 7.54629C26.9751 3.57529 21.9751 1.58229 16.8191 2.07329 7.8021 2.93429 1.1901 11.2263 2.0801 20.5583 2.9201 29.3603 10.1421 35.9923 18.5291 35.9923 19.0311 35.9923 19.5381 35.9683 20.0481 35.9203 22.4551 35.6903 24.7131 34.9123 26.7131 33.7173L37.4651 44.5993C38.3821 45.5273 39.6081 46.0373 40.9191 46.0373L40.9201 46.0373C42.2721 46.0373 43.5481 45.4983 44.5141 44.5213 46.4641 42.5463 46.5021 39.3643 44.5981 37.4273L33.4181 26.0553Z" id="Fill-1" fill="#01A88D"/></g></svg>