<svg width="48" height="48" viewBox="0 0 48 48" xmlns="http://www.w3.org/2000/svg" xmlns:xlink="http://www.w3.org/1999/xlink" overflow="hidden"><g id="Icon-Resource/IoT/Res_AWS-IoT-Analytics_Notebook_48" stroke="none" stroke-width="1" fill="none" fill-rule="evenodd"><path d="M7.972 2 7.972 7.206 5 7.206 5 9.206 7.972 9.206 7.972 12.467 5 12.467 5 14.467 7.972 14.467 7.972 17.781 5 17.781 5 19.78 7.972 19.78 7.972 23.055 5 23.055 5 25.054 7.972 25.054 7.972 28.247 5 28.247 5 30.247 7.972 30.247 7.972 33.48 5 33.48 5 35.48 7.972 35.48 7.972 38.794 5 38.794 5 40.794 7.972 40.794 7.972 45.973 43.586 45.973 43.586 2 7.972 2ZM9.972 4.001 41.586 4.001 41.586 43.973 9.972 43.973 9.972 40.794 13.051 40.794 13.051 38.794 9.972 38.794 9.972 35.48 13.051 35.48 13.051 33.48 9.972 33.48 9.972 30.247 13.051 30.247 13.051 28.247 9.972 28.247 9.972 25.054 13.051 25.054 13.051 23.055 9.972 23.055 9.972 19.78 13.051 19.78 13.051 17.781 9.972 17.781 9.972 14.467 13.051 14.467 13.051 12.467 9.972 12.467 9.972 9.206 13.051 9.206 13.051 7.206 9.972 7.206 9.972 4.001ZM16.861 9.206 36.559 9.206 36.559 7.206 16.861 7.206 16.861 9.206ZM16.861 15.594 36.559 15.594 36.559 13.593 16.861 13.593 16.861 15.594ZM16.861 21.927 36.559 21.927 36.559 19.927 16.861 19.927 16.861 21.927ZM16.861 28.314 26.764 28.314 26.764 26.313 16.861 26.313 16.861 28.314Z" id="AWS-IoT-Analytics-Notebook_Resource-Icon_light-bg" fill="#7AA116"/></g></svg>