<svg width="48" height="48" viewBox="0 0 48 48" xmlns="http://www.w3.org/2000/svg" xmlns:xlink="http://www.w3.org/1999/xlink" overflow="hidden"><g id="Icon-Resource/IoT/Res_AWS-IoT-Greengrass_Component-Public_48" stroke="none" stroke-width="1" fill="none" fill-rule="evenodd"><path d="M4 24C4 22.897 4.897 22 6 22 7.103 22 8 22.897 8 24 8 25.103 7.103 26 6 26 4.897 26 4 25.103 4 24L4 24ZM24 4C25.103 4 26 4.897 26 6 26 7.103 25.103 8 24 8 22.897 8 22 7.103 22 6 22 4.897 22.897 4 24 4L24 4ZM10.961 35.532C9.036 33.336 7.688 30.678 7.06 27.839 8.749 27.372 10 25.836 10 24 10 22.179 8.77 20.656 7.103 20.174 8.604 13.762 13.757 8.646 20.206 7.205 20.721 8.819 22.217 10 24 10 25.78 10 27.274 8.823 27.792 7.213 29.592 7.616 31.31 8.293 32.906 9.255L33.937 7.542C32.064 6.413 30.042 5.644 27.92 5.204 27.55 3.379 25.934 2 24 2 22.071 2 20.459 3.371 20.083 5.189 12.612 6.728 6.647 12.679 5.071 20.12 3.314 20.541 2 22.115 2 24 2 25.866 3.29 27.426 5.022 27.865 5.69 31.233 7.27 34.389 9.563 36.963L7.016 36.924 6.984 38.924 11.908 39 11.924 39C12.184 39 12.434 38.899 12.62 38.718 12.811 38.533 12.92 38.28 12.924 38.015L13 33.015 11 32.985 10.961 35.532ZM42 26C40.897 26 40 25.103 40 24 40 22.897 40.897 22 42 22 43.103 22 44 22.897 44 24 44 25.103 43.103 26 42 26L42 26ZM24 44C22.897 44 22 43.103 22 42 22 40.897 22.897 40 24 40 25.103 40 26 40.897 26 42 26 43.103 25.103 44 24 44L24 44ZM46 24C46 22.096 44.66 20.503 42.874 20.103 42.159 16.708 40.558 13.604 38.201 11.043L41.016 11 40.984 9 35.984 9.076C35.72 9.081 35.467 9.189 35.282 9.38 35.098 9.57 34.996 9.826 35 10.092L35.076 15.016 37.076 14.984 37.041 12.731C38.914 14.876 40.209 17.423 40.848 20.189 39.206 20.687 38 22.198 38 24 38 25.82 39.229 27.342 40.896 27.825 39.469 34.305 34.354 39.495 27.854 40.987 27.402 39.273 25.854 38 24 38 22.144 38 20.594 39.276 20.145 40.993 18.329 40.583 16.599 39.904 14.999 38.933L13.962 40.643C15.878 41.807 17.963 42.601 20.154 43.041 20.616 44.74 22.156 46 24 46 25.847 46 27.39 44.736 27.848 43.033 35.437 41.483 41.427 35.432 42.931 27.879 44.688 27.457 46 25.884 46 24L46 24ZM24 28C24.552 28 25 28.449 25 29 25 29.551 24.552 30 24 30 23.448 30 23 29.551 23 29 23 28.449 23.448 28 24 28L24 28ZM24 32C25.654 32 27 30.654 27 29 27 27.698 26.161 26.599 25 26.184L25 24 23 24 23 26.184C21.839 26.599 21 27.698 21 29 21 30.654 22.346 32 24 32L24 32ZM31 24.067 31 31.933C31 32.521 30.521 33 29.934 33L18.066 33C17.479 33 17 32.521 17 31.933L17 24.067C17 23.479 17.479 23 18.066 23L29.934 23C30.521 23 31 23.479 31 24.067L31 24.067ZM21.631 14 26.032 14C27.198 14 28.11 14.457 28.474 15.223L30.28 14.366C29.578 12.885 27.99 12 26.032 12L21.631 12C19.077 12 17 14.077 17 16.631L17 21.202C15.836 21.638 15 22.752 15 24.067L15 31.933C15 33.624 16.376 35 18.066 35L29.934 35C31.624 35 33 33.624 33 31.933L33 24.067C33 22.376 31.624 21 29.934 21L19 21 19 16.631C19 15.18 20.181 14 21.631 14L21.631 14Z" id="Fill-1" fill="#7AA116"/></g></svg>