<svg width="48" height="48" viewBox="0 0 48 48" xmlns="http://www.w3.org/2000/svg" xmlns:xlink="http://www.w3.org/1999/xlink" overflow="hidden"><g id="Icon-Resource/Storage/Res_AWS-Backup_Gateway_48" stroke="none" stroke-width="1" fill="none" fill-rule="evenodd"><path d="M42 21C40.897 21 40 20.103 40 19 40 17.897 40.897 17 42 17 43.103 17 44 17.897 44 19 44 20.103 43.103 21 42 21L42 21ZM34.296 37.03C34.196 37.022 34.101 37 34 37 33.268 37 32.588 37.204 32 37.549L32 20.659C32 20.364 31.87 20.083 31.644 19.894L31.528 19.796C27.106 16.056 20.72 16.102 16.344 19.904 16.126 20.094 16 20.369 16 20.659L16 37.549C15.412 37.204 14.732 37 14 37 13.899 37 13.804 37.022 13.704 37.03L8.195 22.338C9.28 21.622 10 20.395 10 19 10 18.511 9.899 18.047 9.738 17.613L21.812 9.341C22.442 9.755 23.192 10 24 10 24.808 10 25.558 9.755 26.188 9.341L38.262 17.613C38.101 18.047 38 18.511 38 19 38 20.395 38.72 21.622 39.805 22.338L34.296 37.03ZM34 43C32.897 43 32 42.103 32 41 32 39.897 32.897 39 34 39 35.103 39 36 39.897 36 41 36 42.103 35.103 43 34 43L34 43ZM18 40 18 21.127C21.576 18.276 26.41 18.27 30 21.129L30 40 18 40ZM14 43C12.897 43 12 42.103 12 41 12 39.897 12.897 39 14 39 15.103 39 16 39.897 16 41 16 42.103 15.103 43 14 43L14 43ZM6 21C4.897 21 4 20.103 4 19 4 17.897 4.897 17 6 17 7.103 17 8 17.897 8 19 8 20.103 7.103 21 6 21L6 21ZM24 4C25.103 4 26 4.897 26 6 26 7.103 25.103 8 24 8 22.897 8 22 7.103 22 6 22 4.897 22.897 4 24 4L24 4ZM42 15C41.008 15 40.111 15.376 39.412 15.976L27.532 7.837C27.821 7.284 28 6.666 28 6 28 3.794 26.206 2 24 2 21.794 2 20 3.794 20 6 20 6.666 20.179 7.284 20.468 7.837L8.588 15.976C7.889 15.376 6.992 15 6 15 3.794 15 2 16.794 2 19 2 21.206 3.794 23 6 23 6.101 23 6.196 22.978 6.296 22.97L11.805 37.662C10.72 38.378 10 39.605 10 41 10 43.206 11.794 45 14 45 15.859 45 17.411 43.72 17.858 42L30.142 42C30.589 43.72 32.141 45 34 45 36.206 45 38 43.206 38 41 38 39.605 37.28 38.378 36.195 37.662L41.704 22.97C41.804 22.978 41.899 23 42 23 44.206 23 46 21.206 46 19 46 16.794 44.206 15 42 15L42 15Z" id="Fill-1" fill="#7AA116"/></g></svg>