<svg width="48" height="48" viewBox="0 0 48 48" xmlns="http://www.w3.org/2000/svg" xmlns:xlink="http://www.w3.org/1999/xlink" overflow="hidden"><g id="Icon-Resource/Storage/Res_AWS-Backup_Vault-Lock_48" stroke="none" stroke-width="1" fill="none" fill-rule="evenodd"><path d="M15.863 33.96C21.978 38.517 30.658 37.251 35.217 31.136 39.773 25.022 38.507 16.34 32.393 11.783 26.479 7.376 18.176 8.429 13.513 14.035L16.013 14.068 15.986 16.068 10.919 16C10.654 15.997 10.401 15.888 10.216 15.698 10.031 15.507 9.928 15.252 9.932 14.986L10 9.986 12 10.014 11.963 12.775C17.297 6.344 26.813 5.13 33.589 10.179 40.587 15.396 42.036 25.334 36.82 32.332 33.717 36.495 28.941 38.695 24.108 38.695 20.818 38.695 17.503 37.676 14.668 35.564 10.654 32.572 8.333 27.981 8.298 22.968L10.298 22.955C10.328 27.335 12.356 31.347 15.863 33.96L15.863 33.96ZM35 44 39 44 39 43 35 43 35 44ZM9 44 13 44 13 43 9 43 9 44ZM45 2 3 2C2.447 2 2 2.448 2 3L2 11 4 11 4 4 44 4 44 41 4 41 4 33 2 33 2 42C2 42.552 2.447 43 3 43L7 43 7 45C7 45.552 7.447 46 8 46L14 46C14.552 46 15 45.552 15 45L15 43 33 43 33 45C33 45.552 33.447 46 34 46L40 46C40.552 46 41 45.552 41 45L41 43 45 43C45.552 43 46 42.552 46 42L46 3C46 2.448 45.552 2 45 2L45 2ZM2 27 4 27 4 17 2 17 2 27ZM20 28 28 28 28 22 20 22 20 28ZM22 18C22 16.897 22.897 16 24 16 25.102 16 26 16.897 26 18L26 20 22 20 22 18ZM24 14C21.794 14 20 15.794 20 18L20 20 19 20C18.447 20 18 20.448 18 21L18 29C18 29.552 18.447 30 19 30L29 30C29.552 30 30 29.552 30 29L30 21C30 20.448 29.552 20 29 20L28 20 28 18C28 15.794 26.206 14 24 14L24 14Z" id="Fill-1" fill="#7AA116"/></g></svg>