<svg width="80" height="80" viewBox="0 0 80 80" xmlns="http://www.w3.org/2000/svg" xmlns:xlink="http://www.w3.org/1999/xlink" overflow="hidden"><g id="Icon-Architecture/64/Arch_TorchServe_64" stroke="none" stroke-width="1" fill="none" fill-rule="evenodd"><g id="Icon-Architecture-BG/64/Machine-Learning" fill="#01A88D"><rect x="0" y="0" width="80" height="80" id="Rectangle"/></g><g id="Icon-Service/64/TorchServe_64" fill="#FFFFFF" transform="translate(16.0002 12)"><path d="M30.24 9.103C30.24 10.387 31.285 11.432 32.569 11.432 33.853 11.432 34.898 10.387 34.898 9.103 34.898 7.819 33.853 6.774 32.569 6.774 31.285 6.774 30.24 7.819 30.24 9.103M28.24 9.103C28.24 6.716 30.182 4.774 32.569 4.774 34.956 4.774 36.898 6.716 36.898 9.103 36.898 11.49 34.956 13.432 32.569 13.432 30.182 13.432 28.24 11.49 28.24 9.103M47.115 31.89C47.115 44.88 36.547 55.448 23.557 55.448 10.568 55.448-3.55271e-15 44.88-3.55271e-15 31.89-3.55271e-15 25.441 2.555 19.422 7.196 14.941L22.808-3.55271e-15 24.191 1.445 8.582 16.383C4.339 20.48 2 25.989 2 31.89 2 43.777 11.671 53.448 23.557 53.448 35.444 53.448 45.115 43.777 45.115 31.89 45.115 25.928 42.735 20.38 38.414 16.269L39.793 14.82C44.514 19.312 47.115 25.374 47.115 31.89" id="TorchServe-Icon_64_Squid"/></g></g></svg>