<svg width="48" height="48" viewBox="0 0 48 48" xmlns="http://www.w3.org/2000/svg" xmlns:xlink="http://www.w3.org/1999/xlink" overflow="hidden"><g id="Icon-Resource/Management-Governance/Res_AWS-Systems-Manager_State-Manager_48" stroke="none" stroke-width="1" fill="none" fill-rule="evenodd"><path d="M35.417 36.035 38.653 36.035 38.653 32.799 35.417 32.799 35.417 36.035ZM34.417 38.036 39.653 38.036C40.206 38.036 40.653 37.588 40.653 37.036L40.653 31.799C40.653 31.246 40.206 30.799 39.653 30.799L34.417 30.799C33.864 30.799 33.417 31.246 33.417 31.799L33.417 37.036C33.417 37.588 33.864 38.036 34.417 38.036L34.417 38.036ZM23.944 34.616 24.796 36.036 23.093 36.036 23.944 34.616ZM21.326 38.036 26.562 38.036C26.923 38.036 27.255 37.842 27.432 37.529 27.61 37.214 27.605 36.829 27.42 36.521L24.802 32.158C24.44 31.556 23.448 31.556 23.087 32.158L20.469 36.521C20.283 36.829 20.278 37.214 20.456 37.529 20.634 37.842 20.966 38.036 21.326 38.036L21.326 38.036ZM10.854 33.672C11.506 33.672 12.036 34.202 12.036 34.854 12.036 35.505 11.506 36.036 10.854 36.036 10.203 36.036 9.673 35.505 9.673 34.854 9.673 34.202 10.203 33.672 10.854 33.672L10.854 33.672ZM10.854 38.036C12.608 38.036 14.036 36.608 14.036 34.854 14.036 33.1 12.608 31.672 10.854 31.672 9.1 31.672 7.673 33.1 7.673 34.854 7.673 36.608 9.1 38.036 10.854 38.036L10.854 38.036ZM32.798 39.527 41.271 39.527 41.271 23.2 32.798 23.2 32.798 39.527ZM31.799 21.2C31.246 21.2 30.799 21.647 30.799 22.2L30.799 40.527C30.799 41.079 31.246 41.527 31.799 41.527L42.271 41.527C42.824 41.527 43.271 41.079 43.271 40.527L43.271 22.2C43.271 21.647 42.824 21.2 42.271 21.2L31.799 21.2ZM19.707 39.527 28.18 39.527 28.18 19.71 19.707 19.71 19.707 39.527ZM29.18 17.709 18.708 17.709C18.155 17.709 17.708 18.157 17.708 18.709L17.708 40.527C17.708 41.079 18.155 41.527 18.708 41.527L29.18 41.527C29.733 41.527 30.18 41.079 30.18 40.527L30.18 18.709C30.18 18.157 29.733 17.709 29.18 17.709L29.18 17.709ZM6.618 39.527 15.09 39.527 15.09 30.181 6.618 30.181 6.618 39.527ZM16.09 28.181 5.618 28.181C5.065 28.181 4.618 28.628 4.618 29.181L4.618 40.527C4.618 41.079 5.065 41.527 5.618 41.527L16.09 41.527C16.642 41.527 17.09 41.079 17.09 40.527L17.09 29.181C17.09 28.628 16.642 28.181 16.09 28.181L16.09 28.181ZM8.363 10.728 24.69 10.728 24.69 9.237 8.363 9.237 8.363 10.728ZM7.363 12.728 25.69 12.728C26.243 12.728 26.69 12.281 26.69 11.728L26.69 8.237C26.69 7.684 26.243 7.237 25.69 7.237L7.363 7.237C6.81 7.237 6.363 7.684 6.363 8.237L6.363 11.728C6.363 12.281 6.81 12.728 7.363 12.728L7.363 12.728ZM31.362 8.364C32.013 8.364 32.544 8.894 32.544 9.545 32.544 10.198 32.013 10.728 31.362 10.728 30.711 10.728 30.18 10.198 30.18 9.545 30.18 8.894 30.711 8.364 31.362 8.364L31.362 8.364ZM31.362 12.728C33.116 12.728 34.544 11.3 34.544 9.545 34.544 7.791 33.116 6.364 31.362 6.364 29.608 6.364 28.18 7.791 28.18 9.545 28.18 11.3 29.608 12.728 31.362 12.728L31.362 12.728ZM39.217 8.364C39.868 8.364 40.398 8.894 40.398 9.545 40.398 10.198 39.868 10.728 39.217 10.728 38.565 10.728 38.035 10.198 38.035 9.545 38.035 8.894 38.565 8.364 39.217 8.364L39.217 8.364ZM39.217 12.728C40.97 12.728 42.398 11.3 42.398 9.545 42.398 7.791 40.97 6.364 39.217 6.364 37.463 6.364 36.035 7.791 36.035 9.545 36.035 11.3 37.463 12.728 39.217 12.728L39.217 12.728ZM43.889 39.442C43.889 41.895 41.894 43.89 39.441 43.89L8.447 43.89C5.995 43.89 4 41.895 4 39.442L4 8.449C4 5.995 5.995 4 8.447 4L39.441 4C41.894 4 43.889 5.995 43.889 8.449L43.889 39.442ZM39.441 2 8.447 2C4.892 2 2 4.893 2 8.449L2 39.442C2 42.997 4.892 45.89 8.447 45.89L39.441 45.89C42.997 45.89 45.889 42.997 45.889 39.442L45.889 8.449C45.889 4.893 42.997 2 39.441 2L39.441 2Z" id="AWS-System-Manager_state-manager_Resource-Icon_light-bg" fill="#E7157B"/></g></svg>