<svg width="48" height="48" viewBox="0 0 48 48" xmlns="http://www.w3.org/2000/svg" xmlns:xlink="http://www.w3.org/1999/xlink" overflow="hidden"><g id="Icon-Resource/Storage/Res_Amazon-Elastic-File-System_One-Zone-Infrequent-Access_48" stroke="none" stroke-width="1" fill="none" fill-rule="evenodd"><path d="M40 9C40 8.449 39.552 8 39 8 38.448 8 38 8.449 38 9 38 9.551 38.448 10 39 10 39.552 10 40 9.551 40 9L40 9ZM42 9C42 10.654 40.654 12 39 12 37.346 12 36 10.654 36 9 36 7.346 37.346 6 39 6 40.654 6 42 7.346 42 9L42 9ZM43.992 8.833C44.061 7.55 43.659 6.411 42.833 5.54 41.904 4.561 40.508 4 39 4 37.581 4 36.215 4.58 35.251 5.592 34.39 6.496 33.947 7.648 34.005 8.837 34.121 11.234 37.104 15.242 38.933 17.405 39.405 16.769 40.074 15.875 40.854 14.861L41.35 14.2C42.047 13.247 42.624 12.349 43.057 11.539L43.354 10.95C43.744 10.126 43.962 9.406 43.992 8.833L43.992 8.833ZM45.99 8.938C45.945 9.785 45.671 10.73 45.151 11.828L44.837 12.45C44.834 12.457 44.83 12.464 44.826 12.471 44.349 13.367 43.72 14.349 42.956 15.391L42.446 16.07C40.913 18.066 39.813 19.583 39.81 19.587 39.633 19.83 39.356 19.981 39.058 19.999 39.038 20 39.019 20 39 20 38.721 20 38.453 19.883 38.263 19.676 37.644 19 32.202 12.958 32.007 8.934 31.923 7.193 32.561 5.517 33.803 4.212 35.143 2.807 37.037 2 39 2 41.054 2 42.979 2.789 44.283 4.163 45.497 5.442 46.087 7.094 45.99 8.938L45.99 8.938ZM18 15 20.854 15C21.103 15.71 21.346 17.408 21.346 18 21.346 18.552 21.793 19 22.346 19L34 19 34 17 23.285 17C23.155 15.614 22.755 13.252 21.524 13.018 21.463 13.006 21.399 13 21.337 13L18 13 18 15ZM42.592 19.592C42.858 19.956 43 20.511 43 21.199L43 44 4 44 4 21.199C4 20.625 4.1 19.848 4.576 19.403 4.911 19.09 5.416 18.955 6.154 19L8.885 19C9.438 19 9.885 18.552 9.885 18 9.885 17.488 10.273 15.695 10.575 15L12 15 12 13 10.158 13C8.779 13 8.209 15.542 7.997 17.001L6.222 17.002C4.987 16.913 3.955 17.245 3.21 17.942 2.658 18.458 2 19.442 2 21.199L2 45C2 45.552 2.447 46 3 46L44 46C44.553 46 45 45.552 45 45L45 21.199C45 20.066 44.731 19.127 44.203 18.408L42.592 19.592ZM33 37.5C33 38.878 34.121 40 35.5 40 36.879 40 38 38.878 38 37.5 38 36.122 36.879 35 35.5 35 34.121 35 33 36.122 33 37.5L33 37.5ZM35.5 33C37.981 33 40 35.019 40 37.5 40 39.981 37.981 42 35.5 42 33.019 42 31 39.981 31 37.5 31 35.019 33.019 33 35.5 33L35.5 33ZM21.374 36 25.445 36 23.452 32.355 21.374 36ZM18.788 37.502C18.608 37.194 18.607 36.814 18.783 36.504L22.602 29.809C22.78 29.497 23.111 29.305 23.471 29.305L23.479 29.305C23.842 29.308 24.174 29.507 24.348 29.825L28.009 36.52C28.179 36.83 28.172 37.206 27.992 37.51 27.812 37.814 27.485 38 27.132 38L19.652 38C19.296 38 18.967 37.811 18.788 37.502L18.788 37.502ZM10 40 14 40 14 36 10 36 10 40ZM16 35 16 41C16 41.552 15.553 42 15 42L9 42C8.447 42 8 41.552 8 41L8 35C8 34.448 8.447 34 9 34L15 34C15.553 34 16 34.448 16 35L16 35ZM17.292 18.283 14.999 20.597 12.708 18.285 11.288 19.693 14.289 22.722C14.477 22.911 14.732 23.018 14.999 23.018 15.266 23.018 15.521 22.911 15.709 22.721L18.712 19.69 17.292 18.283ZM15.001 6.443 17.292 8.754 18.712 7.346 15.711 4.318C15.336 3.939 14.666 3.939 14.291 4.318L11.288 7.348 12.708 8.756 15.001 6.443ZM14 17 16 17 16 10 14 10 14 17Z" id="Fill-1" fill="#7AA116"/></g></svg>