<svg width="48" height="48" viewBox="0 0 48 48" xmlns="http://www.w3.org/2000/svg" xmlns:xlink="http://www.w3.org/1999/xlink" overflow="hidden"><g id="Icon-Resource/Management-Governance/Res_AWS-Trusted-Advisor_Checklist-Cost_48" stroke="none" stroke-width="1" fill="none" fill-rule="evenodd"><path d="M27.3655 27.0527C27.3655 27.0047 27.3535 26.9117 27.2735 26.8317 27.1975 26.7557 27.1125 26.7407 27.0535 26.7407 27.0055 26.7407 26.9125 26.7517 26.8325 26.8317 26.7525 26.9117 26.7405 27.0047 26.7405 27.0527 26.7405 27.1127 26.7565 27.1977 26.8315 27.2727 27.0125 27.4547 27.1365 27.4097 27.2725 27.2747L27.2745 27.2727C27.3495 27.1977 27.3655 27.1127 27.3655 27.0527L27.3655 27.0527ZM28.6885 25.4187C29.1245 25.8547 29.3655 26.4357 29.3655 27.0527 29.3655 27.6707 29.1245 28.2507 28.6875 28.6877 28.2515 29.1237 27.6715 29.3657 27.0535 29.3657 26.4355 29.3657 25.8545 29.1237 25.4185 28.6877 24.9815 28.2517 24.7405 27.6707 24.7405 27.0527 24.7405 26.4357 24.9815 25.8547 25.4185 25.4177 26.2925 24.5447 27.8165 24.5457 28.6885 25.4187L28.6885 25.4187ZM43.5785 36.2437 31.4565 24.1207 24.1215 24.1207 24.1215 31.4557 36.2445 43.5777 43.5785 36.2437ZM45.6995 36.9507 36.9515 45.6987C36.7565 45.8947 36.5005 45.9917 36.2445 45.9917 35.9885 45.9917 35.7325 45.8947 35.5375 45.6987L22.4145 32.5767C22.2265 32.3897 22.1215 32.1357 22.1215 31.8697L22.1215 23.1207C22.1215 22.5687 22.5685 22.1207 23.1215 22.1207L31.8705 22.1207C32.1365 22.1207 32.3895 22.2267 32.5775 22.4137L45.6995 35.5367C46.0905 35.9277 46.0905 36.5607 45.6995 36.9507L45.6995 36.9507ZM6.3285 26.6757 4.9225 28.0977 7.7205 30.8667C7.9085 31.0527 8.1615 31.1567 8.4245 31.1567 8.4475 31.1567 8.4705 31.1557 8.4955 31.1537 8.7825 31.1327 9.0475 30.9907 9.2205 30.7607L13.4205 25.2207 11.8265 24.0117 8.3165 28.6427 6.3285 26.6757ZM11.8265 14.6807 8.3165 19.3117 6.3285 17.3437 4.9225 18.7657 7.7205 21.5357C7.9085 21.7217 8.1615 21.8247 8.4245 21.8247 8.4475 21.8247 8.4705 21.8237 8.4955 21.8227 8.7825 21.8017 9.0475 21.6587 9.2205 21.4287L13.4205 15.8877 11.8265 14.6807ZM11.8265 5.3487 8.3165 9.9797 6.3285 8.0127 4.9225 9.4347 7.7205 12.2037C7.9085 12.3897 8.1615 12.4927 8.4245 12.4927 8.4475 12.4927 8.4705 12.4917 8.4955 12.4897 8.7825 12.4697 9.0475 12.3267 9.2205 12.0977L13.4205 6.5577 11.8265 5.3487ZM15.2485 29.3697 20.4975 29.3697 20.4975 27.3697 15.2485 27.3697 15.2485 29.3697ZM15.2485 20.6217 26.6215 20.6217 26.6215 18.6217 15.2485 18.6217 15.2485 20.6217ZM15.2485 10.9987 26.6215 10.9987 26.6215 8.9987 15.2485 8.9987 15.2485 10.9987ZM4.0005 34.3687 23.1215 34.3687 23.1215 36.3687 3.0005 36.3687C2.4475 36.3687 2.0005 35.9217 2.0005 35.3687L2.0005 2.9997C2.0005 2.4477 2.4475 1.9997 3.0005 1.9997L29.2455 1.9997C29.7985 1.9997 30.2455 2.4477 30.2455 2.9997L30.2455 20.4967 28.2455 20.4967 28.2455 3.9997 4.0005 3.9997 4.0005 34.3687Z" id="AWS-Trusted-Advisor_checklist-cost_Resource-Icon_light-bg" fill="#E7157B"/></g></svg>