<svg width="48" height="48" viewBox="0 0 48 48" xmlns="http://www.w3.org/2000/svg" xmlns:xlink="http://www.w3.org/1999/xlink" overflow="hidden"><g id="Icon-Resource/Storage/Res_Amazon-Simple-Storage-Service_S3-Replication-Time-Control_48" stroke="none" stroke-width="1" fill="none" fill-rule="evenodd"><path d="M26.4646 36.9998 23.4646 36.9998C22.9116 36.9998 22.4646 36.5528 22.4646 35.9998L22.4646 31.9998 24.4646 31.9998 24.4646 34.9998 26.4646 34.9998 26.4646 36.9998ZM23.4996 30.9998C21.0186 30.9998 18.9996 33.0188 18.9996 35.4998 18.9996 37.9808 21.0186 39.9998 23.4996 39.9998 25.9816 39.9998 27.9996 37.9808 27.9996 35.4998 27.9996 33.0188 25.9816 30.9998 23.4996 30.9998L23.4996 30.9998ZM23.4996 41.9998C19.9156 41.9998 16.9996 39.0838 16.9996 35.4998 16.9996 31.9158 19.9156 28.9998 23.4996 28.9998 27.0836 28.9998 29.9996 31.9158 29.9996 35.4998 29.9996 39.0838 27.0836 41.9998 23.4996 41.9998L23.4996 41.9998ZM35.9686 7.5748C34.7056 7.3318 33.4086 7.1498 32.1366 7.0208 29.7556 5.9778 25.4426 4.9998 19.4076 4.9998 8.7156 4.9998 4.0746 7.8128 4.0066 8.7408L4.0266 8.8908C4.2336 9.4208 5.6776 10.3988 9.3176 11.1288 8.8016 11.6698 8.4276 12.2708 8.2346 12.9408 6.8246 12.6248 5.4876 12.2168 4.4186 11.6838L7.8416 36.1418C7.8486 36.1878 7.8516 36.2338 7.8516 36.2798 7.8936 36.4378 8.5446 37.1208 10.8696 37.7588L11.1686 39.8898C7.7106 39.0828 5.9126 37.8988 5.8536 36.3608L2.0676 9.3138C2.0546 9.2618 2.0536 9.2048 2.0446 9.1498L2.0096 8.9018 2.0036 8.8558C2.0006 8.8098 1.9996 8.8118 1.9996 8.7638 1.9996 5.0208 10.9686 2.9998 19.4076 2.9998 26.8646 2.9998 34.3886 4.5688 35.9686 7.5748L35.9686 7.5748ZM41.8976 28.9798 42.0316 27.9628C43.0296 28.5718 43.5246 28.9938 43.7656 29.2518 43.4456 29.2668 42.8646 29.2108 41.8976 28.9798L41.8976 28.9798ZM38.2356 41.4048C38.2306 41.4488 38.2286 41.4798 38.2286 41.5238 38.1996 41.6388 37.8346 42.0758 36.5736 42.5678 35.9436 42.8138 35.1976 43.0358 34.3566 43.2278 32.1786 43.7258 29.5056 43.9998 26.8296 43.9998 19.7236 43.9998 15.6196 42.2648 15.4336 41.5368 15.4336 41.4898 15.4306 41.4438 15.4236 41.3978L12.0006 16.9448C15.3106 18.6058 21.4686 19.2538 26.9896 19.2538 32.3156 19.2538 38.2486 18.6108 41.4686 16.9698L39.9526 28.4308C36.0856 27.2028 31.0306 24.9238 28.7526 23.8628 28.6036 22.9538 27.8176 22.2558 26.8656 22.2558 25.8096 22.2558 24.9486 23.1158 24.9486 24.1738 24.9486 25.2298 25.8096 26.0908 26.8656 26.0908 27.2886 26.0908 27.6766 25.9488 27.9936 25.7168 30.6866 26.9698 35.7756 29.2438 39.6866 30.4448L38.2356 41.4048ZM26.9896 10.2568C36.5616 10.2568 41.8036 12.7138 41.8616 13.9968L41.8506 14.0898C41.6636 15.2618 36.7066 17.2538 26.9896 17.2538 17.0716 17.2538 11.8046 15.2318 11.6016 14.0898L11.5886 13.9968C11.6566 13.0678 16.2976 10.2568 26.9896 10.2568L26.9896 10.2568ZM45.9556 29.1878C45.7636 28.1598 44.6556 27.1368 42.3166 25.8148L43.8596 14.1508C43.8606 14.1068 43.8676 14.0648 43.8676 14.0208 43.8676 10.2358 35.3766 8.2568 26.9896 8.2568 18.5506 8.2568 9.5816 10.2758 9.5816 14.0208 9.5816 14.0668 9.5816 14.0678 9.5846 14.1148L9.5916 14.1588 13.4356 41.6178C13.5676 44.8308 21.4896 45.9998 26.8296 45.9998 29.6516 45.9998 32.4826 45.7078 34.8016 45.1778 35.7376 44.9648 36.5786 44.7138 37.3016 44.4308 39.1996 43.6888 40.1836 42.7408 40.2266 41.6128L41.6346 30.9708C42.4516 31.1538 43.1406 31.2508 43.7066 31.2508 44.5976 31.2508 45.1996 31.0218 45.5896 30.5628 45.9186 30.1758 46.0486 29.6878 45.9556 29.1878L45.9556 29.1878Z" id="AWS-Amazon-Simple-Storage_S3-Replication-Time-Control_Resource-Icon_light-bg" fill="#7AA116"/></g></svg>