<svg width="48" height="48" viewBox="0 0 48 48" xmlns="http://www.w3.org/2000/svg" xmlns:xlink="http://www.w3.org/1999/xlink" overflow="hidden"><g id="Icon-Resource/IoT/Res_AWS-IoT_Thing_PLC_48" stroke="none" stroke-width="1" fill="none" fill-rule="evenodd"><path d="M39 10.1348C39 9.5098 38.491 8.9998 37.865 8.9998L10.135 8.9998C9.509 8.9998 9 9.5098 9 10.1348L9 37.8648C9 38.4908 9.509 38.9998 10.135 38.9998L37.865 38.9998C38.491 38.9998 39 38.4908 39 37.8648L39 10.1348ZM41 14.9998 41 17.9998 46 17.9998 46 19.9998 41 19.9998 41 22.9998 46 22.9998 46 24.9998 41 24.9998 41 27.9998 46 27.9998 46 29.9998 41 29.9998 41 32.9998 46 32.9998 46 34.9998 41 34.9998 41 37.8648C41 39.5938 39.594 40.9998 37.865 40.9998L35 40.9998 35 45.9998 33 45.9998 33 40.9998 30 40.9998 30 45.9998 28 45.9998 28 40.9998 25 40.9998 25 45.9998 23 45.9998 23 40.9998 20 40.9998 20 45.9998 18 45.9998 18 40.9998 15 40.9998 15 45.9998 13 45.9998 13 40.9998 10.135 40.9998C8.406 40.9998 7 39.5938 7 37.8648L7 34.9998 2 34.9998 2 32.9998 7 32.9998 7 29.9998 2 29.9998 2 27.9998 7 27.9998 7 24.9998 2 24.9998 2 22.9998 7 22.9998 7 19.9998 2 19.9998 2 17.9998 7 17.9998 7 14.9998 2 14.9998 2 12.9998 7 12.9998 7 10.1348C7 8.4058 8.406 6.9998 10.135 6.9998L13 6.9998 13 1.9998 15 1.9998 15 6.9998 18 6.9998 18 1.9998 20 1.9998 20 6.9998 23 6.9998 23 1.9998 25 1.9998 25 6.9998 28 6.9998 28 1.9998 30 1.9998 30 6.9998 33 6.9998 33 1.9998 35 1.9998 35 6.9998 37.865 6.9998C39.594 6.9998 41 8.4058 41 10.1348L41 12.9998 46 12.9998 46 14.9998 41 14.9998ZM28 34.9998 32 34.9998 32 12.9998 28 12.9998 28 34.9998ZM22 34.9998 26 34.9998 26 12.9998 22 12.9998 22 34.9998ZM16 34.9998 20 34.9998 20 12.9998 16 12.9998 16 34.9998ZM34 11.9998 34 35.9998C34 36.5518 33.553 36.9998 33 36.9998L28 36.9998 26 36.9998 22 36.9998 20 36.9998 15 36.9998C14.447 36.9998 14 36.5518 14 35.9998L14 11.9998C14 11.4478 14.447 10.9998 15 10.9998L33 10.9998C33.553 10.9998 34 11.4478 34 11.9998L34 11.9998ZM29 15.9998 31 15.9998 31 13.9998 29 13.9998 29 15.9998ZM23 15.9998 25 15.9998 25 13.9998 23 13.9998 23 15.9998ZM17 15.9998 19 15.9998 19 13.9998 17 13.9998 17 15.9998Z" id="Fill-1" fill="#7AA116"/></g></svg>