<svg width="80" height="80" viewBox="0 0 80 80" xmlns="http://www.w3.org/2000/svg" xmlns:xlink="http://www.w3.org/1999/xlink" overflow="hidden"><g id="Icon-Architecture/64/Arch_Amazon-FinSpace_64" stroke="none" stroke-width="1" fill="none" fill-rule="evenodd"><g id="Icon-Architecture-BG/64/Analytics" fill="#8C4FFF"><rect x="0" y="0" width="80" height="80" id="Rectangle"/></g><g id="Icon-Service/64/Amazon-FinSpace_64" fill="#FFFFFF" transform="translate(12 13)"><path d="M12 43 16 43 16 17.392 12 20.12 12 43ZM23 12.62 18 16.028 18 43 23 43 23 12.62ZM25 11.256 25 43 31 43 31 11.256 28 9.21 25 11.256ZM38 16.028 33 12.62 33 43 38 43 38 16.028ZM44 20.12 40 17.392 40 43 44 43 44 20.12ZM51 45 5 45 5 43 10 43 10 21.483 6.563 23.826 5.437 22.174 27.437 7.174C27.776 6.942 28.224 6.942 28.563 7.174L50.563 22.174 49.437 23.826 46 21.483 46 43 51 43 51 45ZM3 50 13 50 13 48 3 48 3 50ZM17 50 39 50 39 48 17 48 17 50ZM43 50 53 50 53 48 43 48 43 50ZM0 55 25 55 25 53 0 53 0 55ZM31 55 56 55 56 53 31 53 31 55ZM1.555 19.832 0.445 18.168 27.445 0.168C27.781-0.056 28.219-0.056 28.555 0.168L55.555 18.168 54.445 19.832 28 2.202 1.555 19.832Z" id="Fill-5"/></g></g></svg>