<svg width="80" height="80" viewBox="0 0 80 80" xmlns="http://www.w3.org/2000/svg" xmlns:xlink="http://www.w3.org/1999/xlink" overflow="hidden"><g id="Icon-Architecture/64/Arch_AWS-Transfer-Family_64" stroke="none" stroke-width="1" fill="none" fill-rule="evenodd"><g id="Icon-Architecture-BG/64/Migration-Transfer" fill="#01A88D"><rect x="0" y="0" width="80" height="80" id="Rectangle"/></g><path d="M62.515 26.3897C62.355 26.7518 61.995 26.9858 61.6 26.9858L57 26.9858 57 34.9857 60 34.9857C60.553 34.9857 61 35.4328 61 35.9857L61 64.9857C61 65.5378 60.553 65.9857 60 65.9857L20 65.9857C18.346 65.9857 17 64.6397 17 62.9857L17 27.9858C17 27.4328 17.448 26.9858 18 26.9858L30.556 26.9858C30.839 26.9858 31.11 27.1057 31.299 27.3158L33.703 29.9858 39 29.9858 39 31.9858 33.258 31.9858C32.975 31.9858 32.704 31.8657 32.515 31.6548L30.111 28.9858 19 28.9858 19 62.9857C19 63.5368 19.449 63.9857 20 63.9857 20.552 63.9857 21 63.5368 21 62.9857L21 35.9857C21 35.4328 21.448 34.9857 22 34.9857L39 34.9857 39 36.9857 23 36.9857 23 62.9857C23 63.3377 22.928 63.6707 22.816 63.9857L59 63.9857 59 36.9857 52 36.9857 52 34.9857 55 34.9857 55 25.9858C55 25.4328 55.448 24.9858 56 24.9858L59.338 24.9858 52.5 17.4718 45.662 24.9858 49 24.9858C49.553 24.9858 50 25.4328 50 25.9858L50 31.9858 50 35.9857 50 39.9857 54 39.9857C54.39 39.9857 54.744 40.2118 54.908 40.5648 55.072 40.9178 55.015 41.3338 54.764 41.6307L46.311 51.6307C46.121 51.8548 45.843 51.9847 45.55 51.9857L45.547 51.9857C45.255 51.9857 44.977 51.8577 44.787 51.6357L36.241 41.6357C35.987 41.3387 35.929 40.9217 36.092 40.5667 36.255 40.2127 36.61 39.9857 37 39.9857L41 39.9857 41 31.9858 43 31.9858 43 40.9857C43 41.5378 42.553 41.9857 42 41.9857L39.17 41.9857 45.543 49.4417 51.846 41.9857 49 41.9857C48.448 41.9857 48 41.5378 48 40.9857L48 35.9857 48 31.9858 48 26.9858 43.401 26.9858C43.005 26.9858 42.646 26.7518 42.486 26.3897 42.327 26.0278 42.395 25.6047 42.661 25.3127L51.761 15.3127C52.14 14.8958 52.861 14.8958 53.24 15.3127L62.339 25.3127C62.606 25.6047 62.674 26.0278 62.515 26.3897" id="AWS-Transfer-Family_Icon-64_Squid" fill="#FFFFFF"/></g></svg>