<svg width="80" height="80" viewBox="0 0 80 80" xmlns="http://www.w3.org/2000/svg" xmlns:xlink="http://www.w3.org/1999/xlink" overflow="hidden"><g id="Icon-Architecture/64/Arch_AWS-Outposts-servers_64" stroke="none" stroke-width="1" fill="none" fill-rule="evenodd"><g id="Icon-Architecture-BG/64/Compute" fill="#ED7100"><rect x="0" y="0" width="80" height="80" id="Rectangle"/></g><g id="Icon-Service/64/AWS-Outposts-servers_64" fill="#FFFFFF" transform="translate(12 21.5)"><path d="M54 27.4941C54 26.9431 53.552 26.4941 53 26.4941L11 26.4941C10.448 26.4941 10 26.9431 10 27.4941L10 33.4941C10 34.0451 10.448 34.4941 11 34.4941L53 34.4941C53.552 34.4941 54 34.0451 54 33.4941L54 27.4941ZM56 27.4941 56 33.4941C56 35.1481 54.654 36.4941 53 36.4941L11 36.4941C9.346 36.4941 8 35.1481 8 33.4941L8 27.4941C8 25.8401 9.346 24.4941 11 24.4941L53 24.4941C54.654 24.4941 56 25.8401 56 27.4941L56 27.4941ZM13 31.4941 16 31.4941 16 29.4941 13 29.4941 13 31.4941ZM19 31.4941 25 31.4941 25 29.4941 19 29.4941 19 31.4941ZM28 31.4941 51 31.4941 51 29.4941 28 29.4941 28 31.4941ZM7.29 11.9161C7.297 11.9631 7.3 12.0101 7.3 12.0581 7.3 12.5381 6.96 12.9451 6.502 13.0381 4.799 13.4861 2 14.8381 2 18.8841 2 19.0191 2.004 19.1521 2.01 19.2831 2.1 21.1461 2.774 24.3451 6.276 24.8181L6.009 26.8001C0.743 26.0881 0.088 20.9391 0.012 19.3781 0.004 19.2151 0 19.0511 0 18.8841 0 15.2621 1.941 12.4951 5.238 11.3351 5.231 11.1701 5.228 11.0051 5.228 10.8401 5.228 6.73012 7.98 2.46412 11.632 0.918118 15.903-0.891882 20.431 0.00711753 23.738 3.32512 24.684 4.27412 25.472 5.40912 26.091 6.71012 27.314 5.82512 28.857 5.53112 30.327 5.96012 32.441 6.57812 33.873 8.47412 34.244 11.0951 36.432 11.5811 40.571 13.2121 40.571 20.9021L38.571 20.9021C38.571 14.6911 35.824 13.3811 33.138 12.9191 32.613 12.8291 32.253 12.3461 32.313 11.8211 32.147 9.76812 31.2 8.29912 29.767 7.88012 28.585 7.53512 27.318 7.99612 26.537 9.05512 26.317 9.35112 25.946 9.50412 25.585 9.45012 25.219 9.39512 24.913 9.14212 24.79 8.79412 24.215 7.16812 23.385 5.80412 22.322 4.73712 21.021 3.43212 17.45 0.625118 12.411 2.76012 9.505 3.99112 7.228 7.54012 7.228 10.8401 7.228 11.2021 7.248 11.5631 7.29 11.9161L7.29 11.9161Z" id="Fill-1"/></g></g></svg>