<svg width="48" height="48" viewBox="0 0 48 48" xmlns="http://www.w3.org/2000/svg" xmlns:xlink="http://www.w3.org/1999/xlink" overflow="hidden"><g id="Icon-Resource/IoT/Res_AWS-IoT_Thing_Windfarm_48" stroke="none" stroke-width="1" fill="none" fill-rule="evenodd"><path d="M24.589 22.323C24.557 21.661 25.07 21.096 25.733 21.065 25.754 21.064 25.773 21.063 25.793 21.063 26.092 21.063 26.376 21.174 26.598 21.376 26.837 21.593 26.976 21.888 26.991 22.209 27.007 22.53 26.895 22.838 26.679 23.076 26.464 23.313 26.168 23.453 25.846 23.468 25.218 23.493 24.62 22.987 24.589 22.323ZM28.043 20.006 32.852 10.378 31.063 9.483 26.259 19.101C26.054 19.071 25.846 19.059 25.637 19.067 24.784 19.108 23.996 19.478 23.421 20.112 23.113 20.45 22.892 20.844 22.754 21.266L11.692 21.266 11.692 23.266 22.761 23.266C22.931 23.785 23.22 24.259 23.635 24.635 24.23 25.177 24.988 25.469 25.786 25.469 25.838 25.469 25.889 25.468 25.941 25.466 26.165 25.455 26.383 25.419 26.593 25.365L34.017 32.789 35.431 31.375 28.296 24.239C28.773 23.634 29.025 22.892 28.989 22.115 28.95 21.309 28.611 20.57 28.043 20.006ZM26.78 26.678 26.79 38.126 24.79 38.128 24.78 26.68 26.78 26.678ZM39.767 38.635C39.767 39.261 39.259 39.77 38.633 39.77L9.423 39.77C8.797 39.77 8.288 39.261 8.288 38.635L8.288 9.437C8.288 8.811 8.797 8.301 9.423 8.301L38.633 8.301C39.259 8.301 39.767 8.811 39.767 9.437L39.767 38.635ZM46.056 14.455 46.056 12.455 41.767 12.455 41.767 9.437C41.767 7.708 40.361 6.301 38.633 6.301L35.601 6.301 35.601 2 33.601 2 33.601 6.301 30.314 6.301 30.314 2 28.314 2 28.314 6.301 25.028 6.301 25.028 2 23.028 2 23.028 6.301 19.741 6.301 19.741 2 17.741 2 17.741 6.301 14.454 6.301 14.454 2 12.454 2 12.454 6.301 9.423 6.301C7.694 6.301 6.288 7.708 6.288 9.437L6.288 12.455 2 12.455 2 14.455 6.288 14.455 6.288 17.742 2 17.742 2 19.742 6.288 19.742 6.288 23.028 2 23.028 2 25.028 6.288 25.028 6.288 28.315 2 28.315 2 30.315 6.288 30.315 6.288 33.602 2 33.602 2 35.602 6.288 35.602 6.288 38.635C6.288 40.364 7.694 41.77 9.423 41.77L12.454 41.77 12.454 46.056 14.454 46.056 14.454 41.77 17.741 41.77 17.741 46.056 19.741 46.056 19.741 41.77 23.028 41.77 23.028 46.056 25.028 46.056 25.028 41.77 28.314 41.77 28.314 46.056 30.314 46.056 30.314 41.77 33.601 41.77 33.601 46.056 35.601 46.056 35.601 41.77 38.633 41.77C40.361 41.77 41.767 40.364 41.767 38.635L41.767 35.602 46.056 35.602 46.056 33.602 41.767 33.602 41.767 30.315 46.056 30.315 46.056 28.315 41.767 28.315 41.767 25.028 46.056 25.028 46.056 23.028 41.767 23.028 41.767 19.742 46.056 19.742 46.056 17.742 41.767 17.742 41.767 14.455 46.056 14.455Z" id="Amazon-IOT-RESOURCES-IoT-thing-windfarm_Resource-Icon_light-bg" fill="#7AA116"/></g></svg>