<svg width="80" height="80" viewBox="0 0 80 80" xmlns="http://www.w3.org/2000/svg" xmlns:xlink="http://www.w3.org/1999/xlink" overflow="hidden"><g id="Icon-Architecture/64/Arch_AWS-Deep-Learning-Containers_64" stroke="none" stroke-width="1" fill="none" fill-rule="evenodd"><g id="Icon-Architecture-BG/64/Machine-Learning" fill="#01A88D"><rect x="0" y="0" width="80" height="80" id="Rectangle"/></g><path d="M15.765 28.083 20.6249 28.083 20.6249 26.083 16.875 26.083 18.5889 23 24.4099 23 25.9649 25.833 23.8819 30 17.9999 30 17.9999 32 24.4999 32C24.8789 32 25.2249 31.786 25.3949 31.447L27.6189 27 30.4418 27 32.6468 31.444C32.8158 31.784 33.1618 32 33.5418 32L37.3308 32 35.6168 35 16.567 35 14.155 30.98 15.765 28.083ZM27.6189 19 34.3818 19 36.1058 22.447C36.2758 22.786 36.6208 23 36.9998 23L43.4107 23 45.5007 26.761 42.9807 31.802 44.7697 32.697 46.6777 28.879 47.8457 30.98 45.4337 35 37.9198 35 42.1607 27.579 40.4237 26.587 38.4737 30 34.1618 30 32.1108 25.865 34.3738 22.471 32.7098 21.361 30.2848 25 27.7888 25 26.1289 21.978 27.6189 19ZM15.143 36.514C15.324 36.815 15.649 37 16 37L45.9997 37C46.3517 37 46.6767 36.815 46.8577 36.514L49.8576 31.514C50.0406 31.208 50.0476 30.826 49.8736 30.514L44.8737 21.514C44.6987 21.196 44.3637 21 43.9997 21L37.6188 21 35.8948 17.552C35.7248 17.213 35.3788 17 34.9998 17L26.9999 17C26.6209 17 26.2759 17.213 26.1059 17.552L24.3819 21 17.9999 21C17.6369 21 17.3019 21.196 17.1259 21.514L12.126 30.514C11.952 30.826 11.959 31.208 12.143 31.514L15.143 36.514ZM59.0985 43.004C58.6356 42.96 58.2056 43.236 58.0546 43.673 57.9946 43.846 51.8656 61 35.9998 61 30.9338 61 14.611 59.61 14.017 42L53.9996 42C54.3426 42 54.6616 41.824 54.8456 41.534 55.0286 41.244 55.0506 40.88 54.9036 40.57 52.7546 36.05 54.3386 32.701 55.2336 31.342 56.4766 32.251 58.8506 34.475 58.0306 37.757 57.9506 38.074 58.0316 38.409 58.2456 38.655 58.4596 38.901 58.7816 39.029 59.1065 38.994 59.1505 38.991 63.2825 38.578 65.6755 40.2 64.8355 41.309 62.7535 43.369 59.0985 43.004L59.0985 43.004ZM67.7065 39.292C65.6215 37.208 62.0745 36.932 60.1805 36.942 60.4695 32.943 57.3436 30.12 55.4716 29.118 55.0746 28.904 54.5776 28.985 54.2686 29.318 54.0936 29.505 50.2986 33.687 52.5066 40L13 40C12.448 40 12 40.447 12 41 12 49.269 15.05 55.368 21.0639 59.129 26.4509 62.497 32.7338 63 35.9998 63 51.3386 63 58.2486 48.474 59.6645 45.044 65.3555 45.177 67.7825 40.663 67.8875 40.46 68.0885 40.073 68.0155 39.601 67.7065 39.292L67.7065 39.292Z" id="AWS-Deep-Learning-Containers_Icon_64_Squid" fill="#FFFFFF"/></g></svg>