<svg width="48" height="48" viewBox="0 0 48 48" xmlns="http://www.w3.org/2000/svg" xmlns:xlink="http://www.w3.org/1999/xlink" overflow="hidden"><g id="Icon-Resource/Networking-and-Content-Delivery/Res_AWS-App-Mesh_Virtual-Node_48" stroke="none" stroke-width="1" fill="none" fill-rule="evenodd"><path d="M4 44 44 44 44 4 4 4 4 44ZM45 2 3 2C2.447 2 2 2.447 2 3L2 45C2 45.553 2.447 46 3 46L45 46C45.553 46 46 45.553 46 45L46 3C46 2.447 45.553 2 45 2L45 2ZM8.494 16.742C8.876 16.36 9.378 16.169 9.88 16.169 10.382 16.169 10.884 16.36 11.266 16.742 12.029 17.506 12.029 18.749 11.266 19.513 10.502 20.276 9.258 20.276 8.494 19.513 7.73 18.749 7.73 17.506 8.494 16.742L8.494 16.742ZM11.266 34.592C10.502 35.355 9.258 35.355 8.494 34.592 7.73 33.828 7.73 32.585 8.494 31.821 8.876 31.439 9.378 31.248 9.88 31.248 10.382 31.248 10.884 31.439 11.266 31.821 12.029 32.585 12.029 33.828 11.266 34.592L11.266 34.592ZM22.68 37.156C23.062 36.774 23.563 36.583 24.065 36.583 24.567 36.583 25.069 36.774 25.451 37.156 26.215 37.92 26.215 39.163 25.451 39.927 24.687 40.69 23.443 40.69 22.68 39.927 21.916 39.163 21.916 37.92 22.68 37.156L22.68 37.156ZM22.68 23.065C23.062 22.684 23.563 22.492 24.065 22.492 24.567 22.492 25.069 22.684 25.451 23.065 26.215 23.829 26.215 25.072 25.451 25.836 24.687 26.6 23.443 26.6 22.68 25.836 21.916 25.072 21.916 23.829 22.68 23.065L22.68 23.065ZM22.68 8.074C23.062 7.692 23.563 7.501 24.065 7.501 24.567 7.501 25.069 7.692 25.451 8.074 26.215 8.838 26.215 10.081 25.451 10.845 24.687 11.608 23.443 11.608 22.68 10.845 21.916 10.081 21.916 8.838 22.68 8.074L22.68 8.074ZM36.735 13.408C37.117 13.026 37.618 12.836 38.12 12.836 38.622 12.836 39.124 13.026 39.506 13.408 40.27 14.173 40.27 15.416 39.506 16.18 38.741 16.943 37.498 16.943 36.735 16.18 35.972 15.416 35.972 14.172 36.735 13.408L36.735 13.408ZM36.735 29.321C37.117 28.939 37.619 28.748 38.121 28.748 38.622 28.748 39.124 28.939 39.506 29.321 40.27 30.085 40.27 31.328 39.506 32.092 38.741 32.856 37.498 32.854 36.735 32.092 35.972 31.328 35.972 30.085 36.735 29.321L36.735 29.321ZM7.08 30.407C5.536 31.951 5.536 34.462 7.08 36.006 7.852 36.778 8.866 37.164 9.88 37.164 10.894 37.164 11.908 36.778 12.68 36.006 12.86 35.824 13.017 35.628 13.155 35.424L20.112 38.586C20.123 39.585 20.505 40.58 21.266 41.341 22.037 42.113 23.052 42.499 24.065 42.499 25.079 42.499 26.094 42.113 26.865 41.341 27.659 40.547 28.038 39.498 28.015 38.456L35.528 33.675C36.271 34.323 37.19 34.664 38.121 34.664 39.135 34.664 40.148 34.277 40.92 33.506 42.464 31.962 42.464 29.451 40.92 27.907 39.376 26.363 36.863 26.365 35.321 27.907 34.21 29.02 33.911 30.629 34.401 32.021L27.424 36.461C27.267 36.207 27.086 35.963 26.865 35.742 26.333 35.21 25.683 34.874 25 34.709L25 28.283C25.683 28.118 26.333 27.782 26.865 27.25 27.888 26.227 28.218 24.782 27.886 23.473L35.626 17.843C36.352 18.437 37.231 18.752 38.121 18.752 39.135 18.752 40.148 18.365 40.92 17.594 42.463 16.051 42.463 13.539 40.92 11.994 39.375 10.451 36.864 10.451 35.321 11.994 34.177 13.139 33.886 14.814 34.438 16.234L26.912 21.709C26.895 21.69 26.883 21.669 26.865 21.651 26.333 21.119 25.683 20.783 25 20.617L25 13.292C25.683 13.127 26.333 12.791 26.865 12.259 28.409 10.715 28.409 8.204 26.865 6.66 25.322 5.115 22.809 5.115 21.266 6.66 19.722 8.204 19.722 10.715 21.266 12.259 21.763 12.757 22.366 13.076 23 13.254L23 20.656C22.366 20.833 21.763 21.153 21.266 21.651 19.722 23.195 19.722 25.706 21.266 27.25 21.763 27.748 22.366 28.067 23 28.244L23 34.747C22.366 34.924 21.763 35.244 21.266 35.742 21 36.008 20.798 36.309 20.623 36.621L13.808 33.523C13.896 32.406 13.532 31.26 12.68 30.407 12.196 29.924 11.614 29.609 11 29.429L11 21.905C11.614 21.725 12.196 21.41 12.68 20.927 14.224 19.383 14.224 16.872 12.68 15.328 11.137 13.783 8.623 13.783 7.08 15.328 5.536 16.872 5.536 19.383 7.08 20.927 7.626 21.474 8.297 21.816 9 21.977L9 29.357C8.296 29.518 7.626 29.86 7.08 30.407L7.08 30.407Z" id="AWS-App-Mesh-Virtual-Node_Resource-Icon_light-bg" fill="#8C4FFF"/></g></svg>