<svg width="80" height="80" viewBox="0 0 80 80" xmlns="http://www.w3.org/2000/svg" xmlns:xlink="http://www.w3.org/1999/xlink" overflow="hidden"><g id="Icon-Architecture/64/Arch_Apache-MXNet-on-AWS_64" stroke="none" stroke-width="1" fill="none" fill-rule="evenodd"><g id="Icon-Architecture-BG/64/Machine-Learning" fill="#01A88D"><rect x="0" y="0" width="80" height="80" id="Rectangle"/></g><path d="M55 49.6625 55 32.847 41 40.7741 41 57.5896 55 49.6625ZM25 49.6625 39 57.5896 39 40.7741 25 32.847 25 49.6625ZM26.04 31.1257 40 39.0296 53.96 31.1257 40 23.2207 26.04 31.1257ZM56.49 51.1291 40.49 60.1887C40.338 60.2742 40.169 60.3175 40 60.3175 39.831 60.3175 39.662 60.2742 39.51 60.1887L23.51 51.1291C23.195 50.95 23 50.6148 23 50.2514L23 31.1257C23 30.7623 23.195 30.4271 23.51 30.2479L39.51 21.1884C39.814 21.0162 40.186 21.0162 40.49 21.1884L56.49 30.2479C56.805 30.4271 57 30.7623 57 31.1257L57 50.2514C57 50.6148 56.805 50.95 56.49 51.1291L56.49 51.1291ZM67.497 34.9548 65.536 35.3494C65.826 36.812 66 38.7488 66 40.5305 66 52.6401 57.504 63.3666 45.798 66.0371L46.239 68C58.849 65.1241 68 53.5722 68 40.5305 68 38.5958 67.816 36.5634 67.497 34.9548L67.497 34.9548ZM14 40.5305C14 38.7629 14.174 37.0214 14.516 35.3555L12.557 34.9488C12.187 36.7476 12 38.626 12 40.5305 12 53.5722 21.151 65.1241 33.761 68L34.202 66.0371C22.496 63.3666 14 52.6401 14 40.5305L14 40.5305ZM19.687 24.2062 18.125 22.95C23.646 15.9912 31.619 12 40 12 48.656 12 57.061 16.3828 62.481 23.724L60.876 24.9259C55.831 18.093 48.027 14.0132 40 14.0132 32.23 14.0132 24.827 17.7286 19.687 24.2062L19.687 24.2062Z" id="Apache-MXNet-on-AWS_Icon_64_Squid" fill="#FFFFFF"/></g></svg>