<svg width="48" height="48" viewBox="0 0 48 48" xmlns="http://www.w3.org/2000/svg" xmlns:xlink="http://www.w3.org/1999/xlink" overflow="hidden"><g id="Icon-Resource/Security-Identity-and-Compliance/Res_AWS-WAF_Rule_48" stroke="none" stroke-width="1" fill="none" fill-rule="evenodd"><path d="M2 2 2 16 2 17 2 30 2 31 2 46 46 46 46 2 2 2ZM4 16.001 44.001 16.001 44.001 4 4 4 4 16.001ZM4 30 44.001 30 44.001 18 4 18 4 30ZM4 44.001 44.001 44.001 44.001 32 4 32 4 44.001ZM35.151 11.008 32.578 9.184 31.422 10.816 35.371 13.617 40.707 8.28 39.293 6.866 35.151 11.008ZM35.151 25.008 32.578 23.184 31.422 24.816 35.371 27.617 40.707 22.281 39.293 20.867 35.151 25.008ZM36 36.646 33.647 34.293 32.233 35.707 34.586 38.06 32.233 40.414 33.647 41.829 36 39.475 38.354 41.829 39.768 40.414 37.414 38.06 39.768 35.707 38.354 34.293 36 36.646Z" id="Fill-1" fill="#DD344C"/></g></svg>