<svg width="80" height="80" viewBox="0 0 80 80" xmlns="http://www.w3.org/2000/svg" xmlns:xlink="http://www.w3.org/1999/xlink" overflow="hidden"><g id="Icon-Architecture/64/Arch_AWS-CloudTrail_64" stroke="none" stroke-width="1" fill="none" fill-rule="evenodd"><g id="Icon-Architecture-BG/64/Management-Governance" fill="#E7157B"><rect x="0" y="0" width="80" height="80" id="Rectangle"/></g><path d="M25 52.9961 29 52.9961 29 50.9941 25 50.9941 25 52.9961ZM59.971 38.1634C59.746 35.1264 58.261 32.8902 55.902 32.1004 54.003 31.4668 51.911 31.9143 50.318 33.2125 49.352 31.3077 47.9 29.4418 46.702 28.2597 42.406 24.0195 37.668 22.9384 32.616 25.0455 28.106 26.9223 24 33.0874 24 37.9812L24 38.1714C21.293 39.0863 19.109 41.0743 18.074 43.6088L19.926 44.3655C21.245 41.1354 24.332 40.1224 25.247 39.8891 25.69 39.776 26 39.3766 26 38.9192L26 37.9812C26 33.9363 29.657 28.4448 33.385 26.8933 37.68 25.1025 41.578 26.0114 45.298 29.6851 46.88 31.2456 48.427 33.5609 49.06 35.3176 49.184 35.664 49.488 35.9132 49.852 35.9683 50.212 36.0233 50.577 35.8742 50.799 35.5799 51.904 34.1104 53.696 33.4738 55.269 33.9993 57.004 34.5809 58 36.3967 58 38.9822 58 39.4717 58.354 39.8891 58.836 39.9692 59.569 40.0913 66 41.3516 66 47.9911 66 54.8679 59.281 54.996 59 54.998L36 54.998 36 57 59.002 57C62.114 56.994 68 55.1041 68 47.9911 68 41.784 63.279 38.9892 59.971 38.1634L59.971 38.1634ZM31 52.9961 45 52.9961 45 50.9941 31 50.9941 31 52.9961ZM27 57 33 57 33 54.998 27 54.998 27 57ZM12 57 15 57 15 54.998 12 54.998 12 57ZM15 48.9921 24 48.9921 24 46.9901 15 46.9901 15 48.9921ZM13 52.9961 23 52.9961 23 50.9941 13 50.9941 13 52.9961ZM27 48.9921 34 48.9921 34 46.9901 27 46.9901 27 48.9921ZM17 57 25 57 25 54.998 17 54.998 17 57Z" id="AWS-CloudTrail_Icon_64_Squid" fill="#FFFFFF"/></g></svg>