<svg width="48" height="48" viewBox="0 0 48 48" xmlns="http://www.w3.org/2000/svg" xmlns:xlink="http://www.w3.org/1999/xlink" overflow="hidden"><g id="Icon-Resource/Management-Governance/Res_AWS-Systems-Manager_Automation_48" stroke="none" stroke-width="1" fill="none" fill-rule="evenodd"><path d="M36.1575 15.6748 37.9405 16.5808 34.9715 22.4158C34.7965 22.7618 34.4455 22.9628 34.0795 22.9628 33.9435 22.9628 33.8045 22.9348 33.6735 22.8758L27.4805 20.1118 28.2955 18.2848 32.1665 20.0128C30.6755 16.9678 27.5405 14.9228 24.0335 14.9228 19.7535 14.9228 16.0235 17.9678 15.1655 22.1628L13.2065 21.7628C14.2545 16.6408 18.8075 12.9228 24.0335 12.9228 28.4855 12.9228 32.4405 15.6248 34.1655 19.5908L36.1575 15.6748ZM32.9025 25.7818 34.8615 26.1828C33.8165 31.3038 29.2625 35.0218 24.0345 35.0218 19.9175 35.0218 16.2675 32.7818 14.3675 29.3268L13.6235 32.8868 11.6665 32.4768 13.0065 26.0688C13.1155 25.5478 13.6265 25.2118 14.1385 25.2848L20.8385 26.3338 20.5295 28.3108 15.7215 27.5578C17.1235 30.8378 20.3525 33.0218 24.0345 33.0218 28.3165 33.0218 32.0465 29.9768 32.9025 25.7818L32.9025 25.7818ZM43.9455 27.0818 41.5225 26.9448C41.0565 26.9208 40.5975 27.2438 40.4905 27.7228 40.0675 29.5958 39.3325 31.3708 38.3035 33.0018 38.0435 33.4148 38.1195 33.9558 38.4835 34.2808L40.2945 35.8968 35.8975 40.2938 34.2875 38.4888C33.9615 38.1238 33.4185 38.0498 33.0075 38.3098 31.3805 39.3388 29.6015 40.0748 27.7215 40.4998 27.2455 40.6088 26.9165 41.0448 26.9445 41.5318L27.0825 43.9448 20.8635 43.9448 21.0015 41.5298C21.0295 41.0428 20.7005 40.6068 20.2235 40.4978 18.3505 40.0738 16.5735 39.3368 14.9405 38.3068 14.5285 38.0468 13.9855 38.1218 13.6615 38.4868L12.0495 40.2938 7.6515 35.8968 9.4585 34.2848C9.8225 33.9598 9.8985 33.4188 9.6375 33.0058 8.6115 31.3788 7.8765 29.6018 7.4525 27.7228 7.3445 27.2438 6.8815 26.9208 6.4205 26.9448L4.0005 27.0818 4.0005 20.8628 6.4275 21.0008C6.9045 21.0238 7.3495 20.6998 7.4595 20.2248 7.8835 18.3538 8.6205 16.5798 9.6485 14.9508 9.9095 14.5378 9.8335 13.9958 9.4695 13.6708L7.6505 12.0488 12.0495 7.6508 13.6705 9.4678C13.9945 9.8318 14.5375 9.9058 14.9495 9.6478 16.5755 8.6218 18.3495 7.8878 20.2225 7.4648 20.7005 7.3578 21.0295 6.9208 21.0015 6.4328L20.8635 3.9998 27.0825 3.9998 26.9445 6.4348C26.9165 6.9228 27.2455 7.3588 27.7215 7.4668 29.5925 7.8898 31.3655 8.6238 32.9935 9.6518 33.4035 9.9098 33.9465 9.8348 34.2725 9.4718L35.8965 7.6518 40.2945 12.0478 38.4795 13.6668C38.1155 13.9918 38.0395 14.5338 38.3005 14.9468 39.3285 16.5738 40.0645 18.3498 40.4885 20.2238 40.5955 20.6998 41.0565 21.0238 41.5205 21.0008L43.9455 20.8628 43.9455 27.0818ZM45.6325 19.0778C45.4325 18.8898 45.1575 18.7888 44.8885 18.8068L42.2335 18.9568C41.8165 17.4368 41.2125 15.9798 40.4285 14.6088L42.4165 12.8358C42.6215 12.6538 42.7425 12.3938 42.7505 12.1178 42.7585 11.8438 42.6515 11.5768 42.4575 11.3828L36.5625 5.4878C36.3685 5.2938 36.0905 5.2018 35.8275 5.1958 35.5525 5.2028 35.2925 5.3238 35.1095 5.5288L33.3315 7.5228C31.9605 6.7408 30.5055 6.1378 28.9875 5.7218L29.1385 3.0568C29.1545 2.7818 29.0565 2.5128 28.8675 2.3138 28.6785 2.1128 28.4165 1.9998 28.1405 1.9998L19.8045 1.9998C19.5295 1.9998 19.2665 2.1128 19.0785 2.3138 18.8885 2.5128 18.7915 2.7818 18.8065 3.0568L18.9585 5.7198C17.4375 6.1348 15.9815 6.7378 14.6115 7.5188L12.8365 5.5288C12.6525 5.3238 12.3935 5.2028 12.1185 5.1958 11.8355 5.2048 11.5775 5.2938 11.3835 5.4878L5.4885 11.3828C5.2945 11.5768 5.1875 11.8428 5.1955 12.1178 5.2035 12.3938 5.3245 12.6528 5.5295 12.8358L7.5195 14.6128C6.7365 15.9838 6.1325 17.4398 5.7155 18.9578L3.0565 18.8068C2.7885 18.7878 2.5125 18.8898 2.3135 19.0778 2.1135 19.2668 2.0005 19.5288 2.0005 19.8048L2.0005 28.1408C2.0005 28.4158 2.1135 28.6788 2.3135 28.8668 2.5125 29.0558 2.7895 29.1518 3.0565 29.1388L5.7075 28.9878C6.1235 30.5128 6.7275 31.9718 7.5095 33.3438L5.5295 35.1098C5.3245 35.2918 5.2035 35.5518 5.1955 35.8268 5.1875 36.1018 5.2945 36.3678 5.4885 36.5628L11.3835 42.4568C11.5775 42.6518 11.8325 42.7418 12.1185 42.7498 12.3935 42.7418 12.6535 42.6208 12.8365 42.4158L14.6025 40.4358C15.9775 41.2198 17.4365 41.8248 18.9575 42.2418L18.8065 44.8878C18.7915 45.1618 18.8885 45.4308 19.0785 45.6308 19.2665 45.8308 19.5295 45.9448 19.8045 45.9448L28.1405 45.9448C28.4165 45.9448 28.6785 45.8308 28.8675 45.6308 29.0565 45.4308 29.1545 45.1618 29.1385 44.8878L28.9885 42.2448C30.5135 41.8268 31.9735 41.2228 33.3455 40.4388L35.1095 42.4158C35.2925 42.6208 35.5525 42.7418 35.8275 42.7498 36.0935 42.7448 36.3685 42.6518 36.5625 42.4568L42.4575 36.5628C42.6515 36.3678 42.7585 36.1018 42.7505 35.8268 42.7425 35.5518 42.6215 35.2918 42.4165 35.1098L40.4325 33.3398C41.2165 31.9668 41.8195 30.5088 42.2355 28.9878L44.8885 29.1388C45.1565 29.1508 45.4325 29.0558 45.6325 28.8668 45.8325 28.6788 45.9455 28.4158 45.9455 28.1408L45.9455 19.8048C45.9455 19.5288 45.8325 19.2668 45.6325 19.0778L45.6325 19.0778Z" id="AWS-System-Manager_automation_Resource-Icon_light-bg" fill="#E7157B"/></g></svg>