<svg width="80" height="80" viewBox="0 0 80 80" xmlns="http://www.w3.org/2000/svg" xmlns:xlink="http://www.w3.org/1999/xlink" overflow="hidden"><g id="Icon-Architecture/64/Arch_Amazon-ElastiCache_64" stroke="none" stroke-width="1" fill="none" fill-rule="evenodd"><g id="Icon-Architecture-BG/64/Database" fill="#C925D1"><rect x="0" y="0" width="80" height="80" id="Rectangle"/></g><path d="M51 61.5555 51 55.7029C48.466 57.3401 43.904 58.1132 39.556 58.1132 34.816 58.1132 31.121 57.2861 29 55.868L29 61.5555C29 63.2486 32.948 64.9998 39.556 64.9998 46.3 64.9998 51 63.1846 51 61.5555L51 61.5555ZM39.556 49.2203C34.816 49.2203 31.121 48.3942 29 46.9761L29 52.6866C29.031 54.3738 32.973 56.113 39.556 56.113 46.279 56.113 50.969 54.3088 51 52.6826L51 46.8101C48.466 48.4482 43.904 49.2203 39.556 49.2203L39.556 49.2203ZM51 43.7908 51 37.0292C48.466 38.6663 43.904 39.4394 39.556 39.4394 34.816 39.4394 31.121 38.6133 29 37.1952L29 43.7948C29.031 45.482 32.973 47.2201 39.556 47.2201 46.279 47.2201 50.969 45.416 51 43.7908L51 43.7908ZM28.997 33.9929C28.997 33.9959 28.998 33.9989 28.998 34.0019L29 34.0019 29 34.0129C29.031 35.7 32.973 37.4392 39.556 37.4392 46.898 37.4392 50.969 35.417 51 34.0099L51 34.0019 51.002 34.0019C51.002 33.9989 51.003 33.9959 51.003 33.9929 51.003 32.5848 46.927 30.5466 39.556 30.5466 32.946 30.5466 28.997 32.2987 28.997 33.9929L28.997 33.9929ZM53 34.0179 53 43.7738 53.003 43.7738C53.003 43.7828 53 43.7898 53 43.7988L53 52.6666 53.003 52.6666C53.003 52.6756 53 52.6826 53 52.6917L53 61.5555C53 65.2968 46.031 67 39.556 67 31.929 67 27 64.8628 27 61.5555L27 52.6977C27 52.6866 26.997 52.6777 26.997 52.6666L27 52.6666 27 43.8048C27 43.7948 26.997 43.7848 26.997 43.7738L27 43.7738 27 34.0239C27 34.0129 26.997 34.0039 26.997 33.9929 26.997 30.6846 31.927 28.5464 39.556 28.5464 46.032 28.5464 53.003 30.2505 53.003 33.9929 53.003 34.0019 53 34.0089 53 34.0179L53 34.0179ZM67 21.1207C67.553 21.1207 68 20.6726 68 20.1206L68 15.0001C68 14.447 67.553 14 67 14L13 14C12.447 14 12 14.447 12 15.0001L12 20.1206C12 20.6726 12.447 21.1207 13 21.1207 14.221 21.1207 15.214 22.1078 15.214 23.3209 15.214 24.534 14.221 25.5211 13 25.5211 12.447 25.5211 12 25.9691 12 26.5212L12 47.0031C12 47.5552 12.447 48.0032 13 48.0032L23 48.0032 23 46.003 18 46.003 18 43.0027 23 43.0027 23 41.0025 17 41.0025C16.447 41.0025 16 41.4496 16 42.0026L16 46.003 14 46.003 14 27.4013C15.843 26.9522 17.214 25.2931 17.214 23.3209 17.214 21.3477 15.843 19.6885 14 19.2395L14 16.0002 66 16.0002 66 19.2395C64.157 19.6885 62.786 21.3477 62.786 23.3209 62.786 25.2931 64.157 26.9522 66 27.4013L66 46.003 64 46.003 64 42.0026C64 41.4496 63.553 41.0025 63 41.0025L57 41.0025 57 43.0027 62 43.0027 62 46.003 57 46.003 57 48.0032 67 48.0032C67.553 48.0032 68 47.5552 68 47.0031L68 26.5212C68 25.9691 67.553 25.5211 67 25.5211 65.779 25.5211 64.786 24.534 64.786 23.3209 64.786 22.1078 65.779 21.1207 67 21.1207L67 21.1207ZM28 28.0013 28 20.0006C28 19.4475 27.553 19.0005 27 19.0005L21 19.0005C20.447 19.0005 20 19.4475 20 20.0006L20 37.0022C20 37.5542 20.447 38.0023 21 38.0023L24 38.0023 24 36.0021 22 36.0021 22 21.0007 26 21.0007 26 28.0013 28 28.0013ZM58 36.0021 57 36.0021 57 38.0023 59 38.0023C59.553 38.0023 60 37.5542 60 37.0022L60 20.0006C60 19.4475 59.553 19.0005 59 19.0005L53 19.0005C52.447 19.0005 52 19.4475 52 20.0006L52 28.0013 54 28.0013 54 21.0007 58 21.0007 58 36.0021ZM50 27.0012 50 20.0006C50 19.4475 49.553 19.0005 49 19.0005L42 19.0005C41.447 19.0005 41 19.4475 41 20.0006L41 26.0011 43 26.0011 43 21.0007 48 21.0007 48 27.0012 50 27.0012ZM37 26.0011 37 21.0007 32 21.0007 32 27.0012 30 27.0012 30 20.0006C30 19.4475 30.447 19.0005 31 19.0005L38 19.0005C38.553 19.0005 39 19.4475 39 20.0006L39 26.0011 37 26.0011Z" id="Amazon-ElastiCache_Icon_64_Squid" fill="#FFFFFF"/></g></svg>