<svg width="48" height="48" viewBox="0 0 48 48" xmlns="http://www.w3.org/2000/svg" xmlns:xlink="http://www.w3.org/1999/xlink" overflow="hidden"><g id="Icon-Resource/Storage/Res_Amazon-Simple-Storage-Service_S3-Object-Lambda-Access-Points_48" stroke="none" stroke-width="1" fill="none" fill-rule="evenodd"><path d="M26.512 41.141 27.901 42.579 24.634 45.735C24.441 45.922 24.19 46.016 23.94 46.016 23.678 46.016 23.417 45.913 23.221 45.711L20.063 42.447 21.5 41.057 23 42.607 23 34 25 34 25 42.6 26.512 41.141ZM27.229 37.878 26.801 35.924C32.506 34.674 36.647 29.521 36.647 23.671 36.647 16.755 31.02 11.128 24.104 11.128 17.187 11.128 11.56 16.755 11.56 23.671 11.56 29.501 15.514 34.518 21.175 35.871L20.71 37.817C14.145 36.247 9.56 30.43 9.56 23.671 9.56 15.652 16.084 9.128 24.104 9.128 32.122 9.128 38.647 15.652 38.647 23.671 38.647 30.454 33.845 36.429 27.229 37.878L27.229 37.878ZM46 19.826 46 28.173C46 28.448 45.887 28.711 45.687 28.9 45.488 29.089 45.215 29.189 44.944 29.172L42.285 29.02C41.869 30.543 41.265 32.004 40.481 33.38L42.467 35.152C42.672 35.335 42.793 35.594 42.801 35.87 42.809 36.144 42.702 36.411 42.508 36.605L36.606 42.507C36.411 42.703 36.148 42.818 35.87 42.8 35.595 42.792 35.335 42.671 35.153 42.466L33.386 40.486C32.137 41.199 30.81 41.766 29.431 42.178L28.859 40.261C30.335 39.821 31.744 39.181 33.047 38.357 33.458 38.095 34.001 38.17 34.327 38.537L35.94 40.345 40.345 35.939 38.532 34.322C38.167 33.996 38.091 33.455 38.352 33.042 39.381 31.409 40.117 29.63 40.54 27.755 40.648 27.277 41.11 26.945 41.573 26.976L44 27.115 44 20.885 41.571 21.023C41.11 21.047 40.646 20.722 40.538 20.245 40.115 18.37 39.377 16.592 38.347 14.962 38.086 14.549 38.162 14.007 38.527 13.682L40.345 12.06 35.94 7.655 34.313 9.479C33.988 9.844 33.445 9.918 33.033 9.659 31.405 8.631 29.628 7.895 27.754 7.471 27.278 7.363 26.949 6.927 26.977 6.438L27.116 4 20.885 4 21.024 6.436C21.052 6.925 20.723 7.361 20.246 7.469 18.37 7.892 16.594 8.628 14.964 9.655 14.553 9.914 14.01 9.839 13.685 9.475L12.061 7.655 7.656 12.06 9.477 13.685C9.841 14.011 9.917 14.552 9.657 14.966 8.626 16.597 7.888 18.373 7.464 20.246 7.355 20.723 6.885 21.047 6.432 21.023L4 20.885 4 27.115 6.425 26.976C6.885 26.945 7.35 27.277 7.457 27.755 7.881 29.636 8.617 31.416 9.646 33.045 9.907 33.459 9.83 34 9.465 34.326L7.656 35.939 12.061 40.345 13.676 38.534C14.001 38.166 14.543 38.093 14.956 38.353 16.226 39.156 17.594 39.784 19.022 40.223L18.436 42.135C17.108 41.727 15.826 41.173 14.617 40.483L12.848 42.466C12.665 42.671 12.406 42.792 12.13 42.8 12.12 42.8 12.112 42.8 12.102 42.8 11.837 42.8 11.582 42.695 11.395 42.507L5.492 36.605C5.298 36.411 5.192 36.144 5.2 35.869 5.207 35.594 5.328 35.334 5.534 35.151L7.517 33.384C6.734 32.009 6.128 30.547 5.712 29.02L3.057 29.172C2.783 29.19 2.513 29.089 2.314 28.9 2.114 28.711 2 28.448 2 28.173L2 19.826C2 19.551 2.114 19.288 2.314 19.099 2.513 18.91 2.782 18.812 3.057 18.828L5.72 18.979C6.137 17.458 6.742 16 7.528 14.626L5.533 12.848C5.328 12.665 5.207 12.405 5.2 12.13 5.192 11.855 5.298 11.589 5.492 11.395L11.395 5.493C11.589 5.298 11.862 5.196 12.13 5.2 12.406 5.208 12.664 5.328 12.848 5.534L14.626 7.526C15.999 6.744 17.458 6.14 18.98 5.724L18.828 3.057C18.813 2.782 18.91 2.513 19.1 2.313 19.288 2.113 19.551 2 19.826 2L28.174 2C28.449 2 28.712 2.113 28.901 2.313 29.09 2.513 29.188 2.782 29.172 3.057L29.021 5.726C30.541 6.143 31.999 6.747 33.371 7.53L35.153 5.534C35.336 5.328 35.595 5.208 35.87 5.2 36.145 5.193 36.411 5.298 36.606 5.493L42.508 11.395C42.702 11.589 42.809 11.855 42.801 12.13 42.793 12.406 42.672 12.665 42.467 12.848L40.477 14.623C41.261 15.997 41.866 17.456 42.283 18.979L44.944 18.828C45.216 18.813 45.488 18.91 45.687 19.099 45.887 19.288 46 19.551 46 19.826L46 19.826ZM27 26C28.103 26 29 26.897 29 28 29 29.103 28.103 30 27 30 25.898 30 25 29.103 25 28 25 26.897 25.898 26 27 26L27 26ZM27 32C29.206 32 31 30.205 31 28 31 25.794 29.206 24 27 24 24.794 24 23 25.794 23 28 23 30.205 24.794 32 27 32L27 32ZM28.438 17.09 30.03 20 26.779 20 28.438 17.09ZM25.057 22 31.716 22C32.07 22 32.396 21.814 32.576 21.51 32.756 21.206 32.763 20.83 32.593 20.52L29.333 14.56C29.159 14.242 28.827 14.043 28.465 14.04 28.138 14.051 27.768 14.23 27.588 14.544L24.189 20.504C24.012 20.814 24.013 21.194 24.193 21.502 24.371 21.81 24.7 22 25.057 22L25.057 22ZM16 25 19 25 19 22 16 22 16 25ZM15 20C14.448 20 14 20.448 14 21L14 26C14 26.552 14.448 27 15 27L20 27C20.553 27 21 26.552 21 26L21 21C21 20.448 20.553 20 20 20L15 20Z" id="Fill-1" fill="#7AA116"/></g></svg>