<svg width="48" height="48" viewBox="0 0 48 48" xmlns="http://www.w3.org/2000/svg" xmlns:xlink="http://www.w3.org/1999/xlink" overflow="hidden"><g id="Icon-Resource/IoT/Res_AWS-IoT_Topic_48" stroke="none" stroke-width="1" fill="none" fill-rule="evenodd"><path d="M11 39.954 11 14.329C13.77 15.995 19.001 16.648 23.998 16.648 28.807 16.648 34.168 15.972 36.996 14.241L36.996 39.954C36.996 41.568 31.933 43.914 23.998 43.914 16.063 43.914 11 41.568 11 39.954ZM38.97 11.32C38.958 11.169 38.951 11.015 38.916 10.876 38.578 9.473 37.218 8.279 34.871 7.331L34.121 9.185C35.738 9.839 36.804 10.645 36.974 11.351 36.977 11.367 36.977 11.384 36.979 11.4 36.813 12.696 32.598 14.477 25.06 14.633L22.922 14.633C15.231 14.483 11.104 12.756 11.01 11.466 11.014 11.426 11.015 11.386 11.025 11.343 11.192 10.645 12.258 9.839 13.875 9.185L13.125 7.331C10.778 8.279 9.418 9.473 9.083 10.867 9.038 11.045 9.022 11.234 9.015 11.42L9 11.42C9 11.44 9.007 11.458 9.008 11.477 9.007 11.498 9 11.518 9 11.538L9 39.954C9 43.825 16.727 45.914 23.998 45.914 31.269 45.914 38.996 43.825 38.996 39.954L38.996 11.538C38.996 11.5 38.984 11.464 38.982 11.425 38.984 11.39 38.996 11.356 38.996 11.32L38.97 11.32ZM23.998 9.001 18.656 4 29.34 4 23.998 9.001ZM17.124 5.307 23.314 11.101C23.507 11.28 23.753 11.37 23.998 11.37 24.243 11.37 24.489 11.28 24.682 11.101L30.872 5.307 30.872 12.536 32.872 12.536 32.872 3C32.872 2.447 32.425 2 31.872 2L16.124 2C15.571 2 15.124 2.447 15.124 3L15.124 12.536 17.124 12.536 17.124 5.307Z" id="Amazon-IOT-RESOURCES-IoT-topic_Resource-Icon_light-bg" fill="#7AA116"/></g></svg>