<svg width="48" height="48" viewBox="0 0 48 48" xmlns="http://www.w3.org/2000/svg" xmlns:xlink="http://www.w3.org/1999/xlink" overflow="hidden"><g id="Icon-Resource/Analytics/Res_Amazon-Redshift_Dense-Compute-Node_48" stroke="none" stroke-width="1" fill="none" fill-rule="evenodd"><path d="M17.423 26.541C17.771 26.541 18.267 26.45 18.909 26.27L18.909 27.518C18.41 27.752 17.851 27.87 17.23 27.87 15.11 27.87 14.051 26.53 14.051 23.851 14.051 22.526 14.327 21.512 14.879 20.808 15.432 20.104 16.227 19.752 17.264 19.752 17.793 19.752 18.312 19.854 18.819 20.059L18.819 21.308C18.297 21.148 17.842 21.069 17.456 21.069 16.859 21.069 16.419 21.278 16.14 21.699 15.86 22.119 15.72 22.783 15.72 23.692L15.72 23.953C15.72 24.847 15.856 25.501 16.128 25.917 16.401 26.333 16.832 26.541 17.423 26.541L17.423 26.541ZM11.28 23.919C11.28 24.805 11.159 25.462 10.917 25.89 10.675 26.316 10.308 26.53 9.816 26.53L9.147 26.53 9.147 21.091 9.805 21.091C10.312 21.091 10.685 21.302 10.923 21.722 11.161 22.142 11.28 22.799 11.28 23.692L11.28 23.919ZM9.93 19.877 7.557 19.877 7.557 27.745 9.986 27.745C10.941 27.745 11.666 27.412 12.166 26.746 12.666 26.08 12.915 25.1 12.915 23.805 12.915 22.519 12.661 21.542 12.154 20.876 11.648 20.21 10.905 19.877 9.93 19.877L9.93 19.877ZM36.93 26.48C36.442 26.548 36.061 26.948 36.061 27.454L36.061 30.433 33.732 29.655 36.417 25.731 36.93 26.48ZM38.061 34.313 43.92 34.313 43.92 28.454 38.061 28.454 38.061 34.313ZM33.694 39.452 33.694 37.061C33.694 36.508 33.246 36.061 32.694 36.061L29.349 36.061 32.558 31.371 36.061 32.54 36.061 35.313C36.061 35.866 36.508 36.313 37.061 36.313L37.896 36.313C36.378 37.465 34.816 38.625 33.694 39.452L33.694 39.452ZM25.835 43.92 31.694 43.92 31.694 38.061 25.835 38.061 25.835 43.92ZM23.087 31.947C23.64 31.947 24.087 31.5 24.087 30.947L24.087 28.545 30.585 30.713 26.926 36.061 24.834 36.061C24.608 36.061 24.409 36.149 24.241 36.276L18.917 31.947 23.087 31.947ZM4 29.948 22.087 29.948 22.087 17.974 4 17.974 4 29.948ZM24.241 11.645C24.409 11.771 24.608 11.86 24.834 11.86L26.926 11.86 30.585 17.208 24.087 19.376 24.087 16.974C24.087 16.421 23.64 15.974 23.087 15.974L18.917 15.974 24.241 11.645ZM25.834 9.86 31.693 9.86 31.693 4 25.834 4 25.834 9.86ZM37.896 11.607 37.061 11.607C36.508 11.607 36.061 12.055 36.061 12.607L36.061 15.381 32.558 16.55 29.349 11.86 32.694 11.86C33.246 11.86 33.694 11.413 33.694 10.86L33.694 8.469C34.816 9.296 36.378 10.456 37.896 11.607L37.896 11.607ZM38.061 19.467 43.92 19.467 43.92 13.608 38.061 13.608 38.061 19.467ZM33.732 18.266 36.061 17.488 36.061 20.467C36.061 20.973 36.442 21.373 36.93 21.44L36.417 22.19 33.732 18.266ZM24.087 21.483 31.759 18.924 35.205 23.96 31.759 28.997 24.087 26.437 24.087 21.483ZM39.334 21.467 44.92 21.467C45.473 21.467 45.92 21.02 45.92 20.467L45.92 12.607C45.92 12.055 45.473 11.607 44.92 11.607L41.178 11.607C38.557 9.56 34.9 6.87 33.694 5.986L33.694 3C33.694 2.447 33.246 2 32.694 2L24.834 2C24.281 2 23.834 2.447 23.834 3L23.834 9.396 15.745 15.974 3 15.974C2.447 15.974 2 16.421 2 16.974L2 30.947C2 31.5 2.447 31.947 3 31.947L15.745 31.947 23.834 38.523 23.834 44.92C23.834 45.473 24.281 45.92 24.834 45.92L32.694 45.92C33.246 45.92 33.694 45.473 33.694 44.92L33.694 41.935C34.9 41.051 38.557 38.361 41.178 36.313L44.92 36.313C45.473 36.313 45.92 35.866 45.92 35.313L45.92 27.454C45.92 26.901 45.473 26.454 44.92 26.454L39.334 26.454 37.628 23.96 39.334 21.467Z" id="Fill-19" fill="#8C4FFF"/></g></svg>