<svg width="48" height="48" viewBox="0 0 48 48" xmlns="http://www.w3.org/2000/svg" xmlns:xlink="http://www.w3.org/1999/xlink" overflow="hidden"><g id="Icon-Resource/Storage/Res_AWS-Storage-Gateway_Cached-Volume_48" stroke="none" stroke-width="1" fill="none" fill-rule="evenodd"><path d="M36.5442 14.3457 32.8672 14.3457 32.8672 7.0877 36.5442 7.0877 36.5442 7.9047 33.8832 7.9047 33.8832 10.1887 36.0832 10.1887 36.0832 11.0047 33.8832 11.0047 33.8832 13.5297 36.5442 13.5297 36.5442 14.3457ZM27.6412 14.3457 26.6252 14.3457 26.6252 7.0877 27.6412 7.0877 27.6412 10.2187 30.2802 10.2187 30.2802 7.0877 31.2972 7.0877 31.2972 14.3457 30.2802 14.3457 30.2802 11.0467 27.6412 11.0467 27.6412 14.3457ZM21.2112 10.7427C21.2112 9.5207 21.4522 8.5927 21.9342 7.9567 22.4142 7.3227 23.1242 7.0047 24.0592 7.0047 24.5062 7.0047 24.9562 7.0987 25.4102 7.2867L25.4102 8.1147C24.9422 7.9677 24.5312 7.8947 24.1752 7.8947 23.5192 7.8947 23.0382 8.1097 22.7342 8.5377 22.4312 8.9677 22.2792 9.6577 22.2792 10.6077L22.2792 10.8587C22.2792 11.8087 22.4262 12.4947 22.7192 12.9217 23.0122 13.3477 23.4832 13.5607 24.1332 13.5607 24.4462 13.5607 24.9002 13.4727 25.4932 13.2977L25.4932 14.1257C25.0402 14.3417 24.5482 14.4497 24.0182 14.4497 22.1472 14.4497 21.2112 13.2147 21.2112 10.7427L21.2112 10.7427ZM18.0902 8.0617 18.9902 11.6127 17.1892 11.6127 18.0902 8.0617ZM17.0012 12.3877 19.1902 12.3877 19.6912 14.3457 20.7602 14.3457 18.6652 7.0877 17.5662 7.0877 15.4722 14.3457 16.5082 14.3457 17.0012 12.3877ZM10.7492 10.7427C10.7492 9.5207 10.9902 8.5927 11.4722 7.9567 11.9522 7.3227 12.6612 7.0047 13.5972 7.0047 14.0442 7.0047 14.4942 7.0987 14.9482 7.2867L14.9482 8.1147C14.4812 7.9677 14.0692 7.8947 13.7132 7.8947 13.0572 7.8947 12.5762 8.1097 12.2732 8.5377 11.9692 8.9677 11.8172 9.6577 11.8172 10.6077L11.8172 10.8587C11.8172 11.8087 11.9642 12.4947 12.2572 12.9217 12.5502 13.3477 13.0222 13.5607 13.6712 13.5607 13.9842 13.5607 14.4392 13.4727 15.0312 13.2977L15.0312 14.1257C14.5782 14.3417 14.0862 14.4497 13.5562 14.4497 11.6852 14.4497 10.7492 13.2147 10.7492 10.7427L10.7492 10.7427ZM39.1642 43.8917 30.6912 43.8917 30.6912 38.7827C30.6912 38.2297 30.2442 37.7827 29.6912 37.7827L17.4732 37.7827C16.9202 37.7827 16.4732 38.2297 16.4732 38.7827L16.4732 43.8917 8.0002 43.8917 8.0002 3.9997 39.1642 3.9997 39.1642 43.8917ZM40.1642 1.9997 7.0002 1.9997C6.4472 1.9997 6.0002 2.4477 6.0002 2.9997L6.0002 44.8917C6.0002 45.4447 6.4472 45.8917 7.0002 45.8917L17.4732 45.8917C18.0252 45.8917 18.4732 45.4447 18.4732 44.8917L18.4732 39.7827 28.6912 39.7827 28.6912 44.8917C28.6912 45.4447 29.1392 45.8917 29.6912 45.8917L40.1642 45.8917C40.7172 45.8917 41.1642 45.4447 41.1642 44.8917L41.1642 2.9997C41.1642 2.4477 40.7172 1.9997 40.1642 1.9997L40.1642 1.9997Z" id="AWS-Storage-Gateway_Cached-volume_Resource-Icon_light-bg" fill="#7AA116"/></g></svg>