<svg width="48" height="48" viewBox="0 0 48 48" xmlns="http://www.w3.org/2000/svg" xmlns:xlink="http://www.w3.org/1999/xlink" overflow="hidden"><g id="Icon-Resource/Security-Identity-and-Compliance/Res_AWS-Identity-Access-Management_IAM-Access-Analyzer_48" stroke="none" stroke-width="1" fill="none" fill-rule="evenodd"><path d="M15 25.001 19 25.001 19 23.001 15 23.001 15 25.001ZM4 27.001 11 27.001 11 20.001 4 20.001 4 27.001ZM12 29.001 3 29.001C2.448 29.001 2 28.553 2 28.001L2 19.001C2 18.448 2.448 18.001 3 18.001L12 18.001C12.552 18.001 13 18.448 13 19.001L13 28.001C13 28.553 12.552 29.001 12 29.001L12 29.001ZM43.2 27.001 40 21.891 36.8 27.001 43.2 27.001ZM45.87 28.481C45.696 28.799 45.362 28.998 45 29.001L35 29.001C34.448 29.002 33.999 28.555 33.998 28.003 33.997 27.815 34.05 27.631 34.149 27.471L39.149 19.471C39.44 19.001 40.058 18.857 40.526 19.148 40.658 19.229 40.769 19.34 40.851 19.471L45.851 27.471C46.038 27.779 46.046 28.165 45.87 28.481L45.87 28.481ZM43 41.001C43 39.344 41.657 38.001 40 38.001 38.343 38.001 37 39.344 37 41.001 37 42.658 38.343 44.001 40 44.001 41.657 44.001 43 42.658 43 41.001L43 41.001ZM45 41.001C45.003 43.762 42.767 46.003 40.005 46.006 37.625 46.008 35.573 44.333 35.101 42.001L7 42.001C6.448 42.001 6 41.553 6 41.001L6 31.001 8 31.001 8 40.001 35.101 40.001C35.649 37.295 38.288 35.546 40.995 36.096 43.327 36.569 45.003 38.621 45 41.001L45 41.001ZM22 25.001 26 25.001 26 23.001 22 23.001 22 25.001ZM37 7.001C37 8.658 38.343 10.001 40 10.001 41.657 10.001 43 8.658 43 7.001 43 5.344 41.657 4.001 40 4.001 38.343 4.001 37 5.344 37 7.001L37 7.001ZM8 16.001 6 16.001 6 7.001C6 6.448 6.448 6.001 7 6.001L35.101 6.001C35.652 3.295 38.294 1.55 40.999 2.102 43.704 2.654 45.45 5.295 44.897 8.001 44.346 10.706 41.704 12.452 38.999 11.9 37.035 11.499 35.501 9.965 35.101 8.001L8 8.001 8 16.001ZM29 25.001 33 25.001 33 23.001 29 23.001 29 25.001Z" id="AWS-Identity-and-Access-Management_AWS-IAM-Access-Analyzer_Resource-Icon_light-bg" fill="#DD344C"/></g></svg>