<svg width="48" height="48" viewBox="0 0 48 48" xmlns="http://www.w3.org/2000/svg" xmlns:xlink="http://www.w3.org/1999/xlink" overflow="hidden"><g id="Icon-Resource/Security-Identity-and-Compliance/Res_AWS-Network-Firewall_Endpoints_48" stroke="none" stroke-width="1" fill="none" fill-rule="evenodd"><path d="M45.4123 23.293 41.9743 19.855 40.5592 21.269 42.2912 23 35.8283 23 35.8283 25 42.2912 25 40.5592 26.731 41.9743 28.146 45.4123 24.707C45.8032 24.316 45.8032 23.684 45.4123 23.293L45.4123 23.293ZM7.12125 21.293 5.70725 19.879 2.29325 23.293C1.90225 23.684 1.90225 24.316 2.29325 24.707L5.70725 28.121 7.12125 26.707 5.41425 25 11.8282 25 11.8282 23 5.41425 23 7.12125 21.293ZM31.8283 25 24.8283 25 24.8283 28 29.8283 28 31.8283 28 31.8283 25ZM28.8283 30 23.8283 30 21.8283 30 21.8283 33 28.8283 33 28.8283 30ZM15.8282 28 20.8283 28 22.8283 28 22.8283 25 15.8282 25 15.8282 28ZM17.6303 23 23.8283 23 29.9342 23C29.9123 21.739 29.5993 20.842 29.2472 20.241 28.5833 21.485 27.4932 21.901 26.8533 21.929 26.5772 21.93 26.3162 21.841 26.1192 21.652 25.9223 21.463 25.8102 21.202 25.8102 20.93 25.8102 17.192 23.4872 15.295 21.5572 14.363 22.0133 15.626 22.1842 17.336 21.4093 19.466 21.2752 19.833 20.9393 20.088 20.5502 20.12 20.1443 20.15 19.7862 19.951 19.5963 19.61 19.3953 19.251 19.0252 18.711 18.5912 18.244 18.7733 19.536 18.7423 21.135 17.9053 22.406 17.7943 22.601 17.7103 22.8 17.6303 23L17.6303 23ZM33.8283 24 33.8283 29C33.8283 29.552 33.3812 30 32.8283 30L30.8283 30 30.8283 34C30.8283 34.552 30.3813 35 29.8283 35L20.8283 35C20.2752 35 19.8283 34.552 19.8283 34L19.8283 30 14.8282 30C14.2753 30 13.8282 29.552 13.8282 29L13.8282 24C13.8282 23.448 14.2753 23 14.8282 23L15.5422 23C15.6842 22.458 15.8752 21.93 16.1553 21.439 16.1632 21.426 16.2173 21.334 16.2253 21.321 17.1303 19.947 16.4722 17.501 16.1413 16.674 16.0193 16.366 16.0572 16.016 16.2432 15.742 16.4293 15.467 16.7393 15.302 17.0702 15.302 18.2033 15.302 19.1922 15.996 19.9333 16.753 19.9823 14.54 18.6162 13.378 18.5432 13.317 18.1963 13.03 18.0802 12.545 18.2642 12.134 18.4473 11.724 18.8762 11.48 19.3242 11.552 21.9403 11.952 26.6343 14.011 27.6243 18.979 27.6952 18.768 27.7533 18.512 27.7862 18.199 27.8213 17.865 28.0212 17.571 28.3183 17.417 28.6182 17.262 28.9743 17.267 29.2663 17.429 29.3743 17.49 31.8822 18.936 31.9373 23L32.8283 23C33.3812 23 33.8283 23.448 33.8283 24L33.8283 24ZM4.75025 18C7.30625 9.895 14.8903 4 23.8283 4 32.7663 4 40.3503 9.895 42.9062 18L44.9893 18C42.3713 8.777 33.8792 2 23.8283 2 13.7773 2 5.28525 8.777 2.66725 18L4.75025 18ZM44.9893 30C42.3713 39.223 33.8792 46 23.8283 46 13.7773 46 5.28525 39.223 2.66725 30L4.75025 30C7.30625 38.105 14.8903 44 23.8283 44 32.7663 44 40.3503 38.105 42.9062 30L44.9893 30Z" id="Fill-1" fill="#DD344C"/></g></svg>