<svg width="48" height="48" viewBox="0 0 48 48" xmlns="http://www.w3.org/2000/svg" xmlns:xlink="http://www.w3.org/1999/xlink" overflow="hidden"><g id="Icon-Resource/Security-Identity-and-Compliance/Res_AWS-Identity-Access-Management_Temporary-Security-Credential_48" stroke="none" stroke-width="1" fill="none" fill-rule="evenodd"><path d="M35.201 29.6397 37.201 29.6397 37.201 37.6297 30.959 37.6297 30.959 35.6297 35.201 35.6297 35.201 29.6397ZM36.201 43.4937C31.934 43.4937 28.464 40.0227 28.464 35.7557 28.464 31.4897 31.934 28.0187 36.201 28.0187 40.468 28.0187 43.938 31.4897 43.938 35.7557 43.938 40.0227 40.468 43.4937 36.201 43.4937L36.201 43.4937ZM36.201 26.0187C30.832 26.0187 26.464 30.3867 26.464 35.7557 26.464 41.1247 30.832 45.4937 36.201 45.4937 41.57 45.4937 45.938 41.1247 45.938 35.7557 45.938 30.3867 41.57 26.0187 36.201 26.0187L36.201 26.0187ZM4 38.2507 24.843 38.2507 24.843 40.2507 3 40.2507C2.447 40.2507 2 39.8037 2 39.2507L2 34.8817 4 34.8817 4 38.2507ZM39.319 9.6187C40.124 9.6187 40.778 10.2737 40.778 11.0777 40.778 11.8817 40.124 12.5357 39.319 12.5357 38.515 12.5357 37.861 11.8817 37.861 11.0777 37.861 10.2737 38.515 9.6187 39.319 9.6187L39.319 9.6187ZM39.319 14.5357C41.226 14.5357 42.778 12.9847 42.778 11.0777 42.778 9.1697 41.226 7.6187 39.319 7.6187 37.412 7.6187 35.861 9.1697 35.861 11.0777 35.861 12.9847 37.412 14.5357 39.319 14.5357L39.319 14.5357ZM14.494 9.6187 29.17 9.6187C29.605 9.6187 29.991 9.3367 30.123 8.9207 31.056 5.9777 33.764 3.9997 36.861 3.9997 40.763 3.9997 43.938 7.1747 43.938 11.0777 43.938 14.9797 40.763 18.1547 36.861 18.1547 33.764 18.1547 31.056 16.1767 30.123 13.2347 29.991 12.8187 29.605 12.5357 29.17 12.5357L26.677 12.5357C26.411 12.5357 26.157 12.6417 25.97 12.8287L24.569 14.2287 23.17 12.8287C22.982 12.6417 22.728 12.5357 22.463 12.5357L21.057 12.5357C20.792 12.5357 20.538 12.6417 20.35 12.8287L18.95 14.2287 17.551 12.8287C17.363 12.6417 17.109 12.5357 16.844 12.5357L15.112 12.5357 13.33 10.9767 14.494 9.6187ZM14.078 14.2887C14.26 14.4487 14.494 14.5357 14.736 14.5357L16.43 14.5357 18.243 16.3497C18.634 16.7407 19.266 16.7407 19.657 16.3497L21.472 14.5357 22.049 14.5357 23.862 16.3497C24.253 16.7407 24.886 16.7407 25.276 16.3497L27.091 14.5357 28.47 14.5357C29.853 17.9257 33.138 20.1547 36.861 20.1547 41.866 20.1547 45.938 16.0817 45.938 11.0777 45.938 6.0727 41.866 1.9997 36.861 1.9997 33.138 1.9997 29.853 4.2297 28.47 7.6187L14.034 7.6187C13.742 7.6187 13.465 7.7467 13.275 7.9677L11.168 10.4257C10.81 10.8427 10.855 11.4687 11.268 11.8297L14.078 14.2887ZM2 26.3547C2 21.3517 6.07 17.2817 11.073 17.2817 14.802 17.2817 18.089 19.5097 19.472 22.8997L20.847 22.8997 22.659 21.0857C23.034 20.7107 23.698 20.7107 24.073 21.0857L25.886 22.8997 26.465 22.8997 28.277 21.0857C28.668 20.6967 29.3 20.6957 29.69 21.0847L31.512 22.8997 33.204 22.8997C33.445 22.8997 33.678 22.9867 33.86 23.1447L34.674 23.8517 33.361 25.3617 32.83 24.8997 31.098 24.8997C30.834 24.8997 30.58 24.7947 30.392 24.6077L28.986 23.2057 27.586 24.6067C27.398 24.7937 27.144 24.8997 26.879 24.8997L25.472 24.8997C25.206 24.8997 24.952 24.7937 24.764 24.6067L23.366 23.2067 21.968 24.6067C21.78 24.7937 21.526 24.8997 21.261 24.8997L18.77 24.8997C18.334 24.8997 17.948 24.6177 17.817 24.2017 16.886 21.2587 14.176 19.2817 11.073 19.2817 7.173 19.2817 4 22.4537 4 26.3547 4 30.2597 7.173 33.4367 11.073 33.4367 14.176 33.4367 16.886 31.4587 17.817 28.5167 17.948 28.1007 18.334 27.8187 18.77 27.8187L27.211 27.8187 27.211 29.8187 19.472 29.8187C18.089 33.2077 14.802 35.4367 11.073 35.4367 6.07 35.4367 2 31.3627 2 26.3547L2 26.3547ZM8.618 27.8167C7.814 27.8167 7.16 27.1617 7.16 26.3587 7.16 25.5547 7.814 24.9007 8.618 24.9007 9.423 24.9007 10.077 25.5547 10.077 26.3587 10.077 27.1617 9.423 27.8167 8.618 27.8167L8.618 27.8167ZM8.618 22.9007C6.711 22.9007 5.16 24.4517 5.16 26.3587 5.16 28.2657 6.711 29.8167 8.618 29.8167 10.525 29.8167 12.077 28.2657 12.077 26.3587 12.077 24.4517 10.525 22.9007 8.618 22.9007L8.618 22.9007Z" id="AWS-Identity-and-Access-Management_Temporary-security-credential_Resource-Icon_dark-bg" fill="#DD344C"/></g></svg>