<svg width="48" height="48" viewBox="0 0 48 48" xmlns="http://www.w3.org/2000/svg" xmlns:xlink="http://www.w3.org/1999/xlink" overflow="hidden"><g id="Icon-Resource/Database/Res_Amazon-RDS_Blue-Green-Deployments_48" stroke="none" stroke-width="1" fill="none" fill-rule="evenodd"><path d="M35.8506 24.326 32.0576 28.119 30.6436 26.705 35.1436 22.205C35.5346 21.814 36.1666 21.814 36.5576 22.205L41.0576 26.705 39.6436 28.119 35.8506 24.326ZM30.6436 31.705 35.1436 27.205C35.5346 26.814 36.1666 26.814 36.5576 27.205L41.0576 31.705 39.6436 33.119 35.8506 29.326 32.0576 33.119 30.6436 31.705ZM27.8106 28.057 24.9336 30.934 23.5196 29.52 24.6686 28.37 16.0176 28.37 16.0176 26.37 24.7096 26.37 23.5196 25.18 24.9336 23.766 27.8106 26.643C27.9976 26.83 28.1036 27.085 28.1036 27.35 28.1036 27.615 27.9976 27.869 27.8106 28.057L27.8106 28.057ZM35.7816 15.592C31.1286 15.592 28.0036 14.146 28.0036 12.796 28.0036 11.446 31.1286 10 35.7816 10 40.9016 10 44.0456 11.629 44.0456 12.796 44.0456 13.964 40.9016 15.592 35.7816 15.592L35.7816 15.592ZM46.0456 12.796C46.0456 9.647 40.8816 8 35.7816 8 29.9336 8 26.0036 9.928 26.0036 12.796 26.0036 12.873 26.0176 12.946 26.0236 13.021L26.0176 13.021 26.0176 21.37 28.0176 21.37 28.0176 15.888C29.7316 16.961 32.4416 17.592 35.7816 17.592 38.9056 17.592 42.0466 16.971 44.0176 15.769L44.0176 36.052C44.0176 37.185 41.0816 38.824 35.7746 38.824 30.9836 38.824 28.0176 37.385 28.0176 36.052L28.0176 33.37 26.0176 33.37 26.0176 36.052C26.0176 38.906 29.9386 40.824 35.7746 40.824 40.7076 40.824 46.0176 39.33 46.0176 36.052L46.0176 13.07C46.0266 12.979 46.0456 12.89 46.0456 12.796L46.0456 12.796ZM12.2596 10C16.9096 10 20.0326 11.446 20.0326 12.796 20.0326 14.146 16.9096 15.592 12.2596 15.592 7.1426 15.592 3.9996 13.964 3.9996 12.796 3.9996 11.629 7.1426 10 12.2596 10L12.2596 10ZM20.0176 36.052C20.0176 37.385 17.0516 38.824 12.2606 38.824 6.9536 38.824 4.0176 37.185 4.0176 36.052L4.0176 31.488C6.0196 32.721 9.2596 33.302 12.3536 33.302L12.3536 31.302C7.2086 31.302 4.0506 29.685 4.0506 28.526L4.0176 28.526 4.0176 23.923C6.0196 25.156 9.2596 25.737 12.3536 25.737L12.3536 23.737C7.2086 23.737 4.0506 22.12 4.0506 20.961L4.0176 20.961 4.0176 15.763C5.9866 16.969 9.1326 17.592 12.2596 17.592 15.5966 17.592 18.3046 16.962 20.0176 15.889L20.0176 21.37 22.0176 21.37 22.0176 13.084 22.0076 13.084C22.0166 12.988 22.0326 12.894 22.0326 12.796 22.0326 9.928 18.1046 8 12.2596 8 7.1616 8 1.9996 9.647 1.9996 12.796 1.9996 12.855 2.0136 12.909 2.0176 12.966L2.0176 36.052C2.0176 39.33 7.3276 40.824 12.2606 40.824 18.0966 40.824 22.0176 38.906 22.0176 36.052L22.0176 33.37 20.0176 33.37 20.0176 36.052Z" id="Fill-1" fill="#C925D1"/></g></svg>