<svg width="80" height="80" viewBox="0 0 80 80" xmlns="http://www.w3.org/2000/svg" xmlns:xlink="http://www.w3.org/1999/xlink" overflow="hidden"><g id="Icon-Architecture/64/Arch_AWS-Step-Functions_64" stroke="none" stroke-width="1" fill="none" fill-rule="evenodd"><g id="Icon-Architecture-BG/64/Application-Integration" fill="#E7157B"><rect x="0" y="0" width="80" height="80" id="Rectangle"/></g><path d="M45 44 66 44 66 37 45 37 45 44ZM67 35 44 35C43.447 35 43 35.448 43 36L43 45C43 45.552 43.447 46 44 46L67 46C67.553 46 68 45.552 68 45L68 36C68 35.448 67.553 35 67 35L67 35ZM43.5 62.5C43.5 64.43 41.93 66 40 66 38.07 66 36.5 64.43 36.5 62.5 36.5 60.57 38.07 59 40 59 41.93 59 43.5 60.57 43.5 62.5L43.5 62.5ZM14 47 32 47 32 43 14 43 14 47ZM14 37 32 37 32 33 14 33 14 37ZM36.5 17.5C36.5 15.57 38.07 14 40 14 41.93 14 43.5 15.57 43.5 17.5 43.5 19.43 41.93 21 40 21 38.07 21 36.5 19.43 36.5 17.5L36.5 17.5ZM56 53 24 53 24 49 33 49C33.553 49 34 48.552 34 48L34 42C34 41.448 33.553 41 33 41L24 41 24 39 33 39C33.553 39 34 38.552 34 38L34 32C34 31.448 33.553 31 33 31L24 31 24 28 56 28 56 32 58 32 58 27C58 26.448 57.553 26 57 26L41 26 41 22.904C43.556 22.432 45.5 20.191 45.5 17.5 45.5 14.467 43.032 12 40 12 36.968 12 34.5 14.467 34.5 17.5 34.5 20.191 36.444 22.432 39 22.904L39 26 23 26C22.447 26 22 26.448 22 27L22 31 13 31C12.447 31 12 31.448 12 32L12 38C12 38.552 12.447 39 13 39L22 39 22 41 13 41C12.447 41 12 41.448 12 42L12 48C12 48.552 12.447 49 13 49L22 49 22 54C22 54.552 22.447 55 23 55L39 55 39 57.096C36.444 57.568 34.5 59.809 34.5 62.5 34.5 65.533 36.968 68 40 68 43.032 68 45.5 65.533 45.5 62.5 45.5 59.809 43.556 57.568 41 57.096L41 55 57 55C57.553 55 58 54.552 58 54L58 49.027 56 49.027 56 53Z" id="AWS_Step_Functions_Icon_64_Squid" fill="#FFFFFF"/></g></svg>