<svg width="48" height="48" viewBox="0 0 48 48" xmlns="http://www.w3.org/2000/svg" xmlns:xlink="http://www.w3.org/1999/xlink" overflow="hidden"><g id="Icon-Resource/Database/Res_Amazon-RDS_Optimized-Writes_48" stroke="none" stroke-width="1" fill="none" fill-rule="evenodd"><path d="M43.7578 17.0608 36.5518 14.2328 35.4938 16.9278 42.6928 19.7748 43.7578 17.0608ZM41.9618 21.6358 34.7628 18.7898 29.2508 32.8318 31.8248 33.8418 35.9598 23.7808 37.8098 24.5418 33.6868 34.5728 36.4568 35.6598 41.9618 21.6358ZM29.3918 42.8538 35.1518 37.2958 29.0528 34.9018 29.3918 42.8538ZM45.9848 16.8608 37.9528 37.3218C37.8598 37.5598 37.6808 37.7328 37.4678 37.8398L29.1818 45.8368C28.9918 46.0198 28.7408 46.1168 28.4868 46.1168 28.3618 46.1168 28.2368 46.0938 28.1158 46.0458 27.7508 45.8998 27.5048 45.5528 27.4878 45.1598L27.0008 33.7348 27.0248 33.7338C26.9428 33.5068 26.9358 33.2578 27.0248 33.0318L35.0558 12.5708C35.2568 12.0568 35.8368 11.8028 36.3518 12.0058L45.4188 15.5648C45.6658 15.6618 45.8638 15.8528 45.9708 16.0958 46.0758 16.3388 46.0808 16.6138 45.9848 16.8608L45.9848 16.8608ZM4.0138 8.1618C4.0138 10.1628 8.6508 12.3218 16.1418 12.3218 23.7198 12.3218 28.9998 10.1288 28.9998 8.1618 28.9998 6.1928 23.7198 3.9998 16.1418 3.9998 8.6508 3.9998 4.0138 6.1608 4.0138 8.1618L4.0138 8.1618ZM24.6918 42.9968 25.2368 44.9198C22.6888 45.6428 19.5878 46.0238 16.2708 46.0238 7.7358 46.0238 1.9998 43.5478 1.9998 39.8628L1.9998 8.0248 2.0268 8.0248C2.1678 4.4168 7.7978 1.9998 16.1418 1.9998 23.4398 1.9998 30.8138 4.0708 30.9838 8.0248L30.9998 8.0248 30.9998 17.0248 28.9998 17.0248 28.9998 11.4088C26.2868 13.3298 21.1938 14.3218 16.1418 14.3218 10.6578 14.3218 6.3548 13.2748 3.9998 11.5358L3.9998 39.8628C3.9998 41.9088 8.5898 44.0238 16.2708 44.0238 19.4058 44.0238 22.3188 43.6678 24.6918 42.9968L24.6918 42.9968ZM7.9998 23.0248 19.9998 23.0248 19.9998 21.0248 7.9998 21.0248 7.9998 23.0248ZM6.9998 27.0248 26.9998 27.0248 26.9998 25.0248 6.9998 25.0248 6.9998 27.0248ZM9.9998 31.0248 15.9998 31.0248 15.9998 29.0248 9.9998 29.0248 9.9998 31.0248ZM18.9998 31.0248 23.9998 31.0248 23.9998 29.0248 18.9998 29.0248 18.9998 31.0248Z" id="Fill-1" fill="#C925D1"/></g></svg>