<svg width="48" height="48" viewBox="0 0 48 48" xmlns="http://www.w3.org/2000/svg" xmlns:xlink="http://www.w3.org/1999/xlink" overflow="hidden"><g id="Icon-Resource/Analytics/Res_Amazon-DataZone_Business-Data-Catalog_48" stroke="none" stroke-width="1" fill="none" fill-rule="evenodd"><path d="M36 30C35.448 30 35 29.551 35 29 35 28.449 35.448 28 36 28 36.552 28 37 28.449 37 29 37 29.551 36.552 30 36 30L36 30ZM28 30C27.448 30 27 29.551 27 29 27 28.449 27.448 28 28 28 28.552 28 29 28.449 29 29 29 29.551 28.552 30 28 30L28 30ZM20 30C19.448 30 19 29.551 19 29 19 28.449 19.448 28 20 28 20.552 28 21 28.449 21 29 21 29.551 20.552 30 20 30L20 30ZM28 17C28.552 17 29 17.449 29 18 29 18.551 28.552 19 28 19 27.448 19 27 18.551 27 18 27 17.449 27.448 17 28 17L28 17ZM33 29C33 30.654 34.346 32 36 32 37.654 32 39 30.654 39 29 39 27.698 38.161 26.598 37 26.184L37 23C37 22.448 36.553 22 36 22L29 22 29 20.816C30.161 20.402 31 19.302 31 18 31 16.346 29.654 15 28 15 26.346 15 25 16.346 25 18 25 19.302 25.839 20.402 27 20.816L27 22 20 22C19.447 22 19 22.448 19 23L19 26.184C17.839 26.598 17 27.698 17 29 17 30.654 18.346 32 20 32 21.654 32 23 30.654 23 29 23 27.698 22.161 26.598 21 26.184L21 24 27 24 27 26.184C25.839 26.598 25 27.698 25 29 25 30.654 26.346 32 28 32 29.654 32 31 30.654 31 29 31 27.698 30.161 26.598 29 26.184L29 24 35 24 35 26.184C33.839 26.598 33 27.698 33 29L33 29ZM5 2 9 2 9 4 6 4 6 44 9 44 9 46 5 46C4.447 46 4 45.552 4 45L4 3C4 2.448 4.447 2 5 2L5 2ZM16 42 40 42 40 40 16 40 16 42ZM16 38 40 38 40 36 16 36 16 38ZM16 12 40 12 40 10 16 10 16 12ZM16 8 40 8 40 6 16 6 16 8ZM13 44 42 44 42 4 13 4 13 44ZM43 2 12 2C11.447 2 11 2.448 11 3L11 45C11 45.552 11.447 46 12 46L43 46C43.553 46 44 45.552 44 45L44 3C44 2.448 43.553 2 43 2L43 2Z" id="Fill-1" fill="#8C4FFF"/></g></svg>