<svg width="48" height="48" viewBox="0 0 48 48" xmlns="http://www.w3.org/2000/svg" xmlns:xlink="http://www.w3.org/1999/xlink" overflow="hidden"><g id="Icon-Resource/Networking-and-Content-Delivery/Res_Amazon-VPC_Carrier-Gateway_48" stroke="none" stroke-width="1" fill="none" fill-rule="evenodd"><path d="M28.95 19.05C30.271 20.372 31 22.13 31 24 31 25.869 30.271 27.627 28.95 28.949L30.364 30.363C32.064 28.663 33 26.404 33 24 33 21.596 32.064 19.336 30.364 17.636L28.95 19.05ZM25 38.22 25 30.5 23 30.5 23 38.223 18.964 33.88 17.865 34.903 23.998 41.5 30.133 34.903 29.035 33.88 25 38.22ZM44 24C44 12.972 35.028 4 24 4 12.971 4 4 12.972 4 24 4 35.028 12.971 44 24 44 35.028 44 44 35.028 44 24L44 24ZM46 24C46 36.131 36.131 46 24 46 11.869 46 2 36.131 2 24 2 11.869 11.869 2 24 2 36.131 2 46 11.869 46 24L46 24ZM34.606 13.393 33.192 14.807C35.647 17.263 37 20.528 37 24 37 27.472 35.647 30.737 33.192 33.192L34.606 34.606C37.439 31.773 39 28.006 39 24 39 19.993 37.439 16.226 34.606 13.393L34.606 13.393ZM17 24C17 22.13 17.728 20.372 19.05 19.05L17.636 17.636C15.935 19.336 15 21.596 15 24 15 26.404 15.935 28.663 17.636 30.363L19.05 28.949C17.728 27.627 17 25.869 17 24L17 24ZM24 22C22.897 22 22 22.897 22 24 22 25.103 22.897 26 24 26 25.102 26 26 25.103 26 24 26 22.897 25.102 22 24 22L24 22ZM24 20C26.206 20 28 21.794 28 24 28 26.205 26.206 28 24 28 21.794 28 20 26.205 20 24 20 21.794 21.794 20 24 20L24 20ZM23 9.777 23 17.5 25 17.5 25 9.779 29.035 14.12 30.133 13.097 23.998 6.5 17.865 13.097 18.964 14.12 23 9.777ZM14.807 14.807C12.352 17.263 11 20.528 11 24 11 27.472 12.352 30.737 14.807 33.192L13.393 34.606C10.56 31.773 9 28.006 9 24 9 19.993 10.56 16.226 13.393 13.393L14.807 14.807Z" id="Fill-1" fill="#8C4FFF"/></g></svg>