<svg width="80" height="80" viewBox="0 0 80 80" xmlns="http://www.w3.org/2000/svg" xmlns:xlink="http://www.w3.org/1999/xlink" overflow="hidden"><g id="Icon-Architecture/64/Arch_AWS-DeepLens_64" stroke="none" stroke-width="1" fill="none" fill-rule="evenodd"><g id="Icon-Architecture-BG/64/Machine-Learning" fill="#01A88D"><rect x="0" y="0" width="80" height="80" id="Rectangle"/></g><path d="M38.9846 25.5C38.9846 26.329 39.6557 27 40.4825 27 41.3094 27 41.9804 26.329 41.9804 25.5 41.9804 24.671 41.3094 24 40.4825 24 39.6557 24 38.9846 24.671 38.9846 25.5L38.9846 25.5ZM40.4825 21C38.005 21 35.9888 23.019 35.9888 25.5 35.9888 27.981 38.005 30 40.4825 30 42.9601 30 44.9762 27.981 44.9762 25.5 44.9762 23.019 42.9601 21 40.4825 21L40.4825 21ZM40.4825 19C44.0615 19 46.9734 21.916 46.9734 25.5 46.9734 29.084 44.0615 32 40.4825 32 36.9035 32 33.9916 29.084 33.9916 25.5 33.9916 21.916 36.9035 19 40.4825 19L40.4825 19ZM40.4825 64C39.6557 64 38.9846 64.671 38.9846 65.5 38.9846 66.329 39.6557 67 40.4825 67 41.3094 67 41.9804 66.329 41.9804 65.5 41.9804 64.671 41.3094 64 40.4825 64L40.4825 64ZM40.4825 58C39.6557 58 38.9846 58.671 38.9846 59.5 38.9846 60.329 39.6557 61 40.4825 61 41.3094 61 41.9804 60.329 41.9804 59.5 41.9804 58.671 41.3094 58 40.4825 58L40.4825 58ZM40.4825 52C39.6557 52 38.9846 52.671 38.9846 53.5 38.9846 54.329 39.6557 55 40.4825 55 41.3094 55 41.9804 54.329 41.9804 53.5 41.9804 52.671 41.3094 52 40.4825 52L40.4825 52ZM42.979 15 44.9762 15 44.9762 13 42.979 13 42.979 15ZM42.979 47 44.9762 47 44.9762 45 42.979 45 42.979 47ZM46.9734 67 48.9706 67 48.9706 52 46.9734 52 46.9734 67ZM31.9944 67 33.9916 67 33.9916 57 31.9944 57 31.9944 67ZM31.9944 55 33.9916 55 33.9916 50 31.9944 50 31.9944 55ZM48.9706 38.998 45.9748 38.998 45.9748 40.998 48.9706 40.998C49.7665 40.998 50.9678 40.998 50.9678 44L50.9678 45 46.9734 45 46.9734 47 50.9698 47 50.9808 67 52.978 67 52.965 44C52.965 40.681 51.6209 38.998 48.9706 38.998L48.9706 38.998ZM40.9818 47 40.9818 45 29.9982 45 29.9972 44C29.9972 41 31.1985 41 31.9944 41L34.9902 41 34.9902 39 31.9944 39C29.3441 39 28 40.682 28 44.001L28.013 56.001 30.0102 55.999 30.0002 47 40.9818 47ZM53 15.745 53 35.3C53 36.037 53 36.603 52.7144 37.097 52.2101 37.969 51.1796 37.969 50.7911 37.969L43.9776 37.969 43.9776 41 41.9804 41 41.9804 37.969 38.9846 37.969 38.9846 41 36.9874 41 36.9874 37.969 30.2089 37.969C29.8205 37.969 28.7899 37.969 28.2856 37.097 28 36.603 28 36.037 28 35.32L28 15.765C28 15.025 28 14.458 28.2676 13.952 28.7719 13 29.8534 13 30.2089 13L40.9818 13 40.9818 15 30.2089 15C30.127 15 30.0631 15.003 30.0162 15.008 29.9972 15.191 29.9972 15.491 29.9972 15.745L29.9972 35.3C29.9972 35.531 29.9972 35.789 30.0092 35.963 30.0601 35.967 30.126 35.969 30.2089 35.969L50.7911 35.969C50.874 35.969 50.9399 35.967 50.9908 35.963 51.0028 35.791 51.0028 35.537 51.0028 35.32L51.0028 15.765C51.0028 15.496 51.0028 15.191 50.9848 15.008 50.9369 15.003 50.873 15 50.7911 15L46.9734 15 46.9734 13 50.7911 13C51.1466 13 52.2281 13 52.7334 13.952 53 14.458 53 15.025 53 15.745L53 15.745Z" id="AWS-DeepLens_Icon_64_Squid" fill="#FFFFFF"/></g></svg>