<svg width="80" height="80" viewBox="0 0 80 80" xmlns="http://www.w3.org/2000/svg" xmlns:xlink="http://www.w3.org/1999/xlink" overflow="hidden"><g id="Icon-Architecture/64/Arch_Amazon-Kinesis-Firehose_64" stroke="none" stroke-width="1" fill="none" fill-rule="evenodd"><g id="Icon-Architecture-BG/64/Analytics" fill="#8C4FFF"><rect x="0" y="0" width="80" height="80" id="Rectangle"/></g><g id="Icon-Service/64/Amazon-Kinesis-Data-Firehose" fill="#FFFFFF" transform="translate(14 15)"><path d="M52.625 29.072 51.883 30.928C48.685 29.649 44.784 29 40.288 29L40.288 27C45.04 27 49.19 27.697 52.625 29.072L52.625 29.072ZM51.938 27.949C49.032 26.984 43.152 26 40.288 26L40.288 24C43.184 24 49.039 23.017 51.892 22.053L52.532 23.947C51.438 24.318 49.96 24.684 48.372 25.004 49.979 25.323 51.476 25.688 52.569 26.051L51.938 27.949ZM52.611 20.934C49.03 22.305 44.884 23 40.288 23L40.288 21C44.639 21 48.544 20.349 51.896 19.066L52.611 20.934ZM36.255 28.219 26.255 30.719 26.255 19.281 36.255 21.781 36.255 28.219ZM24.255 33 21.255 33 21.255 17 24.255 17 24.255 18 24.255 32 24.255 33ZM37.497 20.03 26.255 17.219 26.255 16C26.255 15.448 25.808 15 25.255 15L20.255 15C19.702 15 19.255 15.448 19.255 16L19.255 16.93C4.053 15.821 2.255 9.619 2.255 5L2.255 0 0.255 0 0.255 5C0.255 13.469 6.485 18.023 19.255 18.927L19.255 19.963C11.492 19.652 5.918 18.427 1.786 16.127L0.813 17.874C5.242 20.341 11.126 21.644 19.255 21.964L19.255 23.978C13.607 23.844 5.956 23.47 0.51 22.033L0 23.967C1.633 24.398 3.449 24.734 5.342 25 3.449 25.267 1.633 25.603 0 26.033L0.51 27.967C5.957 26.53 13.608 26.156 19.255 26.023L19.255 28.037C11.171 28.353 5.29 29.656 0.816 32.125L1.783 33.876C5.958 31.572 11.545 30.356 19.255 30.047L19.255 31.068C2.76 32.282 0.255 40.902 0.255 46L0.253 46.392C0.236 49.616 0.246 49.974 0.261 50.107L2.252 49.922C2.241 49.74 2.242 48.556 2.253 46.403L2.255 46C2.255 38.38 8.138 33.933 19.255 33.08L19.255 34C19.255 34.552 19.702 35 20.255 35L25.255 35C25.808 35 26.255 34.552 26.255 34L26.255 32.781 37.497 29.97C37.942 29.859 38.255 29.459 38.255 29L38.255 21C38.255 20.541 37.942 20.141 37.497 20.03L37.497 20.03Z" id="Amazon-Kinesis-Data-Firehose_Icon_64_Squid"/></g></g></svg>