<svg width="48" height="48" viewBox="0 0 48 48" xmlns="http://www.w3.org/2000/svg" xmlns:xlink="http://www.w3.org/1999/xlink" overflow="hidden"><g id="Icon-Resource/Networking-and-Content-Delivery/Res_Amazon-VPC_Virtual-private-cloud-VPC_48" stroke="none" stroke-width="1" fill="none" fill-rule="evenodd"><path d="M40 25.9768 36.499 24.5078 36.499 38.8778C39.906 38.1478 39.998 34.1798 40 33.9948L40 25.9768ZM34.499 38.9228 34.499 24.5078 31 25.9768 31 34.0038C31.008 34.4658 31.183 38.3388 34.499 38.9228L34.499 38.9228ZM35.112 22.0818C35.358 21.9768 35.638 21.9778 35.886 22.0808L41.387 24.3898C41.759 24.5458 42 24.9088 42 25.3118L42 34.0038C41.978 36.4308 40.562 41.0038 35.37 41.0038 30.393 41.0038 29.026 36.4318 29 34.0148L29 25.3118C29 24.9088 29.241 24.5458 29.613 24.3898L35.112 22.0818ZM44 22.7918 35.492 19.0918 26.9999 22.6678 26.9999 33.0248C26.999 33.0898 26.963 38.0088 29.807 40.8938 31.187 42.2938 33.059 43.0038 35.37 43.0038 43.808 43.0038 43.996 33.4248 44 33.0178L44 22.7918ZM46 22.1358 46 33.0248C45.973 37.1728 43.716 45.0038 35.37 45.0038 32.498 45.0038 30.145 44.0898 28.373 42.2878 24.941 38.7968 24.996 33.2428 25 33.0078L25 22.0038C25 21.6018 25.241 21.2378 25.612 21.0818L35.111 17.0818C35.363 16.9758 35.647 16.9778 35.897 17.0868L45.398 21.2188C45.764 21.3778 46 21.7378 46 22.1358L46 22.1358ZM11 30.0038 22 30.0038 22 32.0038 11 32.0038C6.216 32.0038 2.271 28.4828 2.02 23.9878 2.002 23.8128 2 23.5988 2 23.3848 2 18.0858 5.654 16.0378 7.919 15.2778 7.902 15.0628 7.891 14.8428 7.891 14.6258 7.891 10.0388 10.658 5.70084 14.621 4.07884 19.58 2.04984 25.235 2.93684 28.695 6.28484 29.718 7.28184 30.604 8.59584 31.343 10.2058 32.299 9.42184 33.392 9.00384 34.523 9.00384 37.234 9.00384 40.281 11.2958 40.9 15.0618 43.069 15.3438 44.936 16.6388 45.896 18.5818L44.104 19.4688C43.34 17.9248 41.806 17.0038 40 17.0038 39.471 17.0038 39.033 16.5908 39.002 16.0628 38.807 12.7618 36.275 11.0038 34.523 11.0038 33.55 11.0038 32.582 11.5738 31.797 12.6078 31.575 12.8988 31.217 13.0498 30.852 12.9928 30.49 12.9378 30.187 12.6908 30.062 12.3478 29.327 10.3458 28.398 8.78884 27.302 7.71984 24.407 4.91684 19.614 4.19584 15.379 5.92984 11.775 7.40484 9.891 11.4208 9.891 14.6258 9.891 15.0258 9.947 15.5028 9.993 15.8858 10.053 16.3858 9.73 16.8528 9.24 16.9748 7.283 17.4588 4 18.9368 4 23.3848 4 23.5348 3.998 23.6848 4.013 23.8358 4.209 27.3118 7.276 30.0038 11 30.0038L11 30.0038Z" id="Fill-1" fill="#8C4FFF"/></g></svg>