<svg width="48" height="48" viewBox="0 0 48 48" xmlns="http://www.w3.org/2000/svg" xmlns:xlink="http://www.w3.org/1999/xlink" overflow="hidden"><g id="Icon-Resource/Security-Identity-and-Compliance/Res_AWS-Identity-Access-Management_MFA-Token_48" stroke="none" stroke-width="1" fill="none" fill-rule="evenodd"><path d="M32.6258 24.794 34.3778 19.673 36.1458 24.794 32.6258 24.794ZM35.4808 17.913 33.3698 17.913 29.3128 29.001 31.2658 29.001 32.1608 26.218 36.5938 26.218 37.5218 29.001 39.4748 29.001 35.4808 17.913ZM24.8648 22.682 28.7858 22.682 28.7858 24.249 24.8648 24.249 24.8648 29.001 22.9128 29.001 22.9128 17.913 29.6488 17.913 29.6488 19.481 24.8648 19.481 24.8648 22.682ZM18.2078 17.913 20.3208 17.913 20.3208 29.001 18.5288 29.001 18.5288 20.696 15.6488 26.218 13.8898 26.218 11.1048 20.729 11.1048 29.001 9.3128 29.001 9.3128 17.913 11.4888 17.913 14.8158 24.521 18.2078 17.913ZM24.0008 44.002C12.9728 44.002 3.9998 35.029 3.9998 24.001 3.9998 12.973 12.9728 4 24.0008 4 35.0298 4 44.0028 12.973 44.0028 24.001 44.0028 35.029 35.0298 44.002 24.0008 44.002L24.0008 44.002ZM24.0008 2C11.8688 2 1.9998 11.869 1.9998 24.001 1.9998 36.133 11.8688 46.002 24.0008 46.002 36.1328 46.002 46.0028 36.133 46.0028 24.001 46.0028 11.869 36.1328 2 24.0008 2L24.0008 2Z" id="AWS-Identity-and-Access-Management_MFA-token_Resource-Icon_light-bg" fill="#DD344C"/></g></svg>