<svg width="80" height="80" viewBox="0 0 80 80" xmlns="http://www.w3.org/2000/svg" xmlns:xlink="http://www.w3.org/1999/xlink" overflow="hidden"><g id="Icon-Architecture/64/Arch_Amazon-Q_64" stroke="none" stroke-width="1" fill="none" fill-rule="evenodd"><g id="Icon-Architecture-BG/64/Machine-Learning" fill="#01A88D"><rect x="0" y="0" width="80" height="80" id="Rectangle"/></g><g id="Icon-Service/64/Amazon-Q_64" fill="#FFFFFF" transform="translate(16 12.35)"><path d="M27 25.767 27 29.532 24 31.032 21 29.532 21 25.767 24 24.26 27 25.767ZM43.968 41.715 25.968 51.889C24.755 52.576 23.245 52.576 22.032 51.889L4.032 41.715C2.778 41.007 2 39.672 2 38.233L2 16.96C2 15.574 2.736 14.265 3.92 13.543L21.921 2.587C22.562 2.197 23.281 2.001 24 2.001 24.719 2.001 25.438 2.197 26.08 2.587L44.08 13.543C45.264 14.265 46 15.574 46 16.96L46 38.233C46 38.481 45.969 38.725 45.924 38.964L29 29.562 29 25.15C29 24.772 28.787 24.427 28.449 24.257L24.449 22.247C24.166 22.106 23.834 22.106 23.551 22.247L19.551 24.257C19.213 24.427 19 24.772 19 25.15L19 30.15C19 30.529 19.214 30.875 19.553 31.045L23.553 33.045C23.693 33.115 23.847 33.15 24 33.15 24.153 33.15 24.307 33.115 24.447 33.045L27.976 31.281 45.075 40.78C44.769 41.15 44.399 41.472 43.968 41.715L43.968 41.715ZM45.119 11.835 27.12 0.879C25.194-0.293 22.805-0.293 20.881 0.879L2.881 11.835C1.104 12.917 0 14.881 0 16.96L0 38.233C0 40.392 1.168 42.393 3.048 43.456L21.048 53.63C21.959 54.145 22.979 54.402 24 54.402 25.021 54.402 26.042 54.145 26.952 53.63L44.952 43.456C46.832 42.393 48 40.392 48 38.233L48 16.96C48 14.881 46.896 12.917 45.119 11.835L45.119 11.835Z" id="Fill-1"/></g></g></svg>