<svg width="48" height="48" viewBox="0 0 48 48" xmlns="http://www.w3.org/2000/svg" xmlns:xlink="http://www.w3.org/1999/xlink" overflow="hidden"><g id="Icon-Resource/Application-Integration/Res_Amazon-EventBridge_Default-Event-Bus_48" stroke="none" stroke-width="1" fill="none" fill-rule="evenodd"><path d="M11.001 39.001 37.001 39.001 37.001 37.001 11.001 37.001 11.001 39.001ZM35.88 12.009 34.153 10.998 30.544 17.16 32.271 18.17 35.88 12.009ZM42.567 18.594 36.323 22.147 37.312 23.885 43.556 20.332 42.567 18.594ZM39.002 28.995 39 30.995 46 31.001 46.002 29.001 39.002 28.995ZM2 31.001 9 31.007 9.002 29.007 2.002 29.001 2 31.001ZM5.454 18.562 4.462 20.298 10.701 23.863 11.693 22.126 5.454 18.562ZM17.48 17.148 13.882 10.981 12.153 11.989 15.751 18.156 17.48 17.148ZM25.001 9.002 23.001 9 22.994 16 24.994 16.002 25.001 9.002ZM13.095 27.196 18.114 18.501C18.293 18.192 18.623 18.001 18.981 18.001L29.021 18.001C29.378 18.001 29.708 18.192 29.887 18.501L34.907 27.196C35.086 27.505 35.086 27.886 34.907 28.196L31.071 34.838 29.339 33.838 32.887 27.696 28.443 20.001 19.558 20.001 15.115 27.696 18.662 33.838 16.93 34.838 13.095 28.196C12.916 27.886 12.916 27.505 13.095 27.196L13.095 27.196Z" id="Amazon-EventBridge_Default-Event-Bus_Resource-Icon_dark-bg" fill="#E7157B"/></g></svg>