<svg width="80" height="80" viewBox="0 0 80 80" xmlns="http://www.w3.org/2000/svg" xmlns:xlink="http://www.w3.org/1999/xlink" overflow="hidden"><g id="Icon-Architecture/64/Arch_AWS-Trusted-Advisor_64" stroke="none" stroke-width="1" fill="none" fill-rule="evenodd"><g id="Icon-Architecture-BG/64/Management-Governance" fill="#E7157B"><rect x="0" y="0" width="80" height="80" id="Rectangle"/></g><path d="M32 22.7213 39 20.3883 39 42.9482C33.226 42.4212 32 37.4012 32 36.0003L32 22.7213ZM48 36.0003C48 37.4012 46.774 42.4212 41 42.9482L41 20.3883 48 22.7213 48 36.0003ZM40 45.0003C47.556 45.0003 50 38.9372 50 36.0003L50 22.0002C50 21.5702 49.725 21.1882 49.316 21.0522L40.316 18.0522C40.111 17.9832 39.889 17.9832 39.684 18.0522L30.684 21.0522C30.275 21.1882 30 21.5702 30 22.0002L30 36.0003C30 38.9372 32.444 45.0003 40 45.0003L40 45.0003ZM27 19.7523 40 15.0632 53 19.7523 53 35.0003C53 38.0503 52.062 48.0003 40 48.0003 27.147 48.0003 27 35.5312 27 35.0003L27 19.7523ZM40 50.0003C54.276 50.0003 55 37.5052 55 35.0003L55 19.0492C55 18.6283 54.735 18.2512 54.339 18.1082L40.339 13.0592C40.12 12.9803 39.88 12.9803 39.661 13.0592L25.661 18.1082C25.265 18.2512 25 18.6283 25 19.0492L25 35.0003C25 40.1883 28.135 50.0003 40 50.0003L40 50.0003ZM61.5 58.0003C60.121 58.0003 59 56.8792 59 55.5003 59 54.1222 60.121 53.0003 61.5 53.0003 62.879 53.0003 64 54.1222 64 55.5003 64 56.8792 62.879 58.0003 61.5 58.0003L61.5 58.0003ZM42.5 62.5003C42.5 63.8792 41.379 65.0003 40 65.0003 38.621 65.0003 37.5 63.8792 37.5 62.5003 37.5 61.1222 38.621 60.0003 40 60.0003 41.379 60.0003 42.5 61.1222 42.5 62.5003L42.5 62.5003ZM18.5 58.0003C17.121 58.0003 16 56.8792 16 55.5003 16 54.1222 17.121 53.0003 18.5 53.0003 19.879 53.0003 21 54.1222 21 55.5003 21 56.8792 19.879 58.0003 18.5 58.0003L18.5 58.0003ZM61.5 51.0003C60.363 51.0003 59.336 51.4383 58.543 52.1353L55.47 49.0573C58.645 46.4113 61.371 42.9922 63.34 38.9712L61.543 38.0913C57.107 47.1483 48.651 53.0003 40 53.0003 31.146 53.0003 21.958 46.8693 17.659 38.0913L15.862 38.9712C17.581 42.4793 20.281 46.0003 23.722 48.8452L20.812 51.6603C20.134 51.2503 19.349 51.0003 18.5 51.0003 16.019 51.0003 14 53.0192 14 55.5003 14 57.9823 16.019 60.0003 18.5 60.0003 20.981 60.0003 23 57.9823 23 55.5003 23 54.5923 22.725 53.7492 22.261 53.0412L25.325 50.0773C29.187 52.8503 33.842 54.7352 39 54.9562L39 58.1213C37 58.5783 35.5 60.3643 35.5 62.5003 35.5 64.9822 37.519 67.0003 40 67.0003 42.481 67.0003 44.5 64.9822 44.5 62.5003 44.5 60.3643 43 58.5783 41 58.1213L41 54.9593C45.543 54.7443 49.988 53.0853 53.877 50.2933L57.349 53.7692C57.125 54.3032 57 54.8872 57 55.5003 57 57.9823 59.019 60.0003 61.5 60.0003 63.981 60.0003 66 57.9823 66 55.5003 66 53.0192 63.981 51.0003 61.5 51.0003L61.5 51.0003Z" id="AWS-Trusted-Advisor_Icon_64_Squid" fill="#FFFFFF"/></g></svg>