<svg width="80" height="80" viewBox="0 0 80 80" xmlns="http://www.w3.org/2000/svg" xmlns:xlink="http://www.w3.org/1999/xlink" overflow="hidden"><g id="Icon-Architecture/64/Arch_AWS-Supply-Chain_64" stroke="none" stroke-width="1" fill="none" fill-rule="evenodd"><g id="Icon-Architecture-BG/64/Business-Applications" fill="#DD344C"><rect x="0" y="0" width="80" height="80" id="Rectangle"/></g><path d="M58 35.9995 58 49.9995C58 50.3455 57.821 50.6665 57.528 50.8485L45 58.6435 45 56.2885 56 49.4435 56 37.7895 45 44.5585 45 42.2095 56.476 35.1475C56.785 34.9585 57.171 34.9495 57.488 35.1265 57.804 35.3035 58 35.6375 58 35.9995L58 35.9995ZM24 49.4405 35 56.2095 35 58.5585 22.476 50.8515C22.18 50.6685 22 50.3465 22 49.9995L22 35.9995C22 35.6375 22.196 35.3035 22.512 35.1265 22.829 34.9495 23.215 34.9585 23.524 35.1475L35 42.2095 35 44.5585 24 37.7895 24 49.4405ZM51 47.9755 40.489 53.8715C40.337 53.9575 40.169 53.9995 40 53.9995 39.828 53.9995 39.656 53.9555 39.502 53.8665L29 47.8275 29 45.5215 40.006 51.8495 51 45.6825 51 47.9755ZM41 65.2195 41 58.9995 39 58.9995 39 65.2195 18 52.4375 18 27.6615 39 39.5815 39 43.9995 41 43.9995 41 39.5815 62 27.6615 62 52.4375 41 65.2195ZM40 14.1465 60.968 25.9475 40 37.8495 19.032 25.9475 40 14.1465ZM63.49 25.0725 40.49 12.1275C40.186 11.9575 39.814 11.9575 39.51 12.1275L16.51 25.0725C16.194 25.2495 16 25.5825 16 25.9435L16 52.9995C16 53.3485 16.182 53.6725 16.48 53.8535L39.48 67.8535C39.64 67.9505 39.82 67.9995 40 67.9995 40.18 67.9995 40.36 67.9505 40.52 67.8535L63.52 53.8535C63.818 53.6725 64 53.3485 64 52.9995L64 25.9435C64 25.5825 63.806 25.2495 63.49 25.0725L63.49 25.0725Z" id="Fill-1" fill="#FFFFFF"/></g></svg>