<svg width="80" height="80" viewBox="0 0 80 80" xmlns="http://www.w3.org/2000/svg" xmlns:xlink="http://www.w3.org/1999/xlink" overflow="hidden"><g id="Icon-Architecture/64/Arch_AWS-Application-Auto-Scaling_64" stroke="none" stroke-width="1" fill="none" fill-rule="evenodd"><g id="Icon-Architecture-BG/64/Management-Governance" fill="#E7157B"><rect x="0" y="0" width="80" height="80" id="Rectangle"/></g><g id="Icon-Service/64/Application-Auto-Scaling_64" fill="#FFFFFF" transform="translate(12 12)"><path d="M55.975 28.9757 45.404 28.9757 50.685 34.2827 49.267 35.6938 42.292 28.6858C41.904 28.2957 41.905 27.6637 42.293 27.2747L49.268 20.2817 50.684 21.6938 45.415 26.9768 55.977 26.9878 55.975 28.9757ZM13.684 27.2747C14.073 27.6637 14.074 28.2957 13.685 28.6858L6.71 35.6938 5.292 34.2827 10.574 28.9757 0.002 28.9757 3.55271e-15 26.9878 10.562 26.9768 5.293 21.6938 6.709 20.2817 13.684 27.2747ZM34.284 47.2918 35.694 48.7088 28.686 55.6838C28.492 55.8787 28.236 55.9757 27.981 55.9757 27.725 55.9757 27.47 55.8787 27.275 55.6838L20.283 48.7078 21.695 47.2918 26.989 52.5618 26.989 41.9987 28.989 42.0008 28.978 52.5728 34.284 47.2918ZM21.695 8.68375 20.283 7.26775 27.275 0.29175C27.664-0.0962495 28.296-0.0982495 28.686 0.29175L35.694 7.26775 34.284 8.68375 28.978 3.40275 28.989 13.9748 26.989 13.9758 26.989 3.41375 21.695 8.68375ZM33.989 22.1548C33.124 21.9218 32.172 22.0028 31.282 22.4207 30.573 22.7548 29.999 23.3267 29.666 24.0328 29.076 25.2898 29.142 26.6508 29.85 27.7658 30.54 28.8528 31.722 29.5028 33.009 29.5028 33.345 29.5028 33.673 29.4587 33.989 29.3738L33.989 31.9757 29.989 31.9757C29.579 31.9757 29.212 32.2248 29.06 32.6038 28.909 32.9827 29.002 33.4168 29.298 33.6997 29.818 34.1948 29.913 34.9668 29.542 35.6647 29.418 35.8978 29.202 36.2078 28.868 36.3647 28.012 36.7668 27.367 36.4977 27.058 36.3037 26.551 35.9808 26.248 35.4318 26.248 34.8317 26.248 34.2308 26.413 33.9528 26.679 33.6997 26.975 33.4178 27.069 32.9837 26.917 32.6038 26.765 32.2248 26.398 31.9757 25.989 31.9757L21.989 31.9757 21.989 19.0697C22.018 19.0368 22.059 18.9998 22.093 18.9757L33.989 18.9757 33.989 22.1548ZM34.989 16.9757 21.989 16.9757C21.036 16.9757 19.989 17.9998 19.989 18.9338L19.989 32.9757C19.989 33.5278 20.436 33.9757 20.989 33.9757L24.329 33.9757C24.275 34.2428 24.248 34.5267 24.248 34.8317 24.248 36.1198 24.898 37.3008 25.986 37.9917 26.597 38.3797 27.282 38.5747 27.983 38.5747 28.561 38.5747 29.151 38.4417 29.719 38.1748 30.377 37.8647 30.927 37.3218 31.308 36.6038 31.758 35.7568 31.871 34.8268 31.668 33.9757L34.989 33.9757C35.541 33.9757 35.989 33.5278 35.989 32.9757L35.989 27.6497C35.989 27.2418 35.74 26.8738 35.361 26.7218 34.98 26.5697 34.547 26.6637 34.265 26.9598 33.51 27.7528 32.116 27.6018 31.538 26.6938 31.342 26.3848 31.075 25.7397 31.476 24.8848 31.611 24.5988 31.844 24.3668 32.133 24.2308 32.919 23.8598 33.713 23.9878 34.265 24.5648 34.546 24.8608 34.978 24.9548 35.361 24.8038 35.74 24.6518 35.989 24.2838 35.989 23.8748L35.989 17.9757C35.989 17.4237 35.541 16.9757 34.989 16.9757L34.989 16.9757Z" id="AWS-Application-Auto-Scaling_64_Squid---"/></g></g></svg>