<svg width="48" height="48" viewBox="0 0 48 48" xmlns="http://www.w3.org/2000/svg" xmlns:xlink="http://www.w3.org/1999/xlink" overflow="hidden"><g id="Icon-Resource/IoT/Res_AWS-IoT_Thing_Travel_48" stroke="none" stroke-width="1" fill="none" fill-rule="evenodd"><path d="M34.515 24.1767C34.64 24.0517 34.843 24.0517 34.968 24.1767 35.093 24.3017 35.093 24.5047 34.968 24.6297L33.307 26.2897 33.137 25.5537 34.515 24.1767ZM31.687 34.2287 27.182 24.3197C27.049 24.0277 26.784 23.8167 26.469 23.7527 26.155 23.6937 25.827 23.7817 25.592 23.9997L20.686 28.5517C20.482 28.7407 20.366 29.0067 20.366 29.2847L20.366 35.0307 20.086 35.3077 18.56 30.0657C18.464 29.7347 18.204 29.4767 17.873 29.3827L12.709 27.9137 12.979 27.6447 18.725 27.6447C19.008 27.6447 19.278 27.5247 19.467 27.3147L23.953 22.3427C24.167 22.1067 24.255 21.7807 24.191 21.4697 24.125 21.1567 23.915 20.8947 23.625 20.7627L13.716 16.2577 14.855 15.1187 27.369 18.0097C27.712 18.0857 28.079 17.9787 28.324 17.7187L31.979 13.8097C32.822 12.9657 34.78 12.4167 35.155 12.7877 35.259 12.8937 35.344 13.3427 35.123 14.1117 34.895 14.9357 34.452 15.6507 34.16 15.9437L30.227 19.6207C29.966 19.8647 29.855 20.2287 29.935 20.5757L32.826 33.0897 31.687 34.2287ZM23.329 12.9907C23.454 12.8657 23.658 12.8657 23.783 12.9907 23.908 13.1157 23.908 13.3197 23.783 13.4447L22.414 14.8127 21.677 14.6427 23.329 12.9907ZM35.549 17.3807C36.174 16.7557 36.764 15.6817 37.048 14.6547 37.452 13.2527 37.282 12.0877 36.571 11.3757 35.022 9.8267 31.803 11.1577 30.541 12.4187L27.256 15.9307 24.711 15.3427 25.197 14.8587C26.101 13.9537 26.101 12.4817 25.197 11.5767 24.292 10.6727 22.82 10.6727 21.915 11.5767L19.379 14.1127 14.764 13.0457C14.432 12.9687 14.077 13.0697 13.832 13.3137L11.282 15.8637C11.049 16.0957 10.947 16.4267 11.004 16.7497 11.063 17.0727 11.277 17.3457 11.575 17.4817L21.553 22.0177 18.281 25.6447 12.564 25.6447C12.298 25.6447 12.043 25.7497 11.856 25.9387L10.093 27.7047C9.843 27.9557 9.744 28.3207 9.833 28.6627 9.922 29.0057 10.187 29.2767 10.528 29.3727L16.794 31.1557 18.637 37.4857C18.736 37.8237 19.005 38.0857 19.347 38.1747 19.43 38.1957 19.514 38.2057 19.597 38.2057 19.858 38.2057 20.113 38.1037 20.302 37.9147L22.071 36.1547C22.259 35.9667 22.366 35.7107 22.366 35.4457L22.366 29.7217 25.935 26.4087 30.463 36.3697C30.599 36.6687 30.872 36.8817 31.195 36.9407 31.516 37.0007 31.848 36.8957 32.08 36.6627L34.631 34.1127C34.875 33.8677 34.976 33.5167 34.899 33.1807L33.838 28.5877 36.382 26.0437C37.286 25.1397 37.286 23.6667 36.382 22.7627 35.478 21.8587 34.005 21.8587 33.101 22.7627L32.607 23.2567 32.014 20.6887 35.549 17.3807ZM39.725 38.5917C39.725 39.2177 39.216 39.7267 38.59 39.7267L9.417 39.7267C8.791 39.7267 8.283 39.2177 8.283 38.5917L8.283 9.4307C8.283 8.8047 8.791 8.2957 9.417 8.2957L38.59 8.2957C39.216 8.2957 39.725 8.8047 39.725 9.4307L39.725 38.5917ZM46.007 14.4427 46.007 12.4427 41.725 12.4427 41.725 9.4307C41.725 7.7017 40.319 6.2957 38.59 6.2957L35.566 6.2957 35.566 1.9997 33.566 1.9997 33.566 6.2957 30.285 6.2957 30.285 1.9997 28.285 1.9997 28.285 6.2957 25.004 6.2957 25.004 1.9997 23.004 1.9997 23.004 6.2957 19.723 6.2957 19.723 1.9997 17.723 1.9997 17.723 6.2957 14.442 6.2957 14.442 1.9997 12.442 1.9997 12.442 6.2957 9.417 6.2957C7.689 6.2957 6.283 7.7017 6.283 9.4307L6.283 12.4427 2 12.4427 2 14.4427 6.283 14.4427 6.283 17.7227 2 17.7227 2 19.7227 6.283 19.7227 6.283 23.0037 2 23.0037 2 25.0037 6.283 25.0037 6.283 28.2847 2 28.2847 2 30.2847 6.283 30.2847 6.283 33.5657 2 33.5657 2 35.5657 6.283 35.5657 6.283 38.5917C6.283 40.3207 7.689 41.7267 9.417 41.7267L12.442 41.7267 12.442 46.0077 14.442 46.0077 14.442 41.7267 17.723 41.7267 17.723 46.0077 19.723 46.0077 19.723 41.7267 23.004 41.7267 23.004 46.0077 25.004 46.0077 25.004 41.7267 28.285 41.7267 28.285 46.0077 30.285 46.0077 30.285 41.7267 33.566 41.7267 33.566 46.0077 35.566 46.0077 35.566 41.7267 38.59 41.7267C40.319 41.7267 41.725 40.3207 41.725 38.5917L41.725 35.5657 46.007 35.5657 46.007 33.5657 41.725 33.5657 41.725 30.2847 46.007 30.2847 46.007 28.2847 41.725 28.2847 41.725 25.0037 46.007 25.0037 46.007 23.0037 41.725 23.0037 41.725 19.7227 46.007 19.7227 46.007 17.7227 41.725 17.7227 41.725 14.4427 46.007 14.4427Z" id="Amazon-IOT-RESOURCES-IoT-thing-travel_Resource-Icon_light-bg" fill="#7AA116"/></g></svg>