<svg width="80" height="80" viewBox="0 0 80 80" xmlns="http://www.w3.org/2000/svg" xmlns:xlink="http://www.w3.org/1999/xlink" overflow="hidden"><g id="Icon-Architecture/64/Arch_Amazon-Kinesis_64" stroke="none" stroke-width="1" fill="none" fill-rule="evenodd"><g id="Icon-Architecture-BG/64/Analytics" fill="#8C4FFF"><rect x="0" y="0" width="80" height="80" id="Rectangle"/></g><path d="M19 62 21 62C21 53.594 26.465 45 67 45L67 43C24.703 43 19 52.604 19 62M25 68 27 68C27 60.434 27 49 67 49L67 47C48.663 47 36.728 49.359 30.51 54.212 25 58.512 25 63.996 25 68M15 26 13 26C13 33.396 23.039 38.08 42.893 40 23.039 41.92 13 46.604 13 54L15 54C15 49.145 21.756 41 67 41L67 39C21.756 39 15 30.855 15 26M21 18 19 18C19 27.396 24.703 37 67 37L67 35C26.465 35 21 26.406 21 18M67 31 67 33C48.663 33 36.728 30.641 30.51 25.788 25 21.488 25 16.004 25 12L27 12C27 19.566 27 31 67 31" id="Amazon-Kinesis_Icon_64_Squid" fill="#FFFFFF"/></g></svg>