<svg width="80" height="80" viewBox="0 0 80 80" xmlns="http://www.w3.org/2000/svg" xmlns:xlink="http://www.w3.org/1999/xlink" overflow="hidden"><g id="Icon-Architecture/64/Arch_Amazon-EventBridge_64" stroke="none" stroke-width="1" fill="none" fill-rule="evenodd"><g id="Icon-Architecture-BG/64/Application-Integration" fill="#E7157B"><rect x="0" y="0" width="80" height="80" id="Rectangle"/></g><path d="M53.6567 66C51.5138 66 49.7696 64.247 49.7696 62.091 49.7696 59.935 51.5138 58.182 53.6567 58.182 55.7997 58.182 57.5439 59.935 57.5439 62.091 57.5439 64.247 55.7997 66 53.6567 66L53.6567 66ZM45.1327 49 34.7977 49 29.6298 40 34.7977 31 45.1327 31 50.2996 40 45.1327 49ZM27.6211 21.818C25.4781 21.818 23.7339 20.065 23.7339 17.909 23.7339 15.753 25.4781 14 27.6211 14 29.765 14 31.5092 15.753 31.5092 17.909 31.5092 20.065 29.765 21.818 27.6211 21.818L27.6211 21.818ZM53.6567 56.182C52.9189 56.182 52.2148 56.325 51.5635 56.576L47.3402 49.41 47.1175 49.543 52.3093 40.5C52.4863 40.19 52.4863 39.81 52.3093 39.5L46.5676 29.5C46.3896 29.19 46.0614 29 45.7064 29L35.2582 29 35.2989 28.976 31.4267 22.404C32.6916 21.32 33.498 19.708 33.498 17.909 33.498 14.651 30.8619 12 27.6211 12 24.3813 12 21.7451 14.651 21.7451 17.909 21.7451 21.167 24.3813 23.818 27.6211 23.818 28.3599 23.818 29.064 23.675 29.7153 23.424L33.33 29.557 27.6201 39.5C27.4431 39.81 27.4431 40.19 27.6201 40.5L33.3628 50.5C33.5408 50.81 33.869 51 34.224 51L45.7064 51C45.789 51 45.8695 50.987 45.9471 50.968L49.8521 57.596C48.5862 58.68 47.7808 60.292 47.7808 62.091 47.7808 65.349 50.416 68 53.6567 68 56.8975 68 59.5327 65.349 59.5327 62.091 59.5327 58.833 56.8975 56.182 53.6567 56.182L53.6567 56.182ZM59.5844 32.104C57.4415 32.104 55.6983 30.351 55.6983 28.195 55.6983 26.039 57.4415 24.286 59.5844 24.286 61.7274 24.286 63.4716 26.039 63.4716 28.195 63.4716 30.351 61.7274 32.104 59.5844 32.104L59.5844 32.104ZM66.8665 39.5 63.0917 32.925C64.5266 31.846 65.4604 30.13 65.4604 28.195 65.4604 24.937 62.8252 22.286 59.5844 22.286 58.7601 22.286 57.9745 22.459 57.2615 22.77L54.1838 17.409C54.0068 17.1 53.6776 16.909 53.3226 16.909L40.9949 16.909 40.9949 18.909 52.7488 18.909 55.5958 23.869C54.4384 24.949 53.7094 26.486 53.7094 28.195 53.7094 31.453 56.3446 34.104 59.5844 34.104 60.188 34.104 60.7718 34.011 61.3207 33.84L64.8578 40 59.8917 48.648 61.614 49.648 66.8665 40.5C67.0445 40.19 67.0445 39.81 66.8665 39.5L66.8665 39.5ZM21.229 55.247C19.0851 55.247 17.3409 53.493 17.3409 51.338 17.3409 49.182 19.0851 47.429 21.229 47.429 23.372 47.429 25.1162 49.182 25.1162 51.338 25.1162 53.493 23.372 55.247 21.229 55.247L21.229 55.247ZM24.4767 56.258C26.0589 55.198 27.105 53.389 27.105 51.338 27.105 48.08 24.4688 45.429 21.229 45.429 20.2903 45.429 19.4062 45.657 18.6187 46.052L15.1432 40 20.9018 29.971 19.1785 28.971 13.1335 39.5C12.9555 39.81 12.9555 40.19 13.1335 40.5L17.0047 47.24C15.9835 48.304 15.352 49.747 15.352 51.338 15.352 54.596 17.9882 57.247 21.229 57.247 21.7173 57.247 22.1896 57.18 22.644 57.066L25.8162 62.591C25.9942 62.9 26.3224 63.091 26.6774 63.091L39.0061 63.091 39.0061 61.091 27.2512 61.091 24.4767 56.258Z" id="Amazon-EventBridge_Icon_64_Squid" fill="#FFFFFF"/></g></svg>