<svg width="48" height="48" viewBox="0 0 48 48" xmlns="http://www.w3.org/2000/svg" xmlns:xlink="http://www.w3.org/1999/xlink" overflow="hidden"><g id="Icon-Resource/Quantum-Technologies/Res_Amazon-Braket_Simulator_48" stroke="none" stroke-width="1" fill="none" fill-rule="evenodd"><path d="M39.287 29.336C39.566 29.559 39.832 29.779 40.086 30 39.832 30.22 39.566 30.44 39.287 30.663 39.292 30.441 39.3 30.22 39.3 30 39.3 29.776 39.291 29.558 39.287 29.336L39.287 29.336ZM36.785 35.716C36.465 35.604 36.141 35.485 35.814 35.356 36.007 35.249 36.2 35.147 36.392 35.036 36.583 34.925 36.771 34.808 36.96 34.694 36.907 35.046 36.849 35.386 36.785 35.716L36.785 35.716ZM33.484 42C32.583 42 31.448 40.423 30.651 37.679 31.574 37.364 32.524 36.977 33.482 36.537 34.445 36.98 35.394 37.361 36.319 37.676 35.521 40.421 34.386 42 33.484 42L33.484 42ZM30.01 34.694C30.199 34.808 30.385 34.924 30.577 35.036 30.772 35.148 30.969 35.252 31.164 35.36 30.834 35.49 30.509 35.61 30.185 35.723 30.122 35.391 30.062 35.048 30.01 34.694L30.01 34.694ZM26.873 30C27.134 29.775 27.403 29.551 27.683 29.329 27.678 29.553 27.67 29.777 27.67 30 27.67 30.222 27.678 30.446 27.683 30.67 27.403 30.448 27.134 30.224 26.873 30L26.873 30ZM23.093 24C23.405 23.456 24.611 23.024 27.058 23.44 27.449 23.507 27.855 23.598 28.267 23.701 28.074 24.671 27.933 25.69 27.832 26.726 26.966 27.34 26.148 27.973 25.41 28.619 25.119 28.317 24.841 28.014 24.591 27.713 23.008 25.804 22.778 24.543 23.093 24L23.093 24ZM31.164 24.639C30.968 24.747 30.77 24.852 30.577 24.963 30.385 25.075 30.198 25.191 30.01 25.305 30.062 24.951 30.122 24.608 30.185 24.276 30.509 24.389 30.834 24.509 31.164 24.639L31.164 24.639ZM37.3 30C37.3 30.751 37.27 31.466 37.226 32.16 36.648 32.545 36.043 32.928 35.392 33.303 34.758 33.669 34.122 34.006 33.488 34.32 32.85 34.005 32.211 33.669 31.577 33.303 30.942 32.937 30.333 32.554 29.743 32.162 29.699 31.468 29.67 30.752 29.67 30 29.67 29.248 29.699 28.531 29.743 27.837 30.333 27.445 30.942 27.062 31.577 26.696 32.228 26.32 32.863 25.987 33.486 25.678 34.121 25.993 34.758 26.329 35.392 26.696 36.043 27.071 36.647 27.454 37.224 27.838 37.27 28.548 37.3 29.269 37.3 30L37.3 30ZM36.786 24.283C36.849 24.617 36.907 24.957 36.959 25.305 36.769 25.191 36.583 25.073 36.392 24.963 36.2 24.852 36.006 24.75 35.812 24.643 36.144 24.512 36.469 24.393 36.786 24.283L36.786 24.283ZM43.877 24C44.328 24.781 43.526 26.557 41.542 28.625 40.8 27.975 39.992 27.344 39.147 26.742 39.05 25.684 38.905 24.668 38.716 23.707 41.493 23.025 43.427 23.22 43.877 24L43.877 24ZM45.609 23C44.516 21.108 41.627 20.933 38.249 21.77 38.068 21.143 37.87 20.542 37.645 19.992L35.794 20.748C35.991 21.232 36.167 21.769 36.328 22.333 35.392 22.65 34.44 23.036 33.493 23.467 32.531 23.025 31.578 22.636 30.651 22.32 31.448 19.576 32.583 18 33.484 18 33.969 18 34.428 18.449 34.728 18.826L36.293 17.58C35.253 16.274 34.191 16 33.484 16 31.302 16 29.704 18.415 28.74 21.759 28.282 21.645 27.83 21.544 27.394 21.469 23.518 20.809 21.974 21.937 21.36 23 20.747 24.062 20.542 25.964 23.052 28.99 23.33 29.326 23.641 29.663 23.964 30 23.654 30.322 23.356 30.644 23.088 30.966L24.623 32.248C24.864 31.96 25.131 31.669 25.41 31.379 26.148 32.026 26.965 32.66 27.832 33.274 27.933 34.31 28.074 35.328 28.267 36.298 27.855 36.401 27.449 36.492 27.058 36.559 24.611 36.975 23.406 36.543 23.093 36 22.796 35.486 23.105 34.658 23.316 34.21L21.506 33.359C20.673 35.132 20.967 36.317 21.36 37 21.847 37.843 22.919 38.727 25.276 38.727 25.891 38.727 26.593 38.667 27.394 38.53 27.83 38.456 28.282 38.354 28.74 38.24 29.704 41.584 31.302 44 33.484 44 35.667 44 37.266 41.585 38.228 38.24 38.87 38.399 39.496 38.528 40.092 38.609L40.359 36.628C39.836 36.557 39.278 36.44 38.702 36.295 38.896 35.323 39.038 34.302 39.138 33.264 39.986 32.659 40.798 32.027 41.542 31.375 43.526 33.441 44.328 35.218 43.877 35.999 43.63 36.428 42.988 36.601 42.494 36.67L42.771 38.65C44.466 38.413 45.25 37.622 45.609 37 46.702 35.106 45.403 32.509 42.982 30 45.403 27.49 46.702 24.893 45.609 23L45.609 23ZM14 10 16 10 16 8 14 8 14 10ZM10 10 12 10 12 8 10 8 10 10ZM6 10 8 10 8 8 6 8 6 10ZM3.987 34 3.996 14 9 14 9 34.003 3.987 34ZM42 6 42 12 11 12 9 12 3.997 12 4 5.987 42 6ZM11 14 42 14 42 19 44 19 44 6.012C44 4.902 43.097 4 41.987 4L4.013 4C2.903 4 2 4.902 2 6.012L2 33.987C2 35.097 2.903 36 4.013 36L19 35.996 19 34.008 11 34.003 11 14Z" id="Fill-1" fill="#ED7100"/></g></svg>