<svg width="80" height="80" viewBox="0 0 80 80" xmlns="http://www.w3.org/2000/svg" xmlns:xlink="http://www.w3.org/1999/xlink" overflow="hidden"><g id="Icon-Architecture/64/Arch_Amazon-Kinesis-Video-Streams_64" stroke="none" stroke-width="1" fill="none" fill-rule="evenodd"><g id="Icon-Architecture-BG/64/Media-Services" fill="#ED7100"><rect x="0" y="0" width="80" height="80" id="Rectangle"/></g><path d="M37 45.553 37 47.602C22.938 50.908 21 56.719 21 62L19 62C19 56.23 21.077 49.18 37 45.553L37 45.553ZM37 50.76 37 52.898C27.007 56.854 27 63.011 27 68L25 68C25 62.879 25.009 55.191 37 50.76L37 50.76ZM65 61.575C65 62.361 64.361 63 63.575 63L42.425 63C41.639 63 41 62.361 41 61.575L41 48.424C41 47.639 41.639 47 42.425 47L63.575 47C64.361 47 65 47.639 65 48.424L65 61.575ZM63.575 45 42.425 45C40.536 45 39 46.536 39 48.424L39 61.575C39 63.464 40.536 65 42.425 65L63.575 65C65.464 65 67 63.464 67 61.575L67 48.424C67 46.536 65.464 45 63.575 45L63.575 45ZM67 39 67 41C21.756 41 15 49.145 15 54L13 54C13 46.604 23.039 41.92 42.893 40 23.039 38.079 13 33.395 13 26L15 26C15 30.855 21.756 39 67 39L67 39ZM67 35 67 37C24.703 37 19 27.395 19 18L21 18C21 26.406 26.465 35 67 35L67 35ZM67 31 67 33C48.663 33 36.728 30.641 30.51 25.788 25 21.488 25 16.004 25 12L27 12C27 19.566 27 31 67 31L67 31ZM51 57.277 51 52.723 54.984 55 51 57.277ZM57.496 54.132 50.496 50.132C50.187 49.954 49.806 49.956 49.498 50.135 49.189 50.314 49 50.643 49 51L49 59C49 59.356 49.189 59.686 49.498 59.865 49.653 59.955 49.826 60 50 60 50.171 60 50.343 59.956 50.496 59.868L57.496 55.868C57.808 55.69 58 55.359 58 55 58 54.641 57.808 54.309 57.496 54.132L57.496 54.132Z" id="Amazon-Kinesis-Video-Streams_64_Squid" fill="#FFFFFF"/></g></svg>