<svg width="48" height="48" viewBox="0 0 48 48" xmlns="http://www.w3.org/2000/svg" xmlns:xlink="http://www.w3.org/1999/xlink" overflow="hidden"><g id="Icon-Resource/Management-Governance/Res_AWS-Systems-Manager_Documents_48" stroke="none" stroke-width="1" fill="none" fill-rule="evenodd"><path d="M20.114 31.103 34.976 31.103 34.976 29.103 20.114 29.103 20.114 31.103ZM20.114 24.983 38.473 24.983 38.473 22.983 20.114 22.983 20.114 24.983ZM20.114 18.862 27.983 18.862 27.983 16.862 20.114 16.862 20.114 18.862ZM8 36.971 8.748 36.971 8.748 38.971 7 38.971C6.448 38.971 6 38.524 6 37.971L6 3C6 2.447 6.448 2 7 2L23.611 2 23.611 4 8 4 8 36.971ZM13.245 40.468 14.868 40.468 14.868 42.468 12.245 42.468C11.693 42.468 11.245 42.021 11.245 41.468L11.245 6.497C11.245 5.944 11.693 5.497 12.245 5.497L27.983 5.497 27.983 7.497 13.245 7.497 13.245 40.468ZM18.491 43.965 18.491 10.994 31.354 10.994 31.354 18.736C31.354 19.289 31.801 19.736 32.354 19.736L40.096 19.736 40.096 43.965 18.491 43.965ZM33.354 12.408 38.682 17.736 33.354 17.736 33.354 12.408ZM41.803 18.029 33.061 9.287C32.873 9.1 32.619 8.994 32.354 8.994L17.491 8.994C16.939 8.994 16.491 9.442 16.491 9.994L16.491 44.965C16.491 45.518 16.939 45.965 17.491 45.965L41.096 45.965C41.649 45.965 42.096 45.518 42.096 44.965L42.096 18.736C42.096 18.471 41.99 18.217 41.803 18.029L41.803 18.029Z" id="AWS-System-Manager_documents_Resource-Icon_light-bg" fill="#E7157B"/></g></svg>