<svg width="48" height="48" viewBox="0 0 48 48" xmlns="http://www.w3.org/2000/svg" xmlns:xlink="http://www.w3.org/1999/xlink" overflow="hidden"><g id="Icon-Resource/Management-Governance/Res_AWS-Organizations_Organizational-Unit_48" stroke="none" stroke-width="1" fill="none" fill-rule="evenodd"><path d="M34 30C36.757 30 39 32.243 39 35 39 37.757 36.757 40 34 40 31.243 40 29 37.757 29 35 29 32.243 31.243 30 34 30L34 30ZM34 42C37.859 42 41 38.86 41 35 41 31.14 37.859 28 34 28 30.141 28 27 31.14 27 35 27 38.86 30.141 42 34 42L34 42ZM35.831 15.503 39.579 23 32.083 23 35.831 15.503ZM30.465 25 41.197 25C41.544 25 41.865 24.82 42.048 24.526 42.23 24.231 42.247 23.863 42.092 23.553L36.726 12.82C36.386 12.143 35.276 12.143 34.937 12.82L29.57 23.553C29.415 23.863 29.432 24.231 29.614 24.526 29.797 24.82 30.118 25 30.465 25L30.465 25ZM14 32 23 32 23 23 14 23 14 32ZM13 34 24 34C24.553 34 25 33.552 25 33L25 22C25 21.448 24.553 21 24 21L13 21C12.447 21 12 21.448 12 22L12 33C12 33.552 12.447 34 13 34L13 34ZM4 38 6 38 6 40 3 40C2.447 40 2 39.552 2 39L2 3C2 2.448 2.447 2 3 2L39 2C39.553 2 40 2.448 40 3L40 6 38 6 38 4 4 4 4 38ZM10 44 44 44 44 10 10 10 10 44ZM45 8 9 8C8.447 8 8 8.448 8 9L8 45C8 45.552 8.447 46 9 46L45 46C45.553 46 46 45.552 46 45L46 9C46 8.448 45.553 8 45 8L45 8Z" id="Fill-1" fill="#E7157B"/></g></svg>