<svg width="80" height="80" viewBox="0 0 80 80" xmlns="http://www.w3.org/2000/svg" xmlns:xlink="http://www.w3.org/1999/xlink" overflow="hidden"><g id="Icon-Architecture/64/Arch_Amazon-Translate_64" stroke="none" stroke-width="1" fill="none" fill-rule="evenodd"><g id="Icon-Architecture-BG/64/Machine-Learning" fill="#01A88D"><rect x="0" y="0" width="80" height="80" id="Rectangle"/></g><path d="M52 19 52 24.586 47.707 20.293 46.293 21.707 52.293 27.707C52.488 27.902 52.744 28 53 28 53.256 28 53.512 27.902 53.707 27.707L59.707 21.707 58.293 20.293 54 24.586 54 19C54 14.159 52.149 12 48 12L43.005 12 43.005 14 48 14C50.267 14 52 14.368 52 19L52 19ZM28 62 28 55.414 32.293 59.707 33.707 58.293 27.707 52.293C27.316 51.902 26.684 51.902 26.293 52.293L20.293 58.293 21.707 59.707 26 55.414 26 62C26 65.645 28.355 68 32 68L37 68 37 66 32 66C29.495 66 28 64.505 28 62L28 62ZM48.601 48.832C49.316 50.607 50.295 52.156 51.518 53.446 52.701 52.169 53.625 50.65 54.326 48.832L48.601 48.832ZM52.506 46.83 58.598 46.83C58.868 46.83 59.088 47.05 59.088 47.321L59.088 48.341C59.088 48.612 58.868 48.832 58.598 48.832L56.844 48.832C56.768 48.959 56.637 49.089 56.409 49.155 55.573 51.423 54.466 53.287 53.035 54.829 54.688 56.096 56.654 56.994 58.892 57.503 59.064 57.543 59.204 57.674 59.254 57.846 59.304 58.017 59.256 58.202 59.129 58.329 58.932 58.526 58.632 58.946 58.475 59.245 58.389 59.409 58.22 59.508 58.041 59.508 58 59.508 57.959 59.503 57.918 59.492 55.379 58.839 53.26 57.789 51.452 56.288 49.749 57.639 47.66 58.682 45.082 59.471 44.839 59.545 44.58 59.422 44.484 59.187 44.404 58.989 44.141 58.596 43.956 58.368 43.853 58.24 43.819 58.068 43.869 57.911 43.918 57.754 44.044 57.632 44.202 57.587 46.524 56.921 48.41 56.025 49.949 54.854 48.469 53.221 47.279 51.198 46.408 48.832L44.477 48.832C44.205 48.832 43.985 48.612 43.985 48.341L43.985 47.321C43.985 47.05 44.205 46.83 44.477 46.83L50.459 46.83 50.459 44.618C50.459 44.481 50.516 44.352 50.614 44.259 50.713 44.167 50.846 44.125 50.982 44.1278L52.356 44.22C52.493 44.229 52.619 44.295 52.705 44.401 52.791 44.507 52.829 44.644 52.811 44.779 52.795 44.89 52.734 45.106 52.506 45.26L52.506 46.83ZM30.438 35.242 27.855 27.741 25.297 35.242 30.438 35.242ZM29.114 25.711 34.762 41 32.423 41 31.012 36.941 24.724 36.941 23.355 41 21.039 41 26.688 25.711 29.114 25.711ZM63 41 55 41C54.447 41 54 40.552 54 40L54 33 41 33 41 66 63 66 63 41ZM56 39 61.37 39 56 34.227 56 39ZM65 40 65 67C65 67.552 64.553 68 64 68L40 68C39.447 68 39 67.552 39 67L39 32C39 31.448 39.447 31 40 31L55 31C55.24 31 55.478 31.087 55.664 31.252L64.664 39.252C64.882 39.446 65 39.72 65 40L65 40ZM33 21 37.773 21 33 15.63 33 21ZM18 37 16 37 16 13.003C16 12.451 16.447 12.003 17 12.003L32 12C32.28 12 32.554 12.118 32.747 12.335L40.747 21.335C40.913 21.522 41 21.76 41 22L41 28 39 28 39 23 32 23C31.447 23 31 22.552 31 22L31 14 18 14.003 18 37ZM18 48 37 48 37 50 17 50C16.447 50 16 49.552 16 49L16 42 18 42 18 48Z" id="Amazon-Translate_Icon_64_Squid" fill="#FFFFFF"/></g></svg>