<svg width="80" height="80" viewBox="0 0 80 80" xmlns="http://www.w3.org/2000/svg" xmlns:xlink="http://www.w3.org/1999/xlink" overflow="hidden"><g id="Icon-Architecture/64/Arch_Amazon-ECS-Anywhere_64" stroke="none" stroke-width="1" fill="none" fill-rule="evenodd"><g id="Icon-Architecture-BG/64/Containers" fill="#ED7100"><rect x="0" y="0" width="80" height="80" id="Rectangle"/></g><g id="Icon-Service/64/Amazon-ECS-Anywhere_64" fill="#FFFFFF" transform="translate(15 12)"><path d="M47.954 38.3487 40.815 34.1805C41.557 32.2628 41.98 30.1873 41.98 28.0092 41.98 19.9523 36.397 13.1971 28.92 11.402L28.92 2.79127 47.954 14.3992 47.954 38.3487ZM24.973 53.985 2 40.6534 2 14.3389 21.034 2.78624 21.034 11.402C13.557 13.1961 7.974 19.9523 7.974 28.0092 7.974 37.433 15.601 45.0999 24.976 45.0999 29.548 45.0999 33.696 43.2676 36.755 40.3076L42.564 43.7601 24.973 53.985ZM33.958 26.9911C33.758 22.1364 32.805 17.4788 31.373 14.3891 36.161 16.6707 39.556 21.4148 39.929 26.9911L33.958 26.9911ZM33.997 29.0013 39.93 29.0013C39.574 34.467 36.318 39.1377 31.687 41.4776 33.288 38.0582 33.985 33.5322 33.997 29.0013L33.997 29.0013ZM25.976 29.0013 31.982 29.0013C32.001 34.1956 31.088 39.397 28.72 42.5952 27.834 42.8254 26.918 42.9762 25.976 43.0385L25.976 29.0013ZM21.277 42.6063C19.199 39.9669 18.163 34.5836 18.131 29.0013L23.976 29.0013 23.976 43.0385C23.05 42.9772 22.15 42.8304 21.277 42.6063L21.277 42.6063ZM16.105 29.0013C16.137 33.7031 16.873 38.2854 18.328 41.5077 13.666 39.1779 10.381 34.4911 10.024 29.0013L16.105 29.0013ZM16.133 26.9911 10.025 26.9911C10.402 21.3585 13.861 16.5722 18.726 14.3188 17.172 17.6436 16.3 22.2812 16.133 26.9911L16.133 26.9911ZM23.976 26.9911 18.163 26.9911C18.366 21.5324 19.525 16.1903 21.597 13.3297 22.37 13.1498 23.164 13.0352 23.976 12.981L23.976 26.9911ZM25.976 12.981C26.81 13.0362 27.625 13.1579 28.416 13.3448 30.192 15.4254 31.635 21.0177 31.926 26.9911L25.976 26.9911 25.976 12.981ZM49.473 12.9739 28.438 0.145843C28.129-0.0431157 27.743-0.0481412 27.43 0.129761 27.114 0.307664 26.92 0.642362 26.92 1.0052L26.92 11.0401C26.281 10.9667 25.634 10.9195 24.976 10.9195 24.319 10.9195 23.673 10.9657 23.034 11.0401L23.034 1.0052C23.034 0.642362 22.84 0.308669 22.525 0.129761 22.212-0.0481412 21.825-0.0431157 21.517 0.144838L0.483 12.9116C0.183 13.0935 0 13.4202 0 13.772L0 41.2333C0 41.5931 0.19 41.9248 0.5 42.1037L24.473 56.0163C24.627 56.1058 24.8 56.15 24.973 56.15 25.145 56.15 25.318 56.1058 25.474 56.0153L45.047 44.6396C45.354 44.4617 45.544 44.132 45.546 43.7742 45.548 43.4174 45.36 43.0857 45.055 42.9048L38.148 38.8C38.847 37.9396 39.463 37.0089 39.987 36.0209L48.452 40.9639C48.607 41.0544 48.78 41.0996 48.954 41.0996 49.126 41.0996 49.299 41.0554 49.453 40.966 49.763 40.7871 49.954 40.4544 49.954 40.0945L49.954 13.8333C49.954 13.4825 49.771 13.1569 49.473 12.9739L49.473 12.9739Z" id="Fill-1"/></g></g></svg>