<svg width="48" height="48" viewBox="0 0 48 48" xmlns="http://www.w3.org/2000/svg" xmlns:xlink="http://www.w3.org/1999/xlink" overflow="hidden"><g id="Icon-Resource/IoT/Res_AWS-IoT_LoRaWAN-Protocol_48" stroke="none" stroke-width="1" fill="none" fill-rule="evenodd"><path d="M46 5C46 3.346 44.654 2 43 2L5 2C3.346 2 2 3.346 2 5L2 28 4 28 4 5C4 4.449 4.448 4 5 4L43 4C43.552 4 44 4.449 44 5L44 28 46 28 46 5ZM37.595 37.442 37.595 41.875 36.541 41.875 36.541 35.58 37.958 35.58 39.856 39.995 39.856 35.58 40.91 35.58 40.91 41.875 39.512 41.875 37.595 37.442ZM32.825 39.468 33.951 39.468 33.38 36.861 32.825 39.468ZM34.47 41.875 34.143 40.376 32.635 40.376 32.316 41.875 30.981 41.875 32.726 35.58 34.134 35.58 35.868 41.875 34.47 41.875ZM28.328 41.875 27.62 37.233 26.947 41.875 25.54 41.875 24.195 35.58 25.477 35.58 26.275 40.585 26.966 35.834 28.347 35.834 29.056 40.503 29.827 35.58 31.081 35.58 29.736 41.875 28.328 41.875ZM21.815 41.121C22.015 41.121 22.215 41.025 22.414 40.831L22.414 39.94C22.281 39.898 22.124 39.877 21.942 39.877 21.767 39.877 21.632 39.933 21.538 40.045 21.444 40.157 21.397 40.319 21.397 40.531 21.397 40.713 21.435 40.857 21.511 40.962 21.587 41.068 21.688 41.121 21.815 41.121L21.815 41.121ZM22.597 41.875 22.487 41.458C22.384 41.615 22.236 41.744 22.042 41.844 21.849 41.944 21.651 41.994 21.451 41.994 21.076 41.994 20.779 41.871 20.562 41.626 20.343 41.38 20.234 41.043 20.234 40.613 20.234 40.159 20.367 39.8 20.634 39.536 20.9 39.273 21.261 39.141 21.715 39.141 21.902 39.141 22.136 39.178 22.414 39.25L22.414 38.832C22.414 38.518 22.374 38.304 22.292 38.192 22.21 38.08 22.057 38.023 21.833 38.023 21.47 38.023 21.024 38.121 20.498 38.314L20.498 37.488C20.673 37.373 20.903 37.282 21.188 37.215 21.473 37.148 21.764 37.115 22.061 37.115 22.587 37.115 22.969 37.235 23.205 37.474 23.44 37.713 23.56 38.096 23.56 38.624L23.56 41.875 22.597 41.875ZM16.892 38.596 17.481 38.596C17.718 38.596 17.898 38.508 18.022 38.333 18.146 38.157 18.209 37.899 18.209 37.561 18.209 37.221 18.146 36.964 18.022 36.789 17.898 36.613 17.718 36.525 17.481 36.525L16.892 36.525 16.892 38.596ZM18.481 41.875 17.382 39.541 16.892 39.541 16.892 41.875 15.646 41.875 15.646 35.58 17.636 35.58C18.193 35.58 18.637 35.757 18.967 36.111 19.297 36.465 19.462 36.949 19.462 37.561 19.462 37.985 19.38 38.351 19.217 38.66 19.053 38.969 18.82 39.199 18.518 39.35L19.789 41.875 18.481 41.875ZM12.812 41.049C13.037 41.049 13.199 40.929 13.299 40.69 13.398 40.451 13.449 40.074 13.449 39.559 13.449 39.044 13.398 38.666 13.299 38.423 13.199 38.182 13.037 38.06 12.812 38.06 12.589 38.06 12.427 38.182 12.326 38.423 12.228 38.666 12.177 39.044 12.177 39.559 12.177 40.074 12.228 40.451 12.326 40.69 12.427 40.929 12.589 41.049 12.812 41.049L12.812 41.049ZM12.812 41.994C12.213 41.994 11.75 41.782 11.423 41.358 11.096 40.934 10.933 40.334 10.933 39.559 10.933 38.778 11.096 38.175 11.423 37.751 11.75 37.327 12.213 37.115 12.812 37.115 13.412 37.115 13.876 37.327 14.202 37.751 14.529 38.175 14.693 38.778 14.693 39.559 14.693 40.334 14.529 40.934 14.202 41.358 13.876 41.782 13.412 41.994 12.812 41.994L12.812 41.994ZM7.135 41.875 7.135 35.58 8.406 35.58 8.406 40.867 10.551 40.867 10.551 41.875 7.135 41.875ZM4 44 44 44 44 33 4 33 4 44ZM45 46 3 46C2.447 46 2 45.552 2 45L2 32C2 31.448 2.447 31 3 31L45 31C45.553 31 46 31.448 46 32L46 45C46 45.552 45.553 46 45 46L45 46Z" id="Fill-1" fill="#7AA116"/></g></svg>