<svg width="80" height="80" viewBox="0 0 80 80" xmlns="http://www.w3.org/2000/svg" xmlns:xlink="http://www.w3.org/1999/xlink" overflow="hidden"><g id="Icon-Architecture/64/Arch_Amazon-Quantum-Ledger-Database_64" stroke="none" stroke-width="1" fill="none" fill-rule="evenodd"><g id="Icon-Architecture-BG/64/Blockchain" fill="#ED7100"><rect x="0" y="0" width="80" height="80" id="Rectangle"/></g><path d="M66 47.2832 56 47.2832 56 43.2489 51 43.2489 51 47.2832 41 47.2832 41 43.2489 36 43.2489 36 47.2832 26 47.2832 26 37.1974 35.564 37.1974C35.731 37.3447 35.897 37.505 36 37.626L36 42.2403 41 42.2403 41 37.3325C41 37.2831 41.001 37.2388 41.002 37.1974L51 37.1974 51 42.2403 56 42.2403 56 37.1974 66 37.1974 66 47.2832ZM66.121 35.1802 55.879 35.1802C54.843 35.1802 54 36.0305 54 37.0754L54 40.2231 53 40.2231 53 37.5797C53.085 37.3598 53.115 37.1187 53.086 36.8767 52.992 36.1081 52.325 35.5413 52.122 35.387L51.854 35.1802 40.287 35.1802C39.807 35.1802 39 35.4596 39 37.3325L39 40.2231 38 40.2231 38 37.1147 37.911 36.917C37.615 36.2564 36.776 35.5786 36.526 35.387L36.259 35.1802 25.879 35.1802C24.843 35.1802 24 36.0305 24 37.0754L24 47.4053C24 48.4501 24.843 49.3004 25.879 49.3004L36.121 49.3004C37.157 49.3004 38 48.4501 38 47.4053L38 45.2661 39 45.2661 39 47.6493C39 48.9555 39.842 49.3004 40.287 49.3004L51.517 49.3004C52.235 49.3004 53 48.7215 53 47.6493L53 45.2661 54.001 45.2661 54.002 47.5818C53.947 48.4038 54.608 49.0876 55.648 49.2832L66.121 49.3004C67.157 49.3004 68 48.4501 68 47.4053L68 37.0754C68 36.0305 67.157 35.1802 66.121 35.1802L66.121 35.1802ZM63 40.2221 63.002 44.2575 59 44.2585 58.999 40.2231 63 40.2221ZM58.999 46.2746 63.001 46.2746C64.104 46.2746 65 45.3699 65 44.2585L65 40.2221C65 39.1107 64.104 38.206 63.001 38.206L58.999 38.206C57.896 38.206 57 39.1107 57 40.2221L57 44.2585C57 45.3699 57.896 46.2746 58.999 46.2746L58.999 46.2746ZM48 44.2413C48 44.2504 47.993 44.2575 47.984 44.2575L44 44.2413 44.016 40.2231 48 40.2393 48 44.2413ZM47.984 38.206 44.016 38.206C42.904 38.206 42 39.1177 42 40.2393L42 44.2413C42 45.3629 42.904 46.2746 44.016 46.2746L47.984 46.2746C49.096 46.2746 50 45.3629 50 44.2413L50 40.2393C50 39.1177 49.096 38.206 47.984 38.206L47.984 38.206ZM29 44.2585 28.999 40.2231 33 40.2221 33.002 44.2575 29 44.2585ZM33.001 38.206 28.999 38.206C27.896 38.206 27 39.1107 27 40.2221L27 44.2585C27 45.3699 27.896 46.2746 28.999 46.2746L33.001 46.2746C34.104 46.2746 35 45.3699 35 44.2585L35 40.2221C35 39.1107 34.104 38.206 33.001 38.206L33.001 38.206ZM30 16.0172C39.429 16.0172 46 18.94 46 21.5644 46 24.1887 39.429 27.1116 30 27.1116 20.571 27.1116 14 24.1887 14 21.5644 14 18.94 20.571 16.0172 30 16.0172L30 16.0172ZM46 59.3096C46 61.9924 39.429 64.9828 30 64.9828 20.571 64.9828 14 61.9924 14 59.3096L14 50.6872C17.184 53.3902 23.189 55.2369 29.545 55.2369 37.58 55.2369 41.782 53.3317 41.957 53.251L41.121 51.4174C41.082 51.4356 37.146 53.2197 29.545 53.2197 21.77 53.2197 15.518 50.3685 14 47.6614L14 37.7915C15.916 39.5222 18.818 40.8858 22.096 41.502L22.463 39.5192C17.949 38.6709 14.937 36.4147 14 34.6427L14 25.1569C17.19 27.752 23.728 29.1287 30 29.1287 36.272 29.1287 42.81 27.752 46 25.1569L46 34.1716 48 34.1716 48 21.0601 47.94 21.0601C47.321 16.4741 38.418 14 30 14 21.582 14 12.679 16.4741 12.06 21.0601L12 21.0601 12 59.3096C12 63.6939 19.738 67 30 67 40.262 67 48 63.6939 48 59.3096L48 51.3176 46 51.3176 46 59.3096Z" id="Amazon-Quantum-Ledger-Database_Icon_64_Squid" fill="#FFFFFF"/></g></svg>