<svg width="48" height="48" viewBox="0 0 48 48" xmlns="http://www.w3.org/2000/svg" xmlns:xlink="http://www.w3.org/1999/xlink" overflow="hidden"><g id="Icon-Resource/Networking-and-Content-Delivery/Res_Amazon-VPC_VPN-Gateway_48" stroke="none" stroke-width="1" fill="none" fill-rule="evenodd"><path d="M24.0015 25.4385C24.6565 25.4385 25.1885 25.9705 25.1885 26.6255 25.1885 27.2815 24.6565 27.8135 24.0015 27.8135 23.3465 27.8135 22.8135 27.2815 22.8135 26.6255 22.8135 25.9705 23.3465 25.4385 24.0015 25.4385L24.0015 25.4385ZM23.0015 29.6365 23.0015 32.6915 25.0015 32.6915 25.0015 29.6365C26.2685 29.2145 27.1895 28.0325 27.1895 26.6255 27.1895 24.8685 25.7595 23.4385 24.0015 23.4385 22.2435 23.4385 20.8135 24.8685 20.8135 26.6255 20.8135 28.0325 21.7345 29.2145 23.0015 29.6365L23.0015 29.6365ZM24.0015 44.0015C12.9725 44.0015 3.9995 35.0295 3.9995 24.0015 3.9995 12.9725 12.9725 4.0005 24.0015 4.0005 35.0295 4.0005 44.0025 12.9725 44.0025 24.0015 44.0025 35.0295 35.0295 44.0015 24.0015 44.0015L24.0015 44.0015ZM24.0015 2.0005C11.8695 2.0005 1.9995 11.8695 1.9995 24.0015 1.9995 36.1325 11.8695 46.0015 24.0015 46.0015 36.1335 46.0015 46.0025 36.1325 46.0025 24.0015 46.0025 11.8695 36.1335 2.0005 24.0015 2.0005L24.0015 2.0005ZM32.6195 34.3765 15.3755 34.3695 15.3805 21.5005 32.6265 21.5075 32.6195 34.3765ZM19.7545 16.0965C19.7585 14.9175 20.2075 13.8135 21.0195 12.9845 21.8205 12.1675 22.8815 11.7165 24.0075 11.7165L24.0225 11.7165C25.1475 11.7195 26.2045 12.1795 26.9985 13.0095 27.7995 13.8475 28.2385 14.9605 28.2345 16.1485L28.2345 19.5055 19.7385 19.5025 19.7545 16.0965ZM33.6265 19.5075 30.2345 19.5065 30.2345 16.1515C30.2405 14.4485 29.6045 12.8405 28.4435 11.6275 27.2715 10.4005 25.7025 9.7215 24.0275 9.7165L24.0075 9.7165C22.3395 9.7165 20.7725 10.3795 19.5915 11.5845 18.4125 12.7875 17.7605 14.3875 17.7545 16.0885L17.7385 19.5015 14.3805 19.5015C14.1155 19.5015 13.8605 19.6065 13.6735 19.7935 13.4855 19.9815 13.3805 20.2355 13.3805 20.5015L13.3755 35.3695C13.3755 35.9205 13.8225 36.3695 14.3755 36.3695L33.6195 36.3765C34.1715 36.3765 34.6195 35.9295 34.6195 35.3765L34.6265 20.5075C34.6265 20.2435 34.5215 19.9885 34.3335 19.8005 34.1465 19.6135 33.8925 19.5075 33.6265 19.5075L33.6265 19.5075Z" id="AWS-Amazon-VPC_VPN-gateway_Resource-Icon_light-bg" fill="#8C4FFF"/></g></svg>