<svg width="48" height="48" viewBox="0 0 48 48" xmlns="http://www.w3.org/2000/svg" xmlns:xlink="http://www.w3.org/1999/xlink" overflow="hidden"><g id="Icon-Resource/Networking-and-Content-Delivery/Res_Amazon-VPC_Elastic-Network-Interface_48" stroke="none" stroke-width="1" fill="none" fill-rule="evenodd"><path d="M22.376 25.627 26.502 25.627 26.502 21.501 22.376 21.501 22.376 25.627ZM28.502 25.627 32.627 25.627 32.627 21.501 28.502 21.501 28.502 25.627ZM21.376 27.627 33.627 27.627C34.179 27.627 34.627 27.18 34.627 26.627L34.627 20.501C34.627 19.948 34.179 19.501 33.627 19.501L21.376 19.501C20.823 19.501 20.376 19.948 20.376 20.501L20.376 26.627C20.376 27.18 20.823 27.627 21.376 27.627L21.376 27.627ZM37.877 29.127 35.377 29.127C34.824 29.127 34.377 29.574 34.377 30.127L34.377 31.752 32.002 31.752 32.002 30.127C32.002 29.574 31.554 29.127 31.002 29.127L27.502 29.127C26.949 29.127 26.502 29.574 26.502 30.127L26.502 31.752 19.751 31.752 19.751 30.127C19.751 29.574 19.303 29.127 18.751 29.127L18.001 29.127 18.001 18.001 37.877 18.001 37.877 29.127ZM38.877 16.001 17.001 16.001C16.448 16.001 16.001 16.448 16.001 17.001L16.001 30.127C16.001 30.68 16.448 31.127 17.001 31.127L17.751 31.127 17.751 32.752C17.751 33.305 18.198 33.752 18.751 33.752L27.502 33.752C28.054 33.752 28.502 33.305 28.502 32.752L28.502 31.127 30.002 31.127 30.002 32.752C30.002 33.305 30.449 33.752 31.002 33.752L35.377 33.752C35.929 33.752 36.377 33.305 36.377 32.752L36.377 31.127 38.877 31.127C39.429 31.127 39.877 30.68 39.877 30.127L39.877 17.001C39.877 16.448 39.429 16.001 38.877 16.001L38.877 16.001ZM14.501 15.251 14.501 34.502C14.501 35.055 14.053 35.502 13.501 35.502L10.35 35.502 10.35 33.502 12.501 33.502 12.501 16.251 10.35 16.251 10.35 14.251 13.501 14.251C14.053 14.251 14.501 14.698 14.501 15.251L14.501 15.251ZM24.002 44.003C12.972 44.003 4 35.03 4 24.001 4 12.973 12.972 4 24.002 4 35.03 4 44.002 12.973 44.002 24.001 44.002 35.03 35.03 44.003 24.002 44.003L24.002 44.003ZM24.002 2C11.87 2 2 11.869 2 24.001 2 36.133 11.87 46.003 24.002 46.003 36.133 46.003 46.002 36.133 46.002 24.001 46.002 11.869 36.133 2 24.002 2L24.002 2Z" id="AWS-Amazon-VPC_Elastic-network-interface_Resource-Icon_light-bg" fill="#8C4FFF"/></g></svg>