<svg width="48" height="48" viewBox="0 0 48 48" xmlns="http://www.w3.org/2000/svg" xmlns:xlink="http://www.w3.org/1999/xlink" overflow="hidden"><g id="Icon-Resource/IoT/Res_AWS-IoT_Thing_Stacklight_48" stroke="none" stroke-width="1" fill="none" fill-rule="evenodd"><path d="M39 37.865C39 38.49 38.491 39 37.865 39L10.135 39C9.509 39 9 38.49 9 37.865L9 10.135C9 9.509 9.509 9 10.135 9L37.865 9C38.491 9 39 9.509 39 10.135L39 37.865ZM46 15 46 13 41 13 41 10.135C41 8.406 39.594 7 37.865 7L35 7 35 2 33 2 33 7 30 7 30 2 28 2 28 7 25 7 25 2 23 2 23 7 20 7 20 2 18 2 18 7 15 7 15 2 13 2 13 7 10.135 7C8.406 7 7 8.406 7 10.135L7 13 2 13 2 15 7 15 7 18 2 18 2 20 7 20 7 23 2 23 2 25 7 25 7 28 2 28 2 30 7 30 7 33 2 33 2 35 7 35 7 37.865C7 39.594 8.406 41 10.135 41L13 41 13 46 15 46 15 41 18 41 18 46 20 46 20 41 23 41 23 46 25 46 25 41 28 41 28 46 30 46 30 41 33 41 33 46 35 46 35 41 37.865 41C39.594 41 41 39.594 41 37.865L41 35 46 35 46 33 41 33 41 30 46 30 46 28 41 28 41 25 46 25 46 23 41 23 41 20 46 20 46 18 41 18 41 15 46 15ZM11.992 22 15.992 22 15.992 20 11.992 20 11.992 22ZM16.285 24.293 17.699 25.707 15.699 27.707 14.285 26.293 16.285 24.293ZM15.699 14.293 17.699 16.293 16.285 17.707 14.285 15.707 15.699 14.293ZM31.992 22 35.992 22 35.992 20 31.992 20 31.992 22ZM31.699 24.293 33.699 26.293 32.285 27.707 30.285 25.707 31.699 24.293ZM31.699 17.707 30.285 16.293 32.285 14.293 33.699 15.707 31.699 17.707ZM20.992 29 26.992 29 26.992 25 20.992 25 20.992 29ZM20.992 23 26.992 23 26.992 19 20.992 19 20.992 23ZM20.992 17 26.992 17 26.992 13 20.992 13 20.992 17ZM27.992 11 19.992 11C19.439 11 18.992 11.448 18.992 12L18.992 30C18.992 30.552 19.439 31 19.992 31L22.992 31 22.992 35 18.992 35 18.992 37 28.992 37 28.992 35 24.992 35 24.992 31 27.992 31C28.545 31 28.992 30.552 28.992 30L28.992 12C28.992 11.448 28.545 11 27.992 11L27.992 11Z" id="Fill-1" fill="#7AA116"/></g></svg>