<svg width="48" height="48" viewBox="0 0 48 48" xmlns="http://www.w3.org/2000/svg" xmlns:xlink="http://www.w3.org/1999/xlink" overflow="hidden"><g id="Icon-Resource/Storage/Res_Amazon-Elastic-File-System_File-System_48" stroke="none" stroke-width="1" fill="none" fill-rule="evenodd"><path d="M37.2367 11.621 42.2337 11.621 42.2337 6.624 37.2367 6.624 37.2367 11.621ZM36.1117 13.595 36.1117 15.245 38.1117 15.245 38.1117 13.621 38.7357 13.621 38.7357 15.245 40.7357 15.245 40.7357 13.621 41.3597 13.621 41.3597 15.245 43.3597 15.245 43.3597 13.595C43.8067 13.537 44.1497 13.193 44.2077 12.746L45.8577 12.746 45.8577 10.746 44.2337 10.746 44.2337 10.123 45.8577 10.123 45.8577 8.123 44.2337 8.123 44.2337 7.499 45.8577 7.499 45.8577 5.499 44.2077 5.499C44.1497 5.051 43.8067 4.708 43.3597 4.649L43.3597 3 41.3597 3 41.3597 4.624 40.7357 4.624 40.7357 3 38.7357 3 38.7357 4.624 38.1117 4.624 38.1117 3 36.1117 3 36.1117 4.649C35.6627 4.708 35.3207 5.05 35.2617 5.499L33.6127 5.499 33.6127 7.499 35.2367 7.499 35.2367 8.123 33.6127 8.123 33.6127 10.123 35.2367 10.123 35.2367 10.746 33.6127 10.746 33.6127 12.746 35.2617 12.746C35.3207 13.194 35.6627 13.537 36.1117 13.595L36.1117 13.595ZM22.3677 11.621 27.3647 11.621 27.3647 6.624 22.3677 6.624 22.3677 11.621ZM21.2427 13.595 21.2427 15.245 23.2427 15.245 23.2427 13.621 23.8667 13.621 23.8667 15.245 25.8667 15.245 25.8667 13.621 26.4907 13.621 26.4907 15.245 28.4907 15.245 28.4907 13.595C28.9377 13.537 29.2807 13.193 29.3387 12.746L30.9887 12.746 30.9887 10.746 29.3647 10.746 29.3647 10.123 30.9887 10.123 30.9887 8.123 29.3647 8.123 29.3647 7.499 30.9887 7.499 30.9887 5.499 29.3387 5.499C29.2807 5.051 28.9377 4.708 28.4907 4.649L28.4907 3 26.4907 3 26.4907 4.624 25.8667 4.624 25.8667 3 23.8667 3 23.8667 4.624 23.2427 4.624 23.2427 3 21.2427 3 21.2427 4.649C20.7937 4.708 20.4507 5.05 20.3927 5.499L18.7427 5.499 18.7427 7.499 20.3677 7.499 20.3677 8.123 18.7427 8.123 18.7427 10.123 20.3677 10.123 20.3677 10.746 18.7427 10.746 18.7427 12.746 20.3927 12.746C20.4507 13.194 20.7937 13.537 21.2427 13.595L21.2427 13.595ZM7.49866 11.621 12.4957 11.621 12.4957 6.624 7.49866 6.624 7.49866 11.621ZM6.37266 13.595 6.37266 15.245 8.37266 15.245 8.37266 13.621 8.99666 13.621 8.99666 15.245 10.9967 15.245 10.9967 13.621 11.6207 13.621 11.6207 15.245 13.6207 15.245 13.6207 13.595C14.0697 13.537 14.4117 13.194 14.4707 12.746L16.1197 12.746 16.1197 10.746 14.4957 10.746 14.4957 10.123 16.1197 10.123 16.1197 8.123 14.4957 8.123 14.4957 7.499 16.1197 7.499 16.1197 5.499 14.4707 5.499C14.4117 5.05 14.0697 4.708 13.6207 4.649L13.6207 3 11.6207 3 11.6207 4.624 10.9967 4.624 10.9967 3 8.99666 3 8.99666 4.624 8.37266 4.624 8.37266 3 6.37266 3 6.37266 4.649C5.92566 4.708 5.58166 5.051 5.52466 5.499L3.87466 5.499 3.87466 7.499 5.49866 7.499 5.49866 8.123 3.87466 8.123 3.87466 10.123 5.49866 10.123 5.49866 10.746 3.87466 10.746 3.87466 12.746 5.52466 12.746C5.58166 13.193 5.92566 13.537 6.37266 13.595L6.37266 13.595ZM37.3347 28.477 43.4427 42.23 10.6517 42.23 4.53866 28.477 37.3347 28.477ZM6.87666 24.979 39.8117 24.979 41.7387 33.463 38.8997 27.071C38.7397 26.709 38.3807 26.477 37.9857 26.477L7.21766 26.477 6.87666 24.979ZM10.9967 22.361C10.9967 21.828 11.4187 21.393 11.9387 21.393L31.4437 21.393C31.9957 21.393 32.4437 20.946 32.4437 20.393L32.4437 18.25C32.4437 18.092 32.5547 17.973 32.7027 17.973L36.9457 17.973C37.0957 17.973 37.2127 18.094 37.2127 18.25L37.2127 20.393C37.2127 20.946 37.6597 21.393 38.2127 21.393L43.0407 21.393C43.5607 21.393 43.9827 21.828 43.9827 22.361L43.9827 34.311 41.5847 23.757C41.4817 23.302 41.0757 22.979 40.6097 22.979L10.9967 22.979 10.9967 22.361ZM43.0407 19.393 39.2127 19.393 39.2127 18.25C39.2127 16.995 38.1957 15.973 36.9457 15.973L32.7027 15.973C31.4567 15.973 30.4437 16.995 30.4437 18.25L30.4437 19.393 11.9387 19.393C10.3167 19.393 8.99666 20.724 8.99666 22.361L8.99666 22.979 5.62366 22.979C5.31966 22.979 5.03266 23.118 4.84266 23.355 4.65266 23.593 4.58066 23.904 4.64966 24.201L5.16666 26.477 2.99966 26.477C2.66066 26.477 2.34566 26.648 2.16066 26.932 1.97766 27.216 1.94866 27.574 2.08566 27.883L9.07266 43.604C9.22066 43.97 9.57666 44.23 9.99666 44.23L44.9827 44.23C45.5347 44.23 45.9827 43.783 45.9827 43.23L45.9827 22.361C45.9827 20.724 44.6627 19.393 43.0407 19.393L43.0407 19.393Z" id="AWS-Amazon-Elastic-File-System_File-system_Resource-Icon_light-bg" fill="#7AA116"/></g></svg>