<svg width="48" height="48" viewBox="0 0 48 48" xmlns="http://www.w3.org/2000/svg" xmlns:xlink="http://www.w3.org/1999/xlink" overflow="hidden"><g id="Icon-Resource/Machine-Learning/Res_Amazon-Textract_Analyze-Lending_48" stroke="none" stroke-width="1" fill="none" fill-rule="evenodd"><path d="M12 34C16.411 34 20 30.411 20 26 20 21.589 16.411 18 12 18 7.589 18 4 21.589 4 26 4 30.411 7.589 34 12 34L12 34ZM20.338 31.509C19.594 32.63 18.631 33.593 17.509 34.337L22.586 39.414C23.342 40.169 24.658 40.169 25.414 39.414 25.792 39.036 26 38.534 26 38 26 37.466 25.792 36.963 25.414 36.585L20.338 31.509ZM12 36C6.486 36 2 31.514 2 26 2 20.486 6.486 16 12 16 17.514 16 22 20.486 22 26 22 27.287 21.747 28.514 21.302 29.645L26.828 35.171C27.584 35.927 28 36.932 28 38 28 39.068 27.584 40.073 26.828 40.828 26.073 41.583 25.068 42 24 42 22.932 42 21.927 41.583 21.172 40.828L15.646 35.302C14.514 35.747 13.287 36 12 36L12 36ZM29 26 36 26 36 24 29 24 29 26ZM24 21 36 21 36 19 24 19 24 21ZM30 36 36 36 36 34 30 34 30 36ZM27 31 36 31 36 29 27 29 27 31ZM34 14 37.586 14 34 10.414 34 14ZM40.707 14.293C40.895 14.48 41 14.735 41 15L41 45C41 45.552 40.553 46 40 46L12 46C11.447 46 11 45.552 11 45L11 38 13 38 13 44 39 44 39 16 33 16C32.447 16 32 15.552 32 15L32 9 13 9 13 14 11 14 11 8C11 7.448 11.447 7 12 7L33 7C33.266 7 33.52 7.105 33.707 7.293L40.707 14.293ZM46 12 46 40C46 40.552 45.553 41 45 41L43 41 43 39 44 39 44 12.414 35.586 4 18 4 18 5 16 5 16 3C16 2.448 16.447 2 17 2L36 2C36.266 2 36.52 2.105 36.707 2.293L45.707 11.293C45.895 11.48 46 11.735 46 12L46 12Z" id="Fill-1" fill="#01A88D"/></g></svg>