<svg width="48" height="48" viewBox="0 0 48 48" xmlns="http://www.w3.org/2000/svg" xmlns:xlink="http://www.w3.org/1999/xlink" overflow="hidden"><g id="Icon-Resource/Compute/Res_AWS-Lambda_Lambda-Function_48" stroke="none" stroke-width="1" fill="none" fill-rule="evenodd"><path d="M24 44C12.972 44 4 35.028 4 24 4 12.972 12.972 4 24 4 35.028 4 44 12.972 44 24 44 35.028 35.028 44 24 44L24 44ZM24 2C11.869 2 2 11.869 2 24 2 36.131 11.869 46 24 46 36.131 46 46 36.131 46 24 46 11.869 36.131 2 24 2L24 2ZM17.231 35.25 11.876 35.25 18.221 21.959 20.902 27.492 17.231 35.25ZM19.114 19.215C18.946 18.87 18.597 18.651 18.214 18.651L18.211 18.651C17.826 18.652 17.477 18.874 17.312 19.221L9.389 35.819C9.24 36.129 9.262 36.493 9.445 36.783 9.628 37.074 9.947 37.25 10.291 37.25L17.864 37.25C18.251 37.25 18.603 37.027 18.769 36.678L22.915 27.915C23.044 27.642 23.043 27.323 22.911 27.051L19.114 19.215ZM36.125 35.25 30.673 35.25 20.761 13.953C20.597 13.601 20.243 13.375 19.854 13.375L16.251 13.375 16.255 9.25 23.475 9.25 33.339 30.545C33.503 30.898 33.856 31.125 34.246 31.125L36.125 31.125 36.125 35.25ZM37.125 29.125 34.885 29.125 25.021 7.83C24.856 7.477 24.503 7.25 24.113 7.25L15.256 7.25C14.704 7.25 14.257 7.697 14.256 8.249L14.25 14.374C14.25 14.64 14.355 14.894 14.543 15.082 14.73 15.27 14.984 15.375 15.25 15.375L19.217 15.375 29.129 36.672C29.293 37.024 29.646 37.25 30.035 37.25L37.125 37.25C37.678 37.25 38.125 36.803 38.125 36.25L38.125 30.125C38.125 29.572 37.678 29.125 37.125 29.125L37.125 29.125Z" id="Amazon-Lambda-Lambda-Function_Resource-Icon_light-bg" fill="#ED7100"/></g></svg>