<svg width="80" height="80" viewBox="0 0 80 80" xmlns="http://www.w3.org/2000/svg" xmlns:xlink="http://www.w3.org/1999/xlink" overflow="hidden"><g id="Icon-Architecture/64/Arch_Amazon-Polly_64" stroke="none" stroke-width="1" fill="none" fill-rule="evenodd"><g id="Icon-Architecture-BG/64/Machine-Learning" fill="#01A88D"><rect x="0" y="0" width="80" height="80" id="Rectangle"/></g><path d="M40.0225 39.0045 47.0294 39.0045 47.0294 37.0044 40.0225 37.0044 40.0225 39.0045ZM43.025 50.0047 45.0267 50.0047 45.0267 45.0046 43.025 45.0046 43.025 50.0047ZM28.0125 33.0044 32.0158 33.0044 32.0158 31.0043 28.0125 31.0043 28.0125 33.0044ZM17.0033 44.0046 32.0158 44.0046 32.0158 42.0045 17.0033 42.0045 17.0033 44.0046ZM17.0033 39.0045 38.0209 39.0045 38.0209 37.0044 17.0033 37.0044 17.0033 39.0045ZM40.0225 52.0047 42.0242 52.0047 42.0242 43.0046 40.0225 43.0046 40.0225 52.0047ZM55.035 52.0047 57.0367 52.0047 57.0367 44.0046 55.035 44.0046 55.035 52.0047ZM52.0325 54.0048 54.0342 54.0048 54.0342 41.0045 52.0325 41.0045 52.0325 54.0048ZM49.03 53.0047 51.0317 53.0047 51.0317 42.0045 49.03 42.0045 49.03 53.0047ZM46.0285 52.0047 48.0302 52.0047 48.0302 43.0046 46.0285 43.0046 46.0285 52.0047ZM66.8569 65.125 62.2921 56.1968C63.8774 53.5778 64.7121 50.5647 64.7121 47.4476 64.7121 38.0155 57.0357 30.3403 47.6008 30.3403 44.8045 30.3403 42.0372 31.0253 39.5972 32.3204L40.5359 34.0874C42.6877 32.9444 45.1308 32.3404 47.6008 32.3404 55.9318 32.3404 62.7104 39.1175 62.7104 47.4476 62.7104 50.3747 61.8787 53.1927 60.3044 55.5988 60.1073 55.8988 60.0872 56.2818 60.2504 56.6018L64.0896 64.1099 56.4502 60.2889C56.144 60.1359 55.7776 60.1499 55.4824 60.3289 53.0954 61.7779 50.3701 62.5439 47.6008 62.5439 40.0796 62.5439 33.6412 56.9408 32.6244 49.5117L30.6407 49.7817C31.7927 58.1978 39.0837 64.544 47.6008 64.544 50.5523 64.544 53.4577 63.7769 56.0399 62.3199L65.1435 66.873C65.3216 66.958 65.5138 67 65.7029 67 66.0482 67 66.3865 66.863 66.6377 66.604 67.023 66.206 67.1091 65.609 66.8569 65.125L66.8569 65.125ZM17.0033 33.0044 26.0108 33.0044 26.0108 31.0043 17.0033 31.0043 17.0033 33.0044ZM31.015 24.0042 38.6073 24.0042 31.015 16.4181 31.015 24.0042ZM15.0017 39.0045 13 39.0045 13 14.004C13 13.452 13.4474 13.004 14.0008 13.004L30.0142 13C30.2754 13 30.5316 13.106 30.7218 13.297L41.7309 24.2972C41.9221 24.4892 42.0242 24.7452 42.0242 25.0042L42.0242 28.0043 40.0225 28.0043 40.0225 26.0042 30.0142 26.0042C29.4607 26.0042 29.0133 25.5572 29.0133 25.0042L29.0133 15 15.0017 15.004 15.0017 39.0045ZM15.0017 52.0047 29.0133 52.0047 29.0133 54.0048 14.0008 54.0048C13.4474 54.0048 13 53.5578 13 53.0047L13 44.0046 15.0017 44.0046 15.0017 52.0047Z" id="Amazon-Polly-Icon_64_Squid" fill="#FFFFFF"/></g></svg>