<svg width="80" height="80" viewBox="0 0 80 80" xmlns="http://www.w3.org/2000/svg" xmlns:xlink="http://www.w3.org/1999/xlink" overflow="hidden"><g id="Icon-Architecture/64/Arch_Amazon-Elastic-Block-Store_64" stroke="none" stroke-width="1" fill="none" fill-rule="evenodd"><g id="Icon-Architecture-BG/64/Storage" fill="#7AA116"><rect x="0" y="0" width="80" height="80" id="Rectangle"/></g><path d="M66 58 68 58 68 68 58 68 58 66 64.586 66 56.293 57.707 57.707 56.293 66 64.586 66 58ZM23.707 57.707 15.414 66 22 66 22 68 12 68 12 58 14 58 14 64.586 22.293 56.293 23.707 57.707ZM68 12 68 22 66 22 66 15.414 57.707 23.707 56.293 22.293 64.586 14 58 14 58 12 68 12ZM15.414 14 23.707 22.293 22.293 23.707 14 15.414 14 22 12 22 12 12 22 12 22 14 15.414 14ZM50.678 53.661C49.521 54.848 45.635 56.046 39.563 56.046 32.168 56.046 28.031 54.23 28 53L28 29.857C30.603 31.395 35.32 32 39.563 32 43.756 32 48.418 31.397 51 29.867L51 53.025C51.002 53.099 51.008 53.323 50.678 53.661L50.678 53.661ZM39.563 24C45.663 24 49.545 25.181 50.686 26.352 51.008 26.682 51.002 26.902 51 26.975L51 27C51 28.226 46.927 30 39.563 30 32.422 30 28.032 28.265 28.003 27.013 28.061 25.746 32.093 24 39.563 24L39.563 24ZM52.999 27C53.007 26.482 52.858 25.716 52.118 24.956 50.313 23.105 45.62 22 39.563 22 33.365 22 26.094 23.303 26 27L26 53.025C26.095 56.731 33.365 58.046 39.563 58.046 44.22 58.046 49.962 57.261 52.11 55.057 52.869 54.278 53.013 53.495 53 53L53 27.011 53 27.004 53 27 52.999 27Z" id="Amazon-Elastic-Block-Store_Icon_64_Squid" fill="#FFFFFF"/></g></svg>