<svg width="48" height="48" viewBox="0 0 48 48" xmlns="http://www.w3.org/2000/svg" xmlns:xlink="http://www.w3.org/1999/xlink" overflow="hidden"><g id="Icon-Resource/Storage/Res_AWS-Snowball_Snowball-Import-Export_48" stroke="none" stroke-width="1" fill="none" fill-rule="evenodd"><path d="M2.1262 26.4736 22.4362 26.4736 18.9202 30.0096 20.3382 31.4196 25.5502 26.1786C25.9382 25.7886 25.9382 25.1586 25.5502 24.7686L20.3382 19.5266 18.9202 20.9366 22.4372 24.4736 2.1262 24.4736 2.1262 26.4736ZM45.6092 24.7686 40.3972 19.5266 38.9802 20.9366 42.4962 24.4736 27.4622 24.4736 27.4622 26.4736 42.4952 26.4736 38.9802 30.0096 40.3972 31.4196 45.6092 26.1786C45.9972 25.7886 45.9972 25.1586 45.6092 24.7686L45.6092 24.7686ZM20.4732 12.4946 27.4622 12.4946 27.4622 10.4946 20.4732 10.4946 20.4732 12.4946ZM37.1982 30.7146 37.1982 28.0946 35.1982 28.0946 35.1982 29.7146 23.9682 29.7146 23.9682 31.7146 36.1982 31.7146C36.7512 31.7146 37.1982 31.2676 37.1982 30.7146L37.1982 30.7146ZM11.6102 28.0946 11.6102 30.7146C11.6102 31.2676 12.0582 31.7146 12.6102 31.7146L17.8522 31.7146 17.8522 29.7146 13.6102 29.7146 13.6102 28.0946 11.6102 28.0946ZM11.6102 19.3576 11.6102 22.8526 13.6102 22.8526 13.6102 20.3576 17.8522 20.3576 17.8522 18.3576 12.6102 18.3576C12.0582 18.3576 11.6102 18.8046 11.6102 19.3576L11.6102 19.3576ZM37.1982 22.8526 37.1982 19.3576C37.1982 18.8046 36.7512 18.3576 36.1982 18.3576L23.9682 18.3576 23.9682 20.3576 35.1982 20.3576 35.1982 22.8526 37.1982 22.8526ZM41.1082 6.9996 6.8262 6.9996C4.1652 6.9996 2.0002 9.2286 2.0002 11.9666L2.0002 22.8526 4.0002 22.8526 4.0002 11.9666C4.0002 10.3306 5.2682 8.9996 6.8262 8.9996L41.1082 8.9996C42.6672 8.9996 43.9362 10.3306 43.9362 11.9666L43.9362 21.7866 45.9362 21.7866 45.9362 11.9666C45.9362 9.2286 43.7712 6.9996 41.1082 6.9996L41.1082 6.9996ZM43.9362 36.3596C43.9362 37.9946 42.6672 39.3256 41.1082 39.3256L6.8262 39.3256C5.2682 39.3256 4.0002 37.9946 4.0002 36.3596L4.0002 28.0946 2.0002 28.0946 2.0002 36.3596C2.0002 39.0976 4.1652 41.3256 6.8262 41.3256L41.1082 41.3256C43.7712 41.3256 45.9362 39.0976 45.9362 36.3596L45.9362 29.1606 43.9362 29.1606 43.9362 36.3596ZM5.4942 28.0946 5.4942 34.9256C5.4942 36.5276 6.7942 37.8306 8.3912 37.8306L39.5452 37.8306C41.1422 37.8306 42.4402 36.5276 42.4402 34.9256L42.4402 32.4626 40.4402 32.4626 40.4402 34.9256C40.4402 35.4156 40.0302 35.8306 39.5452 35.8306L8.3912 35.8306C7.9042 35.8306 7.4942 35.4156 7.4942 34.9256L7.4942 28.0946 5.4942 28.0946ZM18.8902 13.9896 29.0452 13.9896 30.0112 11.1706C30.1492 10.7666 30.5292 10.4946 30.9572 10.4946L39.5452 10.4946C41.1422 10.4946 42.4402 11.7976 42.4402 13.3996L42.4402 18.4846 40.4402 18.4846 40.4402 13.3996C40.4402 12.9096 40.0302 12.4946 39.5452 12.4946L31.6722 12.4946 30.7062 15.3136C30.5672 15.7176 30.1882 15.9896 29.7602 15.9896L18.1752 15.9896C17.7472 15.9896 17.3672 15.7176 17.2292 15.3136L16.2642 12.4946 8.3912 12.4946C7.9042 12.4946 7.4942 12.9096 7.4942 13.3996L7.4942 22.8526 5.4942 22.8526 5.4942 13.3996C5.4942 11.7976 6.7942 10.4946 8.3912 10.4946L16.9792 10.4946C17.4062 10.4946 17.7862 10.7666 17.9252 11.1706L18.8902 13.9896Z" id="AWS-Snowball_Snowball-import-export_Resource-Icon_light-bg" fill="#7AA116"/></g></svg>