<svg width="48" height="48" viewBox="0 0 48 48" xmlns="http://www.w3.org/2000/svg" xmlns:xlink="http://www.w3.org/1999/xlink" overflow="hidden"><g id="Icon-Resource/Front-End-Web-Mobile/Res_Amazon-Location-Service_Geofence_48" stroke="none" stroke-width="1" fill="none" fill-rule="evenodd"><path d="M42.0827 24.0408 33.4677 24.4158 29.9577 12.7148C29.8167 12.2448 29.3517 11.9538 28.8707 12.0098L21.6217 12.9558 21.9567 5.92581 43.8957 4.09681 42.0827 24.0408ZM21.5247 14.9848 28.2857 14.1028 31.4067 24.5048 21.0507 24.9548 21.5247 14.9848ZM33.8487 32.6428 19.7287 43.9378 4.10173 41.1808 6.90373 16.8928 19.5107 15.2478 19.0007 25.9548C18.9867 26.2348 19.0927 26.5078 19.2907 26.7078 19.4787 26.8958 19.7337 27.0018 19.9997 27.0018 20.0147 27.0018 20.0287 27.0008 20.0427 27.0008L31.9997 26.4808 33.8487 32.6428ZM45.7097 2.29681C45.5017 2.08681 45.2087 1.97481 44.9167 2.00481L20.9167 4.00481C20.4167 4.04681 20.0247 4.45281 20.0007 4.95481L19.6067 13.2188 5.87073 15.0098C5.41473 15.0698 5.05973 15.4308 5.00673 15.8868L2.00673 41.8868C1.94573 42.4128 2.30573 42.8948 2.82573 42.9868L19.8257 45.9868C19.8837 45.9968 19.9417 46.0018 19.9997 46.0018 20.2257 46.0018 20.4457 45.9258 20.6247 45.7828L35.6247 33.7828C35.9427 33.5278 36.0747 33.1048 35.9577 32.7148L34.0607 26.3918 43.0427 26.0008C43.5437 25.9788 43.9497 25.5908 43.9957 25.0918L45.9957 3.09181C46.0217 2.79781 45.9177 2.50681 45.7097 2.29681L45.7097 2.29681Z" id="Fill-1" fill="#DD344C"/></g></svg>