<svg width="80" height="80" viewBox="0 0 80 80" xmlns="http://www.w3.org/2000/svg" xmlns:xlink="http://www.w3.org/1999/xlink" overflow="hidden"><g id="Icon-Architecture/64/Arch_AWS-Cost-Explorer_64" stroke="none" stroke-width="1" fill="none" fill-rule="evenodd"><g id="Icon-Architecture-BG/64/AWS-Cost-Management" fill="#7AA116"><rect x="0" y="0" width="80" height="80" id="Rectangle"/></g><path d="M50.406 55.813C47.425 55.813 45 53.388 45 50.406 45 47.425 47.425 45 50.406 45 53.387 45 55.812 47.425 55.812 50.406 55.812 53.388 53.387 55.813 50.406 55.813L50.406 55.813ZM50.406 43C46.322 43 43 46.322 43 50.406 43 54.49 46.322 57.813 50.406 57.813 54.49 57.813 57.812 54.49 57.812 50.406 57.812 46.322 54.49 43 50.406 43L50.406 43ZM65.707 64.114C65.284 64.582 64.554 64.62 64.087 64.199L58.102 58.8C58.665 58.284 59.176 57.713 59.626 57.094L65.621 62.494C66.09 62.918 66.128 63.646 65.707 64.114L65.707 64.114ZM41 50.406C41 45.22 45.219 41 50.406 41 55.593 41 59.812 45.22 59.812 50.406 59.812 55.593 55.593 59.813 50.406 59.813 45.219 59.813 41 55.593 41 50.406L41 50.406ZM66.961 61.009 60.672 55.345C61.395 53.848 61.812 52.177 61.812 50.406 61.812 44.117 56.695 39 50.406 39 44.117 39 39 44.117 39 50.406 39 56.696 44.117 61.813 50.406 61.813 52.643 61.813 54.725 61.156 56.488 60.039L62.749 65.686C63.349 66.225 64.101 66.49 64.851 66.49 65.713 66.49 66.572 66.14 67.193 65.452 68.349 64.164 68.246 62.171 66.961 61.009L66.961 61.009ZM19 40.888C20.116 40.641 21.103 39.982 21.826 39.105L27.408 43.092C27.146 43.687 27 44.333 27 45 27 47.323 28.778 49.396 31 49.888L31 64 19 64 19 40.888ZM15 36C15 34.454 16.458 32.991 18 32.991 19.542 32.991 21 34.454 21 36 21 37.542 19.542 39 18 39 16.458 39 15 37.542 15 36L15 36ZM32 42C33.542 42 35 43.458 35 45 35 46.542 33.542 48 32 48 30.458 48 29 46.542 29 45 29 43.458 30.458 42 32 42L32 42ZM46 23C47.542 23 49 24.458 49 26 49 27.542 47.542 29 46 29 44.458 29 43 27.542 43 26 43 24.458 44.458 23 46 23L46 23ZM61 17C62.542 17 64 18.458 64 20 64 21.542 62.542 23 61 23 59.458 23 58 21.542 58 20 58 18.458 59.458 17 61 17L61 17ZM33 49.888C35.221 49.396 37 47.323 37 45 37 43.999 36.67 43.044 36.116 42.243L44.635 30.769C44.758 30.807 44.875 30.86 45 30.888L45 37 47 37 47 30.888C49.221 30.396 51 28.323 51 26 51 25.866 50.968 25.737 50.957 25.605L56.654 22.349C57.364 23.605 58.582 24.574 60 24.888L60 40 62 40 62 24.888C64.221 24.396 66 22.323 66 20 66 17.677 64.221 15.605 62 15.112L62 13 60 13 60 15.112C57.778 15.605 56 17.677 56 20 56 20.134 56.031 20.263 56.043 20.396L50.345 23.651C49.635 22.395 48.418 21.426 47 21.112L47 13 45 13 45 21.112C42.778 21.605 41 23.677 41 26 41 27.494 41.749 28.867 42.864 29.801L34.671 40.834C34.162 40.498 33.599 40.245 33 40.112L33 13 31 13 31 40.112C30.076 40.317 29.231 40.798 28.556 41.455L22.781 37.329C22.909 36.9 23 36.459 23 36 23 33.672 21.221 31.597 19 31.104L19 13 17 13 17 31.104C14.778 31.597 13 33.672 13 36 13 38.323 14.778 40.396 17 40.888L17 66 52 66 52 64 33 64 33 49.888Z" id="AWS-Cost-Explorer_Icon_64_Squid" fill="#FFFFFF"/></g></svg>