<svg width="80" height="80" viewBox="0 0 80 80" xmlns="http://www.w3.org/2000/svg" xmlns:xlink="http://www.w3.org/1999/xlink" overflow="hidden"><g id="Icon-Architecture/64/Arch_Amazon-EC2_64" stroke="none" stroke-width="1" fill="none" fill-rule="evenodd"><g id="Icon-Architecture-BG/64/Compute" fill="#ED7100"><rect x="0" y="0" width="80" height="80" id="Rectangle"/></g><path d="M27 53 52 53 52 28 27 28 27 53ZM54 28 58 28 58 30 54 30 54 34 58 34 58 36 54 36 54 39 58 39 58 41 54 41 54 45 58 45 58 47 54 47 54 51 58 51 58 53 54 53 54 53.136C54 54.164 53.164 55 52.136 55L52 55 52 59 50 59 50 55 46 55 46 59 44 59 44 55 41 55 41 59 39 59 39 55 35 55 35 59 33 59 33 55 29 55 29 59 27 59 27 55 26.864 55C25.836 55 25 54.164 25 53.136L25 53 22 53 22 51 25 51 25 47 22 47 22 45 25 45 25 41 22 41 22 39 25 39 25 36 22 36 22 34 25 34 25 30 22 30 22 28 25 28 25 27.864C25 26.836 25.836 26 26.864 26L27 26 27 22 29 22 29 26 33 26 33 22 35 22 35 26 39 26 39 22 41 22 41 26 44 26 44 22 46 22 46 26 50 26 50 22 52 22 52 26 52.136 26C53.164 26 54 26.836 54 27.864L54 28ZM41 65.876C41 65.944 40.944 66 40.876 66L14.124 66C14.056 66 14 65.944 14 65.876L14 39.124C14 39.056 14.056 39 14.124 39L20 39 20 37 14.124 37C12.953 37 12 37.953 12 39.124L12 65.876C12 67.047 12.953 68 14.124 68L40.876 68C42.047 68 43 67.047 43 65.876L43 61 41 61 41 65.876ZM68 14.124 68 40.876C68 42.047 67.047 43 65.876 43L60 43 60 41 65.876 41C65.944 41 66 40.944 66 40.876L66 14.124C66 14.056 65.944 14 65.876 14L39.124 14C39.056 14 39 14.056 39 14.124L39 20 37 20 37 14.124C37 12.953 37.953 12 39.124 12L65.876 12C67.047 12 68 12.953 68 14.124L68 14.124Z" id="Amazon-EC2_Icon_64_Squid" fill="#FFFFFF"/></g></svg>