<svg width="48" height="48" viewBox="0 0 48 48" xmlns="http://www.w3.org/2000/svg" xmlns:xlink="http://www.w3.org/1999/xlink" overflow="hidden"><g id="Icon-Resource/Application-Integration/Res_Amazon-Simple-Notification-Service_Topic_48" stroke="none" stroke-width="1" fill="none" fill-rule="evenodd"><path d="M44 38.5 46 38.5 46 36.5 44 36.5 44 38.5ZM46 33 46 34.5 44 34.5 44 34 43.5 34 43.5 32 45 32C45.553 32 46 32.447 46 33L46 33ZM13.5 34 16.5 34 16.5 32 13.5 32 13.5 34ZM37.5 34 40.5 34 40.5 32 37.5 32 37.5 34ZM19.5 34 22.5 34 22.5 32 19.5 32 19.5 34ZM7.5 34 10.5 34 10.5 32 7.5 32 7.5 34ZM31.5 34 34.5 34 34.5 32 31.5 32 31.5 34ZM25.5 34 28.5 34 28.5 32 25.5 32 25.5 34ZM3 32 4.5 32 4.5 34 4 34 4 34.5 2 34.5 2 33C2 32.447 2.447 32 3 32L3 32ZM2 38.5 4 38.5 4 36.5 2 36.5 2 38.5ZM4 41 4.5 41 4.5 43 3 43C2.447 43 2 42.553 2 42L2 40.5 4 40.5 4 41ZM19.5 43 22.5 43 22.5 41 19.5 41 19.5 43ZM31.5 43 34.5 43 34.5 41 31.5 41 31.5 43ZM37.5 43 40.5 43 40.5 41 37.5 41 37.5 43ZM7.5 43 10.5 43 10.5 41 7.5 41 7.5 43ZM25.5 43 28.5 43 28.5 41 25.5 41 25.5 43ZM13.5 43 16.5 43 16.5 41 13.5 41 13.5 43ZM44 40.5 46 40.5 46 42C46 42.553 45.553 43 45 43L43.5 43 43.5 41 44 41 44 40.5ZM44 25.5 46 25.5 46 23.5 44 23.5 44 25.5ZM46 20 46 21.5 44 21.5 44 21 43.5 21 43.5 19 45 19C45.553 19 46 19.447 46 20L46 20ZM31.5 21 34.5 21 34.5 19 31.5 19 31.5 21ZM7.5 21 10.5 21 10.5 19 7.5 19 7.5 21ZM37.5 21 40.5 21 40.5 19 37.5 19 37.5 21ZM13.5 21 16.5 21 16.5 19 13.5 19 13.5 21ZM19.5 21 22.5 21 22.5 19 19.5 19 19.5 21ZM25.5 21 28.5 21 28.5 19 25.5 19 25.5 21ZM3 19 4.5 19 4.5 21 4 21 4 21.5 2 21.5 2 20C2 19.447 2.447 19 3 19L3 19ZM2 25.5 4 25.5 4 23.5 2 23.5 2 25.5ZM4 28 4.5 28 4.5 30 3 30C2.447 30 2 29.553 2 29L2 27.5 4 27.5 4 28ZM19.5 30 22.5 30 22.5 28 19.5 28 19.5 30ZM31.5 30 34.5 30 34.5 28 31.5 28 31.5 30ZM7.5 30 10.5 30 10.5 28 7.5 28 7.5 30ZM13.5 30 16.5 30 16.5 28 13.5 28 13.5 30ZM37.5 30 40.5 30 40.5 28 37.5 28 37.5 30ZM25.5 30 28.5 30 28.5 28 25.5 28 25.5 30ZM44 27.5 46 27.5 46 29C46 29.553 45.553 30 45 30L43.5 30 43.5 28 44 28 44 27.5ZM4 15 44 15 44 7 4 7 4 15ZM45 5 3 5C2.447 5 2 5.447 2 6L2 16C2 16.553 2.447 17 3 17L45 17C45.553 17 46 16.553 46 16L46 6C46 5.447 45.553 5 45 5L45 5Z" id="Amazon-Simple-Notification-Service_Topic_Resource-Icon_light-bg" fill="#E7157B"/></g></svg>