<svg width="80" height="80" viewBox="0 0 80 80" xmlns="http://www.w3.org/2000/svg" xmlns:xlink="http://www.w3.org/1999/xlink" overflow="hidden"><g id="Icon-Architecture/64/Arch_AWS-Storage-Gateway_64" stroke="none" stroke-width="1" fill="none" fill-rule="evenodd"><g id="Icon-Architecture-BG/64/Storage" fill="#7AA116"><rect x="0" y="0" width="80" height="80" id="Rectangle"/></g><path d="M55.0232 36.4889C51.202 33.6662 45.6479 31.9918 40.0499 31.9918 33.8101 31.9918 28.6453 33.5342 25.0766 36.4579L25.0766 65.9995 29.0695 65.9995 29.0695 38.9934C29.0695 38.6383 29.2572 38.3103 29.5626 38.1302 32.3786 36.4769 35.2994 34.9925 40.0499 34.9925 44.466 34.9925 47.6843 36.6559 50.2707 37.9912L50.4893 38.1042C50.8217 38.2753 51.0303 38.6183 51.0303 38.9934L51.0303 65.9995 55.0232 65.9995 55.0232 36.4889ZM56.6363 35.2046C56.8779 35.3946 57.0196 35.6847 57.0196 35.9927L57.0196 66.9998C57.0196 67.5519 56.5734 68 56.0214 68L50.0321 68C49.4801 68 49.0339 67.5519 49.0339 66.9998L49.0339 39.6036C46.5932 38.3453 43.8142 36.993 40.0499 36.993 36.057 36.993 33.5625 38.1342 31.066 39.5696L31.066 66.9998C31.066 67.5519 30.6198 68 30.0677 68L24.0784 68C23.5264 68 23.0802 67.5519 23.0802 66.9998L23.0802 35.9927C23.0802 35.7027 23.206 35.4266 23.4246 35.2376 27.3696 31.8048 33.1193 29.9914 40.0499 29.9914 46.2688 29.9914 52.4697 31.9408 56.6363 35.2046L56.6363 35.2046ZM68 37.179C68 42.8603 64.9295 46.3451 59.3524 46.9892L59.1239 45.0008C63.7536 44.4667 66.0036 41.9071 66.0036 37.179 66.0036 32.634 63.3234 29.7823 58.0388 28.7051 57.5956 28.6141 57.2692 28.238 57.2412 27.7869 56.9837 23.6219 54.5211 21.7575 52.1962 21.7575 50.7239 21.7575 49.3473 22.4517 48.42 23.663 48.1994 23.952 47.844 24.1011 47.4767 24.042 47.1173 23.987 46.8158 23.74 46.6901 23.3969 45.8845 21.1884 44.6617 19.254 43.1564 17.8046 41.2717 15.9852 36.104 12.0803 28.81 15.052 24.6105 16.7684 21.3204 21.6905 21.3204 26.2575 21.3204 26.7697 21.3513 27.2638 21.4142 27.7659 21.4182 27.8019 21.4212 27.8389 21.4222 27.8759L21.4222 27.8779 21.4222 27.8799 21.4222 27.8809 21.4222 27.8829 21.4222 27.8839 21.4222 27.8859 21.4222 27.8869 21.4222 27.8869 21.4222 27.8889 21.4222 27.8889 21.4222 27.8909 21.4222 27.8909 21.4222 27.8929C21.4222 28.397 21.0508 28.8181 20.5667 28.8881 18.0682 29.5293 13.9964 31.4407 13.9964 37.09 13.9964 37.307 14.0074 37.5131 14.0184 37.7201 14.228 41.466 17.1268 44.3947 21.2295 45.0058L20.938 46.9842C15.8711 46.2301 12.2885 42.5512 12.025 37.8292 12.011 37.5841 12 37.3431 12 37.09 12 30.4785 16.6307 28.0269 19.3529 27.1577 19.3339 26.8607 19.3239 26.5616 19.3239 26.2575 19.3239 20.8473 23.0782 15.234 28.0563 13.1996 33.8739 10.831 40.0339 12.0133 44.5399 16.3623 45.9234 17.6936 47.0933 19.371 47.9718 21.2704 49.1646 20.2962 50.641 19.7571 52.1962 19.7571 55.3007 19.7571 58.5708 21.9756 59.1648 26.9077 64.8706 28.302 68 31.9278 68 37.179L68 37.179Z" id="AWS-Storage-Gateway_Icon_64_Squid" fill="#FFFFFF"/></g></svg>