<svg width="48" height="48" viewBox="0 0 48 48" xmlns="http://www.w3.org/2000/svg" xmlns:xlink="http://www.w3.org/1999/xlink" overflow="hidden"><g id="Icon-Resource/IoT/Res_AWS-IoT-Device-Management_Fleet-Hub_48" stroke="none" stroke-width="1" fill="none" fill-rule="evenodd"><path d="M29.0596 44C28.0526 44 26.9436 43.717 25.7026 43.15 27.4366 41.665 29.0596 39.417 29.8436 37.339 31.3666 36.773 32.4596 35.317 32.4596 33.6 32.4596 33.258 32.4036 32.932 32.3226 32.615 33.6506 31 34.4866 29.059 34.7556 26.99 36.9886 28.748 38.3366 31.458 38.3366 34.338 38.3366 39.576 34.0886 44 29.0596 44L29.0596 44ZM9.6606 34.338C9.6606 31.428 10.7246 28.94 12.6036 27.258 12.9086 29.216 13.7306 31.057 15.0006 32.607 14.9176 32.926 14.8606 33.255 14.8606 33.6 14.8606 35.319 15.9556 36.775 17.4806 37.34 18.2556 39.325 20.0076 41.602 21.8826 43.14 20.7496 43.621 19.4396 44 18.2596 44 13.3576 44 9.6606 39.846 9.6606 34.338L9.6606 34.338ZM23.6646 16C27.9846 16 31.7666 19.342 32.6586 23.606 30.8886 23.002 28.9736 22.847 27.0856 23.166 26.3876 21.995 25.1206 21.2 23.6606 21.2 22.2206 21.2 20.9666 21.972 20.2626 23.116 18.3476 22.842 16.4166 23.063 14.6426 23.73 15.4916 19.402 19.3026 16 23.6646 16L23.6646 16ZM31.2396 30.734C30.6336 30.146 29.8406 29.762 28.9606 29.651 28.5206 28.682 27.9386 27.774 27.2366 26.955 27.4996 26.423 27.6606 25.833 27.6606 25.2 27.6606 25.164 27.6506 25.131 27.6496 25.095 29.4386 24.837 31.2386 25.097 32.8466 25.826 32.7916 27.601 32.2326 29.295 31.2396 30.734L31.2396 30.734ZM28.4596 35.6C27.3576 35.6 26.4596 34.703 26.4596 33.6 26.4596 32.497 27.3576 31.6 28.4596 31.6 29.5626 31.6 30.4596 32.497 30.4596 33.6 30.4596 34.703 29.5626 35.6 28.4596 35.6L28.4596 35.6ZM18.8606 31.6C19.9626 31.6 20.8606 32.497 20.8606 33.6 20.8606 34.703 19.9626 35.6 18.8606 35.6 17.7576 35.6 16.8606 34.703 16.8606 33.6 16.8606 32.497 17.7576 31.6 18.8606 31.6L18.8606 31.6ZM20.2086 27.185C19.5996 27.934 19.0866 28.751 18.6896 29.617 17.6806 29.661 16.7676 30.071 16.0866 30.729 15.1196 29.326 14.5636 27.689 14.4806 25.979 16.0746 25.185 17.8726 24.857 19.6746 25.057 19.6726 25.105 19.6606 25.151 19.6606 25.2 19.6606 25.926 19.8696 26.598 20.2086 27.185L20.2086 27.185ZM23.6606 27.2C22.5576 27.2 21.6606 26.303 21.6606 25.2 21.6606 24.097 22.5576 23.2 23.6606 23.2 24.7626 23.2 25.6606 24.097 25.6606 25.2 25.6606 26.303 24.7626 27.2 23.6606 27.2L23.6606 27.2ZM24.4596 33.6C24.4596 34.043 24.5496 34.462 24.6826 34.861 24.0106 34.923 23.3196 34.914 22.6476 34.828 22.7746 34.439 22.8606 34.031 22.8606 33.6 22.8606 32.058 21.9746 30.733 20.6926 30.065 20.9546 29.558 21.2616 29.075 21.6146 28.619 22.2146 28.98 22.9096 29.2 23.6606 29.2 24.4986 29.2 25.2756 28.939 25.9186 28.497 26.2816 28.948 26.6046 29.426 26.8756 29.931 25.4566 30.546 24.4596 31.958 24.4596 33.6L24.4596 33.6ZM23.8146 42.098C22.2746 41.036 20.6566 39.183 19.7496 37.492 20.3806 37.348 20.9466 37.048 21.4256 36.643 22.1986 36.817 23.0016 36.911 23.8206 36.911 24.5526 36.911 25.2616 36.826 25.9486 36.688 26.4246 37.076 26.9806 37.365 27.5986 37.501 26.7276 39.271 25.2486 41.081 23.8146 42.098L23.8146 42.098ZM34.8126 24.612C34.3436 18.698 29.4926 14 23.6646 14 17.7656 14 12.8656 18.808 12.4946 24.833 9.4656 26.824 7.6606 30.321 7.6606 34.338 7.6606 40.877 12.3166 46 18.2596 46 20.5106 46 22.7216 45.01 23.8146 44.438 25.7446 45.484 27.4676 46 29.0596 46 35.1726 46 40.3366 40.66 40.3366 34.338 40.3366 30.362 38.2206 26.656 34.8126 24.612L34.8126 24.612ZM13.9986 8.001 15.9976 8.001 15.9976 6.001 13.9986 6.001 13.9986 8.001ZM9.9996 8.001 11.9976 8.001 11.9976 6.001 9.9996 6.001 9.9996 8.001ZM6.0006 8.001 7.9986 8.001 7.9986 6.001 6.0006 6.001 6.0006 8.001ZM3.9996 10.001 43.9996 10.001 43.9996 4 3.9996 4 3.9996 10.001ZM44.9996 2 2.9996 2C2.4476 2 1.9996 2.448 1.9996 3L1.9996 34C1.9996 34.552 2.4476 35 2.9996 35L5.9996 35 5.9996 33 3.9996 33 3.9996 12.001 43.9996 12.001 43.9996 33 41.9996 33 41.9996 35 44.9996 35C45.5526 35 45.9996 34.552 45.9996 34L45.9996 3C45.9996 2.448 45.5526 2 44.9996 2L44.9996 2Z" id="Fill-1" fill="#7AA116"/></g></svg>