<svg width="80" height="80" viewBox="0 0 80 80" xmlns="http://www.w3.org/2000/svg" xmlns:xlink="http://www.w3.org/1999/xlink" overflow="hidden"><g id="Icon-Architecture/64/Arch_AWS-Cloud-WAN_64" stroke="none" stroke-width="1" fill="none" fill-rule="evenodd"><g id="Icon-Architecture-BG/64/Networking-Content-Delivery" fill="#8C4FFF"><rect x="0" y="0" width="80" height="80" id="Rectangle"/></g><path d="M66 40C66 37.794 64.206 36 62 36 59.794 36 58 37.794 58 40 58 42.206 59.794 44 62 44 64.206 44 66 42.206 66 40L66 40ZM55.663 39C55.485 36.19 54.578 33.577 53.11 31.357 51.733 32.086 50.124 32.684 48.359 33.139 48.737 34.95 48.959 36.924 49.016 39L55.663 39ZM55.663 41 49.016 41C48.964 42.924 48.764 44.755 48.434 46.454 50.252 46.929 51.908 47.552 53.308 48.317 54.656 46.169 55.493 43.676 55.663 41L55.663 41ZM52.138 49.967C50.936 49.334 49.535 48.808 47.992 48.4 47.275 51.062 46.221 53.293 44.936 54.909 47.782 53.964 50.273 52.235 52.138 49.967L52.138 49.967ZM44 62C44 59.794 42.206 58 40 58 37.794 58 36 59.794 36 62 36 64.206 37.794 66 40 66 42.206 66 44 64.206 44 62L44 62ZM35.064 54.909C33.779 53.293 32.725 51.062 32.008 48.399 30.464 48.806 29.063 49.332 27.86 49.965 29.726 52.234 32.218 53.963 35.064 54.909L35.064 54.909ZM31.566 46.454C31.236 44.754 31.036 42.923 30.984 41L24.337 41C24.506 43.676 25.344 46.167 26.691 48.316 28.091 47.551 29.748 46.928 31.566 46.454L31.566 46.454ZM24.337 39 30.984 39C31.041 36.924 31.263 34.95 31.641 33.139 29.876 32.684 28.267 32.086 26.89 31.357 25.422 33.577 24.515 36.19 24.337 39L24.337 39ZM28.124 29.74C29.298 30.329 30.645 30.821 32.123 31.203 32.835 28.717 33.844 26.625 35.064 25.091 32.346 25.994 29.959 27.619 28.124 29.74L28.124 29.74ZM36 18C36 20.206 37.794 22 40 22 42.206 22 44 20.206 44 18 44 15.794 42.206 14 40 14 37.794 14 36 15.794 36 18L36 18ZM40 32.162C42.057 32.162 44.053 31.973 45.916 31.633 44.65 27.258 42.449 24.286 40 24.286 37.551 24.286 35.35 27.258 34.084 31.633 35.947 31.973 37.943 32.162 40 32.162L40 32.162ZM47.018 39C46.96 37.087 46.744 35.257 46.395 33.574 44.375 33.951 42.216 34.162 40 34.162 37.784 34.162 35.625 33.951 33.605 33.574 33.256 35.257 33.04 37.087 32.982 39L47.018 39ZM39.998 47.413C37.901 47.413 35.867 47.609 33.973 47.962 35.218 52.557 37.476 55.714 40 55.714 42.524 55.714 44.782 52.558 46.027 47.963 44.132 47.61 42.097 47.413 39.998 47.413L39.998 47.413ZM46.483 46.017C46.784 44.45 46.965 42.757 47.018 41L32.982 41C33.035 42.757 33.216 44.449 33.517 46.017 35.562 45.629 37.75 45.413 39.998 45.413 42.248 45.413 44.438 45.629 46.483 46.017L46.483 46.017ZM44.936 25.091C46.156 26.625 47.165 28.717 47.877 31.204 49.355 30.821 50.702 30.329 51.876 29.74 50.041 27.619 47.654 25.994 44.936 25.091L44.936 25.091ZM22 40C22 37.794 20.206 36 18 36 15.794 36 14 37.794 14 40 14 42.206 15.794 44 18 44 20.206 44 22 42.206 22 40L22 40ZM68 40C68 43.309 65.309 46 62 46 60.102 46 58.411 45.112 57.31 43.732 55.851 50.508 50.508 55.851 43.733 57.311 45.112 58.411 46 60.102 46 62 46 65.309 43.309 68 40 68 36.691 68 34 65.309 34 62 34 60.102 34.888 58.411 36.267 57.311 29.492 55.851 24.149 50.508 22.69 43.732 21.589 45.112 19.898 46 18 46 14.691 46 12 43.309 12 40 12 36.691 14.691 34 18 34 19.898 34 21.589 34.888 22.69 36.268 24.149 29.492 29.492 24.149 36.267 22.689 34.888 21.589 34 19.898 34 18 34 14.691 36.691 12 40 12 43.309 12 46 14.691 46 18 46 19.898 45.112 21.589 43.733 22.689 50.508 24.149 55.851 29.492 57.31 36.268 58.411 34.888 60.102 34 62 34 65.309 34 68 36.691 68 40L68 40ZM60.496 48.359C58.249 53.848 53.849 58.248 48.359 60.496 48.447 60.985 48.5 61.486 48.5 62 48.5 62.205 48.484 62.406 48.469 62.607 54.973 60.162 60.162 54.972 62.607 48.469 62.406 48.484 62.205 48.5 62 48.5 61.486 48.5 60.985 48.447 60.496 48.359L60.496 48.359ZM31.641 60.496C26.151 58.248 21.751 53.848 19.504 48.359 19.015 48.447 18.514 48.5 18 48.5 17.795 48.5 17.594 48.484 17.393 48.469 19.838 54.972 25.027 60.162 31.531 62.607 31.516 62.406 31.5 62.205 31.5 62 31.5 61.486 31.553 60.985 31.641 60.496L31.641 60.496ZM19.504 31.641C21.751 26.152 26.151 21.752 31.641 19.504 31.553 19.015 31.5 18.514 31.5 18 31.5 17.795 31.516 17.594 31.531 17.393 25.027 19.838 19.838 25.028 17.393 31.531 17.594 31.516 17.795 31.5 18 31.5 18.514 31.5 19.015 31.553 19.504 31.641L19.504 31.641ZM48.5 18C48.5 17.795 48.484 17.594 48.469 17.393 54.973 19.838 60.162 25.028 62.607 31.531 62.406 31.516 62.205 31.5 62 31.5 61.486 31.5 60.985 31.553 60.496 31.641 58.249 26.152 53.849 21.752 48.359 19.504 48.447 19.015 48.5 18.514 48.5 18L48.5 18Z" id="Fill-1" fill="#FFFFFF"/></g></svg>