<svg width="48" height="48" viewBox="0 0 48 48" xmlns="http://www.w3.org/2000/svg" xmlns:xlink="http://www.w3.org/1999/xlink" overflow="hidden"><g id="Icon-Resource/Storage/Res_Amazon-Simple-Storage-Service_S3-Object-Lock_48" stroke="none" stroke-width="1" fill="none" fill-rule="evenodd"><path d="M37.5 39.5C37.5 39.943 37.305 40.336 37 40.611L37 42 35 42 35 40.611C34.695 40.336 34.5 39.943 34.5 39.5 34.5 38.672 35.172 38 36 38 36.828 38 37.5 38.672 37.5 39.5L37.5 39.5ZM25.194 28.307C25.194 29.685 26.315 30.807 27.694 30.807L27.694 32.807C25.213 32.807 23.194 30.788 23.194 28.307 23.194 25.825 25.213 23.807 27.694 23.807 28.989 23.807 30.223 24.366 31.078 25.34L29.574 26.66C29.099 26.118 28.414 25.807 27.694 25.807 26.315 25.807 25.194 26.928 25.194 28.307L25.194 28.307ZM21.416 4C30.229 4 36.696 6.83 36.832 8.347L36.812 8.501C36.796 8.554 36.763 8.608 36.732 8.663 36.71 8.703 36.695 8.742 36.665 8.783 36.622 8.84 36.562 8.899 36.505 8.957 36.466 8.997 36.435 9.036 36.389 9.076 36.334 9.124 36.262 9.173 36.198 9.221 36.124 9.276 36.058 9.331 35.972 9.386 35.952 9.399 35.926 9.412 35.905 9.425 33.855 10.698 28.568 12 21.416 12 14.243 12 8.945 10.69 6.91 9.414 6.896 9.405 6.878 9.396 6.864 9.387 6.772 9.328 6.701 9.27 6.623 9.211 6.564 9.167 6.498 9.122 6.447 9.078 6.398 9.034 6.364 8.992 6.322 8.949 6.269 8.894 6.211 8.838 6.171 8.784 6.139 8.741 6.123 8.7 6.1 8.657 6.071 8.605 6.038 8.552 6.023 8.501L6.002 8.346C6.141 6.829 12.606 4 21.416 4L21.416 4ZM39.127 22.281C39.157 22.366 39.163 22.438 39.105 22.553 39.094 22.577 39.03 22.619 38.919 22.656 38.469 22.805 37.78 22.789 36.925 22.649L37.188 20.701C38.012 21.144 38.939 21.738 39.127 22.281L39.127 22.281ZM21.416 38.659C14.107 38.659 9.853 36.822 9.726 36.074 9.726 36.03 9.723 35.985 9.717 35.941L6.415 11.417C9.658 13.184 15.682 14.096 21.416 14.096 27.151 14.096 33.176 13.184 36.42 11.417L34.967 22.201C31.722 21.299 27.36 19.465 23.985 17.856 23.91 16.821 23.053 16 22 16 20.897 16 20 16.897 20 18 20 19.103 20.897 20 22 20 22.413 20 22.797 19.874 23.116 19.659 25.798 20.944 30.722 23.163 34.7 24.188L34.474 25.867 36.456 26.133 36.663 24.597C37.209 24.681 37.731 24.738 38.192 24.738 38.711 24.738 39.17 24.68 39.55 24.554 40.334 24.293 40.714 23.808 40.895 23.447 41.187 22.863 41.229 22.232 41.016 21.623 40.523 20.209 38.748 19.216 37.471 18.597L38.781 8.866C38.781 8.865 38.781 8.864 38.781 8.863 38.781 8.862 38.781 8.862 38.781 8.862L38.825 8.524C38.831 8.481 38.834 8.438 38.834 8.395 38.834 4.626 29.654 2 21.416 2 13.179 2 4 4.626 4 8.395 4 8.439 4.003 8.483 4.009 8.527L4.054 8.865C4.054 8.865 4.054 8.865 4.054 8.865 4.054 8.865 4.054 8.866 4.054 8.866L7.728 36.152C7.853 39.457 15.955 40.659 21.416 40.659 22.647 40.659 23.883 40.605 25.089 40.498L24.911 38.505C23.765 38.607 22.589 38.659 21.416 38.659L21.416 38.659ZM12.724 24 15 20.016 17.276 24 12.724 24ZM19.865 25.502C20.044 25.194 20.045 24.813 19.868 24.504L15.868 17.504C15.513 16.881 14.487 16.881 14.132 17.504L10.132 24.504C9.955 24.813 9.956 25.194 10.135 25.502 10.314 25.81 10.644 26 11 26L19 26C19.356 26 19.686 25.81 19.865 25.502L19.865 25.502ZM15 34 19 34 19 30 15 30 15 34ZM14 36 20 36C20.553 36 21 35.552 21 35L21 29C21 28.448 20.553 28 20 28L14 28C13.447 28 13 28.448 13 29L13 35C13 35.552 13.447 36 14 36L14 36ZM42 44 30 44 30 36 32 36 40 36 42 36 42 44ZM33 32C33 30.897 33.897 30 35 30L37 30C38.103 30 39 30.897 39 32L39 34 33 34 33 32ZM43 34 41 34 41 32C41 29.794 39.206 28 37 28L35 28C32.794 28 31 29.794 31 32L31 34 29 34C28.447 34 28 34.448 28 35L28 45C28 45.552 28.447 46 29 46L43 46C43.553 46 44 45.552 44 45L44 35C44 34.448 43.553 34 43 34L43 34Z" id="Fill-1" fill="#7AA116"/></g></svg>