<svg width="48" height="48" viewBox="0 0 48 48" xmlns="http://www.w3.org/2000/svg" xmlns:xlink="http://www.w3.org/1999/xlink" overflow="hidden"><g id="Icon-Resource/IoT/Res_AWS-IoT-Greengrass_Recipe_48" stroke="none" stroke-width="1" fill="none" fill-rule="evenodd"><path d="M38 13.106 37.895 13 28 13C27.447 13 27 12.552 27 12L27 4 11.075 4C11.034 4 11 4.034 11 4.075L11 43.925C11 43.966 11.034 44 11.075 44L37.925 44C37.966 44 38 43.966 38 43.925L38 13.106ZM29 4.082 29 11 35.899 11 29 4.082ZM40 12.692 40 43.925C40 45.069 39.069 46 37.925 46L11.075 46C9.931 46 9 45.069 9 43.925L9 4.075C9 2.931 9.931 2 11.075 2L29.333 2C29.599 2 29.854 2.106 30.041 2.294L39.708 11.986C39.895 12.174 40 12.428 40 12.692L40 12.692ZM23 37 34 37 34 35 23 35 23 37ZM23 29 34 29 34 27 23 27 23 29ZM15 37 19 37 19 35 15 35 15 37ZM15 29 19 29 19 27 15 27 15 29ZM15 21 19 21 19 19 15 19 15 21ZM23 21 34 21 34 19 23 19 23 21Z" id="Fill-1" fill="#7AA116"/></g></svg>