<svg width="48" height="48" viewBox="0 0 48 48" xmlns="http://www.w3.org/2000/svg" xmlns:xlink="http://www.w3.org/1999/xlink" overflow="hidden"><g id="Icon-Resource/Storage/Res_AWS-Storage-Gateway_File-Gateway_48" stroke="none" stroke-width="1" fill="none" fill-rule="evenodd"><path d="M19.8711 4C14.1281 4 10.5851 5.666 7.0001 7.736L7.0001 46 5.0001 46 5.0001 7.161C5.0001 6.806 5.1881 6.478 5.4941 6.298 9.3611 4.033 13.3701 2 19.8711 2 25.9131 2 30.3391 4.281 33.8951 6.115L34.2001 6.272C34.5331 6.443 34.7421 6.786 34.7421 7.161L34.7421 24.5 32.7421 24.5 32.7421 7.771C29.2611 5.978 25.3041 4 19.8711 4L19.8711 4ZM41.7991 44.1 16.2941 44.1 16.2941 26.521 22.6191 26.521 23.4751 28.294C23.6421 28.639 23.9921 28.858 24.3761 28.858L41.7991 28.858 41.7991 44.1ZM42.7991 26.858 25.0031 26.858 24.1461 25.086C23.9791 24.741 23.6301 24.521 23.2461 24.521L15.2941 24.521C14.7411 24.521 14.2941 24.969 14.2941 25.521L14.2941 45.1C14.2941 45.652 14.7411 46.1 15.2941 46.1L42.7991 46.1C43.3511 46.1 43.7991 45.652 43.7991 45.1L43.7991 27.858C43.7991 27.306 43.3511 26.858 42.7991 26.858L42.7991 26.858Z" id="AWS-Storage-Gateway_File-Gateway_Resource-Icon_light-bg" fill="#7AA116"/></g></svg>