<svg width="80" height="80" viewBox="0 0 80 80" xmlns="http://www.w3.org/2000/svg" xmlns:xlink="http://www.w3.org/1999/xlink" overflow="hidden"><g id="Icon-Architecture/64/Arch_Amazon-WorkDocs_64" stroke="none" stroke-width="1" fill="none" fill-rule="evenodd"><g id="Icon-Architecture-BG/64/Business-Applications" fill="#DD344C"><rect x="0" y="0" width="80" height="80" id="Rectangle"/></g><g id="Icon-Service/64/Amazon-WorkDocs" fill="#FFFFFF" transform="translate(12 12)"><path d="M21 29 24 29 24 27 21 27 21 29ZM27 49 29 49 29 46 27 46 27 49ZM27 44 29 44 29 41 27 41 27 44ZM27 34 29 34 29 31 27 31 27 34ZM27 39 29 39 29 36 27 36 27 39ZM16 29 19 29 19 27 16 27 16 29ZM11 29 14 29 14 27 11 27 11 29ZM6 29 9 29 9 27 6 27 6 29ZM29 54 29 51 27 51 27 54 2 54 2 29 4 29 4 27 2 27 2 2 27 2 27 27 26 27 26 29 28 29 29 29 54 29 54 54 29 54ZM29 3.414 52.586 27 29 27 29 3.414ZM56 28C56 27.74 55.898 27.484 55.707 27.293L28.707 0.293C28.515 0.102 28.26 0 28 0L1 0C0.447 0 0 0.448 0 1L0 55C0 55.552 0.447 56 1 56L55 56C55.552 56 56 55.552 56 55L56 28Z" id="Amazon-WorkDocs_Icon_64_Squid"/></g></g></svg>