<svg width="80" height="80" viewBox="0 0 80 80" xmlns="http://www.w3.org/2000/svg" xmlns:xlink="http://www.w3.org/1999/xlink" overflow="hidden"><g id="Icon-Architecture/64/Arch_AWS-Elemental-Link_64" stroke="none" stroke-width="1" fill="none" fill-rule="evenodd"><g id="Icon-Architecture-BG/64/Media-Services" fill="#ED7100"><rect x="0" y="0" width="80" height="80" id="Rectangle"/></g><g id="Icon-Service/64/AWS-Elemental-Link_64" fill="#FFFFFF" transform="translate(15.0005 12)"><path d="M19.396 5.39025 18.396 3.65825 24.5 0.13425C24.808-0.04475 25.191-0.04475 25.5 0.13425L31.603 3.65825 30.603 5.39025 25 2.15525 19.396 5.39025ZM31 44.7513 25 48.2152 19 44.7513 19 37.8232 25 34.3592 31 37.8232 31 44.7513ZM33 37.2463C33 36.8893 32.809 36.5583 32.5 36.3802L25.5 32.3382C25.191 32.1603 24.808 32.1603 24.5 32.3382L17.5 36.3802C17.19 36.5583 17 36.8893 17 37.2463L17 40.5003 1 40.5003 1 42.5003 17 42.5003 17 45.3283C17 45.6862 17.19 46.0163 17.5 46.1953L24 49.9482 24 55.5003 26 55.5003 26 49.9482 32.5 46.1953C32.809 46.0163 33 45.6862 33 45.3283L33 42.5003 49 42.5003 49 40.5003 33 40.5003 33 37.2463ZM38 24.5002 44 24.5002 44 22.5002 38 22.5002 38 24.5002ZM38 19.5002 44 19.5002 44 17.5002 38 17.5002 38 19.5002ZM38 14.5002 44 14.5002 44 12.5002 38 12.5002 38 14.5002ZM7 14.5002 23 14.5002 23 12.5002 7 12.5002 7 14.5002ZM2 26.5002 48 26.5002 48 9.50025 2 9.50025 2 26.5002ZM49 7.50025 1 7.50025C0.447 7.50025 0 7.94825 0 8.50025L0 27.5002C0 28.0522 0.447 28.5002 1 28.5002L49 28.5002C49.552 28.5002 50 28.0522 50 27.5002L50 8.50025C50 7.94825 49.552 7.50025 49 7.50025L49 7.50025Z" id="AWS-Elemental-Link_Icon_64_Squid"/></g></g></svg>