<svg width="80" height="80" viewBox="0 0 80 80" xmlns="http://www.w3.org/2000/svg" xmlns:xlink="http://www.w3.org/1999/xlink" fill="none" overflow="hidden"><g id="Icon-Architecture/64/Arch_Amazon-API-Gateway_64"><g id="Icon-Architecture-BG/64/Networking-Content-Delivery"><rect x="0" y="0" width="80" height="80" id="Rectangle" fill="#8C4FFF"/></g><g id="Icon-Service/64/Amazon-API-Gateway_64"><path d="M34.065 55.6324 37 55.6324 37 53.6153 34.065 53.6153 34.065 55.6324ZM39 55.6324 42 55.6324 42 53.6153 39 53.6153 39 55.6324ZM27 14.6295 14 21.0821 14 61.1934 27 65.5896 27 14.6295ZM29 27.3934 29 53.6153 32 53.6153 32 55.6324 29 55.6324 29 66.9915C29 67.3162 28.845 67.6208 28.584 67.8104 28.412 67.9355 28.207 68 28 68 27.894 68 27.786 67.9829 27.682 67.9476L12.682 62.8756C12.274 62.7375 12 62.3522 12 61.9196L12 20.4537C12 20.0705 12.217 19.7185 12.559 19.5491L27.559 12.1041C27.868 11.9498 28.235 11.9679 28.528 12.1525 28.821 12.3361 29 12.6598 29 13.0087L29 25.3764 32 25.3764 32 27.3934 29 27.3934ZM44 55.6324 47 55.6324 47 53.6153 44 53.6153 44 55.6324ZM44.065 27.3934 47 27.3934 47 25.3764 44.065 25.3764 44.065 27.3934ZM39.065 27.3934 42 27.3934 42 25.3764 39.065 25.3764 39.065 27.3934ZM34.065 27.3934 37 27.3934 37 25.3764 34.065 25.3764 34.065 27.3934ZM66 21.0821 53 14.6295 53 65.5896 66 61.1934 66 21.0821ZM68 61.9196C68 62.3522 67.726 62.7375 67.318 62.8756L52.318 67.9476C52.214 67.9829 52.106 68 52 68 51.793 68 51.588 67.9355 51.416 67.8104 51.155 67.6208 51 67.3162 51 66.9915L51 55.6324 49.065 55.6324 49.065 53.6153 51 53.6153 51 27.3934 49.065 27.3934 49.065 25.3764 51 25.3764 51 13.0087C51 12.6598 51.179 12.3361 51.472 12.1525 51.765 11.9679 52.131 11.9498 52.441 12.1041L67.441 19.5491C67.783 19.7185 68 20.0705 68 20.4537L68 61.9196ZM42.934 33.8067 41.066 33.0826 36.066 46.1935 37.934 46.9176 42.934 33.8067ZM49.707 40.2089C50.098 39.8145 50.098 39.1761 49.707 38.7828L45.707 34.7487 44.293 36.1747 47.586 39.4958 44.293 42.8169 45.707 44.243 49.707 40.2089ZM34.293 44.243 30.293 40.2089C29.902 39.8145 29.902 39.1761 30.293 38.7828L34.293 34.7487 35.707 36.1747 32.414 39.4958 35.707 42.8169 34.293 44.243Z" id="Amazon-API-Gateway_Icon_64_Squid" fill="#FFFFFF" fill-rule="evenodd" clip-rule="evenodd"/></g></g></svg>