<svg width="80" height="80" viewBox="0 0 80 80" xmlns="http://www.w3.org/2000/svg" xmlns:xlink="http://www.w3.org/1999/xlink" overflow="hidden"><g id="Icon-Architecture/64/Arch_Amazon-Lex_64" stroke="none" stroke-width="1" fill="none" fill-rule="evenodd"><g id="Icon-Architecture-BG/64/Machine-Learning" fill="#01A88D"><rect x="0" y="0" width="80" height="80" id="Rectangle"/></g><path d="M47.217 46.074C47.217 46.4338 47.359 46.7728 47.615 47.0266 48.129 47.537 49.025 47.537 49.538 47.0266 49.795 46.7728 49.937 46.4338 49.937 46.074 49.937 45.7142 49.795 45.3752 49.538 45.1215 49.281 44.8668 48.94 44.726 48.576 44.726 48.213 44.726 47.872 44.8668 47.615 45.1205 47.359 45.3752 47.217 45.7142 47.217 46.074L47.217 46.074ZM46.201 48.4281C45.567 47.7997 45.217 46.9631 45.217 46.074 45.217 45.1849 45.567 44.3484 46.201 43.719 47.469 42.4611 49.683 42.4611 50.952 43.7199 51.587 44.3484 51.937 45.1849 51.937 46.074 51.937 46.9631 51.587 47.7997 50.952 48.4291 50.318 49.0575 49.474 49.4035 48.576 49.4035 47.679 49.4035 46.835 49.0575 46.201 48.4281L46.201 48.4281ZM42.297 45.7697 42.704 48.324 44.523 48.2497C44.809 48.2408 45.073 48.3449 45.272 48.5401L46.085 49.3489C46.282 49.5442 46.388 49.8118 46.376 50.0884L46.303 51.8943 48.879 52.2987 49.365 50.578C49.442 50.3094 49.629 50.0844 49.882 49.9595L50.942 49.4352C51.189 49.3123 51.477 49.2974 51.736 49.3926L53.417 50.0101 54.602 47.7065 53.097 46.7134C52.866 46.5607 52.709 46.3199 52.664 46.0473L52.477 44.9074C52.432 44.6328 52.505 44.3523 52.679 44.1333L53.807 42.7188 51.962 40.8911 50.538 42.0082C50.317 42.1806 50.038 42.253 49.755 42.2094L48.608 42.023C48.334 41.9784 48.092 41.8228 47.938 41.5938L46.933 40.1011 44.609 41.2737 45.232 42.9379C45.328 43.1956 45.313 43.4811 45.189 43.7269L44.658 44.7756C44.531 45.0254 44.306 45.2107 44.034 45.287L42.297 45.7697ZM40.868 49.5055 40.183 45.2087C40.103 44.7121 40.411 44.2364 40.9 44.0996L43.068 43.4959 43.205 43.2244 42.424 41.1359C42.247 40.6641 42.455 40.1368 42.907 39.9078L46.818 37.9344C47.273 37.7064 47.821 37.8491 48.104 38.2674L49.361 40.1358 49.643 40.1824 51.418 38.7888C51.817 38.4755 52.386 38.5083 52.746 38.8651L55.85 41.9408C56.208 42.2956 56.241 42.8616 55.928 43.2561L54.522 45.0194 54.569 45.3029 56.452 46.5458C56.874 46.8244 57.019 47.3735 56.788 47.8215L54.794 51.6961C54.564 52.1451 54.031 52.3493 53.556 52.1748L51.446 51.4007 51.172 51.5365 50.565 53.6834C50.443 54.1166 50.044 54.407 49.603 54.407 49.551 54.407 49.498 54.403 49.446 54.3951L45.112 53.7142C44.611 53.6349 44.248 53.1968 44.269 52.6942L44.361 50.4412 44.166 50.248 41.897 50.3411C41.442 50.358 40.947 50.0031 40.868 49.5055L40.868 49.5055ZM65 35.8152 32 35.8063 32 56.6124 48 56.6213C48.515 56.6213 48.965 56.8027 49.379 57.1764L56 63.4536 56 58.6037C56 57.4182 56.804 56.6213 58 56.6213L64.991 56.6213 65 35.8152ZM67 35.8063 67 56.6213C67 57.789 66.178 58.6037 65 58.6037L58.009 58.6037 58 64.426C58 65.0504 57.63 65.6154 57.057 65.8672 56.854 65.9564 56.638 66 56.423 66 56.039 66 55.66 65.8593 55.364 65.5936L48.015 58.6255 32 58.6037C30.804 58.6037 30 57.8068 30 56.6213L30 35.8063C30 34.3433 30.524 33.8239 32 33.8239L65 33.8239C66.179 33.8278 67 34.6426 67 35.8063L67 35.8063ZM36 30.8503 40 30.8503 40 28.8679 36 28.8679 36 30.8503ZM19 30.8503 34 30.8503 34 28.8679 19 28.8679 19 30.8503ZM32 25.8943 43 25.8943 43 23.9119 32 23.9119 32 25.8943ZM19 25.8943 28 25.8943 28 23.9119 19 23.9119 19 25.8943ZM39 20.9384 43 20.9384 43 18.956 39 18.956 39 20.9384ZM19 20.9384 37 20.9384 37 18.956 19 18.956 19 20.9384ZM27.276 37.1057 28.725 38.4726 22.703 44.7399C22.336 45.066 21.909 45.2285 21.496 45.2285 21.28 45.2285 21.069 45.1849 20.87 45.0967 20.334 44.8578 20 44.3365 20 43.7358L20 37.7966 16 37.7886C14.822 37.7886 14 36.9739 14 35.8063L14 15.9824C14 14.8148 14.822 14 16 14L46 14C47.215 14 48 14.7781 48 15.9824L48 30.8503 46 30.8503 46 15.9824 16.008 15.9824 16 35.7983 20 35.8063C21.178 35.8063 22 36.621 22 37.7886L22 42.6019 27.276 37.1057Z" id="Amazon-Lex-Icon_64_Squid" fill="#FFFFFF"/></g></svg>