<svg width="48" height="48" viewBox="0 0 48 48" xmlns="http://www.w3.org/2000/svg" xmlns:xlink="http://www.w3.org/1999/xlink" overflow="hidden"><g id="Icon-Resource/Storage/Res_AWS-Storage-Gateway_Amazon-FSx-File-Gateway_48" stroke="none" stroke-width="1" fill="none" fill-rule="evenodd"><path d="M42.532 28.826 45.696 24.252 44.065 24.252 41.604 27.896 40.899 28.909 44.234 33.865 44.278 33.931 45.993 33.931 42.532 28.826ZM37.245 33.931 38.894 33.931 41.132 30.542 40.375 29.434 37.245 33.931ZM41.215 27.19 39.274 24.318 39.23 24.252 37.532 24.252 40.354 28.378 41.215 27.19ZM34.788 27.723 33.084 27.046C32.535 26.832 32.111 26.63 31.821 26.445 31.548 26.271 31.35 26.078 31.235 25.872 31.12 25.668 31.062 25.388 31.062 25.037 31.062 24.411 31.253 23.945 31.643 23.614 32.461 22.923 34.154 22.94 36.205 23.69L36.473 23.788 36.473 22.532 36.356 22.479C35.89 22.265 35.387 22.097 34.861 21.978 34.335 21.86 33.825 21.8 33.344 21.8 32.269 21.8 31.386 22.103 30.72 22.701 30.048 23.305 29.707 24.102 29.707 25.071 29.707 25.787 29.915 26.4 30.326 26.891 30.729 27.372 31.36 27.788 32.203 28.128L34.051 28.871C34.655 29.112 35.096 29.383 35.36 29.677 35.615 29.962 35.739 30.296 35.739 30.699 35.739 31.379 35.506 31.901 35.024 32.294 34.006 33.126 32.119 33.058 30.041 32.278L29.77 32.177 29.77 33.43 29.881 33.486C30.827 33.96 31.918 34.201 33.122 34.201 34.302 34.201 35.269 33.878 36 33.243 36.736 32.601 37.11 31.751 37.11 30.716 37.11 30.001 36.919 29.395 36.542 28.917 36.173 28.446 35.583 28.044 34.788 27.723L34.788 27.723ZM22.83 33.92 24.17 33.92 24.17 28.605 28.61 28.605 28.61 27.33 24.17 27.33 24.17 23.356 29.423 23.356 29.423 22.081 22.83 22.081 22.83 33.92ZM30 20 32 20 32 7.073C32 6.735 31.811 6.425 31.511 6.27L31.203 6.112C27.648 4.28 23.03 2 17 2 10.507 2 6.307 4.031 2.446 6.294 2.17 6.456 2 6.752 2 7.073L2 46 4 46 4 7.5C7.621 5.404 11.189 4 17 4 22.498 4 26.486 5.69 30 7.5L30 20ZM37 36 37 45C37 45.55 36.55 46 36 46L8.914 46C8.415 46 8.011 45.597 8.011 45.098L8 26.001C8 25.451 8.449 25 9 25L17 25C17.228 25 17.497 25.169 17.596 25.375L18.441 26.724C18.522 26.893 18.693 27 18.88 27L21 27 21 29 18 29C17.653 29 17.5 29 17.203 28.209L16.618 27.288C16.547 27.114 16.188 27 16 27L10 27 10 44 35 44 35 36 37 36Z" id="Fill-1" fill="#7AA116"/></g></svg>