<svg width="80" height="80" viewBox="0 0 80 80" xmlns="http://www.w3.org/2000/svg" xmlns:xlink="http://www.w3.org/1999/xlink" overflow="hidden"><g id="Icon-Architecture/64/Arch_Amazon-Kinesis-Data-Streams_64" stroke="none" stroke-width="1" fill="none" fill-rule="evenodd"><g id="Icon-Architecture-BG/64/Analytics" fill="#8C4FFF"><rect x="0" y="0" width="80" height="80" id="Rectangle"/></g><g id="Icon-Service/64/Amazon-Kinesis-Data-Streams" fill="#FFFFFF" transform="translate(13 12)"><path d="M36 39 42 39 42 37 36 37 36 39ZM40 50 43 50 43 47 40 47 40 50ZM45 46 45 51C45 51.552 44.553 52 44 52L39 52C38.448 52 38 51.552 38 51L38 46C38 45.448 38.448 45 39 45L44 45C44.553 45 45 45.448 45 46L45 46ZM39 43 42 43 42 41 39 41 39 43ZM46 41 49 41 49 38 46 38 46 41ZM50 43 45 43C44.448 43 44 42.552 44 42L44 37C44 36.448 44.448 36 45 36L47.975 36C46.305 34.75 44.242 34 42 34 37.532 34 33.739 36.947 32.461 41L37 41 37 43 32.051 43C32.018 43.329 32 43.663 32 44 32 44.337 32.018 44.671 32.051 45L36 45 36 47 32.461 47C32.684 47.705 32.989 48.372 33.354 49L36 49 36 51 34.871 51C36.687 52.849 39.21 54 42 54 44.79 54 47.314 52.849 49.129 51L47 51 47 49 50.647 49C51.012 48.372 51.317 47.705 51.539 47L47 47 47 45 51.95 45C51.983 44.671 52 44.337 52 44 52 42.447 51.634 40.982 51 39.67L51 42C51 42.552 50.553 43 50 43L50 43ZM54 44C54 50.617 48.618 56 42 56 35.383 56 30 50.617 30 44 30 37.383 35.383 32 42 32 48.618 32 54 37.383 54 44L54 44ZM35.127 31.817C20.434 33.238 6 36.72 6 50L8 50C8 43.633 11 36.878 32.034 34.185 32.946 33.258 33.989 32.462 35.127 31.817L35.127 31.817ZM12 56 14 56C14 50.185 14.012 43.068 28.801 39.377 29.082 38.577 29.429 37.81 29.844 37.084 12.014 41.047 12 49.982 12 56L12 56ZM2 14 0 14C0 21.396 10.039 26.08 29.893 28 10.039 29.92 0 34.604 0 42L2 42C2 37.145 8.756 29 54 29L54 27C8.756 27 2 18.855 2 14L2 14ZM8 6 6 6C6 15.396 11.703 25 54 25L54 23C13.465 23 8 14.406 8 6L8 6ZM54 19 54 21C35.663 21 23.728 18.641 17.51 13.788 12 9.488 12 4.004 12 0L14 0C14 7.566 14 19 54 19L54 19Z" id="Amazon-Kinesis-Data-Streams_Icon_64_Squid"/></g></g></svg>