<svg width="48" height="48" viewBox="0 0 48 48" xmlns="http://www.w3.org/2000/svg" xmlns:xlink="http://www.w3.org/1999/xlink" overflow="hidden"><g id="Icon-Resource/Storage/Res_AWS-Backup_AWS-Backup-support-for-Amazon-S3_48" stroke="none" stroke-width="1" fill="none" fill-rule="evenodd"><path d="M39.523 40.8829C39.517 40.9259 39.515 40.9589 39.515 41.0029 39.488 41.1189 39.121 41.5609 37.845 42.0599 37.21 42.3069 36.459 42.5309 35.611 42.7239 33.417 43.2259 30.724 43.5019 28.029 43.5019 20.851 43.5019 16.725 41.7499 16.545 41.0139 16.545 40.9679 16.543 40.9219 16.536 40.8759L15.433 32.9969C16.148 33.0979 16.872 33.1539 17.601 33.1539 19.061 33.1539 20.54 32.9399 21.997 32.5079L20.284 35.7629 22.053 36.6949 24.845 31.3899C25.103 30.9009 24.915 30.2969 24.426 30.0389L19.122 27.2469 18.19 29.0169 21.273 30.6389C19.225 31.2199 17.135 31.2819 15.142 30.9139L13.088 16.2369C16.415 17.9139 22.623 18.5679 28.19 18.5679 33.559 18.5679 39.542 17.9199 42.78 16.2639L39.523 40.8829ZM45.171 13.4349 45.161 13.4339C45.163 13.3889 45.18 13.3489 45.18 13.3039 45.18 9.5649 37.057 8.2219 34.567 7.8999L34.311 9.8829C40.869 10.7319 43.123 12.5469 43.175 13.2769L43.162 13.3739C42.976 14.5559 37.982 16.5679 28.19 16.5679 18.197 16.5679 12.89 14.5269 12.687 13.3739L12.673 13.2769C12.735 12.4439 15.798 10.5419 22.798 9.7889L22.584 7.7999C16.823 8.4209 10.668 10.1919 10.668 13.3039 10.668 13.3519 10.686 13.3939 10.689 13.4409L10.677 13.4429 13.044 30.3539C9.45802 29.0769 6.41902 26.3219 4.93302 22.5059 2.21802 15.5309 5.68302 7.6479 12.658 4.9329 16.038 3.6169 19.724 3.6959 23.044 5.1549 26.362 6.6129 28.915 9.2779 30.228 12.6509L30.306 12.8559 32.175 12.1449 32.093 11.9299C30.585 8.0539 27.656 4.9979 23.848 3.3239 20.039 1.6499 15.807 1.5609 11.931 3.0699 8.05502 4.5779 4.99902 7.5069 3.32502 11.3149 1.65102 15.1229 1.56002 19.3549 3.07002 23.2309 4.90902 27.9539 8.81602 31.2649 13.352 32.5529L14.547 41.0959C14.679 44.3269 22.654 45.5019 28.029 45.5019 30.87 45.5019 33.721 45.2079 36.055 44.6739 37 44.4589 37.846 44.2059 38.573 43.9229 40.482 43.1759 41.47 42.2239 41.513 41.0909L45.171 13.4349Z" id="Fill-1" fill="#7AA116"/></g></svg>