<svg width="48" height="48" viewBox="0 0 48 48" xmlns="http://www.w3.org/2000/svg" xmlns:xlink="http://www.w3.org/1999/xlink" overflow="hidden"><g id="Icon-Resource/IoT/Res_AWS-IoT_Thing_FreeRTOS-Device_48" stroke="none" stroke-width="1" fill="none" fill-rule="evenodd"><path d="M33.572 25.29C32.606 25.29 31.82 24.504 31.82 23.539 31.82 22.573 32.606 21.787 33.572 21.787 34.538 21.787 35.324 22.573 35.324 23.539 35.324 24.504 34.538 25.29 33.572 25.29L33.572 25.29ZM29 30.325 29 24 29.867 24C30.023 25.251 30.789 26.304 31.865 26.86 31.243 28.244 30.243 29.444 29 30.325L29 30.325ZM25 31.85 25 17.6C26.088 17.329 26.983 16.586 27.464 15.597 29.504 16.475 31.106 18.111 31.953 20.169 31.161 20.552 30.522 21.197 30.159 22L28 22C27.447 22 27 22.448 27 23L27 31.375C26.361 31.615 25.688 31.776 25 31.85L25 31.85ZM21 31.304 21 23C21 22.448 20.552 22 20 22L18.038 22C17.676 21.198 17.037 20.552 16.246 20.17 17.092 18.114 18.696 16.477 20.734 15.599 21.185 16.526 22.002 17.23 23 17.539L23 31.82C22.313 31.731 21.637 31.563 21 31.304L21 31.304ZM17.58 28.845C17.548 28.808 17.514 28.771 17.451 28.685 17.004 28.129 16.632 27.507 16.339 26.856 17.412 26.299 18.175 25.248 18.33 24L19 24 19 30.186C18.479 29.795 18 29.35 17.58 28.845L17.58 28.845ZM12.874 23.539C12.874 22.573 13.66 21.787 14.626 21.787 15.592 21.787 16.377 22.573 16.377 23.539 16.377 24.504 15.592 25.29 14.626 25.29 13.66 25.29 12.874 24.504 12.874 23.539L12.874 23.539ZM24.098 12.218C25.064 12.218 25.85 13.004 25.85 13.97 25.85 14.936 25.064 15.722 24.098 15.722 23.133 15.722 22.346 14.936 22.346 13.97 22.346 13.004 23.133 12.218 24.098 12.218L24.098 12.218ZM33.954 19.825C32.906 16.941 30.676 14.682 27.812 13.598 27.623 11.706 26.039 10.218 24.098 10.218 22.157 10.218 20.573 11.707 20.384 13.6 17.522 14.684 15.292 16.944 14.245 19.825 12.357 20.019 10.874 21.6 10.874 23.539 10.874 25.509 12.406 27.111 14.339 27.261 14.718 28.219 15.228 29.112 15.856 29.889 15.917 29.975 15.989 30.061 16.051 30.135 16.873 31.124 17.881 31.951 19 32.571L19 37 21 37 21 33.426C21.646 33.63 22.314 33.77 23 33.842L23 37 25 37 25 33.859C25.685 33.801 26.355 33.679 27 33.49L27 37 29 37 29 32.674C31.197 31.509 32.933 29.566 33.85 27.262 35.787 27.117 37.324 25.512 37.324 23.539 37.324 21.601 35.842 20.02 33.954 19.825L33.954 19.825ZM39 37.865C39 38.491 38.491 39 37.865 39L10.135 39C9.509 39 9 38.491 9 37.865L9 10.135C9 9.509 9.509 9 10.135 9L37.865 9C38.491 9 39 9.509 39 10.135L39 37.865ZM46 15 46 13 41 13 41 10.135C41 8.406 39.593 7 37.865 7L35 7 35 2 33 2 33 7 30 7 30 2 28 2 28 7 25 7 25 2 23 2 23 7 20 7 20 2 18 2 18 7 15 7 15 2 13 2 13 7 10.135 7C8.406 7 7 8.406 7 10.135L7 13 2 13 2 15 7 15 7 18 2 18 2 20 7 20 7 23 2 23 2 25 7 25 7 28 2 28 2 30 7 30 7 33 2 33 2 35 7 35 7 37.865C7 39.594 8.406 41 10.135 41L13 41 13 46 15 46 15 41 18 41 18 46 20 46 20 41 23 41 23 46 25 46 25 41 28 41 28 46 30 46 30 41 33 41 33 46 35 46 35 41 37.865 41C39.593 41 41 39.594 41 37.865L41 35 46 35 46 33 41 33 41 30 46 30 46 28 41 28 41 25 46 25 46 23 41 23 41 20 46 20 46 18 41 18 41 15 46 15Z" id="Fill-1" fill="#7AA116"/></g></svg>