<svg width="80" height="80" viewBox="0 0 80 80" xmlns="http://www.w3.org/2000/svg" xmlns:xlink="http://www.w3.org/1999/xlink" overflow="hidden"><g id="Icon-Architecture/64/Arch_AWS-Express-Workflow_64" stroke="none" stroke-width="1" fill="none" fill-rule="evenodd"><g id="Icon-Architecture-BG/64/Application-Integration" fill="#E7157B"><rect x="0" y="0" width="80" height="80" id="Rectangle"/></g><path d="M64.8304 44 43.9014 44 45.7774 37 66.7064 37 64.8304 44ZM68.8034 35.391C68.6144 35.145 68.3204 35 68.0104 35L45.0104 35C44.5584 35 44.1614 35.304 44.0444 35.741L41.6324 44.741C41.5514 45.042 41.6154 45.362 41.8054 45.609 41.9934 45.855 42.2874 46 42.5984 46L65.5984 46C66.0504 46 66.4464 45.696 66.5634 45.259L68.9764 36.259C69.0574 35.958 68.9924 35.638 68.8034 35.391L68.8034 35.391ZM43.3044 62.5C43.3044 64.43 41.7334 66 39.8044 66 37.8744 66 36.3044 64.43 36.3044 62.5 36.3044 60.57 37.8744 59 39.8044 59 41.7334 59 43.3044 60.57 43.3044 62.5L43.3044 62.5ZM14.3754 43 32.3054 43 31.2324 47 13.3034 47 14.3754 43ZM14.3754 33 32.3054 33 31.2324 37 13.3034 37 14.3754 33ZM36.3044 17.5C36.3044 15.57 37.8744 14 39.8044 14 41.7334 14 43.3044 15.57 43.3044 17.5 43.3044 19.43 41.7334 21 39.8044 21 37.8744 21 36.3044 19.43 36.3044 17.5L36.3044 17.5ZM55.8044 53 23.8044 53 23.8044 49 32.0004 49C32.4524 49 32.8494 48.696 32.9664 48.259L34.5734 42.259C34.6544 41.958 34.5904 41.638 34.4004 41.391 34.2124 41.145 33.9184 41 33.6074 41L23.8044 41 23.8044 39 32.0004 39C32.4524 39 32.8494 38.696 32.9664 38.259L34.5734 32.259C34.6544 31.958 34.5904 31.638 34.4004 31.391 34.2124 31.145 33.9184 31 33.6074 31L23.8044 31 23.8044 28 55.8044 28 55.8044 32 57.8044 32 57.8044 27C57.8044 26.448 57.3564 26 56.8044 26L40.8044 26 40.8044 22.904C43.3594 22.432 45.3044 20.191 45.3044 17.5 45.3044 14.467 42.8364 12 39.8044 12 36.7714 12 34.3044 14.467 34.3044 17.5 34.3044 20.191 36.2484 22.432 38.8044 22.904L38.8044 26 22.8044 26C22.2514 26 21.8044 26.448 21.8044 27L21.8044 31 13.6074 31C13.1554 31 12.7594 31.304 12.6424 31.741L11.0344 37.741C10.9534 38.042 11.0174 38.362 11.2074 38.609 11.3954 38.855 11.6894 39 12.0004 39L21.8044 39 21.8044 41 13.6074 41C13.1554 41 12.7594 41.304 12.6424 41.741L11.0344 47.741C10.9534 48.042 11.0174 48.362 11.2074 48.609 11.3954 48.855 11.6894 49 12.0004 49L21.8044 49 21.8044 54C21.8044 54.552 22.2514 55 22.8044 55L38.8044 55 38.8044 57.096C36.2484 57.568 34.3044 59.809 34.3044 62.5 34.3044 65.533 36.7714 68 39.8044 68 42.8364 68 45.3044 65.533 45.3044 62.5 45.3044 59.809 43.3594 57.568 40.8044 57.096L40.8044 55 56.8044 55C57.3564 55 57.8044 54.552 57.8044 54L57.8044 49.027 55.8044 49.027 55.8044 53Z" id="AWS-Express-Workflow-Icon_64_Squid" fill="#FFFFFF"/></g></svg>