<svg width="80" height="80" viewBox="0 0 80 80" xmlns="http://www.w3.org/2000/svg" xmlns:xlink="http://www.w3.org/1999/xlink" overflow="hidden"><g id="Icon-Architecture/64/Arch_AWS-Site-to-Site-VPN_64" stroke="none" stroke-width="1" fill="none" fill-rule="evenodd"><g id="Icon-Architecture-BG/64/Networking-Content-Delivery" fill="#8C4FFF"><rect x="0" y="0" width="80" height="80" id="Rectangle"/></g><g id="Icon-Service/64/AWS-Site-to-Site-VPN_64" fill="#FFFFFF" transform="translate(14.6 12)"><path d="M16.414 12C16.414 6.486 20.9 2 26.414 2 31.928 2 36.414 6.486 36.414 12L36.414 13 38.414 13 38.414 12C38.414 5.383 33.031 0 26.414 0 19.797 0 14.414 5.383 14.414 12L14.414 13 16.414 13 16.414 12ZM23.414 38C23.414 39.654 24.76 41 26.414 41 28.068 41 29.414 39.654 29.414 38 29.414 36.346 28.068 35 26.414 35 24.76 35 23.414 36.346 23.414 38L23.414 38ZM21.414 38C21.414 35.243 23.657 33 26.414 33 29.171 33 31.414 35.243 31.414 38 31.414 40.415 29.693 42.434 27.414 42.899L27.414 49 25.414 49 25.414 42.899C23.135 42.434 21.414 40.415 21.414 38L21.414 38ZM10.414 54 42.414 54 42.414 28 10.414 28 10.414 54ZM38.414 26 44.414 26 44.414 56 8.414 56 8.414 26 14.414 26 14.414 20 16.414 20 16.414 26 36.414 26 36.414 20 38.414 20 38.414 26ZM52.828 17 46.121 23.707 44.707 22.293 49 18 3.828 18 8.121 22.293 6.707 23.707 3.55271e-15 17 6.707 10.293 8.121 11.707 3.828 16 49 16 44.707 11.707 46.121 10.293 52.828 17Z" id="AWS-Site-to-Site-VPN_64_Squid"/></g></g></svg>