<svg width="48" height="48" viewBox="0 0 48 48" xmlns="http://www.w3.org/2000/svg" xmlns:xlink="http://www.w3.org/1999/xlink" overflow="hidden"><g id="Icon-Resource/Database/Res_Amazon-RDS_Multi-AZ-DB-Cluster_48" stroke="none" stroke-width="1" fill="none" fill-rule="evenodd"><path d="M38.189 13.07C34.105 13.07 32 11.871 32 11.36L32 8.272C33.601 9.07 35.943 9.45 38.189 9.45 40.617 9.45 42.625 9.043 44 8.342L44 11.36C44 11.973 42.058 13.07 38.189 13.07L38.189 13.07ZM38.189 18.329C34.105 18.329 32 17.174 32 16.68L32 13.925C33.578 14.704 35.889 15.07 38.189 15.07 40.639 15.07 42.636 14.679 44 13.993L44 16.68C44 17.256 42.003 18.329 38.189 18.329L38.189 18.329ZM38.189 29.514C42.003 29.514 44 30.637 44 31.239 44 31.841 42.003 32.964 38.189 32.964 34.105 32.964 32 31.755 32 31.239 32 30.723 34.105 29.514 38.189 29.514L38.189 29.514ZM38.189 38.584C34.105 38.584 32 37.385 32 36.873L32 33.786C33.601 34.584 35.943 34.964 38.189 34.964 40.617 34.964 42.625 34.557 44 33.856L44 36.873C44 37.487 42.058 38.584 38.189 38.584L38.189 38.584ZM38.189 43.843C34.105 43.843 32 42.688 32 42.195L32 39.439C33.578 40.218 35.889 40.584 38.189 40.584 40.639 40.584 42.636 40.193 44 39.507L44 42.195C44 42.77 42.003 43.843 38.189 43.843L38.189 43.843ZM12.243 30.21C7.21 30.21 4 28.763 4 27.767L4 23.614C5.993 24.75 9.188 25.286 12.243 25.286 15.582 25.286 18.29 24.697 20 23.695L20 27.767C20 28.791 17.304 30.21 12.243 30.21L12.243 30.21ZM12.243 36.932C6.831 36.932 4 35.366 4 34.527L4 30.545C5.993 31.676 9.188 32.21 12.243 32.21 15.582 32.21 18.29 31.623 20 30.625L20 34.527C20 35.535 17.304 36.932 12.243 36.932L12.243 36.932ZM4 16.196C5.993 17.332 9.188 17.868 12.243 17.868 15.582 17.868 18.29 17.279 20 16.277L20 20.824C20 21.857 17.304 23.286 12.243 23.286 7.21 23.286 4 21.828 4 20.824L4 16.196ZM12.243 10.945C17.237 10.945 20 12.4 20 13.406 20 14.413 17.237 15.868 12.243 15.868 6.831 15.868 4 14.266 4 13.406 4 12.547 6.831 10.945 12.243 10.945L12.243 10.945ZM38.189 4C42.003 4 44 5.123 44 5.725 44 6.327 42.003 7.45 38.189 7.45 34.105 7.45 32 6.241 32 5.725 32 5.209 34.105 4 38.189 4L38.189 4ZM46 5.725C46 3.497 42.861 2 38.189 2 34.245 2 30 3.166 30 5.725 30 5.793 30.014 5.856 30.02 5.922L30 5.922 30 16.508 22 22.108 22 13.922 21.947 13.922C21.98 13.754 22 13.582 22 13.406 22 10.737 18.079 8.945 12.243 8.945 7.578 8.945 2.585 10.195 2.053 12.922L2 12.922 2 34.527C2 37.554 7.309 38.932 12.243 38.932 18.169 38.932 22 37.203 22 34.527L22 25.95 30 31.55 30 42.195C30 44.715 34.113 45.843 38.189 45.843 42.934 45.843 46 44.411 46 42.195L46 30.922 45.971 30.922C45.685 28.871 42.634 27.514 38.189 27.514 35.214 27.514 32.071 28.178 30.704 29.601L22.743 24.029 30.795 18.393C32.183 19.717 35.193 20.329 38.189 20.329 42.934 20.329 46 18.897 46 16.68L46 5.922 45.982 5.922C45.988 5.856 46 5.792 46 5.725L46 5.725Z" id="Fill-1" fill="#C925D1"/></g></svg>