<svg width="80" height="80" viewBox="0 0 80 80" xmlns="http://www.w3.org/2000/svg" xmlns:xlink="http://www.w3.org/1999/xlink" overflow="hidden"><g id="Icon-Architecture/64/Arch_Amazon-Managed-Streaming-for-Apache-Kafka_64" stroke="none" stroke-width="1" fill="none" fill-rule="evenodd"><g id="Icon-Architecture-BG/64/Analytics" fill="#8C4FFF"><rect x="0" y="0" width="80" height="80" id="Rectangle"/></g><path d="M36.0081 36.9771 36.0081 27.9865 38.0041 27.9865 38.0041 31.9823 40.6976 27.9865 42.9071 27.9865 39.7854 32.1901 43.1646 36.9771 40.7974 36.9771 38.0041 32.6316 38.0041 36.9771 36.0081 36.9771ZM66 49.1174 65.3314 49.6958C63.9841 50.8756 62.1718 51.466 60.3575 51.466 58.5432 51.466 56.7279 50.8756 55.3787 49.6928L54.0454 48.538C52.0894 46.8238 48.6653 46.8238 46.7133 48.534L45.372 49.6958C42.6785 52.0564 38.1168 52.0584 35.4193 49.6928L34.0861 48.538C32.13 46.8238 28.706 46.8238 26.754 48.534L25.4127 49.6958C22.7192 52.0564 18.1575 52.0584 15.46 49.6928L14.7954 49.1174 16.1017 47.606 16.7704 48.1854C18.7274 49.8996 22.1514 49.8996 24.1024 48.1894L25.4437 47.0266C28.1372 44.6671 32.6989 44.6671 35.3964 47.0306L36.7297 48.1854C38.6867 49.8996 42.1107 49.8996 44.0617 48.1894L45.403 47.0266C48.0965 44.6671 52.6582 44.6671 55.3557 47.0306L56.689 48.1854C58.645 49.8996 62.069 49.8996 64.021 48.1894L64.6937 47.606 66 49.1174ZM63.8983 61.1399 65.2046 62.6503 64.536 63.2297C63.1897 64.4095 61.3774 64.9989 59.5641 64.9989 57.7488 64.9989 55.9335 64.4085 54.5833 63.2257L53.25 62.0709C51.294 60.3587 47.87 60.3587 45.9179 62.0669L44.5767 63.2297C41.8852 65.5903 37.3235 65.5913 34.624 63.2257L33.2907 62.0709C31.3357 60.3587 27.9116 60.3587 25.9586 62.0669L24.6174 63.2297C21.9248 65.5903 17.3631 65.5913 14.6646 63.2257L14 62.6503 15.3063 61.1399 15.975 61.7193C17.932 63.4315 21.356 63.4325 23.307 61.7223L24.6483 60.5605C27.3428 58.201 31.9025 58.2 34.601 60.5635L35.9343 61.7193C37.8913 63.4315 41.3153 63.4325 43.2663 61.7223L44.6076 60.5605C47.3021 58.201 51.8618 58.2 54.5603 60.5635L55.8936 61.7193C57.8506 63.4315 61.2746 63.4325 63.2257 61.7223L63.8983 61.1399ZM63.8983 54.8065 65.2046 56.3159 64.536 56.8953C61.8435 59.2569 57.2818 59.2579 54.5833 56.8923L53.25 55.7375C51.294 54.0233 47.87 54.0243 45.9179 55.7335L44.5767 56.8963C43.2304 58.0761 41.4171 58.6655 39.6048 58.6655 37.7895 58.6655 35.9742 58.0751 34.624 56.8923L33.2907 55.7375C31.3357 54.0233 27.9116 54.0243 25.9586 55.7335L24.6174 56.8963C21.9258 59.2569 17.3641 59.2569 14.6646 56.8923L14 56.3159 15.3063 54.8065 15.975 55.3859C17.932 57.1001 21.356 57.0991 23.307 55.3889L24.6483 54.2271C27.3428 51.8676 31.9045 51.8656 34.601 54.2301L35.9343 55.3849C37.8913 57.1001 41.3153 57.0991 43.2663 55.3889L44.6076 54.2271C47.3021 51.8676 51.8638 51.8656 54.5603 54.2301L55.8936 55.3849C57.8506 57.1001 61.2746 57.0991 63.2257 55.3889L63.8983 54.8065ZM24.0325 37.976C25.1333 37.976 26.0285 38.8721 26.0285 39.974 26.0285 41.0758 25.1333 41.9719 24.0325 41.9719 22.9318 41.9719 22.0366 41.0758 22.0366 39.974 22.0366 38.8721 22.9318 37.976 24.0325 37.976L24.0325 37.976ZM39.002 16.9979C40.1028 16.9979 40.998 17.894 40.998 18.9958 40.998 20.0977 40.1028 20.9938 39.002 20.9938 37.9013 20.9938 37.0061 20.0977 37.0061 18.9958 37.0061 17.894 37.9013 16.9979 39.002 16.9979L39.002 16.9979ZM55.9674 39.974C55.9674 41.0758 55.0723 41.9719 53.9715 41.9719 52.8708 41.9719 51.9756 41.0758 51.9756 39.974 51.9756 38.8721 52.8708 37.976 53.9715 37.976 55.0723 37.976 55.9674 38.8721 55.9674 39.974L55.9674 39.974ZM39.002 22.9917C39.6667 22.9917 40.2854 22.8129 40.8373 22.5232L51.0046 37.3267C50.5884 37.7922 50.283 38.3527 50.1224 38.975L27.8817 38.975C27.721 38.3527 27.4157 37.7922 26.9995 37.3267L37.1668 22.5232C37.7187 22.8129 38.3374 22.9917 39.002 22.9917L39.002 22.9917ZM24.0325 43.9698C25.8868 43.9698 27.4366 42.6911 27.8817 40.9729L50.1224 40.9729C50.5675 42.6911 52.1173 43.9698 53.9715 43.9698 56.173 43.9698 57.9634 42.1777 57.9634 39.974 57.9634 37.7703 56.173 35.9781 53.9715 35.9781 53.5115 35.9781 53.0763 36.072 52.6632 36.2159L42.3372 21.1806C42.7504 20.5522 42.9939 19.803 42.9939 18.9958 42.9939 16.7921 41.2035 15 39.002 15 36.8005 15 35.0102 16.7921 35.0102 18.9958 35.0102 19.803 35.2537 20.5522 35.6668 21.1806L25.3409 36.2159C24.9277 36.072 24.4926 35.9781 24.0325 35.9781 21.831 35.9781 20.0407 37.7703 20.0407 39.974 20.0407 42.1777 21.831 43.9698 24.0325 43.9698L24.0325 43.9698Z" id="Amazon-Managed-Streaming-for-Apache-Kafka-Icon_64_Squid" fill="#FFFFFF"/></g></svg>