<svg width="48" height="48" viewBox="0 0 48 48" xmlns="http://www.w3.org/2000/svg" xmlns:xlink="http://www.w3.org/1999/xlink" overflow="hidden"><g id="Icon-Resource/Networking-and-Content-Delivery/Res_AWS-Cloud-WAN_Segment-Network_48" stroke="none" stroke-width="1" fill="none" fill-rule="evenodd"><path d="M27.9998 38.81 27.9998 43.839C35.9808 42.405 42.4058 35.98 43.8398 27.999L38.8108 27.999C37.5268 33.319 33.3188 37.527 27.9998 38.81L27.9998 38.81ZM26.9998 45.999C26.7568 45.999 26.5198 45.91 26.3358 45.747 26.1218 45.557 25.9998 45.285 25.9998 44.999L25.9998 37.999C25.9998 37.515 26.3468 37.101 26.8218 37.015 31.9858 36.082 36.0828 31.986 37.0158 26.821 37.1018 26.345 37.5168 25.999 37.9998 25.999L44.9998 25.999C45.2858 25.999 45.5578 26.121 45.7478 26.335 45.9368 26.549 46.0258 26.833 45.9928 27.117 44.8318 36.892 36.8938 44.83 27.1178 45.992 27.0788 45.997 27.0388 45.999 26.9998 45.999L26.9998 45.999ZM4.1598 27.999C5.5938 35.98 12.0188 42.405 19.9998 43.839L19.9998 38.81C14.6808 37.527 10.4728 33.319 9.1888 27.999L4.1598 27.999ZM20.9998 45.999C20.9608 45.999 20.9218 45.997 20.8818 45.992 11.1058 44.83 3.1678 36.892 2.0068 27.117 1.9738 26.833 2.0618 26.549 2.2518 26.335 2.4418 26.121 2.7138 25.999 2.9998 25.999L9.9998 25.999C10.4828 25.999 10.8978 26.345 10.9838 26.821 11.9168 31.986 16.0138 36.082 21.1778 37.015 21.6528 37.101 21.9998 37.515 21.9998 37.999L21.9998 44.999C21.9998 45.285 21.8778 45.557 21.6638 45.747 21.4798 45.91 21.2428 45.999 20.9998 45.999L20.9998 45.999ZM38.8108 19.999 43.8398 19.999C42.4058 12.018 35.9808 5.593 27.9998 4.159L27.9998 9.188C33.3188 10.471 37.5268 14.679 38.8108 19.999L38.8108 19.999ZM44.9998 21.999 37.9998 21.999C37.5168 21.999 37.1018 21.653 37.0158 21.177 36.0828 16.012 31.9858 11.915 26.8218 10.983 26.3468 10.897 25.9998 10.483 25.9998 9.999L25.9998 2.999C25.9998 2.713 26.1218 2.441 26.3358 2.251 26.5488 2.062 26.8298 1.976 27.1178 2.006 36.8938 3.168 44.8318 11.106 45.9928 20.881 46.0258 21.165 45.9368 21.449 45.7478 21.663 45.5578 21.877 45.2858 21.999 44.9998 21.999L44.9998 21.999ZM4.1598 19.999 9.1888 19.999C10.4728 14.679 14.6808 10.471 19.9998 9.188L19.9998 4.159C12.0188 5.593 5.5938 12.018 4.1598 19.999L4.1598 19.999ZM9.9998 21.999 2.9998 21.999C2.7138 21.999 2.4418 21.877 2.2518 21.663 2.0618 21.449 1.9738 21.165 2.0068 20.881 3.1678 11.106 11.1058 3.168 20.8818 2.006 21.1628 1.975 21.4508 2.061 21.6638 2.251 21.8778 2.441 21.9998 2.713 21.9998 2.999L21.9998 9.999C21.9998 10.483 21.6528 10.897 21.1778 10.983 16.0138 11.915 11.9168 16.012 10.9838 21.177 10.8978 21.653 10.4828 21.999 9.9998 21.999L9.9998 21.999Z" id="Fill-1" fill="#8C4FFF"/></g></svg>