<svg width="80" height="80" viewBox="0 0 80 80" xmlns="http://www.w3.org/2000/svg" xmlns:xlink="http://www.w3.org/1999/xlink" overflow="hidden"><g id="Icon-Architecture/64/Arch_Amazon-WorkMail_64" stroke="none" stroke-width="1" fill="none" fill-rule="evenodd"><g id="Icon-Architecture-BG/64/Business-Applications" fill="#DD344C"><rect x="0" y="0" width="80" height="80" id="Rectangle"/></g><path d="M14 66 14 15.414 39.293 40.707C39.488 40.902 39.744 41 40 41 40.256 41 40.512 40.902 40.707 40.707L66 15.414 66 66 14 66ZM64.586 14 40 38.586 15.414 14 64.586 14ZM67 12 13 12C12.447 12 12 12.448 12 13L12 67C12 67.552 12.447 68 13 68L67 68C67.553 68 68 67.552 68 67L68 13C68 12.448 67.553 12 67 12L67 12Z" id="Amazon-WorkMail_Icon_64_Squid" fill="#FFFFFF"/></g></svg>