<svg width="80" height="80" viewBox="0 0 80 80" xmlns="http://www.w3.org/2000/svg" xmlns:xlink="http://www.w3.org/1999/xlink" overflow="hidden"><g id="Icon-Architecture/64/Arch_Amazon-Location-Service_64" stroke="none" stroke-width="1" fill="none" fill-rule="evenodd"><g id="Icon-Architecture-BG/64/Mobile" fill="#DD344C"><rect x="0" y="0" width="80" height="80" id="Rectangle"/></g><g id="Icon-Service/64/Amazon-Location-Service_64" fill="#FFFFFF" transform="translate(12 12)"><path d="M31.0863 9.594C31.0063 9.776 30.9813 9.977 31.0153 10.173L31.8613 15 24.1813 15 24.9863 10.165C25.0193 9.971 24.9933 9.773 24.9143 9.594L21.5393 2 34.4613 2 31.0863 9.594ZM36.8393 0.455C36.6543 0.172 36.3393 0 36.0003 0L20.0003 0C19.6613 0 19.3463 0.172 19.1613 0.455 18.9773 0.739 18.9483 1.097 19.0863 1.406L22.9643 10.132 22.0143 15.836C21.9653 16.126 22.0473 16.422 22.2373 16.647 22.4273 16.871 22.7063 17 23.0003 17L27.0003 17 27.0003 27 29.0003 27 29.0003 17 33.0523 17C33.3483 17 33.6283 16.869 33.8173 16.643 34.0083 16.417 34.0883 16.118 34.0373 15.827L33.0383 10.128 36.9143 1.406C37.0523 1.097 37.0233 0.739 36.8393 0.455L36.8393 0.455ZM44.8503 36.78 42.4103 37.95 28.0003 44.89 13.5903 37.95 11.1503 36.78 3.46033 33.08 11.1003 29.97 27.5703 37.9C27.7003 37.97 27.8503 38 28.0003 38 28.1503 38 28.3003 37.97 28.4303 37.9L44.9003 29.97 52.5403 33.08 44.8503 36.78ZM52.5403 42.08 28.0003 53.89 3.46033 42.08 11.1003 38.97 27.5703 46.9C27.7003 46.97 27.8503 47 28.0003 47 28.1503 47 28.3003 46.97 28.4303 46.9L44.9003 38.97 52.5403 42.08ZM56.0007 32.97C55.9903 32.57 55.7403 32.22 55.3803 32.07L47.3403 28.79 55.4303 24.9C55.7903 24.73 56.0103 24.36 56.0007 23.97 55.9903 23.57 55.7403 23.22 55.3803 23.07L35.9503 15.16 36.0103 15.48C36.1103 16.09 36.0203 16.7 35.7703 17.24L52.5403 24.08 44.8503 27.78 42.4103 28.95 28.0003 35.89 13.5903 28.95 11.1503 27.78 3.46033 24.08 20.2803 17.23C20.0403 16.69 19.9403 16.1 20.0403 15.51L20.1003 15.14 0.620327 23.07C0.260327 23.22 0.010327 23.57-3.55271e-15 23.97-0.00967298 24.36 0.210327 24.73 0.570327 24.9L8.66033 28.79 0.620327 32.07C0.260327 32.22 0.010327 32.57-3.55271e-15 32.97-0.00967298 33.36 0.210327 33.73 0.570327 33.9L8.66033 37.79 0.620327 41.07C0.260327 41.22 0.010327 41.57-3.55271e-15 41.97-0.00967298 42.36 0.210327 42.73 0.570327 42.9L27.5703 55.9C27.7003 55.97 27.8503 56 28.0003 56 28.1503 56 28.3003 55.97 28.4303 55.9L55.4303 42.9C55.7903 42.73 56.0103 42.36 56.0007 41.97 55.9903 41.57 55.7403 41.22 55.3803 41.07L47.3403 37.79 55.4303 33.9C55.7903 33.73 56.0103 33.36 56.0007 32.97L56.0007 32.97Z" id="Fill-1"/></g></g></svg>