<svg width="48" height="48" viewBox="0 0 48 48" xmlns="http://www.w3.org/2000/svg" xmlns:xlink="http://www.w3.org/1999/xlink" overflow="hidden"><g id="Icon-Resource/IoT/Res_AWS-IoT-Analytics_Dataset_48" stroke="none" stroke-width="1" fill="none" fill-rule="evenodd"><path d="M6 40.457 34.888 40.457 34.888 2 6 2 6 40.457ZM8 38.457 32.889 38.457 32.889 4 8 4 8 38.457ZM36.651 5.557 36.651 7.557 39.33 7.557 39.33 44 12.56 44 12.56 42.178 10.56 42.178 10.56 46 41.33 46 41.33 5.557 36.651 5.557ZM28.175 10.176 30.555 10.176 30.555 8.176 28.175 8.176 28.175 10.176ZM10.25 10.176 26.588 10.176 26.588 8.176 10.25 8.176 10.25 10.176ZM19.332 16.223 30.556 16.223 30.556 14.223 19.332 14.223 19.332 16.223ZM14.08 16.223 17.933 16.223 17.933 14.223 14.08 14.223 14.08 16.223ZM10.25 16.223 12.266 16.223 12.266 14.223 10.25 14.223 10.25 16.223ZM18.35 22.269 30.556 22.269 30.556 20.269 18.35 20.269 18.35 22.269ZM10.25 22.269 16.838 22.269 16.838 20.269 10.25 20.269 10.25 22.269ZM10.25 28.315 30.556 28.315 30.556 26.315 10.25 26.315 10.25 28.315ZM26.928 34.286 30.556 34.286 30.556 32.285 26.928 32.285 26.928 34.286ZM10.25 34.286 24.963 34.286 24.963 32.285 10.25 32.285 10.25 34.286Z" id="Amazon-IOT-RESOURCES-IoT-Data-Set_Resource-Icon_light-bg" fill="#7AA116"/></g></svg>