<svg width="48" height="48" viewBox="0 0 48 48" xmlns="http://www.w3.org/2000/svg" xmlns:xlink="http://www.w3.org/1999/xlink" overflow="hidden"><g id="Icon-Resource/Analytics/Res_Amazon-Quicksight_Paginated-Reports_48" stroke="none" stroke-width="1" fill="none" fill-rule="evenodd"><path d="M27 32 33 32 33 30 27 30 27 32ZM27 28 33 28 33 26 27 26 27 28ZM27 24 33 24 33 22 27 22 27 24ZM27 20 33 20 33 18 27 18 27 20ZM22 32 25 32 25 30 22 30 22 32ZM22 28 25 28 25 26 22 26 22 28ZM22 24 25 24 25 22 22 22 22 24ZM22 20 25 20 25 18 22 18 22 20ZM20 34 35 34 35 16 20 16 20 34ZM36 14 19 14C18.447 14 18 14.448 18 15L18 35C18 35.553 18.447 36 19 36L36 36C36.553 36 37 35.553 37 35L37 15C37 14.448 36.553 14 36 14L36 14ZM36 42 38 42 38 45C38 45.552 37.553 46 37 46L8 46C7.447 46 7 45.552 7 45L7 7C7 6.448 7.447 6 8 6L11 6 11 8 9 8 9 44 36 44 36 42ZM15 38 15 4 32 4 32 11C32 11.553 32.447 12 33 12L40 12 40 38 15 38ZM34 5.415 38.586 10 34 10 34 5.415ZM41.991 11C41.991 10.741 41.898 10.485 41.707 10.293L33.707 2.293C33.516 2.102 33.26 2.01 33 2.01L33 2 14 2C13.447 2 13 2.448 13 3L13 39C13 39.553 13.447 40 14 40L41 40C41.553 40 42 39.553 42 39L42 11 41.991 11Z" id="Fill-1" fill="#8C4FFF"/></g></svg>