<svg width="48" height="48" viewBox="0 0 48 48" xmlns="http://www.w3.org/2000/svg" xmlns:xlink="http://www.w3.org/1999/xlink" overflow="hidden"><g id="Icon-Resource/Compute/Res_Amazon-EC2_Auto-Scaling_48" stroke="none" stroke-width="1" fill="none" fill-rule="evenodd"><path d="M45.92 23.0812 37.912 23.0812 41.734 19.2582 40.32 17.8442 34.731 23.4352C34.34 23.8253 34.34 24.4583 34.731 24.8493L40.32 30.4382 41.734 29.0243 37.791 25.0812 45.92 25.0812 45.92 23.0812ZM7.597 17.8442 6.183 19.2582 10.006 23.0812 2 23.0812 2 25.0812 10.126 25.0812 6.183 29.0243 7.597 30.4382 13.187 24.8493C13.577 24.4583 13.577 23.8253 13.187 23.4352L7.597 17.8442ZM18.81 29.2313 29.108 29.2313 29.108 18.9322 18.81 18.9322 18.81 29.2313ZM30.892 17.8102 32.743 17.8102 32.743 19.8102 31.108 19.8102 31.108 21.3242 32.743 21.3242 32.743 23.3242 31.108 23.3242 31.108 24.8382 32.743 24.8382 32.743 26.8382 31.108 26.8382 31.108 28.3522 32.743 28.3522 32.743 30.3522 30.892 30.3522C30.737 30.6313 30.509 30.8592 30.23 31.0142L30.23 32.8652 28.23 32.8652 28.23 31.2302 26.717 31.2302 26.717 32.8652 24.717 32.8652 24.717 31.2302 23.203 31.2302 23.203 32.8652 21.203 32.8652 21.203 31.2302 19.69 31.2302 19.69 32.8652 17.69 32.8652 17.69 31.0142C17.411 30.8592 17.183 30.6313 17.028 30.3522L15.176 30.3522 15.176 28.3522 16.811 28.3522 16.811 26.8382 15.176 26.8382 15.176 24.8382 16.811 24.8382 16.811 23.3242 15.176 23.3242 15.176 21.3242 16.811 21.3242 16.811 19.8102 15.176 19.8102 15.176 17.8102 17.028 17.8102C17.183 17.5312 17.411 17.3032 17.69 17.1483L17.69 15.2983 19.69 15.2983 19.69 16.9322 21.203 16.9322 21.203 15.2983 23.203 15.2983 23.203 16.9322 24.717 16.9322 24.717 15.2983 26.717 15.2983 26.717 16.9322 28.23 16.9322 28.23 15.2983 30.23 15.2983 30.23 17.1483C30.509 17.3032 30.737 17.5312 30.892 17.8102L30.892 17.8102ZM24.961 42.7472 24.961 34.6222 22.961 34.6222 22.961 42.7513 19.075 38.8662 17.661 40.2803 23.251 45.8703C23.446 46.0653 23.702 46.1632 23.958 46.1632 24.214 46.1632 24.47 46.0653 24.665 45.8703L30.256 40.2803 28.842 38.8662 24.961 42.7472ZM19.075 9.29725 17.661 7.88325 23.251 2.29325C23.642 1.90225 24.274 1.90225 24.665 2.29325L30.256 7.88325 28.842 9.29725 24.961 5.41625 24.961 13.5413 22.961 13.5413 22.961 5.41225 19.075 9.29725Z" id="Amazon-EC2-Auto-Scaling_Resource-Icon_light-bg" fill="#ED7100"/></g></svg>