<svg width="80" height="80" viewBox="0 0 80 80" xmlns="http://www.w3.org/2000/svg" xmlns:xlink="http://www.w3.org/1999/xlink" overflow="hidden"><g id="Icon-Architecture/64/Arch_AWS-Tools-and-SDKs_64" stroke="none" stroke-width="1" fill="none" fill-rule="evenodd"><g id="Icon-Architecture-BG/64/Developer-Tools" fill="#C925D1"><rect x="0" y="0" width="80" height="80" id="Rectangle"/></g><path d="M62 53.4165 41 65.2865 41 56.9995 39 56.9995 39 65.2865 18 53.4165 18 27.8045 24.47 31.8485 25.53 30.1515 18.971 26.0525 40.479 14.1485 60.972 25.9835 53.515 30.1255 54.485 31.8745 62 27.6995 62 53.4165ZM63.5 25.1335 40.989 12.1335C40.687 11.9585 40.312 11.9555 40.005 12.1245L16.516 25.1245C16.197 25.3015 16 25.6365 16 25.9995L16 53.9995C16 54.3605 16.194 54.6935 16.508 54.8705L39.508 67.8705C39.66 67.9575 39.83 67.9995 40 67.9995 40.17 67.9995 40.34 67.9575 40.492 67.8705L63.492 54.8705C63.806 54.6935 64 54.3605 64 53.9995L64 25.9995C64 25.6425 63.81 25.3125 63.5 25.1335L63.5 25.1335ZM51 46.6395 41 52.4135 41 40.6185 51 35.6185 51 46.6395ZM40.295 38.7345 30.584 33.1225 39.977 28.1445 49.899 33.9325 40.295 38.7345ZM39 52.4135 29 46.6395 29 34.5165 39 40.2955 39 52.4135ZM52.504 33.1365 40.504 26.1365C40.204 25.9605 39.837 25.9545 39.531 26.1165L27.531 32.4765C27.204 32.6505 27 32.9905 27 33.3605L27 47.2165C27 47.5745 27.19 47.9045 27.5 48.0835L39.5 55.0115C39.654 55.1005 39.827 55.1455 40 55.1455 40.173 55.1455 40.346 55.1005 40.5 55.0115L52.5 48.0835C52.81 47.9045 53 47.5745 53 47.2165L53 33.9995C53 33.6445 52.812 33.3155 52.504 33.1365L52.504 33.1365Z" id="AWS-Tools-and-SDKs_Icon_64_Squid" fill="#FFFFFF"/></g></svg>