<svg width="80" height="80" viewBox="0 0 80 80" xmlns="http://www.w3.org/2000/svg" xmlns:xlink="http://www.w3.org/1999/xlink" overflow="hidden"><g id="Icon-Architecture/64/Arch_Amazon-CodeGuru_64" stroke="none" stroke-width="1" fill="none" fill-rule="evenodd"><g id="Icon-Architecture-BG/64/Machine-Learning" fill="#01A88D"><rect x="0" y="0" width="80" height="80" id="Rectangle"/></g><path d="M26.6372 21.525 22.7992 17.688 21.3851 19.102 25.2232 22.939 26.6372 21.525ZM58.6149 19.102 57.1998 17.688 53.3628 21.525 54.7768 22.939 58.6149 19.102ZM42.2695 27.49 40.2885 27.207 37.7305 45.114 39.7105 45.397 42.2695 27.49ZM49.7527 36.902C50.0197 36.546 50.0197 36.057 49.7527 35.702L45.9156 30.586 44.3166 31.786 47.7027 36.302 44.3166 40.818 45.9156 42.018 49.7527 36.902ZM35.6834 40.818 32.2963 36.302 35.6834 31.786 34.0834 30.586 30.2463 35.702C29.9803 36.057 29.9803 36.546 30.2463 36.902L34.0834 42.018 35.6834 40.818ZM33.9274 63 46.0726 63 43.9576 66 36.0414 66 33.9274 63ZM45.2936 67.576 48.8177 62.576C49.0327 62.271 49.0597 61.871 48.8877 61.539 48.7157 61.208 48.3727 61 47.9997 61L31.9993 61C31.6263 61 31.2833 61.208 31.1123 61.539 30.9403 61.871 30.9673 62.271 31.1823 62.576L34.7054 67.576C34.8934 67.841 35.1984 68 35.5234 68L44.4766 68C44.8016 68 45.1066 67.841 45.2936 67.576L45.2936 67.576ZM32.0463 48.752C32.0463 48.43 31.8923 48.128 31.6313 47.94 28.0903 45.389 25.9762 40.917 25.9762 35.976 25.9762 28.113 32.1363 21.953 39.9995 21.953 47.8637 21.953 54.0238 28.113 54.0238 35.976 54.0238 40.917 51.9087 45.389 48.3677 47.94 48.1077 48.128 47.9527 48.43 47.9527 48.752L47.9527 55.767 32.0463 55.767 32.0463 48.752ZM49.9527 56.767 49.9527 49.252C53.7638 46.285 56.0238 41.364 56.0238 35.976 56.0238 26.991 48.9857 19.953 39.9995 19.953 31.0143 19.953 23.9762 26.991 23.9762 35.976 23.9762 41.364 26.2362 46.285 30.0463 49.252L30.0463 56.767C30.0463 57.319 30.4933 57.767 31.0463 57.767L48.9527 57.767C49.5057 57.767 49.9527 57.319 49.9527 56.767L49.9527 56.767ZM59.1869 37 65 37 65 35 59.1869 35 59.1869 37ZM15 37 20.8131 37 20.8131 35 15 35 15 37ZM38.9995 18 40.9995 18 40.9995 12 38.9995 12 38.9995 18Z" id="Amazon-CodeGuru_Icon_64_Squid" fill="#FFFFFF"/></g></svg>