<svg width="48" height="48" viewBox="0 0 48 48" xmlns="http://www.w3.org/2000/svg" xmlns:xlink="http://www.w3.org/1999/xlink" overflow="hidden"><g id="Icon-Resource/Security-Identity-and-Compliance/Res_AWS-WAF_Bot-Control_48" stroke="none" stroke-width="1" fill="none" fill-rule="evenodd"><path d="M32 26.5C32 26.1 31.844 25.723 31.561 25.44L31.561 25.439C31.269 25.147 30.884 25.001 30.5 25.001 30.116 25.001 29.731 25.147 29.439 25.439 29.156 25.723 29 26.1 29 26.5 29 26.9 29.156 27.277 29.439 27.56 30.023 28.145 30.977 28.146 31.561 27.561 31.844 27.277 32 26.9 32 26.5L32 26.5ZM32.975 24.025C33.636 24.686 34 25.565 34 26.5 34 27.435 33.636 28.314 32.975 28.975 32.292 29.657 31.396 29.998 30.5 29.998 29.604 29.998 28.708 29.657 28.025 28.975 27.364 28.314 27 27.435 27 26.5 27 25.565 27.364 24.686 28.025 24.025 29.391 22.662 31.609 22.661 32.975 24.025L32.975 24.025ZM19 26.5C19 26.1 18.844 25.723 18.561 25.44 18.269 25.147 17.884 25.001 17.5 25.001 17.116 25.001 16.731 25.147 16.439 25.439 16.156 25.723 16 26.1 16 26.5 16 26.9 16.156 27.277 16.439 27.56 17.023 28.145 17.977 28.146 18.561 27.561L18.561 27.56C18.844 27.277 19 26.9 19 26.5L19 26.5ZM19.975 24.025C20.636 24.686 21 25.565 21 26.5 21 27.435 20.636 28.314 19.975 28.975 19.292 29.657 18.396 29.998 17.5 29.998 16.604 29.998 15.708 29.657 15.025 28.975 14.364 28.314 14 27.435 14 26.5 14 25.565 14.364 24.686 15.025 24.025 16.391 22.662 18.609 22.66 19.975 24.025L19.975 24.025ZM35 21.651C35 21.292 34.708 21 34.35 21L13.65 21C13.292 21 13 21.292 13 21.651L13 31.581C13 31.812 13.188 32 13.419 32L34.581 32C34.813 32 35 31.812 35 31.581L35 21.651ZM21.04 19 26.944 19C26.616 18.395 26.003 18 25.293 18L22.707 18C21.985 18 21.363 18.408 21.04 19L21.04 19ZM23 12C23 12.551 23.448 13 24 13 24.552 13 25 12.551 25 12 25 11.449 24.552 11 24 11 23.448 11 23 11.449 23 12L23 12ZM37 31.581C37 32.915 35.915 34 34.581 34L28 34 28 38 26 38 26 34 22 34 22 38 20 38 20 34 13.419 34C12.085 34 11 32.915 11 31.581L11 21.651C11 20.189 12.188 19 13.65 19L18.917 19C19.328 17.284 20.866 16 22.707 16L23 16 23 14.815C21.839 14.401 21 13.302 21 12 21 10.346 22.346 9 24 9 25.654 9 27 10.346 27 12 27 13.302 26.161 14.401 25 14.816L25 16 25.293 16C27.134 16 28.672 17.284 29.083 19L34.35 19C35.812 19 37 20.189 37 21.651L37 31.581ZM7.489 35.95 9.11 34.777C7.029 31.902 5.859 28.538 5.676 25L8 25 8 23 5.679 23C5.871 19.483 7.04 16.14 9.11 13.281L7.489 12.108C5.172 15.311 3.873 19.059 3.679 23L2 23 2 25 3.676 25C3.861 28.962 5.16 32.731 7.489 35.95L7.489 35.95ZM34.747 38.918C31.88 40.993 28.527 42.162 25 42.351L25 40 23 40 23 42.351C19.472 42.163 16.118 40.994 13.25 38.918L12.078 40.539C15.289 42.862 19.049 44.161 23 44.351L23 46 25 46 25 44.351C28.951 44.16 32.709 42.862 35.919 40.539L34.747 38.918ZM13.25 9.14C16.118 7.064 19.472 5.896 23 5.708L23 8 25 8 25 5.708C28.527 5.896 31.88 7.065 34.747 9.14L35.919 7.52C32.709 5.196 28.951 3.897 25 3.708L25 2 23 2 23 3.708C19.048 3.897 15.289 5.196 12.078 7.52L13.25 9.14ZM44.319 23C44.125 19.059 42.826 15.311 40.509 12.108L38.888 13.281C40.958 16.14 42.127 19.483 42.319 23L40 23 40 25 42.322 25C42.139 28.538 40.969 31.902 38.888 34.777L40.509 35.95C42.838 32.731 44.137 28.962 44.322 25L46 25 46 23 44.319 23ZM37.026 12.416 43.186 6.256 41.771 4.842 35.612 11.002 37.026 12.416ZM10.972 35.642 4.812 41.802 6.226 43.216 12.386 37.056 10.972 35.642ZM11.706 10.293 3.586 2.173 2.172 3.587 10.292 11.708 11.706 10.293ZM37.706 36.293 45.826 44.413 44.412 45.827 36.292 37.708 37.706 36.293Z" id="Fill-1" fill="#DD344C"/></g></svg>