<svg width="80" height="80" viewBox="0 0 80 80" xmlns="http://www.w3.org/2000/svg" xmlns:xlink="http://www.w3.org/1999/xlink" overflow="hidden"><g id="Icon-Architecture/64/Arch_Amazon-Kendra_64" stroke="none" stroke-width="1" fill="none" fill-rule="evenodd"><g id="Icon-Architecture-BG/64/Machine-Learning" fill="#01A88D"><rect x="0" y="0" width="80" height="80" id="Rectangle"/></g><path d="M13.9999 34.0012 60.9994 34.0012 60.9994 32.0011 13.9999 32.0011 13.9999 34.0012ZM35.9997 16.0003 60.9994 16.0003 60.9994 14.0002 35.9997 14.0002 35.9997 16.0003ZM25.9998 16.0003 28.9998 16.0003 28.9998 14.0002 25.9998 14.0002 25.9998 16.0003ZM19.9999 16.0003 22.9998 16.0003 22.9998 14.0002 19.9999 14.0002 19.9999 16.0003ZM13.9999 16.0003 16.9999 16.0003 16.9999 14.0002 13.9999 14.0002 13.9999 16.0003ZM56.7135 50.331C56.7135 53.9121 53.9085 56.7173 50.3275 56.7173 46.7466 56.7173 43.9406 53.9121 43.9406 50.331 43.9406 46.7488 46.7466 43.9437 50.3275 43.9437 53.9085 43.9437 56.7135 46.7488 56.7135 50.331L56.7135 50.331ZM58.7134 50.331C58.7134 45.6277 55.0295 41.9436 50.3275 41.9436 45.6246 41.9436 41.9406 45.6277 41.9406 50.331 41.9406 55.0332 45.6246 58.7174 50.3275 58.7174 55.0295 58.7174 58.7134 55.0332 58.7134 50.331L58.7134 50.331ZM69.9873 67.9868C70.0363 67.6158 69.9373 67.3028 69.6933 67.0588L61.5504 59.1324C60.8424 60.0324 60.0304 60.8445 59.1304 61.5525L67.0793 69.6879C67.6923 70.3009 68.6523 69.9099 69.2783 69.2839 69.6713 68.8909 69.9293 68.4178 69.9873 67.9868L69.9873 67.9868ZM50.3275 62.6116C57.0995 62.6116 62.6074 57.1023 62.6074 50.331 62.6074 43.5586 57.0995 38.0494 50.3275 38.0494 43.5566 38.0494 38.0477 43.5586 38.0477 50.331 38.0477 57.1023 43.5566 62.6116 50.3275 62.6116L50.3275 62.6116ZM71.9693 68.2518C71.8533 69.1229 71.3993 69.9909 70.6923 70.6979 69.8303 71.561 68.8043 72 67.8313 72 67.0293 72 66.2654 71.702 65.6574 71.095L57.4474 62.6906C55.3495 63.9056 52.9215 64.6116 50.3275 64.6116 42.4536 64.6116 36.0477 58.2053 36.0477 50.331 36.0477 42.4566 42.4536 36.0493 50.3275 36.0493 58.2014 36.0493 64.6074 42.4566 64.6074 50.331 64.6074 52.9241 63.9014 55.3512 62.6884 57.4493L71.0983 65.6347C71.7963 66.3327 72.1033 67.2588 71.9693 68.2518L71.9693 68.2518ZM13.9999 42.0016 35.9187 42.0016C36.3347 41.3025 36.7897 40.6295 37.3007 40.0015L13.9999 40.0015 13.9999 42.0016ZM64.9994 19.0005 64.9994 12.0001C64.9994 11.4491 64.5514 11.0001 63.9994 11.0001L11 11.0001C10.448 11.0001 9.99998 11.4491 9.99998 12.0001L9.99998 19.0005 64.9994 19.0005ZM66.9993 12.0001 66.9993 20.0005 66.9993 48.7029C66.7503 46.4488 66.0544 44.3297 64.9994 42.4336L64.9994 21.0006 9.99998 21.0006 9.99998 64.0026 40.3296 64.0026C41.3916 64.7937 42.5386 65.4777 43.7716 66.0027L8.99999 66.0027C8.44699 66.0027 8 65.5547 8 65.0027L8 20.0005 8 12.0001C8 10.3461 9.34599 9 11 9L63.9994 9C65.6534 9 66.9993 10.3461 66.9993 12.0001L66.9993 12.0001ZM33.7637 48.0019C33.6617 48.6579 33.5987 49.3239 33.5757 50.002L13.9999 50.002 13.9999 48.0019 33.7637 48.0019Z" id="Amazon-Kendra_Icon_64_Squid" fill="#FFFFFF"/></g></svg>