<svg width="80" height="80" viewBox="0 0 80 80" xmlns="http://www.w3.org/2000/svg" xmlns:xlink="http://www.w3.org/1999/xlink" overflow="hidden"><g id="Icon-Architecture/64/Arch_Amazon-SageMaker-Ground-Truth_64" stroke="none" stroke-width="1" fill="none" fill-rule="evenodd"><g id="Icon-Architecture-BG/64/Machine-Learning" fill="#01A88D"><rect x="0" y="0" width="80" height="80" id="Rectangle"/></g><path d="M41.002 49.0001C41.002 49.5511 40.554 50.0001 40.002 50.0001 39.45 50.0001 39.002 49.5511 39.002 49.0001 39.002 48.4491 39.45 48.0001 40.002 48.0001 40.554 48.0001 41.002 48.4491 41.002 49.0001L41.002 49.0001ZM37.002 49.0001C37.002 50.6541 38.348 52.0001 40.002 52.0001 41.656 52.0001 43.002 50.6541 43.002 49.0001 43.002 47.3461 41.656 46.0001 40.002 46.0001 38.348 46.0001 37.002 47.3461 37.002 49.0001L37.002 49.0001ZM36.002 59.0001 44.002 59.0001 44.002 57.0001 36.002 57.0001 36.002 59.0001ZM35.002 61 45.002 61 45.002 55.0001 35.002 55.0001 35.002 61ZM33.002 54.0001 33.002 62C33.002 62.552 33.449 63 34.002 63L46.002 63C46.555 63 47.002 62.552 47.002 62L47.002 54.0001C47.002 53.4481 46.555 53.0001 46.002 53.0001L34.002 53.0001C33.449 53.0001 33.002 53.4481 33.002 54.0001L33.002 54.0001ZM48.002 65 32.002 65 32.002 49.4891 40.002 43.2672 48.002 49.4891 48.002 65ZM40.616 41.2102C40.255 40.9302 39.749 40.9302 39.388 41.2102L30.388 48.2101C30.145 48.4001 30.002 48.6911 30.002 49.0001L30.002 66C30.002 66.552 30.449 67 31.002 67L49.002 67C49.555 67 50.002 66.552 50.002 66L50.002 49.0001C50.002 48.6911 49.859 48.4001 49.616 48.2101L40.616 41.2102ZM57.002 43.0002C56.45 43.0002 56.002 42.5512 56.002 42.0002 56.002 41.4492 56.45 41.0002 57.002 41.0002 57.554 41.0002 58.002 41.4492 58.002 42.0002 58.002 42.5512 57.554 43.0002 57.002 43.0002L57.002 43.0002ZM53.018 27.0493C52.458 27.0493 52.002 26.5933 52.002 26.0333 52.002 25.4733 52.458 25.0173 53.018 25.0173 53.578 25.0173 54.034 25.4733 54.034 26.0333 54.034 26.5933 53.578 27.0493 53.018 27.0493L53.018 27.0493ZM49.002 35.0002C49.554 35.0002 50.002 35.4492 50.002 36.0002 50.002 36.5512 49.554 37.0002 49.002 37.0002 48.45 37.0002 48.002 36.5512 48.002 36.0002 48.002 35.4492 48.45 35.0002 49.002 35.0002L49.002 35.0002ZM66.496 33.1322 60.002 29.4203 60.002 22.0003C60.002 21.6663 59.835 21.3543 59.557 21.1683L47.557 13.1684C47.24 12.9584 46.832 12.9444 46.502 13.1344L40.004 16.8843 33.502 13.1344C33.19 12.9544 32.808 12.9554 32.498 13.1364L20.498 20.1363C20.19 20.3153 20.002 20.6453 20.002 21.0003L20.002 29.4203 13.506 33.1322C13.194 33.3102 13.002 33.6412 13.002 34.0002L13.002 34.4172C13.001 34.4382 13 34.4582 13 34.4792L13 45.3632C13 45.3832 13.001 45.4032 13.002 45.4221L13.002 47.0001C13.002 47.3791 13.216 47.7251 13.555 47.8951L19.002 50.6181 19.002 59.0001C19.002 59.3791 19.216 59.7251 19.555 59.8951L27.555 63.895 28.449 62.105 21.002 58.3821 21.002 50.0001C21.002 49.6211 20.788 49.2751 20.449 49.1051L15.002 46.3821 15.001 40.6182 20.449 37.8952 19.555 36.1052 15.001 38.3812 15.002 34.5812 20.963 31.1742 26.002 34.5192 26.002 39.4472 21.489 42.1422 22.515 43.8582 27.014 41.1732 31.487 43.8572 32.517 42.1432 28.002 39.4342 28.002 34.5352 33.557 30.8323C33.835 30.6463 34.002 30.3343 34.002 30.0003L34.002 24.0003 32.002 24.0003 32.002 29.4653 27.014 32.7902 22.002 29.4633 22.002 21.5743 27.002 18.6583 27.002 27.0003 29.002 27.0003 29.002 17.4913 33.005 15.1564 39.001 18.6153 39.002 31.0003C39.002 31.3592 39.194 31.6902 39.506 31.8682L46.042 35.6032C46.024 35.7342 46.002 35.8642 46.002 36.0002 46.002 37.6542 47.348 39.0002 49.002 39.0002 50.656 39.0002 52.002 37.6542 52.002 36.0002 52.002 34.3462 50.656 33.0002 49.002 33.0002 48.208 33.0002 47.49 33.3152 46.953 33.8202L41.002 30.4193 41.001 18.6183 46.964 15.1764 58.002 22.5353 58.002 25.0003 55.852 25.0003C55.429 23.8443 54.318 23.0173 53.018 23.0173 51.355 23.0173 50.002 24.3703 50.002 26.0333 50.002 27.6963 51.355 29.0493 53.018 29.0493 54.343 29.0493 55.472 28.1903 55.875 27.0003L58.002 27.0003 58.002 30.0003C58.002 30.3593 58.194 30.6903 58.506 30.8683L65 34.5802 65 45.2722 59.963 42.3822C59.98 42.2562 60.002 42.1312 60.002 42.0002 60.002 40.3462 58.656 39.0002 57.002 39.0002 55.348 39.0002 54.002 40.3462 54.002 42.0002 54.002 43.6542 55.348 45.0002 57.002 45.0002 57.801 45.0002 58.523 44.6822 59.062 44.1712L63.886 46.9391 59.555 49.1051C59.216 49.2751 59.002 49.6211 59.002 50.0001L59.002 58.3821 51.555 62.105 52.449 63.895 60.449 59.8951C60.788 59.7251 61.002 59.3791 61.002 59.0001L61.002 50.6181 66.447 47.8951C66.786 47.7251 67 47.3791 67 47.0001L67 34.0002C67 33.6412 66.808 33.3102 66.496 33.1322L66.496 33.1322Z" id="Amazon-SageMaker-Ground-Truth_Icon_64_Squid" fill="#FFFFFF"/></g></svg>