<svg width="80" height="80" viewBox="0 0 80 80" xmlns="http://www.w3.org/2000/svg" xmlns:xlink="http://www.w3.org/1999/xlink" overflow="hidden"><g id="Icon-Architecture/64/Arch_AWS-Lake-Formation_64" stroke="none" stroke-width="1" fill="none" fill-rule="evenodd"><g id="Icon-Architecture/64/Analytics" fill="#8C4FFF"><rect x="0" y="0" width="80" height="80" id="Rectangle"/></g><path d="M53.9372 45.211C54.7002 46.101 55.8332 46.666 57.0941 46.666 59.3861 46.666 61.2501 44.801 61.2501 42.509L59.2501 42.509C59.2501 43.699 58.2831 44.666 57.0941 44.666 55.9052 44.666 54.9372 43.699 54.9372 42.509L52.9372 42.509C52.9372 43.699 51.9702 44.666 50.7813 44.666 49.5913 44.666 48.6243 43.699 48.6243 42.509L46.6244 42.509C46.6244 43.699 45.6564 44.666 44.4674 44.666 43.2784 44.666 42.3105 43.699 42.3105 42.509L40.3105 42.509C40.3105 43.699 39.3425 44.666 38.1545 44.666L38.1545 46.666C39.4165 46.666 40.5475 46.101 41.3105 45.211 42.0735 46.101 43.2064 46.666 44.4674 46.666 45.7294 46.666 46.8614 46.101 47.6243 45.211 48.3863 46.101 49.5193 46.666 50.7813 46.666 52.0422 46.666 53.1742 46.101 53.9372 45.211L53.9372 45.211ZM53.0592 31.605 51.0593 31.605C51.0593 32.794 50.0913 33.761 48.9023 33.761 47.7133 33.761 46.7464 32.794 46.7464 31.605L44.7464 31.605C44.7464 32.794 43.7784 33.761 42.5884 33.761 41.4005 33.761 40.4325 32.794 40.4325 31.605L38.4325 31.605C38.4325 32.794 37.4646 33.761 36.2766 33.761L36.2766 35.761C37.5386 35.761 38.6695 35.196 39.4325 34.306 40.1955 35.196 41.3275 35.761 42.5884 35.761 43.8504 35.761 44.9834 35.196 45.7464 34.306 46.5084 35.196 47.6403 35.761 48.9023 35.761 50.1643 35.761 51.2963 35.196 52.0592 34.306 52.8222 35.196 53.9542 35.761 55.2152 35.761L55.2152 33.761C54.0272 33.761 53.0592 32.794 53.0592 31.605L53.0592 31.605ZM37.2056 58.923C38.4665 58.923 39.5985 58.358 40.3615 57.468 41.1245 58.358 42.2565 58.923 43.5184 58.923 44.7804 58.923 45.9124 58.358 46.6744 57.468 47.4373 58.358 48.5693 58.923 49.8313 58.923L49.8313 56.923C48.6423 56.923 47.6743 55.956 47.6743 54.767L45.6744 54.767C45.6744 55.956 44.7074 56.923 43.5184 56.923 42.3295 56.923 41.3615 55.956 41.3615 54.767L39.3615 54.767C39.3615 55.956 38.3935 56.923 37.2056 56.923 36.0156 56.923 35.0476 55.956 35.0476 54.767L33.0476 54.767C33.0476 55.956 32.0807 56.923 30.8917 56.923L30.8917 58.923C32.1537 58.923 33.2856 58.358 34.0476 57.468 34.8106 58.358 35.9436 58.923 37.2056 58.923L37.2056 58.923ZM23.0009 20 24.0008 20 24.0008 19 23.0009 19 23.0009 20ZM20.9999 21 20.9999 18C20.9999 17.447 21.4479 17 22.0009 17L25.0008 17C25.5528 17 26.0008 17.447 26.0008 18L26.0008 21C26.0008 21.552 25.5528 22 25.0008 22L22.0009 22C21.4479 22 20.9999 21.552 20.9999 21L20.9999 21ZM29.0007 16 30.0007 16 30.0007 15 29.0007 15 29.0007 16ZM27.0008 17 27.0008 14C27.0008 13.447 27.4478 13 28.0007 13L31.0007 13C31.5527 13 32.0007 13.447 32.0007 14L32.0007 17C32.0007 17.552 31.5527 18 31.0007 18L28.0007 18C27.4478 18 27.0008 17.552 27.0008 17L27.0008 17ZM30.0007 23 31.0007 23 31.0007 22 30.0007 22 30.0007 23ZM32.0007 20C32.5527 20 33.0006 20.447 33.0006 21L33.0006 24C33.0006 24.552 32.5527 25 32.0007 25L29.0007 25C28.4477 25 28.0007 24.552 28.0007 24L28.0007 21C28.0007 20.447 28.4477 20 29.0007 20L32.0007 20ZM28.1877 28.075C27.1728 28.075 23.3968 28.036 20.5459 27.513L26.8448 37.465C26.9468 37.625 27.0008 37.81 27.0008 38L27.0008 39.261C27.6938 39.427 28.3487 39.432 29.0007 39.274L29.0007 38C29.0007 37.811 29.0537 37.626 29.1547 37.465L35.7166 27.53C33.5156 27.92 30.6157 28.075 28.1877 28.075L28.1877 28.075ZM17.066 25.567C17.059 25.52 17.05 25.431 17.05 25.384 17.05 24.769 17.05 22.898 26.9808 22.704L27.0198 24.704C23.8218 24.766 21.4579 25.071 20.1109 25.384 21.5819 25.727 24.3108 26.075 28.1877 26.075 31.9227 26.075 34.7126 25.739 36.2466 25.383 35.7346 25.262 35.0246 25.13 34.0466 25.011L34.2896 23.026C37.8655 23.462 39.3245 24.146 39.3245 25.384 39.3245 25.648 39.2295 26.01 38.8905 26.356L31.0007 38.289 31.0007 40C31.0007 40.408 30.7517 40.775 30.3737 40.927 29.6047 41.236 28.8327 41.39 28.0447 41.39 27.2668 41.39 26.4738 41.239 25.6548 40.938 25.2618 40.793 25.0008 40.419 25.0008 40L25.0008 38.29 17.325 26.162C17.323 26.159 17.321 26.156 17.319 26.153L17.311 26.139 17.162 25.903 17.177 25.893C17.123 25.791 17.083 25.682 17.066 25.567L17.066 25.567ZM27.0008 45 27.0008 42 25.0008 42 25.0008 44 23.0009 44C22.6129 44 22.2589 44.224 22.0949 44.575 21.9299 44.927 21.9839 45.342 22.2319 45.64L27.2318 51.64C27.4218 51.868 27.7038 52 28.0007 52 28.2967 52 28.5787 51.868 28.7687 51.64L33.7686 45.64C34.0166 45.342 34.0706 44.927 33.9056 44.575 33.7416 44.224 33.3876 44 33.0006 44L31.0007 44 31.0007 42 29.0007 42 29.0007 45C29.0007 45.552 29.4477 46 30.0007 46L30.8657 46 28.0007 49.438 25.1348 46 26.0008 46C26.5528 46 27.0008 45.552 27.0008 45L27.0008 45ZM64 43C64 56.233 53.2332 67 39.9995 67 26.7668 67 16 56.233 16 43 16 39.342 16.802 35.831 18.382 32.564L20.1829 33.435C18.7349 36.428 18 39.646 18 43 18 55.13 27.8698 65 39.9995 65 52.1302 65 62 55.13 62 43 62 30.869 52.1302 21 39.9995 21 38.7135 21 37.4266 21.111 36.1726 21.331L35.8276 19.361C37.1946 19.121 38.5985 19 39.9995 19 53.2332 19 64 29.766 64 43L64 43Z" id="AWS-Lake-Formation_Icon_64_Squid" fill="#FFFFFF"/></g></svg>