<svg width="80" height="80" viewBox="0 0 80 80" xmlns="http://www.w3.org/2000/svg" xmlns:xlink="http://www.w3.org/1999/xlink" overflow="hidden"><g id="Icon-Architecture/64/Arch_AWS-Budgets_64" stroke="none" stroke-width="1" fill="none" fill-rule="evenodd"><g id="Icon-Architecture-BG/64/AWS-Cost-Management" fill="#7AA116"><rect x="0" y="0" width="80" height="80" id="Rectangle"/></g><path d="M49 30 49 25.414 41.707 32.707C41.346 33.069 40.772 33.098 40.375 32.781L36.074 29.34 29.707 35.707 28.293 34.293 35.293 27.293C35.654 26.932 36.228 26.901 36.625 27.219L40.926 30.66 47.586 24 43 24 43 22 50 22C50.553 22 51 22.448 51 23L51 30 49 30ZM26 43 24 43 24 13C24 12.448 24.447 12 25 12L55 12C55.553 12 56 12.448 56 13L56 43 54 43 54 14 26 14 26 43ZM15 64.471 15 42.061 27.74 50.881 15 64.471ZM40 59.125C40.224 59.125 40.447 59.058 40.641 58.925L50.597 52.032 63.691 66 16.309 66 29.403 52.032 39.359 58.925C39.553 59.058 39.776 59.125 40 59.125L40 59.125ZM52.26 50.881 65 42.061 65 64.471 52.26 50.881ZM66.658 39.248 58.658 32.248 57.342 33.752 64.279 39.823 40 56.632 15.721 39.823 22.658 33.752 21.342 32.248 13.342 39.248C13.124 39.438 13 39.711 13 40L13 67C13 67.552 13.447 68 14 68L66 68C66.553 68 67 67.552 67 67L67 40C67 39.711 66.876 39.438 66.658 39.248L66.658 39.248Z" id="AWS-Budgets_Icon_64_Squid" fill="#FFFFFF"/></g></svg>